<?xml version="1.0" encoding="utf-8"?>
<!-- Generator: Adobe Illustrator 21.0.0, SVG Export Plug-In . SVG Version: 6.00 Build 0)  -->
<svg version="1.1" id="Layer_1" xmlns="http://www.w3.org/2000/svg" xmlns:xlink="http://www.w3.org/1999/xlink" x="0px" y="0px"
	 viewBox="0 0 1221.4 511.2" style="enable-background:new 0 0 1221.4 511.2;" xml:space="preserve">
<style type="text/css">
	.st0{fill:#FFFFFF;}
	.st1{fill-rule:evenodd;clip-rule:evenodd;fill:#685989;}
	.st2{fill:#F87481;}
	.st3{fill:#864D7D;}
	.st4{fill:#685989;}
	.st5{fill:#7087AF;}
	.st6{fill:#9CC1C8;}
	.st7{fill:#BEDBC3;}
	.st8{fill:none;stroke:#685989;stroke-width:3;stroke-miterlimit:10;}
	.st9{fill:none;stroke:#9CC1C8;stroke-width:3;stroke-miterlimit:10;}
	.st10{fill:none;stroke:#864D7D;stroke-width:3;stroke-miterlimit:10;}
	.st11{fill-rule:evenodd;clip-rule:evenodd;fill:#F87481;}
	.st12{opacity:0.3;clip-path:url(#SVGID_5_);}
	.st13{opacity:0.3;clip-path:url(#SVGID_7_);}
	.st14{opacity:0.3;clip-path:url(#SVGID_9_);}
	.st15{opacity:0.3;clip-path:url(#SVGID_11_);}
	.st16{opacity:0.3;clip-path:url(#SVGID_13_);}
	.st17{clip-path:url(#SVGID_15_);}
	.st18{clip-path:url(#SVGID_19_);}
	.st19{fill:#F6F6F6;}
	.st20{fill:#EDEDED;}
	.st21{opacity:0.5;fill:#9CC1C8;}
	.st22{fill:#D3DEE4;}
	.st23{fill:#007271;}
	.st24{fill:#369999;}
	.st25{fill:#4D2B2B;}
	.st26{fill:#3A1F1E;}
	.st27{fill:#E95B4E;}
	.st28{fill:#EE8268;}
	.st29{fill:#C83D36;}
	.st30{fill:#F6B99F;}
	.st31{fill:#EEE9DC;}
	.st32{fill:#EDC9C7;stroke:#221F20;stroke-linecap:round;stroke-linejoin:round;stroke-miterlimit:10;}
	.st33{fill:#F19775;}
	.st34{fill:#6B3E3F;}
	.st35{fill:#C7BDB7;}
	.st36{fill:#D1D5CA;}
	.st37{fill:#2B3668;}
	.st38{fill:#EE827D;}
	.st39{fill:#FFFFFF;stroke:#FFFFFF;stroke-miterlimit:10;}
	.st40{fill:#606060;}
	.st41{fill:none;stroke:#BEDBC3;stroke-width:4;stroke-linecap:round;stroke-linejoin:round;stroke-miterlimit:10;}
	.st42{fill:none;stroke:#864D7D;stroke-width:3.7;stroke-miterlimit:10;}
	.st43{fill:#864D7D;stroke:#864D7D;stroke-width:0.9403;stroke-miterlimit:10;}
	.st44{opacity:0.5;}
	.st45{fill:#FEFFFF;}
	.st46{fill:#FEFEFF;}
	.st47{fill:#FDFEFE;}
	.st48{fill:#FDFDFE;}
	.st49{fill:#FCFDFE;}
	.st50{fill:#FBFCFE;}
	.st51{fill:#FBFCFD;}
	.st52{fill:#FAFCFD;}
	.st53{fill:#FAFBFD;}
	.st54{fill:#F9FBFD;}
	.st55{fill:#F8FAFC;}
	.st56{fill:#F7FAFC;}
	.st57{fill:#F7F9FC;}
	.st58{fill:#F6F9FC;}
	.st59{fill:#F6F9FB;}
	.st60{fill:#F5F8FB;}
	.st61{fill:#F4F7FB;}
	.st62{fill:#F3F7FB;}
	.st63{fill:#F3F7FA;}
	.st64{fill:#F2F6FA;}
	.st65{fill:#F1F5FA;}
	.st66{fill:#F0F5F9;}
	.st67{fill:#F0F4F9;}
	.st68{fill:#EFF4F9;}
	.st69{fill:#EEF3F8;}
	.st70{fill:#EDF3F8;}
	.st71{fill:#EDF2F8;}
	.st72{fill:#ECF2F8;}
	.st73{fill:#EBF1F7;}
	.st74{fill:#EAF1F7;}
	.st75{fill:#EAF0F7;}
	.st76{fill:#E9F0F7;}
	.st77{fill:#E8EFF6;}
	.st78{fill:#E7EFF6;}
	.st79{fill:#E7EEF6;}
	.st80{fill:#E6EEF5;}
	.st81{fill:#E5EDF5;}
	.st82{fill:#E4ECF5;}
	.st83{fill:#E4ECF4;}
	.st84{fill:#E3ECF4;}
	.st85{fill:#E2EBF4;}
	.st86{fill:#E1EAF4;}
	.st87{fill:#E1EAF3;}
	.st88{fill:#E0EAF3;}
	.st89{fill:#E0E9F3;}
	.st90{fill:#DFE9F3;}
	.st91{fill:#DEE8F2;}
	.st92{fill:#DDE8F2;}
	.st93{fill:#DDE7F2;}
	.st94{fill:#DCE7F2;}
	.st95{fill:#DCE7F1;}
	.st96{fill:#DBE6F1;}
	.st97{fill:#DAE6F1;}
	.st98{fill:#DAE5F1;}
	.st99{fill:#D9E5F0;}
	.st100{fill:#D9E4F0;}
	.st101{fill:#D8E4F0;}
	.st102{fill:#D6E2EE;}
	.st103{fill:#D4E0EC;}
	.st104{fill:#D2DEEA;}
	.st105{fill:#D0DCE8;}
	.st106{fill:#CEDAE6;}
	.st107{fill:#CDD9E5;}
	.st108{fill:#CBD7E3;}
	.st109{fill:#C9D5E1;}
	.st110{fill:#C7D3DF;}
	.st111{fill:#C5D1DD;}
	.st112{fill:#C3CFDB;}
	.st113{fill:#C1CDD9;}
	.st114{fill:#BFCBD7;}
	.st115{fill:#BDC9D5;}
	.st116{fill:#BBC7D3;}
	.st117{fill:#B9C6D2;}
	.st118{fill:#B7C4D0;}
	.st119{fill:#B6C2CE;}
	.st120{fill:#B4C0CC;}
	.st121{fill:#B2BECA;}
	.st122{fill:#B0BCC8;}
	.st123{fill:#AEBAC6;}
	.st124{fill:#ACB8C4;}
	.st125{fill:#AAB6C2;}
	.st126{fill:#A8B4C0;}
	.st127{fill:#A6B3BF;}
	.st128{fill:#A4B1BD;}
	.st129{fill:#A2AFBB;}
	.st130{fill:#A0ADB9;}
	.st131{fill:#9FABB7;}
	.st132{fill:#9DA9B5;}
	.st133{fill:#9BA7B3;}
	.st134{fill:#99A5B1;}
	.st135{fill:#97A3AF;}
	.st136{fill:#95A1AD;}
	.st137{fill:#93A0AC;}
	.st138{fill:#919EAA;}
	.st139{fill:#8F9CA8;}
	.st140{fill:#8D9AA6;}
	.st141{fill:#8B98A4;}
	.st142{fill:#8996A2;}
	.st143{fill:#8894A0;}
	.st144{fill:#86929E;}
	.st145{fill:#84909C;}
	.st146{fill:#828E9A;}
	.st147{fill:#808D99;}
	.st148{fill:#7E8B97;}
	.st149{fill:#7C8995;}
	.st150{fill:#7A8793;}
	.st151{fill:#788591;}
	.st152{fill:#76838F;}
	.st153{fill:#74818D;}
	.st154{fill:#727F8B;}
	.st155{fill:#717D89;}
	.st156{fill:#6F7B87;}
	.st157{fill:#6D7A86;}
	.st158{fill:#6B7884;}
	.st159{fill:#697682;}
	.st160{fill:#677480;}
	.st161{fill:#65727E;}
	.st162{fill:#63707C;}
	.st163{fill:#616E7A;}
	.st164{fill:#5F6C78;}
	.st165{fill:#5D6A76;}
	.st166{fill:#5B6874;}
	.st167{fill:#5A6773;}
	.st168{fill:#586571;}
	.st169{fill:#56636F;}
	.st170{fill:#54616D;}
	.st171{fill:#525F6B;}
	.st172{fill:#505D69;}
	.st173{fill:#864D7D;stroke:#864D7D;stroke-miterlimit:10;}
	.st174{fill:none;stroke:#FFFFFF;stroke-width:2;stroke-miterlimit:10;}
	.st175{clip-path:url(#SVGID_29_);}
	.st176{clip-path:url(#SVGID_33_);}
	.st177{fill:#FFFFFF;stroke:#242E77;stroke-width:0.1637;stroke-linecap:round;stroke-linejoin:round;stroke-miterlimit:10;}
	.st178{opacity:0.3;clip-path:url(#SVGID_37_);}
	.st179{opacity:0.3;clip-path:url(#SVGID_39_);}
	.st180{opacity:0.3;clip-path:url(#SVGID_41_);}
	.st181{opacity:0.3;clip-path:url(#SVGID_43_);}
	.st182{opacity:0.3;clip-path:url(#SVGID_45_);}
	.st183{fill:none;stroke:#7087AF;stroke-miterlimit:10;}
	.st184{clip-path:url(#SVGID_47_);}
	.st185{clip-path:url(#SVGID_50_);}
	.st186{fill:none;stroke:#FFFFFF;stroke-miterlimit:10;}
	.st187{fill-rule:evenodd;clip-rule:evenodd;fill:#FFFFFF;}
	.st188{fill:#B2555F;}
	.st189{fill:#47284F;}
	.st190{fill:#FFBF9B;}
	.st191{fill:#FFA687;}
	.st192{fill:none;stroke:#47284F;stroke-width:1.1054;stroke-linecap:round;stroke-miterlimit:10;}
	.st193{fill:#72426B;}
	.st194{fill:#FFC9AC;}
	.st195{fill:#C19884;}
	.st196{fill:#FFA68D;}
	.st197{fill:#13A6CE;}
	.st198{fill:#4E2447;}
	.st199{opacity:0.3;}
	.st200{fill:#1A2E35;}
	.st201{fill:#FFBF9D;}
	.st202{fill:#FF9A6C;}
	.st203{fill:#375A64;}
	.st204{fill:#E1E1E1;}
	.st205{opacity:0.2;}
	.st206{fill:#FF4F5B;}
	.st207{fill:#EBEBEB;}
	.st208{fill:#AA6550;}
	.st209{fill:none;stroke:#FFA6AD;stroke-miterlimit:10;}
	.st210{fill:none;stroke:#FFFFFF;stroke-width:5.000000e-02;stroke-miterlimit:10;}
	.st211{fill:#FAFAFA;}
	.st212{fill:#FFFFFF;stroke:#FFFFFF;stroke-width:3;stroke-miterlimit:10;}
	.st213{clip-path:url(#SVGID_70_);}
	.st214{clip-path:url(#SVGID_74_);}
</style>
<g>
	<path class="st19" d="M1150.7,463.7H248.5V33.5h972.9V393C1221.4,432.1,1189.7,463.7,1150.7,463.7z"/>
	<rect x="311.2" y="33.5" class="st6" width="910.2" height="86.4"/>
	<rect x="451.7" y="120" class="st3" width="769.7" height="9.3"/>
	<g>
		<g>
			<g>
				<g>
					<defs>
						<circle id="SVGID_3_" cx="248.5" cy="248.6" r="215.1"/>
					</defs>
					<clipPath id="SVGID_5_">
						<use xlink:href="#SVGID_3_"  style="overflow:visible;"/>
					</clipPath>
				</g>
			</g>
			<g>
				<g>
					
						<image style="overflow:visible;opacity:0.15;" width="2131" height="2130" xlink:href="76C280D22B1F15EA.png"  transform="matrix(0.24 0 0 0.24 0 0)">
					</image>
					<g>
						<circle class="st6" cx="248.5" cy="248.6" r="240.4"/>
					</g>
				</g>
				<g>
					<defs>
						<circle id="SVGID_2_" cx="248.5" cy="248.6" r="215.1"/>
					</defs>
					<use xlink:href="#SVGID_2_"  style="overflow:visible;fill:#FFFFFF;"/>
					<clipPath id="SVGID_7_">
						<use xlink:href="#SVGID_2_"  style="overflow:visible;"/>
					</clipPath>
				</g>
			</g>
			<g>
				<g>
					<defs>
						<circle id="SVGID_1_" cx="248.5" cy="248.6" r="215.1"/>
					</defs>
					<clipPath id="SVGID_9_">
						<use xlink:href="#SVGID_1_"  style="overflow:visible;"/>
					</clipPath>
				</g>
			</g>
		</g>
		<g>
			<g>
				<g>
					<g>
						<g>
							<polygon class="st204" points="208,240.7 219.9,238.4 278.6,239.1 308.5,245.6 319.9,412.3 187.9,418.5 							"/>
						</g>
					</g>
					<g>
						<g>
							<path class="st2" d="M293.5,404.6l2.8-75.8l-4.7-87.9c18.6,4.8,44,10.1,58,26.1c9.1,10.4,18.1,23.7,21.4,45.1
								c3.9,25.2,9,73.5,12.2,100.5"/>
						</g>
					</g>
					<g>
						<g>
							<path class="st2" d="M312.1,392.2l-91.2,14.8l-3.2-56.4l-5-111.4c-26.5,1.1-56.6,23-65.7,40c-6.3,11.8-11.6,25.6-13.2,38.9
								c-3.2,25.3-8.5,68.5-11.7,95.4c-2,16.6,3.7,33.2,15.3,45.3h0c13.2,13.7,34,18.4,52.6,14.5l138.9-39.2L312.1,392.2z"/>
						</g>
					</g>
				</g>
				<g>
					<g>
						<g>
							<g>
								<path class="st200" d="M302.5,391.2c0,0,0-0.1,0.1-0.3c0.1-0.2,0.2-0.5,0.3-0.9c0.3-0.8,0.6-2,1.1-3.5
									c1-3.1,2.4-7.5,4.1-13.1c3.6-11.2,8.6-26.8,14.3-44.7l0.2,0.4c-4.8-2-9.7-4-14.8-6.1l-0.6-0.2l0.5-0.3
									c1.1-0.7,2.2-1.5,3.4-2.2c3.8-2.5,7.6-5,11.2-7.3l-0.1,0.4c-5.7-19.7-10.7-37.1-14.3-49.6c-1.8-6.2-3.2-11.2-4.2-14.7
									c-0.5-1.7-0.8-3-1.1-4c-0.1-0.4-0.2-0.8-0.3-1c-0.1-0.2-0.1-0.4-0.1-0.4c0,0,0.1,0.1,0.1,0.3c0.1,0.3,0.2,0.6,0.3,1
									c0.3,0.9,0.7,2.3,1.2,3.9c1,3.5,2.5,8.4,4.3,14.6c3.6,12.5,8.7,29.8,14.5,49.5l0.1,0.2l-0.2,0.1c-3.6,2.3-7.3,4.8-11.2,7.3
									c-1.2,0.8-2.3,1.5-3.4,2.2l-0.1-0.6c5.1,2.1,10,4.2,14.8,6.1l0.3,0.1l-0.1,0.3c-5.8,17.9-10.9,33.5-14.5,44.6
									c-1.8,5.5-3.3,9.9-4.3,13c-0.5,1.5-0.9,2.7-1.2,3.5c-0.1,0.4-0.2,0.7-0.3,0.9C302.6,391.1,302.5,391.2,302.5,391.2z"/>
							</g>
						</g>
					</g>
					<g class="st205">
						<g>
							<g>
								<path d="M322.7,313.3c-0.6,2.5-2.8,5.9-4.6,6.9c-1.7,1-0.7,2.3,0.7,3.7c1.7,1.7,4.5,2.1,5.8,4.1c1.2,1.9,0.6,4.3-0.1,6.4
									c-6.3,20.1-14,39.8-23,58.8l21.2-64.5l-14.8-6.1L322.7,313.3z"/>
							</g>
						</g>
					</g>
				</g>
				<g>
					<g>
						<g>
							<path class="st200" d="M213.3,392.8c0,0-0.1-0.1-0.1-0.3c-0.1-0.2-0.2-0.5-0.4-0.8c-0.3-0.7-0.8-1.8-1.4-3.1
								c-1.2-2.7-2.9-6.6-5-11.5c-4.2-9.9-10.2-23.8-17.1-39.9l-0.1-0.2l0.2-0.1c3.7-2.7,7.7-5.5,11.7-8.3l0,0.5
								c-2.5-2-5.1-4-7.7-6.1c-1.1-0.9-2.3-1.8-3.4-2.7l-1.7-1.3l-0.4-0.3c-0.1-0.1-0.1-0.1-0.2-0.2c-0.1-0.1-0.1-0.3-0.2-0.4
								c-0.1-0.4-0.1-0.8-0.1-1.2c0-2.9,0.4-5.7,0.8-8.4c0.8-5.5,1.7-10.7,2.6-15.7c1.8-10,3.6-18.9,5.1-26.4
								c1.5-7.5,2.8-13.6,3.7-17.8c0.5-2.1,0.8-3.7,1.1-4.8c0.1-0.5,0.2-0.9,0.3-1.2c0.1-0.3,0.1-0.4,0.1-0.4c0,0,0,0.1-0.1,0.4
								c-0.1,0.3-0.1,0.7-0.2,1.3c-0.2,1.1-0.5,2.8-0.9,4.8c-0.8,4.2-2,10.3-3.5,17.8c-1.5,7.5-3.2,16.5-4.9,26.5
								c-0.9,5-1.8,10.2-2.5,15.7c-0.4,2.7-0.8,5.5-0.8,8.3c0,0.3,0,0.7,0.1,1c0,0.1,0.4,0.4,0.6,0.6l1.7,1.3
								c1.1,0.9,2.3,1.8,3.4,2.7c2.6,2.1,5.3,4.2,7.7,6.1l0.3,0.3l-0.4,0.3c-4,2.9-7.9,5.7-11.7,8.3l0.1-0.4
								c6.8,16.1,12.7,30,16.8,40c2.1,4.9,3.7,8.9,4.8,11.6c0.5,1.3,1,2.4,1.3,3.1c0.1,0.3,0.2,0.6,0.3,0.8
								C213.3,392.7,213.3,392.8,213.3,392.8z"/>
						</g>
					</g>
				</g>
			</g>
			<g>
				<g>
					<g>
						<path class="st206" d="M302.8,472.6l-91.9-14.2c-1.7-0.3-2.8-1.8-2.5-3.5l19.8-128.5c0.3-1.7,1.8-2.8,3.5-2.5l91.9,14.2
							c1.7,0.3,2.8,1.8,2.5,3.5l-19.8,128.5C306,471.8,304.5,472.9,302.8,472.6z"/>
					</g>
				</g>
				<g class="st205">
					<g>
						<path d="M302.8,472.6l-91.9-14.2c-1.7-0.3-2.8-1.8-2.5-3.5l19.8-128.5c0.3-1.7,1.8-2.8,3.5-2.5l91.9,14.2
							c1.7,0.3,2.8,1.8,2.5,3.5l-19.8,128.5C306,471.8,304.5,472.9,302.8,472.6z"/>
					</g>
				</g>
				<g>
					<g>
						
							<rect x="223.5" y="333.1" transform="matrix(0.9883 0.1525 -0.1525 0.9883 63.6131 -36.1652)" class="st207" width="88" height="126.7"/>
					</g>
				</g>
				<g>
					<g>
						<path class="st200" d="M294.6,338.5c-1.3-3.9-4.6-6.7-8.6-7.4l0.7-5.4c0.6-4-2.1-7.8-6.2-8.5h0c-4-0.6-7.8,2.1-8.5,6.2
							l-0.9,5.6l-1.9-0.3c-4-0.5-8,1.2-10.3,4.5l-1.4,2.1l37.9,5.8L294.6,338.5z M278.9,328.7c-2.2-0.3-3.7-2.4-3.3-4.6
							c0.3-2.2,2.4-3.7,4.6-3.3c2.2,0.3,3.7,2.4,3.3,4.6C283.1,327.6,281.1,329,278.9,328.7z"/>
					</g>
				</g>
				<g>
					<g>
						<g>
							
								<ellipse transform="matrix(0.1525 -0.9883 0.9883 0.1525 -130.9531 543.3863)" class="st200" cx="251.4" cy="348.1" rx="0.3" ry="11.9"/>
						</g>
					</g>
				</g>
				<g>
					<g>
						<g>
							
								<ellipse transform="matrix(0.1525 -0.9883 0.9883 0.1525 -139.653 539.3129)" class="st200" cx="244.6" cy="351.1" rx="0.3" ry="5.8"/>
						</g>
					</g>
				</g>
				<g>
					<g>
						<g>
							
								<ellipse transform="matrix(0.1525 -0.9883 0.9883 0.1525 -132.4051 578.6673)" class="st200" cx="271.2" cy="366.5" rx="0.3" ry="33.2"/>
						</g>
					</g>
				</g>
				<g>
					<g>
						<g>
							
								<ellipse transform="matrix(0.1525 -0.9883 0.9883 0.1525 -139.4119 583.0181)" class="st200" cx="270.3" cy="372.8" rx="0.3" ry="33.2"/>
						</g>
					</g>
				</g>
				<g>
					<g>
						<g>
							
								<ellipse transform="matrix(0.1525 -0.9883 0.9883 0.1525 -146.4188 587.3691)" class="st200" cx="269.3" cy="379.1" rx="0.3" ry="33.2"/>
						</g>
					</g>
				</g>
				<g>
					<g>
						<g>
							
								<ellipse transform="matrix(0.1525 -0.9883 0.9883 0.1525 -153.4257 591.72)" class="st200" cx="268.3" cy="385.3" rx="0.3" ry="33.2"/>
						</g>
					</g>
				</g>
				<g>
					<g>
						<g>
							
								<ellipse transform="matrix(0.1525 -0.9883 0.9883 0.1525 -160.4329 596.0701)" class="st200" cx="267.4" cy="391.6" rx="0.3" ry="33.2"/>
						</g>
					</g>
				</g>
				<g>
					<g>
						<g>
							
								<ellipse transform="matrix(0.1525 -0.9883 0.9883 0.1525 -167.4394 600.4218)" class="st200" cx="266.4" cy="397.8" rx="0.3" ry="33.2"/>
						</g>
					</g>
				</g>
				<g>
					<g>
						<g>
							<path class="st200" d="M265.5,403.5c0,0-0.5,0-1.3-0.1s-2-0.2-3.5-0.4c-3-0.4-7.1-1-11.6-1.7c-4.5-0.7-8.6-1.4-11.6-1.9
								c-1.5-0.3-2.7-0.5-3.5-0.6c-0.8-0.2-1.3-0.3-1.3-0.3c0,0,0.5,0,1.3,0.1c0.8,0.1,2,0.2,3.5,0.4c3,0.4,7.1,1,11.6,1.7
								c4.5,0.7,8.6,1.4,11.6,1.9c1.5,0.3,2.7,0.5,3.5,0.6C265.1,403.3,265.5,403.4,265.5,403.5z"/>
						</g>
					</g>
				</g>
				<g>
					<g>
						<g>
							
								<ellipse transform="matrix(0.1525 -0.9883 0.9883 0.1525 -93.774 601.8414)" class="st200" cx="304" cy="355.6" rx="0.3" ry="5.3"/>
						</g>
					</g>
				</g>
				<g>
					<g>
						<g>
							
								<ellipse transform="matrix(0.1525 -0.9883 0.9883 0.1525 -205.3224 587.5815)" class="st200" cx="240" cy="413.5" rx="0.3" ry="8.6"/>
						</g>
					</g>
				</g>
				<g>
					<g>
						<g>
							
								<ellipse transform="matrix(0.1525 -0.9883 0.9883 0.1525 -211.3881 592.0088)" class="st200" cx="239.5" cy="419.3" rx="0.3" ry="8.8"/>
						</g>
					</g>
				</g>
				<g>
					<g>
						<g>
							
								<ellipse transform="matrix(0.1526 -0.9883 0.9883 0.1526 -166.9397 647.2645)" class="st200" cx="294" cy="421" rx="0.3" ry="4.2"/>
						</g>
					</g>
				</g>
				<g>
					<g>
						<g>
							
								<ellipse transform="matrix(0.1526 -0.9883 0.9883 0.1526 -172.4668 651.1402)" class="st200" cx="293.4" cy="426.1" rx="0.3" ry="4.2"/>
						</g>
					</g>
				</g>
				<g>
					<g>
						<g>
							
								<ellipse transform="matrix(0.1525 -0.9883 0.9883 0.1525 -220.3376 592.504)" class="st200" cx="235.3" cy="424.7" rx="0.3" ry="4"/>
						</g>
					</g>
				</g>
				<g>
					<g>
						<g>
							
								<ellipse transform="matrix(0.1525 -0.9883 0.9883 0.1525 -178.1556 656.8859)" class="st200" cx="293.9" cy="432.3" rx="0.3" ry="3"/>
						</g>
					</g>
				</g>
				<g>
					<g>
						<g>
							<path class="st200" d="M228.7,437.5c0,0,0.5,0,1.5,0c1,0,2.4,0.1,4.2,0.1c3.7,0.1,8.8,0.4,15,0.6l0.3,0l-0.1,0.3
								c-0.4,1.5-1.3,3-2.6,4.1c-1.3,1.1-3.2,1.6-5.1,1.2c-1.8-0.4-3.5-1.7-4.1-3.6c-0.7-1.9,0-4.1,1.5-5.5c0.6-0.5,1.3-0.9,2-1.1
								c0.2-0.1,0.4-0.1,0.6-0.1c0.2,0,0.4,0,0.6,0c0.2,0,0.5,0.2,0.6,0.5c0.1,0.3,0.1,0.5,0.1,0.7c-0.2,1.4-0.7,2.8-1.4,4
								c-0.7,1.2-1.7,2.2-2.8,3c-1.1,0.8-2.4,1.3-3.7,1.2c-1.4,0-2.6-1-3-2.2c-0.5-1.1-0.6-2.4-0.3-3.5c0.7-2.2,2.3-3.7,3.5-5.1
								l0.3-0.4l0.1,0.5c0.2,2-0.2,3.7-1,5.1c-0.7,1.4-1.7,2.3-2.5,3c-0.9,0.7-1.6,1-2.2,1.2c-0.5,0.2-0.8,0.2-0.8,0.2
								c0-0.1,1.2-0.3,2.8-1.6c0.8-0.7,1.7-1.6,2.3-3c0.7-1.3,1.1-3,0.8-4.8l0.4,0.1c-1.3,1.3-2.8,2.8-3.3,4.9
								c-0.3,1-0.2,2.1,0.3,3.1c0.4,1,1.4,1.8,2.5,1.8c1.1,0.1,2.3-0.4,3.3-1.2c1-0.7,1.9-1.7,2.6-2.8c0.7-1.1,1.1-2.4,1.3-3.7
								c0-0.2,0-0.3,0-0.3c0-0.1-0.1-0.1-0.2-0.1c-0.2,0-0.6,0-0.9,0.1c-0.6,0.1-1.2,0.5-1.7,0.9c-1.3,1.2-2,3.1-1.4,4.7
								c0.6,1.6,2.1,2.8,3.7,3.2c1.6,0.4,3.3-0.1,4.5-1c1.3-0.9,2.1-2.3,2.4-3.7l0.3,0.3c-6.1-0.3-11.3-0.6-14.9-0.8
								c-1.7-0.1-3.1-0.2-4.2-0.3C229.2,437.6,228.7,437.5,228.7,437.5z"/>
						</g>
					</g>
				</g>
				<g>
					<g>
						<g>
							<path class="st200" d="M291.1,446.9c0,0-0.2,0.3-0.7,0.8c-0.3,0.2-0.6,0.5-1.1,0.7c-0.5,0.2-1.1,0.3-1.7,0.1
								c-0.3-0.1-0.6-0.3-0.9-0.6c-0.2-0.3-0.3-0.7-0.4-1.1c0-0.8,0.1-1.6,0.2-2.4c0.2-1.7,0.4-3.6,0.6-5.6l0.5,0.2
								c-1.5,2-3.1,4.2-4.8,6.5c-0.4,0.5-0.8,1.1-1.2,1.6l-0.8,1l0.2-1.3c0.5-3.4,1-6.5,1.4-9.3l0.5,0.3c-2.4,2.1-4.1,4.2-5.2,5.7
								c-1.1,1.5-1.6,2.5-1.6,2.4c0,0,0.1-0.3,0.3-0.7c0.2-0.5,0.6-1.1,1.1-1.9c1-1.6,2.6-3.8,5.1-5.9l0.6-0.5l-0.1,0.7
								c-0.4,2.8-0.8,5.9-1.3,9.3l-0.6-0.2c0.4-0.5,0.8-1.1,1.2-1.6c1.7-2.3,3.4-4.5,4.9-6.5l0.7-0.9l-0.1,1.1
								c-0.2,2-0.5,3.9-0.7,5.6c-0.1,0.8-0.2,1.6-0.2,2.3c0,0.7,0.4,1.2,0.9,1.4c1.1,0.4,2-0.2,2.6-0.6
								C290.7,447.1,291,446.9,291.1,446.9z"/>
						</g>
					</g>
				</g>
				<g>
					<g>
						<g>
							
								<ellipse transform="matrix(4.497843e-03 -1 1 4.497843e-03 -163.7734 722.3338)" class="st200" cx="280.9" cy="443.4" rx="0.3" ry="12.4"/>
						</g>
					</g>
				</g>
				<g>
					<g>
						<g>
							
								<ellipse transform="matrix(0.9941 -0.1081 0.1081 0.9941 -46.7872 33.6861)" class="st200" cx="287.4" cy="448.5" rx="10" ry="0.3"/>
						</g>
					</g>
				</g>
			</g>
			<g class="st205">
				<g>
					<g>
						<path d="M187.6,317.6c-0.1,3.8,0.9,7.6,4,9.8c-3.9,1.9-6.1,6.5-6.2,10.9c-0.1,4.4,1.4,8.7,3.1,12.7
							c5.1,12.5,16,30.2,24.3,40.8c0,0-4.2-11.4-5.4-14c-5.5-12-10.3-24-15.8-36c-0.6-1.3-1.7-4.9-1.7-4.9c-0.6,0.3,0.2,0,1.6-1.1
							c3.1-2.5,9.8-6.9,9.8-6.9S187.6,317.9,187.6,317.6"/>
					</g>
				</g>
			</g>
			<g>
				<g>
					<g>
						
							<ellipse transform="matrix(3.204851e-02 -0.9995 0.9995 3.204851e-02 -195.1695 550.0382)" class="st200" cx="186.4" cy="375.8" rx="32.5" ry="0.3"/>
					</g>
				</g>
			</g>
			<g>
				<g>
					<g>
						<g>
							<g>
								
									<ellipse transform="matrix(0.9955 -9.462997e-02 9.462997e-02 0.9955 -35.4033 20.5261)" class="st200" cx="198.7" cy="383.5" rx="2.7" ry="2.7"/>
							</g>
						</g>
					</g>
				</g>
			</g>
			<g>
				<g>
					<g>
						<path class="st2" d="M213.3,392.8l-17,41.8l135.5,37.6c12.6,3.5,26,1.1,36.7-6.4l0,0c14.2-10,17.6-27.5,15.9-44.8l-2.4-18.4
							L213.3,392.8z"/>
					</g>
				</g>
				<g>
					<g>
						<g>
							<path class="st200" d="M356.9,438.1c-0.1,0-0.4-2.9-1.8-7.3c-0.4-1.1-0.8-2.3-1.3-3.5c-0.5-1.3-1.1-2.6-1.8-3.9
								c-1.4-2.7-3.2-5.5-5.5-8.3c-2.2-2.7-4.7-5-7-7c-1.2-0.9-2.3-1.8-3.5-2.6c-1.1-0.8-2.2-1.4-3.2-2c-4-2.2-6.8-3.1-6.8-3.2
								c0,0,0.7,0.2,1.9,0.6c0.6,0.2,1.4,0.5,2.2,0.9c0.8,0.4,1.8,0.8,2.8,1.4c1,0.5,2.2,1.2,3.3,1.9c1.2,0.7,2.3,1.6,3.6,2.5
								c2.4,1.9,4.9,4.3,7.1,7c2.2,2.8,4.1,5.7,5.5,8.4c0.7,1.4,1.3,2.7,1.8,4c0.5,1.3,0.9,2.5,1.2,3.6c0.4,1.1,0.6,2.1,0.8,3
								c0.2,0.9,0.3,1.7,0.4,2.3C356.8,437.4,356.9,438.1,356.9,438.1z"/>
						</g>
					</g>
				</g>
				<g class="st205">
					<g>
						<g>
							<path d="M193.3,410.6c-10.3,0.9-18.3,1.8-29,3.1c-6.7,0.8-13.6,0.4-15.8-6c-2.2-6.4-0.8-13.6,2.8-19.3
								c3.6-5.7,9.2-19,39.3-8.8L193.3,410.6z"/>
						</g>
					</g>
				</g>
				<g>
					<g>
						<g>
							<path class="st200" d="M207.2,408.7c0,0,0-0.1,0.1-0.3c0.1-0.2,0.2-0.5,0.3-0.8c0.3-0.8,0.7-1.8,1.1-3.2
								c1-2.8,2.5-6.8,4.3-11.7l0.1-0.2l0.2,0c11.4,1,27.9,2.5,46.1,4.2c17.4,1.7,33.1,3.1,44.6,4.2c5.7,0.6,10.3,1,13.5,1.4
								c1.6,0.2,2.8,0.3,3.7,0.4c0.4,0,0.7,0.1,1,0.1c0.2,0,0.3,0.1,0.3,0.1c0,0-0.1,0-0.3,0c-0.3,0-0.6,0-1-0.1
								c-0.9-0.1-2.1-0.2-3.7-0.3c-3.2-0.3-7.9-0.7-13.5-1.2c-11.5-1-27.2-2.5-44.6-4c-18.2-1.7-34.6-3.3-46.1-4.4l0.2-0.1
								c-1.9,4.9-3.5,8.9-4.5,11.7c-0.5,1.3-0.9,2.4-1.3,3.1c-0.1,0.3-0.2,0.6-0.3,0.8C207.3,408.7,207.2,408.7,207.2,408.7z"/>
						</g>
					</g>
				</g>
				<g class="st205">
					<g>
						<g>
							<path d="M263,451.8c19.2,5.2,30.9,2.2,48.4-7.4c3.3-1.8,7.3-4.7,10.3-7c3.5-2.7,6.6-7,6.6-7c-22.5,8.6-41.2,15.1-64.4,21.6"
								/>
						</g>
					</g>
				</g>
				<g>
					<g>
						<g>
							<path class="st201" d="M207.3,408.3l4.4-12.3l-10.2-16c-1.8-2.8-4.7-4.7-7.9-5.4l-37.6-7.1c0,0-1.8,4.6,3.2,7.4
								c4.9,2.8,27.1,8,27.1,8l-34.2-0.6c0,0-1.1,4.9,2.8,6.7c3.9,1.8,28.2,2.7,28.2,2.7l-31.2,4.4c0,0-0.2,4.9,6.9,5
								c5.7,0,17.4-0.8,21-1.3c0.6-0.1,1.2,0.3,1.3,0.9l0,0c0.1,0.6-0.3,1.1-0.8,1.3l-20.7,4.9c-2.7,0.6-2.9,4.7-0.2,5.4
								c0.4,0.1,0.7,0.1,1.2,0.1c3.5-0.4,24.6-3,24.6-3l1.1,2.5L207.3,408.3"/>
						</g>
					</g>
					<g>
						<g>
							<g>
								<path class="st208" d="M191.8,404.5c-0.1,0-0.2-0.9-1.2-1.9c-0.5-0.5-1.2-0.9-2-1.2c-0.8-0.3-1.8-0.4-2.9-0.3
									c-2.1,0.2-4,0.8-5.4,0.9c-1.4,0.2-2.3,0.1-2.3,0c0-0.1,0.9-0.2,2.2-0.5c1.4-0.3,3.2-1,5.5-1.1c1.1-0.1,2.2,0,3.1,0.4
									c0.9,0.4,1.6,0.9,2.1,1.5C192,403.5,191.9,404.5,191.8,404.5z"/>
							</g>
						</g>
					</g>
					<g>
						<g>
							<g>
								<path class="st208" d="M195.2,395.1c-0.1,0-0.1-0.3-0.4-0.9c-0.3-0.5-0.8-1.2-1.8-1.8c-1.9-1.1-5.1-0.7-8.5-0.5
									c-3.4,0.3-6.5,0.7-8.7,1c-2.2,0.3-3.6,0.5-3.6,0.4c0-0.1,1.3-0.4,3.6-0.8c2.2-0.4,5.3-0.9,8.7-1.2c1.7-0.1,3.4-0.2,4.9-0.2
									c1.5,0,2.9,0.3,3.9,1c1,0.6,1.6,1.5,1.8,2.1C195.3,394.7,195.2,395.1,195.2,395.1z"/>
							</g>
						</g>
					</g>
					<g>
						<g>
							<g>
								<path class="st208" d="M197.8,389.7c-0.1,0,0.2-1.3-0.8-2.8c-0.5-0.8-1.2-1.6-2.3-2.2c-1-0.6-2.4-1-3.8-1.1
									c-2.8-0.3-5.5,0.1-7.4-0.2c-1.9-0.2-3-0.7-3-0.7c0-0.1,1.2,0.2,3,0.3c1.9,0.1,4.5-0.3,7.4,0c1.5,0.2,2.9,0.6,4,1.2
									c1.1,0.7,1.9,1.6,2.4,2.5c0.5,0.9,0.6,1.7,0.6,2.2C197.9,389.4,197.8,389.7,197.8,389.7z"/>
							</g>
						</g>
					</g>
				</g>
			</g>
			<g>
				<g>
					<g>
						<path class="st200" d="M320,389.6c0,0,0-0.7,0.2-2c0.2-1.3,0.5-3.2,0.9-5.5c0.9-4.6,2.4-11,4-18c1.6-7,2.8-13.4,3.3-18.1
							c0.2-1.2,0.2-2.2,0.3-3.2c0.1-0.9,0.1-1.7,0.2-2.4c0.1-1.3,0.1-2,0.2-2c0,0,0.1,0.7,0.1,2.1c0,0.7,0,1.5-0.1,2.4
							c0,0.9-0.1,2-0.2,3.2c-0.4,4.7-1.5,11.2-3.1,18.2c-1.6,7-3.2,13.3-4.2,17.9c-0.5,2.3-0.9,4.2-1.1,5.5
							C320.2,388.9,320,389.6,320,389.6z"/>
					</g>
				</g>
			</g>
			<g>
				<g>
					<g>
						<path class="st200" d="M333.1,472.4c0,0-0.3,0-0.7-0.1c-0.5-0.1-1.2-0.3-2.1-0.5c-1.9-0.5-4.5-1.1-7.7-1.9
							c-6.5-1.6-15.4-4-25.2-6.7c-9.8-2.7-18.6-5.3-25-7.3c-3.1-1-5.7-1.8-7.5-2.4c-0.8-0.3-1.5-0.5-2-0.7c-0.5-0.2-0.7-0.3-0.7-0.3
							c0,0,0.3,0,0.7,0.2c0.5,0.1,1.2,0.3,2.1,0.6c1.9,0.5,4.5,1.3,7.6,2.2c6.5,1.8,15.3,4.3,25.1,7.1c9.8,2.7,18.6,5.1,25.1,6.9
							c3.2,0.9,5.7,1.6,7.6,2.1c0.8,0.2,1.5,0.4,2.1,0.6C332.8,472.3,333.1,472.3,333.1,472.4z"/>
					</g>
				</g>
			</g>
			<g>
				<g>
					<g>
						<path class="st200" d="M203.2,106.6c2.8-8.6,17-16.3,24.8-20.8c11.7-6.7,22.5-5.4,29.1,0.6c12-10.1,27.9-19.8,43.1-15.8
							c15.2,4,27.5,19.5,24.8,35c-1.6,9.1-7.9,17.3-7.6,26.5c0.3,6.3,3.6,12,6.3,17.7c2.7,5.7,4.7,12.4,2.3,18.2
							c-2.2,5.4-7.7,8.8-10.7,13.9c-2.4,4.1-3,9.1-4.5,13.6c-5.7,16.8-25.5,26.2-43,23.2c-17.5-2.9-32-16.1-40.3-31.8
							c-8.3-15.7-11-33.7-11.9-51.4"/>
					</g>
				</g>
				<g>
					<g>
						<g>
							<g>
								<g>
									<g>
										<g>
											<g>
												<g>
													<g>
														<g>
															<path class="st201" d="M216.1,118.3l3.5,139.9c1.3,16,16,27.7,33.2,26.3l0,0c17.3-1.5,30.6-15.8,29.6-32
																c-1-17-1.8-35-1.8-35s21.7-5.1,24.4-34c1.4-14.8-1-39.1-3.5-58.4c-2.1-16.2-17.2-27.3-33.3-24.6"/>
														</g>
													</g>
												</g>
											</g>
										</g>
									</g>
									<g>
										<g>
											<g>
												<g>
													<g>
														<g>
															<g>
																<path class="st200" d="M295,145.9c0.2,1.9-1.3,3.7-3.3,3.9c-2,0.2-3.8-1.1-4-3.1c-0.2-1.9,1.3-3.7,3.3-3.9
																	C293,142.6,294.8,143.9,295,145.9z"/>
															</g>
														</g>
													</g>
												</g>
											</g>
										</g>
										<g>
											<g>
												<g>
													<g>
														<g>
															<g>
																<g>
																	<path class="st200" d="M298.6,142.1c-0.4,0.5-3.3-1.4-7.3-1.1c-3.9,0.2-6.7,2.4-7.2,2c-0.2-0.2,0.2-1.1,1.4-2.1
																		c1.2-1,3.2-2,5.7-2.2c2.5-0.1,4.6,0.6,5.8,1.5C298.3,141.1,298.8,141.9,298.6,142.1z"/>
																</g>
															</g>
														</g>
													</g>
												</g>
											</g>
										</g>
									</g>
									<g>
										<g>
											<g>
												<g>
													<g>
														<g>
															<g>
																<path class="st200" d="M257,149.8c0.2,1.9-1.3,3.7-3.3,3.9c-2,0.2-3.8-1.1-4-3.1c-0.2-1.9,1.3-3.7,3.3-3.9
																	C255,146.5,256.8,147.9,257,149.8z"/>
															</g>
														</g>
													</g>
												</g>
											</g>
										</g>
										<g>
											<g>
												<g>
													<g>
														<g>
															<g>
																<g>
																	<path class="st200" d="M259.8,145.4c-0.4,0.5-3.3-1.4-7.3-1.1c-3.9,0.2-6.7,2.4-7.2,2c-0.2-0.2,0.2-1.1,1.4-2.1
																		c1.2-1,3.2-2,5.7-2.2c2.5-0.1,4.6,0.6,5.8,1.5C259.5,144.3,260,145.1,259.8,145.4z"/>
																</g>
															</g>
														</g>
													</g>
												</g>
											</g>
										</g>
									</g>
									<g>
										<g>
											<g>
												<g>
													<g>
														<g>
															<g>
																<path class="st200" d="M276,173.7c0-0.2,2.4-0.8,6.3-1.6c1-0.2,1.9-0.4,2.1-1.1c0.2-0.7-0.3-1.8-0.9-2.9
																	c-1.1-2.4-2.3-4.9-3.5-7.5c-4.8-10.7-8.4-19.5-8-19.6c0.4-0.2,4.7,8.3,9.6,19c1.2,2.6,2.3,5.1,3.4,7.5
																	c0.5,1.1,1.2,2.4,0.8,3.9c-0.2,0.8-0.9,1.4-1.6,1.6c-0.6,0.2-1.2,0.3-1.7,0.3C278.5,173.8,276,173.9,276,173.7z"/>
															</g>
														</g>
													</g>
												</g>
											</g>
										</g>
									</g>
									<g>
										<g>
											<g>
												<g>
													<g>
														<g>
															<path class="st202" d="M280.5,217.4c0,0-19.2,2.5-39-7.7c0,0,10.8,19.3,39.3,14.7L280.5,217.4z"/>
														</g>
													</g>
												</g>
											</g>
										</g>
									</g>
								</g>
							</g>
						</g>
						<g>
							<g>
								<g>
									<g>
										<g>
											<g>
												<path class="st200" d="M259.8,129.8c-0.3,1.1-4.3,0.8-8.9,1.7c-4.6,0.8-8.3,2.4-8.9,1.4c-0.3-0.4,0.3-1.5,1.7-2.6
													c1.4-1.1,3.8-2.3,6.5-2.8c2.8-0.5,5.3-0.2,7.1,0.4C259,128.5,260,129.3,259.8,129.8z"/>
											</g>
										</g>
									</g>
								</g>
							</g>
						</g>
						<g>
							<g>
								<g>
									<g>
										<g>
											<g>
												<path class="st200" d="M296.4,130.8c-0.6,0.9-3.4,0.2-6.7,0.4c-3.3,0.1-6,1-6.7,0.1c-0.3-0.4,0.1-1.4,1.2-2.3
													c1.1-0.9,3.1-1.7,5.3-1.8c2.3-0.1,4.3,0.6,5.4,1.5C296.2,129.4,296.6,130.3,296.4,130.8z"/>
											</g>
										</g>
									</g>
								</g>
							</g>
						</g>
					</g>
				</g>
				<g>
					<g>
						<path class="st208" d="M269.9,181.2c3.1,0,4.6,0.9,7.3,2.5c0.8,0.5,1.5,1,1.9,1.8c0.5,1.1,0.2,2.4-0.4,3.4
							c-1.3,2.3-3.9,3.8-6.5,3.5c-2.6-0.3-5-2.3-5.5-4.9C266.1,185,267.5,182.2,269.9,181.2"/>
					</g>
				</g>
				<g>
					<g>
						<g>
							<g>
								<path class="st200" d="M280.4,187.8c0,0.3-1,0.8-2.7,0.7c-1.7-0.1-4-0.8-6.2-2c-2.2-1.3-3.9-2.8-4.9-4.1
									c-1-1.3-1.3-2.4-1.1-2.5c0.5-0.3,3.1,2.4,7.2,4.6c2,1.1,3.9,2,5.3,2.4C279.4,187.3,280.3,187.4,280.4,187.8z"/>
							</g>
						</g>
					</g>
				</g>
				<g>
					<g>
						<circle class="st208" cx="260.9" cy="162.1" r="1"/>
					</g>
				</g>
				<g>
					<g>
						<circle class="st208" cx="290.5" cy="156.9" r="1"/>
					</g>
				</g>
				<g>
					<g>
						<circle class="st208" cx="296.3" cy="159.7" r="1"/>
					</g>
				</g>
				<g>
					<g>
						<circle class="st208" cx="298.1" cy="155.3" r="1"/>
					</g>
				</g>
				<g>
					<g>
						<circle class="st208" cx="256.1" cy="166.7" r="1"/>
					</g>
				</g>
				<g>
					<g>
						<circle class="st208" cx="252.2" cy="162.5" r="1"/>
					</g>
				</g>
				<g>
					<g>
						<g>
							<path class="st0" d="M270.4,149.8c-0.1,0,0-1.6-0.7-4.4c-0.7-2.7-2.5-6.8-6.6-9.9c-2-1.5-4.6-2.8-7.6-3.3
								c-2.9-0.5-6.3-0.4-9.4,0.8c-1.6,0.6-3.1,1.4-4.5,2.4c-1.4,1-2.7,2.3-3.8,3.8c-2.2,2.9-3.4,6.7-3.5,10.6
								c0,3.9,1.3,7.6,3.5,10.6c1.1,1.5,2.4,2.8,3.8,3.8c1.4,1.1,2.9,1.9,4.5,2.4c3.2,1.2,6.5,1.3,9.4,0.8c3-0.5,5.5-1.8,7.6-3.3
								c4.1-3.1,5.9-7.1,6.6-9.9C270.4,151.5,270.3,149.8,270.4,149.8c0,0,0,0.1,0,0.3c0,0.2,0,0.5,0,0.9c0,0.4,0,0.9-0.1,1.4
								c-0.1,0.6-0.1,1.2-0.3,1.9c-0.3,1.4-0.9,3.1-2,4.9c-1,1.8-2.6,3.7-4.6,5.3c-2.1,1.6-4.7,2.9-7.7,3.5c-3,0.5-6.4,0.5-9.7-0.8
								c-1.6-0.6-3.2-1.4-4.7-2.5c-1.5-1.1-2.8-2.4-3.9-3.9c-2.3-3-3.6-6.9-3.6-11c0-4,1.3-7.9,3.6-10.9c1.1-1.5,2.4-2.9,3.9-3.9
								c1.5-1.1,3-1.9,4.7-2.5c3.3-1.2,6.7-1.3,9.7-0.8c3,0.6,5.7,1.9,7.7,3.5c2.1,1.6,3.6,3.5,4.6,5.3c1,1.8,1.7,3.5,2,4.9
								c0.2,0.7,0.3,1.3,0.3,1.9c0.1,0.6,0.1,1,0.1,1.4c0,0.3,0,0.6,0,0.9C270.4,149.7,270.4,149.8,270.4,149.8z"/>
						</g>
					</g>
				</g>
				<g>
					<g>
						<g>
							<path class="st0" d="M278.3,144.3c-0.1,0.2-1.9-0.8-4.3-0.5c-2.4,0.2-4,1.5-4.1,1.4c-0.1-0.1,0.3-0.5,1-1
								c0.7-0.5,1.8-1,3.1-1.1c1.3-0.1,2.5,0.1,3.2,0.4C277.9,143.9,278.3,144.3,278.3,144.3z"/>
						</g>
					</g>
				</g>
				<g>
					<g>
						<path class="st200" d="M266.7,96.5c-2.6,22.8-19.5,43.3-41.3,50.2c7.1,10.2,2.6,29.5,2.8,45.7c0.2,15,0.2,19.3-9.6,27
							c-8,1.9-12.7-20.1-18.6-26.2c-6-6.1-11.7-13.7-11.2-22.3c0.2-4,1.8-7.8,2-11.8c0.2-4.4-1.2-8.8-2-13.2
							c-3.5-19.4,6.6-40.2,23.4-50.3c16.9-10.1,39.4-9.4,56.1,0.9"/>
					</g>
				</g>
				<g>
					<g>
						<path class="st200" d="M218.5,190.2c-2.3-7.7-5.5-13.8-10.6-20.1l0.4,0.8c-4-9.1-14-15.3-23.9-14.8
							c-10,0.5-19.2,7.6-22.3,17.1c-3.1,9.5,0.3,20.7,8.1,26.9c-2.8-0.6-5.7,1.8-6.4,4.7c-0.6,2.8,0.5,5.8,2.1,8.2
							c5.9,8.6,19.3,10.9,27.8,4.7c6.7,4.5,16.6,1.9,21.5-4.5C220.2,206.9,220.8,197.9,218.5,190.2z"/>
					</g>
				</g>
				<g>
					<g>
						<g>
							<path class="st203" d="M191.4,156.8c0,0-0.3-0.3-0.7-0.8c-0.4-0.6-1-1.5-1.3-2.8c-0.8-2.6-0.4-6.7,1.7-11.1
								c1-2.2,2.6-4.4,4.6-6.4c2-2,4.2-4.1,6.9-5.8c2.6-1.8,5.6-3.4,8.9-4.5c3.3-1.1,6.7-2,10.3-2.9c3.5-0.9,7-1.8,10.2-2.9
								c3.2-1.1,6.3-2.4,9-3.9c5.6-3,10.1-6.4,13.6-9.6c3.5-3.2,6-6.2,7.7-8.3c0.8-1,1.4-1.9,1.9-2.5c0.4-0.6,0.6-0.9,0.7-0.8
								c0,0-0.2,0.3-0.6,0.9c-0.4,0.6-1,1.5-1.8,2.5c-1.6,2.2-4.1,5.2-7.6,8.4c-3.5,3.3-8.1,6.8-13.7,9.8c-2.8,1.5-5.9,2.9-9.1,4
								c-3.3,1.2-6.7,2-10.3,2.9c-3.5,0.9-7,1.7-10.2,2.8c-3.2,1.1-6.2,2.6-8.8,4.4c-2.6,1.7-4.9,3.7-6.8,5.7c-2,2-3.5,4.1-4.5,6.2
								c-2.1,4.3-2.5,8.3-1.8,10.8C190.2,155.7,191.5,156.7,191.4,156.8z"/>
						</g>
					</g>
				</g>
				<g>
					<g>
						<g>
							<path class="st203" d="M264.7,94.6c0,0-0.2,0.3-0.6,0.7c-0.4,0.5-1,1.1-1.8,2c-1.6,1.7-4,4-7.3,6.6
								c-3.3,2.6-7.4,5.5-12.5,7.5c-2.6,1-5.4,1.7-8.4,2.3c-2.9,0.6-6,1-9.1,1.5c-6.3,0.9-12.2,1.9-17.4,3.7
								c-5.2,1.8-9.5,4.3-12.6,7c-3.1,2.7-5.1,5.5-6.1,7.6c-0.5,1-0.9,1.9-1,2.4c-0.2,0.6-0.3,0.9-0.4,0.9c0,0,0.1-0.3,0.2-0.9
								c0.1-0.6,0.5-1.4,0.9-2.5c1-2.1,2.9-5,6-7.8c3.1-2.8,7.5-5.4,12.7-7.2c5.2-1.8,11.2-2.8,17.5-3.7c3.1-0.5,6.2-0.9,9.1-1.5
								c2.9-0.6,5.7-1.2,8.3-2.2c5.1-2,9.2-4.9,12.4-7.3c3.3-2.5,5.7-4.8,7.4-6.4c0.8-0.8,1.4-1.4,1.9-1.9
								C264.5,94.8,264.7,94.6,264.7,94.6z"/>
						</g>
					</g>
				</g>
				<g>
					<g>
						<g>
							<path class="st203" d="M296.7,69.6c0,0.1-2.5,0.2-6.3,1.2c-1,0.3-2,0.6-3.1,1c-1.1,0.4-2.2,0.9-3.4,1.4
								c-2.3,1.2-4.8,2.6-7.2,4.5c-2.3,1.9-4.3,3.9-6,6c-0.8,1-1.6,2-2.2,3c-0.7,1-1.2,1.9-1.7,2.8c-1.9,3.5-2.5,5.9-2.6,5.8
								c0,0,0.1-0.6,0.4-1.7c0.2-0.5,0.4-1.2,0.7-1.9c0.3-0.7,0.6-1.6,1.1-2.5c0.4-0.9,1-1.9,1.6-2.8c0.6-1,1.4-2,2.2-3.1
								c1.7-2.1,3.7-4.2,6.1-6.1c2.4-1.9,4.9-3.4,7.3-4.5c1.2-0.5,2.4-1.1,3.5-1.4c1.1-0.4,2.2-0.7,3.1-0.9c1-0.3,1.9-0.4,2.6-0.5
								c0.8-0.1,1.5-0.2,2-0.2C296.1,69.6,296.7,69.6,296.7,69.6z"/>
						</g>
					</g>
				</g>
				<g>
					<g>
						<g>
							<path class="st203" d="M317.1,178.5c0,0,0.1-0.1,0.2-0.3c0.2-0.2,0.4-0.4,0.6-0.7c0.5-0.6,1.3-1.5,2.2-2.8
								c0.9-1.2,2-2.8,2.5-4.9c0.3-1,0.4-2.2,0.3-3.4c-0.2-1.2-0.6-2.4-1.3-3.6c-1.4-2.4-3.6-4.4-5.6-7c-2-2.5-3.9-5.5-5.4-8.9
								c-1.5-3.4-2.6-7.1-3.1-11c-0.5-4-0.4-8.1-0.3-12.3c0.1-4.2-0.1-8.3-1.1-12.1c-1-3.8-3-7.1-5.5-9.8c-2.4-2.7-5.3-4.7-8.2-6
								c-2.9-1.3-5.9-1.9-8.6-2c-5.5-0.2-9.8,1.4-12.5,2.8c-1.4,0.7-2.4,1.4-3,1.8c-0.3,0.2-0.5,0.4-0.8,0.5
								c-0.2,0.1-0.3,0.2-0.3,0.2c0,0,1.2-1.2,3.9-2.7c2.7-1.5,7.1-3.1,12.6-3c2.8,0.1,5.8,0.6,8.8,2c3,1.3,5.9,3.3,8.4,6.1
								c2.5,2.7,4.5,6.1,5.6,10c1.1,3.9,1.2,8.1,1.2,12.3c-0.1,4.2-0.2,8.3,0.3,12.2c0.5,3.9,1.6,7.6,3,10.9
								c1.4,3.3,3.3,6.3,5.3,8.8c2,2.5,4.2,4.6,5.6,7.1c0.7,1.2,1.2,2.5,1.3,3.8c0.1,1.3,0,2.5-0.3,3.5c-0.6,2.1-1.8,3.7-2.7,5
								c-0.9,1.2-1.8,2.1-2.3,2.7c-0.3,0.3-0.5,0.5-0.6,0.7C317.1,178.5,317.1,178.5,317.1,178.5z"/>
						</g>
					</g>
				</g>
				<g>
					<g>
						<g>
							<path class="st0" d="M314.1,145.4c-0.1,0,0-1.6-0.7-4.4c-0.7-2.7-2.5-6.8-6.6-9.9c-2-1.5-4.6-2.8-7.6-3.3
								c-2.9-0.5-6.3-0.4-9.4,0.8c-1.6,0.6-3.1,1.4-4.5,2.4c-1.4,1-2.7,2.3-3.8,3.8c-2.2,2.9-3.4,6.7-3.5,10.6
								c0,3.9,1.3,7.6,3.5,10.6c1.1,1.5,2.4,2.8,3.8,3.8c1.4,1.1,2.9,1.9,4.5,2.4c3.2,1.2,6.5,1.3,9.4,0.8c3-0.5,5.5-1.8,7.6-3.3
								c4.1-3.1,5.9-7.1,6.6-9.9C314.2,147,314,145.4,314.1,145.4c0,0,0,0.1,0,0.3c0,0.2,0,0.5,0,0.9c0,0.4,0,0.9-0.1,1.4
								c-0.1,0.6-0.1,1.2-0.3,1.9c-0.3,1.4-0.9,3.1-2,4.9c-1,1.8-2.6,3.7-4.6,5.3c-2.1,1.6-4.7,2.9-7.7,3.5c-3,0.5-6.4,0.5-9.7-0.8
								c-1.6-0.6-3.2-1.4-4.7-2.5c-1.5-1.1-2.8-2.4-3.9-3.9c-2.3-3-3.6-6.9-3.6-11c0-4,1.3-7.9,3.6-10.9c1.1-1.5,2.4-2.9,3.9-3.9
								c1.5-1.1,3-1.9,4.7-2.5c3.3-1.2,6.7-1.3,9.7-0.8c3,0.6,5.7,1.9,7.7,3.5c2.1,1.6,3.6,3.5,4.6,5.3c1,1.8,1.7,3.5,2,4.9
								c0.2,0.7,0.3,1.3,0.3,1.9c0.1,0.6,0.1,1,0.1,1.4c0,0.3,0,0.6,0,0.9C314.2,145.3,314.2,145.4,314.1,145.4z"/>
						</g>
					</g>
				</g>
				<g>
					<g>
						<g>
							<path class="st203" d="M218.5,219.8c0,0-0.2-0.1-0.6-0.4c-0.4-0.3-1-0.7-1.7-1.3c-1.4-1.2-3.5-2.9-5.7-5.3
								c-2.2-2.4-4.6-5.8-5.4-10.2c-0.4-2.2-0.2-4.5-0.3-6.9c-0.1-2.3-0.5-4.8-2-6.8c-1.4-2-3.3-3.6-4.9-5.3
								c-1.7-1.7-3.1-3.6-4.1-5.6c-1-2-1.6-4-2-5.9c-0.4-1.9-0.6-3.7-0.5-5.4c0.1-1.7,0.4-3.1,0.5-4.4c0.2-1.3,0.2-2.4,0.1-3.3
								c-0.2-1.8-0.6-2.8-0.5-2.8c0,0,0.1,0.2,0.3,0.7c0.2,0.5,0.3,1.2,0.5,2.1c0.1,0.9,0.2,2.1,0,3.4c-0.1,1.3-0.4,2.8-0.4,4.4
								c0,3.2,0.7,7.2,2.6,11.1c0.9,1.9,2.3,3.7,4,5.4c1.6,1.7,3.6,3.3,5,5.4c0.7,1.1,1.3,2.2,1.6,3.5c0.3,1.2,0.4,2.5,0.5,3.7
								c0.1,2.4-0.1,4.7,0.3,6.8c0.7,4.3,3,7.6,5.1,10c2.2,2.5,4.2,4.2,5.6,5.4c0.6,0.6,1.2,1,1.6,1.4
								C218.3,219.6,218.5,219.8,218.5,219.8z"/>
						</g>
					</g>
				</g>
				<g>
					<g>
						<g>
							<path class="st203" d="M204.1,190.4c0,0,0,0.2,0,0.5c0,0.3,0,0.8-0.1,1.5c-0.1,1.3-0.5,3.1-1.2,5.3c-0.7,2.2-2,4.7-3.8,7.1
								c-1.8,2.5-4.3,4.8-7.3,6.7c-3.1,1.8-6.3,2.9-9.3,3.3c-3,0.5-5.8,0.4-8.1,0c-2.3-0.4-4.1-0.9-5.3-1.4c-0.6-0.2-1-0.5-1.3-0.6
								c-0.3-0.2-0.5-0.2-0.4-0.3c0.1-0.2,2.6,1.2,7.1,1.8c2.2,0.3,5,0.4,7.9-0.1c3-0.5,6.1-1.5,9.1-3.3c2.9-1.8,5.4-4.1,7.2-6.5
								c1.8-2.4,3.1-4.8,3.9-6.9C204,193.3,204,190.4,204.1,190.4z"/>
						</g>
					</g>
				</g>
				<g>
					<g>
						<g>
							<path class="st203" d="M199.3,184.5c0,0-0.1,0.6-0.4,1.7c-0.3,1.1-0.9,2.7-1.8,4.5c-1.8,3.6-5.4,8.3-10.7,11.5
								c-5.4,3.3-11.1,4.3-15.1,4.4c-2,0.1-3.7-0.1-4.8-0.2c-1.1-0.2-1.7-0.3-1.7-0.4c0-0.1,2.5,0.4,6.5,0.1c4-0.2,9.6-1.4,14.8-4.5
								c5.3-3.2,8.8-7.7,10.7-11.2C198.6,186.9,199.1,184.4,199.3,184.5z"/>
						</g>
					</g>
				</g>
				<g>
					<g>
						<g>
							<path class="st203" d="M162.4,171.9c0,0,0.4-0.3,1.1-0.7c0.4-0.2,0.8-0.4,1.4-0.6c0.6-0.2,1.2-0.5,1.9-0.7
								c1.4-0.5,3.2-0.8,5.2-1c2-0.2,4.2-0.2,6.5,0.1c2.3,0.3,4.4,0.9,6.3,1.6c1.9,0.8,3.5,1.5,4.7,2.4c0.7,0.4,1.2,0.8,1.7,1.2
								c0.5,0.4,0.9,0.7,1.2,1c0.6,0.6,0.9,0.9,0.9,1c-0.1,0.1-1.4-1.2-4-2.7c-1.3-0.8-2.9-1.5-4.7-2.2c-1.9-0.6-3.9-1.2-6.2-1.5
								c-2.2-0.3-4.4-0.3-6.4-0.2c-2,0.2-3.7,0.5-5.1,0.9C164.1,171.2,162.4,172,162.4,171.9z"/>
						</g>
					</g>
				</g>
				<g>
					<g>
						<g>
							
								<ellipse transform="matrix(0.6585 -0.7526 0.7526 0.6585 -56.7103 183.5216)" class="st206" cx="173.9" cy="154.2" rx="0.3" ry="23.3"/>
						</g>
					</g>
				</g>
				<g>
					<g>
						<g>
							<path class="st0" d="M227.7,155.8c-0.1-0.1,0.9-1.6,2.6-2.9c1.7-1.4,3.3-2,3.4-1.9c0.1,0.2-1.4,1.1-3,2.4
								C229.1,154.7,227.9,155.9,227.7,155.8z"/>
						</g>
					</g>
				</g>
				<g>
					<g>
						<g>
							<path class="st211" d="M192.3,162.9c0,0-0.1-0.1-0.2-0.2c-0.1-0.2-0.3-0.5-0.4-0.8c-0.3-0.7-0.8-1.8-1-3.2
								c-0.5-2.9,0.2-7.4,3.3-11.7c0.8-1.1,1.7-2.1,2.8-3c1.1-0.9,2.4-1.8,3.7-2.5c2.7-1.5,5.9-2.5,9.3-3.2
								c6.8-1.4,14.5-1.1,22.3-2.2c3.9-0.6,7.7-1.7,10.9-3.4c3.3-1.7,6.1-4,8.5-6.5c4.7-5,7.7-10.5,9.8-15.3
								c2.1-4.8,3.4-8.8,4.3-11.6c0.5-1.3,0.8-2.4,1.1-3.2c0.1-0.3,0.2-0.6,0.3-0.8c0.1-0.2,0.1-0.3,0.1-0.3c0,0,0,0.1-0.1,0.3
								c-0.1,0.2-0.1,0.5-0.2,0.8c-0.2,0.8-0.6,1.9-1,3.2c-0.9,2.8-2.1,6.8-4.1,11.7c-2,4.8-4.9,10.5-9.7,15.5
								c-2.4,2.5-5.2,4.9-8.6,6.7c-3.4,1.8-7.2,2.9-11.1,3.5c-7.9,1.2-15.6,0.8-22.3,2.2c-6.7,1.2-12.5,4.2-15.6,8.4
								c-3.1,4.1-3.9,8.6-3.4,11.4C191.4,161.5,192.4,162.8,192.3,162.9z"/>
						</g>
					</g>
				</g>
				<g>
					<g>
						<g>
							<path class="st200" d="M200.4,212.9c0,0-0.2,1.9-1.6,5.1c-0.7,1.6-1.7,3.5-3.3,5.4c-1.5,1.9-3.7,3.8-6.4,5.4
								c-2.7,1.5-6.1,2.5-9.8,2.5c-3.6,0-7.7-0.9-11.1-3.2c-3.4-2.3-6.2-6-7.3-10.4c-0.6-2.2-0.7-4.5-0.4-6.8
								c0.4-2.3,1.3-4.5,2.6-6.5c2.2-3.3,5.7-5.8,9.4-6.6l0,0.6c-4-0.6-7.7-2.2-10.8-4.4c-3.1-2.2-5.5-5.1-6.9-8.3
								c-1.4-3.2-1.9-6.5-1.7-9.5c0.2-3,1.3-5.8,2.7-7.9c1.5-2.1,3.3-3.6,5-4.7c1.7-1,3.4-1.6,4.8-1.8c1.4-0.3,2.5-0.3,3.2-0.2
								c0.3,0,0.6,0.1,0.8,0.1c0.2,0,0.3,0,0.3,0.1c0,0.1-1.5-0.3-4.3,0.3c-1.3,0.3-3,0.9-4.6,1.9c-1.7,1-3.4,2.5-4.8,4.6
								c-1.4,2.1-2.4,4.7-2.6,7.7c-0.2,2.9,0.3,6.2,1.7,9.2c1.4,3,3.7,5.9,6.7,8c3,2.1,6.6,3.6,10.6,4.3l1.6,0.3l-1.6,0.4
								c-3.5,0.8-6.8,3.2-9,6.4c-1.3,1.9-2.2,4.1-2.5,6.3c-0.3,2.2-0.2,4.5,0.4,6.6c1.1,4.2,3.8,7.8,7.1,10.1
								c3.3,2.3,7.2,3.2,10.7,3.2c3.6,0,6.9-1,9.5-2.4c2.7-1.5,4.8-3.3,6.3-5.2c1.6-1.9,2.6-3.7,3.3-5.2c0.7-1.5,1.1-2.8,1.4-3.7
								c0.1-0.4,0.2-0.7,0.3-1C200.3,213,200.4,212.9,200.4,212.9z"/>
						</g>
					</g>
				</g>
				<g>
					<g>
						<g>
							<path class="st200" d="M192.9,158.4c0,0-0.1,0-0.3-0.1c-0.2-0.1-0.5-0.3-0.9-0.5c-0.8-0.4-1.9-1.1-3.1-2.2
								c-2.5-2.1-6-5.7-8.1-11.3c-2.1-5.5-2.4-13.2,1.1-20.3c1.7-3.6,4.3-6.9,7.8-9.5c3.4-2.6,7.5-4.5,11.8-5.8
								c4.3-1.3,8.7-2,13-2.4c4.2-0.4,8.3-0.6,12.2-0.9c3.9-0.3,7.6-0.6,11-1.2c3.4-0.6,6.5-1.5,9.2-2.5c5.5-2.1,9.4-5,11.7-7.3
								c1.1-1.2,1.9-2.2,2.4-2.9c0.2-0.3,0.4-0.6,0.6-0.8c0.1-0.2,0.2-0.3,0.2-0.3c0,0-0.8,1.7-3,4.1c-2.3,2.4-6.1,5.4-11.7,7.6
								c-2.8,1.1-5.9,2-9.3,2.6c-3.4,0.6-7.1,1-11,1.3c-7.8,0.6-16.4,0.7-25,3.3c-4.3,1.3-8.3,3.1-11.6,5.7c-3.4,2.5-6,5.8-7.6,9.2
								c-3.4,7-3.2,14.5-1.2,19.9c2,5.5,5.4,9.2,7.8,11.3c1.2,1.1,2.3,1.8,3,2.2c0.3,0.2,0.6,0.4,0.8,0.5
								C192.8,158.3,192.9,158.4,192.9,158.4z"/>
						</g>
					</g>
				</g>
				<g>
					<g>
						<g>
							<path class="st200" d="M333.5,139.8c0,0-0.3,0.5-1.2,0.6c-0.9,0.1-2.3-0.4-3.1-2c-0.4-0.8-0.3-1.8,0.2-2.7
								c0.5-0.9,1.4-1.7,2.5-2.1c2.2-1,5.3-0.6,7.7,1.2c1.2,0.9,2.3,2.2,2.9,3.7c0.6,1.5,0.7,3.3,0.3,5.1c-0.4,1.7-1.3,3.4-2.8,4.7
								c-1.5,1.2-3.3,2-5.3,2.2c-4,0.5-8.2-1.4-11.2-4.4c-1.5-1.5-2.8-3.4-3.6-5.5c-0.8-2.1-1-4.4-0.6-6.7c0.4-2.3,1.2-4.4,2-6.4
								c0.8-2,1.6-4,2.3-6c1.3-4,2.2-8,2.5-11.8c0.3-3.8,0.1-7.5-0.7-10.9c-0.7-3.3-2.1-6.3-3.6-8.8c-3.1-5-7.1-7.8-10-9.2
								c-1.5-0.7-2.7-1.1-3.5-1.3c-0.4-0.1-0.7-0.2-1-0.2c-0.2-0.1-0.3-0.1-0.3-0.1c0,0,0.1,0,0.3,0c0.3,0,0.6,0.1,1,0.2
								c0.8,0.2,2.1,0.5,3.6,1.2c3,1.3,7.1,4.2,10.3,9.2c1.6,2.5,3,5.5,3.7,8.9c0.8,3.4,1.1,7.2,0.7,11.1c-0.3,3.9-1.2,7.9-2.5,12
								c-0.7,2-1.5,4-2.3,6c-0.8,2-1.6,4.1-2,6.2c-0.4,2.2-0.2,4.4,0.6,6.4c0.7,2,2,3.8,3.4,5.2c2.9,2.9,6.9,4.7,10.7,4.3
								c1.9-0.2,3.6-0.9,5-2.1c1.4-1.1,2.3-2.7,2.6-4.3c0.4-1.6,0.3-3.3-0.3-4.8c-0.5-1.5-1.5-2.7-2.7-3.5c-2.3-1.7-5.2-2.1-7.3-1.2
								c-1.1,0.4-1.9,1.1-2.4,1.9c-0.5,0.8-0.6,1.8-0.2,2.5c0.7,1.5,2,2,2.8,2C333.1,140.2,333.4,139.8,333.5,139.8z"/>
						</g>
					</g>
				</g>
			</g>
			<g>
				<g class="st205">
					<g>
						<g>
							<path d="M325.4,425.3c6.1-1.7,12.5,3.8,18.7,2.3c3.8-0.9,6.6-4.3,8.3-7.8c1.7-3.6,2.6-7.5,4.5-11c1.8-3.5,4.9-6.7,8.8-7.3
								c3.6-0.5,7.8,1.2,10.5-1.2c2.1-1.9,1.8-5.4,0.1-7.6c-1.6-2.3-4.2-3.6-6.7-4.8c-2.8-1.4-5.7-2.8-8.7-3.5
								c-3.1-0.7-6.4-0.5-9.1,1.1c-5.2,3.1-6.3,10-7.8,15.9c-1,4.1-2.6,8.1-5.2,11.5c-2.6,3.4-6.2,6-10.4,6.7
								c-1.6,0.3-3.3,0.3-4.6,1.2c-1.3,0.9-1.8,3.2-0.5,4"/>
						</g>
					</g>
				</g>
				<g>
					<g>
						<g>
							<g>
								<path class="st201" d="M293.5,402.6l23-8l20.6-32.2c2-3.2,5.3-5.4,9-6.1l36.9-7c0,0,1.8,4.6-3.2,7.4c-4.9,2.8-27.1,8-27.1,8
									l34.2-0.6c0,0,1.1,4.9-2.8,6.7c-3.9,1.8-28.2,2.7-28.2,2.7l31.2,4.4c0,0,0.2,4.9-6.9,5c-5.7,0-17.4-0.8-21-1.3
									c-0.6-0.1-1.2,0.3-1.3,0.9l0,0c-0.1,0.6,0.3,1.1,0.8,1.3l20.7,4.9c2.7,0.6,2.9,4.7,0.2,5.4c-0.4,0.1-0.7,0.1-1.2,0.1
									c-3.5-0.4-24.6-3-24.6-3s-7.4,26.1-12.3,28.2c-4.8,2.1-14.9,2.7-14.9,2.7l-21.4,8.5L293.5,402.6z"/>
							</g>
						</g>
						<g>
							<g>
								<g>
									<path class="st208" d="M384.5,364c0,0-0.6,0.1-1.8,0.2c-1.3,0.1-2.9,0.1-4.9,0.2c-4.1,0.2-9.8,0.4-16.1,0.5
										c-3.1,0.1-6.1,0.2-8.9,0.2c-2.7,0-5.2,0.2-7,1c-1.9,0.8-3.1,2-3.6,3c-0.6,1-0.6,1.6-0.7,1.6c0,0,0-0.2,0-0.5
										c0.1-0.3,0.2-0.7,0.5-1.3c0.5-1,1.7-2.4,3.7-3.3c1.9-0.9,4.5-1.1,7.2-1.2c2.7-0.1,5.7-0.2,8.9-0.3c6.3-0.2,12-0.3,16.1-0.4
										c2,0,3.6,0,4.9,0C383.9,364,384.5,364,384.5,364z"/>
								</g>
							</g>
						</g>
						<g>
							<g>
								<g>
									<path class="st208" d="M385,378c0,0-0.6,0-1.7-0.1c-1.2-0.1-2.7-0.3-4.5-0.6c-3.8-0.5-9-1.2-14.7-2.1
										c-2.9-0.4-5.6-0.9-8.1-1.1c-2.5-0.2-4.7,0.2-6.3,1.1c-1.6,0.9-2.7,2.1-3.3,2.9c-0.6,0.9-0.8,1.4-0.9,1.4c0,0,0-0.2,0.1-0.4
										c0.1-0.3,0.3-0.6,0.6-1.1c0.6-0.9,1.6-2.2,3.2-3.2c1.7-1,4.1-1.5,6.6-1.3c2.5,0.2,5.3,0.7,8.1,1.1
										c5.7,0.9,10.9,1.7,14.7,2.3c1.8,0.3,3.3,0.6,4.4,0.8C384.4,377.8,385,378,385,378z"/>
								</g>
							</g>
						</g>
						<g>
							<g>
								<g>
									<path class="st208" d="M367.6,385.9c0,0.1-1.4-0.2-3.6-0.8c-2.2-0.5-5.3-1.3-8.7-2c-0.8-0.1-1.7-0.4-2.4-0.4
										c-0.8,0-1.5,0.3-2.1,0.6c-1.3,0.7-2.2,1.7-2.8,2.6c-1.1,1.9-1,3.4-1.1,3.4c0,0-0.1-0.4-0.1-1c0-0.6,0.2-1.6,0.8-2.6
										c0.6-1,1.5-2.1,2.9-2.9c0.7-0.4,1.5-0.7,2.4-0.7c0.9,0,1.7,0.2,2.6,0.4c3.4,0.7,6.5,1.6,8.6,2.2
										C366.3,385.4,367.7,385.8,367.6,385.9z"/>
								</g>
							</g>
						</g>
					</g>
					<g>
						<g>
							<g>
								<path class="st2" d="M122.9,419.9l68.9-8.5l120.9-19.7l15.6,39.2c-45.4,15.7-92,29.9-137.7,42.4c-3.1,0.9-8.1,1-11.4,1
									C164,474.4,126.3,468.3,122.9,419.9z"/>
							</g>
						</g>
						<g>
							<g>
								<g>
									<g>
										<path class="st2" d="M328.3,431c0,0-0.1-0.2-0.3-0.7c-0.2-0.5-0.5-1.2-0.9-2.1c-0.8-1.8-1.8-4.5-3.2-7.9
											c-2.8-6.8-6.7-16.6-11.5-28.5l0.3,0.2c-16.4,2.7-36.7,6.1-58.7,9.8c-13.9,2.4-27.2,3.9-39.2,5.5c-6,0.8-11.8,1.6-17.1,2.5
											c-2.7,0.4-5.2,0.9-7.7,1.3c-2.5,0.5-4.9,0.8-7,1.5c-4.4,1.4-7.9,3.6-10.6,6.1c-2.7,2.4-4.5,5-5.8,7.3
											c-1.3,2.2-2,4.1-2.4,5.4c-0.2,0.6-0.4,1.1-0.5,1.5c-0.1,0.3-0.2,0.5-0.2,0.5c0,0,0.1-0.7,0.5-2c0.4-1.3,1-3.2,2.3-5.5
											c1.2-2.3,3.1-4.9,5.8-7.4c2.7-2.5,6.3-4.8,10.7-6.2c2.2-0.7,4.6-1.1,7.1-1.6c2.5-0.5,5-0.9,7.7-1.4
											c5.3-0.9,11.1-1.7,17.1-2.5c12.1-1.6,25.4-3.2,39.2-5.6c22-3.6,42.4-7,58.8-9.7l0.2,0l0.1,0.2
											c4.7,11.9,8.5,21.7,11.3,28.6c1.3,3.4,2.4,6.1,3.1,7.9c0.3,0.9,0.6,1.6,0.8,2.1C328.2,430.7,328.3,431,328.3,431z"/>
									</g>
								</g>
							</g>
							<g>
								<g>
									<g>
										<path class="st2" d="M160,472.3c0,0,0.2,0,0.6,0.1c0.4,0.1,0.9,0.2,1.6,0.4c1.4,0.3,3.5,0.8,6.2,1.1
											c5.4,0.7,13.5,1,23.1-1.1c2.4-0.5,4.9-1.2,7.5-1.9c2.6-0.7,5.3-1.5,8-2.3c5.6-1.6,11.5-3.3,17.7-5.1
											c12.5-3.6,26.2-7.7,40.5-12.2c24-7.4,46-14.7,63.1-20.6l-0.2,0.3c-4.7-12-8.6-21.8-11.3-28.6c-1.3-3.4-2.3-6-3.1-7.9
											c-0.3-0.9-0.6-1.6-0.8-2.1c-0.2-0.5-0.2-0.7-0.2-0.7s0.1,0.2,0.3,0.7c0.2,0.5,0.5,1.2,0.9,2c0.7,1.8,1.8,4.5,3.2,7.8
											c2.7,6.8,6.7,16.6,11.5,28.6l0.1,0.3l-0.3,0.1c-17.1,6-39.1,13.3-63.1,20.8c-14.3,4.5-28,8.5-40.5,12.1
											c-6.2,1.8-12.2,3.5-17.7,5c-2.8,0.8-5.5,1.5-8.1,2.2c-2.6,0.7-5.1,1.4-7.5,1.9c-9.7,2-17.8,1.7-23.2,0.9
											C162.8,473.4,160,472.3,160,472.3z"/>
									</g>
								</g>
							</g>
						</g>
					</g>
				</g>
				<g>
					<g>
						<g>
							<path class="st200" d="M186.7,411.4c0,0-0.6,0.1-1.7,0.3c-1.2,0.1-2.8,0.3-4.7,0.5c-4.1,0.4-9.6,0.9-15.6,1.5
								c-6,0.6-11.5,1.2-15.6,1.7c-1.9,0.2-3.5,0.4-4.7,0.5c-1.1,0.1-1.7,0.1-1.7,0.1s0.6-0.2,1.7-0.4c1.1-0.2,2.7-0.4,4.7-0.7
								c4-0.6,9.5-1.2,15.6-1.9c6.1-0.6,11.6-1.1,15.6-1.3c2-0.1,3.6-0.2,4.7-0.3C186.1,411.4,186.7,411.4,186.7,411.4z"/>
						</g>
					</g>
				</g>
			</g>
		</g>
	</g>
</g>
</svg>
