<?xml version="1.0" encoding="utf-8"?>
<!-- Generator: Adobe Illustrator 21.0.0, SVG Export Plug-In . SVG Version: 6.00 Build 0)  -->
<svg version="1.1" id="Layer_1" xmlns="http://www.w3.org/2000/svg" xmlns:xlink="http://www.w3.org/1999/xlink" x="0px" y="0px"
	 viewBox="0 0 518.7 68.1" style="enable-background:new 0 0 518.7 68.1;" xml:space="preserve">
<style type="text/css">
	.st0{fill:#EDEDED;}
	.st1{fill:#685989;}
	.st2{fill:#864D7D;}
	.st3{fill:#BEDBC3;}
	.st4{fill:#9CC1C8;}
	.st5{opacity:0.5;fill:#9CC1C8;}
	.st6{fill:#D3DEE4;}
	.st7{fill:#007271;}
	.st8{fill:#369999;}
	.st9{fill:#4D2B2B;}
	.st10{fill:#3A1F1E;}
	.st11{fill:#E95B4E;}
	.st12{fill:#EE8268;}
	.st13{fill:#C83D36;}
	.st14{fill:#F6B99F;}
	.st15{fill:#EEE9DC;}
	.st16{fill:#F19775;}
	.st17{fill:#6B3E3F;}
	.st18{fill:#C7BDB7;}
	.st19{fill:#D1D5CA;}
	.st20{fill:#2B3668;}
	.st21{fill:#EE827D;}
	.st22{fill:#F87481;}
	.st23{fill:#FFFFFF;stroke:#FFFFFF;stroke-miterlimit:10;}
	.st24{fill:#FFFFFF;}
	.st25{opacity:0.3;clip-path:url(#SVGID_2_);}
	.st26{opacity:0.3;clip-path:url(#SVGID_4_);}
	.st27{opacity:0.3;clip-path:url(#SVGID_6_);}
	.st28{fill:#7087AF;}
	.st29{clip-path:url(#SVGID_8_);}
	.st30{fill:#B2555F;}
	.st31{fill:#47284F;}
	.st32{fill:#FFBF9B;}
	.st33{fill:#FFA687;}
	.st34{fill:#72426B;}
	.st35{fill:#FFC9AC;}
	.st36{fill:#C19884;}
	.st37{fill:#FFA68D;}
	.st38{fill:#13A6CE;}
	.st39{fill:#4E2447;}
	.st40{opacity:0.3;}
	.st41{fill:#1A2E35;}
	.st42{fill:#FFBF9D;}
	.st43{fill:#FF9A6C;}
	.st44{fill:#375A64;}
	.st45{fill:#E1E1E1;}
	.st46{opacity:0.2;}
	.st47{fill:#FF4F5B;}
	.st48{fill:#EBEBEB;}
	.st49{fill:#AA6550;}
	.st50{fill:#FAFAFA;}
</style>
<g>
	<path class="st2" d="M506.7,68.1H12c-6.6,0-12-5.4-12-12V12C0,5.4,5.4,0,12,0h494.7c6.6,0,12,5.4,12,12v44.1
		C518.7,62.7,513.3,68.1,506.7,68.1z"/>
	<g>
		<path class="st24" d="M187.1,26h4.9c3.5,0,5.4,2.1,5.4,4.8c0,2-1,3.4-2.4,4.3l3.8,7.1h-3.6l-3.1-6.3h-1.7v6.3h-3.2V26z
			 M191.8,33.1c1.2,0,2.2-0.7,2.2-2.2c0-1.3-0.9-2.1-2.4-2.1h-1.4v4.3H191.8z"/>
		<path class="st24" d="M201.7,26h8.3v2.9h-5v3.6h4.3v2.9h-4.3v3.8h5.2v2.9h-8.5V26z"/>
		<path class="st24" d="M213.9,26h8.2v2.9h-5v3.8h4.4v2.9h-4.4v6.5h-3.2V26z"/>
		<path class="st24" d="M225.8,26h3.2v13.2h5.2v2.9h-8.5V26z"/>
		<path class="st24" d="M237.4,26h8.3v2.9h-5v3.6h4.3v2.9h-4.3v3.8h5.2v2.9h-8.5V26z"/>
		<path class="st24" d="M253.5,33.9l-5.1-7.9h3.8l3.1,5.4l3.2-5.4h3.8l-5.1,7.9l5.2,8.2h-3.6c-1.2-1.9-2.4-3.8-3.5-5.7l-3.5,5.7
			h-3.6L253.5,33.9z"/>
		<path class="st24" d="M265.5,26h3.2v16.1h-3.2V26z"/>
		<path class="st24" d="M272.1,34.1c0-4.7,3.4-8.3,8.4-8.3s8.4,3.7,8.4,8.3c0,4.7-3.4,8.3-8.4,8.3S272.1,38.8,272.1,34.1z
			 M275.5,34.1c0,3.1,2.1,5.3,5,5.3s5-2.2,5-5.3c0-3-2.1-5.3-5-5.3S275.5,31,275.5,34.1z"/>
		<path class="st24" d="M295.4,31.2v10.9h-3.2V26h3.3l6.9,11V26h3.2v16.1h-3.2L295.4,31.2z"/>
		<path class="st24" d="M309.8,26h8.3v2.9h-5v3.6h4.3v2.9H313v3.8h5.2v2.9h-8.5V26z"/>
		<path class="st24" d="M331.5,29.2l-2.7,1.2c-0.3-0.8-0.9-1.7-2.3-1.7c-1.1,0-1.7,0.7-1.7,1.5c0,2.7,7,2.3,7,7.3
			c0,2.8-2,4.9-5.4,4.9c-3.4,0-4.9-2.4-5.3-3.7l2.7-1.3c0.4,1.1,1.3,2,2.8,2c1.2,0,1.9-0.6,1.9-1.7c0-2.8-6.9-2.3-6.9-7.5
			c0-2.7,2-4.6,5.1-4.6C329.7,25.7,331.1,28.1,331.5,29.2z"/>
	</g>
</g>
</svg>
