<?xml version="1.0" encoding="utf-8"?>
<!-- Generator: Adobe Illustrator 21.0.0, SVG Export Plug-In . SVG Version: 6.00 Build 0)  -->
<svg version="1.1" id="Layer_1" xmlns="http://www.w3.org/2000/svg" xmlns:xlink="http://www.w3.org/1999/xlink" x="0px" y="0px"
	 viewBox="0 0 228.2 38.2" style="enable-background:new 0 0 228.2 38.2;" xml:space="preserve">
<style type="text/css">
	.st0{fill:#EDEDED;}
	.st1{fill:#685989;}
	.st2{fill:#864D7D;}
	.st3{fill:#BEDBC3;}
	.st4{fill:#9CC1C8;}
	.st5{opacity:0.5;fill:#9CC1C8;}
	.st6{fill:#D3DEE4;}
	.st7{fill:#007271;}
	.st8{fill:#369999;}
	.st9{fill:#4D2B2B;}
	.st10{fill:#3A1F1E;}
	.st11{fill:#E95B4E;}
	.st12{fill:#EE8268;}
	.st13{fill:#C83D36;}
	.st14{fill:#F6B99F;}
	.st15{fill:#EEE9DC;}
	.st16{fill:#F19775;}
	.st17{fill:#6B3E3F;}
	.st18{fill:#C7BDB7;}
	.st19{fill:#D1D5CA;}
	.st20{fill:#2B3668;}
	.st21{fill:#EE827D;}
	.st22{fill:#F87481;}
	.st23{fill:#FFFFFF;stroke:#FFFFFF;stroke-miterlimit:10;}
	.st24{fill:#FFFFFF;}
	.st25{opacity:0.3;clip-path:url(#SVGID_2_);}
	.st26{opacity:0.3;clip-path:url(#SVGID_4_);}
	.st27{opacity:0.3;clip-path:url(#SVGID_6_);}
	.st28{fill:#7087AF;}
	.st29{clip-path:url(#SVGID_8_);}
	.st30{fill:#B2555F;}
	.st31{fill:#47284F;}
	.st32{fill:#FFBF9B;}
	.st33{fill:#FFA687;}
	.st34{fill:#72426B;}
	.st35{fill:#FFC9AC;}
	.st36{fill:#C19884;}
	.st37{fill:#FFA68D;}
	.st38{fill:#13A6CE;}
	.st39{fill:#4E2447;}
	.st40{opacity:0.3;}
	.st41{fill:#1A2E35;}
	.st42{fill:#FFBF9D;}
	.st43{fill:#FF9A6C;}
	.st44{fill:#375A64;}
	.st45{fill:#E1E1E1;}
	.st46{opacity:0.2;}
	.st47{fill:#FF4F5B;}
	.st48{fill:#EBEBEB;}
	.st49{fill:#AA6550;}
	.st50{fill:#FAFAFA;}
</style>
<g>
	<path class="st2" d="M214.7,0h-6.4h-190h-4.7C6,0,0,6,0,13.5v4.7v0v6.4c0,7.5,6,13.5,13.5,13.5h6.4h190h4.7c7.5,0,13.5-6,13.5-13.5
		v-4.7v0v-6.4C228.2,6,222.1,0,214.7,0z"/>
	<g>
		<g>
			<path class="st24" d="M72.6,19.7c0-3.6,2.7-6.3,6.3-6.3c1.6,0,2.8,0.5,3.6,1.1l-0.7,2.2c-0.6-0.4-1.7-1-2.9-1
				c-2.2,0-3.8,1.7-3.8,4c0,2.3,1.6,4,3.8,4c1.3,0,2.5-0.6,3-1l0.7,2.1C82,25.4,80.7,26,79,26C75.2,26,72.6,23.3,72.6,19.7z"/>
			<path class="st24" d="M86.9,22.6l-1.1,3.1h-2.5l4.3-12.2h2.6l4.3,12.2h-2.5L91,22.6H86.9z M88.9,16.2l-1.4,4.4h2.8L88.9,16.2z"/>
			<path class="st24" d="M98.2,17.5v8.2h-2.4V13.6h2.5l5.2,8.3v-8.3h2.4v12.2h-2.4L98.2,17.5z"/>
			<path class="st24" d="M107.6,19.7c0-3.6,2.7-6.3,6.3-6.3c1.6,0,2.8,0.5,3.6,1.1l-0.7,2.2c-0.6-0.4-1.7-1-2.9-1
				c-2.2,0-3.8,1.7-3.8,4c0,2.3,1.6,4,3.8,4c1.3,0,2.5-0.6,3-1l0.7,2.1c-0.7,0.5-1.9,1.1-3.7,1.1C110.1,26,107.6,23.3,107.6,19.7z"
				/>
			<path class="st24" d="M119.3,13.6h6.3v2.2h-3.8v2.7h3.3v2.2h-3.3v2.9h4v2.2h-6.4V13.6z"/>
			<path class="st24" d="M127.7,13.6h2.5v10h4v2.2h-6.4V13.6z"/>
			<path class="st24" d="M138.1,22.6l-1.1,3.1h-2.5l4.3-12.2h2.6l4.3,12.2h-2.5l-1.1-3.1H138.1z M140.2,16.2l-1.4,4.4h2.8
				L140.2,16.2z"/>
			<path class="st24" d="M147.1,13.6h3.7c2.7,0,4.1,1.6,4.1,3.6c0,1.5-0.7,2.6-1.8,3.2l2.9,5.3h-2.7l-2.4-4.8h-1.3v4.8h-2.5V13.6z
				 M150.7,18.9c0.9,0,1.7-0.6,1.7-1.6c0-1-0.7-1.6-1.8-1.6h-1v3.2H150.7z"/>
		</g>
	</g>
</g>
</svg>
