<?xml version="1.0" encoding="utf-8"?>
<!-- Generator: Adobe Illustrator 21.0.0, SVG Export Plug-In . SVG Version: 6.00 Build 0)  -->
<svg version="1.1" id="Layer_1" xmlns="http://www.w3.org/2000/svg" xmlns:xlink="http://www.w3.org/1999/xlink" x="0px" y="0px"
	 viewBox="0 0 228.2 38.2" style="enable-background:new 0 0 228.2 38.2;" xml:space="preserve">
<style type="text/css">
	.st0{fill:#EDEDED;}
	.st1{fill:#685989;}
	.st2{fill:#864D7D;}
	.st3{fill:#BEDBC3;}
	.st4{fill:#9CC1C8;}
	.st5{opacity:0.5;fill:#9CC1C8;}
	.st6{fill:#D3DEE4;}
	.st7{fill:#007271;}
	.st8{fill:#369999;}
	.st9{fill:#4D2B2B;}
	.st10{fill:#3A1F1E;}
	.st11{fill:#E95B4E;}
	.st12{fill:#EE8268;}
	.st13{fill:#C83D36;}
	.st14{fill:#F6B99F;}
	.st15{fill:#EEE9DC;}
	.st16{fill:#F19775;}
	.st17{fill:#6B3E3F;}
	.st18{fill:#C7BDB7;}
	.st19{fill:#D1D5CA;}
	.st20{fill:#2B3668;}
	.st21{fill:#EE827D;}
	.st22{fill:#F87481;}
	.st23{fill:#FFFFFF;stroke:#FFFFFF;stroke-miterlimit:10;}
	.st24{fill:#FFFFFF;}
	.st25{opacity:0.3;clip-path:url(#SVGID_2_);}
	.st26{opacity:0.3;clip-path:url(#SVGID_4_);}
	.st27{opacity:0.3;clip-path:url(#SVGID_6_);}
	.st28{fill:#7087AF;}
	.st29{clip-path:url(#SVGID_8_);}
	.st30{fill:#B2555F;}
	.st31{fill:#47284F;}
	.st32{fill:#FFBF9B;}
	.st33{fill:#FFA687;}
	.st34{fill:#72426B;}
	.st35{fill:#FFC9AC;}
	.st36{fill:#C19884;}
	.st37{fill:#FFA68D;}
	.st38{fill:#13A6CE;}
	.st39{fill:#4E2447;}
	.st40{opacity:0.3;}
	.st41{fill:#1A2E35;}
	.st42{fill:#FFBF9D;}
	.st43{fill:#FF9A6C;}
	.st44{fill:#375A64;}
	.st45{fill:#E1E1E1;}
	.st46{opacity:0.2;}
	.st47{fill:#FF4F5B;}
	.st48{fill:#EBEBEB;}
	.st49{fill:#AA6550;}
	.st50{fill:#FAFAFA;}
</style>
<g>
	<path class="st4" d="M214.7,0h-6.4h-190h-4.7C6,0,0,6,0,13.5v4.7v0v6.4c0,7.5,6,13.5,13.5,13.5h6.4h190h4.7c7.5,0,13.5-6,13.5-13.5
		v-4.7v0v-6.4C228.2,6,222.1,0,214.7,0z"/>
	<g>
		<g>
			<path class="st24" d="M53.8,19.7c0-3.6,2.7-6.3,6.3-6.3c1.6,0,2.8,0.5,3.6,1.1L63,16.7c-0.6-0.4-1.7-1-2.9-1
				c-2.2,0-3.8,1.7-3.8,4c0,2.3,1.6,4,3.8,4c1.3,0,2.5-0.6,3-1l0.7,2.1c-0.7,0.5-1.9,1.1-3.7,1.1C56.3,26,53.8,23.3,53.8,19.7z"/>
			<path class="st24" d="M64.8,19.7c0-3.5,2.6-6.3,6.3-6.3s6.3,2.8,6.3,6.3c0,3.6-2.6,6.3-6.3,6.3S64.8,23.3,64.8,19.7z M67.4,19.7
				c0,2.3,1.6,4,3.8,4s3.8-1.7,3.8-4c0-2.3-1.6-4-3.8-4S67.4,17.4,67.4,19.7z"/>
			<path class="st24" d="M81.6,17.5v8.2h-2.4V13.6h2.5l5.2,8.3v-8.3h2.4v12.2h-2.4L81.6,17.5z"/>
			<path class="st24" d="M93.6,15.8h-2.9v-2.2h8.1v2.2h-2.8v10h-2.5V15.8z"/>
			<path class="st24" d="M101.9,22.6l-1.1,3.1h-2.5l4.3-12.2h2.6l4.3,12.2h-2.5l-1.1-3.1H101.9z M104,16.2l-1.4,4.4h2.8L104,16.2z
				 M104,10.4h2.5l-1.7,2.5h-2L104,10.4z"/>
			<path class="st24" d="M109.9,19.7c0-3.6,2.7-6.3,6.3-6.3c1.6,0,2.8,0.5,3.6,1.1l-0.7,2.2c-0.6-0.4-1.7-1-2.9-1
				c-2.2,0-3.8,1.7-3.8,4c0,2.3,1.6,4,3.8,4c1.3,0,2.5-0.6,3-1l0.7,2.1c-0.7,0.5-1.9,1.1-3.7,1.1C112.4,26,109.9,23.3,109.9,19.7z"
				/>
			<path class="st24" d="M123.7,15.8h-2.9v-2.2h8.1v2.2h-2.8v10h-2.5V15.8z"/>
			<path class="st24" d="M132,22.6l-1.1,3.1h-2.5l4.3-12.2h2.6l4.3,12.2h-2.5l-1.1-3.1H132z M134.1,16.2l-1.4,4.4h2.8L134.1,16.2z"
				/>
			<path class="st24" d="M143.4,17.5v8.2h-2.4V13.6h2.5l5.2,8.3v-8.3h2.4v12.2h-2.4L143.4,17.5z"/>
			<path class="st24" d="M152.7,19.7c0-3.5,2.6-6.3,6.3-6.3s6.3,2.8,6.3,6.3c0,3.6-2.6,6.3-6.3,6.3S152.7,23.3,152.7,19.7z
				 M155.3,19.7c0,2.3,1.6,4,3.8,4s3.8-1.7,3.8-4c0-2.3-1.6-4-3.8-4S155.3,17.4,155.3,19.7z"/>
			<path class="st24" d="M174.2,16l-2,0.9c-0.3-0.6-0.7-1.3-1.8-1.3c-0.8,0-1.3,0.5-1.3,1.2c0,2,5.3,1.7,5.3,5.5
				c0,2.1-1.5,3.7-4.1,3.7c-2.6,0-3.7-1.8-4-2.8l2.1-1c0.3,0.8,1,1.5,2.1,1.5c0.9,0,1.4-0.5,1.4-1.3c0-2.1-5.2-1.7-5.2-5.6
				c0-2.1,1.5-3.5,3.8-3.5C172.9,13.4,173.9,15.2,174.2,16z"/>
		</g>
	</g>
</g>
</svg>
