<?xml version="1.0" encoding="utf-8"?>
<!-- Generator: Adobe Illustrator 21.0.0, SVG Export Plug-In . SVG Version: 6.00 Build 0)  -->
<svg version="1.1" id="Layer_1" xmlns="http://www.w3.org/2000/svg" xmlns:xlink="http://www.w3.org/1999/xlink" x="0px" y="0px"
	 viewBox="0 0 518.7 68.1" style="enable-background:new 0 0 518.7 68.1;" xml:space="preserve">
<style type="text/css">
	.st0{fill:#EDEDED;}
	.st1{fill:#685989;}
	.st2{fill:#864D7D;}
	.st3{fill:#BEDBC3;}
	.st4{fill:#9CC1C8;}
	.st5{opacity:0.5;fill:#9CC1C8;}
	.st6{fill:#D3DEE4;}
	.st7{fill:#007271;}
	.st8{fill:#369999;}
	.st9{fill:#4D2B2B;}
	.st10{fill:#3A1F1E;}
	.st11{fill:#E95B4E;}
	.st12{fill:#EE8268;}
	.st13{fill:#C83D36;}
	.st14{fill:#F6B99F;}
	.st15{fill:#EEE9DC;}
	.st16{fill:#F19775;}
	.st17{fill:#6B3E3F;}
	.st18{fill:#C7BDB7;}
	.st19{fill:#D1D5CA;}
	.st20{fill:#2B3668;}
	.st21{fill:#EE827D;}
	.st22{fill:#F87481;}
	.st23{fill:#FFFFFF;stroke:#FFFFFF;stroke-miterlimit:10;}
	.st24{fill:#FFFFFF;}
	.st25{opacity:0.3;clip-path:url(#SVGID_2_);}
	.st26{opacity:0.3;clip-path:url(#SVGID_4_);}
	.st27{opacity:0.3;clip-path:url(#SVGID_6_);}
	.st28{fill:#7087AF;}
	.st29{clip-path:url(#SVGID_8_);}
	.st30{fill:#B2555F;}
	.st31{fill:#47284F;}
	.st32{fill:#FFBF9B;}
	.st33{fill:#FFA687;}
	.st34{fill:#72426B;}
	.st35{fill:#FFC9AC;}
	.st36{fill:#C19884;}
	.st37{fill:#FFA68D;}
	.st38{fill:#13A6CE;}
	.st39{fill:#4E2447;}
	.st40{opacity:0.3;}
	.st41{fill:#1A2E35;}
	.st42{fill:#FFBF9D;}
	.st43{fill:#FF9A6C;}
	.st44{fill:#375A64;}
	.st45{fill:#E1E1E1;}
	.st46{opacity:0.2;}
	.st47{fill:#FF4F5B;}
	.st48{fill:#EBEBEB;}
	.st49{fill:#AA6550;}
	.st50{fill:#FAFAFA;}
</style>
<g>
	<path class="st1" d="M506.7,68.1H12c-6.6,0-12-5.4-12-12V12C0,5.4,5.4,0,12,0h494.7c6.6,0,12,5.4,12,12v44.1
		C518.7,62.7,513.3,68.1,506.7,68.1z"/>
	<g>
		<path class="st24" d="M215,26h8.2v2.9h-5v3.8h4.4v2.9h-4.4v6.5H215V26z"/>
		<path class="st24" d="M228.9,38l-1.4,4.1h-3.3l5.7-16.1h3.4l5.7,16.1h-3.3l-1.4-4.1H228.9z M231.6,29.5l-1.9,5.8h3.7L231.6,29.5z"
			/>
		<path class="st24" d="M250.7,37l4.6-11h4.2v16.1h-3.1V30.6l-4.2,10.1h-3L245,30.6v11.5h-3.1V26h4.2L250.7,37z"/>
		<path class="st24" d="M263.7,26h3.2v16.1h-3.2V26z"/>
		<path class="st24" d="M271.2,26h3.2v13.2h5.2v2.9h-8.5V26z"/>
		<path class="st24" d="M282.8,26h3.2v16.1h-3.2V26z"/>
		<path class="st24" d="M293.6,38l-1.4,4.1h-3.3l5.7-16.1h3.4l5.7,16.1h-3.3L299,38H293.6z M296.3,29.5l-1.9,5.8h3.7L296.3,29.5z"/>
	</g>
</g>
</svg>
