<?xml version="1.0" encoding="utf-8"?>
<!-- Generator: Adobe Illustrator 21.0.0, SVG Export Plug-In . SVG Version: 6.00 Build 0)  -->
<svg version="1.1" id="Layer_1" xmlns="http://www.w3.org/2000/svg" xmlns:xlink="http://www.w3.org/1999/xlink" x="0px" y="0px"
	 viewBox="0 0 518.7 68.1" style="enable-background:new 0 0 518.7 68.1;" xml:space="preserve">
<style type="text/css">
	.st0{fill:#EDEDED;}
	.st1{fill:#685989;}
	.st2{fill:#864D7D;}
	.st3{fill:#BEDBC3;}
	.st4{fill:#9CC1C8;}
	.st5{opacity:0.5;fill:#9CC1C8;}
	.st6{fill:#D3DEE4;}
	.st7{fill:#007271;}
	.st8{fill:#369999;}
	.st9{fill:#4D2B2B;}
	.st10{fill:#3A1F1E;}
	.st11{fill:#E95B4E;}
	.st12{fill:#EE8268;}
	.st13{fill:#C83D36;}
	.st14{fill:#F6B99F;}
	.st15{fill:#EEE9DC;}
	.st16{fill:#F19775;}
	.st17{fill:#6B3E3F;}
	.st18{fill:#C7BDB7;}
	.st19{fill:#D1D5CA;}
	.st20{fill:#2B3668;}
	.st21{fill:#EE827D;}
	.st22{fill:#F87481;}
	.st23{fill:#FFFFFF;stroke:#FFFFFF;stroke-miterlimit:10;}
	.st24{fill:#FFFFFF;}
	.st25{opacity:0.3;clip-path:url(#SVGID_2_);}
	.st26{opacity:0.3;clip-path:url(#SVGID_4_);}
	.st27{opacity:0.3;clip-path:url(#SVGID_6_);}
	.st28{fill:#7087AF;}
	.st29{clip-path:url(#SVGID_8_);}
	.st30{fill:#B2555F;}
	.st31{fill:#47284F;}
	.st32{fill:#FFBF9B;}
	.st33{fill:#FFA687;}
	.st34{fill:#72426B;}
	.st35{fill:#FFC9AC;}
	.st36{fill:#C19884;}
	.st37{fill:#FFA68D;}
	.st38{fill:#13A6CE;}
	.st39{fill:#4E2447;}
	.st40{opacity:0.3;}
	.st41{fill:#1A2E35;}
	.st42{fill:#FFBF9D;}
	.st43{fill:#FF9A6C;}
	.st44{fill:#375A64;}
	.st45{fill:#E1E1E1;}
	.st46{opacity:0.2;}
	.st47{fill:#FF4F5B;}
	.st48{fill:#EBEBEB;}
	.st49{fill:#AA6550;}
	.st50{fill:#FAFAFA;}
</style>
<g>
	<path class="st1" d="M506.7,68.1H12c-6.6,0-12-5.4-12-12V12C0,5.4,5.4,0,12,0h494.7c6.6,0,12,5.4,12,12v44.1
		C518.7,62.7,513.3,68.1,506.7,68.1z"/>
	<g>
		<path class="st24" d="M126.3,33.1V44h-3.2V27.9h3.3l6.9,11v-11h3.2V44h-3.2L126.3,33.1z"/>
		<path class="st24" d="M140.7,27.9h3.2V44h-3.2V27.9z"/>
		<path class="st24" d="M151.4,33.1V44h-3.2V27.9h3.3l6.9,11v-11h3.2V44h-3.2L151.4,33.1z M153.6,26.1c-0.5,0-0.7,0.3-0.7,0.9h-2
			c0-1.8,1-3.1,2.5-3.1c1.3,0,2.1,0.9,2.8,0.9c0.5,0,0.7-0.3,0.7-0.9h2c0,1.9-1,3.1-2.5,3.1C155.3,26.9,154.4,26.1,153.6,26.1z"/>
		<path class="st24" d="M164.9,36c0-4.7,3.4-8.3,8.4-8.3s8.4,3.7,8.4,8.3c0,4.7-3.4,8.3-8.4,8.3S164.9,40.7,164.9,36z M168.3,36
			c0,3.1,2.1,5.3,5,5.3s5-2.2,5-5.3c0-3-2.1-5.3-5-5.3S168.3,32.9,168.3,36z"/>
		<path class="st24" d="M194.5,31.1l-2.7,1.2c-0.3-0.8-0.9-1.7-2.3-1.7c-1.1,0-1.7,0.7-1.7,1.5c0,2.7,7,2.3,7,7.3
			c0,2.8-2,4.9-5.4,4.9c-3.4,0-4.9-2.4-5.3-3.7l2.7-1.3c0.4,1.1,1.3,2,2.8,2c1.2,0,1.9-0.6,1.9-1.7c0-2.8-6.9-2.3-6.9-7.5
			c0-2.7,2-4.6,5.1-4.6C192.8,27.6,194.1,30,194.5,31.1z"/>
		<path class="st24" d="M208.6,36.7l-4.9-8.7h3.7l2.9,5.8l2.9-5.8h3.7l-4.9,8.7V44h-3.2V36.7z"/>
		<path class="st24" d="M229.7,39.9l-1.4,4.1h-3.3l5.7-16.1h3.4l5.7,16.1h-3.3l-1.4-4.1H229.7z M232.5,31.4l-1.9,5.8h3.7L232.5,31.4
			z"/>
		<path class="st24" d="M242.8,27.9h4.3c5.3,0,8.5,3,8.5,8c0,5.2-3.3,8-8.5,8h-4.3V27.9z M247.1,41.2c3.1,0,5-1.8,5-5.2
			c0-3.4-2-5.2-5-5.2H246v10.5H247.1z"/>
		<path class="st24" d="M258.1,36c0-4.7,3.4-8.3,8.4-8.3s8.4,3.7,8.4,8.3c0,4.7-3.4,8.3-8.4,8.3S258.1,40.7,258.1,36z M261.5,36
			c0,3.1,2.1,5.3,5,5.3s5-2.2,5-5.3c0-3-2.1-5.3-5-5.3S261.5,32.9,261.5,36z"/>
		<path class="st24" d="M278.2,27.9h3.2v13.2h5.2V44h-8.5V27.9z"/>
		<path class="st24" d="M289.9,27.9h8.3v2.9h-5v3.6h4.3v2.9h-4.3v3.8h5.2V44h-8.5V27.9z"/>
		<path class="st24" d="M311.5,31.1l-2.7,1.2c-0.3-0.8-0.9-1.7-2.3-1.7c-1.1,0-1.7,0.7-1.7,1.5c0,2.7,7,2.3,7,7.3
			c0,2.8-2,4.9-5.4,4.9c-3.4,0-4.9-2.4-5.3-3.7l2.7-1.3c0.4,1.1,1.3,2,2.8,2c1.2,0,1.9-0.6,1.9-1.7c0-2.8-6.9-2.3-6.9-7.5
			c0-2.7,2-4.6,5.1-4.6C309.8,27.6,311.2,30,311.5,31.1z"/>
		<path class="st24" d="M314.4,36c0-4.7,3.5-8.3,8.4-8.3c2.1,0,3.7,0.7,4.8,1.5l-0.9,2.9c-0.8-0.6-2.2-1.3-3.9-1.3
			c-2.9,0-5,2.3-5,5.3c0,3.1,2.1,5.3,5,5.3c1.7,0,3.2-0.8,4-1.3l0.9,2.8c-1,0.7-2.6,1.5-4.9,1.5C317.7,44.3,314.4,40.7,314.4,36z"/>
		<path class="st24" d="M331,27.9h8.3v2.9h-5v3.6h4.3v2.9h-4.3v3.8h5.2V44H331V27.9z"/>
		<path class="st24" d="M346.4,33.1V44h-3.2V27.9h3.3l6.9,11v-11h3.2V44h-3.2L346.4,33.1z"/>
		<path class="st24" d="M363.5,30.8h-3.8v-2.9h10.8v2.9h-3.7V44h-3.2V30.8z"/>
		<path class="st24" d="M373.7,27.9h8.3v2.9h-5v3.6h4.3v2.9h-4.3v3.8h5.2V44h-8.5V27.9z"/>
		<path class="st24" d="M395.4,31.1l-2.7,1.2c-0.3-0.8-0.9-1.7-2.3-1.7c-1.1,0-1.7,0.7-1.7,1.5c0,2.7,7,2.3,7,7.3
			c0,2.8-2,4.9-5.4,4.9c-3.4,0-4.9-2.4-5.3-3.7l2.7-1.3c0.4,1.1,1.3,2,2.8,2c1.2,0,1.9-0.6,1.9-1.7c0-2.8-6.9-2.3-6.9-7.5
			c0-2.7,2-4.6,5.1-4.6C393.7,27.6,395,30,395.4,31.1z"/>
	</g>
</g>
</svg>
