<?xml version="1.0" encoding="utf-8"?>
<!-- Generator: Adobe Illustrator 21.0.0, SVG Export Plug-In . SVG Version: 6.00 Build 0)  -->
<svg version="1.1" id="Layer_1" xmlns="http://www.w3.org/2000/svg" xmlns:xlink="http://www.w3.org/1999/xlink" x="0px" y="0px"
	 viewBox="0 0 210.5 63.9" style="enable-background:new 0 0 210.5 63.9;" xml:space="preserve">
<style type="text/css">
	.st0{fill:#FFFFFF;}
	.st1{fill-rule:evenodd;clip-rule:evenodd;fill:#685989;}
	.st2{fill:#F87481;}
	.st3{fill:#864D7D;}
	.st4{fill:#685989;}
	.st5{fill:#7087AF;}
	.st6{fill:#9CC1C8;}
	.st7{fill:#BEDBC3;}
	.st8{fill:none;stroke:#685989;stroke-width:3;stroke-miterlimit:10;}
	.st9{fill:none;stroke:#9CC1C8;stroke-width:3;stroke-miterlimit:10;}
	.st10{fill:none;stroke:#864D7D;stroke-width:3;stroke-miterlimit:10;}
	.st11{fill-rule:evenodd;clip-rule:evenodd;fill:#F87481;}
	.st12{opacity:0.3;clip-path:url(#SVGID_5_);}
	.st13{opacity:0.3;clip-path:url(#SVGID_7_);}
	.st14{opacity:0.3;clip-path:url(#SVGID_9_);}
	.st15{opacity:0.3;clip-path:url(#SVGID_11_);}
	.st16{opacity:0.3;clip-path:url(#SVGID_13_);}
	.st17{fill:#F6F6F6;}
	.st18{clip-path:url(#SVGID_15_);}
	.st19{clip-path:url(#SVGID_19_);}
	.st20{fill:#EDEDED;}
	.st21{opacity:0.5;fill:#9CC1C8;}
	.st22{fill:#D3DEE4;}
	.st23{fill:#007271;}
	.st24{fill:#369999;}
	.st25{fill:#4D2B2B;}
	.st26{fill:#3A1F1E;}
	.st27{fill:#E95B4E;}
	.st28{fill:#EE8268;}
	.st29{fill:#C83D36;}
	.st30{fill:#F6B99F;}
	.st31{fill:#EEE9DC;}
	.st32{fill:#EDC9C7;stroke:#221F20;stroke-linecap:round;stroke-linejoin:round;stroke-miterlimit:10;}
	.st33{fill:#F19775;}
	.st34{fill:#6B3E3F;}
	.st35{fill:#C7BDB7;}
	.st36{fill:#D1D5CA;}
	.st37{fill:#2B3668;}
	.st38{fill:#EE827D;}
	.st39{fill:#FFFFFF;stroke:#FFFFFF;stroke-miterlimit:10;}
	.st40{fill:#606060;}
	.st41{fill:none;stroke:#BEDBC3;stroke-width:4;stroke-linecap:round;stroke-linejoin:round;stroke-miterlimit:10;}
	.st42{fill:none;stroke:#864D7D;stroke-width:3.7;stroke-miterlimit:10;}
	.st43{fill:#864D7D;stroke:#864D7D;stroke-width:0.9403;stroke-miterlimit:10;}
	.st44{opacity:0.5;}
	.st45{fill:#FEFFFF;}
	.st46{fill:#FEFEFF;}
	.st47{fill:#FDFEFE;}
	.st48{fill:#FDFDFE;}
	.st49{fill:#FCFDFE;}
	.st50{fill:#FBFCFE;}
	.st51{fill:#FBFCFD;}
	.st52{fill:#FAFCFD;}
	.st53{fill:#FAFBFD;}
	.st54{fill:#F9FBFD;}
	.st55{fill:#F8FAFC;}
	.st56{fill:#F7FAFC;}
	.st57{fill:#F7F9FC;}
	.st58{fill:#F6F9FC;}
	.st59{fill:#F6F9FB;}
	.st60{fill:#F5F8FB;}
	.st61{fill:#F4F7FB;}
	.st62{fill:#F3F7FB;}
	.st63{fill:#F3F7FA;}
	.st64{fill:#F2F6FA;}
	.st65{fill:#F1F5FA;}
	.st66{fill:#F0F5F9;}
	.st67{fill:#F0F4F9;}
	.st68{fill:#EFF4F9;}
	.st69{fill:#EEF3F8;}
	.st70{fill:#EDF3F8;}
	.st71{fill:#EDF2F8;}
	.st72{fill:#ECF2F8;}
	.st73{fill:#EBF1F7;}
	.st74{fill:#EAF1F7;}
	.st75{fill:#EAF0F7;}
	.st76{fill:#E9F0F7;}
	.st77{fill:#E8EFF6;}
	.st78{fill:#E7EFF6;}
	.st79{fill:#E7EEF6;}
	.st80{fill:#E6EEF5;}
	.st81{fill:#E5EDF5;}
	.st82{fill:#E4ECF5;}
	.st83{fill:#E4ECF4;}
	.st84{fill:#E3ECF4;}
	.st85{fill:#E2EBF4;}
	.st86{fill:#E1EAF4;}
	.st87{fill:#E1EAF3;}
	.st88{fill:#E0EAF3;}
	.st89{fill:#E0E9F3;}
	.st90{fill:#DFE9F3;}
	.st91{fill:#DEE8F2;}
	.st92{fill:#DDE8F2;}
	.st93{fill:#DDE7F2;}
	.st94{fill:#DCE7F2;}
	.st95{fill:#DCE7F1;}
	.st96{fill:#DBE6F1;}
	.st97{fill:#DAE6F1;}
	.st98{fill:#DAE5F1;}
	.st99{fill:#D9E5F0;}
	.st100{fill:#D9E4F0;}
	.st101{fill:#D8E4F0;}
	.st102{fill:#D6E2EE;}
	.st103{fill:#D4E0EC;}
	.st104{fill:#D2DEEA;}
	.st105{fill:#D0DCE8;}
	.st106{fill:#CEDAE6;}
	.st107{fill:#CDD9E5;}
	.st108{fill:#CBD7E3;}
	.st109{fill:#C9D5E1;}
	.st110{fill:#C7D3DF;}
	.st111{fill:#C5D1DD;}
	.st112{fill:#C3CFDB;}
	.st113{fill:#C1CDD9;}
	.st114{fill:#BFCBD7;}
	.st115{fill:#BDC9D5;}
	.st116{fill:#BBC7D3;}
	.st117{fill:#B9C6D2;}
	.st118{fill:#B7C4D0;}
	.st119{fill:#B6C2CE;}
	.st120{fill:#B4C0CC;}
	.st121{fill:#B2BECA;}
	.st122{fill:#B0BCC8;}
	.st123{fill:#AEBAC6;}
	.st124{fill:#ACB8C4;}
	.st125{fill:#AAB6C2;}
	.st126{fill:#A8B4C0;}
	.st127{fill:#A6B3BF;}
	.st128{fill:#A4B1BD;}
	.st129{fill:#A2AFBB;}
	.st130{fill:#A0ADB9;}
	.st131{fill:#9FABB7;}
	.st132{fill:#9DA9B5;}
	.st133{fill:#9BA7B3;}
	.st134{fill:#99A5B1;}
	.st135{fill:#97A3AF;}
	.st136{fill:#95A1AD;}
	.st137{fill:#93A0AC;}
	.st138{fill:#919EAA;}
	.st139{fill:#8F9CA8;}
	.st140{fill:#8D9AA6;}
	.st141{fill:#8B98A4;}
	.st142{fill:#8996A2;}
	.st143{fill:#8894A0;}
	.st144{fill:#86929E;}
	.st145{fill:#84909C;}
	.st146{fill:#828E9A;}
	.st147{fill:#808D99;}
	.st148{fill:#7E8B97;}
	.st149{fill:#7C8995;}
	.st150{fill:#7A8793;}
	.st151{fill:#788591;}
	.st152{fill:#76838F;}
	.st153{fill:#74818D;}
	.st154{fill:#727F8B;}
	.st155{fill:#717D89;}
	.st156{fill:#6F7B87;}
	.st157{fill:#6D7A86;}
	.st158{fill:#6B7884;}
	.st159{fill:#697682;}
	.st160{fill:#677480;}
	.st161{fill:#65727E;}
	.st162{fill:#63707C;}
	.st163{fill:#616E7A;}
	.st164{fill:#5F6C78;}
	.st165{fill:#5D6A76;}
	.st166{fill:#5B6874;}
	.st167{fill:#5A6773;}
	.st168{fill:#586571;}
	.st169{fill:#56636F;}
	.st170{fill:#54616D;}
	.st171{fill:#525F6B;}
	.st172{fill:#505D69;}
	.st173{fill:#864D7D;stroke:#864D7D;stroke-miterlimit:10;}
	.st174{fill:none;stroke:#FFFFFF;stroke-width:2;stroke-miterlimit:10;}
	.st175{fill:#FFFFFF;stroke:#242E77;stroke-width:0.1637;stroke-linecap:round;stroke-linejoin:round;stroke-miterlimit:10;}
	.st176{opacity:0.3;clip-path:url(#SVGID_33_);}
	.st177{fill:none;stroke:#7087AF;stroke-miterlimit:10;}
	.st178{clip-path:url(#SVGID_35_);}
	.st179{fill:none;stroke:#FFFFFF;stroke-miterlimit:10;}
	.st180{fill-rule:evenodd;clip-rule:evenodd;fill:#FFFFFF;}
	.st181{fill:#B2555F;}
	.st182{fill:#47284F;}
	.st183{fill:#FFBF9B;}
	.st184{fill:#FFA687;}
	.st185{fill:none;stroke:#47284F;stroke-width:1.1054;stroke-linecap:round;stroke-miterlimit:10;}
	.st186{fill:#72426B;}
	.st187{fill:#FFC9AC;}
	.st188{fill:#C19884;}
	.st189{fill:#FFA68D;}
	.st190{fill:#13A6CE;}
	.st191{fill:#4E2447;}
	.st192{opacity:0.3;}
	.st193{fill:#1A2E35;}
	.st194{fill:#FFBF9D;}
	.st195{fill:#FF9A6C;}
	.st196{fill:#375A64;}
	.st197{fill:#E1E1E1;}
	.st198{opacity:0.2;}
	.st199{fill:#FF4F5B;}
	.st200{fill:#EBEBEB;}
	.st201{fill:#AA6550;}
	.st202{fill:none;stroke:#FFA6AD;stroke-miterlimit:10;}
	.st203{fill:none;stroke:#FFFFFF;stroke-width:5.000000e-02;stroke-miterlimit:10;}
	.st204{fill:#FAFAFA;}
	.st205{clip-path:url(#SVGID_37_);}
	.st206{fill:#FFFFFF;stroke:#FFFFFF;stroke-width:3;stroke-miterlimit:10;}
	.st207{fill:#F87481;stroke:#F87481;stroke-miterlimit:10;}
	.st208{clip-path:url(#SVGID_41_);}
	.st209{fill:#FFFFFF;stroke:#FFFFFF;stroke-width:0.9403;stroke-miterlimit:10;}
	.st210{fill:none;stroke:#9CC1C8;stroke-miterlimit:10;}
	.st211{fill:none;stroke:#F87481;stroke-miterlimit:10;}
</style>
<path class="st6" d="M203.9,63.9H6.5C2.9,63.9,0,61,0,57.4L0,6.5C0,2.9,2.9,0,6.5,0l197.4,0c3.6,0,6.5,2.9,6.5,6.5v50.8
	C210.5,61,207.5,63.9,203.9,63.9z"/>
<g>
	<path class="st0" d="M75.8,30c0-5.3,4-9.4,9.6-9.4c2.3,0,4,0.7,5.3,1.5L89.5,26c-1-0.7-2.3-1.3-3.9-1.3c-3.3,0-5.2,2.4-5.2,5.3
		s1.8,5.3,5.2,5.3c1.6,0,3-0.6,4-1.3l1.2,3.9c-1.3,0.9-3.1,1.5-5.4,1.5C79.6,39.5,75.8,35.3,75.8,30z"/>
	<path class="st0" d="M99.5,25.1c4.4,0,7.5,3,7.5,7.2c0,4.1-3.2,7.2-7.5,7.2c-4.3,0-7.4-3-7.4-7.1C92.1,28.2,95.3,25.1,99.5,25.1z
		 M99.5,35.6c1.8,0,3.1-1.4,3.1-3.4c0-2-1.4-3.3-3.1-3.3c-1.8,0-3.1,1.4-3.1,3.4C96.4,34.3,97.7,35.6,99.5,35.6z"/>
	<path class="st0" d="M120.8,39.1h-4.3V31c0-1.2-0.6-2-1.6-2c-1,0-1.7,0.7-1.7,2v8.1h-4.3V25.4h4.2v1.4c0.5-0.8,1.6-1.7,3.4-1.7
		c1.6,0,2.8,0.7,3.5,1.8c0.8-1.1,2.1-1.8,3.9-1.8c3.1,0,4.6,2,4.6,4.9v9.1h-4.3V31c0-1.2-0.6-2-1.7-2c-1,0-1.7,0.8-1.7,2V39.1z"/>
	<path class="st0" d="M134.9,26.5c0.4-0.4,1.7-1.4,3.7-1.4c3.9,0,6.7,3,6.7,7.2c0,4.2-2.5,7.2-6.5,7.2c-2.1,0-3.4-1-3.6-1.4V44h-4.3
		V25.4h4.1V26.5z M138,35.6c1.8,0,2.9-1.4,2.9-3.4c0-2-1.2-3.3-2.9-3.3c-1.9,0-2.9,1.5-2.9,3.3C135.1,34.4,136.3,35.6,138,35.6z"/>
	<path class="st0" d="M151.7,30.3c1.2,0,2.1,0.3,2.6,0.5v-0.5c0-0.8-0.7-1.5-2.1-1.5c-1.2,0-2.4,0.3-3.4,0.9l-1.6-2.9
		c1.5-1,3.3-1.7,5.6-1.7c4.7,0,5.9,2.4,5.9,5.5v8.5h-3.9l-0.2-0.8c-0.7,0.7-1.7,1.1-3.1,1.1c-2.7,0-5.1-1.6-5.1-4.6
		C146.4,32.1,148.5,30.3,151.7,30.3z M152.6,36.1c1,0,1.8-0.5,1.8-1.4c0-0.9-0.8-1.5-1.8-1.5c-1,0-1.8,0.6-1.8,1.5
		C150.7,35.6,151.6,36.1,152.6,36.1z"/>
	<path class="st0" d="M168.9,29.5c-0.2,0-0.4-0.1-0.7-0.1c-2.1,0-2.8,1.5-2.8,3.6v6H161V25.4h4.2v1.8c0.7-1.3,1.9-2.2,3.6-2.2V29.5z
		"/>
	<path class="st0" d="M176.1,25.4h2.3V29h-2.3v5c0,1.2,0.8,1.5,1.7,1.5c0.2,0,0.4,0,0.7,0v3.7c0,0-0.6,0.2-1.7,0.2
		c-3.2,0-5.1-1.5-5.1-5.5V29h-1.3v-3.5h1.3v-2.9h4.3V25.4z"/>
	<path class="st0" d="M180.3,22.3c0-1.4,1-2.4,2.4-2.4c1.4,0,2.4,1,2.4,2.4c0,1.4-1.1,2.3-2.4,2.3C181.3,24.6,180.3,23.6,180.3,22.3
		z M184.9,39.1h-4.3V25.4h4.3V39.1z"/>
	<path class="st0" d="M195.3,29.5c-0.2,0-0.4-0.1-0.7-0.1c-2.1,0-2.8,1.5-2.8,3.6v6h-4.3V25.4h4.2v1.8c0.7-1.3,1.9-2.2,3.6-2.2V29.5
		z"/>
</g>
<g id="XMLID_11_">
	<path id="XMLID_12_" class="st0" d="M20.6,33.8c1.8,0,3.5,0,5.3,0c0.2,0,0.3,0.1,0.3,0.3c0,5.6,0,11.2,0,16.9c0,0,0,0.1,0,0.1h7.1
		c0,0,0-0.1,0-0.1c0-5.6,0-11.3,0-16.9c0-0.2,0.1-0.3,0.3-0.3c1.8,0,3.5,0,5.3,0c0.2,0,0.3-0.1,0.3-0.3c0.1-0.9,0.2-1.8,0.3-2.7
		c0.1-1,0.3-2.1,0.4-3.1c0-0.2,0.1-0.5,0.1-0.8c-0.1,0-0.2,0-0.3,0c-2.1,0-4.1,0-6.2,0c-0.2,0-0.3,0-0.3-0.2c0-1.6,0-3.1,0-4.7
		c0-0.3,0.1-0.6,0.2-1c0.3-0.9,0.9-1.4,1.8-1.6c0.5-0.1,1.1-0.1,1.6-0.1c1,0,2,0,3.1,0c0.2,0,0.2-0.1,0.2-0.3c0-1.9,0-3.8,0-5.6
		c0-0.2-0.1-0.3-0.3-0.3c-1.8-0.2-3.6-0.3-5.5-0.2c-1.8,0-3.5,0.5-5,1.6c-1.6,1.2-2.5,2.8-3,4.7c-0.2,1-0.3,2-0.3,3c0,1.5,0,3,0,4.5
		c0,0.2-0.1,0.3-0.3,0.3c-1.8,0-3.5,0-5.3,0c-0.1,0-0.2,0-0.3,0c0,0.1,0,0.2,0,0.3c0,2.1,0,4.2,0,6.3C20.3,33.7,20.4,33.8,20.6,33.8
		z"/>
</g>
<path class="st198" d="M58.7,49.9H59c0.1,0,0.2-0.1,0.2-0.2V14.2c0-0.1-0.1-0.2-0.2-0.2h-0.3c-0.1,0-0.2,0.1-0.2,0.2v35.4
	C58.5,49.8,58.6,49.9,58.7,49.9z"/>
</svg>
