<?xml version="1.0" encoding="utf-8"?>
<!-- Generator: Adobe Illustrator 21.0.0, SVG Export Plug-In . SVG Version: 6.00 Build 0)  -->
<svg version="1.1" id="Layer_1" xmlns="http://www.w3.org/2000/svg" xmlns:xlink="http://www.w3.org/1999/xlink" x="0px" y="0px"
	 viewBox="0 0 311.1 636.8" style="enable-background:new 0 0 311.1 636.8;" xml:space="preserve">
<style type="text/css">
	.st0{fill:#EDEDED;}
	.st1{fill:#685989;}
	.st2{fill:#864D7D;}
	.st3{fill:#BEDBC3;}
	.st4{fill:#9CC1C8;}
	.st5{opacity:0.5;fill:#9CC1C8;}
	.st6{fill:#D3DEE4;}
	.st7{fill:#007271;}
	.st8{fill:#369999;}
	.st9{fill:#4D2B2B;}
	.st10{fill:#3A1F1E;}
	.st11{fill:#E95B4E;}
	.st12{fill:#EE8268;}
	.st13{fill:#C83D36;}
	.st14{fill:#F6B99F;}
	.st15{fill:#EEE9DC;}
	.st16{fill:#F19775;}
	.st17{fill:#6B3E3F;}
	.st18{fill:#C7BDB7;}
	.st19{fill:#D1D5CA;}
	.st20{fill:#2B3668;}
	.st21{fill:#EE827D;}
	.st22{fill:#F87481;}
	.st23{fill:#FFFFFF;stroke:#FFFFFF;stroke-miterlimit:10;}
	.st24{fill:#FFFFFF;}
	.st25{opacity:0.3;clip-path:url(#SVGID_2_);}
	.st26{opacity:0.3;clip-path:url(#SVGID_4_);}
	.st27{opacity:0.3;clip-path:url(#SVGID_6_);}
	.st28{fill:#7087AF;}
	.st29{clip-path:url(#SVGID_8_);}
	.st30{fill:#B2555F;}
	.st31{fill:#47284F;}
	.st32{fill:#FFBF9B;}
	.st33{fill:#FFA687;}
	.st34{fill:#72426B;}
	.st35{fill:#FFC9AC;}
	.st36{fill:#C19884;}
	.st37{fill:#FFA68D;}
	.st38{fill:#13A6CE;}
	.st39{fill:#4E2447;}
	.st40{opacity:0.3;}
	.st41{fill:#1A2E35;}
	.st42{fill:#FFBF9D;}
	.st43{fill:#FF9A6C;}
	.st44{fill:#375A64;}
	.st45{fill:#E1E1E1;}
	.st46{opacity:0.2;}
	.st47{fill:#FF4F5B;}
	.st48{fill:#EBEBEB;}
	.st49{fill:#AA6550;}
	.st50{fill:#FAFAFA;}
</style>
<g>
	<defs>
		
			<rect id="SVGID_5_" x="-162.9" y="162.9" transform="matrix(-1.836970e-16 1 -1 -1.836970e-16 473.9443 162.8805)" width="636.8" height="311.1"/>
	</defs>
	<clipPath id="SVGID_2_">
		<use xlink:href="#SVGID_5_"  style="overflow:visible;"/>
	</clipPath>
	<g class="st25">
		<path class="st22" d="M146.1,680.1c-4.6,0-8.4-1.6-11.6-4.7c-3.1-3.1-4.7-7-4.7-11.6V17c0-4.6,1.6-8.4,4.7-11.6
			c3.1-3.1,7-4.7,11.6-4.7c4.6,0,8.6,1.6,12,4.7c3.4,3.1,5.1,7,5.1,11.6v646.7c0,4.6-1.7,8.4-5.1,11.6
			C154.7,678.5,150.7,680.1,146.1,680.1z"/>
		<path class="st3" d="M110.2,282.8c0,0-115.3-3.2-108.8-106.9C1.4,175.9,90.2,174.1,110.2,282.8z"/>
		<path class="st3" d="M181.2,109.2c0,0,28.6-111.7,128.3-82.5C309.5,26.7,291.6,113.7,181.2,109.2z"/>
		<path class="st3" d="M27.7,62.8c0,0,73.6-3.4,74.3,63C102,125.8,45.5,131.1,27.7,62.8z"/>
	</g>
</g>
</svg>
