<?xml version="1.0" encoding="utf-8"?>
<!-- Generator: Adobe Illustrator 21.0.0, SVG Export Plug-In . SVG Version: 6.00 Build 0)  -->
<svg version="1.1" id="Layer_1" xmlns="http://www.w3.org/2000/svg" xmlns:xlink="http://www.w3.org/1999/xlink" x="0px" y="0px"
	 viewBox="0 0 1221.4 511.2" style="enable-background:new 0 0 1221.4 511.2;" xml:space="preserve">
<style type="text/css">
	.st0{fill:#FFFFFF;}
	.st1{fill-rule:evenodd;clip-rule:evenodd;fill:#685989;}
	.st2{fill:#F87481;}
	.st3{fill:#864D7D;}
	.st4{fill:#685989;}
	.st5{fill:#7087AF;}
	.st6{fill:#9CC1C8;}
	.st7{fill:#BEDBC3;}
	.st8{fill:none;stroke:#685989;stroke-width:3;stroke-miterlimit:10;}
	.st9{fill:none;stroke:#9CC1C8;stroke-width:3;stroke-miterlimit:10;}
	.st10{fill:none;stroke:#864D7D;stroke-width:3;stroke-miterlimit:10;}
	.st11{fill-rule:evenodd;clip-rule:evenodd;fill:#F87481;}
	.st12{opacity:0.3;clip-path:url(#SVGID_5_);}
	.st13{opacity:0.3;clip-path:url(#SVGID_7_);}
	.st14{opacity:0.3;clip-path:url(#SVGID_9_);}
	.st15{opacity:0.3;clip-path:url(#SVGID_11_);}
	.st16{opacity:0.3;clip-path:url(#SVGID_13_);}
	.st17{clip-path:url(#SVGID_15_);}
	.st18{clip-path:url(#SVGID_19_);}
	.st19{fill:#F6F6F6;}
	.st20{fill:#EDEDED;}
	.st21{opacity:0.5;fill:#9CC1C8;}
	.st22{fill:#D3DEE4;}
	.st23{fill:#007271;}
	.st24{fill:#369999;}
	.st25{fill:#4D2B2B;}
	.st26{fill:#3A1F1E;}
	.st27{fill:#E95B4E;}
	.st28{fill:#EE8268;}
	.st29{fill:#C83D36;}
	.st30{fill:#F6B99F;}
	.st31{fill:#EEE9DC;}
	.st32{fill:#EDC9C7;stroke:#221F20;stroke-linecap:round;stroke-linejoin:round;stroke-miterlimit:10;}
	.st33{fill:#F19775;}
	.st34{fill:#6B3E3F;}
	.st35{fill:#C7BDB7;}
	.st36{fill:#D1D5CA;}
	.st37{fill:#2B3668;}
	.st38{fill:#EE827D;}
	.st39{fill:#FFFFFF;stroke:#FFFFFF;stroke-miterlimit:10;}
	.st40{fill:#606060;}
	.st41{fill:none;stroke:#BEDBC3;stroke-width:4;stroke-linecap:round;stroke-linejoin:round;stroke-miterlimit:10;}
	.st42{fill:none;stroke:#864D7D;stroke-width:3.7;stroke-miterlimit:10;}
	.st43{fill:#864D7D;stroke:#864D7D;stroke-width:0.9403;stroke-miterlimit:10;}
	.st44{opacity:0.5;}
	.st45{fill:#FEFFFF;}
	.st46{fill:#FEFEFF;}
	.st47{fill:#FDFEFE;}
	.st48{fill:#FDFDFE;}
	.st49{fill:#FCFDFE;}
	.st50{fill:#FBFCFE;}
	.st51{fill:#FBFCFD;}
	.st52{fill:#FAFCFD;}
	.st53{fill:#FAFBFD;}
	.st54{fill:#F9FBFD;}
	.st55{fill:#F8FAFC;}
	.st56{fill:#F7FAFC;}
	.st57{fill:#F7F9FC;}
	.st58{fill:#F6F9FC;}
	.st59{fill:#F6F9FB;}
	.st60{fill:#F5F8FB;}
	.st61{fill:#F4F7FB;}
	.st62{fill:#F3F7FB;}
	.st63{fill:#F3F7FA;}
	.st64{fill:#F2F6FA;}
	.st65{fill:#F1F5FA;}
	.st66{fill:#F0F5F9;}
	.st67{fill:#F0F4F9;}
	.st68{fill:#EFF4F9;}
	.st69{fill:#EEF3F8;}
	.st70{fill:#EDF3F8;}
	.st71{fill:#EDF2F8;}
	.st72{fill:#ECF2F8;}
	.st73{fill:#EBF1F7;}
	.st74{fill:#EAF1F7;}
	.st75{fill:#EAF0F7;}
	.st76{fill:#E9F0F7;}
	.st77{fill:#E8EFF6;}
	.st78{fill:#E7EFF6;}
	.st79{fill:#E7EEF6;}
	.st80{fill:#E6EEF5;}
	.st81{fill:#E5EDF5;}
	.st82{fill:#E4ECF5;}
	.st83{fill:#E4ECF4;}
	.st84{fill:#E3ECF4;}
	.st85{fill:#E2EBF4;}
	.st86{fill:#E1EAF4;}
	.st87{fill:#E1EAF3;}
	.st88{fill:#E0EAF3;}
	.st89{fill:#E0E9F3;}
	.st90{fill:#DFE9F3;}
	.st91{fill:#DEE8F2;}
	.st92{fill:#DDE8F2;}
	.st93{fill:#DDE7F2;}
	.st94{fill:#DCE7F2;}
	.st95{fill:#DCE7F1;}
	.st96{fill:#DBE6F1;}
	.st97{fill:#DAE6F1;}
	.st98{fill:#DAE5F1;}
	.st99{fill:#D9E5F0;}
	.st100{fill:#D9E4F0;}
	.st101{fill:#D8E4F0;}
	.st102{fill:#D6E2EE;}
	.st103{fill:#D4E0EC;}
	.st104{fill:#D2DEEA;}
	.st105{fill:#D0DCE8;}
	.st106{fill:#CEDAE6;}
	.st107{fill:#CDD9E5;}
	.st108{fill:#CBD7E3;}
	.st109{fill:#C9D5E1;}
	.st110{fill:#C7D3DF;}
	.st111{fill:#C5D1DD;}
	.st112{fill:#C3CFDB;}
	.st113{fill:#C1CDD9;}
	.st114{fill:#BFCBD7;}
	.st115{fill:#BDC9D5;}
	.st116{fill:#BBC7D3;}
	.st117{fill:#B9C6D2;}
	.st118{fill:#B7C4D0;}
	.st119{fill:#B6C2CE;}
	.st120{fill:#B4C0CC;}
	.st121{fill:#B2BECA;}
	.st122{fill:#B0BCC8;}
	.st123{fill:#AEBAC6;}
	.st124{fill:#ACB8C4;}
	.st125{fill:#AAB6C2;}
	.st126{fill:#A8B4C0;}
	.st127{fill:#A6B3BF;}
	.st128{fill:#A4B1BD;}
	.st129{fill:#A2AFBB;}
	.st130{fill:#A0ADB9;}
	.st131{fill:#9FABB7;}
	.st132{fill:#9DA9B5;}
	.st133{fill:#9BA7B3;}
	.st134{fill:#99A5B1;}
	.st135{fill:#97A3AF;}
	.st136{fill:#95A1AD;}
	.st137{fill:#93A0AC;}
	.st138{fill:#919EAA;}
	.st139{fill:#8F9CA8;}
	.st140{fill:#8D9AA6;}
	.st141{fill:#8B98A4;}
	.st142{fill:#8996A2;}
	.st143{fill:#8894A0;}
	.st144{fill:#86929E;}
	.st145{fill:#84909C;}
	.st146{fill:#828E9A;}
	.st147{fill:#808D99;}
	.st148{fill:#7E8B97;}
	.st149{fill:#7C8995;}
	.st150{fill:#7A8793;}
	.st151{fill:#788591;}
	.st152{fill:#76838F;}
	.st153{fill:#74818D;}
	.st154{fill:#727F8B;}
	.st155{fill:#717D89;}
	.st156{fill:#6F7B87;}
	.st157{fill:#6D7A86;}
	.st158{fill:#6B7884;}
	.st159{fill:#697682;}
	.st160{fill:#677480;}
	.st161{fill:#65727E;}
	.st162{fill:#63707C;}
	.st163{fill:#616E7A;}
	.st164{fill:#5F6C78;}
	.st165{fill:#5D6A76;}
	.st166{fill:#5B6874;}
	.st167{fill:#5A6773;}
	.st168{fill:#586571;}
	.st169{fill:#56636F;}
	.st170{fill:#54616D;}
	.st171{fill:#525F6B;}
	.st172{fill:#505D69;}
	.st173{fill:#864D7D;stroke:#864D7D;stroke-miterlimit:10;}
	.st174{fill:none;stroke:#FFFFFF;stroke-width:2;stroke-miterlimit:10;}
	.st175{clip-path:url(#SVGID_29_);}
	.st176{clip-path:url(#SVGID_33_);}
	.st177{fill:#FFFFFF;stroke:#242E77;stroke-width:0.1637;stroke-linecap:round;stroke-linejoin:round;stroke-miterlimit:10;}
	.st178{opacity:0.3;clip-path:url(#SVGID_37_);}
	.st179{opacity:0.3;clip-path:url(#SVGID_39_);}
	.st180{opacity:0.3;clip-path:url(#SVGID_41_);}
	.st181{opacity:0.3;clip-path:url(#SVGID_43_);}
	.st182{opacity:0.3;clip-path:url(#SVGID_45_);}
	.st183{fill:none;stroke:#7087AF;stroke-miterlimit:10;}
	.st184{clip-path:url(#SVGID_47_);}
	.st185{clip-path:url(#SVGID_50_);}
	.st186{fill:none;stroke:#FFFFFF;stroke-miterlimit:10;}
	.st187{fill-rule:evenodd;clip-rule:evenodd;fill:#FFFFFF;}
	.st188{fill:#B2555F;}
	.st189{fill:#47284F;}
	.st190{fill:#FFBF9B;}
	.st191{fill:#FFA687;}
	.st192{fill:none;stroke:#47284F;stroke-width:1.1054;stroke-linecap:round;stroke-miterlimit:10;}
	.st193{fill:#72426B;}
	.st194{fill:#FFC9AC;}
	.st195{fill:#C19884;}
	.st196{fill:#FFA68D;}
	.st197{fill:#13A6CE;}
	.st198{fill:#4E2447;}
	.st199{opacity:0.3;}
	.st200{fill:#1A2E35;}
	.st201{fill:#FFBF9D;}
	.st202{fill:#FF9A6C;}
	.st203{fill:#375A64;}
	.st204{fill:#E1E1E1;}
	.st205{opacity:0.2;}
	.st206{fill:#FF4F5B;}
	.st207{fill:#EBEBEB;}
	.st208{fill:#AA6550;}
	.st209{fill:none;stroke:#FFA6AD;stroke-miterlimit:10;}
	.st210{fill:none;stroke:#FFFFFF;stroke-width:5.000000e-02;stroke-miterlimit:10;}
	.st211{fill:#FAFAFA;}
	.st212{fill:#FFFFFF;stroke:#FFFFFF;stroke-width:3;stroke-miterlimit:10;}
	.st213{clip-path:url(#SVGID_70_);}
	.st214{clip-path:url(#SVGID_74_);}
</style>
<g>
	<path class="st19" d="M1150.7,463.6H248.5V33.4h972.9v359.4C1221.4,431.9,1189.7,463.6,1150.7,463.6z"/>
	<rect x="311.2" y="33.4" class="st3" width="910.2" height="86.4"/>
	<rect x="451.7" y="119.8" class="st6" width="769.7" height="9.3"/>
	<g>
		<g>
			
				<image style="overflow:visible;opacity:0.15;" width="2131" height="2130" xlink:href="76BA15C57110C1A3.png"  transform="matrix(0.24 0 0 0.24 0 0)">
			</image>
			<g>
				<circle class="st3" cx="248.5" cy="248.5" r="240.4"/>
			</g>
		</g>
		<g>
			<defs>
				<circle id="SVGID_52_" cx="248.5" cy="248.5" r="215.1"/>
			</defs>
			<use xlink:href="#SVGID_52_"  style="overflow:visible;fill:#FFFFFF;"/>
			<clipPath id="SVGID_5_">
				<use xlink:href="#SVGID_52_"  style="overflow:visible;"/>
			</clipPath>
		</g>
	</g>
	<g>
		<g>
			<g>
				<g>
					<g>
						<path class="st6" d="M302.4,246.2c0,0,27.9,6.9,32.5,64.3c2.7,33.6,6,67.8,6,67.8l61.3,14.5l10.8,33.4l-80.3,15.8
							c-22.2,0-46.6-19.2-46.1-41.4l-0.9-77.2L302.4,246.2z"/>
					</g>
				</g>
			</g>
			<g>
				<g>
					<g>
						<path class="st6" d="M155.2,246.7L142.8,333c-1.8,12.5-0.9,25.2,2.6,37.3l15.3,52.6c0,0-20.8,26.7-3.6,37
							c3.4,2,95.5,6.2,95.5,6.2l44.7-3.1l6-127.8l-0.9-89c0,0-31-11.3-43.1-12.6c-7.6-0.8-40.6-1.9-67.7,0.5L155.2,246.7z"/>
					</g>
				</g>
			</g>
			<g>
				<path class="st0" d="M298,334.4c-1-0.4-2.2-0.2-3.3-0.1c-4.3,0.1-8.6-2.7-10.1-6.8c-0.7,2.1-1.4,4.3-2.9,6
					c-1.5,1.7-3.9,2.7-6,1.9c-2.2-0.8-3.3-3.3-4.9-5.1c-4-4.2-12.3-2.3-14.2,3.2c-0.8,2.5-1.4,6.1-4,6.1c-3-0.1-3-4.9-5.3-6.8
					c-2.4-1.9-5.9,0.1-8,2.4c-2,2.3-4.2,5.2-7.3,5.1c-2.9-0.1-5-2.8-5.8-5.5c-0.8-2.7-0.9-5.7-1.8-8.4c-1-2.7-3.5-5.2-6.3-4.8
					c-3.5,0.5-4.8,4.8-5.7,8.2c-0.9,3.4-3.5,7.5-6.9,6.6c-4.9-1.3-2.9-10-7.3-12.6c-3.1-1.9-7.1,0.8-8.7,4c-1.6,3.2-2,7-4,9.9
					c-2,3-6.8,4.6-9,1.9c-0.8-1-1.1-2.2-1.9-3.1c-1.6-1.7-4.4-1.3-6.4-0.2c-2,1.1-3.7,2.8-5.8,3.7c-2.1,0.9-6.8-0.1-7.8-2.1
					l-6.4,11.1c-1,2.3-3.8,5.2-2.2,6.2c1.6,0.9,3.9,0,4.4-1.8c2.5,1.3,5.8,1.3,7.8-0.7c1.5-1.4,2.9-3.8,4.9-3.3c1,0.3,1.7,1.3,2.4,2
					c2.5,2.8,7.2,3.2,10.2,0.9c1.6-1.2,2.7-3,4.1-4.5c1.4-1.4,3.6-2.5,5.4-1.7c2.2,1,2.7,3.9,2.5,6.3s-0.7,5.1,0.6,7.1
					c1.7,2.6,5.8,2.7,8.5,1.1c2.7-1.5,4.7-4.2,6.9-6.4c2.2-2.2,5.3-4.1,8.4-3.5c3.6,0.7,6.3,4.7,10,4.3c2.5-0.3,4.5-2.7,7-2.8
					c2.8-0.2,5,2.5,7.7,3.3c6.1,1.9,11.6-5.7,18-5.1c5.8,0.5,10.5,7.8,16,5.8c4.8-1.8,4.9-9.1,9.1-12c2.6-1.8,6-1.5,9.1-1.1
					c3.1,0.4,6.5,0.7,9.1-1.1C300.6,340.2,300.9,335.5,298,334.4z"/>
			</g>
			<g>
				<path class="st0" d="M302.7,329.4c-0.6-1.4-0.2-3.2,1-4.1c1.2-0.9,3.1-0.9,4.3,0c1.4,1.1,1.7,3,1.8,4.7c0.1,1.7,0,3.6,0.8,5.1
					c0.8,1.5,3,2.5,4.4,1.4c1.1-0.9,1.1-2.4,1.3-3.8c0.2-1.4,0.8-3,2.2-3.1c1.4-0.1,2.2,1.5,2.5,2.9c0.3,1.4,0.3,2.9,1.4,3.8
					c1.5-0.5,1.8-2.4,2.2-4c0.4-1.6,1.8-3.4,3.2-2.6c0.7,0.4,0.9,1.2,1.3,1.9c0.4,0.7,1.1,1.4,1.8,1.1c1.2-0.5,0.6-2.8,1.8-3.3
					c0.8-0.3,1.6,0.6,2,1.3c0.8,1.4,1.7,2.8,1.7,4.4c0,1.6-1.1,3.4-2.7,3.4c-0.9,0-1.8-0.5-2.7-0.7c-2-0.4-3.9,0.9-5,2.5
					c-1.1,1.7-1.5,3.7-1.9,5.6c-2.4-2.4-6.9-2.1-8.9,0.6c-1.8,2.3-2.2,6.1-5.1,6.7c-1.9,0.4-3.7-1.2-4.3-3c-0.6-1.8-0.4-3.8-0.1-5.7
					c-1.3,1.1-2.5,2.1-3.8,3.2c-0.3-1.7-0.6-3.4-0.9-5.1"/>
			</g>
			<g class="st199">
				<path d="M150.4,449.4l49.2-15.2l31.3-2.9c0,0,9,15.6,16.9,14.9c7.9-0.7,13.4-4.1,13.4-4.1s3,16.4,11,15.2
					c8-1.2,3.9-50.2,3.9-50.2l-83-16.7l-49.2,12.8L150.4,449.4z"/>
			</g>
			<g>
				<g>
					<path class="st6" d="M155.2,246.7c0,0-25.6,9-35.2,23.4c-12.7,19.1-48.6,74-65.5,117c-5.3,13.4-0.9,34.1,6.9,46.3l0,0
						c10.4,16.3,30.3,23.8,48.9,18.5l89.8-25.3l8.3-50.5l-78.2,3.3l21.9-35.9L155.2,246.7z"/>
				</g>
			</g>
			<g>
				<path class="st0" d="M85.3,326.5c1.8-2.4,6.2-2.3,7.8,0.3c1.4,2.2,1.4,5.8,3.9,6.3c1.9,0.4,3.3-1.4,4.5-2.9
					c1.2-1.4,3.4-2.7,4.8-1.4c1.3,1.2,0.6,3.8,2.1,4.7c1.4,0.9,3-0.5,3.9-1.8c0.9-1.3,2-2.9,3.6-2.8c3.3,0.3,2.6,7,5.9,7.1
					c1.7,0,2.7-1.9,4.2-2.5c2-0.8,4.2,0.7,5.8,2.1c1.1,0.9,2.2,1.9,2.8,3.2c0.6,1.3,0.6,3-0.3,4c-1.4,1.6-4,0.9-5.9-0.1
					c-1.9-1-3.9-2.4-5.9-1.9c-3.5,0.9-4.8,6.7-8.4,6.3c-3.3-0.4-4.1-5.7-7.4-6c-3.4-0.4-5.9,5.1-9,3.8c-1.5-0.6-2.1-2.4-3.4-3.2
					c-1.3-0.8-3-0.4-4.3,0.2c-1.4,0.7-2.6,1.6-4,2c-1.4,0.4-3.3,0.3-4.1-1c-0.9-1.2,0.2-3.4,1.7-3.1c-1.2-0.2-2.4-0.4-3.6-0.6
					c0-0.9-0.1-1.9-0.1-2.8"/>
			</g>
			<g>
				<g>
					<g>
						<g>
							<path class="st200" d="M302,296.7c0.1,0,0.2,1.4,0.3,4c0.1,2.6,0.2,6.3,0.2,11c0.1,9.3-0.1,22.1-0.8,36.3
								c-0.7,14.2-1.7,26.9-2.6,36.2c-0.5,4.6-0.9,8.4-1.2,10.9c0.8,36.2-0.6,4-0.6,4c-0.1,0,0-1.4,0.2-4c0.2-2.8,0.5-6.5,0.8-11
								c0.7-9.2,1.6-22,2.2-36.2c0.6-14.1,1-26.9,1.1-36.2c0.1-4.5,0.1-8.2,0.2-11C301.9,298.1,301.9,296.7,302,296.7z"/>
						</g>
					</g>
				</g>
				<g>
					<g>
						<g>
							<path class="st200" d="M307.1,249c0.3,0.2-3.2,4.9-5.7,11.5c-2.5,6.6-3,12.5-3.3,12.4c-0.3,0-0.4-6,2.2-12.9
								C302.8,253.2,306.9,248.8,307.1,249z"/>
						</g>
					</g>
				</g>
				<g>
					<g>
						<path class="st200" d="M164.7,293.6c-0.2,0-0.4-2.3-1.2-6c-0.9-3.6-2.5-8.5-5.4-13.4c-2.9-4.9-6.4-8.7-9.2-11.2
							c-2.8-2.5-4.7-3.8-4.6-3.9c0-0.1,0.6,0.2,1.5,0.7c0.9,0.5,2.2,1.4,3.7,2.6c3,2.4,6.7,6.2,9.6,11.2c3,5,4.6,10.1,5.3,13.8
							c0.3,1.9,0.5,3.4,0.5,4.5C164.8,293,164.8,293.6,164.7,293.6z"/>
					</g>
				</g>
				<g>
					<g>
						<path class="st200" d="M129.2,379.8c0.1,0.3-6.8,1.8-14.3,5.9c-7.5,4.1-12.5,9.1-12.7,8.8c-0.1-0.1,1-1.5,3.1-3.4
							c2.1-1.9,5.2-4.3,9.1-6.4c3.8-2.1,7.5-3.4,10.3-4.2C127.5,379.8,129.2,379.7,129.2,379.8z"/>
					</g>
				</g>
				<g>
					<g>
						<path class="st200" d="M166.5,313.4c0.1,0-0.3,1-1.1,2.7c-0.8,1.7-2,4.2-3.5,7.2c-3,6.1-7.3,14.3-12.4,23.3
							c-5.1,9-9.9,17-13.6,22.7c-1.8,2.9-3.3,5.1-4.4,6.7c-1.1,1.6-1.7,2.4-1.7,2.4c-0.1,0,0.4-1,1.4-2.6c1.1-1.8,2.4-4.1,4.1-6.9
							c3.5-5.8,8.2-13.8,13.3-22.8c5.1-9,9.5-17.2,12.7-23.1c1.5-2.8,2.8-5.2,3.8-7.1C165.9,314.3,166.4,313.4,166.5,313.4z"/>
					</g>
				</g>
				<g>
					<g>
						<path class="st200" d="M102.2,453.4c0,0,0.2-0.1,0.5-0.2c0.4-0.1,0.8-0.3,1.4-0.4c1.3-0.4,3.2-0.9,5.6-1.6
							c4.9-1.4,11.9-3.4,20.6-5.8c17.6-4.9,42-11.6,69.6-19.3l-0.4,0.4c0.8-4.8,1.6-9.9,2.5-15c2.1-12.4,4-24.4,5.9-35.4l0.5,0.6
							c-23.5-0.7-43.6,1-57.9,2.1c-7.1,0.6-12.7,1.1-16.7,1.4c-1.9,0.1-3.4,0.3-4.5,0.3c-0.5,0-0.8,0-1.2,0.1c-0.3,0-0.4,0-0.4,0
							c0,0,0.1,0,0.4-0.1c0.3,0,0.7-0.1,1.1-0.2c1.1-0.1,2.6-0.3,4.4-0.5c3.9-0.4,9.5-1,16.7-1.7c14.3-1.3,34.4-3.1,58-2.5l0.6,0
							l-0.1,0.6c-1.8,11-3.8,23-5.8,35.4c-0.8,5.1-1.7,10.2-2.5,15l-0.1,0.3l-0.3,0.1c-27.6,7.5-52.1,14.1-69.7,18.9
							c-8.7,2.3-15.8,4.2-20.7,5.5c-2.4,0.6-4.2,1.1-5.6,1.4c-0.6,0.1-1.1,0.3-1.5,0.3C102.4,453.4,102.2,453.4,102.2,453.4z"/>
					</g>
				</g>
			</g>
		</g>
		<g>
			<g>
				<g>
					<g>
						<path class="st201" d="M402.7,395.3c0,0,21.8-16.2,25.6-16.9c3.8-0.7,32.7,3,34.4,4.7c1.7,1.7,28.6,22,23.4,23.7
							c-5.2,1.7-23.8-12.7-23.8-12.7l-3.5,0c0,0,16.3,12,18.9,16.1c2.4,3.8-0.9,7.4-4,5.3c-3.1-2-17-13-18.2-12.8
							c-1.2,0.2,14.6,12.8,15.9,14.9c1.8,2.8-0.3,7.5-3.4,5.6c-1.8-1.1-16.3-14-16.3-14s10.6,11.9,11.2,13.7c1,2.9-2.1,5-4.6,2.9
							c-1.7-1.5-8.8-10.7-11.1-12.7c0,0-2.8-0.6-7.6,3.2c-4.8,3.8-27.4,8.1-27.4,8.1L402.7,395.3z"/>
					</g>
				</g>
			</g>
			<g>
				<g>
					<g>
						<g>
							<path class="st201" d="M409.3,399.1c0.9,2.6,4.1,3.7,6.8,3.5c2.8-0.2,5.4-1.3,8.1-1.7c8.2-1.1,16.3,4.3,24.4,2.8
								c1.1-0.2,2.5-0.8,2.5-2c0-1.1-1.1-1.8-2-2.2c-8.2-4-16.4-8-24.6-12"/>
						</g>
					</g>
				</g>
				<g>
					<g>
						<g>
							<g>
								<path class="st202" d="M424.5,387.7c0-0.1,1,0.3,2.8,1c1.8,0.7,4.3,1.9,7.4,3.3c3.2,1.5,6.8,3.2,10.8,5.1
									c1,0.5,2.1,1,3.1,1.5c1,0.5,2.4,0.8,3.2,2.6c0.3,0.9-0.1,2-0.8,2.5c-0.6,0.5-1.3,0.8-2,0.9c-1.3,0.2-2.7,0.4-4,0.3
									c-5.4-0.2-10.1-2.2-14.4-2.9c-2.2-0.4-4.2-0.5-6.1-0.3c-1.9,0.2-3.7,0.8-5.4,1.1c-3.4,0.9-6.5,0.2-8.1-1.1
									c-1.6-1.3-1.7-2.5-1.6-2.5c0.1-0.1,0.4,1,2,2c1.5,1,4.3,1.5,7.5,0.5c1.6-0.4,3.4-1,5.5-1.3c2.1-0.3,4.3-0.2,6.6,0.2
									c4.5,0.7,9.2,2.6,14.2,2.8c1.2,0.1,2.5-0.1,3.6-0.3c1.1-0.2,1.9-0.9,1.7-1.4c-0.2-0.6-1.3-1.2-2.4-1.7
									c-1.1-0.5-2.1-1-3.1-1.5c-3.9-2-7.5-3.8-10.7-5.4c-3-1.6-5.5-2.8-7.1-3.7C425.4,388.3,424.5,387.8,424.5,387.7z"/>
							</g>
						</g>
					</g>
				</g>
			</g>
			<g>
				<g>
					<g>
						<g>
							<path class="st202" d="M486,406.9c0,0.2-2.4,0-6.1-1.3c-1.8-0.6-4-1.6-6.2-2.9c-2.1-1.4-4.4-3-6.8-4.7
								c-1.8-1.3-3.5-2.5-5.1-3.6l0.3,0.1c-8.6-1.2-14.8-2.2-14.8-2.6c0-0.3,6.3,0.1,15,1.1l0.2,0l0.2,0.1c1.6,1.1,3.3,2.3,5.1,3.6
								c2.3,1.7,4.6,3.3,6.7,4.8c2.1,1.3,4.1,2.3,5.9,3.1C483.8,406.1,486.1,406.7,486,406.9z"/>
						</g>
					</g>
				</g>
			</g>
		</g>
		<g>
			<g>
				<g>
					<g>
						<path class="st201" d="M279.4,401.7c-7.7-2.3-4.2-10.8-18.3-15.5c-10.5-3.5-21.8-10-52.7-6.5l-7,42.7l29.8-7.9l8.6,19.2
							c1.8,3.9,6.4,5.7,10.3,3.8l15.1-7.2c0,0,4.3,20.8,5.5,21.6c3.6,2.3,7.4-1.3,6.8-4.1c-0.6-2.8-2.2-38.8-2.2-38.8
							s11.4,3.2,10.7-1.3C286,407.6,287.1,404.1,279.4,401.7z"/>
					</g>
				</g>
			</g>
			<g>
				<g>
					<g>
						<g>
							<g>
								<path class="st202" d="M247.3,439.3c-0.1-0.1,0.4-0.9,1-2.4c0.5-1.4,1-3.6,0.7-5.9c-0.2-2.3-1.1-4.4-1.9-5.7
									c-0.8-1.3-1.5-2-1.4-2.1c0.1-0.1,0.9,0.5,1.9,1.8c1,1.3,2,3.4,2.2,5.9c0.2,2.5-0.3,4.8-1,6.2
									C248.1,438.7,247.4,439.4,247.3,439.3z"/>
							</g>
						</g>
					</g>
				</g>
			</g>
			<g>
				<g>
					<g>
						<g>
							<g>
								<path class="st202" d="M256.7,434.2c-0.2-0.1,1-3.3,0.2-7.2c-0.7-4-3-6.5-2.8-6.7c0.1-0.1,0.7,0.5,1.5,1.6
									c0.8,1.1,1.7,2.9,2,4.9c0.4,2.1,0.2,4-0.1,5.3C257.3,433.5,256.8,434.2,256.7,434.2z"/>
							</g>
						</g>
					</g>
				</g>
			</g>
			<g>
				<g>
					<g>
						<g>
							<g>
								<path class="st202" d="M263.4,417.7c0.1-0.1,0.6,0.5,1.1,1.5c0.5,1,1,2.6,1,4.3c0.1,1.8-0.3,3.3-0.8,4.4
									c-0.4,1.1-0.9,1.6-1,1.6c-0.2-0.1,1-2.6,0.9-5.9C264.6,420.2,263.2,417.8,263.4,417.7z"/>
							</g>
						</g>
					</g>
				</g>
			</g>
		</g>
		<g>
			<g>
				<g>
					<path class="st203" d="M362,463.3l-153.6-3.8c-1.6,0-2.9-1.3-2.9-2.9l0,0c0-1.6,1.3-2.9,2.9-2.9l84.7-1.1l33.5-103.7
						c1.1-3.5,4.4-5.8,8.1-5.7l128.6,3.6c5.7,0.2,9.5,5.9,7.5,11.2l-40.4,107.2L362,463.3"/>
				</g>
			</g>
			<g>
				<g>
					<path class="st0" d="M395.5,401.2c-1.5-2.8-7.9-3.7-10.9-1.4c-1.9,1.2-3.4,3-4,5.1c-0.9,3.4,1.1,7.5,4.4,8.5
						c3.3,1.1,6.9-0.7,9-3.4C396.1,407.5,397.1,403.9,395.5,401.2z"/>
				</g>
			</g>
		</g>
		<g>
			<g>
				<path class="st200" d="M271.3,87.3c1.6-2.2,5.3-0.2,6.4,2.3c1.2,2.5,1.7,5.7,4.2,6.9c3.3,1.6,8.3-1.3,10.3,1.8
					c1.6,2.3-0.7,5.4-0.1,8.2c1.2,4.8,9.5,3.7,11.9,8c1.4,2.6-0.1,5.8-1.2,8.5c-1.1,2.7-1.6,6.5,1,8.1c2.5,1.5,6.3-0.2,8.3,1.8
					c2.8,2.7-1.4,7.3-0.5,11.1c0.6,2.8,3.7,4.1,6.5,4.8c2.8,0.6,5.9,1,7.7,3.2c4.1,4.8-1.9,12.2-0.2,18.3c1,3.7,4.8,6.8,3.9,10.5
					c-1.1,4.7-8.8,5.4-9.9,10.1c-0.9,4,3.6,8.6,1.1,11.9c-2.5,3.2-7.9,0.2-11.4,2.2c-4,2.3-3.3,9.8-7.8,10.9c-2,0.5-4.1-0.7-6.1-0.4
					c-5,0.7-6.3,9.3-11.3,9c-2.9-0.2-5.2-3.7-8.1-3c-2.8,0.7-3.2,4.7-5.6,6.2c-3.8,2.4-8.1-2.6-12.6-2.8c-2.8-0.1-5.5,1.7-8.2,1.2
					c-2.6-0.5-4.4-3-5-5.6c-0.6-2.6-0.1-5.3,0.2-8c1.6-14.5-0.9-29.5-7.3-42.7"/>
			</g>
			<g>
				<g>
					<g>
						<g>
							<g>
								<g>
									<g>
										<g>
											<g>
												<g>
													<g>
														<g>
															<g>
																<g>
																	<g>
																		<g>
																			<path class="st201" d="M257.1,243.9l-0.4-22.9c0,0,22.8-3.4,28-32.9c2.6-14.7,2.3-38.9,1.4-58.6
																				c-1-21.8-24.7-44.8-42.4-43.2L191,105l0,9.6l1.6,130.3c0.2,17.6,14.6,31.8,32.2,31.8l0,0
																				C242.9,276.8,257.4,262,257.1,243.9z"/>
																		</g>
																	</g>
																</g>
															</g>
														</g>
													</g>
												</g>
											</g>
											<g>
												<g>
													<g>
														<g>
															<g>
																<g>
																	<g>
																		<g>
																			<g>
																				<path class="st200" d="M276.9,150c0,2-1.6,3.7-3.7,3.8c-2.1,0.1-3.8-1.5-3.9-3.5c0-2,1.6-3.7,3.7-3.8
																					C275.2,146.4,276.9,148,276.9,150z"/>
																			</g>
																		</g>
																	</g>
																</g>
															</g>
														</g>
													</g>
												</g>
												<g>
													<g>
														<g>
															<g>
																<g>
																	<g>
																		<g>
																			<g>
																				<g>
																					<path class="st200" d="M280.6,141.9c-0.5,0.5-3.3-1.7-7.4-1.8c-4.1-0.1-7.1,1.9-7.6,1.4
																						c-0.2-0.2,0.3-1.1,1.6-2c1.3-0.9,3.5-1.8,6.1-1.8c2.5,0.1,4.7,1,5.9,2C280.4,140.8,280.8,141.7,280.6,141.9z"
																						/>
																				</g>
																			</g>
																		</g>
																	</g>
																</g>
															</g>
														</g>
													</g>
												</g>
											</g>
											<g>
												<g>
													<g>
														<g>
															<g>
																<g>
																	<g>
																		<g>
																			<g>
																				<path class="st200" d="M239.4,148.9c0,2-1.6,3.7-3.7,3.8c-2.1,0.1-3.8-1.5-3.9-3.5c0-2,1.6-3.7,3.7-3.8
																					C237.6,145.3,239.3,146.9,239.4,148.9z"/>
																			</g>
																		</g>
																	</g>
																</g>
															</g>
														</g>
													</g>
												</g>
												<g>
													<g>
														<g>
															<g>
																<g>
																	<g>
																		<g>
																			<g>
																				<g>
																					<path class="st200" d="M240.4,142c-0.5,0.5-3.3-1.7-7.4-1.8c-4.1-0.1-7.1,1.9-7.6,1.4c-0.2-0.2,0.3-1.1,1.6-2
																						c1.3-0.9,3.5-1.8,6.1-1.8c2.5,0.1,4.7,1,5.9,2C240.2,140.9,240.6,141.8,240.4,142z"/>
																				</g>
																			</g>
																		</g>
																	</g>
																</g>
															</g>
														</g>
													</g>
												</g>
											</g>
											<g>
												<g>
													<g>
														<g>
															<g>
																<g>
																	<g>
																		<g>
																			<g>
																				<path class="st200" d="M254.7,172.6c0-0.2,2.5-0.6,6.7-1.1c1-0.1,2-0.3,2.2-1c0.3-0.8-0.2-1.9-0.6-3.1
																					c-0.9-2.5-1.9-5.2-2.9-8c-4.1-11.4-7-20.8-6.6-20.9c0.5-0.2,4.1,8.9,8.2,20.3c1,2.8,1.9,5.5,2.8,8.1
																					c0.4,1.2,1,2.6,0.5,4.1c-0.3,0.8-1.1,1.3-1.7,1.5c-0.7,0.2-1.3,0.2-1.8,0.2
																					C257.3,172.8,254.7,172.8,254.7,172.6z"/>
																			</g>
																		</g>
																	</g>
																</g>
															</g>
														</g>
													</g>
												</g>
											</g>
											<g>
												<g>
													<g>
														<g>
															<g>
																<g>
																	<g>
																		<g>
																			<path class="st202" d="M256.7,221c0,0-20,0.9-39.5-11.3c0,0,9.9,20.7,39.6,18.5L256.7,221z"/>
																		</g>
																	</g>
																</g>
															</g>
														</g>
													</g>
												</g>
											</g>
											<g>
												<g>
													<g>
														<g>
															<g>
																<g>
																	<g>
																		<g>
																			<g>
																				<path class="st200" d="M245.1,186.6c0.6-0.4,2.8,3.5,7.6,4.4c4.9,0.9,8.7-1.9,9.1-1.4c0.2,0.2-0.5,1.3-2.2,2.3
																					c-1.7,1-4.5,1.9-7.4,1.3c-3-0.5-5.1-2.3-6.1-3.8C245,187.9,244.9,186.7,245.1,186.6z"/>
																			</g>
																		</g>
																	</g>
																</g>
															</g>
														</g>
													</g>
												</g>
											</g>
										</g>
									</g>
								</g>
								<g>
									<g>
										<g>
											<g>
												<g>
													<g>
														<g>
															<g>
																<path class="st200" d="M241.7,126c-0.4,1.1-4.5,0.5-9.3,1c-4.8,0.4-8.7,1.7-9.3,0.7c-0.3-0.5,0.4-1.5,2-2.6
																	c1.6-1,4.1-2,6.9-2.3c2.9-0.3,5.5,0.2,7.2,1C241,124.6,241.9,125.4,241.7,126z"/>
															</g>
														</g>
													</g>
												</g>
											</g>
										</g>
									</g>
								</g>
								<g>
									<g>
										<g>
											<g>
												<g>
													<g>
														<g>
															<g>
																<path class="st200" d="M279.3,130.1c-0.7,0.9-3.5-0.1-6.9-0.2c-3.4-0.2-6.3,0.5-6.9-0.5c-0.3-0.5,0.2-1.4,1.5-2.3
																	c1.3-0.9,3.3-1.5,5.7-1.4c2.3,0.1,4.3,1,5.5,2C279.3,128.7,279.6,129.6,279.3,130.1z"/>
															</g>
														</g>
													</g>
												</g>
											</g>
										</g>
									</g>
								</g>
							</g>
						</g>
					</g>
				</g>
				<g>
					<g>
						<g>
							<ellipse class="st200" cx="267.6" cy="91.9" rx="2.3" ry="0.6"/>
						</g>
					</g>
				</g>
			</g>
			<g>
				<path class="st200" d="M268,97.6c7.6-15.2-9.7-27.9-18-32c-8.3-4.1-18.7-4.4-26.6,0.3c-3.6,2.2-6.8,5.3-10.9,6.3
					c-9.5,2.4-19.6-7.3-28.4-3.1c-7.2,3.5-8.5,14.3-15.7,17.7c-3.5,1.6-7.6,1.1-11.4,1.5c-3.8,0.4-8.2,2.5-8.7,6.3
					c-0.6,4.3,3.9,8.8,1.7,12.4c-2.8,4.5-11,0.3-14.6,4.2c-3.3,3.6,0.6,11-3.5,13.8c-3,2.1-8-0.4-10.2,2.5c-2.3,3.1,2,6.9,2.5,10.8
					c0.5,4-3.3,7-6.4,9.4c-3.2,2.4-6.5,6.2-5,9.9c1.8,4.2,8.7,4.6,9.9,9c1.2,4.6-4.9,9.6-2.1,13.4c1.8,2.6,6.1,1.8,8.4,3.9
					c3.9,3.5-0.8,10.2,1.1,15.1c2.6,6.7,14.2,3.8,18.6,9.5c2.5,3.2,2.1,8.4,5.6,10.4c3.6,2,8-1.2,12.1-0.7c6.7,0.8,10.8,10.9,17.2,9
					c3.3-1,5.7-5.2,9.1-4.3c2.9,0.7,4,4.8,7,5.3c4,0.6,5.1-5.2,7.5-8.4c3.2-4.3,10.1-4.6,13-9c2.6-4,0.7-9.4-1.6-13.6
					c-2.3-4.2-5.1-8.8-4-13.5c1.3-5.3,7.4-10,5.3-15c-2.4-5.5-12.7-4.9-13.4-10.9c-0.7-5.6,8.8-8.8,7.7-14.4
					c-0.7-3.7-5.9-5.2-6.8-8.9c-1.1-4.3,4.1-7.9,4-12.4c0-2.8-2.2-5.1-3.7-7.5c-1.5-2.4-2.4-5.9-0.2-7.8c3.4-2.9,8.6,2.4,12.9,1.1
					c3-0.9,4.1-4.5,5.2-7.5c0,0,8-12.1,22.3-10.4C261.9,91.9,268,97.6,268,97.6z"/>
			</g>
			<g>
				<path class="st200" d="M268.2,92.1c2.9,2.9,1.5,8.6-2.3,10c-3.6,1.2-7.3-1-10.5-3.1c-3.2-2.1-7-4.2-10.5-2.7
					c-6.4,2.7-4.6,14.3-11,16.8c-2.6,1-5.6,0-8.4-0.6c-2.8-0.6-6.2-0.5-7.8,1.9c-2.1,3.2,0.7,8.3-2.1,10.9c-1.2,1.1-3,1.3-4,2.5
					c-1.7,1.9-0.4,5,1.5,6.8c1.9,1.8,4.3,3.1,5.2,5.5c1.5,3.8-1.7,7.8-5,10.2c-3.3,2.5-7.2,4.9-7.9,9c-1.1,6.5,6.9,12.7,4.2,18.7
					c-1.5,3.4-6.1,4.5-9.6,3.2c-3.5-1.3-6-4.4-7.8-7.6c-7.3-13.3-5.3-29.6-2.8-44.7c1.6-9.8,3.5-20,9.3-28.2
					c6-8.5,15.5-13.8,25.2-17.2c7.5-2.6,15.4-4.3,23.3-3.3c7.8,1,15.6,4.9,19.8,11.6"/>
			</g>
			<g>
				<g>
					<path class="st203" d="M183.1,226.5c0,0-0.1,0.1-0.5,0.3c-0.4,0.2-1,0.2-1.8-0.2c-0.7-0.4-1.4-1.1-1.8-2.2
						c-0.2-0.5-0.3-1.2-0.2-1.9c0.1-0.7,0.4-1.3,0.9-2c0.9-1.2,2.3-2.2,3.8-3.1c1.5-0.9,3.2-1.8,4.5-3.4c0.6-0.8,1.1-1.7,1.1-2.8
						c0-1-0.4-2-1.1-2.9c-0.7-0.9-1.6-1.7-2.6-2.5c-0.9-0.8-1.9-1.8-2.5-3.1c-0.6-1.3-0.5-3,0.4-4.2c0.8-1.2,2.1-2,3.4-2.8
						c1.2-0.7,2.6-1.4,3.7-2.2c1.2-0.8,2.2-1.9,2.5-3.2c0.3-1.4-0.3-2.8-1.4-3.8c-1-1.1-2.3-2.1-3.6-3.1c-1.3-1.1-2.6-2.2-3.4-3.9
						c-0.8-1.7-0.6-3.8,0.3-5.4c0.9-1.6,2.2-2.9,3.5-4.1c1.4-1.2,2.9-2.1,4.2-3.3c1.3-1.2,2.6-2.5,3.1-4.1c0.6-1.6,0.3-3.4-0.7-4.9
						c-0.9-1.5-2.2-2.9-3.5-4.3c-1.3-1.4-2.6-3-3.1-5.1c-0.2-1.1-0.1-2.2,0.2-3.2c0.4-1,1-1.9,1.8-2.6c1.5-1.4,3.4-2.3,5-3.3
						c1.7-1,3.3-2.1,4.1-3.7c0.8-1.6,0.5-3.5-0.5-5.1c-0.9-1.6-2.2-3-3.5-4.5c-1.2-1.5-2.3-3.2-2.7-5.2c-0.2-1-0.1-2.1,0.2-3.1
						c0.4-1,1.1-1.8,2-2.3c1.8-1.1,3.7-1.2,5.5-1.3c1.8-0.1,3.6-0.1,5.2-0.6c1.6-0.4,2.9-1.6,3.3-3.1c0.5-1.5,0.5-3.3,0.9-5
						c0.4-1.8,1.7-3.3,3.2-4.1c3.1-1.7,6.6-1.2,9.6-1.1c1.5,0,3,0,4.4-0.4c1.4-0.4,2.6-1.1,3.7-2c2.2-1.7,3.9-3.9,5.7-5.8
						c1.8-1.9,3.8-3.6,6-4.5c2.2-0.9,4.6-1.2,6.7-1c4.3,0.4,7.5,2.8,9.2,5.1c1.8,2.4,2.4,4.7,2.6,6.2c0.2,1.5,0.1,2.4,0.1,2.4
						c-0.1,0,0-0.8-0.3-2.3c-0.3-1.5-1-3.7-2.8-6c-1.7-2.2-4.8-4.5-8.9-4.8c-2-0.2-4.2,0.1-6.3,1c-2.1,0.9-4,2.5-5.7,4.4
						c-1.8,1.9-3.4,4.1-5.7,5.9c-1.1,0.9-2.5,1.7-4,2.1c-1.5,0.4-3.1,0.5-4.6,0.5c-3.1-0.1-6.3-0.4-9.1,1.1c-1.4,0.7-2.4,2-2.7,3.5
						c-0.4,1.5-0.3,3.3-0.9,5.1c-0.5,1.8-2.2,3.3-4,3.8c-1.8,0.6-3.6,0.6-5.4,0.7c-1.8,0.1-3.6,0.3-5,1.2c-0.7,0.5-1.3,1.1-1.5,1.9
						c-0.3,0.8-0.3,1.6-0.2,2.5c0.4,1.7,1.3,3.3,2.5,4.8c1.2,1.4,2.6,2.9,3.6,4.7c0.5,0.9,0.9,1.9,1,2.9c0.1,1.1-0.1,2.2-0.5,3.2
						c-1,2-2.8,3.2-4.5,4.2c-1.7,1-3.5,1.9-4.9,3.2c-0.7,0.6-1.2,1.4-1.5,2.2c-0.3,0.8-0.3,1.7-0.2,2.6c0.4,1.7,1.6,3.2,2.9,4.6
						c1.3,1.4,2.6,2.8,3.6,4.5c1,1.7,1.4,3.9,0.7,5.8c-0.7,1.9-2.1,3.3-3.4,4.5c-1.4,1.2-2.9,2.2-4.3,3.3c-1.3,1.1-2.5,2.3-3.3,3.8
						c-0.8,1.4-0.9,3.1-0.3,4.5c0.6,1.4,1.8,2.5,3.1,3.6c1.2,1,2.6,2,3.7,3.2c1.1,1.2,2,3,1.6,4.6c-0.3,1.7-1.6,2.9-2.9,3.8
						c-1.3,0.9-2.6,1.5-3.8,2.2c-1.2,0.7-2.4,1.4-3.1,2.5c-0.7,1-0.8,2.3-0.3,3.4c1,2.2,3.4,3.5,4.9,5.4c0.8,1,1.3,2.2,1.3,3.4
						c0,1.2-0.6,2.3-1.3,3.1c-1.4,1.7-3.2,2.6-4.7,3.5c-1.5,0.9-2.9,1.8-3.7,2.9c-0.9,1.1-1.1,2.4-0.7,3.5c0.3,1,1,1.8,1.6,2.1
						c0.6,0.4,1.3,0.4,1.6,0.3C182.9,226.6,183,226.5,183.1,226.5z"/>
				</g>
			</g>
			<g>
				<g>
					<path class="st203" d="M133,200.6c0,0,0.2,0,0.6-0.2c0.4-0.1,0.9-0.6,1.1-1.5c0.2-0.8,0.2-1.9-0.3-3.1
						c-0.5-1.1-1.6-2.2-2.6-3.5c-0.5-0.7-0.9-1.5-1.1-2.5c-0.1-1,0.2-2.1,0.9-2.9c1.3-1.7,3.5-2.6,4.8-4.4c0.6-0.9,0.9-2.1,0.6-3.2
						c-0.3-1.1-1.1-2.2-1.9-3.2c-0.8-1-1.8-2.1-2.6-3.3c-0.8-1.2-1.5-2.6-1.4-4.3c0.1-1.6,1.2-3.1,2.5-4c1.4-0.9,3-1.4,4.6-1.8
						c1.6-0.3,3.3-0.4,4.9-0.8c1.6-0.4,3.2-1,4.3-2.2c1.1-1.2,1.5-2.9,1.3-4.6c-0.2-1.7-0.8-3.5-1.3-5.2c-0.5-1.8-1.1-3.7-1-5.7
						c0-1,0.5-2,1-2.9c0.6-0.9,1.4-1.6,2.4-2.1c3.8-1.9,8.2-1,11.5-3.3c0.8-0.5,1.4-1.2,1.8-2.1c0.3-0.9,0.4-1.8,0.2-2.8
						c-0.5-1.9-1.6-3.7-2.5-5.7c-0.4-1-0.9-2.1-0.9-3.3c-0.1-1.2,0.4-2.5,1.2-3.4c1.8-1.8,4.2-2,6.3-2.5c2.1-0.4,4.4-1.1,4.9-3.1
						c0.5-1.9-0.8-4.1-0.7-6.6c0.1-4.8,3.5-9.2,7.9-10.7c4.6-1.5,9.1,0.6,13-0.4c2-0.4,3.8-1.6,4.5-3.4c0.7-1.8,0.3-3.9,0.4-6.1
						c0.1-1.1,0.3-2.2,0.9-3.2c0.6-1,1.6-1.7,2.6-2c2.1-0.8,4.2-0.6,6.2-0.1c1.9,0.5,3.7,1.3,5.6,1.6c1.8,0.4,3.6,0.2,5.3-0.5
						c3.3-1.5,5.6-4.4,8.4-6.6c5.7-4.5,12.9-5.5,18.7-4.3c6,1.1,10.7,4.6,13.6,8.4c2.9,3.8,4.3,7.8,4.9,11.1
						c0.6,3.3,0.5,5.9,0.3,7.7c-0.2,1.7-0.5,2.6-0.5,2.6c-0.1,0,0.1-0.9,0.3-2.7c0.1-1.7,0.2-4.3-0.5-7.6c-0.7-3.2-2.1-7.1-5-10.8
						c-2.9-3.7-7.4-7-13.2-8c-5.7-1.1-12.7-0.2-18,4.2c-2.7,2.1-5,5.1-8.6,6.8c-1.8,0.8-3.9,1-5.8,0.6c-2-0.4-3.8-1.1-5.6-1.6
						c-1.8-0.5-3.8-0.6-5.6,0.1c-0.9,0.3-1.6,0.9-2.1,1.6c-0.5,0.8-0.7,1.7-0.8,2.7c-0.2,2,0.3,4.1-0.5,6.3
						c-0.8,2.3-3.1,3.6-5.2,4.1c-4.5,1-8.9-1-12.9,0.3c-4,1.3-7.1,5.4-7.2,9.7c-0.1,1.1,0.2,2.1,0.4,3.2c0.2,1.1,0.5,2.3,0.2,3.6
						c-0.3,1.3-1.3,2.3-2.4,2.8c-1.1,0.5-2.2,0.8-3.3,1c-2.1,0.5-4.4,0.8-5.8,2.2c-0.7,0.7-1,1.6-1,2.6c0,1,0.4,1.9,0.8,2.9
						c0.9,1.9,2.1,3.7,2.6,5.9c0.3,1.1,0.2,2.3-0.2,3.4c-0.4,1.1-1.3,2-2.2,2.6c-1.9,1.2-4,1.6-6,1.9c-2,0.3-4,0.5-5.6,1.4
						c-1.7,0.8-2.8,2.4-2.9,4.2c-0.2,1.8,0.4,3.6,0.9,5.4c0.5,1.8,1.1,3.5,1.4,5.4c0.2,1.9-0.2,3.9-1.5,5.3c-1.3,1.4-3.1,2-4.8,2.4
						c-1.7,0.4-3.4,0.5-4.9,0.8c-1.6,0.3-3.1,0.8-4.3,1.6c-1.2,0.8-2.1,2-2.2,3.4c-0.1,1.4,0.5,2.7,1.3,3.8c0.8,1.1,1.7,2.2,2.5,3.2
						c0.8,1.1,1.6,2.2,2,3.5c0.4,1.3,0,2.7-0.7,3.7c-1.5,2-3.7,2.9-4.9,4.4c-0.6,0.7-0.9,1.6-0.8,2.5c0.1,0.9,0.5,1.6,0.9,2.3
						c0.9,1.4,2,2.4,2.5,3.6c0.5,1.2,0.5,2.4,0.2,3.3c-0.3,0.9-0.9,1.4-1.3,1.5C133.2,200.7,133,200.6,133,200.6z"/>
				</g>
			</g>
			<g>
				<g>
					<path class="st203" d="M307.1,202.1c0-0.1,0.3,0.4,1.3,0.5c0.9,0.1,2.3-0.5,3.1-2c0.9-1.5,0.4-3.7,0.1-6.2
						c-0.1-1.3,0.1-2.7,0.5-4.1c0.4-1.4,1.1-2.8,1.4-4.3c0.3-1.5,0-3.1-1.2-4.2c-1.2-1.1-2.9-1.6-4.7-2.1c-1.7-0.6-3.8-0.9-5.4-2.6
						c-0.7-0.9-1.1-2.1-0.9-3.2c0.2-1.2,0.9-2.1,1.6-2.9c1.4-1.6,3.3-2.9,4-4.7c0.8-1.9-0.6-3.8-2.6-4.8c-1.9-1.1-4.2-1.3-6.5-2.3
						c-1.1-0.5-2.2-1.3-3-2.4c-0.7-1.1-1.1-2.4-1.1-3.7c0-2.6,1-4.9,2-7.1c1-2.1,2.1-4.2,2.3-6.3c0.3-2.2-0.5-4.2-2-5.7
						c-1.4-1.5-3.3-2.7-4.8-4.2c-1.6-1.4-2.8-3.4-3.3-5.4c-0.5-2-0.5-4-0.5-5.9c0.1-3.7,0.3-7.2-0.7-10.1c-1-2.9-2.8-5.2-4.6-6.9
						c-1.8-1.7-3.8-2.7-5.4-3.3c-3.3-1.2-5.3-0.9-5.3-1.1c0,0,0.5-0.1,1.4-0.1c0.9,0.1,2.3,0.2,4,0.8c1.7,0.6,3.7,1.5,5.6,3.2
						c1.9,1.7,3.8,4,4.9,7.1c1.2,3.1,0.9,6.7,0.9,10.4c0,1.8,0,3.8,0.5,5.6c0.5,1.9,1.5,3.5,3,4.9c1.5,1.4,3.3,2.6,4.9,4.2
						c1.6,1.6,2.7,4.1,2.3,6.5c-0.6,4.8-4.4,8.6-4.3,13.3c0,1.1,0.3,2.2,0.9,3.1c0.6,0.9,1.5,1.5,2.5,2c2,0.9,4.4,1.1,6.6,2.3
						c1,0.6,2,1.4,2.7,2.4c0.7,1.1,0.8,2.5,0.3,3.6c-0.9,2.3-2.9,3.5-4.2,5.1c-0.7,0.7-1.2,1.5-1.4,2.4c-0.2,0.9,0.1,1.8,0.6,2.4
						c1.2,1.3,3.2,1.8,4.9,2.4c1.8,0.6,3.6,1.1,5,2.4c0.7,0.6,1.2,1.5,1.4,2.3c0.2,0.9,0.2,1.8,0,2.6c-0.3,1.6-1,3-1.5,4.3
						c-0.5,1.3-0.7,2.6-0.6,3.8c0.2,2.4,0.7,4.8-0.4,6.5c-1,1.6-2.5,2.2-3.5,2C307.4,202.7,307.1,202.1,307.1,202.1z"/>
				</g>
			</g>
		</g>
		<g class="st199">
			<polygon points="162.4,321.6 162.4,377.4 147.9,378.6 142.6,358.5 			"/>
		</g>
	</g>
</g>
</svg>
