<?xml version="1.0" encoding="utf-8"?>
<!-- Generator: Adobe Illustrator 21.0.0, SVG Export Plug-In . SVG Version: 6.00 Build 0)  -->
<svg version="1.1" id="Layer_1" xmlns="http://www.w3.org/2000/svg" xmlns:xlink="http://www.w3.org/1999/xlink" x="0px" y="0px"
	 viewBox="0 0 217.7 297" style="enable-background:new 0 0 217.7 297;" xml:space="preserve">
<style type="text/css">
	.st0{fill:#FFFFFF;}
	.st1{fill-rule:evenodd;clip-rule:evenodd;fill:#685989;}
	.st2{fill:#F87481;}
	.st3{fill:#864D7D;}
	.st4{fill:#685989;}
	.st5{fill:#7087AF;}
	.st6{fill:#9CC1C8;}
	.st7{fill:#BEDBC3;}
	.st8{fill:none;stroke:#685989;stroke-width:3;stroke-miterlimit:10;}
	.st9{fill:none;stroke:#9CC1C8;stroke-width:3;stroke-miterlimit:10;}
	.st10{fill:none;stroke:#864D7D;stroke-width:3;stroke-miterlimit:10;}
	.st11{fill-rule:evenodd;clip-rule:evenodd;fill:#F87481;}
	.st12{opacity:0.3;clip-path:url(#SVGID_2_);}
	.st13{opacity:0.3;clip-path:url(#SVGID_4_);}
	.st14{opacity:0.3;clip-path:url(#SVGID_6_);}
	.st15{opacity:0.3;clip-path:url(#SVGID_8_);}
	.st16{opacity:0.3;clip-path:url(#SVGID_10_);}
	.st17{fill:#F6F6F6;}
	.st18{clip-path:url(#SVGID_12_);}
	.st19{clip-path:url(#SVGID_16_);}
	.st20{fill:#EDEDED;}
	.st21{opacity:0.5;fill:#9CC1C8;}
	.st22{fill:#D3DEE4;}
	.st23{fill:#007271;}
	.st24{fill:#369999;}
	.st25{fill:#4D2B2B;}
	.st26{fill:#3A1F1E;}
	.st27{fill:#E95B4E;}
	.st28{fill:#EE8268;}
	.st29{fill:#C83D36;}
	.st30{fill:#F6B99F;}
	.st31{fill:#EEE9DC;}
	.st32{fill:#EDC9C7;stroke:#221F20;stroke-linecap:round;stroke-linejoin:round;stroke-miterlimit:10;}
	.st33{fill:#F19775;}
	.st34{fill:#6B3E3F;}
	.st35{fill:#C7BDB7;}
	.st36{fill:#D1D5CA;}
	.st37{fill:#2B3668;}
	.st38{fill:#EE827D;}
	.st39{fill:#FFFFFF;stroke:#FFFFFF;stroke-miterlimit:10;}
	.st40{fill:#606060;}
	.st41{fill:none;stroke:#BEDBC3;stroke-width:4;stroke-linecap:round;stroke-linejoin:round;stroke-miterlimit:10;}
	.st42{fill:none;stroke:#864D7D;stroke-width:3.7;stroke-miterlimit:10;}
	.st43{fill:#864D7D;stroke:#864D7D;stroke-width:0.9403;stroke-miterlimit:10;}
	.st44{opacity:0.5;}
	.st45{fill:#FEFFFF;}
	.st46{fill:#FEFEFF;}
	.st47{fill:#FDFEFE;}
	.st48{fill:#FDFDFE;}
	.st49{fill:#FCFDFE;}
	.st50{fill:#FBFCFE;}
	.st51{fill:#FBFCFD;}
	.st52{fill:#FAFCFD;}
	.st53{fill:#FAFBFD;}
	.st54{fill:#F9FBFD;}
	.st55{fill:#F8FAFC;}
	.st56{fill:#F7FAFC;}
	.st57{fill:#F7F9FC;}
	.st58{fill:#F6F9FC;}
	.st59{fill:#F6F9FB;}
	.st60{fill:#F5F8FB;}
	.st61{fill:#F4F7FB;}
	.st62{fill:#F3F7FB;}
	.st63{fill:#F3F7FA;}
	.st64{fill:#F2F6FA;}
	.st65{fill:#F1F5FA;}
	.st66{fill:#F0F5F9;}
	.st67{fill:#F0F4F9;}
	.st68{fill:#EFF4F9;}
	.st69{fill:#EEF3F8;}
	.st70{fill:#EDF3F8;}
	.st71{fill:#EDF2F8;}
	.st72{fill:#ECF2F8;}
	.st73{fill:#EBF1F7;}
	.st74{fill:#EAF1F7;}
	.st75{fill:#EAF0F7;}
	.st76{fill:#E9F0F7;}
	.st77{fill:#E8EFF6;}
	.st78{fill:#E7EFF6;}
	.st79{fill:#E7EEF6;}
	.st80{fill:#E6EEF5;}
	.st81{fill:#E5EDF5;}
	.st82{fill:#E4ECF5;}
	.st83{fill:#E4ECF4;}
	.st84{fill:#E3ECF4;}
	.st85{fill:#E2EBF4;}
	.st86{fill:#E1EAF4;}
	.st87{fill:#E1EAF3;}
	.st88{fill:#E0EAF3;}
	.st89{fill:#E0E9F3;}
	.st90{fill:#DFE9F3;}
	.st91{fill:#DEE8F2;}
	.st92{fill:#DDE8F2;}
	.st93{fill:#DDE7F2;}
	.st94{fill:#DCE7F2;}
	.st95{fill:#DCE7F1;}
	.st96{fill:#DBE6F1;}
	.st97{fill:#DAE6F1;}
	.st98{fill:#DAE5F1;}
	.st99{fill:#D9E5F0;}
	.st100{fill:#D9E4F0;}
	.st101{fill:#D8E4F0;}
	.st102{fill:#D6E2EE;}
	.st103{fill:#D4E0EC;}
	.st104{fill:#D2DEEA;}
	.st105{fill:#D0DCE8;}
	.st106{fill:#CEDAE6;}
	.st107{fill:#CDD9E5;}
	.st108{fill:#CBD7E3;}
	.st109{fill:#C9D5E1;}
	.st110{fill:#C7D3DF;}
	.st111{fill:#C5D1DD;}
	.st112{fill:#C3CFDB;}
	.st113{fill:#C1CDD9;}
	.st114{fill:#BFCBD7;}
	.st115{fill:#BDC9D5;}
	.st116{fill:#BBC7D3;}
	.st117{fill:#B9C6D2;}
	.st118{fill:#B7C4D0;}
	.st119{fill:#B6C2CE;}
	.st120{fill:#B4C0CC;}
	.st121{fill:#B2BECA;}
	.st122{fill:#B0BCC8;}
	.st123{fill:#AEBAC6;}
	.st124{fill:#ACB8C4;}
	.st125{fill:#AAB6C2;}
	.st126{fill:#A8B4C0;}
	.st127{fill:#A6B3BF;}
	.st128{fill:#A4B1BD;}
	.st129{fill:#A2AFBB;}
	.st130{fill:#A0ADB9;}
	.st131{fill:#9FABB7;}
	.st132{fill:#9DA9B5;}
	.st133{fill:#9BA7B3;}
	.st134{fill:#99A5B1;}
	.st135{fill:#97A3AF;}
	.st136{fill:#95A1AD;}
	.st137{fill:#93A0AC;}
	.st138{fill:#919EAA;}
	.st139{fill:#8F9CA8;}
	.st140{fill:#8D9AA6;}
	.st141{fill:#8B98A4;}
	.st142{fill:#8996A2;}
	.st143{fill:#8894A0;}
	.st144{fill:#86929E;}
	.st145{fill:#84909C;}
	.st146{fill:#828E9A;}
	.st147{fill:#808D99;}
	.st148{fill:#7E8B97;}
	.st149{fill:#7C8995;}
	.st150{fill:#7A8793;}
	.st151{fill:#788591;}
	.st152{fill:#76838F;}
	.st153{fill:#74818D;}
	.st154{fill:#727F8B;}
	.st155{fill:#717D89;}
	.st156{fill:#6F7B87;}
	.st157{fill:#6D7A86;}
	.st158{fill:#6B7884;}
	.st159{fill:#697682;}
	.st160{fill:#677480;}
	.st161{fill:#65727E;}
	.st162{fill:#63707C;}
	.st163{fill:#616E7A;}
	.st164{fill:#5F6C78;}
	.st165{fill:#5D6A76;}
	.st166{fill:#5B6874;}
	.st167{fill:#5A6773;}
	.st168{fill:#586571;}
	.st169{fill:#56636F;}
	.st170{fill:#54616D;}
	.st171{fill:#525F6B;}
	.st172{fill:#505D69;}
	.st173{fill:#864D7D;stroke:#864D7D;stroke-miterlimit:10;}
	.st174{fill:none;stroke:#FFFFFF;stroke-width:2;stroke-miterlimit:10;}
	.st175{fill:#FFFFFF;stroke:#242E77;stroke-width:0.1637;stroke-linecap:round;stroke-linejoin:round;stroke-miterlimit:10;}
	.st176{opacity:0.3;clip-path:url(#SVGID_30_);}
	.st177{fill:none;stroke:#7087AF;stroke-miterlimit:10;}
	.st178{clip-path:url(#SVGID_32_);}
	.st179{fill:none;stroke:#FFFFFF;stroke-miterlimit:10;}
	.st180{fill-rule:evenodd;clip-rule:evenodd;fill:#FFFFFF;}
	.st181{fill:#B2555F;}
	.st182{fill:#47284F;}
	.st183{fill:#FFBF9B;}
	.st184{fill:#FFA687;}
	.st185{fill:none;stroke:#47284F;stroke-width:1.1054;stroke-linecap:round;stroke-miterlimit:10;}
	.st186{fill:#72426B;}
	.st187{fill:#FFC9AC;}
	.st188{fill:#C19884;}
	.st189{fill:#FFA68D;}
	.st190{fill:#13A6CE;}
	.st191{fill:#4E2447;}
	.st192{opacity:0.3;}
	.st193{fill:#1A2E35;}
	.st194{fill:#FFBF9D;}
	.st195{fill:#FF9A6C;}
	.st196{fill:#375A64;}
	.st197{fill:#E1E1E1;}
	.st198{opacity:0.2;}
	.st199{fill:#FF4F5B;}
	.st200{fill:#EBEBEB;}
	.st201{fill:#AA6550;}
	.st202{fill:none;stroke:#FFA6AD;stroke-miterlimit:10;}
	.st203{fill:none;stroke:#FFFFFF;stroke-width:5.000000e-02;stroke-miterlimit:10;}
	.st204{fill:#FAFAFA;}
	.st205{clip-path:url(#SVGID_34_);}
	.st206{fill:#FFFFFF;stroke:#FFFFFF;stroke-width:3;stroke-miterlimit:10;}
	.st207{fill:#F87481;stroke:#F87481;stroke-miterlimit:10;}
	.st208{clip-path:url(#SVGID_38_);}
</style>
<rect class="st3" width="217.7" height="297"/>
<g>
	<g>
		<path class="st0" d="M142,131c0,0-3.3,10.9-13,7.6C128.9,138.6,131.1,130.1,142,131z"/>
	</g>
	<g>
		<path class="st0" d="M152.4,159.3c0,0-3.3,10.9-13,7.6C139.3,166.8,141.5,158.3,152.4,159.3z"/>
	</g>
	<g>
		<path class="st0" d="M117.5,163.6c0,0,8.2,7.9,0.8,15C118.4,178.6,111.8,172.8,117.5,163.6z"/>
	</g>
	<g>
		<path class="st0" d="M123.9,182.2c0,0-4.3,10.6-13.6,6.4C110.3,188.6,113.2,180.3,123.9,182.2z"/>
	</g>
	<g>
		<path class="st0" d="M112.6,125.6c0,0,2.6,11.1-7.4,13.1C105.2,138.7,102.7,130.3,112.6,125.6z"/>
	</g>
	<g>
		<path class="st0" d="M113,148.9c0,0-1.3,11.3-11.4,9.8C101.6,158.7,102.1,150,113,148.9z"/>
	</g>
	<g>
		<path class="st0" d="M127.2,114.6c0,0-3.8,8.9-11.7,5.1C115.5,119.7,118.2,112.8,127.2,114.6z"/>
	</g>
	<g>
		<path class="st0" d="M113.9,122.3c0,0-9.6,0.7-10-8C103.9,114.3,111.3,113.4,113.9,122.3z"/>
	</g>
	<g>
		<path class="st0" d="M117.9,101.1c0,0-2.8,11.1-12.6,8.2C105.3,109.3,107,100.7,117.9,101.1z"/>
	</g>
	<g>
		<path class="st0" d="M151.2,112c0,0-9.1,6.9-15-1.5C136.2,110.5,142.9,104.9,151.2,112z"/>
	</g>
	<g>
		<path class="st0" d="M137.2,177c0,0-11.3-1.6-9.4-11.7C127.8,165.3,136.5,166.1,137.2,177z"/>
	</g>
	<g>
		<path class="st0" d="M150.3,168.6c0,0,1.3,11.3-8.9,12.2C141.4,180.8,139.9,172.2,150.3,168.6z"/>
	</g>
	<g>
		<path class="st0" d="M170.4,143c0,0-10.4-4.6-5.9-13.9C164.4,129.1,172.6,132.3,170.4,143z"/>
	</g>
	<g>
		<path class="st0" d="M148.1,132.1c0,0-9.4-6.4-3.4-14.7C144.7,117.4,152.2,122,148.1,132.1z"/>
	</g>
	<g>
		<path class="st0" d="M39.4,167.1c0,0-2-11.2,8.2-12.6C47.6,154.5,49.5,163,39.4,167.1z"/>
	</g>
	<g>
		<path class="st0" d="M54.2,180c0,0-8.3-4.7-3.7-12C50.5,168,57,171.3,54.2,180z"/>
	</g>
	<g>
		<path class="st0" d="M66.3,176.8c0,0-9.3,2.1-10.9-6.3C55.4,170.5,62.5,168.5,66.3,176.8z"/>
	</g>
	<g>
		<path class="st0" d="M150.3,164.6c0,0,6.4-9.4,14.7-3.4C165,161.2,160.5,168.7,150.3,164.6z"/>
	</g>
	<g>
		<path class="st0" d="M165.8,150.5c0,0-10.1-5.3-5-14.2C160.9,136.3,168.8,140,165.8,150.5z"/>
	</g>
	<g>
		<path class="st0" d="M80.3,119.7c0,0-5.6-9.9,3.5-14.7C83.8,105,88.5,112.4,80.3,119.7z"/>
	</g>
	<g>
		<path class="st0" d="M87.2,150.4c0,0,2.7-11.1,12.6-8.3C99.8,142.1,98.1,150.7,87.2,150.4z"/>
	</g>
	<g>
		<path class="st0" d="M69.4,173.3c0,0,0.6-11.4,10.9-10.5C80.3,162.9,80.2,171.7,69.4,173.3z"/>
	</g>
	<g>
		<path class="st0" d="M82,151.8c0,0-7.6-8.5,0.4-15.1C82.3,136.7,88.5,143,82,151.8z"/>
	</g>
	<g>
		<path class="st0" d="M59.9,131c0,0,11.2,2,9,12.1C68.9,143.1,60.2,141.9,59.9,131z"/>
	</g>
	<g>
		<path class="st0" d="M74.1,137.3c0,0-5.8-9.8,3.2-14.7C77.3,122.5,82.1,129.9,74.1,137.3z"/>
	</g>
	<g>
		<path class="st0" d="M54.9,138.5c0,0-5.1,10.2-14.1,5.3C40.8,143.8,44.3,135.8,54.9,138.5z"/>
	</g>
	<g>
		<path class="st0" d="M59.4,149c0,0-4,5-8.3,1.2C51.1,150.2,54,146.2,59.4,149z"/>
	</g>
	<g>
		<path class="st0" d="M44.5,147.4c0,0-1.5,6.2-7.1,4.6C37.5,151.9,38.4,147.1,44.5,147.4z"/>
	</g>
	<g>
		<path class="st0" d="M47.5,165.4c0,0,1.6,6.2-4,7.4C43.6,172.8,42.1,168.1,47.5,165.4z"/>
	</g>
	<g>
		<path class="st0" d="M64.2,145.7c0,0-5.2,3.7-8.4-1C55.8,144.7,59.6,141.6,64.2,145.7z"/>
	</g>
	<g>
		<path class="st0" d="M56,128.2c0,0-2-6.1,3.5-7.7C59.5,120.6,61.3,125.2,56,128.2z"/>
	</g>
	<g>
		<path class="st0" d="M62.5,127.2c0,0-2-6.1,3.5-7.7C66,119.5,67.8,124.1,62.5,127.2z"/>
	</g>
	<g>
		<path class="st0" d="M63.6,159.7c0,0-5.3-3.5-2-8.2C61.6,151.5,65.8,154,63.6,159.7z"/>
	</g>
	<g>
		<path class="st0" d="M68.4,156.9c0,0-5.3-3.5-2-8.2C66.4,148.7,70.6,151.2,68.4,156.9z"/>
	</g>
	<g>
		<path class="st0" d="M65.5,169.9c0,0-6.2-1.4-4.8-7C60.7,162.9,65.5,163.8,65.5,169.9z"/>
	</g>
	<g>
		<path class="st0" d="M103.5,175.2c0,0-6,2.2-7.8-3.3C95.7,172,100.2,170.1,103.5,175.2z"/>
	</g>
	<g>
		<path class="st0" d="M120.4,155.8c0,0-1,6.3-6.6,5.2C113.8,161.1,114.3,156.2,120.4,155.8z"/>
	</g>
	<g>
		<path class="st0" d="M106.7,168.3c0,0-5-3.9-1.4-8.3C105.4,159.9,109.4,162.8,106.7,168.3z"/>
	</g>
	<g>
		<path class="st0" d="M103.1,124.4c0,0-6,2.2-7.8-3.3C95.3,121.1,99.8,119.2,103.1,124.4z"/>
	</g>
	<g>
		<path class="st0" d="M105.7,119.9c0,0-6,2.2-7.8-3.3C97.9,116.6,102.4,114.7,105.7,119.9z"/>
	</g>
	<g>
		<path class="st0" d="M94,101.9c0,0-3.4,5.4-8.2,2.1C85.8,104,88.3,99.7,94,101.9z"/>
	</g>
	<g>
		<path class="st0" d="M97.6,110.1c0,0-3.2,5.5-8,2.5C89.5,112.6,91.7,108.3,97.6,110.1z"/>
	</g>
	<g>
		<path class="st0" d="M101,104c0,0-3.2,5.5-8,2.5C93,106.5,95.2,102.1,101,104z"/>
	</g>
	<g>
		<path class="st0" d="M92.6,115.7c0,0-3.2,5.5-8,2.5C84.6,118.3,86.8,113.9,92.6,115.7z"/>
	</g>
	<g>
		<path class="st0" d="M90,121.9c0,0-3.2,5.5-8,2.5C81.9,124.4,84.1,120,90,121.9z"/>
	</g>
	<g>
		<path class="st0" d="M68.2,126.8c0,0-0.4-6.4,5.4-6.5C73.6,120.4,74.1,125.2,68.2,126.8z"/>
	</g>
	<g>
		<path class="st0" d="M92.8,134.1c0,0-4.7-4.4-0.6-8.4C92.2,125.7,95.9,128.9,92.8,134.1z"/>
	</g>
	<g>
		<path class="st0" d="M102.4,139.8c0,0-6.2-1.3-4.9-6.9C97.6,132.9,102.4,133.7,102.4,139.8z"/>
	</g>
	<g>
		<path class="st0" d="M105.1,150.2c0,0-5.1-3.8-1.5-8.3C103.5,141.9,107.6,144.6,105.1,150.2z"/>
	</g>
	<g>
		<path class="st0" d="M121.1,150.7c0,0-3.2,5.5-8,2.5C113,153.3,115.3,148.9,121.1,150.7z"/>
	</g>
	<g>
		<path class="st0" d="M131.7,115.6c0,0,6.1-1.8,7.6,3.8C139.2,119.4,134.6,121,131.7,115.6z"/>
	</g>
	<g>
		<path class="st0" d="M119.9,103.9c0,0,5.7-2.9,8.1,2.3C128,106.3,123.7,108.7,119.9,103.9z"/>
	</g>
	<g>
		<path class="st0" d="M153.8,121.3c0,0-5-3.9-1.4-8.3C152.4,113,156.5,115.8,153.8,121.3z"/>
	</g>
	<g>
		<path class="st0" d="M151.5,130.7c0,0,1.4-6.2,6.9-4.8C158.4,125.9,157.6,130.8,151.5,130.7z"/>
	</g>
	<g>
		<path class="st0" d="M125.8,142.6c0,0-6.1,1.7-7.5-3.9C118.3,138.7,123,137.2,125.8,142.6z"/>
	</g>
	<g>
		<path class="st0" d="M157.9,147.6c0,0-6.2-1.3-4.8-6.9C153.1,140.7,157.9,141.5,157.9,147.6z"/>
	</g>
	<g>
		<path class="st0" d="M77.4,182.8c0,0-4.3-4.7,0.1-8.4C77.5,174.4,81,177.8,77.4,182.8z"/>
	</g>
	<g>
		<path class="st0" d="M84.8,187.2c0,0-5.4-3.3-2.3-8.1C82.6,179.1,86.9,181.4,84.8,187.2z"/>
	</g>
	<g>
		<path class="st0" d="M86.3,171.7c0,0,0.3-6.4,6.1-5.9C92.4,165.8,92.3,170.7,86.3,171.7z"/>
	</g>
	<g>
		<path class="st0" d="M87.5,165.8c0,0,0.3-6.4,6.1-5.9C93.5,159.9,93.5,164.8,87.5,165.8z"/>
	</g>
	<g>
		<path class="st0" d="M92.5,187.9c0,0-5.4-3.3-2.3-8.1C90.2,179.8,94.5,182.2,92.5,187.9z"/>
	</g>
	<g>
		<path class="st0" d="M131.6,160.8c0,0-6.4,0.3-6.4-5.5C125.2,155.3,130.1,154.9,131.6,160.8z"/>
	</g>
	<g>
		<path class="st0" d="M153.1,175.2c0,0-1-6.3,4.8-7C157.8,168.2,158.8,173,153.1,175.2z"/>
	</g>
	<g>
		<path class="st0" d="M154.7,148.6c0,0,5.9,2.3,3.7,7.6C158.3,156.2,153.7,154.7,154.7,148.6z"/>
	</g>
	<g>
		<path class="st0" d="M146.6,150.3c0,0,6.4,0,6.2,5.7C152.8,156,147.9,156.3,146.6,150.3z"/>
	</g>
	<g>
		<path class="st0" d="M125.5,183.5c0,0-2-6,3.5-7.7C129,175.8,130.8,180.4,125.5,183.5z"/>
	</g>
	<g>
		<path class="st0" d="M112.9,166.6c0,0,0.5,6.4-5.2,6.6C107.7,173.2,107.1,168.3,112.9,166.6z"/>
	</g>
	<g>
		<path class="st0" d="M111.9,177.4c0,0-1.4,6.2-6.9,4.8C105,182.2,105.8,177.4,111.9,177.4z"/>
	</g>
	<g>
		<path class="st0" d="M125.5,149.2c0,0,6.4,0.4,5.8,6.2C131.3,155.3,126.4,155.2,125.5,149.2z"/>
	</g>
	<g>
		<path class="st0" d="M138.2,144.5c0,0,5.2,3.7,1.7,8.3C140,152.7,135.8,150.1,138.2,144.5z"/>
	</g>
	<g>
		<path class="st0" d="M123.4,144.3c0,0-2.9,5.7-7.9,2.9C115.5,147.3,117.5,142.8,123.4,144.3z"/>
	</g>
	<g>
		<path class="st0" d="M145,156.8c0,0-4,4.9-8.4,1.2C136.7,158,139.6,154,145,156.8z"/>
	</g>
	<g>
		<path class="st0" d="M150.3,138.9c0,0-3,5.6-8,2.8C142.3,141.7,144.4,137.3,150.3,138.9z"/>
	</g>
	<g>
		<path class="st0" d="M143.5,134.1c0,0,1.1,6.3-4.6,7.1C138.9,141.2,137.8,136.4,143.5,134.1z"/>
	</g>
	<g>
		<path class="st0" d="M159.7,137.4c0,0-6.3,1-7-4.7C152.7,132.7,157.5,131.7,159.7,137.4z"/>
	</g>
	<g>
		<path class="st0" d="M128.6,120.2c0,0-2.6,5.8-7.7,3.3C120.8,123.6,122.6,119,128.6,120.2z"/>
	</g>
	<g>
		<path class="st0" d="M141,124.8c0,0-5.8,2.7-8-2.6C133,122.2,137.3,119.9,141,124.8z"/>
	</g>
	<g>
		<path class="st0" d="M124.9,130.8c0,0-1.2-6.3,4.4-7.2C129.3,123.6,130.5,128.4,124.9,130.8z"/>
	</g>
	<g>
		<path class="st0" d="M52.9,159.6c0,0-0.8-5.1,3.8-5.7C56.7,153.9,57.5,157.8,52.9,159.6z"/>
	</g>
	<g>
		<path class="st0" d="M132.2,132.6c0,0-4-3.3-0.9-6.8C131.4,125.9,134.5,128.3,132.2,132.6z"/>
	</g>
	<g>
		<path class="st0" d="M124.7,167.6c0,0-4.4-2.6-1.9-6.6C122.8,161,126.3,162.9,124.7,167.6z"/>
	</g>
	<g>
		<path class="st0" d="M126.7,175.4c0,0-4.4-2.6-1.9-6.6C124.7,168.8,128.2,170.7,126.7,175.4z"/>
	</g>
	<g>
		<path class="st0" d="M95.3,177.5c0,0,5.2-0.4,5.4,4.2C100.6,181.7,96.7,182.3,95.3,177.5z"/>
	</g>
	<g>
		<path class="st0" d="M96.8,161.7c0,0,3.9,3.3,0.8,6.8C97.6,168.5,94.5,166.1,96.8,161.7z"/>
	</g>
	<g>
		<path class="st0" d="M95.1,156.7c0,0,5.1-0.9,5.7,3.7C100.9,160.4,97,161.3,95.1,156.7z"/>
	</g>
	<g>
		<path class="st0" d="M91.8,153.9c0,0,3.5-3.8,6.8-0.6C98.6,153.3,96.1,156.4,91.8,153.9z"/>
	</g>
	<g>
		<path class="st0" d="M85.5,159.9c0,0,1.5-4.9,5.9-3.4C91.4,156.5,90.4,160.4,85.5,159.9z"/>
	</g>
	<path class="st0" d="M132.1,123.6c0.1-7-1.6-11.4-5.1-13.1c-5-2.5-11.8,1.5-14,3c-5.6-3.2-10.4-3.9-14.3-2.1
		c-6.2,2.8-7.6,10.8-7.7,11.1l0,0c0,0.1-0.1,0.3-0.1,0.4c0,0.7,0.6,1.3,1.3,1.3c0.7,0,1.3-0.6,1.3-1.3c0.1-0.6,1.4-7,6.2-9.2
		c3.3-1.5,7.6-0.7,12.7,2.4l0.7,0.4l0.7-0.5c2.1-1.6,8.3-5.2,12-3.3c2.5,1.3,3.8,4.9,3.7,10.7c0,0.1,0,0.1,0,0.2
		c0,0.7,0.6,1.3,1.3,1.3C131.6,124.9,132.2,124.3,132.1,123.6C132.2,123.6,132.1,123.6,132.1,123.6z"/>
	<path class="st0" d="M145.8,144.2c-8.5-4.3-15-5-19.3-1.9c-6.6,4.6-5.2,15.9-5.1,16.4l0,0c0,0,0,0,0,0c0,0.7,0.6,1.3,1.3,1.3
		c0.7,0,1.3-0.6,1.3-1.3c0-0.1,0-0.3-0.1-0.4c-0.1-1-1-10.3,4.1-13.9c3.5-2.5,9.2-1.7,16.9,2.2l0,0c0.2,0.1,0.4,0.2,0.6,0.2
		c0.7,0,1.3-0.6,1.3-1.3C146.8,144.8,146.4,144.3,145.8,144.2z"/>
	<path class="st0" d="M173.7,135.4c-1-5.9-5.7-10.8-14-14.4c-0.1-2.1-0.8-7.5-5.3-11.7c-4.8-4.4-12.2-6.2-22-5.1
		c-1.9-1.7-9.6-7.7-18.6-6.2c-2.7,0.4-5.2,1.5-7.6,3.2c-6.3-3.6-12.4-4.6-18.2-2.9c-9.1,2.7-14.4,11-16,13.8
		c-5.3-1.2-10-0.4-13.9,2.2c-7,4.8-9.3,14.3-10,18.1c-0.2,0.1-0.4,0.3-0.6,0.4c-6.3,4-10.6,9.7-12.4,16.3c-0.9,3.4-1.1,7.5-0.6,10.9
		c0.9,6.4,4.6,12.8,9,17.4c5.3,5.5,12.5,5.9,19.7,5c4.7-0.6,7-1,8.2-1.3c6.3,7.2,12.6,10.7,18.8,10.3c5.8-0.3,9.8-4,11.6-6.1
		c2.7,4.1,6.1,6.6,10,7.5c7.3,1.6,13.9-2.9,14.1-3.1c6.2-4.3,8.9-0.9,12.3,3.5c2.6,3.3,5.4,6.9,10.1,5.9c0.4-0.1,0.7-0.2,1.1-0.3
		c4.1-1.5,3.3-6.8,2.7-10.4c-0.1-0.9-0.3-2-0.3-2.5c2.4-1.1,14.9-7.5,16.8-17c0.9-4.2-0.4-8.4-3.9-12.5
		C167.3,153.8,175.3,144.8,173.7,135.4z M165.9,168.5c-1.9,9-15.6,15.3-15.8,15.3c-1.5,0.7-1.2,2.5-0.8,5.1c0.6,3.6,0.9,6.9-1.1,7.6
		c-3.4,1.2-5.4-1-8.3-4.8c-3.4-4.3-7.5-9.6-15.7-4c-0.1,0-5.9,4.1-12.1,2.7c-3.5-0.8-6.6-3.2-9-7.2c2.9-3.9,4.2-7.6,3.6-10.9
		c-0.5-3.5-2.9-5.4-3.6-5.9c-0.2-0.2-0.5-0.4-0.9-0.4c-0.7,0-1.3,0.6-1.3,1.3c0,0.5,0.2,0.9,0.6,1.1l0,0c0,0,2.2,1.4,2.7,4.3
		c0.4,2.4-0.5,5.1-2.5,8.1l0,0l-0.5,0.7c-0.4,0.5-0.8,1.1-1.3,1.6l0.1,0.1c-1.3,1.6-5,5.4-10.3,5.8c-5.2,0.3-10.6-2.7-16.2-8.8
		l0.1-0.1c-0.4-0.4-0.8-0.8-1.2-1.2c0,0,0,0,0,0l0,0c-2.9-3.1-4.2-6.1-4.1-8.7c0.2-2.5,1.6-4,2.1-4.4c0,0,0.1-0.1,0.1-0.1
		c0,0,0,0,0,0l0,0c0.2-0.2,0.3-0.5,0.3-0.8c0-0.7-0.6-1.3-1.3-1.3c-0.2,0-0.4,0-0.5,0.1l0,0c0,0-0.1,0-0.1,0.1
		c-0.1,0.1-0.2,0.1-0.3,0.2c-0.8,0.8-2.6,2.8-2.8,6c-0.2,2.9,1,6,3.5,9.1c-0.6,0.1-1.2,0.2-1.8,0.3c-3.4,0.6-6.8,0.9-10.3,1.2
		c-3.8,0.4-7.2-1.2-10.2-3.3c-8.2-5.7-12.3-17.9-9.6-27.4c2.7-9.8,12.9-19.8,29.7-20.4c0,0,0.1,0,0.1,0c0.7,0,1.3-0.6,1.3-1.3
		c0-0.7-0.5-1.2-1.2-1.3l0,0c0,0,0,0-0.1,0c0,0,0,0,0,0c0,0-0.1,0-0.1,0c-5.7,0.2-11.4,1.6-16.3,4.1c1-4,3.4-10.9,8.7-14.5
		c3.5-2.4,7.8-2.9,12.8-1.6l1,0.3l0.5-0.9c0.1-0.1,5.3-10.6,15-13.4c4.8-1.4,10-0.7,15.3,2.2c-2.6,2.4-4.9,5.5-7.1,9.4l2.2,1.2
		c4.2-7.7,9.2-12.1,15-13c8.9-1.5,16.9,5.9,16.9,5.9l0.4,0.4l0.6-0.1c9.3-1.1,16.3,0.4,20.6,4.4c4.8,4.4,4.6,10.6,4.6,10.6l0,0.9
		l0.8,0.3c7.9,3.3,12.3,7.6,13.2,12.8c1.5,8.8-7.4,17.9-9,19.5c-13.9,2.7-17.2-2.1-17.3-2.2l0,0c-0.2-0.5-0.6-0.8-1.2-0.8
		c-0.7,0-1.3,0.6-1.3,1.3c0,0.3,0.1,0.6,0.3,0.9l0,0c0.1,0.2,1.2,1.9,4.3,3c3.8,1.4,8.9,1.6,15.3,0.4
		C165.4,161.4,166.6,165,165.9,168.5z"/>
	<path class="st0" d="M94.6,156.2c-3.5-4.4-11.4-3.5-14-3.1c-3.8-5.2-7.8-7.9-12.2-7.9c-6,0-10.3,5.2-11.4,6.6
		c-0.2,0.2-0.4,0.6-0.4,0.9c0,0.7,0.6,1.3,1.3,1.3c0.4,0,0.7-0.2,1-0.5l0,0c0-0.1,4-5.8,9.5-5.8c3.6,0,7.2,2.5,10.5,7.5l0.5,0.7
		l0.8-0.2c2.5-0.6,9.7-1.3,12.3,2c1.8,2.2,1.4,6.1-1.1,11.4l0,0c-0.1,0.2-0.2,0.4-0.2,0.7c0,0.7,0.6,1.3,1.3,1.3
		c0.6,0,1.1-0.4,1.2-0.9C96.7,163.9,97,159.2,94.6,156.2z"/>
</g>
</svg>
