<?xml version="1.0" encoding="utf-8"?>
<!-- Generator: Adobe Illustrator 21.0.0, SVG Export Plug-In . SVG Version: 6.00 Build 0)  -->
<svg version="1.1" id="Layer_1" xmlns="http://www.w3.org/2000/svg" xmlns:xlink="http://www.w3.org/1999/xlink" x="0px" y="0px"
	 viewBox="0 0 964.5 400.6" style="enable-background:new 0 0 964.5 400.6;" xml:space="preserve">
<style type="text/css">
	.st0{fill:#EDEDED;}
	.st1{fill:#685989;}
	.st2{fill:#864D7D;}
	.st3{fill:#BEDBC3;}
	.st4{fill:#9CC1C8;}
	.st5{opacity:0.5;fill:#9CC1C8;}
	.st6{fill:#D3DEE4;}
	.st7{fill:#007271;}
	.st8{fill:#369999;}
	.st9{fill:#4D2B2B;}
	.st10{fill:#3A1F1E;}
	.st11{fill:#E95B4E;}
	.st12{fill:#EE8268;}
	.st13{fill:#C83D36;}
	.st14{fill:#F6B99F;}
	.st15{fill:#EEE9DC;}
	.st16{fill:#F19775;}
	.st17{fill:#6B3E3F;}
	.st18{fill:#C7BDB7;}
	.st19{fill:#D1D5CA;}
	.st20{fill:#2B3668;}
	.st21{fill:#EE827D;}
	.st22{fill:#F87481;}
	.st23{fill:#FFFFFF;stroke:#FFFFFF;stroke-miterlimit:10;}
	.st24{fill:#FFFFFF;}
	.st25{opacity:0.3;clip-path:url(#SVGID_2_);}
	.st26{opacity:0.3;clip-path:url(#SVGID_4_);}
	.st27{opacity:0.3;clip-path:url(#SVGID_6_);}
	.st28{fill:#7087AF;}
	.st29{clip-path:url(#SVGID_8_);}
	.st30{fill:#B2555F;}
	.st31{fill:#47284F;}
	.st32{fill:#FFBF9B;}
	.st33{fill:#FFA687;}
	.st34{fill:#72426B;}
	.st35{fill:#FFC9AC;}
	.st36{fill:#C19884;}
	.st37{fill:#FFA68D;}
	.st38{fill:#13A6CE;}
	.st39{fill:#4E2447;}
	.st40{opacity:0.3;}
	.st41{fill:#1A2E35;}
	.st42{fill:#FFBF9D;}
	.st43{fill:#FF9A6C;}
	.st44{fill:#375A64;}
	.st45{fill:#E1E1E1;}
	.st46{opacity:0.2;}
	.st47{fill:#FF4F5B;}
	.st48{fill:#EBEBEB;}
	.st49{fill:#AA6550;}
	.st50{fill:#FAFAFA;}
</style>
<g>
	<path class="st2" d="M800.3,341.4H62.4V217h773v89.3C835.4,325.7,819.7,341.4,800.3,341.4z"/>
	<g>
		<g>
			<path class="st24" d="M110,265.9v10.9h-4.8v-31.6h4.8v2.1c2.3-2.7,5-4,8-4c3.6,0,6.7,1.3,9.2,3.8s3.8,5.6,3.8,9.2
				c0,3.6-1.3,6.7-3.8,9.3s-5.6,3.8-9.2,3.8C115,269.4,112.3,268.3,110,265.9z M110,254.5v3.7c0.3,1.5,1,2.8,2.2,3.9
				c1.6,1.6,3.5,2.4,5.8,2.4c2.3,0,4.2-0.8,5.8-2.4s2.4-3.5,2.4-5.8c0-2.2-0.8-4.2-2.4-5.8s-3.5-2.4-5.8-2.4c-2.3,0-4.2,0.8-5.8,2.4
				C111,251.8,110.3,253.1,110,254.5z"/>
			<path class="st24" d="M144.2,263.5c0.8,0.7,2.2,1.1,4.3,1.1c2.3,0,4.2-0.8,5.8-2.4c0.2-0.2,0.6-0.7,1.2-1.4l4.8,1.7
				c-1.2,1.6-2,2.7-2.5,3.2c-2.6,2.6-5.6,3.8-9.3,3.8c-3.6,0-6.7-1.3-9.2-3.8s-3.8-5.6-3.8-9.3c0-3.6,1.3-6.7,3.8-9.3
				c2.6-2.6,5.6-3.8,9.2-3.8c3.1,0,5.8,0.9,8.1,2.8c0.4,0.3,0.8,0.7,1.1,1c0.2,0.2,0.6,0.6,1.3,1.4l-2.4,2.4L144.2,263.5z
				 M152.1,248.8c-0.5-0.4-1.7-0.6-3.6-0.6c-2.2,0-4.2,0.8-5.8,2.4c-1.6,1.6-2.4,3.5-2.4,5.8c0,1.9,0.2,3.1,0.6,3.6L152.1,248.8z"/>
			<path class="st24" d="M170.5,248.4c1.8-2.4,4-3.7,6.5-3.8v4.9c-1.7,0.1-3.1,0.7-4.1,1.7c-1.5,1.5-2.3,3.4-2.4,5.5v12.1h-4.8
				v-23.6h4.8V248.4z"/>
			<path class="st24" d="M192.9,243.3c3.6,0,6.7,1.3,9.2,3.8c2.5,2.6,3.8,5.6,3.8,9.3c0,3.6-1.3,6.7-3.8,9.3s-5.6,3.8-9.2,3.8
				c-3.6,0-6.7-1.3-9.2-3.8s-3.8-5.6-3.8-9.3c0-3.6,1.3-6.7,3.8-9.3C186.2,244.6,189.3,243.3,192.9,243.3z M187.1,250.6
				c-1.6,1.6-2.4,3.5-2.4,5.8c0,2.3,0.8,4.2,2.4,5.8c1.6,1.6,3.5,2.4,5.8,2.4c2.3,0,4.2-0.8,5.8-2.4c1.6-1.6,2.4-3.5,2.4-5.8
				c0-2.2-0.8-4.2-2.4-5.8c-1.6-1.6-3.5-2.4-5.8-2.4C190.7,248.2,188.7,249,187.1,250.6z"/>
			<path class="st24" d="M248.2,246.9v-1.7h4.8v23.6h-4.8v-3c-2.3,2.4-5,3.6-8,3.6c-3.6,0-6.7-1.3-9.2-3.8s-3.8-5.6-3.8-9.2
				c0-3.6,1.3-6.7,3.8-9.2s5.6-3.8,9.2-3.8C243.3,243.3,245.9,244.5,248.2,246.9z M248.2,258.1v-3.5c-0.3-1.5-1-2.8-2.2-4
				c-1.6-1.6-3.5-2.4-5.8-2.4c-2.3,0-4.2,0.8-5.8,2.4c-1.6,1.6-2.4,3.5-2.4,5.8c0,2.2,0.8,4.2,2.4,5.8c1.6,1.6,3.5,2.4,5.8,2.4
				c2.2,0,4.2-0.8,5.8-2.4C247.2,261,247.9,259.6,248.2,258.1z"/>
			<path class="st24" d="M264.7,232.1v36.8h-4.8v-36.8H264.7z"/>
			<path class="st24" d="M290.7,245.2v-8.9h4.8v8.9h4.2v4.8h-4.2v18.9h-4.8V250h-4.2v-4.8H290.7z"/>
			<path class="st24" d="M316.9,243.3c3.6,0,6.7,1.3,9.2,3.8c2.5,2.6,3.8,5.6,3.8,9.3c0,3.6-1.3,6.7-3.8,9.3
				c-2.5,2.6-5.6,3.8-9.2,3.8c-3.6,0-6.7-1.3-9.2-3.8c-2.6-2.6-3.8-5.6-3.8-9.3c0-3.6,1.3-6.7,3.8-9.3
				C310.2,244.6,313.3,243.3,316.9,243.3z M311.1,250.6c-1.6,1.6-2.4,3.5-2.4,5.8c0,2.3,0.8,4.2,2.4,5.8c1.6,1.6,3.5,2.4,5.8,2.4
				s4.2-0.8,5.8-2.4c1.6-1.6,2.4-3.5,2.4-5.8c0-2.2-0.8-4.2-2.4-5.8s-3.5-2.4-5.8-2.4S312.7,249,311.1,250.6z"/>
			<path class="st24" d="M354.2,260.7l4.8,1.7c-1.2,1.6-2,2.7-2.5,3.2c-2.6,2.6-5.6,3.8-9.3,3.8c-3.6,0-6.7-1.3-9.2-3.8
				c-2.6-2.6-3.8-5.6-3.8-9.3c0-3.6,1.3-6.7,3.8-9.3c2.6-2.6,5.6-3.8,9.2-3.8c3.6,0,6.7,1.3,9.3,3.8c0.5,0.5,1.4,1.6,2.5,3.1
				l-4.8,1.7c-0.6-0.8-1-1.2-1.2-1.4c-1.6-1.6-3.5-2.4-5.8-2.4c-2.2,0-4.2,0.8-5.8,2.4c-1.6,1.6-2.4,3.5-2.4,5.8
				c0,2.2,0.8,4.2,2.4,5.8c1.6,1.6,3.5,2.4,5.8,2.4c2.3,0,4.2-0.8,5.8-2.4C353.2,261.9,353.6,261.5,354.2,260.7z"/>
			<path class="st24" d="M384.9,246.9v-1.7h4.8v23.6h-4.8v-3c-2.3,2.4-5,3.6-8,3.6c-3.6,0-6.7-1.3-9.2-3.8c-2.5-2.5-3.8-5.6-3.8-9.2
				c0-3.6,1.3-6.7,3.8-9.2c2.5-2.5,5.6-3.8,9.2-3.8C380,243.3,382.6,244.5,384.9,246.9z M384.9,258.1v-3.5c-0.3-1.5-1-2.8-2.2-4
				c-1.6-1.6-3.5-2.4-5.8-2.4c-2.3,0-4.2,0.8-5.8,2.4c-1.6,1.6-2.4,3.5-2.4,5.8c0,2.2,0.8,4.2,2.4,5.8c1.6,1.6,3.5,2.4,5.8,2.4
				c2.2,0,4.2-0.8,5.8-2.4C383.9,261,384.7,259.6,384.9,258.1z"/>
			<path class="st24" d="M401.4,248.4c1.8-2.4,4-3.7,6.5-3.8v4.9c-1.7,0.1-3.1,0.7-4.1,1.7c-1.5,1.5-2.3,3.4-2.4,5.5v12.1h-4.8
				v-23.6h4.8V248.4z"/>
			<path class="st24" d="M438.8,269.1c-3,0-5.4-0.9-7.2-2.7c-1.8-1.8-2.8-4.1-2.8-6.8v-14.4h4.8v14.2c0,1.4,0.5,2.5,1.5,3.5
				c1,1,2.2,1.5,3.7,1.5c1.4,0,2.5-0.5,3.5-1.5c1-1,1.5-2.1,1.5-3.5v-14.2h4.8v14.4c0,2.7-1,5-2.8,6.8
				C444,268.2,441.6,269.1,438.8,269.1z"/>
			<path class="st24" d="M460.2,251.5v17.3h-4.8v-23.6h4.8v2.8c1-2.7,3-4,6-4c2.6,0,4.6,0.9,6.1,2.7c1.5,1.8,2.3,4.1,2.3,6.8v15.4
				h-4.8v-15.2c0-1.4-0.5-2.5-1.5-3.5c-1-1-2.2-1.5-3.6-1.5c-1.4,0-2.5,0.5-3.5,1.4C460.8,250.7,460.4,251.2,460.2,251.5z"/>
			<path class="st24" d="M518.3,246.9v-1.7h4.8v23.6h-4.8v-3c-2.3,2.4-5,3.6-8,3.6c-3.6,0-6.7-1.3-9.2-3.8c-2.5-2.5-3.8-5.6-3.8-9.2
				c0-3.6,1.3-6.7,3.8-9.2c2.5-2.5,5.6-3.8,9.2-3.8C513.4,243.3,516,244.5,518.3,246.9z M518.3,258.1v-3.5c-0.3-1.5-1-2.8-2.2-4
				c-1.6-1.6-3.5-2.4-5.8-2.4c-2.3,0-4.2,0.8-5.8,2.4s-2.4,3.5-2.4,5.8c0,2.2,0.8,4.2,2.4,5.8s3.5,2.4,5.8,2.4
				c2.2,0,4.2-0.8,5.8-2.4C517.3,261,518.1,259.6,518.3,258.1z"/>
			<path class="st24" d="M534.8,232.1v36.8H530v-36.8H534.8z"/>
			<path class="st24" d="M541.7,245.2h4.8v2.2c0.9-2.3,2.7-3.5,5.3-3.5c2.6,0,4.1,1.3,4.4,3.9c0.7-2.6,2.8-3.9,6.2-3.9
				c3.3,0,5,2,5,6.1v18.8h-4.8v-16.6c0-2.3-0.9-3.5-2.8-3.5c-0.8,0-1.5,0.3-2,0.8c-0.6,0.6-0.8,2.4-0.8,5.6v13.7h-4.8l0-16.6
				c0-2.3-0.9-3.5-2.8-3.5c-0.8,0-1.5,0.3-2,0.8c-0.5,0.5-0.8,1.7-0.8,3.8v15.5h-4.8V245.2z"/>
			<path class="st24" d="M594.7,246.9v-1.7h4.8v23.6h-4.8v-3c-2.3,2.4-5,3.6-8,3.6c-3.6,0-6.7-1.3-9.2-3.8c-2.5-2.5-3.8-5.6-3.8-9.2
				c0-3.6,1.3-6.7,3.8-9.2c2.5-2.5,5.6-3.8,9.2-3.8C589.8,243.3,592.4,244.5,594.7,246.9z M594.7,258.1v-3.5c-0.3-1.5-1-2.8-2.2-4
				c-1.6-1.6-3.5-2.4-5.8-2.4c-2.3,0-4.2,0.8-5.8,2.4s-2.4,3.5-2.4,5.8c0,2.2,0.8,4.2,2.4,5.8s3.5,2.4,5.8,2.4
				c2.2,0,4.2-0.8,5.8-2.4C593.7,261,594.4,259.6,594.7,258.1z"/>
			<path class="st24" d="M622.7,232.1h4.8v15.7c1.3-2.6,3.3-3.8,5.8-3.8s4.5,0.9,6,2.7c1.5,1.8,2.3,4.1,2.3,6.8v15.4h-4.8v-15.2
				c0-1.4-0.4-2.5-1.2-3.5c-0.8-1-2-1.5-3.7-1.5c-2,0-3.5,1.1-4.6,3.2v17h-4.8V232.1z"/>
			<path class="st24" d="M658.5,269.1c-3,0-5.4-0.9-7.2-2.7c-1.8-1.8-2.8-4.1-2.8-6.8v-14.4h4.8v14.2c0,1.4,0.5,2.5,1.5,3.5
				s2.2,1.5,3.7,1.5c1.4,0,2.5-0.5,3.5-1.5c1-1,1.5-2.1,1.5-3.5v-14.2h4.8v14.4c0,2.7-1,5-2.8,6.8
				C663.7,268.2,661.3,269.1,658.5,269.1z"/>
			<path class="st24" d="M675.2,245.2h4.8v2.2c0.9-2.3,2.7-3.5,5.3-3.5c2.6,0,4.1,1.3,4.4,3.9c0.7-2.6,2.8-3.9,6.2-3.9
				c3.3,0,5,2,5,6.1v18.8H696v-16.6c0-2.3-0.9-3.5-2.8-3.5c-0.8,0-1.5,0.3-2,0.8c-0.6,0.6-0.8,2.4-0.8,5.6v13.7h-4.8l0-16.6
				c0-2.3-0.9-3.5-2.8-3.5c-0.8,0-1.5,0.3-2,0.8c-0.5,0.5-0.8,1.7-0.8,3.8v15.5h-4.8V245.2z"/>
			<path class="st24" d="M728.2,246.9v-1.7h4.8v23.6h-4.8v-3c-2.3,2.4-5,3.6-8,3.6c-3.6,0-6.7-1.3-9.2-3.8c-2.5-2.5-3.8-5.6-3.8-9.2
				c0-3.6,1.3-6.7,3.8-9.2c2.5-2.5,5.6-3.8,9.2-3.8C723.2,243.3,725.9,244.5,728.2,246.9z M728.2,258.1v-3.5c-0.3-1.5-1-2.8-2.2-4
				c-1.6-1.6-3.5-2.4-5.8-2.4c-2.3,0-4.2,0.8-5.8,2.4c-1.6,1.6-2.4,3.5-2.4,5.8c0,2.2,0.8,4.2,2.4,5.8c1.6,1.6,3.5,2.4,5.8,2.4
				c2.2,0,4.2-0.8,5.8-2.4C727.2,261,727.9,259.6,728.2,258.1z"/>
			<path class="st24" d="M744.7,251.5v17.3h-4.8v-23.6h4.8v2.8c1-2.7,3-4,6-4c2.6,0,4.6,0.9,6.1,2.7c1.5,1.8,2.3,4.1,2.3,6.8v15.4
				h-4.8v-15.2c0-1.4-0.5-2.5-1.5-3.5c-1-1-2.2-1.5-3.6-1.5c-1.4,0-2.5,0.5-3.5,1.4C745.2,250.7,744.8,251.2,744.7,251.5z"/>
			<path class="st24" d="M786.5,246.9v-1.7h4.8v23.6h-4.8v-3c-2.3,2.4-5,3.6-8,3.6c-3.6,0-6.7-1.3-9.2-3.8c-2.5-2.5-3.8-5.6-3.8-9.2
				c0-3.6,1.3-6.7,3.8-9.2c2.5-2.5,5.6-3.8,9.2-3.8C781.5,243.3,784.2,244.5,786.5,246.9z M786.5,258.1v-3.5c-0.3-1.5-1-2.8-2.2-4
				c-1.6-1.6-3.5-2.4-5.8-2.4c-2.3,0-4.2,0.8-5.8,2.4c-1.6,1.6-2.4,3.5-2.4,5.8c0,2.2,0.8,4.2,2.4,5.8c1.6,1.6,3.5,2.4,5.8,2.4
				c2.2,0,4.2-0.8,5.8-2.4C785.5,261,786.2,259.6,786.5,258.1z"/>
			<path class="st24" d="M804,262.4l-5.3,11h-4.5l2.9-11H804z"/>
			<path class="st24" d="M110,310.8c0.6,0.6,1.2,0.8,2,0.8c0.8,0,1.5-0.3,2-0.8c0.6-0.6,0.8-1.2,0.8-2c0-0.8-0.3-1.4-0.8-2
				c-0.4-0.4-1.2-1-2.5-1.8c-1.7-0.9-2.9-1.8-3.7-2.5c-1.3-1.3-1.9-2.8-1.9-4.5c0-1.8,0.6-3.3,1.9-4.6s2.8-1.9,4.5-1.9
				c1.8,0,3.3,0.6,4.4,1.8c0.8,0.8,1.4,1.8,1.6,2.8l-4.6,1.3c-0.1-0.4-0.2-0.6-0.3-0.8c-0.3-0.3-0.6-0.4-1.1-0.4
				c-0.5,0-0.9,0.2-1.2,0.5s-0.5,0.7-0.5,1.2s0.2,0.8,0.5,1.2c0.3,0.3,0.9,0.7,2,1.4c1.9,1,3.3,2,4.1,2.8c1.5,1.5,2.2,3.3,2.2,5.3
				c0,2.1-0.7,3.9-2.2,5.4c-1.5,1.5-3.3,2.2-5.4,2.2c-2.1,0-3.9-0.7-5.4-2.2c-1-1-1.7-2.3-2-3.8l4.7-1
				C109.5,310,109.7,310.5,110,310.8z"/>
			<path class="st24" d="M132.8,310.5c0.8,0.7,2.2,1.1,4.3,1.1c2.3,0,4.2-0.8,5.8-2.4c0.2-0.2,0.6-0.7,1.2-1.4l4.8,1.7
				c-1.2,1.6-2,2.7-2.5,3.2c-2.6,2.6-5.6,3.8-9.3,3.8c-3.6,0-6.7-1.3-9.2-3.8s-3.8-5.6-3.8-9.3c0-3.6,1.3-6.7,3.8-9.3
				c2.6-2.6,5.6-3.8,9.2-3.8c3.1,0,5.8,0.9,8.1,2.8c0.4,0.3,0.8,0.7,1.1,1c0.2,0.2,0.6,0.6,1.3,1.4l-2.4,2.4L132.8,310.5z
				 M140.8,295.8c-0.5-0.4-1.7-0.6-3.6-0.6c-2.2,0-4.2,0.8-5.8,2.4c-1.6,1.6-2.4,3.5-2.4,5.8c0,1.9,0.2,3.1,0.6,3.6L140.8,295.8z"/>
			<path class="st24" d="M174.9,293.9v-1.7h4.8v23.6h-4.8v-3c-2.3,2.4-5,3.6-8,3.6c-3.6,0-6.7-1.3-9.2-3.8s-3.8-5.6-3.8-9.2
				c0-3.6,1.3-6.7,3.8-9.2s5.6-3.8,9.2-3.8C170,290.3,172.6,291.5,174.9,293.9z M174.9,305.1v-3.5c-0.3-1.5-1-2.8-2.2-4
				c-1.6-1.6-3.5-2.4-5.8-2.4c-2.3,0-4.2,0.8-5.8,2.4c-1.6,1.6-2.4,3.5-2.4,5.8c0,2.2,0.8,4.2,2.4,5.8c1.6,1.6,3.5,2.4,5.8,2.4
				c2.2,0,4.2-0.8,5.8-2.4C173.9,308,174.7,306.6,174.9,305.1z"/>
			<path class="st24" d="M223.4,293.9v-1.7h4.8v23.6h-4.8v-3c-2.3,2.4-5,3.6-8,3.6c-3.6,0-6.7-1.3-9.2-3.8s-3.8-5.6-3.8-9.2
				c0-3.6,1.3-6.7,3.8-9.2s5.6-3.8,9.2-3.8C218.4,290.3,221.1,291.5,223.4,293.9z M223.4,305.1v-3.5c-0.3-1.5-1-2.8-2.2-4
				c-1.6-1.6-3.5-2.4-5.8-2.4c-2.3,0-4.2,0.8-5.8,2.4c-1.6,1.6-2.4,3.5-2.4,5.8c0,2.2,0.8,4.2,2.4,5.8c1.6,1.6,3.5,2.4,5.8,2.4
				c2.2,0,4.2-0.8,5.8-2.4C222.4,308,223.1,306.6,223.4,305.1z"/>
			<path class="st24" d="M240.3,312.9v10.9h-4.8v-31.6h4.8v2.1c2.3-2.7,5-4,8-4c3.6,0,6.7,1.3,9.2,3.8s3.8,5.6,3.8,9.2
				c0,3.6-1.3,6.7-3.8,9.3s-5.6,3.8-9.2,3.8C245.2,316.5,242.6,315.3,240.3,312.9z M240.3,301.5v3.7c0.3,1.5,1,2.8,2.2,3.9
				c1.6,1.6,3.5,2.4,5.8,2.4c2.3,0,4.2-0.8,5.8-2.4s2.4-3.5,2.4-5.8c0-2.2-0.8-4.2-2.4-5.8s-3.5-2.4-5.8-2.4c-2.3,0-4.2,0.8-5.8,2.4
				C241.3,298.8,240.5,300.1,240.3,301.5z"/>
			<path class="st24" d="M274.4,310.5c0.8,0.7,2.2,1.1,4.3,1.1c2.3,0,4.2-0.8,5.8-2.4c0.2-0.2,0.6-0.7,1.2-1.4l4.8,1.7
				c-1.2,1.6-2,2.7-2.5,3.2c-2.6,2.6-5.6,3.8-9.3,3.8c-3.6,0-6.7-1.3-9.2-3.8c-2.6-2.6-3.8-5.6-3.8-9.3c0-3.6,1.3-6.7,3.8-9.3
				c2.6-2.6,5.6-3.8,9.2-3.8c3.1,0,5.8,0.9,8.1,2.8c0.4,0.3,0.8,0.7,1.1,1c0.2,0.2,0.6,0.6,1.3,1.4l-2.4,2.4L274.4,310.5z
				 M282.4,295.8c-0.5-0.4-1.7-0.6-3.6-0.6c-2.2,0-4.2,0.8-5.8,2.4c-1.6,1.6-2.4,3.5-2.4,5.8c0,1.9,0.2,3.1,0.6,3.6L282.4,295.8z"/>
			<path class="st24" d="M300.8,298.6v17.3H296v-23.6h4.8v2.8c1-2.7,3-4,6-4c2.6,0,4.6,0.9,6.1,2.7c1.5,1.8,2.3,4.1,2.3,6.8v15.4
				h-4.8v-15.2c0-1.4-0.5-2.5-1.5-3.5c-1-1-2.2-1.5-3.6-1.5c-1.4,0-2.5,0.5-3.5,1.4C301.3,297.7,301,298.2,300.8,298.6z"/>
			<path class="st24" d="M342.7,293.9v-1.7h4.8v23.6h-4.8v-3c-2.3,2.4-5,3.6-8,3.6c-3.6,0-6.7-1.3-9.2-3.8c-2.5-2.5-3.8-5.6-3.8-9.2
				c0-3.6,1.3-6.7,3.8-9.2c2.5-2.5,5.6-3.8,9.2-3.8C337.7,290.3,340.4,291.5,342.7,293.9z M342.7,305.1v-3.5c-0.3-1.5-1-2.8-2.2-4
				c-1.6-1.6-3.5-2.4-5.8-2.4c-2.3,0-4.2,0.8-5.8,2.4s-2.4,3.5-2.4,5.8c0,2.2,0.8,4.2,2.4,5.8s3.5,2.4,5.8,2.4
				c2.2,0,4.2-0.8,5.8-2.4C341.7,308,342.4,306.6,342.7,305.1z"/>
			<path class="st24" d="M359.1,310.8c0.6,0.6,1.2,0.8,2,0.8s1.5-0.3,2-0.8c0.6-0.6,0.8-1.2,0.8-2c0-0.8-0.3-1.4-0.8-2
				c-0.4-0.4-1.2-1-2.5-1.8c-1.7-0.9-2.9-1.8-3.7-2.5c-1.3-1.3-1.9-2.8-1.9-4.5c0-1.8,0.6-3.3,1.9-4.6s2.8-1.9,4.5-1.9
				s3.3,0.6,4.4,1.8c0.8,0.8,1.4,1.8,1.6,2.8l-4.6,1.3c-0.1-0.4-0.2-0.6-0.3-0.8c-0.3-0.3-0.6-0.4-1.1-0.4s-0.9,0.2-1.2,0.5
				s-0.5,0.7-0.5,1.2s0.2,0.8,0.5,1.2c0.3,0.3,0.9,0.7,2,1.4c1.9,1,3.3,2,4.1,2.8c1.5,1.5,2.2,3.3,2.2,5.3c0,2.1-0.7,3.9-2.2,5.4
				c-1.5,1.5-3.3,2.2-5.4,2.2c-2.1,0-3.9-0.7-5.4-2.2c-1-1-1.7-2.3-2-3.8l4.7-1C358.6,310,358.8,310.5,359.1,310.8z"/>
			<path class="st24" d="M402.5,290.3c3.6,0,6.7,1.3,9.2,3.8c2.5,2.6,3.8,5.6,3.8,9.3c0,3.6-1.3,6.7-3.8,9.3
				c-2.5,2.6-5.6,3.8-9.2,3.8c-3.6,0-6.7-1.3-9.2-3.8c-2.6-2.6-3.8-5.6-3.8-9.3c0-3.6,1.3-6.7,3.8-9.3
				C395.9,291.6,398.9,290.3,402.5,290.3z M396.7,297.6c-1.6,1.6-2.4,3.5-2.4,5.8c0,2.3,0.8,4.2,2.4,5.8c1.6,1.6,3.5,2.4,5.8,2.4
				s4.2-0.8,5.8-2.4c1.6-1.6,2.4-3.5,2.4-5.8c0-2.2-0.8-4.2-2.4-5.8s-3.5-2.4-5.8-2.4S398.3,296,396.7,297.6z"/>
			<path class="st24" d="M424,292.2v-8.9h4.8v8.9h4.2v4.8h-4.2v18.9H424V297h-4.2v-4.8H424z"/>
			<path class="st24" d="M443.3,295.4c1.8-2.4,4-3.7,6.5-3.8v4.9c-1.7,0.1-3.1,0.7-4.1,1.7c-1.5,1.5-2.3,3.4-2.4,5.5v12.1h-4.8
				v-23.6h4.8V295.4z"/>
			<path class="st24" d="M474.9,293.9v-1.7h4.8v23.6h-4.8v-3c-2.3,2.4-5,3.6-8,3.6c-3.6,0-6.7-1.3-9.2-3.8c-2.5-2.5-3.8-5.6-3.8-9.2
				c0-3.6,1.3-6.7,3.8-9.2c2.5-2.5,5.6-3.8,9.2-3.8C469.9,290.3,472.6,291.5,474.9,293.9z M474.9,305.1v-3.5c-0.3-1.5-1-2.8-2.2-4
				c-1.6-1.6-3.5-2.4-5.8-2.4c-2.3,0-4.2,0.8-5.8,2.4c-1.6,1.6-2.4,3.5-2.4,5.8c0,2.2,0.8,4.2,2.4,5.8c1.6,1.6,3.5,2.4,5.8,2.4
				c2.2,0,4.2-0.8,5.8-2.4C473.9,308,474.6,306.6,474.9,305.1z"/>
			<path class="st24" d="M523.3,293.9v-1.7h4.8v23.6h-4.8v-3c-2.3,2.4-5,3.6-8,3.6c-3.6,0-6.7-1.3-9.2-3.8c-2.5-2.5-3.8-5.6-3.8-9.2
				c0-3.6,1.3-6.7,3.8-9.2c2.5-2.5,5.6-3.8,9.2-3.8C518.4,290.3,521,291.5,523.3,293.9z M523.3,305.1v-3.5c-0.3-1.5-1-2.8-2.2-4
				c-1.6-1.6-3.5-2.4-5.8-2.4c-2.3,0-4.2,0.8-5.8,2.4c-1.6,1.6-2.4,3.5-2.4,5.8c0,2.2,0.8,4.2,2.4,5.8c1.6,1.6,3.5,2.4,5.8,2.4
				c2.2,0,4.2-0.8,5.8-2.4C522.3,308,523,306.6,523.3,305.1z"/>
			<path class="st24" d="M539.8,279.1v36.8H535v-36.8H539.8z"/>
			<path class="st24" d="M546.7,292.2h4.8v2.2c0.9-2.3,2.7-3.5,5.3-3.5c2.6,0,4.1,1.3,4.4,3.9c0.8-2.6,2.8-3.9,6.2-3.9
				c3.3,0,5,2,5,6.1v18.8h-4.8v-16.6c0-2.3-0.9-3.5-2.8-3.5c-0.8,0-1.5,0.3-2,0.8s-0.8,2.4-0.8,5.6v13.7h-4.8l0-16.6
				c0-2.3-0.9-3.5-2.8-3.5c-0.8,0-1.5,0.3-2,0.8c-0.5,0.5-0.8,1.7-0.8,3.8v15.5h-4.8V292.2z"/>
			<path class="st24" d="M599.7,293.9v-1.7h4.8v23.6h-4.8v-3c-2.3,2.4-5,3.6-8,3.6c-3.6,0-6.7-1.3-9.2-3.8c-2.5-2.5-3.8-5.6-3.8-9.2
				c0-3.6,1.3-6.7,3.8-9.2c2.5-2.5,5.6-3.8,9.2-3.8C594.7,290.3,597.4,291.5,599.7,293.9z M599.7,305.1v-3.5c-0.3-1.5-1-2.8-2.2-4
				c-1.6-1.6-3.5-2.4-5.8-2.4c-2.3,0-4.2,0.8-5.8,2.4c-1.6,1.6-2.4,3.5-2.4,5.8c0,2.2,0.8,4.2,2.4,5.8c1.6,1.6,3.5,2.4,5.8,2.4
				c2.2,0,4.2-0.8,5.8-2.4C598.7,308,599.4,306.6,599.7,305.1z"/>
			<path class="st24" d="M627.6,279.1h4.8v15.7c1.3-2.6,3.3-3.8,5.8-3.8s4.5,0.9,6,2.7c1.5,1.8,2.3,4.1,2.3,6.8v15.4h-4.8v-15.2
				c0-1.4-0.4-2.5-1.2-3.5c-0.8-1-2-1.5-3.7-1.5c-2,0-3.5,1.1-4.6,3.2v17h-4.8V279.1z"/>
			<path class="st24" d="M663.5,316.2c-3,0-5.4-0.9-7.2-2.7c-1.8-1.8-2.8-4.1-2.8-6.8v-14.4h4.8v14.2c0,1.4,0.5,2.5,1.5,3.5
				c1,1,2.2,1.5,3.7,1.5c1.4,0,2.5-0.5,3.5-1.5c1-1,1.5-2.1,1.5-3.5v-14.2h4.8v14.4c0,2.7-1,5-2.8,6.8
				C668.7,315.3,666.3,316.2,663.5,316.2z"/>
			<path class="st24" d="M680.1,292.2h4.8v2.2c0.9-2.3,2.7-3.5,5.3-3.5c2.6,0,4.1,1.3,4.4,3.9c0.8-2.6,2.8-3.9,6.2-3.9
				c3.3,0,5,2,5,6.1v18.8H701v-16.6c0-2.3-0.9-3.5-2.8-3.5c-0.8,0-1.5,0.3-2,0.8s-0.8,2.4-0.8,5.6v13.7h-4.8l0-16.6
				c0-2.3-0.9-3.5-2.8-3.5c-0.8,0-1.5,0.3-2,0.8c-0.5,0.5-0.8,1.7-0.8,3.8v15.5h-4.8V292.2z"/>
			<path class="st24" d="M733.2,293.9v-1.7h4.8v23.6h-4.8v-3c-2.3,2.4-5,3.6-8,3.6c-3.6,0-6.7-1.3-9.2-3.8c-2.5-2.5-3.8-5.6-3.8-9.2
				c0-3.6,1.3-6.7,3.8-9.2c2.5-2.5,5.6-3.8,9.2-3.8C728.2,290.3,730.9,291.5,733.2,293.9z M733.2,305.1v-3.5c-0.3-1.5-1-2.8-2.2-4
				c-1.6-1.6-3.5-2.4-5.8-2.4c-2.3,0-4.2,0.8-5.8,2.4c-1.6,1.6-2.4,3.5-2.4,5.8c0,2.2,0.8,4.2,2.4,5.8c1.6,1.6,3.5,2.4,5.8,2.4
				c2.2,0,4.2-0.8,5.8-2.4C732.2,308,732.9,306.6,733.2,305.1z"/>
			<path class="st24" d="M749.6,298.6v17.3h-4.8v-23.6h4.8v2.8c1-2.7,3-4,6-4c2.6,0,4.6,0.9,6.1,2.7c1.5,1.8,2.3,4.1,2.3,6.8v15.4
				h-4.8v-15.2c0-1.4-0.5-2.5-1.5-3.5c-1-1-2.2-1.5-3.6-1.5c-1.4,0-2.5,0.5-3.5,1.4C750.2,297.7,749.8,298.2,749.6,298.6z"/>
			<path class="st24" d="M791.5,293.9v-1.7h4.8v23.6h-4.8v-3c-2.3,2.4-5,3.6-8,3.6c-3.6,0-6.7-1.3-9.2-3.8c-2.5-2.5-3.8-5.6-3.8-9.2
				c0-3.6,1.3-6.7,3.8-9.2c2.5-2.5,5.6-3.8,9.2-3.8C786.5,290.3,789.2,291.5,791.5,293.9z M791.5,305.1v-3.5c-0.3-1.5-1-2.8-2.2-4
				c-1.6-1.6-3.5-2.4-5.8-2.4c-2.3,0-4.2,0.8-5.8,2.4c-1.6,1.6-2.4,3.5-2.4,5.8c0,2.2,0.8,4.2,2.4,5.8c1.6,1.6,3.5,2.4,5.8,2.4
				c2.2,0,4.2-0.8,5.8-2.4C790.5,308,791.2,306.6,791.5,305.1z"/>
		</g>
	</g>
	<g>
		<g>
			<path class="st2" d="M132.7,127.5l3.8,3.4c-4.6,4.2-9.5,6.3-14.6,6.3c-5.5,0-10.2-1.9-14-5.8c-3.9-3.9-5.8-8.6-5.8-14
				c0-5.5,1.9-10.2,5.8-14s8.6-5.8,14-5.8c5.1,0,10,2.1,14.6,6.3l-3.8,3.4c-3.5-3.1-7.1-4.6-10.8-4.6c-4.1,0-7.5,1.4-10.4,4.3
				c-2.9,2.9-4.3,6.4-4.3,10.4c0,4.1,1.4,7.6,4.3,10.5c2.9,2.9,6.4,4.3,10.4,4.3C125.6,132.1,129.2,130.6,132.7,127.5z"/>
			<path class="st2" d="M121.9,137.6c-5.6,0-10.4-2-14.4-5.9c-3.9-3.9-5.9-8.8-5.9-14.4c0-5.6,2-10.4,5.9-14.4c3.9-4,8.8-6,14.4-6
				c5.2,0,10.2,2.2,14.9,6.4l0.4,0.3l-4.5,4.1l-0.3-0.3c-3.4-3-6.9-4.5-10.5-4.5c-3.9,0-7.3,1.4-10.1,4.2c-2.8,2.8-4.2,6.2-4.2,10.1
				c0,3.9,1.4,7.4,4.2,10.1c2.8,2.8,6.2,4.2,10.1,4.2c3.6,0,7.2-1.5,10.5-4.5l0.3-0.3l4.5,4l-0.4,0.4
				C132.1,135.5,127.1,137.6,121.9,137.6z M121.9,97.9c-5.3,0-9.9,1.9-13.7,5.7c-3.8,3.8-5.7,8.4-5.7,13.7c0,5.3,1.9,9.9,5.7,13.7
				c3.8,3.8,8.4,5.7,13.7,5.7c4.8,0,9.5-2,13.9-5.8l-3.1-2.7c-3.4,3-7.1,4.5-10.8,4.5c-4.2,0-7.8-1.5-10.8-4.5
				c-3-3-4.5-6.6-4.5-10.8c0-4.2,1.5-7.8,4.5-10.8c3-3,6.6-4.5,10.8-4.5c3.7,0,7.4,1.5,10.8,4.5l3.1-2.8
				C131.4,99.9,126.7,97.9,121.9,97.9z"/>
		</g>
		<g>
			<path class="st2" d="M154.9,109.7c3.8,0,7.1,1.4,9.8,4.1c2.7,2.7,4,6,4,9.8c0,3.8-1.3,7.1-4,9.8s-6,4.1-9.8,4.1
				c-3.8,0-7.1-1.4-9.8-4.1s-4.1-6-4.1-9.8c0-3.8,1.4-7.1,4.1-9.8C147.8,111.1,151.1,109.7,154.9,109.7z M148.7,117.4
				c-1.7,1.7-2.5,3.7-2.5,6.1c0,2.4,0.8,4.4,2.5,6.1c1.7,1.7,3.7,2.5,6.1,2.5c2.4,0,4.4-0.8,6.1-2.5c1.7-1.7,2.5-3.7,2.5-6.1
				c0-2.4-0.8-4.4-2.5-6.1c-1.7-1.7-3.7-2.6-6.1-2.6C152.5,114.9,150.4,115.7,148.7,117.4z"/>
			<path class="st2" d="M154.9,137.9c-3.9,0-7.3-1.4-10.1-4.2c-2.8-2.8-4.2-6.2-4.2-10.1c0-3.9,1.4-7.3,4.2-10.1
				c2.8-2.8,6.2-4.2,10.1-4.2c3.9,0,7.3,1.4,10.1,4.2c2.8,2.8,4.2,6.2,4.2,10.1c0,3.9-1.4,7.3-4.2,10.1
				C162.2,136.5,158.8,137.9,154.9,137.9z M154.9,110.2c-3.7,0-6.8,1.3-9.4,3.9c-2.6,2.6-3.9,5.8-3.9,9.5c0,3.7,1.3,6.9,3.9,9.5
				c2.6,2.6,5.8,3.9,9.4,3.9c3.7,0,6.9-1.3,9.4-3.9c2.6-2.6,3.9-5.8,3.9-9.5c0-3.7-1.3-6.9-3.9-9.5
				C161.7,111.5,158.6,110.2,154.9,110.2z M154.9,132.7c-2.5,0-4.7-0.9-6.5-2.7c-1.8-1.8-2.7-3.9-2.7-6.5c0-2.5,0.9-4.7,2.7-6.5l0,0
				c1.8-1.8,4-2.7,6.5-2.7c2.5,0,4.7,0.9,6.5,2.7c1.8,1.8,2.7,4,2.7,6.5c0,2.5-0.9,4.7-2.7,6.5C159.6,131.8,157.4,132.7,154.9,132.7
				z M154.9,115.4c-2.3,0-4.2,0.8-5.8,2.4l0,0c-1.6,1.6-2.4,3.5-2.4,5.8c0,2.3,0.8,4.2,2.4,5.8c1.6,1.6,3.5,2.4,5.8,2.4
				c2.3,0,4.2-0.8,5.8-2.4c1.6-1.6,2.4-3.5,2.4-5.8c0-2.2-0.8-4.2-2.4-5.8C159.1,116.2,157.1,115.4,154.9,115.4z"/>
		</g>
		<g>
			<path class="st2" d="M179.6,118.5v18.3h-5.1v-25h5.1v2.9c1.1-2.9,3.2-4.3,6.3-4.3c2.7,0,4.9,1,6.4,2.9c1.6,1.9,2.4,4.3,2.5,7.2
				v16.3h-5v-16.1c0-1.4-0.5-2.7-1.6-3.7c-1.1-1-2.3-1.5-3.8-1.5c-1.4,0-2.7,0.5-3.7,1.5C180.1,117.6,179.8,118.1,179.6,118.5z"/>
			<path class="st2" d="M195.3,137.2h-6v-16.5c0-1.3-0.5-2.4-1.4-3.4c-1-0.9-2.1-1.4-3.4-1.4c-1.3,0-2.4,0.5-3.4,1.4
				c-0.5,0.5-0.8,0.9-1,1.3v18.7h-6v-25.9h6v1.4c1.3-1.9,3.2-2.8,5.9-2.8c2.8,0,5.1,1,6.8,3c1.7,2,2.5,4.5,2.6,7.5L195.3,137.2z
				 M190.3,136.3h4.1v-15.8c0-2.8-0.8-5.1-2.4-6.9c-1.5-1.8-3.5-2.7-6.1-2.7c-3,0-4.9,1.3-5.9,4l-0.9,2.5v-5.1H175v24.1h4.1l0-18
				c0.2-0.5,0.6-1,1.2-1.6c1.2-1.1,2.5-1.6,4.1-1.6c1.6,0,3,0.6,4.1,1.7c1.1,1.1,1.7,2.5,1.7,4V136.3z"/>
		</g>
		<g>
			<path class="st2" d="M214.6,109.7c3.8,0,7.1,1.4,9.8,4.1c2.7,2.7,4,6,4,9.8c0,3.8-1.3,7.1-4,9.8s-6,4.1-9.8,4.1
				c-3.8,0-7.1-1.4-9.8-4.1s-4.1-6-4.1-9.8c0-3.8,1.4-7.1,4.1-9.8C207.5,111.1,210.8,109.7,214.6,109.7z M208.4,117.4
				c-1.7,1.7-2.5,3.7-2.5,6.1c0,2.4,0.8,4.4,2.5,6.1c1.7,1.7,3.7,2.5,6.1,2.5c2.4,0,4.4-0.8,6.1-2.5c1.7-1.7,2.5-3.7,2.5-6.1
				c0-2.4-0.8-4.4-2.5-6.1c-1.7-1.7-3.7-2.6-6.1-2.6C212.2,114.9,210.1,115.7,208.4,117.4z"/>
			<path class="st2" d="M214.6,137.9c-3.9,0-7.3-1.4-10.1-4.2c-2.8-2.8-4.2-6.2-4.2-10.1c0-3.9,1.4-7.3,4.2-10.1
				c2.8-2.8,6.2-4.2,10.1-4.2c3.9,0,7.3,1.4,10.1,4.2c2.8,2.8,4.2,6.2,4.2,10.1c0,3.9-1.4,7.3-4.2,10.1
				C221.9,136.5,218.5,137.9,214.6,137.9z M214.6,110.2c-3.7,0-6.8,1.3-9.4,3.9c-2.6,2.6-3.9,5.8-3.9,9.5c0,3.7,1.3,6.9,3.9,9.5
				c2.6,2.6,5.8,3.9,9.4,3.9c3.7,0,6.9-1.3,9.4-3.9c2.6-2.6,3.9-5.8,3.9-9.5c0-3.7-1.3-6.9-3.9-9.5
				C221.4,111.5,218.2,110.2,214.6,110.2z M214.6,132.7c-2.5,0-4.7-0.9-6.5-2.7c-1.8-1.8-2.7-3.9-2.7-6.5c0-2.5,0.9-4.7,2.7-6.5l0,0
				c1.8-1.8,4-2.7,6.5-2.7c2.5,0,4.7,0.9,6.5,2.7c1.8,1.8,2.7,4,2.7,6.5c0,2.5-0.9,4.7-2.7,6.5C219.3,131.8,217.1,132.7,214.6,132.7
				z M214.6,115.4c-2.3,0-4.2,0.8-5.8,2.4l0,0c-1.6,1.6-2.4,3.5-2.4,5.8c0,2.3,0.8,4.2,2.4,5.8c1.6,1.6,3.5,2.4,5.8,2.4
				c2.3,0,4.2-0.8,5.8-2.4c1.6-1.6,2.4-3.5,2.4-5.8c0-2.2-0.8-4.2-2.4-5.8C218.8,116.2,216.8,115.4,214.6,115.4z"/>
		</g>
		<g>
			<path class="st2" d="M245.6,116.8h-10.3v-5h18.9l-11.4,19.9H254v5.1h-19.8L245.6,116.8z"/>
			<path class="st2" d="M254.5,137.2h-21.1l11.4-20h-9.9v-6h20.2l-11.4,19.9h10.8V137.2z M235,136.3h18.5v-4.1h-11.5l11.4-19.9
				h-17.7v4.1h10.6L235,136.3z"/>
		</g>
		<g>
			<path class="st2" d="M281.3,128.2l5,1.8c-1.2,1.7-2.1,2.8-2.7,3.4c-2.7,2.7-6,4.1-9.8,4.1c-3.8,0-7.1-1.4-9.8-4.1s-4.1-6-4.1-9.8
				c0-3.8,1.4-7.1,4.1-9.8c2.7-2.7,6-4.1,9.8-4.1c3.8,0,7.1,1.4,9.8,4.1c0.6,0.6,1.4,1.7,2.7,3.3l-5,1.8c-0.6-0.8-1.1-1.3-1.3-1.5
				c-1.7-1.7-3.7-2.5-6.1-2.5c-2.4,0-4.4,0.8-6.1,2.5c-1.7,1.7-2.5,3.7-2.5,6.1c0,2.4,0.8,4.4,2.5,6.1c1.7,1.7,3.7,2.5,6.1,2.5
				c2.4,0,4.4-0.8,6.1-2.5C280.3,129.5,280.7,129,281.3,128.2z"/>
			<path class="st2" d="M273.9,137.9c-3.9,0-7.3-1.4-10.1-4.2c-2.8-2.8-4.2-6.2-4.2-10.1c0-3.9,1.4-7.3,4.2-10.1
				c2.8-2.8,6.2-4.2,10.1-4.2c3.9,0,7.3,1.4,10.1,4.2c0.6,0.6,1.5,1.7,2.7,3.4l0.4,0.5l-5.9,2.2l-0.2-0.3c-0.6-0.8-1.1-1.3-1.3-1.5
				c-1.6-1.6-3.5-2.4-5.8-2.4c-2.2,0-4.2,0.8-5.8,2.4c-1.6,1.6-2.4,3.5-2.4,5.8c0,2.2,0.8,4.2,2.4,5.8c1.6,1.6,3.5,2.4,5.8,2.4
				c2.3,0,4.2-0.8,5.8-2.4c0.2-0.2,0.6-0.7,1.3-1.5l0.2-0.3l5.9,2.1l-0.4,0.5c-1.3,1.7-2.1,2.9-2.7,3.4
				C281.3,136.5,277.8,137.9,273.9,137.9z M273.9,110.2c-3.7,0-6.8,1.3-9.4,3.9c-2.6,2.6-3.9,5.8-3.9,9.5c0,3.7,1.3,6.9,3.9,9.5
				c2.6,2.6,5.8,3.9,9.4,3.9c3.7,0,6.9-1.3,9.5-3.9c0.5-0.5,1.2-1.4,2.3-2.8l-4.1-1.5c-0.5,0.6-0.9,1.1-1.1,1.3
				c-1.8,1.8-4,2.7-6.5,2.7c-2.5,0-4.7-0.9-6.4-2.7c-1.8-1.8-2.7-3.9-2.7-6.4c0-2.5,0.9-4.7,2.7-6.5c1.8-1.8,3.9-2.7,6.4-2.7
				c2.5,0,4.7,0.9,6.5,2.7c0.2,0.2,0.6,0.6,1.1,1.3l4.1-1.5c-1-1.4-1.8-2.3-2.3-2.8C280.8,111.5,277.6,110.2,273.9,110.2z"/>
		</g>
		<g>
			<path class="st2" d="M313.9,113.5v-1.7h5.1v25h-5.1v-3.1c-2.4,2.5-5.2,3.8-8.5,3.8c-3.8,0-7.1-1.3-9.8-4c-2.7-2.7-4-6-4-9.8
				c0-3.8,1.3-7.1,4-9.8c2.7-2.7,6-4,9.8-4C308.6,109.8,311.4,111,313.9,113.5z M313.9,125.4v-3.7c-0.3-1.6-1.1-3-2.3-4.3
				c-1.7-1.7-3.7-2.5-6.1-2.5c-2.4,0-4.4,0.8-6.1,2.5c-1.7,1.7-2.5,3.7-2.5,6.1c0,2.4,0.8,4.4,2.5,6.1c1.7,1.7,3.7,2.5,6.1,2.5
				c2.4,0,4.4-0.8,6.1-2.5C312.8,128.4,313.6,127,313.9,125.4z"/>
			<path class="st2" d="M305.4,137.9c-3.9,0-7.3-1.4-10.1-4.2c-2.8-2.8-4.2-6.2-4.2-10.1c0-3.9,1.4-7.3,4.2-10.1
				c2.8-2.8,6.2-4.2,10.1-4.2c3,0,5.7,1,8,3.1v-1.1h6v26h-6v-2.5C311.1,136.8,308.4,137.9,305.4,137.9z M305.4,110.2
				c-3.7,0-6.9,1.3-9.4,3.9c-2.6,2.6-3.9,5.8-3.9,9.4c0,3.7,1.3,6.9,3.9,9.4c2.6,2.6,5.8,3.9,9.4,3.9c3.1,0,5.8-1.2,8.1-3.6l0.8-0.8
				v3.8h4.1v-24.1h-4.1v2.4l-0.8-0.8C311.2,111.4,308.5,110.2,305.4,110.2z M305.4,132.7c-2.5,0-4.7-0.9-6.5-2.7
				c-1.8-1.8-2.7-3.9-2.7-6.4c0-2.5,0.9-4.7,2.7-6.5c1.8-1.8,4-2.7,6.5-2.7c2.5,0,4.7,0.9,6.5,2.7c1.3,1.3,2.2,2.9,2.5,4.5l0,3.8
				l0,0c-0.3,1.7-1.1,3.2-2.5,4.5C310.1,131.8,307.9,132.7,305.4,132.7z M305.4,115.4c-2.3,0-4.2,0.8-5.8,2.4
				c-1.6,1.6-2.4,3.5-2.4,5.8c0,2.2,0.8,4.2,2.4,5.8c1.6,1.6,3.5,2.4,5.8,2.4c2.3,0,4.2-0.8,5.8-2.4c1.2-1.2,1.9-2.5,2.2-4v-3.6
				c-0.3-1.4-1-2.7-2.2-3.9C309.6,116.2,307.7,115.4,305.4,115.4z"/>
		</g>
		<g>
			<path class="st2" d="M346.5,111.8v-9.4h5v9.4h4.5v5h-4.5v20h-5v-20H342v-5H346.5z"/>
			<path class="st2" d="M352,137.2h-6v-20h-4.5v-6h4.5v-9.4h6v9.4h4.5v6H352V137.2z M346.9,136.3h4.1v-20h4.5v-4.1H351v-9.4h-4.1
				v9.4h-4.5v4.1h4.5V136.3z"/>
		</g>
		<g>
			<path class="st2" d="M374.2,109.7c3.8,0,7.1,1.4,9.8,4.1c2.7,2.7,4,6,4,9.8c0,3.8-1.3,7.1-4,9.8s-6,4.1-9.8,4.1
				c-3.8,0-7.1-1.4-9.8-4.1c-2.7-2.7-4.1-6-4.1-9.8c0-3.8,1.4-7.1,4.1-9.8C367.2,111.1,370.4,109.7,374.2,109.7z M368.1,117.4
				c-1.7,1.7-2.5,3.7-2.5,6.1c0,2.4,0.8,4.4,2.5,6.1c1.7,1.7,3.7,2.5,6.1,2.5s4.4-0.8,6.1-2.5c1.7-1.7,2.5-3.7,2.5-6.1
				c0-2.4-0.8-4.4-2.5-6.1c-1.7-1.7-3.7-2.6-6.1-2.6S369.8,115.7,368.1,117.4z"/>
			<path class="st2" d="M374.2,137.9c-3.9,0-7.3-1.4-10.1-4.2c-2.8-2.8-4.2-6.2-4.2-10.1c0-3.9,1.4-7.3,4.2-10.1
				c2.8-2.8,6.2-4.2,10.1-4.2c3.9,0,7.3,1.4,10.1,4.2c2.8,2.8,4.2,6.2,4.2,10.1c0,3.9-1.4,7.3-4.2,10.1
				C381.6,136.5,378.2,137.9,374.2,137.9z M374.2,110.2c-3.7,0-6.8,1.3-9.4,3.9c-2.6,2.6-3.9,5.8-3.9,9.5c0,3.7,1.3,6.9,3.9,9.5
				c2.6,2.6,5.8,3.9,9.4,3.9c3.7,0,6.9-1.3,9.4-3.9c2.6-2.6,3.9-5.8,3.9-9.5c0-3.7-1.3-6.9-3.9-9.5
				C381.1,111.5,377.9,110.2,374.2,110.2z M374.2,132.7c-2.5,0-4.7-0.9-6.5-2.7c-1.8-1.8-2.7-3.9-2.7-6.5c0-2.5,0.9-4.7,2.7-6.5v0
				c1.8-1.8,4-2.7,6.5-2.7c2.5,0,4.7,0.9,6.5,2.7c1.8,1.8,2.7,4,2.7,6.5c0,2.5-0.9,4.7-2.7,6.5C378.9,131.8,376.7,132.7,374.2,132.7
				z M374.2,115.4c-2.3,0-4.2,0.8-5.8,2.4v0c-1.6,1.6-2.4,3.5-2.4,5.8c0,2.3,0.8,4.2,2.4,5.8c1.6,1.6,3.5,2.4,5.8,2.4
				s4.2-0.8,5.8-2.4c1.6-1.6,2.4-3.5,2.4-5.8c0-2.2-0.8-4.2-2.4-5.8C378.4,116.2,376.5,115.4,374.2,115.4z"/>
		</g>
		<g>
			<path class="st2" d="M415.6,113.5V97.9h5.1v38.9h-5.1v-3.1c-2.4,2.5-5.3,3.8-8.5,3.8c-3.8,0-7.1-1.4-9.8-4.1s-4-6-4-9.8
				c0-3.8,1.3-7.1,4-9.8c2.7-2.7,6-4.1,9.8-4.1C410.3,109.7,413.1,111,415.6,113.5z M415.6,125.4v-3.7c-0.3-1.6-1.1-3-2.4-4.3
				c-1.7-1.7-3.7-2.6-6.1-2.6c-2.4,0-4.4,0.9-6.1,2.6c-1.7,1.7-2.5,3.7-2.5,6.1c0,2.4,0.8,4.4,2.5,6.1c1.7,1.7,3.7,2.5,6.1,2.5
				c2.4,0,4.4-0.8,6.1-2.5C414.5,128.4,415.3,127,415.6,125.4z"/>
			<path class="st2" d="M407.1,137.9c-3.9,0-7.3-1.4-10.1-4.2c-2.8-2.8-4.2-6.2-4.2-10.1c0-3.9,1.4-7.3,4.2-10.1
				c2.8-2.8,6.2-4.2,10.1-4.2c3,0,5.7,1.1,8,3.1v-15h6v39.8h-6v-2.5C412.8,136.8,410.1,137.9,407.1,137.9z M407.1,110.2
				c-3.7,0-6.9,1.3-9.4,3.9c-2.6,2.6-3.9,5.8-3.9,9.5c0,3.7,1.3,6.9,3.9,9.5c2.6,2.6,5.8,3.9,9.4,3.9c3.1,0,5.8-1.2,8.1-3.6l0.8-0.8
				v3.8h4.1V98.4H416v16.3l-0.8-0.8C412.9,111.4,410.2,110.2,407.1,110.2z M407.1,132.7c-2.5,0-4.7-0.9-6.5-2.7
				c-1.8-1.8-2.7-3.9-2.7-6.5c0-2.5,0.9-4.7,2.7-6.5c1.8-1.8,4-2.7,6.5-2.7c2.5,0,4.7,0.9,6.5,2.7c1.3,1.3,2.2,2.9,2.5,4.5l0,3.8
				l0,0c-0.3,1.6-1.1,3.2-2.5,4.5C411.8,131.8,409.6,132.7,407.1,132.7z M407.1,115.4c-2.3,0-4.2,0.8-5.8,2.4
				c-1.6,1.6-2.4,3.5-2.4,5.8c0,2.3,0.8,4.2,2.4,5.8c1.6,1.6,3.5,2.4,5.8,2.4c2.3,0,4.2-0.8,5.8-2.4c1.2-1.2,1.9-2.5,2.2-4v-3.7
				c-0.3-1.4-1-2.7-2.2-3.9C411.3,116.1,409.4,115.4,407.1,115.4z"/>
		</g>
		<g>
			<path class="st2" d="M449.6,113.5v-1.7h5.1v25h-5.1v-3.1c-2.4,2.5-5.2,3.8-8.5,3.8c-3.8,0-7.1-1.3-9.8-4c-2.7-2.7-4-6-4-9.8
				c0-3.8,1.3-7.1,4-9.8c2.7-2.7,6-4,9.8-4C444.3,109.8,447.1,111,449.6,113.5z M449.6,125.4v-3.7c-0.3-1.6-1.1-3-2.3-4.3
				c-1.7-1.7-3.7-2.5-6.1-2.5c-2.4,0-4.4,0.8-6.1,2.5c-1.7,1.7-2.5,3.7-2.5,6.1c0,2.4,0.8,4.4,2.5,6.1c1.7,1.7,3.7,2.5,6.1,2.5
				c2.4,0,4.4-0.8,6.1-2.5C448.5,128.4,449.3,127,449.6,125.4z"/>
			<path class="st2" d="M441.1,137.9c-3.9,0-7.3-1.4-10.1-4.2c-2.8-2.8-4.2-6.2-4.2-10.1c0-3.9,1.4-7.3,4.2-10.1
				c2.8-2.8,6.2-4.2,10.1-4.2c3,0,5.7,1,8,3.1v-1.1h6v26h-6v-2.5C446.8,136.8,444.1,137.9,441.1,137.9z M441.1,110.2
				c-3.7,0-6.9,1.3-9.4,3.9c-2.6,2.6-3.9,5.8-3.9,9.4c0,3.7,1.3,6.9,3.9,9.4c2.6,2.6,5.8,3.9,9.4,3.9c3.1,0,5.8-1.2,8.1-3.6l0.8-0.8
				v3.8h4.1v-24.1H450v2.4l-0.8-0.8C446.9,111.4,444.2,110.2,441.1,110.2z M441.1,132.7c-2.5,0-4.7-0.9-6.5-2.7
				c-1.8-1.8-2.7-3.9-2.7-6.4c0-2.5,0.9-4.7,2.7-6.5c1.8-1.8,4-2.7,6.5-2.7c2.5,0,4.7,0.9,6.5,2.7c1.3,1.3,2.2,2.9,2.5,4.5l0,3.8
				l0,0c-0.3,1.7-1.1,3.2-2.5,4.5C445.8,131.8,443.6,132.7,441.1,132.7z M441.1,115.4c-2.3,0-4.2,0.8-5.8,2.4
				c-1.6,1.6-2.4,3.5-2.4,5.8c0,2.2,0.8,4.2,2.4,5.8c1.6,1.6,3.5,2.4,5.8,2.4c2.3,0,4.2-0.8,5.8-2.4c1.2-1.2,1.9-2.5,2.2-4v-3.6
				c-0.3-1.4-1-2.7-2.2-3.9C445.3,116.2,443.4,115.4,441.1,115.4z"/>
		</g>
		<g>
			<path class="st2" d="M467,131.4c0.6,0.6,1.3,0.9,2.1,0.9c0.8,0,1.5-0.3,2.1-0.9c0.6-0.6,0.9-1.3,0.9-2.2c0-0.8-0.3-1.5-0.9-2.1
				c-0.4-0.4-1.3-1-2.6-1.9c-1.8-1-3.1-1.9-3.9-2.6c-1.3-1.3-2-2.9-2-4.8c0-1.9,0.7-3.5,2-4.8s2.9-2,4.8-2c1.9,0,3.4,0.6,4.7,1.9
				c0.9,0.9,1.5,1.9,1.7,3l-4.9,1.4c-0.1-0.4-0.2-0.7-0.3-0.8c-0.3-0.3-0.7-0.4-1.2-0.4c-0.5,0-0.9,0.2-1.3,0.5
				c-0.3,0.3-0.5,0.8-0.5,1.3s0.2,0.9,0.5,1.2c0.3,0.3,1,0.8,2.1,1.5c2,1.1,3.5,2.1,4.4,3c1.6,1.6,2.4,3.5,2.4,5.7
				c0,2.2-0.8,4.1-2.3,5.7c-1.6,1.6-3.5,2.4-5.7,2.4c-2.2,0-4.1-0.8-5.7-2.4c-1.1-1.1-1.8-2.4-2.1-4.1l5-1.1
				C466.5,130.6,466.7,131.1,467,131.4z"/>
			<path class="st2" d="M469.1,137.8c-2.3,0-4.4-0.8-6-2.5c-1.1-1.1-1.9-2.6-2.3-4.3l-0.1-0.5l5.9-1.3l0.1,0.5
				c0.2,0.8,0.4,1.2,0.5,1.3c0.5,0.5,1.1,0.7,1.8,0.7s1.3-0.2,1.8-0.7c0.5-0.5,0.7-1.1,0.7-1.8c0-0.7-0.2-1.3-0.7-1.8
				c-0.4-0.4-1.2-1-2.5-1.8c-1.8-1-3.1-1.9-3.9-2.7c-1.4-1.4-2.1-3.1-2.1-5.1c0-2,0.7-3.7,2.1-5.2c1.4-1.4,3.1-2.1,5.1-2.1
				c2,0,3.7,0.7,5,2c0.9,0.9,1.6,2,1.8,3.2l0.1,0.4l-5.8,1.7l-0.1-0.5c-0.1-0.5-0.2-0.6-0.2-0.6c-0.4-0.4-1.2-0.4-1.7,0.1
				c-0.3,0.3-0.4,0.6-0.4,0.9c0,0.4,0.1,0.7,0.4,0.9c0.2,0.2,0.7,0.6,2,1.4c2,1.1,3.5,2.1,4.5,3.1c1.7,1.7,2.5,3.7,2.5,6
				c0,2.4-0.8,4.4-2.5,6.1C473.5,136.9,471.5,137.8,469.1,137.8z M461.9,131.2c0.4,1.3,1,2.5,1.9,3.4c1.5,1.5,3.2,2.2,5.4,2.2
				c2.1,0,3.9-0.7,5.4-2.2c1.5-1.5,2.2-3.3,2.2-5.4c0-2.1-0.7-3.8-2.2-5.3c-0.9-0.9-2.3-1.9-4.3-2.9c-1.1-0.7-1.9-1.2-2.2-1.6
				c-0.4-0.4-0.7-1-0.7-1.6c0-0.6,0.2-1.1,0.7-1.6c0.9-0.9,2.3-0.8,3.1-0.1c0.1,0.1,0.2,0.3,0.3,0.6l4-1.2c-0.3-0.8-0.8-1.6-1.5-2.3
				c-1.2-1.2-2.6-1.8-4.4-1.8c-1.8,0-3.2,0.6-4.5,1.9c-1.2,1.3-1.9,2.7-1.9,4.5c0,1.7,0.6,3.2,1.9,4.5c0.7,0.7,2,1.6,3.8,2.5
				c1.4,0.9,2.3,1.5,2.7,2c0.7,0.7,1,1.5,1,2.4c0,1-0.3,1.8-1,2.5c-0.7,0.7-1.5,1-2.5,1c-0.9,0-1.8-0.3-2.5-1l0,0
				c-0.3-0.3-0.5-0.8-0.7-1.4L461.9,131.2z"/>
		</g>
		<g>
			<path class="st2" d="M505.6,97.9v38.9h-5.1V97.9H505.6z"/>
			<path class="st2" d="M506.1,137.2h-6V97.4h6V137.2z M501,136.3h4.1v-38H501V136.3z"/>
		</g>
		<g>
			<path class="st2" d="M534.6,113.5v-1.7h5.1v25h-5.1v-3.1c-2.4,2.5-5.2,3.8-8.5,3.8c-3.8,0-7.1-1.3-9.8-4c-2.7-2.7-4-6-4-9.8
				c0-3.8,1.3-7.1,4-9.8c2.7-2.7,6-4,9.8-4C529.3,109.8,532.1,111,534.6,113.5z M534.6,125.4v-3.7c-0.3-1.6-1.1-3-2.3-4.3
				c-1.7-1.7-3.7-2.5-6.1-2.5c-2.4,0-4.4,0.8-6.1,2.5c-1.7,1.7-2.5,3.7-2.5,6.1c0,2.4,0.8,4.4,2.5,6.1c1.7,1.7,3.7,2.5,6.1,2.5
				c2.4,0,4.4-0.8,6.1-2.5C533.5,128.4,534.3,127,534.6,125.4z"/>
			<path class="st2" d="M526.1,137.9c-3.9,0-7.3-1.4-10.1-4.2c-2.8-2.8-4.2-6.2-4.2-10.1c0-3.9,1.4-7.3,4.2-10.1
				c2.8-2.8,6.2-4.2,10.1-4.2c3,0,5.7,1,8,3.1v-1.1h6v26h-6v-2.5C531.8,136.8,529.1,137.9,526.1,137.9z M526.1,110.2
				c-3.7,0-6.9,1.3-9.4,3.9c-2.6,2.6-3.9,5.8-3.9,9.4c0,3.7,1.3,6.9,3.9,9.4c2.6,2.6,5.8,3.9,9.4,3.9c3.1,0,5.8-1.2,8.1-3.6l0.8-0.8
				v3.8h4.1v-24.1H535v2.4l-0.8-0.8C531.9,111.4,529.2,110.2,526.1,110.2z M526.1,132.7c-2.5,0-4.7-0.9-6.5-2.7
				c-1.8-1.8-2.7-3.9-2.7-6.4c0-2.5,0.9-4.7,2.7-6.5c1.8-1.8,4-2.7,6.5-2.7c2.5,0,4.7,0.9,6.5,2.7c1.3,1.3,2.2,2.9,2.5,4.5l0,3.8
				l0,0c-0.3,1.7-1.1,3.2-2.5,4.5C530.8,131.8,528.6,132.7,526.1,132.7z M526.1,115.4c-2.3,0-4.2,0.8-5.8,2.4
				c-1.6,1.6-2.4,3.5-2.4,5.8c0,2.2,0.8,4.2,2.4,5.8c1.6,1.6,3.5,2.4,5.8,2.4c2.3,0,4.2-0.8,5.8-2.4c1.2-1.2,1.9-2.5,2.2-4v-3.6
				c-0.3-1.4-1-2.7-2.2-3.9C530.3,116.2,528.4,115.4,526.1,115.4z"/>
		</g>
		<g>
			<path class="st2" d="M552,131.4c0.6,0.6,1.3,0.9,2.1,0.9c0.8,0,1.5-0.3,2.1-0.9c0.6-0.6,0.9-1.3,0.9-2.2c0-0.8-0.3-1.5-0.9-2.1
				c-0.4-0.4-1.3-1-2.6-1.9c-1.8-1-3.1-1.9-3.9-2.6c-1.3-1.3-2-2.9-2-4.8c0-1.9,0.7-3.5,2-4.8s2.9-2,4.8-2c1.9,0,3.4,0.6,4.7,1.9
				c0.9,0.9,1.5,1.9,1.7,3l-4.9,1.4c-0.1-0.4-0.2-0.7-0.3-0.8c-0.3-0.3-0.7-0.4-1.2-0.4c-0.5,0-0.9,0.2-1.3,0.5
				c-0.3,0.3-0.5,0.8-0.5,1.3s0.2,0.9,0.5,1.2c0.3,0.3,1,0.8,2.1,1.5c2,1.1,3.5,2.1,4.4,3c1.6,1.6,2.4,3.5,2.4,5.7
				c0,2.2-0.8,4.1-2.3,5.7c-1.6,1.6-3.5,2.4-5.7,2.4c-2.2,0-4.1-0.8-5.7-2.4c-1.1-1.1-1.8-2.4-2.1-4.1l5-1.1
				C551.5,130.6,551.7,131.1,552,131.4z"/>
			<path class="st2" d="M554.1,137.8c-2.3,0-4.4-0.8-6-2.5c-1.1-1.1-1.9-2.6-2.3-4.3l-0.1-0.5l5.9-1.3l0.1,0.5
				c0.2,0.8,0.4,1.2,0.5,1.3c0.5,0.5,1.1,0.7,1.8,0.7s1.3-0.2,1.8-0.7c0.5-0.5,0.7-1.1,0.7-1.8c0-0.7-0.2-1.3-0.7-1.8
				c-0.4-0.4-1.2-1-2.5-1.8c-1.8-1-3.1-1.9-3.9-2.7c-1.4-1.4-2.1-3.1-2.1-5.1c0-2,0.7-3.7,2.1-5.2c1.4-1.4,3.1-2.1,5.1-2.1
				c2,0,3.7,0.7,5,2c0.9,0.9,1.6,2,1.8,3.2l0.1,0.4l-5.8,1.7l-0.1-0.5c-0.1-0.5-0.2-0.6-0.2-0.6c-0.4-0.4-1.2-0.4-1.7,0.1
				c-0.3,0.3-0.4,0.6-0.4,0.9c0,0.4,0.1,0.7,0.4,0.9c0.2,0.2,0.7,0.6,2,1.4c2,1.1,3.5,2.1,4.5,3.1c1.7,1.7,2.5,3.7,2.5,6
				c0,2.4-0.8,4.4-2.5,6.1C558.5,136.9,556.5,137.8,554.1,137.8z M546.9,131.2c0.4,1.3,1,2.5,1.9,3.4c1.5,1.5,3.2,2.2,5.4,2.2
				c2.1,0,3.9-0.7,5.4-2.2c1.5-1.5,2.2-3.3,2.2-5.4c0-2.1-0.7-3.8-2.2-5.3c-0.9-0.9-2.3-1.9-4.3-2.9c-1.1-0.7-1.9-1.2-2.2-1.6
				c-0.4-0.4-0.7-1-0.7-1.6c0-0.6,0.2-1.1,0.7-1.6c0.9-0.9,2.3-0.8,3.1-0.1c0.1,0.1,0.2,0.3,0.3,0.6l4-1.2c-0.3-0.8-0.8-1.6-1.5-2.3
				c-1.2-1.2-2.6-1.8-4.4-1.8c-1.8,0-3.2,0.6-4.5,1.9c-1.2,1.3-1.9,2.7-1.9,4.5c0,1.7,0.6,3.2,1.9,4.5c0.7,0.7,2,1.6,3.8,2.5
				c1.4,0.9,2.3,1.5,2.7,2c0.7,0.7,1,1.5,1,2.4c0,1-0.3,1.8-1,2.5c-0.7,0.7-1.5,1-2.5,1c-0.9,0-1.8-0.3-2.5-1l0,0
				c-0.3-0.3-0.5-0.8-0.7-1.4L546.9,131.2z"/>
		</g>
		<g>
			<path class="st2" d="M588.6,111.8v-9.4h5v9.4h4.5v5h-4.5v20h-5v-20h-4.5v-5H588.6z"/>
			<path class="st2" d="M594.1,137.2h-6v-20h-4.5v-6h4.5v-9.4h6v9.4h4.5v6h-4.5V137.2z M589.1,136.3h4.1v-20h4.5v-4.1h-4.5v-9.4
				h-4.1v9.4h-4.5v4.1h4.5V136.3z"/>
		</g>
		<g>
			<path class="st2" d="M611.7,131.1c0.8,0.7,2.4,1.1,4.6,1.1c2.4,0,4.4-0.8,6.1-2.5c0.2-0.2,0.6-0.7,1.3-1.5l5,1.8
				c-1.2,1.7-2.1,2.8-2.7,3.4c-2.7,2.7-6,4.1-9.8,4.1c-3.8,0-7.1-1.4-9.8-4.1c-2.7-2.7-4.1-6-4.1-9.8c0-3.8,1.4-7.1,4.1-9.8
				c2.7-2.7,6-4.1,9.8-4.1c3.3,0,6.1,1,8.6,3c0.4,0.3,0.8,0.7,1.2,1.1c0.2,0.2,0.6,0.7,1.4,1.5l-2.5,2.6L611.7,131.1z M620.2,115.5
				c-0.6-0.4-1.8-0.7-3.8-0.7c-2.4,0-4.4,0.8-6.1,2.5c-1.7,1.7-2.5,3.7-2.5,6.1c0,2,0.2,3.2,0.7,3.8L620.2,115.5z"/>
			<path class="st2" d="M616.3,137.9c-3.9,0-7.3-1.4-10.1-4.2c-2.8-2.8-4.2-6.2-4.2-10.1c0-3.9,1.4-7.3,4.2-10.1s6.2-4.2,10.1-4.2
				c3.4,0,6.4,1,8.9,3.1c0.4,0.4,0.8,0.7,1.2,1.1c0.2,0.2,0.6,0.7,1.4,1.6l0.3,0.3l-2.8,2.9L612.5,131c0.8,0.5,2.1,0.7,3.9,0.7
				c2.3,0,4.2-0.8,5.8-2.4c0.2-0.2,0.6-0.7,1.3-1.5l0.2-0.3l5.9,2.1l-0.4,0.5c-1.3,1.7-2.1,2.9-2.7,3.4
				C623.7,136.5,620.3,137.9,616.3,137.9z M616.3,110.2c-3.7,0-6.8,1.3-9.4,3.9c-2.6,2.6-3.9,5.8-3.9,9.5c0,3.7,1.3,6.9,3.9,9.5
				c2.6,2.6,5.8,3.9,9.4,3.9c3.7,0,6.9-1.3,9.5-3.9c0.5-0.5,1.2-1.4,2.3-2.8l-4.1-1.5c-0.5,0.6-0.9,1.1-1.1,1.3
				c-1.8,1.8-4,2.7-6.5,2.7c-2.4,0-4-0.4-4.9-1.2l-0.4-0.3l15.8-15.8c-0.6-0.6-0.9-1-1.1-1.2c-0.4-0.4-0.8-0.7-1.2-1.1
				C622.3,111.1,619.5,110.2,616.3,110.2z M608.3,128.1l-0.3-0.4c-0.5-0.7-0.8-2-0.8-4.1c0-2.5,0.9-4.7,2.7-6.5
				c1.8-1.8,3.9-2.7,6.4-2.7c2.1,0,3.4,0.2,4.1,0.8l0.4,0.3L608.3,128.1z M616.3,115.4c-2.2,0-4.2,0.8-5.8,2.4
				c-1.6,1.6-2.4,3.5-2.4,5.8c0,1.6,0.1,2.5,0.3,3l10.9-10.9C618.8,115.5,617.9,115.4,616.3,115.4z"/>
		</g>
		<g>
			<path class="st2" d="M647,109.7c3.8,0,7.1,1.4,9.8,4.1c2.7,2.7,4,6,4,9.8c0,3.8-1.3,7.1-4,9.8s-6,4.1-9.8,4.1
				c-3.8,0-7.1-1.4-9.8-4.1c-2.7-2.7-4.1-6-4.1-9.8c0-3.8,1.4-7.1,4.1-9.8C639.9,111.1,643.2,109.7,647,109.7z M640.9,117.4
				c-1.7,1.7-2.5,3.7-2.5,6.1c0,2.4,0.8,4.4,2.5,6.1c1.7,1.7,3.7,2.5,6.1,2.5c2.4,0,4.4-0.8,6.1-2.5c1.7-1.7,2.5-3.7,2.5-6.1
				c0-2.4-0.8-4.4-2.5-6.1c-1.7-1.7-3.7-2.6-6.1-2.6C644.6,114.9,642.6,115.7,640.9,117.4z"/>
			<path class="st2" d="M647,137.9c-3.9,0-7.3-1.4-10.1-4.2c-2.8-2.8-4.2-6.2-4.2-10.1c0-3.9,1.4-7.3,4.2-10.1s6.2-4.2,10.1-4.2
				c3.9,0,7.3,1.4,10.1,4.2c2.8,2.8,4.2,6.2,4.2,10.1c0,3.9-1.4,7.3-4.2,10.1C654.3,136.5,650.9,137.9,647,137.9z M647,110.2
				c-3.7,0-6.8,1.3-9.4,3.9c-2.6,2.6-3.9,5.8-3.9,9.5c0,3.7,1.3,6.9,3.9,9.5c2.6,2.6,5.8,3.9,9.4,3.9c3.7,0,6.9-1.3,9.4-3.9
				c2.6-2.6,3.9-5.8,3.9-9.5c0-3.7-1.3-6.9-3.9-9.5C653.9,111.5,650.7,110.2,647,110.2z M647,132.7c-2.5,0-4.7-0.9-6.5-2.7
				c-1.8-1.8-2.7-3.9-2.7-6.5c0-2.5,0.9-4.7,2.7-6.5v0c1.8-1.8,4-2.7,6.5-2.7c2.5,0,4.7,0.9,6.5,2.7c1.8,1.8,2.7,4,2.7,6.5
				c0,2.5-0.9,4.7-2.7,6.5C651.7,131.8,649.5,132.7,647,132.7z M647,115.4c-2.3,0-4.2,0.8-5.8,2.4v0c-1.6,1.6-2.4,3.5-2.4,5.8
				c0,2.3,0.8,4.2,2.4,5.8c1.6,1.6,3.5,2.4,5.8,2.4c2.3,0,4.2-0.8,5.8-2.4c1.6-1.6,2.4-3.5,2.4-5.8c0-2.2-0.8-4.2-2.4-5.8
				C651.2,116.2,649.3,115.4,647,115.4z"/>
		</g>
		<g>
			<path class="st2" d="M671.7,115.1c1.9-2.5,4.2-3.9,6.9-4v5.2c-1.8,0.1-3.3,0.7-4.4,1.8c-1.6,1.6-2.5,3.5-2.6,5.8v12.9h-5v-25h5
				V115.1z"/>
			<path class="st2" d="M672.1,137.2h-6v-25.9h6v2.5c1.8-2,4-3,6.4-3.2l0.5,0v6.2l-0.4,0c-1.7,0.1-3.1,0.6-4.1,1.6
				c-1.5,1.5-2.4,3.4-2.4,5.5L672.1,137.2z M667.1,136.3h4.1v-12.4c0.1-2.4,1-4.4,2.7-6.1c1.1-1.1,2.5-1.7,4.2-1.9v-4.3
				c-2.4,0.3-4.4,1.5-6.1,3.8l-0.8,1.1v-4.3h-4.1V136.3z"/>
		</g>
		<g>
			<path class="st2" d="M688,102.6h6.1l-6.6,6.8h-4.8L688,102.6z M689,111.7v25h-5v-25H689z"/>
			<path class="st2" d="M689.5,137.2h-6v-26h6V137.2z M684.4,136.3h4.1v-24.1h-4.1V136.3z M687.7,109.8h-5.9l6-7.7h7.5L687.7,109.8z
				 M683.6,108.9h3.6l5.7-5.8h-4.8L683.6,108.9z"/>
		</g>
		<g>
			<path class="st2" d="M718.5,113.5v-1.7h5.1v25h-5.1v-3.1c-2.4,2.5-5.2,3.8-8.5,3.8c-3.8,0-7.1-1.3-9.8-4c-2.7-2.7-4-6-4-9.8
				c0-3.8,1.3-7.1,4-9.8c2.7-2.7,6-4,9.8-4C713.2,109.8,716,111,718.5,113.5z M718.5,125.4v-3.7c-0.3-1.6-1.1-3-2.3-4.3
				c-1.7-1.7-3.7-2.5-6.1-2.5c-2.4,0-4.4,0.8-6.1,2.5c-1.7,1.7-2.5,3.7-2.5,6.1c0,2.4,0.8,4.4,2.5,6.1c1.7,1.7,3.7,2.5,6.1,2.5
				c2.4,0,4.4-0.8,6.1-2.5C717.4,128.4,718.2,127,718.5,125.4z"/>
			<path class="st2" d="M710,137.9c-3.9,0-7.3-1.4-10.1-4.2c-2.8-2.8-4.2-6.2-4.2-10.1c0-3.9,1.4-7.3,4.2-10.1
				c2.8-2.8,6.2-4.2,10.1-4.2c3,0,5.7,1,8,3.1v-1.1h6v26h-6v-2.5C715.7,136.8,713,137.9,710,137.9z M710,110.2
				c-3.7,0-6.9,1.3-9.4,3.9c-2.6,2.6-3.9,5.8-3.9,9.4c0,3.7,1.3,6.9,3.9,9.4c2.6,2.6,5.8,3.9,9.4,3.9c3.1,0,5.8-1.2,8.1-3.6l0.8-0.8
				v3.8h4.1v-24.1h-4.1v2.4l-0.8-0.8C715.8,111.4,713.1,110.2,710,110.2z M710,132.7c-2.5,0-4.7-0.9-6.5-2.7
				c-1.8-1.8-2.7-3.9-2.7-6.4c0-2.5,0.9-4.7,2.7-6.5c1.8-1.8,4-2.7,6.5-2.7c2.5,0,4.7,0.9,6.5,2.7c1.3,1.3,2.2,2.9,2.5,4.5l0,3.8
				l0,0c-0.3,1.7-1.1,3.2-2.5,4.5C714.7,131.8,712.5,132.7,710,132.7z M710,115.4c-2.3,0-4.2,0.8-5.8,2.4c-1.6,1.6-2.4,3.5-2.4,5.8
				c0,2.2,0.8,4.2,2.4,5.8c1.6,1.6,3.5,2.4,5.8,2.4c2.3,0,4.2-0.8,5.8-2.4c1.2-1.2,1.9-2.5,2.2-4v-3.6c-0.3-1.4-1-2.7-2.2-3.9
				C714.2,116.2,712.3,115.4,710,115.4z"/>
		</g>
		<g>
			<path class="st2" d="M735.9,131.4c0.6,0.6,1.3,0.9,2.1,0.9s1.5-0.3,2.1-0.9c0.6-0.6,0.9-1.3,0.9-2.2c0-0.8-0.3-1.5-0.9-2.1
				c-0.4-0.4-1.3-1-2.6-1.9c-1.8-1-3.1-1.9-3.9-2.6c-1.3-1.3-2-2.9-2-4.8c0-1.9,0.7-3.5,2-4.8s2.9-2,4.8-2s3.4,0.6,4.7,1.9
				c0.9,0.9,1.5,1.9,1.7,3l-4.9,1.4c-0.1-0.4-0.2-0.7-0.3-0.8c-0.3-0.3-0.7-0.4-1.2-0.4c-0.5,0-0.9,0.2-1.3,0.5s-0.5,0.8-0.5,1.3
				s0.2,0.9,0.5,1.2c0.3,0.3,1,0.8,2.1,1.5c2,1.1,3.5,2.1,4.4,3c1.6,1.6,2.4,3.5,2.4,5.7c0,2.2-0.8,4.1-2.3,5.7
				c-1.6,1.6-3.5,2.4-5.7,2.4c-2.2,0-4.1-0.8-5.7-2.4c-1.1-1.1-1.8-2.4-2.1-4.1l5-1.1C735.4,130.6,735.6,131.1,735.9,131.4z"/>
			<path class="st2" d="M738,137.8c-2.3,0-4.4-0.8-6-2.5c-1.1-1.1-1.9-2.6-2.3-4.3l-0.1-0.5l5.9-1.3l0.1,0.5
				c0.2,0.8,0.4,1.2,0.5,1.3c0.5,0.5,1.1,0.7,1.8,0.7c0.7,0,1.3-0.2,1.8-0.7c0.5-0.5,0.7-1.1,0.7-1.8c0-0.7-0.2-1.3-0.7-1.8
				c-0.4-0.4-1.2-1-2.5-1.8c-1.8-1-3.1-1.9-3.9-2.7c-1.4-1.4-2.1-3.1-2.1-5.1c0-2,0.7-3.7,2.1-5.2c1.4-1.4,3.1-2.1,5.1-2.1
				c2,0,3.7,0.7,5,2c0.9,0.9,1.6,2,1.8,3.2l0.1,0.4l-5.8,1.7l-0.1-0.5c-0.1-0.5-0.2-0.6-0.2-0.6c-0.4-0.4-1.2-0.4-1.7,0.1
				c-0.3,0.3-0.4,0.6-0.4,0.9s0.1,0.7,0.4,0.9c0.2,0.2,0.7,0.6,2,1.4c2,1.1,3.5,2.1,4.5,3.1c1.7,1.7,2.5,3.7,2.5,6
				c0,2.4-0.8,4.4-2.5,6.1C742.4,136.9,740.4,137.8,738,137.8z M730.8,131.2c0.4,1.3,1,2.5,1.9,3.4c1.5,1.5,3.2,2.2,5.4,2.2
				c2.1,0,3.9-0.7,5.4-2.2c1.5-1.5,2.2-3.3,2.2-5.4c0-2.1-0.7-3.8-2.2-5.3c-0.9-0.9-2.3-1.9-4.3-2.9c-1.1-0.7-1.9-1.2-2.2-1.6
				c-0.4-0.4-0.7-1-0.7-1.6c0-0.6,0.2-1.1,0.7-1.6c0.9-0.9,2.3-0.8,3.1-0.1c0.1,0.1,0.2,0.3,0.3,0.6l4-1.2c-0.3-0.8-0.8-1.6-1.5-2.3
				c-1.2-1.2-2.6-1.8-4.4-1.8s-3.2,0.6-4.5,1.9c-1.2,1.3-1.9,2.7-1.9,4.5c0,1.7,0.6,3.2,1.9,4.5c0.7,0.7,2,1.6,3.8,2.5
				c1.4,0.9,2.3,1.5,2.7,2c0.7,0.7,1,1.5,1,2.4c0,1-0.3,1.8-1,2.5c-0.7,0.7-1.5,1-2.5,1c-0.9,0-1.8-0.3-2.5-1l0,0
				c-0.3-0.3-0.5-0.8-0.7-1.4L730.8,131.2z"/>
		</g>
		<g>
			<path class="st2" d="M755.3,131c0.7,0.7,1,1.5,1,2.5c0,1-0.3,1.8-1,2.5s-1.5,1-2.5,1c-1,0-1.8-0.3-2.5-1s-1-1.5-1-2.5
				c0-1,0.3-1.8,1-2.5s1.5-1,2.5-1C753.8,130,754.6,130.4,755.3,131z"/>
			<path class="st2" d="M752.8,137.5c-1.1,0-2-0.4-2.8-1.2c-0.8-0.8-1.2-1.7-1.2-2.9c0-1.1,0.4-2,1.2-2.8c0.8-0.8,1.7-1.2,2.8-1.2
				c1.1,0,2,0.4,2.8,1.2c0.8,0.8,1.2,1.7,1.2,2.8c0,1.1-0.4,2.1-1.2,2.9C754.8,137.2,753.9,137.5,752.8,137.5z M752.8,130.5
				c-0.8,0-1.5,0.3-2.1,0.9c-0.6,0.6-0.9,1.3-0.9,2.1c0,0.9,0.3,1.6,0.9,2.2c0.6,0.6,1.3,0.9,2.1,0.9c0.9,0,1.6-0.3,2.2-0.9
				c0.6-0.6,0.9-1.3,0.9-2.2c0-0.8-0.3-1.6-0.9-2.1C754.4,130.8,753.6,130.5,752.8,130.5z"/>
		</g>
		<g>
			<path class="st2" d="M106.3,157.6c6.3,0,11.2,1.8,14.8,5.4c3.9,3.9,5.8,8.6,5.8,14.1c0,5.5-1.9,10.2-5.8,14.1
				c-3.5,3.5-8.5,5.3-14.8,5.4h-3.7v-38.9H106.3z M107.7,162.7v28.6c4,0,7.3-1.3,9.8-3.9c2.9-2.9,4.3-6.4,4.3-10.5
				c0-4.1-1.4-7.6-4.3-10.5C114.9,164,111.7,162.7,107.7,162.7z"/>
			<path class="st2" d="M102.6,196.9h-0.5v-39.8h4.2c6.4,0,11.5,1.9,15.1,5.5c3.9,4,5.9,8.8,5.9,14.4c0,5.6-2,10.4-5.9,14.4
				c-3.6,3.6-8.7,5.5-15.1,5.5H102.6z M103.1,196h3.2c6.2,0,11-1.8,14.4-5.2c3.8-3.8,5.7-8.4,5.7-13.7c0-5.3-1.9-9.9-5.7-13.7
				c-3.4-3.4-8.3-5.2-14.4-5.2h-3.2V196z M107.7,191.8h-0.5v-29.6h0.5c4.1,0,7.5,1.3,10.2,4c3,3,4.5,6.6,4.5,10.8
				c0,4.2-1.5,7.8-4.5,10.8C115.2,190.5,111.8,191.8,107.7,191.8z M108.1,163.2v27.7c3.6-0.1,6.7-1.3,9-3.7
				c2.8-2.8,4.2-6.2,4.2-10.1c0-3.9-1.4-7.3-4.2-10.1C114.8,164.5,111.8,163.3,108.1,163.2z"/>
		</g>
		<g>
			<path class="st2" d="M145.4,169.4c3.8,0,7.1,1.4,9.8,4.1c2.7,2.7,4,6,4,9.8c0,3.8-1.3,7.1-4,9.8s-6,4.1-9.8,4.1
				c-3.8,0-7.1-1.4-9.8-4.1s-4.1-6-4.1-9.8c0-3.8,1.4-7.1,4.1-9.8C138.3,170.8,141.6,169.4,145.4,169.4z M139.2,177.1
				c-1.7,1.7-2.5,3.7-2.5,6.1c0,2.4,0.8,4.4,2.5,6.1c1.7,1.7,3.7,2.5,6.1,2.5c2.4,0,4.4-0.8,6.1-2.5c1.7-1.7,2.5-3.7,2.5-6.1
				c0-2.4-0.8-4.4-2.5-6.1c-1.7-1.7-3.7-2.6-6.1-2.6C143,174.6,140.9,175.4,139.2,177.1z"/>
			<path class="st2" d="M145.4,197.6c-3.9,0-7.3-1.4-10.1-4.2c-2.8-2.8-4.2-6.2-4.2-10.1c0-3.9,1.4-7.3,4.2-10.1
				c2.8-2.8,6.2-4.2,10.1-4.2c3.9,0,7.3,1.4,10.1,4.2c2.8,2.8,4.2,6.2,4.2,10.1c0,3.9-1.4,7.3-4.2,10.1
				C152.7,196.2,149.3,197.6,145.4,197.6z M145.4,169.9c-3.7,0-6.8,1.3-9.4,3.9c-2.6,2.6-3.9,5.8-3.9,9.5c0,3.7,1.3,6.9,3.9,9.5
				c2.6,2.6,5.8,3.9,9.4,3.9c3.7,0,6.9-1.3,9.4-3.9c2.6-2.6,3.9-5.8,3.9-9.5c0-3.7-1.3-6.9-3.9-9.5
				C152.2,171.2,149,169.9,145.4,169.9z M145.4,192.4c-2.5,0-4.7-0.9-6.5-2.7c-1.8-1.8-2.7-3.9-2.7-6.5c0-2.5,0.9-4.7,2.7-6.5h0
				c1.8-1.8,4-2.7,6.5-2.7c2.5,0,4.7,0.9,6.5,2.7c1.8,1.8,2.7,4,2.7,6.5c0,2.5-0.9,4.7-2.7,6.5C150,191.5,147.9,192.4,145.4,192.4z
				 M145.4,175.1c-2.3,0-4.2,0.8-5.8,2.4h0c-1.6,1.6-2.4,3.5-2.4,5.8c0,2.3,0.8,4.2,2.4,5.8c1.6,1.6,3.5,2.4,5.8,2.4
				c2.3,0,4.2-0.8,5.8-2.4c1.6-1.6,2.4-3.5,2.4-5.8c0-2.2-0.8-4.2-2.4-5.8C149.6,175.9,147.6,175.1,145.4,175.1z"/>
		</g>
		<g>
			<path class="st2" d="M165,171.5h5v2.3c1-2.4,2.8-3.7,5.6-3.7c2.8,0,4.3,1.4,4.6,4.2c0.8-2.8,3-4.2,6.6-4.2c3.5,0,5.3,2.1,5.3,6.4
				v19.9h-5.1v-17.6c0-2.5-1-3.7-3-3.7c-0.8,0-1.5,0.3-2.1,0.9s-0.9,2.5-0.9,5.9v14.5h-5l0-17.6c0-2.5-1-3.7-3-3.7
				c-0.8,0-1.5,0.3-2.1,0.9c-0.5,0.5-0.8,1.8-0.9,4v16.4h-5V171.5z"/>
			<path class="st2" d="M192.6,196.9h-6v-18.1c0-2.9-1.4-3.2-2.5-3.2c-0.7,0-1.3,0.2-1.8,0.7c-0.2,0.2-0.8,1.2-0.8,5.5v15h-6l0-18.1
				c0-2.9-1.5-3.2-2.5-3.2c-0.7,0-1.3,0.2-1.8,0.7c-0.2,0.2-0.7,1-0.7,3.7l0,16.9h-6V171h6v1c1.2-1.5,2.9-2.3,5.1-2.3
				c2.4,0,4.1,1.1,4.8,3.1c1.1-2.1,3.3-3.1,6.4-3.1c2.6,0,5.8,1.2,5.8,6.9V196.9z M187.6,196h4.1v-19.4c0-4-1.6-6-4.8-6
				c-3.4,0-5.4,1.3-6.1,3.8l-0.6,2.2l-0.3-2.3c-0.3-2.5-1.7-3.8-4.2-3.8c-2.6,0-4.3,1.1-5.2,3.4l-0.9,2.3v-4.3h-4.1V196h4.1v-16
				c0.1-2.3,0.4-3.7,1-4.3c0.7-0.7,1.5-1,2.5-1c1.6,0,3.5,0.7,3.5,4.2l0,17.1h4.1v-14.1c0-4.7,0.6-5.8,1-6.2c0.7-0.7,1.5-1,2.5-1
				c1.6,0,3.5,0.7,3.5,4.2V196z"/>
		</g>
		<g>
			<path class="st2" d="M204.9,162.2c0.7,0.7,1,1.5,1,2.5c0,1-0.3,1.8-1,2.5c-0.7,0.7-1.5,1-2.5,1c-1,0-1.8-0.3-2.5-1
				c-0.7-0.7-1-1.5-1-2.5c0-1,0.3-1.8,1-2.5s1.5-1,2.5-1C203.3,161.2,204.2,161.5,204.9,162.2z M204.9,171.5v25h-5v-25H204.9z"/>
			<path class="st2" d="M205.4,196.9h-6V171h6V196.9z M200.3,196h4.1v-24.1h-4.1V196z M202.4,168.7c-1.1,0-2-0.4-2.8-1.2
				c-0.8-0.8-1.2-1.7-1.2-2.8c0-1.1,0.4-2.1,1.2-2.8c0.8-0.8,1.7-1.2,2.8-1.2c1.1,0,2,0.4,2.8,1.2c0.8,0.8,1.2,1.7,1.2,2.8
				c0,1.1-0.4,2.1-1.2,2.8C204.4,168.3,203.5,168.7,202.4,168.7z M202.4,161.7c-0.8,0-1.5,0.3-2.1,0.9c-0.6,0.6-0.9,1.3-0.9,2.2
				s0.3,1.6,0.9,2.2c0.6,0.6,1.3,0.9,2.1,0.9c0.9,0,1.6-0.3,2.2-0.9c0.6-0.6,0.9-1.3,0.9-2.2s-0.3-1.6-0.9-2.2
				C203.9,161.9,203.2,161.7,202.4,161.7z"/>
		</g>
		<g>
			<path class="st2" d="M217.7,178.2v18.3h-5.1v-25h5.1v2.9c1.1-2.9,3.2-4.3,6.3-4.3c2.7,0,4.9,1,6.4,2.9c1.6,1.9,2.4,4.3,2.5,7.2
				v16.3h-5v-16.1c0-1.4-0.5-2.7-1.6-3.7c-1.1-1-2.3-1.5-3.8-1.5c-1.4,0-2.7,0.5-3.7,1.5C218.2,177.3,217.8,177.8,217.7,178.2z"/>
			<path class="st2" d="M233.4,196.9h-6v-16.5c0-1.3-0.5-2.4-1.4-3.4c-1-0.9-2.1-1.4-3.4-1.4c-1.3,0-2.4,0.5-3.4,1.4
				c-0.5,0.5-0.8,0.9-1,1.3v18.7h-6V171h6v1.4c1.3-1.9,3.2-2.8,5.9-2.8c2.8,0,5.1,1,6.8,3c1.7,2,2.5,4.5,2.6,7.5L233.4,196.9z
				 M228.3,196h4.1v-15.8c0-2.8-0.8-5.1-2.4-6.9c-1.5-1.8-3.5-2.7-6.1-2.7c-3,0-4.9,1.3-5.9,4l-0.9,2.5v-5.1h-4.1V196h4.1l0-18
				c0.2-0.5,0.6-1,1.2-1.6c1.2-1.1,2.5-1.6,4.1-1.6c1.6,0,3,0.6,4.1,1.7c1.1,1.1,1.7,2.5,1.7,4V196z"/>
		</g>
		<g>
			<path class="st2" d="M248,190.8c0.8,0.7,2.4,1.1,4.6,1.1c2.4,0,4.4-0.8,6.1-2.5c0.2-0.2,0.6-0.7,1.3-1.5l5,1.8
				c-1.2,1.7-2.1,2.8-2.7,3.4c-2.7,2.7-6,4.1-9.8,4.1c-3.8,0-7.1-1.4-9.8-4.1s-4.1-6-4.1-9.8c0-3.8,1.4-7.1,4.1-9.8
				c2.7-2.7,6-4.1,9.8-4.1c3.3,0,6.1,1,8.6,3c0.4,0.3,0.8,0.7,1.2,1.1c0.2,0.2,0.6,0.7,1.4,1.5l-2.5,2.6L248,190.8z M256.4,175.2
				c-0.6-0.4-1.8-0.7-3.8-0.7c-2.4,0-4.4,0.8-6.1,2.5c-1.7,1.7-2.5,3.7-2.5,6.1c0,2,0.2,3.2,0.7,3.8L256.4,175.2z"/>
			<path class="st2" d="M252.6,197.6c-3.9,0-7.3-1.4-10.1-4.2c-2.8-2.8-4.2-6.2-4.2-10.1c0-3.9,1.4-7.3,4.2-10.1
				c2.8-2.8,6.2-4.2,10.1-4.2c3.4,0,6.4,1,8.9,3.1c0.4,0.4,0.8,0.7,1.2,1.1c0.2,0.2,0.6,0.7,1.4,1.6l0.3,0.3l-2.8,2.9l-12.8,12.8
				c0.8,0.5,2.1,0.7,3.9,0.7c2.3,0,4.2-0.8,5.8-2.4c0.2-0.2,0.6-0.7,1.3-1.5l0.2-0.3l5.9,2.1l-0.4,0.5c-1.3,1.7-2.1,2.9-2.7,3.4
				C260,196.2,256.6,197.6,252.6,197.6z M252.6,169.9c-3.7,0-6.8,1.3-9.4,3.9c-2.6,2.6-3.9,5.8-3.9,9.5c0,3.7,1.3,6.9,3.9,9.5
				c2.6,2.6,5.8,3.9,9.4,3.9c3.7,0,6.9-1.3,9.5-3.9c0.5-0.5,1.2-1.4,2.3-2.8l-4.1-1.5c-0.5,0.6-0.9,1.1-1.1,1.3
				c-1.8,1.8-4,2.7-6.5,2.7c-2.4,0-4-0.4-4.9-1.2l-0.4-0.3l15.8-15.8c-0.6-0.6-0.9-1-1.1-1.2c-0.4-0.4-0.8-0.7-1.2-1.1
				C258.6,170.9,255.8,169.9,252.6,169.9z M244.6,187.8l-0.3-0.4c-0.5-0.7-0.7-2-0.7-4.1c0-2.5,0.9-4.7,2.7-6.5
				c1.8-1.8,3.9-2.7,6.4-2.7c2.1,0,3.4,0.2,4.1,0.8l0.4,0.3L244.6,187.8z M252.6,175.1c-2.2,0-4.2,0.8-5.8,2.4
				c-1.6,1.6-2.4,3.5-2.4,5.8c0,1.6,0.1,2.5,0.3,3l10.9-10.9C255.1,175.2,254.2,175.1,252.6,175.1z"/>
		</g>
		<g>
			<path class="st2" d="M291.2,171.5v-9.4h5v9.4h4.5v5h-4.5v20h-5v-20h-4.5v-5H291.2z"/>
			<path class="st2" d="M296.7,196.9h-6v-20h-4.5v-6h4.5v-9.4h6v9.4h4.5v6h-4.5V196.9z M291.6,196h4.1v-20h4.5v-4.1h-4.5v-9.4h-4.1
				v9.4h-4.5v4.1h4.5V196z"/>
		</g>
		<g>
			<path class="st2" d="M318.9,169.4c3.8,0,7.1,1.4,9.8,4.1c2.7,2.7,4,6,4,9.8c0,3.8-1.3,7.1-4,9.8s-6,4.1-9.8,4.1
				c-3.8,0-7.1-1.4-9.8-4.1c-2.7-2.7-4.1-6-4.1-9.8c0-3.8,1.4-7.1,4.1-9.8C311.8,170.8,315.1,169.4,318.9,169.4z M312.8,177.1
				c-1.7,1.7-2.5,3.7-2.5,6.1c0,2.4,0.8,4.4,2.5,6.1c1.7,1.7,3.7,2.5,6.1,2.5c2.4,0,4.4-0.8,6.1-2.5c1.7-1.7,2.5-3.7,2.5-6.1
				c0-2.4-0.8-4.4-2.5-6.1c-1.7-1.7-3.7-2.6-6.1-2.6C316.5,174.6,314.5,175.4,312.8,177.1z"/>
			<path class="st2" d="M318.9,197.6c-3.9,0-7.3-1.4-10.1-4.2c-2.8-2.8-4.2-6.2-4.2-10.1c0-3.9,1.4-7.3,4.2-10.1
				c2.8-2.8,6.2-4.2,10.1-4.2c3.9,0,7.3,1.4,10.1,4.2c2.8,2.8,4.2,6.2,4.2,10.1c0,3.9-1.4,7.3-4.2,10.1
				C326.2,196.2,322.8,197.6,318.9,197.6z M318.9,169.9c-3.7,0-6.8,1.3-9.4,3.9c-2.6,2.6-3.9,5.8-3.9,9.5c0,3.7,1.3,6.9,3.9,9.5
				c2.6,2.6,5.8,3.9,9.4,3.9c3.7,0,6.9-1.3,9.4-3.9c2.6-2.6,3.9-5.8,3.9-9.5c0-3.7-1.3-6.9-3.9-9.5
				C325.8,171.2,322.6,169.9,318.9,169.9z M318.9,192.4c-2.5,0-4.7-0.9-6.5-2.7c-1.8-1.8-2.7-3.9-2.7-6.5c0-2.5,0.9-4.7,2.7-6.5h0
				c1.8-1.8,4-2.7,6.5-2.7c2.5,0,4.7,0.9,6.5,2.7c1.8,1.8,2.7,4,2.7,6.5c0,2.5-0.9,4.7-2.7,6.5C323.6,191.5,321.4,192.4,318.9,192.4
				z M318.9,175.1c-2.3,0-4.2,0.8-5.8,2.4h0c-1.6,1.6-2.4,3.5-2.4,5.8c0,2.3,0.8,4.2,2.4,5.8c1.6,1.6,3.5,2.4,5.8,2.4
				c2.3,0,4.2-0.8,5.8-2.4c1.6-1.6,2.4-3.5,2.4-5.8c0-2.2-0.8-4.2-2.4-5.8C323.1,175.9,321.2,175.1,318.9,175.1z"/>
		</g>
		<g>
			<path class="st2" d="M360.2,173.2v-15.6h5.1v38.9h-5.1v-3.1c-2.4,2.5-5.3,3.8-8.5,3.8c-3.8,0-7.1-1.4-9.8-4.1s-4-6-4-9.8
				c0-3.8,1.3-7.1,4-9.8c2.7-2.7,6-4.1,9.8-4.1C355,169.4,357.8,170.7,360.2,173.2z M360.2,185.1v-3.7c-0.3-1.6-1.1-3-2.4-4.3
				c-1.7-1.7-3.7-2.6-6.1-2.6c-2.4,0-4.4,0.9-6.1,2.6c-1.7,1.7-2.5,3.7-2.5,6.1c0,2.4,0.8,4.4,2.5,6.1c1.7,1.7,3.7,2.5,6.1,2.5
				c2.4,0,4.4-0.8,6.1-2.5C359.2,188.1,360,186.7,360.2,185.1z"/>
			<path class="st2" d="M351.8,197.6c-3.9,0-7.3-1.4-10.1-4.2c-2.8-2.8-4.2-6.2-4.2-10.1c0-3.9,1.4-7.3,4.2-10.1
				c2.8-2.8,6.2-4.2,10.1-4.2c3,0,5.7,1.1,8,3.1v-15h6v39.8h-6v-2.5C357.4,196.5,354.8,197.6,351.8,197.6z M351.8,169.9
				c-3.7,0-6.9,1.3-9.4,3.9c-2.6,2.6-3.9,5.8-3.9,9.5c0,3.7,1.3,6.9,3.9,9.5c2.6,2.6,5.8,3.9,9.4,3.9c3.1,0,5.8-1.2,8.1-3.6l0.8-0.8
				v3.8h4.1v-37.9h-4.1v16.3l-0.8-0.8C357.6,171.1,354.8,169.9,351.8,169.9z M351.8,192.4c-2.5,0-4.7-0.9-6.5-2.7
				c-1.8-1.8-2.7-3.9-2.7-6.5c0-2.5,0.9-4.7,2.7-6.5c1.8-1.8,4-2.7,6.5-2.7c2.5,0,4.7,0.9,6.5,2.7c1.3,1.3,2.2,2.9,2.5,4.5l0,3.8
				l0,0c-0.3,1.6-1.1,3.2-2.5,4.5C356.5,191.5,354.3,192.4,351.8,192.4z M351.8,175.1c-2.3,0-4.2,0.8-5.8,2.4
				c-1.6,1.6-2.4,3.5-2.4,5.8c0,2.3,0.8,4.2,2.4,5.8c1.6,1.6,3.5,2.4,5.8,2.4c2.3,0,4.2-0.8,5.8-2.4c1.2-1.2,1.9-2.5,2.2-4v-3.7
				c-0.3-1.4-1-2.7-2.2-3.9C356,175.9,354.1,175.1,351.8,175.1z"/>
		</g>
		<g>
			<path class="st2" d="M394.3,173.2v-1.7h5.1v25h-5.1v-3.1c-2.4,2.5-5.2,3.8-8.5,3.8c-3.8,0-7.1-1.3-9.8-4c-2.7-2.7-4-6-4-9.8
				c0-3.8,1.3-7.1,4-9.8c2.7-2.7,6-4,9.8-4C389,169.5,391.8,170.7,394.3,173.2z M394.3,185.1v-3.7c-0.3-1.6-1.1-3-2.3-4.3
				c-1.7-1.7-3.7-2.5-6.1-2.5c-2.4,0-4.4,0.8-6.1,2.5c-1.7,1.7-2.5,3.7-2.5,6.1c0,2.4,0.8,4.4,2.5,6.1c1.7,1.7,3.7,2.5,6.1,2.5
				c2.4,0,4.4-0.8,6.1-2.5C393.2,188.1,394,186.7,394.3,185.1z"/>
			<path class="st2" d="M385.8,197.6c-3.9,0-7.3-1.4-10.1-4.2c-2.8-2.8-4.2-6.2-4.2-10.1c0-3.9,1.4-7.3,4.2-10.1
				c2.8-2.8,6.2-4.2,10.1-4.2c3,0,5.7,1,8,3.1V171h6v26h-6v-2.5C391.5,196.5,388.8,197.6,385.8,197.6z M385.8,169.9
				c-3.7,0-6.9,1.3-9.4,3.9c-2.6,2.6-3.9,5.8-3.9,9.4c0,3.7,1.3,6.9,3.9,9.4c2.6,2.6,5.8,3.9,9.4,3.9c3.1,0,5.8-1.2,8.1-3.6l0.8-0.8
				v3.8h4.1v-24.1h-4.1v2.4l-0.8-0.8C391.6,171.1,388.9,169.9,385.8,169.9z M385.8,192.4c-2.5,0-4.7-0.9-6.5-2.7
				c-1.8-1.8-2.7-3.9-2.7-6.4c0-2.5,0.9-4.7,2.7-6.5c1.8-1.8,4-2.7,6.5-2.7c2.5,0,4.7,0.9,6.5,2.7c1.3,1.3,2.2,2.9,2.5,4.5l0,3.8
				l0,0c-0.3,1.7-1.1,3.2-2.5,4.5C390.5,191.5,388.3,192.4,385.8,192.4z M385.8,175.1c-2.3,0-4.2,0.8-5.8,2.4
				c-1.6,1.6-2.4,3.5-2.4,5.8c0,2.2,0.8,4.2,2.4,5.8c1.6,1.6,3.5,2.4,5.8,2.4c2.3,0,4.2-0.8,5.8-2.4c1.2-1.2,1.9-2.5,2.2-4v-3.6
				c-0.3-1.4-1-2.7-2.2-3.9C390,175.9,388.1,175.1,385.8,175.1z"/>
		</g>
		<g>
			<path class="st2" d="M411.7,191.1c0.6,0.6,1.3,0.9,2.1,0.9s1.5-0.3,2.1-0.9c0.6-0.6,0.9-1.3,0.9-2.2c0-0.8-0.3-1.5-0.9-2.1
				c-0.4-0.4-1.3-1-2.6-1.9c-1.8-1-3.1-1.9-3.9-2.6c-1.3-1.3-2-2.9-2-4.8c0-1.9,0.7-3.5,2-4.8s2.9-2,4.8-2s3.4,0.6,4.7,1.9
				c0.9,0.9,1.5,1.9,1.7,3l-4.9,1.4c-0.1-0.4-0.2-0.7-0.3-0.8c-0.3-0.3-0.7-0.4-1.2-0.4c-0.5,0-0.9,0.2-1.3,0.5s-0.5,0.8-0.5,1.3
				s0.2,0.9,0.5,1.2c0.3,0.3,1,0.8,2.1,1.5c2,1.1,3.5,2.1,4.4,3c1.6,1.6,2.4,3.5,2.4,5.7c0,2.2-0.8,4.1-2.3,5.7
				c-1.6,1.6-3.5,2.4-5.7,2.4c-2.2,0-4.1-0.8-5.7-2.4c-1.1-1.1-1.8-2.4-2.1-4.1l5-1.1C411.1,190.3,411.4,190.8,411.7,191.1z"/>
			<path class="st2" d="M413.8,197.5c-2.3,0-4.4-0.8-6-2.5c-1.1-1.1-1.9-2.6-2.3-4.3l-0.1-0.5l5.9-1.3l0.1,0.5
				c0.2,0.8,0.4,1.2,0.5,1.3c0.5,0.5,1.1,0.7,1.8,0.7c0.7,0,1.3-0.2,1.8-0.7c0.5-0.5,0.7-1.1,0.7-1.8c0-0.7-0.2-1.3-0.7-1.8
				c-0.4-0.4-1.2-1-2.5-1.8c-1.8-1-3.1-1.9-3.9-2.7c-1.4-1.4-2.1-3.1-2.1-5.1c0-2,0.7-3.7,2.1-5.2c1.4-1.4,3.1-2.1,5.1-2.1
				c2,0,3.7,0.7,5,2c0.9,0.9,1.6,2,1.8,3.2l0.1,0.4l-5.8,1.7l-0.1-0.5c-0.1-0.5-0.2-0.6-0.2-0.6c-0.4-0.4-1.2-0.4-1.7,0.1
				c-0.3,0.3-0.4,0.6-0.4,0.9s0.1,0.7,0.4,0.9c0.2,0.2,0.7,0.6,2,1.4c2,1.1,3.5,2.1,4.5,3.1c1.7,1.7,2.5,3.7,2.5,6
				c0,2.4-0.8,4.4-2.5,6.1C418.2,196.6,416.2,197.5,413.8,197.5z M406.6,190.9c0.4,1.3,1,2.5,1.9,3.4c1.5,1.5,3.2,2.2,5.4,2.2
				c2.1,0,3.9-0.8,5.4-2.2c1.5-1.5,2.2-3.3,2.2-5.4c0-2.1-0.7-3.8-2.2-5.3c-0.9-0.9-2.3-1.9-4.3-2.9c-1.1-0.7-1.9-1.2-2.2-1.6
				c-0.4-0.4-0.7-1-0.7-1.6c0-0.6,0.2-1.1,0.7-1.6c0.9-0.9,2.3-0.8,3.1-0.1c0.1,0.1,0.2,0.3,0.3,0.6l4-1.2c-0.3-0.8-0.8-1.6-1.5-2.3
				c-1.2-1.2-2.6-1.8-4.4-1.8s-3.2,0.6-4.5,1.9c-1.2,1.3-1.9,2.7-1.9,4.5c0,1.7,0.6,3.2,1.9,4.5c0.7,0.7,2,1.6,3.8,2.5
				c1.4,0.9,2.3,1.5,2.7,2c0.7,0.7,1,1.5,1,2.4c0,1-0.3,1.8-1,2.5c-0.7,0.7-1.5,1-2.5,1c-0.9,0-1.8-0.3-2.5-1l0,0
				c-0.3-0.3-0.5-0.8-0.7-1.4L406.6,190.9z"/>
		</g>
		<g>
			<path class="st2" d="M450.3,157.6v38.9h-5.1v-38.9H450.3z"/>
			<path class="st2" d="M450.8,196.9h-6v-39.8h6V196.9z M445.7,196h4.1v-38h-4.1V196z"/>
		</g>
		<g>
			<path class="st2" d="M479.3,173.2v-1.7h5.1v25h-5.1v-3.1c-2.4,2.5-5.2,3.8-8.5,3.8c-3.8,0-7.1-1.3-9.8-4c-2.7-2.7-4-6-4-9.8
				c0-3.8,1.3-7.1,4-9.8c2.7-2.7,6-4,9.8-4C474,169.5,476.8,170.7,479.3,173.2z M479.3,185.1v-3.7c-0.3-1.6-1.1-3-2.3-4.3
				c-1.7-1.7-3.7-2.5-6.1-2.5c-2.4,0-4.4,0.8-6.1,2.5c-1.7,1.7-2.5,3.7-2.5,6.1c0,2.4,0.8,4.4,2.5,6.1c1.7,1.7,3.7,2.5,6.1,2.5
				c2.4,0,4.4-0.8,6.1-2.5C478.2,188.1,479,186.7,479.3,185.1z"/>
			<path class="st2" d="M470.8,197.6c-3.9,0-7.3-1.4-10.1-4.2c-2.8-2.8-4.2-6.2-4.2-10.1c0-3.9,1.4-7.3,4.2-10.1
				c2.8-2.8,6.2-4.2,10.1-4.2c3,0,5.7,1,8,3.1V171h6v26h-6v-2.5C476.5,196.5,473.8,197.6,470.8,197.6z M470.8,169.9
				c-3.7,0-6.9,1.3-9.4,3.9c-2.6,2.6-3.9,5.8-3.9,9.4c0,3.7,1.3,6.9,3.9,9.4c2.6,2.6,5.8,3.9,9.4,3.9c3.1,0,5.8-1.2,8.1-3.6l0.8-0.8
				v3.8h4.1v-24.1h-4.1v2.4l-0.8-0.8C476.6,171.1,473.9,169.9,470.8,169.9z M470.8,192.4c-2.5,0-4.7-0.9-6.5-2.7
				c-1.8-1.8-2.7-3.9-2.7-6.4c0-2.5,0.9-4.7,2.7-6.5c1.8-1.8,4-2.7,6.5-2.7c2.5,0,4.7,0.9,6.5,2.7c1.3,1.3,2.2,2.9,2.5,4.5l0,3.8
				l0,0c-0.3,1.7-1.1,3.2-2.5,4.5C475.5,191.5,473.3,192.4,470.8,192.4z M470.8,175.1c-2.3,0-4.2,0.8-5.8,2.4
				c-1.6,1.6-2.4,3.5-2.4,5.8c0,2.2,0.8,4.2,2.4,5.8c1.6,1.6,3.5,2.4,5.8,2.4c2.3,0,4.2-0.8,5.8-2.4c1.2-1.2,1.9-2.5,2.2-4v-3.6
				c-0.3-1.4-1-2.7-2.2-3.9C475,175.9,473.1,175.1,470.8,175.1z"/>
		</g>
		<g>
			<path class="st2" d="M496.7,191.1c0.6,0.6,1.3,0.9,2.1,0.9c0.8,0,1.5-0.3,2.1-0.9c0.6-0.6,0.9-1.3,0.9-2.2c0-0.8-0.3-1.5-0.9-2.1
				c-0.4-0.4-1.3-1-2.6-1.9c-1.8-1-3.1-1.9-3.9-2.6c-1.3-1.3-2-2.9-2-4.8c0-1.9,0.7-3.5,2-4.8s2.9-2,4.8-2c1.9,0,3.4,0.6,4.7,1.9
				c0.9,0.9,1.5,1.9,1.7,3l-4.9,1.4c-0.1-0.4-0.2-0.7-0.3-0.8c-0.3-0.3-0.7-0.4-1.2-0.4c-0.5,0-0.9,0.2-1.3,0.5
				c-0.3,0.3-0.5,0.8-0.5,1.3s0.2,0.9,0.5,1.2c0.3,0.3,1,0.8,2.1,1.5c2,1.1,3.5,2.1,4.4,3c1.6,1.6,2.4,3.5,2.4,5.7
				c0,2.2-0.8,4.1-2.3,5.7c-1.6,1.6-3.5,2.4-5.7,2.4c-2.2,0-4.1-0.8-5.7-2.4c-1.1-1.1-1.8-2.4-2.1-4.1l5-1.1
				C496.1,190.3,496.4,190.8,496.7,191.1z"/>
			<path class="st2" d="M498.8,197.5c-2.3,0-4.4-0.8-6-2.5c-1.1-1.1-1.9-2.6-2.3-4.3l-0.1-0.5l5.9-1.3l0.1,0.5
				c0.2,0.8,0.4,1.2,0.5,1.3c0.5,0.5,1.1,0.7,1.8,0.7s1.3-0.2,1.8-0.7c0.5-0.5,0.7-1.1,0.7-1.8c0-0.7-0.2-1.3-0.7-1.8
				c-0.4-0.4-1.2-1-2.5-1.8c-1.8-1-3.1-1.9-3.9-2.7c-1.4-1.4-2.1-3.1-2.1-5.1c0-2,0.7-3.7,2.1-5.2c1.4-1.4,3.1-2.1,5.1-2.1
				c2,0,3.7,0.7,5,2c0.9,0.9,1.6,2,1.8,3.2l0.1,0.4l-5.8,1.7l-0.1-0.5c-0.1-0.5-0.2-0.6-0.2-0.6c-0.4-0.4-1.2-0.4-1.7,0.1
				c-0.3,0.3-0.4,0.6-0.4,0.9s0.1,0.7,0.4,0.9c0.2,0.2,0.7,0.6,2,1.4c2,1.1,3.5,2.1,4.5,3.1c1.7,1.7,2.5,3.7,2.5,6
				c0,2.4-0.8,4.4-2.5,6.1C503.2,196.6,501.2,197.5,498.8,197.5z M491.6,190.9c0.4,1.3,1,2.5,1.9,3.4c1.5,1.5,3.2,2.2,5.4,2.2
				c2.1,0,3.9-0.7,5.4-2.2c1.5-1.5,2.2-3.3,2.2-5.4c0-2.1-0.7-3.8-2.2-5.3c-0.9-0.9-2.3-1.9-4.3-2.9c-1.1-0.7-1.9-1.2-2.2-1.6
				c-0.4-0.4-0.7-1-0.7-1.6c0-0.6,0.2-1.1,0.7-1.6c0.9-0.9,2.3-0.8,3.1-0.1c0.1,0.1,0.2,0.3,0.3,0.6l4-1.2c-0.3-0.8-0.8-1.6-1.5-2.3
				c-1.2-1.2-2.6-1.8-4.4-1.8c-1.8,0-3.2,0.6-4.5,1.9c-1.2,1.3-1.9,2.7-1.9,4.5c0,1.8,0.6,3.2,1.9,4.5c0.7,0.7,2,1.6,3.8,2.5
				c1.4,0.9,2.3,1.5,2.7,2c0.7,0.7,1,1.5,1,2.4c0,1-0.3,1.8-1,2.5c-0.7,0.7-1.5,1-2.5,1c-0.9,0-1.8-0.3-2.5-1l0,0
				c-0.3-0.3-0.5-0.8-0.7-1.4L491.6,190.9z"/>
		</g>
		<g>
			<path class="st2" d="M533.3,171.5v-9.4h5v9.4h4.5v5h-4.5v20h-5v-20h-4.5v-5H533.3z"/>
			<path class="st2" d="M538.8,196.9h-6v-20h-4.5v-6h4.5v-9.4h6v9.4h4.5v6h-4.5V196.9z M533.8,196h4.1v-20h4.5v-4.1h-4.5v-9.4h-4.1
				v9.4h-4.5v4.1h4.5V196z"/>
		</g>
		<g>
			<path class="st2" d="M556.4,190.8c0.8,0.7,2.4,1.1,4.6,1.1c2.4,0,4.4-0.8,6.1-2.5c0.2-0.2,0.6-0.7,1.3-1.5l5,1.8
				c-1.2,1.7-2.1,2.8-2.7,3.4c-2.7,2.7-6,4.1-9.8,4.1c-3.8,0-7.1-1.4-9.8-4.1c-2.7-2.7-4.1-6-4.1-9.8c0-3.8,1.4-7.1,4.1-9.8
				c2.7-2.7,6-4.1,9.8-4.1c3.3,0,6.1,1,8.6,3c0.4,0.3,0.8,0.7,1.2,1.1c0.2,0.2,0.6,0.7,1.4,1.5l-2.5,2.6L556.4,190.8z M564.8,175.2
				c-0.6-0.4-1.8-0.7-3.8-0.7c-2.4,0-4.4,0.8-6.1,2.5c-1.7,1.7-2.5,3.7-2.5,6.1c0,2,0.2,3.2,0.7,3.8L564.8,175.2z M561.8,162.3h6.1
				l-6.6,6.8h-4.8L561.8,162.3z"/>
			<path class="st2" d="M561,197.6c-3.9,0-7.3-1.4-10.1-4.2c-2.8-2.8-4.2-6.2-4.2-10.1c0-3.9,1.4-7.3,4.2-10.1c1.8-1.8,3.8-3,6-3.6
				h-1.3l6-7.7h7.5l-7,7.2c2.9,0.2,5.6,1.2,7.9,3c0.4,0.4,0.8,0.7,1.2,1.1c0.2,0.2,0.6,0.7,1.4,1.6l0.3,0.3l-2.8,2.9l-12.8,12.8
				c0.8,0.5,2.1,0.7,3.9,0.7c2.3,0,4.2-0.8,5.8-2.4c0.2-0.2,0.6-0.7,1.3-1.5l0.2-0.3l5.9,2.1l-0.4,0.5c-1.3,1.7-2.1,2.9-2.7,3.4
				C568.4,196.2,565,197.6,561,197.6z M561,169.9c-3.7,0-6.8,1.3-9.4,3.9c-2.6,2.6-3.9,5.8-3.9,9.5c0,3.7,1.3,6.9,3.9,9.5
				c2.6,2.6,5.8,3.9,9.4,3.9c3.7,0,6.9-1.3,9.5-3.9c0.5-0.5,1.2-1.4,2.3-2.8l-4.1-1.5c-0.5,0.6-0.9,1.1-1.1,1.3
				c-1.8,1.8-4,2.7-6.5,2.7c-2.4,0-4-0.4-4.9-1.2l-0.4-0.3l15.8-15.8c-0.6-0.6-0.9-1-1.1-1.2c-0.4-0.4-0.8-0.7-1.2-1.1
				C567,170.9,564.2,169.9,561,169.9z M557.5,168.6h3.6l5.7-5.8h-4.8L557.5,168.6z M553,187.8l-0.3-0.4c-0.5-0.7-0.8-2-0.8-4.1
				c0-2.5,0.9-4.7,2.7-6.5c1.8-1.8,3.9-2.7,6.4-2.7c2.1,0,3.4,0.2,4.1,0.8l0.4,0.3L553,187.8z M561,175.1c-2.2,0-4.2,0.8-5.8,2.4
				c-1.6,1.6-2.4,3.5-2.4,5.8c0,1.6,0.1,2.5,0.3,3l10.9-10.9C563.5,175.2,562.6,175.1,561,175.1z"/>
		</g>
		<g>
			<path class="st2" d="M599.1,187.9l5,1.8c-1.2,1.7-2.1,2.8-2.7,3.4c-2.7,2.7-6,4.1-9.8,4.1c-3.8,0-7.1-1.4-9.8-4.1
				c-2.7-2.7-4.1-6-4.1-9.8c0-3.8,1.4-7.1,4.1-9.8c2.7-2.7,6-4.1,9.8-4.1c3.8,0,7.1,1.4,9.8,4.1c0.5,0.6,1.4,1.7,2.7,3.3l-5,1.8
				c-0.6-0.8-1.1-1.3-1.3-1.5c-1.7-1.7-3.7-2.5-6.1-2.5c-2.4,0-4.4,0.8-6.1,2.5c-1.7,1.7-2.5,3.7-2.5,6.1c0,2.4,0.8,4.4,2.5,6.1
				c1.7,1.7,3.7,2.5,6.1,2.5c2.4,0,4.4-0.8,6.1-2.5C598,189.2,598.5,188.7,599.1,187.9z"/>
			<path class="st2" d="M591.7,197.6c-3.9,0-7.3-1.4-10.1-4.2c-2.8-2.8-4.2-6.2-4.2-10.1c0-3.9,1.4-7.3,4.2-10.1s6.2-4.2,10.1-4.2
				c3.9,0,7.3,1.4,10.1,4.2c0.6,0.6,1.5,1.7,2.7,3.4l0.4,0.5l-5.9,2.2l-0.2-0.3c-0.6-0.8-1.1-1.3-1.3-1.5c-1.6-1.6-3.5-2.4-5.8-2.4
				c-2.2,0-4.2,0.8-5.8,2.4c-1.6,1.6-2.4,3.5-2.4,5.8c0,2.3,0.8,4.2,2.4,5.8c1.6,1.6,3.5,2.4,5.8,2.4c2.3,0,4.2-0.8,5.8-2.4
				c0.2-0.2,0.6-0.7,1.3-1.5l0.2-0.3l5.9,2.1l-0.4,0.5c-1.3,1.7-2.1,2.9-2.7,3.4C599,196.2,595.6,197.6,591.7,197.6z M591.7,169.9
				c-3.7,0-6.8,1.3-9.4,3.9c-2.6,2.6-3.9,5.8-3.9,9.5c0,3.7,1.3,6.9,3.9,9.5c2.6,2.6,5.8,3.9,9.4,3.9c3.7,0,6.9-1.3,9.5-3.9
				c0.5-0.5,1.2-1.4,2.3-2.8l-4.1-1.5c-0.5,0.6-0.9,1.1-1.1,1.3c-1.8,1.8-4,2.7-6.5,2.7c-2.5,0-4.7-0.9-6.4-2.7
				c-1.8-1.8-2.7-3.9-2.7-6.4c0-2.5,0.9-4.7,2.7-6.5c1.8-1.8,3.9-2.7,6.4-2.7c2.5,0,4.7,0.9,6.5,2.7c0.2,0.2,0.6,0.6,1.1,1.3
				l4.1-1.5c-1-1.4-1.8-2.3-2.3-2.8C598.5,171.2,595.4,169.9,591.7,169.9z"/>
		</g>
		<g>
			<path class="st2" d="M615,178.2v18.3H610v-25h5.1v2.9c1.1-2.9,3.2-4.3,6.3-4.3c2.7,0,4.9,1,6.4,2.9c1.6,1.9,2.4,4.3,2.5,7.2v16.3
				h-5v-16.1c0-1.4-0.5-2.7-1.6-3.7c-1.1-1-2.3-1.5-3.8-1.5c-1.4,0-2.7,0.5-3.7,1.5C615.6,177.3,615.2,177.8,615,178.2z"/>
			<path class="st2" d="M630.8,196.9h-6v-16.5c0-1.3-0.5-2.4-1.4-3.4c-1-0.9-2.1-1.4-3.4-1.4c-1.3,0-2.4,0.5-3.4,1.4
				c-0.5,0.5-0.8,0.9-1,1.3v18.7h-6V171h6v1.4c1.3-1.9,3.2-2.8,5.9-2.8c2.8,0,5.1,1,6.8,3c1.7,2,2.5,4.5,2.6,7.5V196.9z M625.7,196
				h4.1v-15.8c0-2.8-0.8-5.1-2.4-6.9c-1.5-1.8-3.5-2.7-6.1-2.7c-3,0-4.9,1.3-5.9,4l-0.9,2.5v-5.1h-4.1V196h4.1l0-18
				c0.2-0.5,0.6-1,1.2-1.6c1.2-1.1,2.5-1.6,4.1-1.6c1.6,0,3,0.6,4.1,1.7c1.1,1.1,1.7,2.5,1.7,4V196z"/>
		</g>
		<g>
			<path class="st2" d="M643.1,162.2c0.7,0.7,1,1.5,1,2.5c0,1-0.3,1.8-1,2.5c-0.7,0.7-1.5,1-2.5,1c-1,0-1.8-0.3-2.5-1
				c-0.7-0.7-1-1.5-1-2.5c0-1,0.3-1.8,1-2.5s1.5-1,2.5-1C641.5,161.2,642.4,161.5,643.1,162.2z M643.1,171.5v25h-5v-25H643.1z"/>
			<path class="st2" d="M643.6,196.9h-6V171h6V196.9z M638.5,196h4.1v-24.1h-4.1V196z M640.6,168.7c-1.1,0-2-0.4-2.8-1.2
				c-0.8-0.8-1.2-1.7-1.2-2.8s0.4-2.1,1.2-2.8c0.8-0.8,1.7-1.2,2.8-1.2c1.1,0,2,0.4,2.8,1.2c0.8,0.8,1.2,1.7,1.2,2.8
				c0,1.1-0.4,2.1-1.2,2.8C642.6,168.3,641.7,168.7,640.6,168.7z M640.6,161.7c-0.8,0-1.5,0.3-2.1,0.9c-0.6,0.6-0.9,1.3-0.9,2.2
				s0.3,1.6,0.9,2.2c0.6,0.6,1.3,0.9,2.1,0.9c0.9,0,1.6-0.3,2.2-0.9c0.6-0.6,0.9-1.3,0.9-2.2s-0.3-1.6-0.9-2.2
				C642.1,161.9,641.4,161.7,640.6,161.7z"/>
		</g>
		<g>
			<path class="st2" d="M670.6,187.9l5,1.8c-1.2,1.7-2.1,2.8-2.7,3.4c-2.7,2.7-6,4.1-9.8,4.1c-3.8,0-7.1-1.4-9.8-4.1
				c-2.7-2.7-4.1-6-4.1-9.8c0-3.8,1.4-7.1,4.1-9.8c2.7-2.7,6-4.1,9.8-4.1c3.8,0,7.1,1.4,9.8,4.1c0.5,0.6,1.4,1.7,2.7,3.3l-5,1.8
				c-0.6-0.8-1.1-1.3-1.3-1.5c-1.7-1.7-3.7-2.5-6.1-2.5c-2.4,0-4.4,0.8-6.1,2.5c-1.7,1.7-2.5,3.7-2.5,6.1c0,2.4,0.8,4.4,2.5,6.1
				c1.7,1.7,3.7,2.5,6.1,2.5c2.4,0,4.4-0.8,6.1-2.5C669.5,189.2,669.9,188.7,670.6,187.9z"/>
			<path class="st2" d="M663.2,197.6c-3.9,0-7.3-1.4-10.1-4.2c-2.8-2.8-4.2-6.2-4.2-10.1c0-3.9,1.4-7.3,4.2-10.1s6.2-4.2,10.1-4.2
				c3.9,0,7.3,1.4,10.1,4.2c0.6,0.6,1.5,1.7,2.7,3.4l0.4,0.5l-5.9,2.2l-0.2-0.3c-0.6-0.8-1.1-1.3-1.3-1.5c-1.6-1.6-3.5-2.4-5.8-2.4
				c-2.2,0-4.2,0.8-5.8,2.4c-1.6,1.6-2.4,3.5-2.4,5.8c0,2.3,0.8,4.2,2.4,5.8c1.6,1.6,3.5,2.4,5.8,2.4c2.3,0,4.2-0.8,5.8-2.4
				c0.2-0.2,0.6-0.7,1.3-1.5l0.2-0.3l5.9,2.1L676,190c-1.3,1.7-2.1,2.9-2.7,3.4C670.5,196.2,667.1,197.6,663.2,197.6z M663.2,169.9
				c-3.7,0-6.8,1.3-9.4,3.9c-2.6,2.6-3.9,5.8-3.9,9.5c0,3.7,1.3,6.9,3.9,9.5c2.6,2.6,5.8,3.9,9.4,3.9c3.7,0,6.9-1.3,9.5-3.9
				c0.5-0.5,1.2-1.4,2.3-2.8l-4.1-1.5c-0.5,0.6-0.9,1.1-1.1,1.3c-1.8,1.8-4,2.7-6.5,2.7c-2.5,0-4.7-0.9-6.4-2.7
				c-1.8-1.8-2.7-3.9-2.7-6.4c0-2.5,0.9-4.7,2.7-6.5c1.8-1.8,3.9-2.7,6.4-2.7c2.5,0,4.7,0.9,6.5,2.7c0.2,0.2,0.6,0.6,1.1,1.3
				l4.1-1.5c-1-1.4-1.8-2.3-2.3-2.8C670,171.2,666.8,169.9,663.2,169.9z"/>
		</g>
		<g>
			<path class="st2" d="M703.1,173.2v-1.7h5.1v25h-5.1v-3.1c-2.4,2.5-5.2,3.8-8.5,3.8c-3.8,0-7.1-1.3-9.8-4c-2.7-2.7-4-6-4-9.8
				c0-3.8,1.3-7.1,4-9.8s6-4,9.8-4C697.9,169.5,700.7,170.7,703.1,173.2z M703.1,185.1v-3.7c-0.3-1.6-1.1-3-2.3-4.3
				c-1.7-1.7-3.7-2.5-6.1-2.5c-2.4,0-4.4,0.8-6.1,2.5c-1.7,1.7-2.5,3.7-2.5,6.1c0,2.4,0.8,4.4,2.5,6.1c1.7,1.7,3.7,2.5,6.1,2.5
				c2.4,0,4.4-0.8,6.1-2.5C702,188.1,702.8,186.7,703.1,185.1z"/>
			<path class="st2" d="M694.7,197.6c-3.9,0-7.3-1.4-10.1-4.2c-2.8-2.8-4.2-6.2-4.2-10.1c0-3.9,1.4-7.3,4.2-10.1s6.2-4.2,10.1-4.2
				c3,0,5.7,1,8,3.1V171h6v26h-6v-2.5C700.3,196.5,697.6,197.6,694.7,197.6z M694.7,169.9c-3.7,0-6.9,1.3-9.4,3.9
				c-2.6,2.6-3.9,5.8-3.9,9.4c0,3.7,1.3,6.9,3.9,9.4c2.6,2.6,5.8,3.9,9.4,3.9c3.1,0,5.8-1.2,8.1-3.6l0.8-0.8v3.8h4.1v-24.1h-4.1v2.4
				l-0.8-0.8C700.5,171.1,697.7,169.9,694.7,169.9z M694.7,192.4c-2.5,0-4.7-0.9-6.5-2.7c-1.8-1.8-2.7-3.9-2.7-6.4
				c0-2.5,0.9-4.7,2.7-6.5c1.8-1.8,4-2.7,6.5-2.7c2.5,0,4.7,0.9,6.5,2.7c1.3,1.3,2.2,2.9,2.5,4.5l0,3.8l0,0
				c-0.3,1.7-1.1,3.2-2.5,4.5C699.3,191.5,697.2,192.4,694.7,192.4z M694.7,175.1c-2.3,0-4.2,0.8-5.8,2.4c-1.6,1.6-2.4,3.5-2.4,5.8
				c0,2.2,0.8,4.2,2.4,5.8c1.6,1.6,3.5,2.4,5.8,2.4c2.2,0,4.2-0.8,5.8-2.4c1.2-1.2,1.9-2.5,2.2-4v-3.6c-0.3-1.4-1-2.7-2.2-3.9
				C698.9,175.9,696.9,175.1,694.7,175.1z"/>
		</g>
		<g>
			<path class="st2" d="M720.5,191.1c0.6,0.6,1.3,0.9,2.1,0.9c0.8,0,1.5-0.3,2.1-0.9c0.6-0.6,0.9-1.3,0.9-2.2c0-0.8-0.3-1.5-0.9-2.1
				c-0.4-0.4-1.3-1-2.6-1.9c-1.8-1-3.1-1.9-3.9-2.6c-1.3-1.3-2-2.9-2-4.8c0-1.9,0.7-3.5,2-4.8s2.9-2,4.8-2c1.9,0,3.4,0.6,4.7,1.9
				c0.9,0.9,1.5,1.9,1.7,3l-4.9,1.4c-0.1-0.4-0.2-0.7-0.3-0.8c-0.3-0.3-0.7-0.4-1.2-0.4c-0.5,0-0.9,0.2-1.3,0.5
				c-0.3,0.3-0.5,0.8-0.5,1.3s0.2,0.9,0.5,1.2c0.3,0.3,1,0.8,2.1,1.5c2,1.1,3.5,2.1,4.4,3c1.6,1.6,2.4,3.5,2.4,5.7
				c0,2.2-0.8,4.1-2.3,5.7c-1.6,1.6-3.5,2.4-5.7,2.4c-2.2,0-4.1-0.8-5.7-2.4c-1.1-1.1-1.8-2.4-2.1-4.1l5-1.1
				C720,190.3,720.2,190.8,720.5,191.1z"/>
			<path class="st2" d="M722.7,197.5c-2.3,0-4.4-0.8-6-2.5c-1.1-1.1-1.9-2.6-2.3-4.3l-0.1-0.5l5.9-1.3l0.1,0.5
				c0.2,0.8,0.4,1.2,0.5,1.3c0.5,0.5,1.1,0.7,1.8,0.7s1.3-0.2,1.8-0.7c0.5-0.5,0.7-1.1,0.7-1.8c0-0.7-0.2-1.3-0.7-1.8
				c-0.4-0.4-1.2-1-2.5-1.8c-1.8-1-3.1-1.9-3.9-2.7c-1.4-1.4-2.1-3.1-2.1-5.1c0-2,0.7-3.7,2.1-5.2c1.4-1.4,3.1-2.1,5.1-2.1
				c2,0,3.7,0.7,5,2c0.9,0.9,1.6,2,1.8,3.2l0.1,0.4l-5.8,1.7l-0.1-0.5c-0.1-0.5-0.2-0.6-0.2-0.6c-0.4-0.4-1.2-0.4-1.7,0.1
				c-0.3,0.3-0.4,0.6-0.4,0.9s0.1,0.7,0.4,0.9c0.2,0.2,0.7,0.6,2,1.4c2,1.1,3.5,2.1,4.5,3.1c1.7,1.7,2.5,3.7,2.5,6
				c0,2.4-0.8,4.4-2.5,6.1C727.1,196.6,725,197.5,722.7,197.5z M715.4,190.9c0.4,1.3,1,2.5,1.9,3.4c1.5,1.5,3.2,2.2,5.4,2.2
				c2.1,0,3.9-0.7,5.4-2.2c1.5-1.5,2.2-3.3,2.2-5.4c0-2.1-0.7-3.8-2.2-5.3c-0.9-0.9-2.3-1.9-4.3-2.9c-1.1-0.7-1.9-1.2-2.2-1.6
				c-0.4-0.4-0.7-1-0.7-1.6c0-0.6,0.2-1.1,0.7-1.6c0.9-0.9,2.3-0.8,3.1-0.1c0.1,0.1,0.2,0.3,0.3,0.6l4-1.2c-0.3-0.8-0.8-1.6-1.5-2.3
				c-1.2-1.2-2.6-1.8-4.4-1.8c-1.8,0-3.2,0.6-4.5,1.9c-1.2,1.3-1.9,2.7-1.9,4.5c0,1.8,0.6,3.2,1.9,4.5c0.7,0.7,2,1.6,3.8,2.5
				c1.4,0.9,2.3,1.5,2.7,2c0.7,0.7,1,1.5,1,2.4c0,1-0.3,1.8-1,2.5c-0.7,0.7-1.5,1-2.5,1c-0.9,0-1.8-0.3-2.5-1l0,0
				c-0.3-0.3-0.5-0.8-0.7-1.4L715.4,190.9z"/>
		</g>
		<g>
			<path class="st2" d="M742.1,189.7l-5.6,11.7h-4.8l3.1-11.7H742.1z"/>
			<path class="st2" d="M736.8,201.8h-5.7l3.4-12.6h8.4L736.8,201.8z M732.3,200.9h3.9l5.2-10.7h-6.2L732.3,200.9z"/>
		</g>
	</g>
	<g>
		<path class="st22" d="M31.2,42.7c13.6,3,20.9,14.2,20.9,25.1c0,14.2-11.2,26-25.4,26C12.1,93.9,0,83.9,0,66
			C0,38.5,15.1,13.6,33.6,0L50,18.2C43.6,22.4,32.7,33,31.2,42.7z M91.8,42.7c13.6,3,20.9,14.2,20.9,25.1c0,14.2-11.2,26-25.4,26
			c-14.5,0-26.7-10-26.7-27.9c0-27.6,15.1-52.4,33.6-66l16.4,18.2C104.2,22.4,93.3,33,91.8,42.7z"/>
	</g>
	<g>
		<path class="st22" d="M854,303.8l16.4-18.2c18.5,13.6,33.6,38.5,33.6,66c0,17.9-12.1,27.9-26.7,27.9c-14.2,0-25.4-11.8-25.4-26
			c0-10.9,7.3-22.1,20.9-25.1C871.2,318.7,860.3,308.1,854,303.8z M914.5,303.8l16.4-18.2c18.5,13.6,33.6,38.5,33.6,66
			c0,17.9-12.1,27.9-26.6,27.9c-14.2,0-25.4-11.8-25.4-26c0-10.9,7.3-22.1,20.9-25.1C931.8,318.7,920.9,308.1,914.5,303.8z"/>
	</g>
	<g>
		<g>
			<path class="st2" d="M130.1,399c-1.6,0.8-4.8,1.6-8.9,1.6c-9.5,0-16.6-6-16.6-17c0-10.5,7.1-17.6,17.5-17.6c4.2,0,6.8,0.9,8,1.5
				l-1,3.5c-1.6-0.8-4-1.4-6.8-1.4c-7.9,0-13.1,5-13.1,13.8c0,8.2,4.7,13.5,12.9,13.5c2.6,0,5.3-0.5,7.1-1.4L130.1,399z"/>
			<path class="st2" d="M134.3,397.5c0-1.8,1.2-3.1,3-3.1s2.9,1.3,2.9,3.1c0,1.8-1.1,3.1-3,3.1C135.5,400.6,134.3,399.3,134.3,397.5
				z"/>
			<path class="st2" d="M152.7,366.5h4.3V389c0,8.9-4.4,11.6-10.1,11.6c-1.6,0-3.5-0.3-4.6-0.8l0.6-3.5c0.9,0.3,2.2,0.6,3.6,0.6
				c3.9,0,6.2-1.7,6.2-8.3V366.5z"/>
			<path class="st2" d="M162.5,397.5c0-1.8,1.2-3.1,3-3.1s2.9,1.3,2.9,3.1c0,1.8-1.1,3.1-3,3.1C163.7,400.6,162.5,399.3,162.5,397.5
				z"/>
		</g>
	</g>
</g>
</svg>
