<?xml version="1.0" encoding="utf-8"?>
<!-- Generator: Adobe Illustrator 21.0.0, SVG Export Plug-In . SVG Version: 6.00 Build 0)  -->
<svg version="1.1" id="Layer_1" xmlns="http://www.w3.org/2000/svg" xmlns:xlink="http://www.w3.org/1999/xlink" x="0px" y="0px"
	 viewBox="0 0 628.4 245.3" style="enable-background:new 0 0 628.4 245.3;" xml:space="preserve">
<style type="text/css">
	.st0{fill:#EDEDED;}
	.st1{fill:#685989;}
	.st2{fill:#864D7D;}
	.st3{fill:#BEDBC3;}
	.st4{fill:#9CC1C8;}
	.st5{opacity:0.5;fill:#9CC1C8;}
	.st6{fill:#D3DEE4;}
	.st7{fill:#007271;}
	.st8{fill:#369999;}
	.st9{fill:#4D2B2B;}
	.st10{fill:#3A1F1E;}
	.st11{fill:#E95B4E;}
	.st12{fill:#EE8268;}
	.st13{fill:#C83D36;}
	.st14{fill:#F6B99F;}
	.st15{fill:#EEE9DC;}
	.st16{fill:#F19775;}
	.st17{fill:#6B3E3F;}
	.st18{fill:#C7BDB7;}
	.st19{fill:#D1D5CA;}
	.st20{fill:#2B3668;}
	.st21{fill:#EE827D;}
	.st22{fill:#F87481;}
	.st23{fill:#FFFFFF;stroke:#FFFFFF;stroke-miterlimit:10;}
	.st24{fill:#FFFFFF;}
	.st25{opacity:0.3;clip-path:url(#SVGID_2_);}
	.st26{opacity:0.3;clip-path:url(#SVGID_4_);}
	.st27{opacity:0.3;clip-path:url(#SVGID_6_);}
	.st28{fill:#7087AF;}
	.st29{clip-path:url(#SVGID_8_);}
	.st30{fill:#B2555F;}
	.st31{fill:#47284F;}
	.st32{fill:#FFBF9B;}
	.st33{fill:#FFA687;}
	.st34{fill:#72426B;}
	.st35{fill:#FFC9AC;}
	.st36{fill:#C19884;}
	.st37{fill:#FFA68D;}
	.st38{fill:#13A6CE;}
	.st39{fill:#4E2447;}
	.st40{opacity:0.3;}
	.st41{fill:#1A2E35;}
	.st42{fill:#FFBF9D;}
	.st43{fill:#FF9A6C;}
	.st44{fill:#375A64;}
	.st45{fill:#E1E1E1;}
	.st46{opacity:0.2;}
	.st47{fill:#FF4F5B;}
	.st48{fill:#EBEBEB;}
	.st49{fill:#AA6550;}
	.st50{fill:#FAFAFA;}
</style>
<g>
	<rect x="0" y="0" class="st4" width="568.1" height="75.2"/>
	<rect x="0" y="170.1" class="st22" width="568.1" height="75.2"/>
	<rect x="60.3" y="85.1" class="st2" width="568.1" height="75.2"/>
	<g>
		<path class="st23" d="M45.4,24.4c0.6,0.6,0.9,1.3,0.9,2.1c0,0.8-0.3,1.5-0.9,2.1c-0.6,0.6-1.3,0.9-2.1,0.9c-0.8,0-1.5-0.3-2.1-0.9
			c-0.6-0.6-0.9-1.3-0.9-2.1c0-0.4,0.1-0.9,0.2-1.3l2.2-4.5h3.9L45.4,24.4z M52.3,24.4c0.6,0.6,0.9,1.3,0.9,2.1
			c0,0.8-0.3,1.5-0.9,2.1c-0.6,0.6-1.3,0.9-2.1,0.9c-0.8,0-1.5-0.3-2.1-0.9s-0.9-1.3-0.9-2.1c0-0.4,0.1-0.9,0.2-1.3l2.2-4.5h3.9
			L52.3,24.4z"/>
		<path class="st23" d="M66.3,49c0.7,0.6,2,0.9,3.9,0.9c2,0,3.8-0.7,5.2-2.1c0.2-0.2,0.5-0.6,1.1-1.3l4.3,1.5
			c-1,1.4-1.8,2.4-2.3,2.9c-2.3,2.3-5,3.4-8.3,3.4c-3.2,0-6-1.1-8.3-3.4c-2.3-2.3-3.4-5-3.4-8.3c0-3.2,1.1-6,3.4-8.3
			c2.3-2.3,5-3.4,8.3-3.4c2.8,0,5.2,0.8,7.3,2.5c0.3,0.3,0.7,0.6,1,0.9c0.1,0.1,0.5,0.6,1.2,1.3l-2.1,2.2L66.3,49z M73.4,35.9
			c-0.5-0.4-1.6-0.6-3.2-0.6c-2,0-3.7,0.7-5.2,2.1c-1.4,1.4-2.1,3.2-2.1,5.2c0,1.7,0.2,2.7,0.6,3.2L73.4,35.9z"/>
		<path class="st23" d="M92,21v32.9h-4.3V21H92z"/>
		<path class="st23" d="M123.5,49c0.7,0.6,2,0.9,3.9,0.9c2,0,3.8-0.7,5.2-2.1c0.2-0.2,0.5-0.6,1.1-1.3l4.3,1.5
			c-1,1.4-1.8,2.4-2.3,2.9c-2.3,2.3-5,3.4-8.3,3.4c-3.2,0-6-1.1-8.3-3.4c-2.3-2.3-3.4-5-3.4-8.3c0-3.2,1.1-6,3.4-8.3
			c2.3-2.3,5-3.4,8.3-3.4c2.8,0,5.2,0.8,7.3,2.5c0.3,0.3,0.7,0.6,1,0.9c0.1,0.1,0.5,0.6,1.2,1.3l-2.1,2.2L123.5,49z M130.6,35.9
			c-0.5-0.4-1.6-0.6-3.2-0.6c-2,0-3.7,0.7-5.2,2.1c-1.4,1.4-2.1,3.2-2.1,5.2c0,1.7,0.2,2.7,0.6,3.2L130.6,35.9z"/>
		<path class="st23" d="M149.2,49.3c0.5,0.5,1.1,0.7,1.8,0.7s1.3-0.2,1.8-0.7c0.5-0.5,0.7-1.1,0.7-1.8c0-0.7-0.2-1.3-0.7-1.8
			c-0.3-0.3-1.1-0.9-2.2-1.6c-1.5-0.8-2.6-1.6-3.3-2.2c-1.1-1.1-1.7-2.5-1.7-4c0-1.6,0.6-2.9,1.7-4.1c1.1-1.1,2.5-1.7,4.1-1.7
			s2.9,0.5,4,1.6c0.8,0.8,1.2,1.6,1.4,2.5l-4.1,1.2c-0.1-0.3-0.2-0.6-0.3-0.7c-0.2-0.2-0.6-0.4-1-0.4s-0.8,0.1-1.1,0.4
			c-0.3,0.3-0.4,0.6-0.4,1.1s0.1,0.8,0.4,1c0.3,0.2,0.8,0.7,1.8,1.3c1.7,0.9,2.9,1.8,3.7,2.5c1.3,1.3,2,2.9,2,4.8
			c0,1.9-0.7,3.5-2,4.8c-1.3,1.3-2.9,2-4.8,2c-1.9,0-3.5-0.7-4.8-2c-0.9-0.9-1.5-2.1-1.8-3.4l4.2-0.9C148.8,48.6,149,49,149.2,49.3z
			"/>
		<path class="st23" d="M168,32.7v-7.9h4.3v7.9h3.8V37h-3.8v16.9H168V37h-3.8v-4.3H168z"/>
		<path class="st23" d="M201.5,34.2v-1.5h4.3v21.1h-4.3v-2.6c-2.1,2.1-4.4,3.2-7.1,3.2c-3.2,0-6-1.1-8.3-3.4c-2.3-2.3-3.4-5-3.4-8.3
			c0-3.2,1.1-6,3.4-8.3c2.3-2.3,5-3.4,8.3-3.4C197,31,199.4,32.1,201.5,34.2z M201.5,44.3v-3.1c-0.2-1.3-0.9-2.5-2-3.6
			c-1.4-1.4-3.2-2.1-5.2-2.1c-2,0-3.8,0.7-5.2,2.1c-1.4,1.4-2.1,3.1-2.1,5.2c0,2,0.7,3.7,2.1,5.2c1.4,1.4,3.2,2.1,5.2,2.1
			c2,0,3.7-0.7,5.2-2.1C200.6,46.8,201.2,45.6,201.5,44.3z"/>
		<path class="st23" d="M232.3,34.2V21h4.3v32.9h-4.3v-2.6c-2.1,2.1-4.4,3.2-7.2,3.2c-3.2,0-6-1.1-8.3-3.4c-2.3-2.3-3.4-5-3.4-8.3
			c0-3.2,1.1-6,3.4-8.3c2.3-2.3,5-3.4,8.3-3.4C227.9,31,230.3,32,232.3,34.2z M232.3,44.3v-3.1c-0.2-1.3-0.9-2.5-2-3.6
			c-1.4-1.4-3.1-2.2-5.2-2.2c-2,0-3.8,0.7-5.2,2.2c-1.4,1.4-2.1,3.2-2.1,5.2c0,2,0.7,3.8,2.1,5.2c1.4,1.4,3.2,2.1,5.2,2.1
			c2,0,3.8-0.7,5.2-2.1C231.4,46.8,232.1,45.6,232.3,44.3z"/>
		<path class="st23" d="M255.3,31c3.2,0,6,1.1,8.3,3.4c2.3,2.3,3.4,5,3.4,8.3c0,3.2-1.1,6-3.4,8.3c-2.3,2.3-5,3.4-8.3,3.4
			c-3.2,0-6-1.1-8.3-3.4c-2.3-2.3-3.4-5-3.4-8.3c0-3.2,1.1-6,3.4-8.3C249.4,32.1,252.1,31,255.3,31z M250.1,37.5
			c-1.4,1.4-2.1,3.2-2.1,5.2c0,2,0.7,3.8,2.1,5.2c1.4,1.4,3.2,2.1,5.2,2.1c2,0,3.8-0.7,5.2-2.1c1.4-1.4,2.1-3.1,2.1-5.2
			c0-2-0.7-3.7-2.1-5.2c-1.4-1.4-3.2-2.2-5.2-2.2C253.3,35.4,251.6,36.1,250.1,37.5z"/>
		<path class="st23" d="M309,34.2V21h4.3v32.9H309v-2.6c-2.1,2.1-4.4,3.2-7.2,3.2c-3.2,0-6-1.1-8.3-3.4c-2.3-2.3-3.4-5-3.4-8.3
			c0-3.2,1.1-6,3.4-8.3c2.3-2.3,5-3.4,8.3-3.4C304.6,31,307,32,309,34.2z M309,44.3v-3.1c-0.2-1.3-0.9-2.5-2-3.6
			c-1.4-1.4-3.1-2.2-5.2-2.2c-2,0-3.8,0.7-5.2,2.2c-1.4,1.4-2.1,3.2-2.1,5.2c0,2,0.7,3.8,2.1,5.2c1.4,1.4,3.2,2.1,5.2,2.1
			c2,0,3.8-0.7,5.2-2.1C308.1,46.8,308.8,45.6,309,44.3z"/>
		<path class="st23" d="M328.1,49c0.7,0.6,2,0.9,3.9,0.9c2,0,3.8-0.7,5.2-2.1c0.2-0.2,0.5-0.6,1.1-1.3l4.3,1.5
			c-1,1.4-1.8,2.4-2.3,2.9c-2.3,2.3-5,3.4-8.3,3.4c-3.2,0-6-1.1-8.3-3.4c-2.3-2.3-3.4-5-3.4-8.3c0-3.2,1.1-6,3.4-8.3
			c2.3-2.3,5-3.4,8.3-3.4c2.8,0,5.2,0.8,7.3,2.5c0.3,0.3,0.7,0.6,1,0.9c0.1,0.1,0.5,0.6,1.2,1.3l-2.1,2.2L328.1,49z M335.2,35.9
			c-0.5-0.4-1.6-0.6-3.2-0.6c-2,0-3.7,0.7-5.2,2.1c-1.4,1.4-2.1,3.2-2.1,5.2c0,1.7,0.2,2.7,0.6,3.2L335.2,35.9z"/>
		<path class="st23" d="M368.8,32.7v-7.9h4.2v7.9h3.8V37H373v16.9h-4.2V37H365v-4.3H368.8z"/>
		<path class="st23" d="M392.8,54.1c-2.7,0-4.8-0.8-6.4-2.4c-1.6-1.6-2.5-3.7-2.5-6.1V32.7h4.3v12.7c0,1.2,0.4,2.3,1.3,3.1
			c0.9,0.9,2,1.3,3.3,1.3c1.2,0,2.3-0.4,3.2-1.3c0.9-0.9,1.3-1.9,1.3-3.2V32.7h4.2v12.9c0,2.5-0.9,4.5-2.5,6.1
			C397.5,53.3,395.4,54.1,392.8,54.1z"/>
		<path class="st23" d="M434.5,53.8l-10.1-21.1h4.8l6.3,13.7l6.4-13.7h4.8l-10.1,21.1H434.5z"/>
		<path class="st23" d="M457.6,24.9c0.6,0.6,0.9,1.3,0.9,2.1c0,0.8-0.3,1.5-0.9,2.1c-0.6,0.6-1.3,0.9-2.1,0.9
			c-0.8,0-1.5-0.3-2.1-0.9s-0.9-1.3-0.9-2.1c0-0.8,0.3-1.5,0.9-2.1s1.3-0.9,2.1-0.9C456.3,24,457,24.3,457.6,24.9z M457.6,32.7v21.1
			h-4.2V32.7H457.6z"/>
		<path class="st23" d="M484.5,34.2V21h4.3v32.9h-4.3v-2.6c-2.1,2.1-4.4,3.2-7.2,3.2c-3.2,0-6-1.1-8.3-3.4c-2.3-2.3-3.4-5-3.4-8.3
			c0-3.2,1.1-6,3.4-8.3c2.3-2.3,5-3.4,8.3-3.4C480.1,31,482.5,32,484.5,34.2z M484.5,44.3v-3.1c-0.2-1.3-0.9-2.5-2-3.6
			c-1.4-1.4-3.1-2.2-5.2-2.2c-2,0-3.8,0.7-5.2,2.2c-1.4,1.4-2.1,3.2-2.1,5.2c0,2,0.7,3.8,2.1,5.2c1.4,1.4,3.2,2.1,5.2,2.1
			c2,0,3.8-0.7,5.2-2.1C483.6,46.8,484.3,45.6,484.5,44.3z"/>
		<path class="st23" d="M515.4,34.2v-1.5h4.3v21.1h-4.3v-2.6c-2.1,2.1-4.4,3.2-7.1,3.2c-3.2,0-6-1.1-8.3-3.4c-2.3-2.3-3.4-5-3.4-8.3
			c0-3.2,1.1-6,3.4-8.3c2.3-2.3,5-3.4,8.3-3.4C510.9,31,513.3,32.1,515.4,34.2z M515.4,44.3v-3.1c-0.2-1.3-0.9-2.5-2-3.6
			c-1.4-1.4-3.2-2.1-5.2-2.1c-2,0-3.8,0.7-5.2,2.1c-1.4,1.4-2.1,3.1-2.1,5.2c0,2,0.7,3.7,2.1,5.2s3.2,2.1,5.2,2.1
			c2,0,3.7-0.7,5.2-2.1C514.5,46.8,515.1,45.6,515.4,44.3z"/>
		<path class="st23" d="M533.1,48.1l-4.7,9.9h-4l2.6-9.9H533.1z"/>
	</g>
	<g>
		<path class="st23" d="M104.4,128.5c0.6,0.5,1.6,0.8,3.1,0.8c1.6,0,3-0.6,4.2-1.7c0.1-0.2,0.4-0.5,0.9-1l3.4,1.2
			c-0.8,1.2-1.4,1.9-1.8,2.3c-1.8,1.8-4.1,2.8-6.7,2.8c-2.6,0-4.8-0.9-6.7-2.8c-1.8-1.8-2.8-4.1-2.8-6.7s0.9-4.8,2.8-6.7
			s4.1-2.8,6.7-2.8c2.2,0,4.2,0.7,5.9,2c0.3,0.2,0.5,0.5,0.8,0.7c0.1,0.1,0.4,0.5,0.9,1l-1.7,1.7L104.4,128.5z M110.2,117.9
			c-0.4-0.3-1.3-0.4-2.6-0.4c-1.6,0-3,0.6-4.2,1.7c-1.2,1.2-1.7,2.5-1.7,4.2c0,1.3,0.1,2.2,0.4,2.6L110.2,117.9z"/>
		<path class="st23" d="M125.2,128.7c0.4,0.4,0.9,0.6,1.5,0.6s1-0.2,1.5-0.6c0.4-0.4,0.6-0.9,0.6-1.5c0-0.6-0.2-1-0.6-1.4
			c-0.3-0.3-0.9-0.7-1.8-1.3c-1.2-0.7-2.1-1.3-2.6-1.8c-0.9-0.9-1.4-2-1.4-3.3c0-1.3,0.5-2.4,1.4-3.3c0.9-0.9,2-1.4,3.3-1.4
			s2.3,0.4,3.2,1.3c0.6,0.6,1,1.3,1.2,2l-3.3,1c-0.1-0.3-0.2-0.5-0.2-0.5c-0.2-0.2-0.5-0.3-0.8-0.3c-0.3,0-0.6,0.1-0.9,0.4
			c-0.2,0.2-0.4,0.5-0.4,0.9c0,0.3,0.1,0.6,0.3,0.8c0.2,0.2,0.7,0.5,1.4,1c1.4,0.8,2.4,1.4,3,2.1c1.1,1.1,1.6,2.4,1.6,3.9
			c0,1.5-0.5,2.8-1.6,3.9c-1.1,1.1-2.4,1.6-3.9,1.6c-1.5,0-2.8-0.5-3.9-1.6c-0.7-0.7-1.2-1.7-1.5-2.8l3.4-0.7
			C124.8,128.1,125,128.5,125.2,128.7z"/>
		<path class="st23" d="M155,119.9v12.5h-3.4v-17.1h3.4v2c0.7-1.9,2.2-2.9,4.3-2.9c1.8,0,3.3,0.7,4.4,2c1.1,1.3,1.6,3,1.7,4.9v11.1
			h-3.4v-11c0-1-0.4-1.8-1.1-2.5s-1.6-1.1-2.6-1.1c-1,0-1.8,0.3-2.6,1C155.3,119.3,155.1,119.6,155,119.9z"/>
		<path class="st23" d="M186.9,116.5v-1.2h3.4v17.1h-3.4v-2.1c-1.7,1.7-3.6,2.6-5.8,2.6c-2.6,0-4.8-0.9-6.7-2.8
			c-1.8-1.8-2.8-4.1-2.8-6.7s0.9-4.8,2.8-6.7c1.8-1.8,4.1-2.8,6.7-2.8C183.3,114,185.2,114.8,186.9,116.5z M186.9,124.6v-2.5
			c-0.2-1.1-0.7-2-1.6-2.9c-1.2-1.1-2.6-1.7-4.2-1.7c-1.6,0-3,0.6-4.2,1.7c-1.2,1.1-1.7,2.5-1.7,4.2c0,1.6,0.6,3,1.7,4.2
			c1.2,1.2,2.5,1.7,4.2,1.7c1.6,0,3-0.6,4.2-1.7C186.1,126.7,186.7,125.7,186.9,124.6z"/>
		<path class="st23" d="M211.8,116.5v-10.6h3.4v26.5h-3.4v-2.1c-1.7,1.7-3.6,2.6-5.8,2.6c-2.6,0-4.8-0.9-6.7-2.8
			c-1.8-1.8-2.8-4.1-2.8-6.7s0.9-4.8,2.8-6.7c1.8-1.8,4.1-2.8,6.7-2.8C208.2,113.9,210.1,114.8,211.8,116.5z M211.8,124.6v-2.5
			c-0.2-1.1-0.7-2-1.6-2.9c-1.1-1.2-2.5-1.7-4.2-1.7s-3,0.6-4.2,1.7c-1.2,1.2-1.7,2.6-1.7,4.2c0,1.6,0.6,3,1.7,4.2
			c1.2,1.1,2.5,1.7,4.2,1.7s3-0.6,4.2-1.7C211.1,126.7,211.6,125.7,211.8,124.6z"/>
		<path class="st23" d="M236.7,116.5v-1.2h3.4v17.1h-3.4v-2.1c-1.7,1.7-3.6,2.6-5.8,2.6c-2.6,0-4.8-0.9-6.7-2.8
			c-1.8-1.8-2.8-4.1-2.8-6.7s0.9-4.8,2.8-6.7c1.8-1.8,4.1-2.8,6.7-2.8C233.1,114,235,114.8,236.7,116.5z M236.7,124.6v-2.5
			c-0.2-1.1-0.7-2-1.6-2.9c-1.2-1.1-2.6-1.7-4.2-1.7c-1.6,0-3,0.6-4.2,1.7c-1.2,1.1-1.7,2.5-1.7,4.2c0,1.6,0.6,3,1.7,4.2
			c1.2,1.2,2.5,1.7,4.2,1.7c1.6,0,3-0.6,4.2-1.7C236,126.7,236.5,125.7,236.7,124.6z"/>
		<path class="st23" d="M260.3,115.3h3.4v1.6c0.7-1.7,1.9-2.5,3.8-2.5c1.9,0,2.9,1,3.2,2.9c0.5-1.9,2-2.9,4.5-2.9
			c2.4,0,3.6,1.5,3.6,4.4v13.6h-3.4v-12c0-1.7-0.7-2.5-2-2.5c-0.6,0-1,0.2-1.5,0.6c-0.4,0.4-0.6,1.7-0.6,4v9.9h-3.4l0-12
			c0-1.7-0.7-2.5-2.1-2.5c-0.6,0-1,0.2-1.5,0.6c-0.4,0.3-0.6,1.2-0.6,2.7v11.2h-3.4V115.3z"/>
		<path class="st23" d="M300.2,116.5v-1.2h3.4v17.1h-3.4v-2.1c-1.7,1.7-3.6,2.6-5.8,2.6c-2.6,0-4.8-0.9-6.7-2.8
			c-1.8-1.8-2.8-4.1-2.8-6.7s0.9-4.8,2.8-6.7c1.8-1.8,4.1-2.8,6.7-2.8C296.7,114,298.6,114.8,300.2,116.5z M300.2,124.6v-2.5
			c-0.2-1.1-0.7-2-1.6-2.9c-1.2-1.1-2.6-1.7-4.2-1.7c-1.6,0-3,0.6-4.2,1.7c-1.2,1.1-1.7,2.5-1.7,4.2c0,1.6,0.6,3,1.7,4.2
			c1.2,1.2,2.5,1.7,4.2,1.7c1.6,0,3-0.6,4.2-1.7C299.5,126.7,300,125.7,300.2,124.6z M295.4,109h4.2l-4.5,4.6h-3.3L295.4,109z"/>
		<path class="st23" d="M313.8,128.7c0.4,0.4,0.9,0.6,1.5,0.6s1-0.2,1.5-0.6c0.4-0.4,0.6-0.9,0.6-1.5c0-0.6-0.2-1-0.6-1.4
			c-0.3-0.3-0.9-0.7-1.8-1.3c-1.2-0.7-2.1-1.3-2.6-1.8c-0.9-0.9-1.4-2-1.4-3.3c0-1.3,0.5-2.4,1.4-3.3c0.9-0.9,2-1.4,3.3-1.4
			s2.3,0.4,3.2,1.3c0.6,0.6,1,1.3,1.2,2l-3.3,1c-0.1-0.3-0.2-0.5-0.2-0.5c-0.2-0.2-0.5-0.3-0.8-0.3c-0.3,0-0.6,0.1-0.9,0.4
			c-0.2,0.2-0.4,0.5-0.4,0.9c0,0.3,0.1,0.6,0.3,0.8c0.2,0.2,0.7,0.5,1.4,1c1.4,0.8,2.4,1.4,3,2.1c1.1,1.1,1.6,2.4,1.6,3.9
			c0,1.5-0.5,2.8-1.6,3.9c-1.1,1.1-2.4,1.6-3.9,1.6c-1.5,0-2.8-0.5-3.9-1.6c-0.7-0.7-1.2-1.7-1.5-2.8l3.4-0.7
			C313.5,128.1,313.6,128.5,313.8,128.7z"/>
		<path class="st23" d="M354.5,116.5v-1.2h3.4v22.8h-3.4v-7.9c-1.7,1.7-3.6,2.6-5.8,2.6c-2.6,0-4.8-0.9-6.7-2.8
			c-1.8-1.8-2.8-4.1-2.8-6.7s0.9-4.8,2.8-6.7c1.8-1.8,4.1-2.8,6.7-2.8C350.9,113.9,352.9,114.8,354.5,116.5z M354.5,124.6v-2.5
			c-0.2-1.1-0.7-2-1.6-2.9c-1.1-1.2-2.5-1.7-4.2-1.7s-3,0.6-4.2,1.7s-1.7,2.6-1.7,4.2c0,1.6,0.6,3,1.7,4.2c1.2,1.2,2.5,1.7,4.2,1.7
			s3-0.6,4.2-1.7C353.8,126.7,354.3,125.7,354.5,124.6z"/>
		<path class="st23" d="M371.9,132.6c-2.2,0-3.9-0.7-5.2-2c-1.3-1.3-2-3-2-4.9v-10.4h3.4v10.2c0,1,0.4,1.8,1.1,2.5
			c0.7,0.7,1.6,1.1,2.7,1.1c1,0,1.8-0.4,2.6-1.1c0.7-0.7,1.1-1.5,1.1-2.5v-10.2h3.4v10.4c0,2-0.7,3.6-2,4.9
			C375.6,131.9,373.9,132.6,371.9,132.6z"/>
		<path class="st23" d="M390.9,128.5c0.6,0.5,1.6,0.8,3.1,0.8c1.6,0,3-0.6,4.2-1.7c0.1-0.2,0.4-0.5,0.9-1l3.4,1.2
			c-0.8,1.2-1.4,1.9-1.8,2.3c-1.8,1.8-4.1,2.8-6.7,2.8c-2.6,0-4.8-0.9-6.7-2.8c-1.8-1.8-2.8-4.1-2.8-6.7s0.9-4.8,2.8-6.7
			s4.1-2.8,6.7-2.8c2.2,0,4.2,0.7,5.9,2c0.3,0.2,0.5,0.5,0.8,0.7c0.1,0.1,0.4,0.5,0.9,1l-1.7,1.7L390.9,128.5z M396.6,117.9
			c-0.4-0.3-1.3-0.4-2.6-0.4c-1.6,0-3,0.6-4.2,1.7c-1.2,1.2-1.7,2.5-1.7,4.2c0,1.3,0.1,2.2,0.4,2.6L396.6,117.9z"/>
		<path class="st23" d="M426.9,128.5c0.6,0.5,1.6,0.8,3.1,0.8c1.6,0,3-0.6,4.2-1.7c0.1-0.2,0.4-0.5,0.9-1l3.4,1.2
			c-0.8,1.2-1.4,1.9-1.8,2.3c-1.8,1.8-4.1,2.8-6.7,2.8c-2.6,0-4.8-0.9-6.7-2.8c-1.8-1.8-2.8-4.1-2.8-6.7s0.9-4.8,2.8-6.7
			s4.1-2.8,6.7-2.8c2.2,0,4.2,0.7,5.9,2c0.3,0.2,0.5,0.5,0.8,0.7c0.1,0.1,0.4,0.5,0.9,1l-1.7,1.7L426.9,128.5z M432.7,117.9
			c-0.4-0.3-1.3-0.4-2.6-0.4c-1.6,0-3,0.6-4.2,1.7c-1.2,1.2-1.7,2.5-1.7,4.2c0,1.3,0.1,2.2,0.4,2.6L432.7,117.9z"/>
		<path class="st23" d="M447.7,105.8v26.5h-3.4v-26.5H447.7z"/>
		<path class="st23" d="M471.2,117.6c1.3-1.7,2.9-2.6,4.7-2.7v3.6c-1.2,0.1-2.2,0.5-3,1.2c-1.1,1.1-1.7,2.4-1.7,3.9v8.8h-3.4v-17.1
			h3.4V117.6z"/>
		<path class="st23" d="M486.2,128.5c0.6,0.5,1.6,0.8,3.1,0.8c1.6,0,3-0.6,4.2-1.7c0.1-0.2,0.4-0.5,0.9-1l3.4,1.2
			c-0.8,1.2-1.4,1.9-1.8,2.3c-1.8,1.8-4.1,2.8-6.7,2.8c-2.6,0-4.8-0.9-6.7-2.8c-1.8-1.8-2.8-4.1-2.8-6.7s0.9-4.8,2.8-6.7
			s4.1-2.8,6.7-2.8c2.2,0,4.2,0.7,5.9,2c0.3,0.2,0.5,0.5,0.8,0.7c0.1,0.1,0.4,0.5,0.9,1l-1.7,1.7L486.2,128.5z M491.9,117.9
			c-0.4-0.3-1.3-0.4-2.6-0.4c-1.6,0-3,0.6-4.2,1.7c-1.2,1.2-1.7,2.5-1.7,4.2c0,1.3,0.1,2.2,0.4,2.6L491.9,117.9z"/>
		<path class="st23" d="M507.5,118.7v13.7H504v-13.7h-1.5v-3.4h1.5v-3.1c0.1-1.4,0.6-2.6,1.6-3.6c1-1,2.2-1.5,3.6-1.5
			c0.7,0,1.7,0.2,3.1,0.7l-1.1,3.2c-1-0.4-1.6-0.6-1.8-0.6c-0.5,0-0.9,0.2-1.3,0.6c-0.4,0.4-0.6,0.8-0.6,1.3v2.9h3.1v3.4H507.5z"/>
		<path class="st23" d="M518.5,105.8v26.5h-3.4v-26.5H518.5z"/>
		<path class="st23" d="M530.5,128.5c0.6,0.5,1.6,0.8,3.1,0.8c1.6,0,3-0.6,4.2-1.7c0.1-0.2,0.4-0.5,0.9-1l3.4,1.2
			c-0.8,1.2-1.4,1.9-1.8,2.3c-1.8,1.8-4.1,2.8-6.7,2.8c-2.6,0-4.8-0.9-6.7-2.8c-1.8-1.8-2.8-4.1-2.8-6.7s0.9-4.8,2.8-6.7
			s4.1-2.8,6.7-2.8c2.2,0,4.2,0.7,5.9,2c0.3,0.2,0.5,0.5,0.8,0.7c0.1,0.1,0.4,0.5,0.9,1l-1.7,1.7L530.5,128.5z M536.2,117.9
			c-0.4-0.3-1.3-0.4-2.6-0.4c-1.6,0-3,0.6-4.2,1.7c-1.2,1.2-1.7,2.5-1.7,4.2c0,1.3,0.1,2.2,0.4,2.6L536.2,117.9z"/>
		<path class="st23" d="M546.1,132.5c1.2-0.1,1.9-0.5,1.9-1.2v-16.1h3.4v16c0,2.8-1.8,4.3-5.3,4.6V132.5z M551.4,109
			c0.5,0.5,0.7,1,0.7,1.7c0,0.7-0.2,1.2-0.7,1.7s-1,0.7-1.7,0.7c-0.7,0-1.2-0.2-1.7-0.7c-0.5-0.5-0.7-1-0.7-1.7
			c0-0.7,0.2-1.2,0.7-1.7c0.5-0.5,1-0.7,1.7-0.7C550.4,108.3,550.9,108.5,551.4,109z"/>
		<path class="st23" d="M567.3,113.9c2.6,0,4.8,0.9,6.7,2.8c1.8,1.8,2.8,4.1,2.8,6.7s-0.9,4.8-2.8,6.7c-1.8,1.8-4.1,2.8-6.7,2.8
			c-2.6,0-4.8-0.9-6.7-2.8c-1.8-1.8-2.8-4.1-2.8-6.7s0.9-4.8,2.8-6.7S564.7,113.9,567.3,113.9z M563.1,119.2
			c-1.2,1.2-1.7,2.6-1.7,4.2c0,1.6,0.6,3,1.7,4.2c1.2,1.1,2.5,1.7,4.2,1.7s3-0.6,4.2-1.7c1.2-1.1,1.7-2.5,1.7-4.2
			c0-1.6-0.6-3-1.7-4.2c-1.2-1.2-2.5-1.7-4.2-1.7S564.2,118,563.1,119.2z"/>
	</g>
	<g>
		<path class="st23" d="M91.3,203.5v-10.6h3.4v26.5h-3.4v-2.1c-1.7,1.7-3.6,2.6-5.8,2.6c-2.6,0-4.8-0.9-6.7-2.8
			c-1.8-1.8-2.8-4.1-2.8-6.7s0.9-4.8,2.8-6.7c1.8-1.8,4.1-2.8,6.7-2.8C87.7,200.9,89.7,201.8,91.3,203.5z M91.3,211.7v-2.5
			c-0.2-1.1-0.7-2-1.6-2.9c-1.1-1.2-2.5-1.7-4.2-1.7s-3,0.6-4.2,1.7c-1.2,1.2-1.7,2.6-1.7,4.2c0,1.6,0.6,3,1.7,4.2
			c1.2,1.1,2.5,1.7,4.2,1.7s3-0.6,4.2-1.7C90.6,213.7,91.1,212.7,91.3,211.7z"/>
		<path class="st23" d="M106.7,215.5c0.6,0.5,1.6,0.8,3.1,0.8c1.6,0,3-0.6,4.2-1.7c0.1-0.2,0.4-0.5,0.9-1l3.4,1.2
			c-0.8,1.2-1.4,1.9-1.8,2.3c-1.8,1.8-4.1,2.8-6.7,2.8c-2.6,0-4.8-0.9-6.7-2.8c-1.8-1.8-2.8-4.1-2.8-6.7s0.9-4.8,2.8-6.7
			s4.1-2.8,6.7-2.8c2.2,0,4.2,0.7,5.9,2c0.3,0.2,0.5,0.5,0.8,0.7c0.1,0.1,0.4,0.5,0.9,1l-1.7,1.7L106.7,215.5z M112.5,204.9
			c-0.4-0.3-1.3-0.4-2.6-0.4c-1.6,0-3,0.6-4.2,1.7c-1.2,1.2-1.7,2.5-1.7,4.2c0,1.3,0.1,2.2,0.4,2.6L112.5,204.9z"/>
		<path class="st23" d="M127.5,192.9v26.5H124v-26.5H127.5z"/>
		<path class="st23" d="M152.9,215.5c0.6,0.5,1.6,0.8,3.1,0.8c1.6,0,3-0.6,4.2-1.7c0.1-0.2,0.4-0.5,0.9-1l3.4,1.2
			c-0.8,1.2-1.4,1.9-1.8,2.3c-1.8,1.8-4.1,2.8-6.7,2.8c-2.6,0-4.8-0.9-6.7-2.8c-1.8-1.8-2.8-4.1-2.8-6.7s0.9-4.8,2.8-6.7
			s4.1-2.8,6.7-2.8c2.2,0,4.2,0.7,5.9,2c0.3,0.2,0.5,0.5,0.8,0.7c0.1,0.1,0.4,0.5,0.9,1l-1.7,1.7L152.9,215.5z M158.6,204.9
			c-0.4-0.3-1.3-0.4-2.6-0.4c-1.6,0-3,0.6-4.2,1.7c-1.2,1.2-1.7,2.5-1.7,4.2c0,1.3,0.1,2.2,0.4,2.6L158.6,204.9z"/>
		<path class="st23" d="M173.7,215.7c0.4,0.4,0.9,0.6,1.5,0.6s1-0.2,1.5-0.6c0.4-0.4,0.6-0.9,0.6-1.5c0-0.6-0.2-1-0.6-1.4
			c-0.3-0.3-0.9-0.7-1.8-1.3c-1.2-0.7-2.1-1.3-2.6-1.8c-0.9-0.9-1.4-2-1.4-3.3c0-1.3,0.5-2.4,1.4-3.3c0.9-0.9,2-1.4,3.3-1.4
			s2.3,0.4,3.2,1.3c0.6,0.6,1,1.3,1.2,2l-3.3,1c-0.1-0.3-0.2-0.5-0.2-0.5c-0.2-0.2-0.5-0.3-0.8-0.3c-0.3,0-0.6,0.1-0.9,0.4
			c-0.2,0.2-0.4,0.5-0.4,0.9c0,0.3,0.1,0.6,0.3,0.8c0.2,0.2,0.7,0.5,1.4,1c1.4,0.8,2.4,1.4,3,2.1c1.1,1.1,1.6,2.4,1.6,3.9
			c0,1.5-0.5,2.8-1.6,3.9c-1.1,1.1-2.4,1.6-3.9,1.6c-1.5,0-2.8-0.5-3.9-1.6c-0.7-0.7-1.2-1.7-1.5-2.8l3.4-0.7
			C173.3,215.2,173.4,215.5,173.7,215.7z"/>
		<path class="st23" d="M188.8,202.3v-6.4h3.4v6.4h3.1v3.4h-3.1v13.6h-3.4v-13.6h-3.1v-3.4H188.8z"/>
		<path class="st23" d="M215.8,203.5v-1.2h3.4v17.1h-3.4v-2.1c-1.7,1.7-3.6,2.6-5.8,2.6c-2.6,0-4.8-0.9-6.7-2.8
			c-1.8-1.8-2.8-4.1-2.8-6.7s0.9-4.8,2.8-6.7c1.8-1.8,4.1-2.8,6.7-2.8C212.2,201,214.2,201.8,215.8,203.5z M215.8,211.7v-2.5
			c-0.2-1.1-0.7-2-1.6-2.9c-1.2-1.1-2.6-1.7-4.2-1.7c-1.6,0-3,0.6-4.2,1.7c-1.2,1.1-1.7,2.5-1.7,4.2c0,1.6,0.6,3,1.7,4.2
			c1.2,1.2,2.5,1.7,4.2,1.7c1.6,0,3-0.6,4.2-1.7C215.1,213.7,215.6,212.7,215.8,211.7z"/>
		<path class="st23" d="M240.7,203.5v-10.6h3.4v26.5h-3.4v-2.1c-1.7,1.7-3.6,2.6-5.8,2.6c-2.6,0-4.8-0.9-6.7-2.8
			c-1.8-1.8-2.8-4.1-2.8-6.7s0.9-4.8,2.8-6.7c1.8-1.8,4.1-2.8,6.7-2.8C237.2,200.9,239.1,201.8,240.7,203.5z M240.7,211.7v-2.5
			c-0.2-1.1-0.7-2-1.6-2.9c-1.1-1.2-2.5-1.7-4.2-1.7s-3,0.6-4.2,1.7c-1.2,1.2-1.7,2.6-1.7,4.2c0,1.6,0.6,3,1.7,4.2
			c1.2,1.1,2.5,1.7,4.2,1.7s3-0.6,4.2-1.7C240,213.7,240.5,212.7,240.7,211.7z"/>
		<path class="st23" d="M259.3,200.9c2.6,0,4.8,0.9,6.7,2.8c1.8,1.8,2.8,4.1,2.8,6.7s-0.9,4.8-2.8,6.7c-1.8,1.8-4.1,2.8-6.7,2.8
			c-2.6,0-4.8-0.9-6.7-2.8c-1.8-1.8-2.8-4.1-2.8-6.7s0.9-4.8,2.8-6.7S256.7,200.9,259.3,200.9z M255.1,206.2
			c-1.2,1.2-1.7,2.6-1.7,4.2c0,1.6,0.6,3,1.7,4.2c1.2,1.1,2.5,1.7,4.2,1.7s3-0.6,4.2-1.7c1.2-1.1,1.7-2.5,1.7-4.2
			c0-1.6-0.6-3-1.7-4.2c-1.2-1.2-2.5-1.7-4.2-1.7S256.3,205.1,255.1,206.2z"/>
		<path class="st23" d="M302.6,203.5v-10.6h3.4v26.5h-3.4v-2.1c-1.7,1.7-3.6,2.6-5.8,2.6c-2.6,0-4.8-0.9-6.7-2.8
			c-1.8-1.8-2.8-4.1-2.8-6.7s0.9-4.8,2.8-6.7c1.8-1.8,4.1-2.8,6.7-2.8C299,200.9,301,201.8,302.6,203.5z M302.6,211.7v-2.5
			c-0.2-1.1-0.7-2-1.6-2.9c-1.1-1.2-2.5-1.7-4.2-1.7s-3,0.6-4.2,1.7c-1.2,1.2-1.7,2.6-1.7,4.2c0,1.6,0.6,3,1.7,4.2
			c1.2,1.1,2.5,1.7,4.2,1.7s3-0.6,4.2-1.7C301.9,213.7,302.4,212.7,302.6,211.7z"/>
		<path class="st23" d="M318.1,215.5c0.6,0.5,1.6,0.8,3.1,0.8c1.6,0,3-0.6,4.2-1.7c0.1-0.2,0.4-0.5,0.9-1l3.4,1.2
			c-0.8,1.2-1.4,1.9-1.8,2.3c-1.8,1.8-4.1,2.8-6.7,2.8c-2.6,0-4.8-0.9-6.7-2.8c-1.8-1.8-2.8-4.1-2.8-6.7s0.9-4.8,2.8-6.7
			s4.1-2.8,6.7-2.8c2.2,0,4.2,0.7,5.9,2c0.3,0.2,0.5,0.5,0.8,0.7c0.1,0.1,0.4,0.5,0.9,1l-1.7,1.7L318.1,215.5z M323.8,204.9
			c-0.4-0.3-1.3-0.4-2.6-0.4c-1.6,0-3,0.6-4.2,1.7c-1.2,1.2-1.7,2.5-1.7,4.2c0,1.3,0.1,2.2,0.4,2.6L323.8,204.9z"/>
		<path class="st23" d="M350.9,202.3v-6.4h3.4v6.4h3.1v3.4h-3.1v13.6h-3.4v-13.6h-3.1v-3.4H350.9z"/>
		<path class="st23" d="M370.3,219.6c-2.2,0-3.9-0.7-5.2-2c-1.3-1.3-2-3-2-4.9v-10.4h3.4v10.2c0,1,0.4,1.8,1.1,2.5
			c0.7,0.7,1.6,1.1,2.7,1.1c1,0,1.8-0.4,2.6-1.1c0.7-0.7,1.1-1.5,1.1-2.5v-10.2h3.4v10.4c0,2-0.7,3.6-2,4.9
			C374,219,372.3,219.6,370.3,219.6z"/>
		<path class="st23" d="M397.4,202.3h3.4v1.6c0.7-1.7,1.9-2.5,3.8-2.5c1.9,0,2.9,1,3.2,2.9c0.5-1.9,2-2.9,4.5-2.9
			c2.4,0,3.6,1.5,3.6,4.4v13.6h-3.4v-12c0-1.7-0.7-2.5-2-2.5c-0.6,0-1,0.2-1.5,0.6c-0.4,0.4-0.6,1.7-0.6,4v9.9H405l0-12
			c0-1.7-0.7-2.5-2.1-2.5c-0.6,0-1,0.2-1.5,0.6c-0.4,0.3-0.6,1.2-0.6,2.7v11.2h-3.4V202.3z"/>
		<path class="st23" d="M427.9,215.5c0.6,0.5,1.6,0.8,3.1,0.8c1.6,0,3-0.6,4.2-1.7c0.1-0.2,0.4-0.5,0.9-1l3.4,1.2
			c-0.8,1.2-1.4,1.9-1.8,2.3c-1.8,1.8-4.1,2.8-6.7,2.8c-2.6,0-4.8-0.9-6.7-2.8c-1.8-1.8-2.8-4.1-2.8-6.7s0.9-4.8,2.8-6.7
			s4.1-2.8,6.7-2.8c2.2,0,4.2,0.7,5.9,2c0.3,0.2,0.5,0.5,0.8,0.7c0.1,0.1,0.4,0.5,0.9,1l-1.7,1.7L427.9,215.5z M433.7,204.9
			c-0.4-0.3-1.3-0.4-2.6-0.4c-1.6,0-3,0.6-4.2,1.7c-1.2,1.2-1.7,2.5-1.7,4.2c0,1.3,0.1,2.2,0.4,2.6L433.7,204.9z"/>
		<path class="st23" d="M448.7,206.9v12.5h-3.4v-17.1h3.4v2c0.7-1.9,2.2-2.9,4.3-2.9c1.8,0,3.3,0.7,4.4,2c1.1,1.3,1.6,3,1.7,4.9
			v11.1h-3.4v-11c0-1-0.4-1.8-1.1-2.5s-1.6-1.1-2.6-1.1c-1,0-1.8,0.3-2.6,1C449.1,206.3,448.8,206.6,448.7,206.9z"/>
		<path class="st23" d="M467.9,202.3v-6.4h3.4v6.4h3.1v3.4h-3.1v13.6h-3.4v-13.6h-3.1v-3.4H467.9z"/>
		<path class="st23" d="M485.4,215.5c0.6,0.5,1.6,0.8,3.1,0.8c1.6,0,3-0.6,4.2-1.7c0.1-0.2,0.4-0.5,0.9-1l3.4,1.2
			c-0.8,1.2-1.4,1.9-1.8,2.3c-1.8,1.8-4.1,2.8-6.7,2.8c-2.6,0-4.8-0.9-6.7-2.8c-1.8-1.8-2.8-4.1-2.8-6.7s0.9-4.8,2.8-6.7
			s4.1-2.8,6.7-2.8c2.2,0,4.2,0.7,5.9,2c0.3,0.2,0.5,0.5,0.8,0.7c0.1,0.1,0.4,0.5,0.9,1l-1.7,1.7L485.4,215.5z M491.1,204.9
			c-0.4-0.3-1.3-0.4-2.6-0.4c-1.6,0-3,0.6-4.2,1.7c-1.2,1.2-1.7,2.5-1.7,4.2c0,1.3,0.1,2.2,0.4,2.6L491.1,204.9z"/>
		<path class="st23" d="M502.1,196.8c-0.5-0.5-0.7-1-0.7-1.7c0-0.7,0.2-1.2,0.7-1.7c0.5-0.5,1-0.7,1.7-0.7c0.7,0,1.2,0.2,1.7,0.7
			c0.5,0.5,0.7,1,0.7,1.7c0,0.4-0.1,0.7-0.2,1l-1.8,3.6h-3.1L502.1,196.8z M507.6,196.8c-0.5-0.5-0.7-1-0.7-1.7
			c0-0.7,0.2-1.2,0.7-1.7c0.5-0.5,1-0.7,1.7-0.7c0.7,0,1.2,0.2,1.7,0.7c0.5,0.5,0.7,1,0.7,1.7c0,0.4-0.1,0.7-0.2,1l-1.8,3.6h-3.1
			L507.6,196.8z"/>
	</g>
</g>
</svg>
