<?xml version="1.0" encoding="utf-8"?>
<!-- Generator: Adobe Illustrator 21.0.0, SVG Export Plug-In . SVG Version: 6.00 Build 0)  -->
<svg version="1.1" id="Layer_1" xmlns="http://www.w3.org/2000/svg" xmlns:xlink="http://www.w3.org/1999/xlink" x="0px" y="0px"
	 viewBox="0 0 1248.9 460.9" style="enable-background:new 0 0 1248.9 460.9;" xml:space="preserve">
<style type="text/css">
	.st0{fill:#FFFFFF;}
	.st1{fill-rule:evenodd;clip-rule:evenodd;fill:#685989;}
	.st2{fill:#F87481;}
	.st3{fill:#864D7D;}
	.st4{fill:#685989;}
	.st5{fill:#7087AF;}
	.st6{fill:#9CC1C8;}
	.st7{fill:#BEDBC3;}
	.st8{fill:none;stroke:#685989;stroke-width:3;stroke-miterlimit:10;}
	.st9{fill:none;stroke:#9CC1C8;stroke-width:3;stroke-miterlimit:10;}
	.st10{fill:none;stroke:#864D7D;stroke-width:3;stroke-miterlimit:10;}
	.st11{fill-rule:evenodd;clip-rule:evenodd;fill:#F87481;}
	.st12{opacity:0.3;clip-path:url(#SVGID_2_);}
	.st13{opacity:0.3;clip-path:url(#SVGID_4_);}
	.st14{opacity:0.3;clip-path:url(#SVGID_6_);}
	.st15{opacity:0.3;clip-path:url(#SVGID_8_);}
	.st16{opacity:0.3;clip-path:url(#SVGID_10_);}
	.st17{fill:#F6F6F6;}
	.st18{clip-path:url(#SVGID_12_);}
	.st19{clip-path:url(#SVGID_16_);}
	.st20{fill:#EDEDED;}
	.st21{opacity:0.5;fill:#9CC1C8;}
	.st22{fill:#D3DEE4;}
	.st23{fill:#007271;}
	.st24{fill:#369999;}
	.st25{fill:#4D2B2B;}
	.st26{fill:#3A1F1E;}
	.st27{fill:#E95B4E;}
	.st28{fill:#EE8268;}
	.st29{fill:#C83D36;}
	.st30{fill:#F6B99F;}
	.st31{fill:#EEE9DC;}
	.st32{fill:#EDC9C7;stroke:#221F20;stroke-linecap:round;stroke-linejoin:round;stroke-miterlimit:10;}
	.st33{fill:#F19775;}
	.st34{fill:#6B3E3F;}
	.st35{fill:#C7BDB7;}
	.st36{fill:#D1D5CA;}
	.st37{fill:#2B3668;}
	.st38{fill:#EE827D;}
	.st39{fill:#FFFFFF;stroke:#FFFFFF;stroke-miterlimit:10;}
	.st40{fill:#606060;}
	.st41{fill:none;stroke:#BEDBC3;stroke-width:4;stroke-linecap:round;stroke-linejoin:round;stroke-miterlimit:10;}
	.st42{fill:none;stroke:#864D7D;stroke-width:3.7;stroke-miterlimit:10;}
	.st43{fill:#864D7D;stroke:#864D7D;stroke-width:0.9403;stroke-miterlimit:10;}
	.st44{opacity:0.5;}
	.st45{fill:#FEFFFF;}
	.st46{fill:#FEFEFF;}
	.st47{fill:#FDFEFE;}
	.st48{fill:#FDFDFE;}
	.st49{fill:#FCFDFE;}
	.st50{fill:#FBFCFE;}
	.st51{fill:#FBFCFD;}
	.st52{fill:#FAFCFD;}
	.st53{fill:#FAFBFD;}
	.st54{fill:#F9FBFD;}
	.st55{fill:#F8FAFC;}
	.st56{fill:#F7FAFC;}
	.st57{fill:#F7F9FC;}
	.st58{fill:#F6F9FC;}
	.st59{fill:#F6F9FB;}
	.st60{fill:#F5F8FB;}
	.st61{fill:#F4F7FB;}
	.st62{fill:#F3F7FB;}
	.st63{fill:#F3F7FA;}
	.st64{fill:#F2F6FA;}
	.st65{fill:#F1F5FA;}
	.st66{fill:#F0F5F9;}
	.st67{fill:#F0F4F9;}
	.st68{fill:#EFF4F9;}
	.st69{fill:#EEF3F8;}
	.st70{fill:#EDF3F8;}
	.st71{fill:#EDF2F8;}
	.st72{fill:#ECF2F8;}
	.st73{fill:#EBF1F7;}
	.st74{fill:#EAF1F7;}
	.st75{fill:#EAF0F7;}
	.st76{fill:#E9F0F7;}
	.st77{fill:#E8EFF6;}
	.st78{fill:#E7EFF6;}
	.st79{fill:#E7EEF6;}
	.st80{fill:#E6EEF5;}
	.st81{fill:#E5EDF5;}
	.st82{fill:#E4ECF5;}
	.st83{fill:#E4ECF4;}
	.st84{fill:#E3ECF4;}
	.st85{fill:#E2EBF4;}
	.st86{fill:#E1EAF4;}
	.st87{fill:#E1EAF3;}
	.st88{fill:#E0EAF3;}
	.st89{fill:#E0E9F3;}
	.st90{fill:#DFE9F3;}
	.st91{fill:#DEE8F2;}
	.st92{fill:#DDE8F2;}
	.st93{fill:#DDE7F2;}
	.st94{fill:#DCE7F2;}
	.st95{fill:#DCE7F1;}
	.st96{fill:#DBE6F1;}
	.st97{fill:#DAE6F1;}
	.st98{fill:#DAE5F1;}
	.st99{fill:#D9E5F0;}
	.st100{fill:#D9E4F0;}
	.st101{fill:#D8E4F0;}
	.st102{fill:#D6E2EE;}
	.st103{fill:#D4E0EC;}
	.st104{fill:#D2DEEA;}
	.st105{fill:#D0DCE8;}
	.st106{fill:#CEDAE6;}
	.st107{fill:#CDD9E5;}
	.st108{fill:#CBD7E3;}
	.st109{fill:#C9D5E1;}
	.st110{fill:#C7D3DF;}
	.st111{fill:#C5D1DD;}
	.st112{fill:#C3CFDB;}
	.st113{fill:#C1CDD9;}
	.st114{fill:#BFCBD7;}
	.st115{fill:#BDC9D5;}
	.st116{fill:#BBC7D3;}
	.st117{fill:#B9C6D2;}
	.st118{fill:#B7C4D0;}
	.st119{fill:#B6C2CE;}
	.st120{fill:#B4C0CC;}
	.st121{fill:#B2BECA;}
	.st122{fill:#B0BCC8;}
	.st123{fill:#AEBAC6;}
	.st124{fill:#ACB8C4;}
	.st125{fill:#AAB6C2;}
	.st126{fill:#A8B4C0;}
	.st127{fill:#A6B3BF;}
	.st128{fill:#A4B1BD;}
	.st129{fill:#A2AFBB;}
	.st130{fill:#A0ADB9;}
	.st131{fill:#9FABB7;}
	.st132{fill:#9DA9B5;}
	.st133{fill:#9BA7B3;}
	.st134{fill:#99A5B1;}
	.st135{fill:#97A3AF;}
	.st136{fill:#95A1AD;}
	.st137{fill:#93A0AC;}
	.st138{fill:#919EAA;}
	.st139{fill:#8F9CA8;}
	.st140{fill:#8D9AA6;}
	.st141{fill:#8B98A4;}
	.st142{fill:#8996A2;}
	.st143{fill:#8894A0;}
	.st144{fill:#86929E;}
	.st145{fill:#84909C;}
	.st146{fill:#828E9A;}
	.st147{fill:#808D99;}
	.st148{fill:#7E8B97;}
	.st149{fill:#7C8995;}
	.st150{fill:#7A8793;}
	.st151{fill:#788591;}
	.st152{fill:#76838F;}
	.st153{fill:#74818D;}
	.st154{fill:#727F8B;}
	.st155{fill:#717D89;}
	.st156{fill:#6F7B87;}
	.st157{fill:#6D7A86;}
	.st158{fill:#6B7884;}
	.st159{fill:#697682;}
	.st160{fill:#677480;}
	.st161{fill:#65727E;}
	.st162{fill:#63707C;}
	.st163{fill:#616E7A;}
	.st164{fill:#5F6C78;}
	.st165{fill:#5D6A76;}
	.st166{fill:#5B6874;}
	.st167{fill:#5A6773;}
	.st168{fill:#586571;}
	.st169{fill:#56636F;}
	.st170{fill:#54616D;}
	.st171{fill:#525F6B;}
	.st172{fill:#505D69;}
	.st173{fill:#864D7D;stroke:#864D7D;stroke-miterlimit:10;}
	.st174{fill:none;stroke:#FFFFFF;stroke-width:2;stroke-miterlimit:10;}
	.st175{fill:#FFFFFF;stroke:#242E77;stroke-width:0.1637;stroke-linecap:round;stroke-linejoin:round;stroke-miterlimit:10;}
	.st176{opacity:0.3;clip-path:url(#SVGID_30_);}
	.st177{fill:none;stroke:#7087AF;stroke-miterlimit:10;}
	.st178{clip-path:url(#SVGID_32_);}
	.st179{fill:none;stroke:#FFFFFF;stroke-miterlimit:10;}
	.st180{fill-rule:evenodd;clip-rule:evenodd;fill:#FFFFFF;}
	.st181{fill:#B2555F;}
	.st182{fill:#47284F;}
	.st183{fill:#FFBF9B;}
	.st184{fill:#FFA687;}
	.st185{fill:none;stroke:#47284F;stroke-width:1.1054;stroke-linecap:round;stroke-miterlimit:10;}
	.st186{fill:#72426B;}
	.st187{fill:#FFC9AC;}
	.st188{fill:#C19884;}
	.st189{fill:#FFA68D;}
	.st190{fill:#13A6CE;}
	.st191{fill:#4E2447;}
	.st192{opacity:0.3;}
	.st193{fill:#1A2E35;}
	.st194{fill:#FFBF9D;}
	.st195{fill:#FF9A6C;}
	.st196{fill:#375A64;}
	.st197{fill:#E1E1E1;}
	.st198{opacity:0.2;}
	.st199{fill:#FF4F5B;}
	.st200{fill:#EBEBEB;}
	.st201{fill:#AA6550;}
	.st202{fill:none;stroke:#FFA6AD;stroke-miterlimit:10;}
	.st203{fill:none;stroke:#FFFFFF;stroke-width:5.000000e-02;stroke-miterlimit:10;}
	.st204{fill:#FAFAFA;}
	.st205{clip-path:url(#SVGID_34_);}
	.st206{fill:#FFFFFF;stroke:#FFFFFF;stroke-width:3;stroke-miterlimit:10;}
	.st207{fill:#F87481;stroke:#F87481;stroke-miterlimit:10;}
	.st208{clip-path:url(#SVGID_38_);}
	.st209{fill:#FFFFFF;stroke:#FFFFFF;stroke-width:0.9403;stroke-miterlimit:10;}
</style>
<g>
	<path class="st3" d="M1086.5,401.8H62.4V208.4h1059.3v158.2C1121.6,386,1105.9,401.8,1086.5,401.8z"/>
	<g>
		<path class="st43" d="M114.3,102.9v33.8h-5.1v-33.8h-9.1v-5h23.2v5H114.3z"/>
		<path class="st43" d="M138.6,109.7c3.8,0,7.1,1.4,9.8,4.1c2.7,2.7,4,6,4,9.8s-1.3,7.1-4,9.8c-2.7,2.7-6,4.1-9.8,4.1
			c-3.8,0-7.1-1.4-9.8-4.1c-2.7-2.7-4.1-6-4.1-9.8s1.4-7.1,4.1-9.8C131.5,111.1,134.8,109.7,138.6,109.7z M132.4,117.4
			c-1.7,1.7-2.5,3.7-2.5,6.1c0,2.4,0.8,4.4,2.5,6.1c1.7,1.7,3.7,2.5,6.1,2.5c2.4,0,4.4-0.8,6.1-2.5c1.7-1.7,2.5-3.7,2.5-6.1
			c0-2.4-0.8-4.4-2.5-6.1s-3.7-2.6-6.1-2.6C136.2,114.9,134.1,115.7,132.4,117.4z"/>
		<path class="st43" d="M179.9,113.5V97.9h5.1v38.9h-5.1v-3.1c-2.4,2.5-5.3,3.8-8.5,3.8c-3.8,0-7.1-1.4-9.8-4.1c-2.7-2.7-4-6-4-9.8
			s1.3-7.1,4-9.8c2.7-2.7,6-4.1,9.8-4.1C174.7,109.7,177.5,111,179.9,113.5z M179.9,125.4v-3.7c-0.3-1.6-1.1-3-2.4-4.3
			c-1.7-1.7-3.7-2.6-6.1-2.6s-4.4,0.9-6.1,2.6s-2.5,3.7-2.5,6.1c0,2.4,0.8,4.4,2.5,6.1c1.7,1.7,3.7,2.5,6.1,2.5s4.4-0.8,6.1-2.5
			C178.8,128.4,179.6,127,179.9,125.4z"/>
		<path class="st43" d="M204.6,109.7c3.8,0,7.1,1.4,9.8,4.1c2.7,2.7,4,6,4,9.8s-1.3,7.1-4,9.8c-2.7,2.7-6,4.1-9.8,4.1
			c-3.8,0-7.1-1.4-9.8-4.1c-2.7-2.7-4.1-6-4.1-9.8s1.4-7.1,4.1-9.8C197.6,111.1,200.8,109.7,204.6,109.7z M198.5,117.4
			c-1.7,1.7-2.5,3.7-2.5,6.1c0,2.4,0.8,4.4,2.5,6.1c1.7,1.7,3.7,2.5,6.1,2.5c2.4,0,4.4-0.8,6.1-2.5c1.7-1.7,2.5-3.7,2.5-6.1
			c0-2.4-0.8-4.4-2.5-6.1s-3.7-2.6-6.1-2.6C202.2,114.9,200.2,115.7,198.5,117.4z"/>
		<path class="st43" d="M229.3,131.4c0.6,0.6,1.3,0.9,2.1,0.9c0.8,0,1.5-0.3,2.1-0.9s0.9-1.3,0.9-2.2c0-0.8-0.3-1.5-0.9-2.1
			c-0.4-0.4-1.3-1-2.6-1.9c-1.8-1-3.1-1.9-3.9-2.6c-1.3-1.3-2-2.9-2-4.8c0-1.9,0.7-3.5,2-4.8s2.9-2,4.8-2c1.9,0,3.4,0.6,4.7,1.9
			c0.9,0.9,1.5,1.9,1.7,3l-4.9,1.4c-0.1-0.4-0.2-0.7-0.3-0.8c-0.3-0.3-0.7-0.4-1.2-0.4s-0.9,0.2-1.3,0.5c-0.3,0.3-0.5,0.8-0.5,1.3
			c0,0.5,0.2,0.9,0.5,1.2c0.3,0.3,1,0.8,2.1,1.5c2,1.1,3.5,2.1,4.4,3c1.6,1.6,2.4,3.5,2.4,5.7c0,2.2-0.8,4.1-2.3,5.7
			c-1.6,1.6-3.5,2.4-5.7,2.4c-2.2,0-4.1-0.8-5.7-2.4c-1.1-1.1-1.8-2.4-2.1-4.1l5-1.1C228.8,130.6,229,131.1,229.3,131.4z"/>
		<path class="st43" d="M265.9,111.8v-9.4h5v9.4h4.5v5H271v20h-5v-20h-4.5v-5H265.9z"/>
		<path class="st43" d="M289.1,131.1c0.8,0.7,2.4,1.1,4.6,1.1c2.4,0,4.4-0.8,6.1-2.5c0.2-0.2,0.6-0.7,1.3-1.5l5,1.8
			c-1.2,1.7-2.1,2.8-2.7,3.4c-2.7,2.7-6,4.1-9.8,4.1c-3.8,0-7.1-1.4-9.8-4.1c-2.7-2.7-4.1-6-4.1-9.8s1.4-7.1,4.1-9.8
			c2.7-2.7,6-4.1,9.8-4.1c3.3,0,6.1,1,8.6,3c0.4,0.3,0.8,0.7,1.2,1.1c0.2,0.2,0.6,0.7,1.4,1.5l-2.5,2.6L289.1,131.1z M297.5,115.5
			c-0.6-0.4-1.8-0.7-3.8-0.7c-2.4,0-4.4,0.8-6.1,2.5c-1.7,1.7-2.5,3.7-2.5,6.1c0,2,0.2,3.2,0.7,3.8L297.5,115.5z"/>
		<path class="st43" d="M317,118.5v18.3H312v-25h5.1v2.9c1.1-2.8,3.2-4.3,6.3-4.3c2.7,0,4.9,1,6.4,2.9c1.6,1.9,2.4,4.3,2.5,7.2v16.3
			h-5v-16.1c0-1.4-0.5-2.7-1.6-3.7s-2.3-1.5-3.8-1.5c-1.4,0-2.7,0.5-3.7,1.5C317.6,117.6,317.2,118.1,317,118.5z"/>
		<path class="st43" d="M347.4,131.1c0.8,0.7,2.4,1.1,4.6,1.1c2.4,0,4.4-0.8,6.1-2.5c0.2-0.2,0.6-0.7,1.3-1.5l5,1.8
			c-1.2,1.7-2.1,2.8-2.7,3.4c-2.7,2.7-6,4.1-9.8,4.1c-3.8,0-7.1-1.4-9.8-4.1c-2.7-2.7-4.1-6-4.1-9.8s1.4-7.1,4.1-9.8
			c2.7-2.7,6-4.1,9.8-4.1c3.3,0,6.1,1,8.6,3c0.4,0.3,0.8,0.7,1.2,1.1c0.2,0.2,0.6,0.7,1.4,1.5l-2.5,2.6L347.4,131.1z M355.8,115.5
			c-0.6-0.4-1.8-0.7-3.8-0.7c-2.4,0-4.4,0.8-6.1,2.5c-1.7,1.7-2.5,3.7-2.5,6.1c0,2,0.2,3.2,0.7,3.8L355.8,115.5z"/>
		<path class="st43" d="M370.3,111.8h5v2.3c1-2.4,2.8-3.7,5.6-3.7c2.8,0,4.3,1.4,4.6,4.2c0.8-2.8,3-4.2,6.6-4.2
			c3.5,0,5.3,2.1,5.3,6.4v19.9h-5.1v-17.6c0-2.5-1-3.7-3-3.7c-0.8,0-1.5,0.3-2.1,0.9s-0.9,2.5-0.9,5.9v14.5h-5l0-17.6
			c0-2.5-1-3.7-3-3.7c-0.8,0-1.5,0.3-2.1,0.9c-0.5,0.5-0.8,1.8-0.9,4v16.4h-5V111.8z"/>
		<path class="st43" d="M417.1,109.7c3.8,0,7.1,1.4,9.8,4.1c2.7,2.7,4,6,4,9.8s-1.3,7.1-4,9.8c-2.7,2.7-6,4.1-9.8,4.1
			c-3.8,0-7.1-1.4-9.8-4.1c-2.7-2.7-4.1-6-4.1-9.8s1.4-7.1,4.1-9.8C410.1,111.1,413.3,109.7,417.1,109.7z M411,117.4
			c-1.7,1.7-2.5,3.7-2.5,6.1c0,2.4,0.8,4.4,2.5,6.1c1.7,1.7,3.7,2.5,6.1,2.5c2.4,0,4.4-0.8,6.1-2.5c1.7-1.7,2.5-3.7,2.5-6.1
			c0-2.4-0.8-4.4-2.5-6.1s-3.7-2.6-6.1-2.6C414.7,114.9,412.7,115.7,411,117.4z"/>
		<path class="st43" d="M441.8,131.4c0.6,0.6,1.3,0.9,2.1,0.9c0.8,0,1.5-0.3,2.1-0.9s0.9-1.3,0.9-2.2c0-0.8-0.3-1.5-0.9-2.1
			c-0.4-0.4-1.3-1-2.6-1.9c-1.8-1-3.1-1.9-3.9-2.6c-1.3-1.3-2-2.9-2-4.8c0-1.9,0.7-3.5,2-4.8s2.9-2,4.8-2c1.9,0,3.4,0.6,4.7,1.9
			c0.9,0.9,1.5,1.9,1.7,3l-4.9,1.4c-0.1-0.4-0.2-0.7-0.3-0.8c-0.3-0.3-0.7-0.4-1.2-0.4s-0.9,0.2-1.3,0.5c-0.3,0.3-0.5,0.8-0.5,1.3
			c0,0.5,0.2,0.9,0.5,1.2c0.3,0.3,1,0.8,2.1,1.5c2,1.1,3.5,2.1,4.4,3c1.6,1.6,2.4,3.5,2.4,5.7c0,2.2-0.8,4.1-2.3,5.7
			c-1.6,1.6-3.5,2.4-5.7,2.4c-2.2,0-4.1-0.8-5.7-2.4c-1.1-1.1-1.8-2.4-2.1-4.1l5-1.1C441.3,130.6,441.5,131.1,441.8,131.4z"/>
		<path class="st43" d="M480.4,97.9v38.9h-5.1V97.9H480.4z"/>
		<path class="st43" d="M509.4,113.5v-1.7h5.1v25h-5.1v-3.1c-2.4,2.5-5.2,3.8-8.5,3.8c-3.8,0-7.1-1.3-9.8-4c-2.7-2.7-4-6-4-9.8
			s1.3-7.1,4-9.8c2.7-2.7,6-4,9.8-4C504.2,109.8,507,111,509.4,113.5z M509.4,125.4v-3.7c-0.3-1.6-1.1-3-2.3-4.3
			c-1.7-1.7-3.7-2.5-6.1-2.5c-2.4,0-4.4,0.8-6.1,2.5s-2.5,3.7-2.5,6.1c0,2.4,0.8,4.4,2.5,6.1s3.7,2.5,6.1,2.5c2.4,0,4.4-0.8,6.1-2.5
			C508.3,128.4,509.1,127,509.4,125.4z"/>
		<path class="st43" d="M544,133.6v11.5h-5v-33.4h5v2.3c2.4-2.9,5.3-4.3,8.5-4.3c3.8,0,7.1,1.3,9.8,4c2.7,2.7,4,6,4,9.8
			s-1.3,7.1-4,9.8c-2.7,2.7-6,4.1-9.8,4.1C549.3,137.4,546.4,136.2,544,133.6z M544,121.6v3.9c0.3,1.5,1.1,2.9,2.4,4.2
			c1.7,1.7,3.7,2.5,6.1,2.5s4.4-0.8,6.1-2.5c1.7-1.7,2.5-3.7,2.5-6.1c0-2.4-0.8-4.4-2.5-6.1c-1.7-1.7-3.7-2.6-6.1-2.6
			s-4.4,0.9-6.1,2.6C545.1,118.7,544.3,120.1,544,121.6z"/>
		<path class="st43" d="M584.7,109.7c3.8,0,7.1,1.4,9.8,4.1c2.7,2.7,4,6,4,9.8s-1.3,7.1-4,9.8c-2.7,2.7-6,4.1-9.8,4.1
			c-3.8,0-7.1-1.4-9.8-4.1c-2.7-2.7-4.1-6-4.1-9.8s1.4-7.1,4.1-9.8C577.7,111.1,580.9,109.7,584.7,109.7z M578.6,117.4
			c-1.7,1.7-2.5,3.7-2.5,6.1c0,2.4,0.8,4.4,2.5,6.1c1.7,1.7,3.7,2.5,6.1,2.5c2.4,0,4.4-0.8,6.1-2.5c1.7-1.7,2.5-3.7,2.5-6.1
			c0-2.4-0.8-4.4-2.5-6.1s-3.7-2.6-6.1-2.6C582.3,114.9,580.3,115.7,578.6,117.4z"/>
		<path class="st43" d="M609.4,131.4c0.6,0.6,1.3,0.9,2.1,0.9c0.8,0,1.5-0.3,2.1-0.9s0.9-1.3,0.9-2.2c0-0.8-0.3-1.5-0.9-2.1
			c-0.4-0.4-1.3-1-2.6-1.9c-1.8-1-3.1-1.9-3.9-2.6c-1.3-1.3-2-2.9-2-4.8c0-1.9,0.7-3.5,2-4.8s2.9-2,4.8-2c1.9,0,3.4,0.6,4.7,1.9
			c0.9,0.9,1.5,1.9,1.7,3l-4.9,1.4c-0.1-0.4-0.2-0.7-0.3-0.8c-0.3-0.3-0.7-0.4-1.2-0.4s-0.9,0.2-1.3,0.5c-0.3,0.3-0.5,0.8-0.5,1.3
			c0,0.5,0.2,0.9,0.5,1.2c0.3,0.3,1,0.8,2.1,1.5c2,1.1,3.5,2.1,4.4,3c1.6,1.6,2.4,3.5,2.4,5.7c0,2.2-0.8,4.1-2.3,5.7
			c-1.6,1.6-3.5,2.4-5.7,2.4c-2.2,0-4.1-0.8-5.7-2.4c-1.1-1.1-1.8-2.4-2.1-4.1l5-1.1C608.9,130.6,609.1,131.1,609.4,131.4z"/>
		<path class="st43" d="M631.2,102.5c0.7,0.7,1,1.5,1,2.5s-0.3,1.8-1,2.5s-1.5,1-2.5,1c-1,0-1.8-0.3-2.5-1s-1-1.5-1-2.5
			s0.3-1.8,1-2.5c0.7-0.7,1.5-1,2.5-1C629.7,101.5,630.5,101.8,631.2,102.5z M631.3,111.8v25h-5v-25H631.3z"/>
		<path class="st43" d="M644,133.6v3.1h-5V97.9h5v15.6c2.4-2.5,5.3-3.8,8.5-3.8c3.8,0,7.1,1.4,9.8,4.1c2.7,2.7,4,6,4,9.8
			s-1.3,7.1-4,9.8c-2.7,2.7-6,4.1-9.8,4.1C649.2,137.4,646.4,136.2,644,133.6z M644,121.6v3.9c0.3,1.5,1.1,2.9,2.3,4.2
			c1.7,1.7,3.7,2.5,6.1,2.5s4.4-0.8,6.1-2.5c1.7-1.7,2.5-3.7,2.5-6.1c0-2.4-0.8-4.4-2.5-6.1c-1.7-1.7-3.7-2.6-6.1-2.6
			s-4.4,0.9-6.1,2.6C645.1,118.7,644.3,120.1,644,121.6z"/>
		<path class="st43" d="M678.4,102.5c0.7,0.7,1,1.5,1,2.5s-0.3,1.8-1,2.5s-1.5,1-2.5,1c-1,0-1.8-0.3-2.5-1s-1-1.5-1-2.5
			s0.3-1.8,1-2.5c0.7-0.7,1.5-1,2.5-1C676.9,101.5,677.7,101.8,678.4,102.5z M678.4,111.8v25h-5v-25H678.4z"/>
		<path class="st43" d="M691.2,97.9v38.9h-5.1V97.9H691.2z"/>
		<path class="st43" d="M703.9,102.5c0.7,0.7,1,1.5,1,2.5s-0.3,1.8-1,2.5s-1.5,1-2.5,1c-1,0-1.8-0.3-2.5-1s-1-1.5-1-2.5
			s0.3-1.8,1-2.5c0.7-0.7,1.5-1,2.5-1C702.3,101.5,703.2,101.8,703.9,102.5z M703.9,111.8v25h-5v-25H703.9z"/>
		<path class="st43" d="M733.3,113.5V97.9h5.1v38.9h-5.1v-3.1c-2.4,2.5-5.3,3.8-8.5,3.8c-3.8,0-7.1-1.4-9.8-4.1c-2.7-2.7-4-6-4-9.8
			s1.3-7.1,4-9.8c2.7-2.7,6-4.1,9.8-4.1C728,109.7,730.9,111,733.3,113.5z M733.3,125.4v-3.7c-0.3-1.6-1.1-3-2.4-4.3
			c-1.7-1.7-3.7-2.6-6.1-2.6s-4.4,0.9-6.1,2.6s-2.5,3.7-2.5,6.1c0,2.4,0.8,4.4,2.5,6.1c1.7,1.7,3.7,2.5,6.1,2.5s4.4-0.8,6.1-2.5
			C732.2,128.4,733,127,733.3,125.4z"/>
		<path class="st43" d="M767.3,113.5v-1.7h5.1v25h-5.1v-3.1c-2.4,2.5-5.2,3.8-8.5,3.8c-3.8,0-7.1-1.3-9.8-4c-2.7-2.7-4-6-4-9.8
			s1.3-7.1,4-9.8c2.7-2.7,6-4,9.8-4C762,109.8,764.9,111,767.3,113.5z M767.3,125.4v-3.7c-0.3-1.6-1.1-3-2.3-4.3
			c-1.7-1.7-3.7-2.5-6.1-2.5c-2.4,0-4.4,0.8-6.1,2.5s-2.5,3.7-2.5,6.1c0,2.4,0.8,4.4,2.5,6.1s3.7,2.5,6.1,2.5c2.4,0,4.4-0.8,6.1-2.5
			C766.2,128.4,767,127,767.3,125.4z"/>
		<path class="st43" d="M801.4,113.5V97.9h5.1v38.9h-5.1v-3.1c-2.4,2.5-5.3,3.8-8.5,3.8c-3.8,0-7.1-1.4-9.8-4.1c-2.7-2.7-4-6-4-9.8
			s1.3-7.1,4-9.8c2.7-2.7,6-4.1,9.8-4.1C796.1,109.7,798.9,111,801.4,113.5z M801.4,125.4v-3.7c-0.3-1.6-1.1-3-2.4-4.3
			c-1.7-1.7-3.7-2.6-6.1-2.6s-4.4,0.9-6.1,2.6s-2.5,3.7-2.5,6.1c0,2.4,0.8,4.4,2.5,6.1c1.7,1.7,3.7,2.5,6.1,2.5s4.4-0.8,6.1-2.5
			C800.3,128.4,801.1,127,801.4,125.4z"/>
		<path class="st43" d="M852.6,113.5V97.9h5.1v38.9h-5.1v-3.1c-2.4,2.5-5.3,3.8-8.5,3.8c-3.8,0-7.1-1.4-9.8-4.1c-2.7-2.7-4-6-4-9.8
			s1.3-7.1,4-9.8c2.7-2.7,6-4.1,9.8-4.1C847.3,109.7,850.2,111,852.6,113.5z M852.6,125.4v-3.7c-0.3-1.6-1.1-3-2.4-4.3
			c-1.7-1.7-3.7-2.6-6.1-2.6s-4.4,0.9-6.1,2.6s-2.5,3.7-2.5,6.1c0,2.4,0.8,4.4,2.5,6.1c1.7,1.7,3.7,2.5,6.1,2.5s4.4-0.8,6.1-2.5
			C851.5,128.4,852.3,127,852.6,125.4z"/>
		<path class="st43" d="M872.7,131.1c0.8,0.7,2.4,1.1,4.6,1.1c2.4,0,4.4-0.8,6.1-2.5c0.2-0.2,0.6-0.7,1.3-1.5l5,1.8
			c-1.2,1.7-2.1,2.8-2.7,3.4c-2.7,2.7-6,4.1-9.8,4.1c-3.8,0-7.1-1.4-9.8-4.1c-2.7-2.7-4.1-6-4.1-9.8s1.4-7.1,4.1-9.8
			c2.7-2.7,6-4.1,9.8-4.1c3.3,0,6.1,1,8.6,3c0.4,0.3,0.8,0.7,1.2,1.1c0.2,0.2,0.6,0.7,1.4,1.5l-2.5,2.6L872.7,131.1z M881.1,115.5
			c-0.6-0.4-1.8-0.7-3.8-0.7c-2.4,0-4.4,0.8-6.1,2.5c-1.7,1.7-2.5,3.7-2.5,6.1c0,2,0.2,3.2,0.7,3.8L881.1,115.5z"/>
		<path class="st43" d="M105.7,171.5v-9.4h5v9.4h4.5v5h-4.5v20h-5v-20h-4.5v-5H105.7z"/>
		<path class="st43" d="M133.4,169.4c3.8,0,7.1,1.4,9.8,4.1c2.7,2.7,4,6,4,9.8c0,3.8-1.3,7.1-4,9.8c-2.7,2.7-6,4.1-9.8,4.1
			c-3.8,0-7.1-1.4-9.8-4.1c-2.7-2.7-4.1-6-4.1-9.8c0-3.8,1.4-7.1,4.1-9.8C126.3,170.8,129.6,169.4,133.4,169.4z M127.3,177.1
			c-1.7,1.7-2.5,3.7-2.5,6.1c0,2.4,0.8,4.4,2.5,6.1c1.7,1.7,3.7,2.5,6.1,2.5c2.4,0,4.4-0.8,6.1-2.5s2.5-3.7,2.5-6.1
			c0-2.4-0.8-4.4-2.5-6.1c-1.7-1.7-3.7-2.6-6.1-2.6C131,174.6,129,175.4,127.3,177.1z"/>
		<path class="st43" d="M158.1,174.8c1.9-2.5,4.2-3.9,6.9-4v5.2c-1.8,0.1-3.3,0.7-4.4,1.8c-1.6,1.6-2.5,3.5-2.6,5.8v12.9h-5v-25h5
			V174.8z"/>
		<path class="st43" d="M175.5,178.2v18.3h-5.1v-25h5.1v2.9c1.1-2.9,3.2-4.3,6.3-4.3c2.7,0,4.9,1,6.4,2.9c1.6,1.9,2.4,4.3,2.5,7.2
			v16.3h-5v-16.1c0-1.4-0.5-2.7-1.6-3.7c-1.1-1-2.3-1.5-3.8-1.5c-1.4,0-2.7,0.5-3.7,1.5C176,177.3,175.6,177.8,175.5,178.2z"/>
		<path class="st43" d="M219.7,173.2v-1.7h5.1v25h-5.1v-3.1c-2.4,2.5-5.2,3.8-8.5,3.8c-3.8,0-7.1-1.3-9.8-4c-2.7-2.7-4-6-4-9.8
			c0-3.8,1.3-7.1,4-9.8c2.7-2.7,6-4,9.8-4C214.5,169.5,217.3,170.7,219.7,173.2z M219.7,185.1v-3.7c-0.3-1.6-1.1-3-2.3-4.3
			c-1.7-1.7-3.7-2.5-6.1-2.5c-2.4,0-4.4,0.8-6.1,2.5c-1.7,1.7-2.5,3.7-2.5,6.1c0,2.4,0.8,4.4,2.5,6.1c1.7,1.7,3.7,2.5,6.1,2.5
			c2.4,0,4.4-0.8,6.1-2.5C218.7,188.1,219.4,186.7,219.7,185.1z"/>
		<path class="st43" d="M237.1,174.8c1.9-2.5,4.2-3.9,6.9-4v5.2c-1.8,0.1-3.3,0.7-4.4,1.8c-1.6,1.6-2.5,3.5-2.6,5.8v12.9h-5v-25h5
			V174.8z"/>
		<path class="st43" d="M254.5,178.2v18.3h-5.1v-25h5.1v2.9c1.1-2.9,3.2-4.3,6.3-4.3c2.7,0,4.9,1,6.4,2.9c1.6,1.9,2.4,4.3,2.5,7.2
			v16.3h-5v-16.1c0-1.4-0.5-2.7-1.6-3.7c-1.1-1-2.3-1.5-3.8-1.5c-1.4,0-2.7,0.5-3.7,1.5C255.1,177.3,254.7,177.8,254.5,178.2z"/>
		<path class="st43" d="M289.5,169.4c3.8,0,7.1,1.4,9.8,4.1c2.7,2.7,4,6,4,9.8c0,3.8-1.3,7.1-4,9.8c-2.7,2.7-6,4.1-9.8,4.1
			c-3.8,0-7.1-1.4-9.8-4.1c-2.7-2.7-4.1-6-4.1-9.8c0-3.8,1.4-7.1,4.1-9.8C282.4,170.8,285.7,169.4,289.5,169.4z M283.4,177.1
			c-1.7,1.7-2.5,3.7-2.5,6.1c0,2.4,0.8,4.4,2.5,6.1c1.7,1.7,3.7,2.5,6.1,2.5c2.4,0,4.4-0.8,6.1-2.5s2.5-3.7,2.5-6.1
			c0-2.4-0.8-4.4-2.5-6.1c-1.7-1.7-3.7-2.6-6.1-2.6C287.1,174.6,285,175.4,283.4,177.1z"/>
		<path class="st43" d="M314.2,191.1c0.6,0.6,1.3,0.9,2.1,0.9c0.8,0,1.5-0.3,2.1-0.9s0.9-1.3,0.9-2.2c0-0.8-0.3-1.5-0.9-2.1
			c-0.4-0.4-1.3-1-2.6-1.9c-1.8-1-3.1-1.9-3.9-2.6c-1.3-1.3-2-2.9-2-4.8c0-1.9,0.7-3.5,2-4.8s2.9-2,4.8-2c1.9,0,3.4,0.6,4.7,1.9
			c0.9,0.9,1.5,1.9,1.7,3l-4.9,1.4c-0.1-0.4-0.2-0.7-0.3-0.8c-0.3-0.3-0.7-0.4-1.2-0.4s-0.9,0.2-1.3,0.5c-0.3,0.3-0.5,0.8-0.5,1.3
			c0,0.5,0.2,0.9,0.5,1.2c0.3,0.3,1,0.8,2.1,1.5c2,1.1,3.5,2.1,4.4,3c1.6,1.6,2.4,3.5,2.4,5.7c0,2.2-0.8,4.1-2.3,5.7
			c-1.6,1.6-3.5,2.4-5.7,2.4c-2.2,0-4.1-0.8-5.7-2.4c-1.1-1.1-1.8-2.4-2.1-4.1l5-1.1C313.7,190.3,313.9,190.8,314.2,191.1z"/>
		<path class="st43" d="M355.5,190.8c0.8,0.7,2.4,1.1,4.6,1.1c2.4,0,4.4-0.8,6.1-2.5c0.2-0.2,0.6-0.7,1.3-1.5l5,1.8
			c-1.2,1.7-2.1,2.8-2.7,3.4c-2.7,2.7-6,4.1-9.8,4.1c-3.8,0-7.1-1.4-9.8-4.1c-2.7-2.7-4.1-6-4.1-9.8c0-3.8,1.4-7.1,4.1-9.8
			c2.7-2.7,6-4.1,9.8-4.1c3.3,0,6.1,1,8.6,3c0.4,0.3,0.8,0.7,1.2,1.1c0.2,0.2,0.6,0.7,1.4,1.5l-2.5,2.6L355.5,190.8z M363.9,175.2
			c-0.6-0.4-1.8-0.7-3.8-0.7c-2.4,0-4.4,0.8-6.1,2.5c-1.7,1.7-2.5,3.7-2.5,6.1c0,2,0.2,3.2,0.7,3.8L363.9,175.2z"/>
		<path class="st43" d="M383.5,178.2v18.3h-5.1v-25h5.1v2.9c1.1-2.9,3.2-4.3,6.3-4.3c2.7,0,4.9,1,6.4,2.9c1.6,1.9,2.4,4.3,2.5,7.2
			v16.3h-5v-16.1c0-1.4-0.5-2.7-1.6-3.7c-1.1-1-2.3-1.5-3.8-1.5c-1.4,0-2.7,0.5-3.7,1.5C384,177.3,383.7,177.8,383.5,178.2z"/>
		<path class="st43" d="M426.3,171.5v-9.4h5v9.4h4.5v5h-4.5v20h-5v-20h-4.5v-5H426.3z"/>
		<path class="st43" d="M454.1,169.4c3.8,0,7.1,1.4,9.8,4.1c2.7,2.7,4,6,4,9.8c0,3.8-1.3,7.1-4,9.8c-2.7,2.7-6,4.1-9.8,4.1
			c-3.8,0-7.1-1.4-9.8-4.1c-2.7-2.7-4.1-6-4.1-9.8c0-3.8,1.4-7.1,4.1-9.8C447,170.8,450.3,169.4,454.1,169.4z M447.9,177.1
			c-1.7,1.7-2.5,3.7-2.5,6.1c0,2.4,0.8,4.4,2.5,6.1c1.7,1.7,3.7,2.5,6.1,2.5c2.4,0,4.4-0.8,6.1-2.5s2.5-3.7,2.5-6.1
			c0-2.4-0.8-4.4-2.5-6.1c-1.7-1.7-3.7-2.6-6.1-2.6C451.7,174.6,449.6,175.4,447.9,177.1z"/>
		<path class="st43" d="M495.4,173.2v-15.6h5.1v38.9h-5.1v-3.1c-2.4,2.5-5.3,3.8-8.5,3.8c-3.8,0-7.1-1.4-9.8-4.1c-2.7-2.7-4-6-4-9.8
			c0-3.8,1.3-7.1,4-9.8c2.7-2.7,6-4.1,9.8-4.1C490.2,169.4,493,170.7,495.4,173.2z M495.4,185.1v-3.7c-0.3-1.6-1.1-3-2.4-4.3
			c-1.7-1.7-3.7-2.6-6.1-2.6s-4.4,0.8-6.1,2.6c-1.7,1.7-2.5,3.7-2.5,6.1c0,2.4,0.8,4.4,2.5,6.1s3.7,2.5,6.1,2.5s4.4-0.8,6.1-2.5
			C494.3,188.1,495.1,186.7,495.4,185.1z"/>
		<path class="st43" d="M520.1,169.4c3.8,0,7.1,1.4,9.8,4.1c2.7,2.7,4,6,4,9.8c0,3.8-1.3,7.1-4,9.8c-2.7,2.7-6,4.1-9.8,4.1
			c-3.8,0-7.1-1.4-9.8-4.1c-2.7-2.7-4.1-6-4.1-9.8c0-3.8,1.4-7.1,4.1-9.8C513.1,170.8,516.3,169.4,520.1,169.4z M514,177.1
			c-1.7,1.7-2.5,3.7-2.5,6.1c0,2.4,0.8,4.4,2.5,6.1c1.7,1.7,3.7,2.5,6.1,2.5c2.4,0,4.4-0.8,6.1-2.5s2.5-3.7,2.5-6.1
			c0-2.4-0.8-4.4-2.5-6.1c-1.7-1.7-3.7-2.6-6.1-2.6C517.7,174.6,515.7,175.4,514,177.1z"/>
		<path class="st43" d="M562,157.6v38.9H557v-38.9H562z"/>
		<path class="st43" d="M581.7,169.4c3.8,0,7.1,1.4,9.8,4.1c2.7,2.7,4,6,4,9.8c0,3.8-1.3,7.1-4,9.8c-2.7,2.7-6,4.1-9.8,4.1
			c-3.8,0-7.1-1.4-9.8-4.1c-2.7-2.7-4.1-6-4.1-9.8c0-3.8,1.4-7.1,4.1-9.8C574.6,170.8,577.9,169.4,581.7,169.4z M575.5,177.1
			c-1.7,1.7-2.5,3.7-2.5,6.1c0,2.4,0.8,4.4,2.5,6.1c1.7,1.7,3.7,2.5,6.1,2.5c2.4,0,4.4-0.8,6.1-2.5s2.5-3.7,2.5-6.1
			c0-2.4-0.8-4.4-2.5-6.1c-1.7-1.7-3.7-2.6-6.1-2.6C579.3,174.6,577.2,175.4,575.5,177.1z"/>
		<path class="st43" d="M639.6,173.2v-1.7h5.1v33.4h-5.1v-11.5c-2.4,2.5-5.3,3.8-8.5,3.8c-3.8,0-7.1-1.4-9.8-4.1c-2.7-2.7-4-6-4-9.8
			c0-3.8,1.3-7.1,4-9.8c2.7-2.7,6-4,9.8-4C634.4,169.4,637.2,170.7,639.6,173.2z M639.6,185.1v-3.7c-0.3-1.6-1.1-3-2.4-4.3
			c-1.7-1.7-3.7-2.6-6.1-2.6c-2.4,0-4.4,0.8-6.1,2.6c-1.7,1.7-2.5,3.7-2.5,6.1c0,2.4,0.8,4.4,2.5,6.1c1.7,1.7,3.7,2.5,6.1,2.5
			c2.4,0,4.4-0.8,6.1-2.5C638.5,188.1,639.3,186.7,639.6,185.1z"/>
		<path class="st43" d="M662.5,196.8c-3.2,0-5.7-1-7.6-2.9s-2.9-4.3-3-7.2v-15.2h5.1v15c0,1.4,0.5,2.7,1.6,3.7
			c1.1,1,2.4,1.6,3.9,1.6c1.4,0,2.7-0.5,3.8-1.5c1.1-1,1.6-2.3,1.6-3.7v-15h5v15.2c0,2.9-1,5.3-2.9,7.2
			C668,195.8,665.6,196.8,662.5,196.8z"/>
		<path class="st43" d="M688,190.8c0.8,0.7,2.4,1.1,4.6,1.1c2.4,0,4.4-0.8,6.1-2.5c0.2-0.2,0.6-0.7,1.3-1.5l5,1.8
			c-1.2,1.7-2.1,2.8-2.7,3.4c-2.7,2.7-6,4.1-9.8,4.1c-3.8,0-7.1-1.4-9.8-4.1c-2.7-2.7-4.1-6-4.1-9.8c0-3.8,1.4-7.1,4.1-9.8
			c2.7-2.7,6-4.1,9.8-4.1c3.3,0,6.1,1,8.6,3c0.4,0.3,0.8,0.7,1.2,1.1c0.2,0.2,0.6,0.7,1.4,1.5l-2.5,2.6L688,190.8z M696.4,175.2
			c-0.6-0.4-1.8-0.7-3.8-0.7c-2.4,0-4.4,0.8-6.1,2.5c-1.7,1.7-2.5,3.7-2.5,6.1c0,2,0.2,3.2,0.7,3.8L696.4,175.2z"/>
		<path class="st43" d="M733.1,191.1c0.6,0.6,1.3,0.9,2.1,0.9c0.8,0,1.5-0.3,2.1-0.9s0.9-1.3,0.9-2.2c0-0.8-0.3-1.5-0.9-2.1
			c-0.4-0.4-1.3-1-2.6-1.9c-1.8-1-3.1-1.9-3.9-2.6c-1.3-1.3-2-2.9-2-4.8c0-1.9,0.7-3.5,2-4.8s2.9-2,4.8-2c1.9,0,3.4,0.6,4.7,1.9
			c0.9,0.9,1.5,1.9,1.7,3l-4.9,1.4c-0.1-0.4-0.2-0.7-0.3-0.8c-0.3-0.3-0.7-0.4-1.2-0.4s-0.9,0.2-1.3,0.5c-0.3,0.3-0.5,0.8-0.5,1.3
			c0,0.5,0.2,0.9,0.5,1.2c0.3,0.3,1,0.8,2.1,1.5c2,1.1,3.5,2.1,4.4,3c1.6,1.6,2.4,3.5,2.4,5.7c0,2.2-0.8,4.1-2.3,5.7
			c-1.6,1.6-3.5,2.4-5.7,2.4c-2.2,0-4.1-0.8-5.7-2.4c-1.1-1.1-1.8-2.4-2.1-4.1l5-1.1C732.6,190.3,732.8,190.8,733.1,191.1z"/>
		<path class="st43" d="M761.8,169.4c3.8,0,7.1,1.4,9.8,4.1c2.7,2.7,4,6,4,9.8c0,3.8-1.3,7.1-4,9.8c-2.7,2.7-6,4.1-9.8,4.1
			c-3.8,0-7.1-1.4-9.8-4.1c-2.7-2.7-4.1-6-4.1-9.8c0-3.8,1.4-7.1,4.1-9.8C754.8,170.8,758,169.4,761.8,169.4z M755.7,177.1
			c-1.7,1.7-2.5,3.7-2.5,6.1c0,2.4,0.8,4.4,2.5,6.1c1.7,1.7,3.7,2.5,6.1,2.5c2.4,0,4.4-0.8,6.1-2.5s2.5-3.7,2.5-6.1
			c0-2.4-0.8-4.4-2.5-6.1c-1.7-1.7-3.7-2.6-6.1-2.6C759.4,174.6,757.4,175.4,755.7,177.1z"/>
		<path class="st43" d="M786.5,178.2v18.3h-5.1v-25h5.1v2.9c1.1-2.9,3.2-4.3,6.3-4.3c2.7,0,4.9,1,6.4,2.9c1.6,1.9,2.4,4.3,2.5,7.2
			v16.3h-5v-16.1c0-1.4-0.5-2.7-1.6-3.7c-1.1-1-2.3-1.5-3.8-1.5c-1.4,0-2.7,0.5-3.7,1.5C787.1,177.3,786.7,177.8,786.5,178.2z
			 M792.2,163.1c1,0.9,1.7,1.4,2.1,1.4v0c0.5,0,0.7-0.3,0.7-0.9c0-0.4-0.1-1-0.3-1.7h4.5c-0.6,3.6-1.8,5.6-3.6,6.1
			c-0.5,0.1-0.9,0.2-1.4,0.2c-1.2,0-2.3-0.5-3.2-1.4c-1-0.9-1.7-1.4-2.1-1.4h-0.1c-0.5,0-0.7,0.3-0.7,0.9c0,0.4,0.1,0.9,0.3,1.6H784
			c0.6-3.6,1.8-5.6,3.6-6.1c0.5-0.1,0.9-0.2,1.4-0.2C790.1,161.6,791.2,162.1,792.2,163.1z"/>
		<path class="st43" d="M830.8,173.2v-1.7h5.1v25h-5.1v-3.1c-2.4,2.5-5.2,3.8-8.5,3.8c-3.8,0-7.1-1.3-9.8-4c-2.7-2.7-4-6-4-9.8
			c0-3.8,1.3-7.1,4-9.8c2.7-2.7,6-4,9.8-4C825.6,169.5,828.4,170.7,830.8,173.2z M830.8,185.1v-3.7c-0.3-1.6-1.1-3-2.3-4.3
			c-1.7-1.7-3.7-2.5-6.1-2.5c-2.4,0-4.4,0.8-6.1,2.5c-1.7,1.7-2.5,3.7-2.5,6.1c0,2.4,0.8,4.4,2.5,6.1c1.7,1.7,3.7,2.5,6.1,2.5
			c2.4,0,4.4-0.8,6.1-2.5C829.8,188.1,830.5,186.7,830.8,185.1z"/>
		<path class="st43" d="M843.2,171.5h5v2.3c1-2.4,2.8-3.7,5.6-3.7c2.8,0,4.3,1.4,4.6,4.2c0.8-2.8,3-4.2,6.6-4.2
			c3.5,0,5.3,2.1,5.3,6.4v19.9h-5.1v-17.6c0-2.5-1-3.7-3-3.7c-0.8,0-1.5,0.3-2.1,0.9s-0.9,2.5-0.9,5.9v14.5h-5l0-17.6
			c0-2.5-1-3.7-3-3.7c-0.8,0-1.5,0.3-2.1,0.9c-0.5,0.5-0.8,1.8-0.9,4v16.4h-5V171.5z"/>
		<path class="st43" d="M890,169.4c3.8,0,7.1,1.4,9.8,4.1c2.7,2.7,4,6,4,9.8c0,3.8-1.3,7.1-4,9.8c-2.7,2.7-6,4.1-9.8,4.1
			c-3.8,0-7.1-1.4-9.8-4.1c-2.7-2.7-4.1-6-4.1-9.8c0-3.8,1.4-7.1,4.1-9.8C882.9,170.8,886.2,169.4,890,169.4z M883.9,177.1
			c-1.7,1.7-2.5,3.7-2.5,6.1c0,2.4,0.8,4.4,2.5,6.1c1.7,1.7,3.7,2.5,6.1,2.5c2.4,0,4.4-0.8,6.1-2.5s2.5-3.7,2.5-6.1
			c0-2.4-0.8-4.4-2.5-6.1c-1.7-1.7-3.7-2.6-6.1-2.6C887.6,174.6,885.6,175.4,883.9,177.1z"/>
		<path class="st43" d="M914.7,191.1c0.6,0.6,1.3,0.9,2.1,0.9c0.8,0,1.5-0.3,2.1-0.9s0.9-1.3,0.9-2.2c0-0.8-0.3-1.5-0.9-2.1
			c-0.4-0.4-1.3-1-2.6-1.9c-1.8-1-3.1-1.9-3.9-2.6c-1.3-1.3-2-2.9-2-4.8c0-1.9,0.7-3.5,2-4.8s2.9-2,4.8-2c1.9,0,3.4,0.6,4.7,1.9
			c0.9,0.9,1.5,1.9,1.7,3l-4.9,1.4c-0.1-0.4-0.2-0.7-0.3-0.8c-0.3-0.3-0.7-0.4-1.2-0.4s-0.9,0.2-1.3,0.5c-0.3,0.3-0.5,0.8-0.5,1.3
			c0,0.5,0.2,0.9,0.5,1.2c0.3,0.3,1,0.8,2.1,1.5c2,1.1,3.5,2.1,4.4,3c1.6,1.6,2.4,3.5,2.4,5.7c0,2.2-0.8,4.1-2.3,5.7
			c-1.6,1.6-3.5,2.4-5.7,2.4c-2.2,0-4.1-0.8-5.7-2.4c-1.1-1.1-1.8-2.4-2.1-4.1l5-1.1C914.2,190.3,914.4,190.8,914.7,191.1z"/>
		<path class="st43" d="M953.3,191.1c0.6,0.6,1.3,0.9,2.1,0.9c0.8,0,1.5-0.3,2.1-0.9s0.9-1.3,0.9-2.2c0-0.8-0.3-1.5-0.9-2.1
			c-0.4-0.4-1.3-1-2.6-1.9c-1.8-1-3.1-1.9-3.9-2.6c-1.3-1.3-2-2.9-2-4.8c0-1.9,0.7-3.5,2-4.8s2.9-2,4.8-2c1.9,0,3.4,0.6,4.7,1.9
			c0.9,0.9,1.5,1.9,1.7,3l-4.9,1.4c-0.1-0.4-0.2-0.7-0.3-0.8c-0.3-0.3-0.7-0.4-1.2-0.4s-0.9,0.2-1.3,0.5c-0.3,0.3-0.5,0.8-0.5,1.3
			c0,0.5,0.2,0.9,0.5,1.2c0.3,0.3,1,0.8,2.1,1.5c2,1.1,3.5,2.1,4.4,3c1.6,1.6,2.4,3.5,2.4,5.7c0,2.2-0.8,4.1-2.3,5.7
			c-1.6,1.6-3.5,2.4-5.7,2.4c-2.2,0-4.1-0.8-5.7-2.4c-1.1-1.1-1.8-2.4-2.1-4.1l5-1.1C952.8,190.3,953,190.8,953.3,191.1z"/>
		<path class="st43" d="M977.5,190.8c0.8,0.7,2.4,1.1,4.6,1.1c2.4,0,4.4-0.8,6.1-2.5c0.2-0.2,0.6-0.7,1.3-1.5l5,1.8
			c-1.2,1.7-2.1,2.8-2.7,3.4c-2.7,2.7-6,4.1-9.8,4.1c-3.8,0-7.1-1.4-9.8-4.1c-2.7-2.7-4.1-6-4.1-9.8c0-3.8,1.4-7.1,4.1-9.8
			c2.7-2.7,6-4.1,9.8-4.1c3.3,0,6.1,1,8.6,3c0.4,0.3,0.8,0.7,1.2,1.1c0.2,0.2,0.6,0.7,1.4,1.5l-2.5,2.6L977.5,190.8z M985.9,175.2
			c-0.6-0.4-1.8-0.7-3.8-0.7c-2.4,0-4.4,0.8-6.1,2.5c-1.7,1.7-2.5,3.7-2.5,6.1c0,2,0.2,3.2,0.7,3.8L985.9,175.2z"/>
		<path class="st43" d="M1005.4,174.8c1.9-2.5,4.2-3.9,6.9-4v5.2c-1.8,0.1-3.3,0.7-4.4,1.8c-1.6,1.6-2.5,3.5-2.6,5.8v12.9h-5v-25h5
			V174.8z"/>
		<path class="st43" d="M1020.6,189.7l-5.6,11.7h-4.8l3.1-11.7H1020.6z"/>
		<path class="st209" d="M107.7,217.3v38.9h-5.1v-38.9H107.7z"/>
		<path class="st209" d="M136.6,232.9v-1.7h5.1v25h-5.1V253c-2.4,2.5-5.2,3.8-8.5,3.8c-3.8,0-7.1-1.3-9.8-4c-2.7-2.7-4-6-4-9.8
			c0-3.8,1.3-7.1,4-9.8c2.7-2.7,6-4,9.8-4C131.4,229.2,134.2,230.4,136.6,232.9z M136.6,244.8v-3.7c-0.3-1.6-1.1-3-2.3-4.3
			c-1.7-1.7-3.7-2.5-6.1-2.5c-2.4,0-4.4,0.8-6.1,2.5c-1.7,1.7-2.5,3.7-2.5,6.1c0,2.4,0.8,4.4,2.5,6.1c1.7,1.7,3.7,2.5,6.1,2.5
			c2.4,0,4.4-0.8,6.1-2.5C135.6,247.8,136.3,246.4,136.6,244.8z"/>
		<path class="st209" d="M175.7,256.2l-11.9-25h5.7l7.5,16.2l7.5-16.2h5.7l-12,25H175.7z"/>
		<path class="st209" d="M200.5,221.9c0.7,0.7,1,1.5,1,2.5c0,1-0.3,1.8-1,2.5c-0.7,0.7-1.5,1-2.5,1c-1,0-1.8-0.3-2.5-1
			c-0.7-0.7-1-1.5-1-2.5c0-1,0.3-1.8,1-2.5c0.7-0.7,1.5-1,2.5-1C198.9,220.9,199.8,221.2,200.5,221.9z M200.5,231.2v25h-5v-25H200.5
			z"/>
		<path class="st209" d="M229.9,232.9v-15.6h5.1v38.9h-5.1V253c-2.4,2.5-5.3,3.8-8.5,3.8c-3.8,0-7.1-1.4-9.8-4.1c-2.7-2.7-4-6-4-9.8
			c0-3.8,1.3-7.1,4-9.8c2.7-2.7,6-4.1,9.8-4.1C224.6,229.1,227.5,230.4,229.9,232.9z M229.9,244.8v-3.7c-0.3-1.6-1.1-3-2.4-4.3
			c-1.7-1.7-3.7-2.6-6.1-2.6s-4.4,0.8-6.1,2.6c-1.7,1.7-2.5,3.7-2.5,6.1c0,2.4,0.8,4.4,2.5,6.1s3.7,2.5,6.1,2.5s4.4-0.8,6.1-2.5
			C228.8,247.8,229.6,246.4,229.9,244.8z"/>
		<path class="st209" d="M263.9,232.9v-1.7h5.1v25h-5.1V253c-2.4,2.5-5.2,3.8-8.5,3.8c-3.8,0-7.1-1.3-9.8-4c-2.7-2.7-4-6-4-9.8
			c0-3.8,1.3-7.1,4-9.8c2.7-2.7,6-4,9.8-4C258.7,229.2,261.5,230.4,263.9,232.9z M263.9,244.8v-3.7c-0.3-1.6-1.1-3-2.3-4.3
			c-1.7-1.7-3.7-2.5-6.1-2.5c-2.4,0-4.4,0.8-6.1,2.5c-1.7,1.7-2.5,3.7-2.5,6.1c0,2.4,0.8,4.4,2.5,6.1c1.7,1.7,3.7,2.5,6.1,2.5
			c2.4,0,4.4-0.8,6.1-2.5C262.8,247.8,263.6,246.4,263.9,244.8z"/>
		<path class="st209" d="M301.2,250.5c0.8,0.7,2.4,1.1,4.6,1.1c2.4,0,4.4-0.8,6.1-2.5c0.2-0.2,0.6-0.7,1.3-1.5l5,1.8
			c-1.2,1.7-2.1,2.8-2.7,3.4c-2.7,2.7-6,4.1-9.8,4.1c-3.8,0-7.1-1.4-9.8-4.1c-2.7-2.7-4.1-6-4.1-9.8c0-3.8,1.4-7.1,4.1-9.8
			c2.7-2.7,6-4.1,9.8-4.1c3.3,0,6.1,1,8.6,3c0.4,0.3,0.8,0.7,1.2,1.1c0.2,0.2,0.6,0.7,1.4,1.5l-2.5,2.6L301.2,250.5z M309.6,234.9
			c-0.6-0.4-1.8-0.7-3.8-0.7c-2.4,0-4.4,0.8-6.1,2.5c-1.7,1.7-2.5,3.7-2.5,6.1c0,2,0.2,3.2,0.7,3.8L309.6,234.9z"/>
		<path class="st209" d="M329.2,250.8c0.6,0.6,1.3,0.9,2.1,0.9c0.8,0,1.5-0.3,2.1-0.9s0.9-1.3,0.9-2.2c0-0.8-0.3-1.5-0.9-2.1
			c-0.4-0.4-1.3-1-2.6-1.9c-1.8-1-3.1-1.9-3.9-2.6c-1.3-1.3-2-2.9-2-4.8c0-1.9,0.7-3.5,2-4.8s2.9-2,4.8-2c1.9,0,3.4,0.6,4.7,1.9
			c0.9,0.9,1.5,1.9,1.7,3l-4.9,1.4c-0.1-0.4-0.2-0.7-0.3-0.8c-0.3-0.3-0.7-0.4-1.2-0.4s-0.9,0.2-1.3,0.5c-0.3,0.3-0.5,0.8-0.5,1.3
			c0,0.5,0.2,0.9,0.5,1.2c0.3,0.3,1,0.8,2.1,1.5c2,1.1,3.5,2.1,4.4,3c1.6,1.6,2.4,3.5,2.4,5.7c0,2.2-0.8,4.1-2.3,5.7
			c-1.6,1.6-3.5,2.4-5.7,2.4c-2.2,0-4.1-0.8-5.7-2.4c-1.1-1.1-1.8-2.4-2.1-4.1l5-1.1C328.6,250,328.9,250.5,329.2,250.8z"/>
		<path class="st209" d="M373.3,256.5c-3.2,0-5.7-1-7.6-2.9s-2.9-4.3-3-7.2v-15.2h5.1v15c0,1.4,0.5,2.7,1.6,3.7
			c1.1,1,2.4,1.6,3.9,1.6c1.4,0,2.7-0.5,3.8-1.5c1.1-1,1.6-2.3,1.6-3.7v-15h5v15.2c0,2.9-1,5.3-2.9,7.2
			C378.8,255.5,376.4,256.5,373.3,256.5z"/>
		<path class="st209" d="M396,237.9v18.3H391v-25h5.1v2.9c1.1-2.9,3.2-4.3,6.3-4.3c2.7,0,4.9,1,6.4,2.9c1.6,1.9,2.4,4.3,2.5,7.2
			v16.3h-5v-16.1c0-1.4-0.5-2.7-1.6-3.7c-1.1-1-2.3-1.5-3.8-1.5c-1.4,0-2.7,0.5-3.7,1.5C396.6,237,396.2,237.5,396,237.9z"/>
		<path class="st209" d="M440.3,232.9v-1.7h5.1v25h-5.1V253c-2.4,2.5-5.2,3.8-8.5,3.8c-3.8,0-7.1-1.3-9.8-4c-2.7-2.7-4-6-4-9.8
			c0-3.8,1.3-7.1,4-9.8c2.7-2.7,6-4,9.8-4C435.1,229.2,437.9,230.4,440.3,232.9z M440.3,244.8v-3.7c-0.3-1.6-1.1-3-2.3-4.3
			c-1.7-1.7-3.7-2.5-6.1-2.5c-2.4,0-4.4,0.8-6.1,2.5c-1.7,1.7-2.5,3.7-2.5,6.1c0,2.4,0.8,4.4,2.5,6.1c1.7,1.7,3.7,2.5,6.1,2.5
			c2.4,0,4.4-0.8,6.1-2.5C439.2,247.8,440,246.4,440.3,244.8z"/>
		<path class="st209" d="M489.7,247.6l5,1.8c-1.2,1.7-2.1,2.8-2.7,3.4c-2.7,2.7-6,4.1-9.8,4.1c-3.8,0-7.1-1.4-9.8-4.1
			c-2.7-2.7-4.1-6-4.1-9.8c0-3.8,1.4-7.1,4.1-9.8c2.7-2.7,6-4.1,9.8-4.1c3.8,0,7.1,1.4,9.8,4.1c0.6,0.6,1.4,1.7,2.7,3.3l-5,1.8
			c-0.6-0.8-1.1-1.3-1.3-1.5c-1.7-1.7-3.7-2.5-6.1-2.5c-2.4,0-4.4,0.8-6.1,2.5c-1.7,1.7-2.5,3.7-2.5,6.1c0,2.4,0.8,4.4,2.5,6.1
			c1.7,1.7,3.7,2.5,6.1,2.5c2.4,0,4.4-0.8,6.1-2.5C488.6,248.9,489,248.4,489.7,247.6z"/>
		<path class="st209" d="M512.9,229.1c3.8,0,7.1,1.4,9.8,4.1c2.7,2.7,4,6,4,9.8c0,3.8-1.3,7.1-4,9.8c-2.7,2.7-6,4.1-9.8,4.1
			c-3.8,0-7.1-1.4-9.8-4.1c-2.7-2.7-4.1-6-4.1-9.8c0-3.8,1.4-7.1,4.1-9.8C505.8,230.5,509.1,229.1,512.9,229.1z M506.8,236.8
			c-1.7,1.7-2.5,3.7-2.5,6.1c0,2.4,0.8,4.4,2.5,6.1c1.7,1.7,3.7,2.5,6.1,2.5c2.4,0,4.4-0.8,6.1-2.5s2.5-3.7,2.5-6.1
			c0-2.4-0.8-4.4-2.5-6.1c-1.7-1.7-3.7-2.6-6.1-2.6C510.5,234.3,508.5,235.1,506.8,236.8z"/>
		<path class="st209" d="M537.6,237.9v18.3h-5.1v-25h5.1v2.9c1.1-2.9,3.2-4.3,6.3-4.3c2.7,0,4.9,1,6.4,2.9c1.6,1.9,2.4,4.3,2.5,7.2
			v16.3h-5v-16.1c0-1.4-0.5-2.7-1.6-3.7c-1.1-1-2.3-1.5-3.8-1.5c-1.4,0-2.7,0.5-3.7,1.5C538.2,237,537.8,237.5,537.6,237.9z"/>
		<path class="st209" d="M565.3,250.8c0.6,0.6,1.3,0.9,2.1,0.9c0.8,0,1.5-0.3,2.1-0.9s0.9-1.3,0.9-2.2c0-0.8-0.3-1.5-0.9-2.1
			c-0.4-0.4-1.3-1-2.6-1.9c-1.8-1-3.1-1.9-3.9-2.6c-1.3-1.3-2-2.9-2-4.8c0-1.9,0.7-3.5,2-4.8s2.9-2,4.8-2c1.9,0,3.4,0.6,4.7,1.9
			c0.9,0.9,1.5,1.9,1.7,3l-4.9,1.4c-0.1-0.4-0.2-0.7-0.3-0.8c-0.3-0.3-0.7-0.4-1.2-0.4s-0.9,0.2-1.3,0.5c-0.3,0.3-0.5,0.8-0.5,1.3
			c0,0.5,0.2,0.9,0.5,1.2c0.3,0.3,1,0.8,2.1,1.5c2,1.1,3.5,2.1,4.4,3c1.6,1.6,2.4,3.5,2.4,5.7c0,2.2-0.8,4.1-2.3,5.7
			c-1.6,1.6-3.5,2.4-5.7,2.4c-2.2,0-4.1-0.8-5.7-2.4c-1.1-1.1-1.8-2.4-2.1-4.1l5-1.1C564.7,250,565,250.5,565.3,250.8z"/>
		<path class="st209" d="M585.1,231.2v-9.4h5v9.4h4.5v5h-4.5v20h-5v-20h-4.5v-5H585.1z"/>
		<path class="st209" d="M622.1,232.9v-1.7h5.1v25h-5.1V253c-2.4,2.5-5.2,3.8-8.5,3.8c-3.8,0-7.1-1.3-9.8-4c-2.7-2.7-4-6-4-9.8
			c0-3.8,1.3-7.1,4-9.8c2.7-2.7,6-4,9.8-4C616.9,229.2,619.7,230.4,622.1,232.9z M622.1,244.8v-3.7c-0.3-1.6-1.1-3-2.3-4.3
			c-1.7-1.7-3.7-2.5-6.1-2.5c-2.4,0-4.4,0.8-6.1,2.5c-1.7,1.7-2.5,3.7-2.5,6.1c0,2.4,0.8,4.4,2.5,6.1c1.7,1.7,3.7,2.5,6.1,2.5
			c2.4,0,4.4-0.8,6.1-2.5C621,247.8,621.8,246.4,622.1,244.8z"/>
		<path class="st209" d="M639.5,237.9v18.3h-5.1v-25h5.1v2.9c1.1-2.9,3.2-4.3,6.3-4.3c2.7,0,4.9,1,6.4,2.9c1.6,1.9,2.4,4.3,2.5,7.2
			v16.3h-5v-16.1c0-1.4-0.5-2.7-1.6-3.7c-1.1-1-2.3-1.5-3.8-1.5c-1.4,0-2.7,0.5-3.7,1.5C640.1,237,639.7,237.5,639.5,237.9z"/>
		<path class="st209" d="M665.2,231.2v-9.4h5v9.4h4.5v5h-4.5v20h-5v-20h-4.5v-5H665.2z"/>
		<path class="st209" d="M688.3,250.5c0.8,0.7,2.4,1.1,4.6,1.1c2.4,0,4.4-0.8,6.1-2.5c0.2-0.2,0.6-0.7,1.3-1.5l5,1.8
			c-1.2,1.7-2.1,2.8-2.7,3.4c-2.7,2.7-6,4.1-9.8,4.1c-3.8,0-7.1-1.4-9.8-4.1c-2.7-2.7-4.1-6-4.1-9.8c0-3.8,1.4-7.1,4.1-9.8
			c2.7-2.7,6-4.1,9.8-4.1c3.3,0,6.1,1,8.6,3c0.4,0.3,0.8,0.7,1.2,1.1c0.2,0.2,0.6,0.7,1.4,1.5l-2.5,2.6L688.3,250.5z M696.7,234.9
			c-0.6-0.4-1.8-0.7-3.8-0.7c-2.4,0-4.4,0.8-6.1,2.5c-1.7,1.7-2.5,3.7-2.5,6.1c0,2,0.2,3.2,0.7,3.8L696.7,234.9z"/>
		<path class="st209" d="M750.1,232.9v-15.6h5.1v38.9h-5.1V253c-2.4,2.5-5.3,3.8-8.5,3.8c-3.8,0-7.1-1.4-9.8-4.1c-2.7-2.7-4-6-4-9.8
			c0-3.8,1.3-7.1,4-9.8c2.7-2.7,6-4.1,9.8-4.1C744.8,229.1,747.7,230.4,750.1,232.9z M750.1,244.8v-3.7c-0.3-1.6-1.1-3-2.4-4.3
			c-1.7-1.7-3.7-2.6-6.1-2.6s-4.4,0.8-6.1,2.6c-1.7,1.7-2.5,3.7-2.5,6.1c0,2.4,0.8,4.4,2.5,6.1s3.7,2.5,6.1,2.5s4.4-0.8,6.1-2.5
			C749,247.8,749.8,246.4,750.1,244.8z"/>
		<path class="st209" d="M770.2,250.5c0.8,0.7,2.4,1.1,4.6,1.1c2.4,0,4.4-0.8,6.1-2.5c0.2-0.2,0.6-0.7,1.3-1.5l5,1.8
			c-1.2,1.7-2.1,2.8-2.7,3.4c-2.7,2.7-6,4.1-9.8,4.1c-3.8,0-7.1-1.4-9.8-4.1c-2.7-2.7-4.1-6-4.1-9.8c0-3.8,1.4-7.1,4.1-9.8
			c2.7-2.7,6-4.1,9.8-4.1c3.3,0,6.1,1,8.6,3c0.4,0.3,0.8,0.7,1.2,1.1c0.2,0.2,0.6,0.7,1.4,1.5l-2.5,2.6L770.2,250.5z M778.6,234.9
			c-0.6-0.4-1.8-0.7-3.8-0.7c-2.4,0-4.4,0.8-6.1,2.5c-1.7,1.7-2.5,3.7-2.5,6.1c0,2,0.2,3.2,0.7,3.8L778.6,234.9z"/>
		<path class="st209" d="M830.1,247.6l5,1.8c-1.2,1.7-2.1,2.8-2.7,3.4c-2.7,2.7-6,4.1-9.8,4.1c-3.8,0-7.1-1.4-9.8-4.1
			c-2.7-2.7-4.1-6-4.1-9.8c0-3.8,1.4-7.1,4.1-9.8c2.7-2.7,6-4.1,9.8-4.1c3.8,0,7.1,1.4,9.8,4.1c0.6,0.6,1.4,1.7,2.7,3.3l-5,1.8
			c-0.6-0.8-1.1-1.3-1.3-1.5c-1.7-1.7-3.7-2.5-6.1-2.5c-2.4,0-4.4,0.8-6.1,2.5c-1.7,1.7-2.5,3.7-2.5,6.1c0,2.4,0.8,4.4,2.5,6.1
			c1.7,1.7,3.7,2.5,6.1,2.5c2.4,0,4.4-0.8,6.1-2.5C829,248.9,829.4,248.4,830.1,247.6z"/>
		<path class="st209" d="M846,234.5c1.9-2.5,4.2-3.9,6.9-4v5.2c-1.8,0.1-3.3,0.7-4.4,1.8c-1.6,1.6-2.5,3.5-2.6,5.8v12.9h-5v-25h5
			V234.5z"/>
		<path class="st209" d="M865.5,250.5c0.8,0.7,2.4,1.1,4.6,1.1c2.4,0,4.4-0.8,6.1-2.5c0.2-0.2,0.6-0.7,1.3-1.5l5,1.8
			c-1.2,1.7-2.1,2.8-2.7,3.4c-2.7,2.7-6,4.1-9.8,4.1c-3.8,0-7.1-1.4-9.8-4.1c-2.7-2.7-4.1-6-4.1-9.8c0-3.8,1.4-7.1,4.1-9.8
			c2.7-2.7,6-4.1,9.8-4.1c3.3,0,6.1,1,8.6,3c0.4,0.3,0.8,0.7,1.2,1.1c0.2,0.2,0.6,0.7,1.4,1.5l-2.5,2.6L865.5,250.5z M873.9,234.9
			c-0.6-0.4-1.8-0.7-3.8-0.7c-2.4,0-4.4,0.8-6.1,2.5c-1.7,1.7-2.5,3.7-2.5,6.1c0,2,0.2,3.2,0.7,3.8L873.9,234.9z"/>
		<path class="st209" d="M908.1,247.6l5,1.8c-1.2,1.7-2.1,2.8-2.7,3.4c-2.7,2.7-6,4.1-9.8,4.1c-3.8,0-7.1-1.4-9.8-4.1
			c-2.7-2.7-4.1-6-4.1-9.8c0-3.8,1.4-7.1,4.1-9.8c2.7-2.7,6-4.1,9.8-4.1c3.8,0,7.1,1.4,9.8,4.1c0.6,0.6,1.4,1.7,2.7,3.3l-5,1.8
			c-0.6-0.8-1.1-1.3-1.3-1.5c-1.7-1.7-3.7-2.5-6.1-2.5c-2.4,0-4.4,0.8-6.1,2.5c-1.7,1.7-2.5,3.7-2.5,6.1c0,2.4,0.8,4.4,2.5,6.1
			c1.7,1.7,3.7,2.5,6.1,2.5c2.4,0,4.4-0.8,6.1-2.5C907.1,248.9,907.5,248.4,908.1,247.6z"/>
		<path class="st209" d="M924.4,221.9c0.7,0.7,1,1.5,1,2.5c0,1-0.3,1.8-1,2.5c-0.7,0.7-1.5,1-2.5,1c-1,0-1.8-0.3-2.5-1
			c-0.7-0.7-1-1.5-1-2.5c0-1,0.3-1.8,1-2.5c0.7-0.7,1.5-1,2.5-1C922.9,220.9,923.7,221.2,924.4,221.9z M924.4,231.2v25h-5v-25H924.4
			z"/>
		<path class="st209" d="M932.1,231.2h5v2.3c1-2.4,2.8-3.7,5.6-3.7c2.8,0,4.3,1.4,4.6,4.2c0.8-2.8,3-4.2,6.6-4.2
			c3.5,0,5.3,2.1,5.3,6.4v19.9h-5.1v-17.6c0-2.5-1-3.7-3-3.7c-0.8,0-1.5,0.3-2.1,0.9s-0.9,2.5-0.9,5.9v14.5h-5l0-17.6
			c0-2.5-1-3.7-3-3.7c-0.8,0-1.5,0.3-2.1,0.9c-0.5,0.5-0.8,1.8-0.9,4v16.4h-5V231.2z"/>
		<path class="st209" d="M972,221.9c0.7,0.7,1,1.5,1,2.5c0,1-0.3,1.8-1,2.5c-0.7,0.7-1.5,1-2.5,1c-1,0-1.8-0.3-2.5-1
			c-0.7-0.7-1-1.5-1-2.5c0-1,0.3-1.8,1-2.5c0.7-0.7,1.5-1,2.5-1C970.5,220.9,971.3,221.2,972,221.9z M972,231.2v25h-5v-25H972z"/>
		<path class="st209" d="M987.5,250.5c0.8,0.7,2.4,1.1,4.6,1.1c2.4,0,4.4-0.8,6.1-2.5c0.2-0.2,0.6-0.7,1.3-1.5l5,1.8
			c-1.2,1.7-2.1,2.8-2.7,3.4c-2.7,2.7-6,4.1-9.8,4.1c-3.8,0-7.1-1.4-9.8-4.1c-2.7-2.7-4.1-6-4.1-9.8c0-3.8,1.4-7.1,4.1-9.8
			c2.7-2.7,6-4.1,9.8-4.1c3.3,0,6.1,1,8.6,3c0.4,0.3,0.8,0.7,1.2,1.1c0.2,0.2,0.6,0.7,1.4,1.5l-2.5,2.6L987.5,250.5z M995.9,234.9
			c-0.6-0.4-1.8-0.7-3.8-0.7c-2.4,0-4.4,0.8-6.1,2.5c-1.7,1.7-2.5,3.7-2.5,6.1c0,2,0.2,3.2,0.7,3.8L995.9,234.9z"/>
		<path class="st209" d="M1015.4,237.9v18.3h-5.1v-25h5.1v2.9c1.1-2.9,3.2-4.3,6.3-4.3c2.7,0,4.9,1,6.4,2.9c1.6,1.9,2.4,4.3,2.5,7.2
			v16.3h-5v-16.1c0-1.4-0.5-2.7-1.6-3.7c-1.1-1-2.3-1.5-3.8-1.5c-1.4,0-2.7,0.5-3.7,1.5C1016,237,1015.6,237.5,1015.4,237.9z"/>
		<path class="st209" d="M1041.1,231.2v-9.4h5v9.4h4.5v5h-4.5v20h-5v-20h-4.5v-5H1041.1z"/>
		<path class="st209" d="M1068.8,229.1c3.8,0,7.1,1.4,9.8,4.1c2.7,2.7,4,6,4,9.8c0,3.8-1.3,7.1-4,9.8c-2.7,2.7-6,4.1-9.8,4.1
			c-3.8,0-7.1-1.4-9.8-4.1c-2.7-2.7-4.1-6-4.1-9.8c0-3.8,1.4-7.1,4.1-9.8C1061.8,230.5,1065,229.1,1068.8,229.1z M1062.7,236.8
			c-1.7,1.7-2.5,3.7-2.5,6.1c0,2.4,0.8,4.4,2.5,6.1c1.7,1.7,3.7,2.5,6.1,2.5c2.4,0,4.4-0.8,6.1-2.5s2.5-3.7,2.5-6.1
			c0-2.4-0.8-4.4-2.5-6.1c-1.7-1.7-3.7-2.6-6.1-2.6C1066.4,234.3,1064.4,235.1,1062.7,236.8z"/>
		<path class="st209" d="M108.8,324.3h-5.3l6.7-14l-9.3-19.4h5.7l6.3,13.7l6.3-13.7h5.6L108.8,324.3z"/>
		<path class="st209" d="M155.3,310.2c0.8,0.7,2.4,1.1,4.6,1.1c2.4,0,4.4-0.8,6.1-2.5c0.2-0.2,0.6-0.7,1.3-1.5l5,1.8
			c-1.2,1.7-2.1,2.8-2.7,3.4c-2.7,2.7-6,4.1-9.8,4.1c-3.8,0-7.1-1.4-9.8-4.1c-2.7-2.7-4.1-6-4.1-9.8s1.4-7.1,4.1-9.8
			c2.7-2.7,6-4.1,9.8-4.1c3.3,0,6.1,1,8.6,3c0.4,0.3,0.8,0.7,1.2,1.1c0.2,0.2,0.6,0.7,1.4,1.5l-2.5,2.6L155.3,310.2z M163.7,294.7
			c-0.6-0.4-1.8-0.7-3.8-0.7c-2.4,0-4.4,0.8-6.1,2.5c-1.7,1.7-2.5,3.7-2.5,6.1c0,2,0.2,3.2,0.7,3.8L163.7,294.7z"/>
		<path class="st209" d="M183.2,277v38.9h-5.1V277H183.2z"/>
		<path class="st209" d="M227.5,307.3l5,1.8c-1.2,1.7-2.1,2.8-2.7,3.4c-2.7,2.7-6,4.1-9.8,4.1c-3.8,0-7.1-1.4-9.8-4.1
			c-2.7-2.7-4.1-6-4.1-9.8s1.4-7.1,4.1-9.8c2.7-2.7,6-4.1,9.8-4.1c3.8,0,7.1,1.4,9.8,4.1c0.6,0.6,1.4,1.7,2.7,3.3l-5,1.8
			c-0.6-0.8-1.1-1.3-1.3-1.5c-1.7-1.7-3.7-2.5-6.1-2.5c-2.4,0-4.4,0.8-6.1,2.5c-1.7,1.7-2.5,3.7-2.5,6.1c0,2.4,0.8,4.4,2.5,6.1
			c1.7,1.7,3.7,2.5,6.1,2.5c2.4,0,4.4-0.8,6.1-2.5C226.4,308.6,226.8,308.1,227.5,307.3z"/>
		<path class="st209" d="M260,292.6v-1.7h5.1v25H260v-3.1c-2.4,2.5-5.2,3.8-8.5,3.8c-3.8,0-7.1-1.3-9.8-4c-2.7-2.7-4-6-4-9.8
			s1.3-7.1,4-9.8c2.7-2.7,6-4,9.8-4C254.8,288.9,257.6,290.1,260,292.6z M260,304.5v-3.7c-0.3-1.6-1.1-3-2.3-4.3
			c-1.7-1.7-3.7-2.5-6.1-2.5c-2.4,0-4.4,0.8-6.1,2.5s-2.5,3.7-2.5,6.1c0,2.4,0.8,4.4,2.5,6.1s3.7,2.5,6.1,2.5c2.4,0,4.4-0.8,6.1-2.5
			C258.9,307.5,259.7,306.1,260,304.5z"/>
		<path class="st209" d="M272.4,290.9h5v2.3c1-2.4,2.8-3.7,5.6-3.7c2.8,0,4.3,1.4,4.6,4.2c0.8-2.8,3-4.2,6.6-4.2
			c3.5,0,5.3,2.1,5.3,6.4v19.9h-5.1v-17.6c0-2.5-1-3.7-3-3.7c-0.8,0-1.5,0.3-2.1,0.9s-0.9,2.5-0.9,5.9v14.5h-5l0-17.6
			c0-2.5-1-3.7-3-3.7c-0.8,0-1.5,0.3-2.1,0.9c-0.5,0.5-0.8,1.8-0.9,4v16.4h-5V290.9z"/>
		<path class="st209" d="M312.2,281.6c0.7,0.7,1,1.5,1,2.5s-0.3,1.8-1,2.5s-1.5,1-2.5,1c-1,0-1.8-0.3-2.5-1s-1-1.5-1-2.5
			s0.3-1.8,1-2.5c0.7-0.7,1.5-1,2.5-1C310.7,280.6,311.6,280.9,312.2,281.6z M312.3,290.9v25h-5v-25H312.3z"/>
		<path class="st209" d="M325,297.6v18.3H320v-25h5.1v2.9c1.1-2.8,3.2-4.3,6.3-4.3c2.7,0,4.9,1,6.4,2.9c1.6,1.9,2.4,4.3,2.5,7.2
			v16.3h-5v-16.1c0-1.4-0.5-2.7-1.6-3.7s-2.3-1.5-3.8-1.5c-1.4,0-2.7,0.5-3.7,1.5C325.6,296.7,325.2,297.2,325,297.6z"/>
		<path class="st209" d="M360,288.8c3.8,0,7.1,1.4,9.8,4.1c2.7,2.7,4,6,4,9.8s-1.3,7.1-4,9.8c-2.7,2.7-6,4.1-9.8,4.1
			c-3.8,0-7.1-1.4-9.8-4.1c-2.7-2.7-4.1-6-4.1-9.8s1.4-7.1,4.1-9.8C352.9,290.2,356.2,288.8,360,288.8z M353.9,296.5
			c-1.7,1.7-2.5,3.7-2.5,6.1c0,2.4,0.8,4.4,2.5,6.1c1.7,1.7,3.7,2.5,6.1,2.5c2.4,0,4.4-0.8,6.1-2.5c1.7-1.7,2.5-3.7,2.5-6.1
			c0-2.4-0.8-4.4-2.5-6.1s-3.7-2.6-6.1-2.6C357.6,294,355.6,294.8,353.9,296.5z"/>
		<path class="st209" d="M396.9,290.9h5v2.3c1-2.4,2.8-3.7,5.6-3.7c2.8,0,4.3,1.4,4.6,4.2c0.8-2.8,3-4.2,6.6-4.2
			c3.5,0,5.3,2.1,5.3,6.4v19.9h-5.1v-17.6c0-2.5-1-3.7-3-3.7c-0.8,0-1.5,0.3-2.1,0.9s-0.9,2.5-0.9,5.9v14.5h-5l0-17.6
			c0-2.5-1-3.7-3-3.7c-0.8,0-1.5,0.3-2.1,0.9c-0.5,0.5-0.8,1.8-0.9,4v16.4h-5V290.9z"/>
		<path class="st209" d="M453,292.6v-1.7h5.1v25H453v-3.1c-2.4,2.5-5.2,3.8-8.5,3.8c-3.8,0-7.1-1.3-9.8-4c-2.7-2.7-4-6-4-9.8
			s1.3-7.1,4-9.8c2.7-2.7,6-4,9.8-4C447.7,288.9,450.5,290.1,453,292.6z M453,304.5v-3.7c-0.3-1.6-1.1-3-2.3-4.3
			c-1.7-1.7-3.7-2.5-6.1-2.5c-2.4,0-4.4,0.8-6.1,2.5s-2.5,3.7-2.5,6.1c0,2.4,0.8,4.4,2.5,6.1s3.7,2.5,6.1,2.5c2.4,0,4.4-0.8,6.1-2.5
			C451.9,307.5,452.7,306.1,453,304.5z M445.8,281.7h6.1l-6.6,6.8h-4.8L445.8,281.7z"/>
		<path class="st209" d="M470.4,310.5c0.6,0.6,1.3,0.9,2.1,0.9c0.8,0,1.5-0.3,2.1-0.9s0.9-1.3,0.9-2.2c0-0.8-0.3-1.5-0.9-2.1
			c-0.4-0.4-1.3-1-2.6-1.9c-1.8-1-3.1-1.9-3.9-2.6c-1.3-1.3-2-2.9-2-4.8c0-1.9,0.7-3.5,2-4.8s2.9-2,4.8-2c1.9,0,3.4,0.6,4.7,1.9
			c0.9,0.9,1.5,1.9,1.7,3l-4.9,1.4c-0.1-0.4-0.2-0.7-0.3-0.8c-0.3-0.3-0.7-0.4-1.2-0.4s-0.9,0.2-1.3,0.5c-0.3,0.3-0.5,0.8-0.5,1.3
			c0,0.5,0.2,0.9,0.5,1.2c0.3,0.3,1,0.8,2.1,1.5c2,1.1,3.5,2.1,4.4,3c1.6,1.6,2.4,3.5,2.4,5.7c0,2.2-0.8,4.1-2.3,5.7
			c-1.6,1.6-3.5,2.4-5.7,2.4c-2.2,0-4.1-0.8-5.7-2.4c-1.1-1.1-1.8-2.4-2.1-4.1l5-1.1C469.9,309.7,470.1,310.2,470.4,310.5z"/>
		<path class="st209" d="M509,294.2c1.9-2.5,4.2-3.9,6.9-4v5.2c-1.8,0.1-3.3,0.7-4.4,1.8c-1.6,1.6-2.5,3.5-2.6,5.8v12.9h-5v-25h5
			V294.2z"/>
		<path class="st209" d="M528.5,310.2c0.8,0.7,2.4,1.1,4.6,1.1c2.4,0,4.4-0.8,6.1-2.5c0.2-0.2,0.6-0.7,1.3-1.5l5,1.8
			c-1.2,1.7-2.1,2.8-2.7,3.4c-2.7,2.7-6,4.1-9.8,4.1c-3.8,0-7.1-1.4-9.8-4.1c-2.7-2.7-4.1-6-4.1-9.8s1.4-7.1,4.1-9.8
			c2.7-2.7,6-4.1,9.8-4.1c3.3,0,6.1,1,8.6,3c0.4,0.3,0.8,0.7,1.2,1.1c0.2,0.2,0.6,0.7,1.4,1.5l-2.5,2.6L528.5,310.2z M536.9,294.7
			c-0.6-0.4-1.8-0.7-3.8-0.7c-2.4,0-4.4,0.8-6.1,2.5c-1.7,1.7-2.5,3.7-2.5,6.1c0,2,0.2,3.2,0.7,3.8L536.9,294.7z"/>
		<path class="st209" d="M571.2,307.3l5,1.8c-1.2,1.7-2.1,2.8-2.7,3.4c-2.7,2.7-6,4.1-9.8,4.1c-3.8,0-7.1-1.4-9.8-4.1
			c-2.7-2.7-4.1-6-4.1-9.8s1.4-7.1,4.1-9.8c2.7-2.7,6-4.1,9.8-4.1c3.8,0,7.1,1.4,9.8,4.1c0.6,0.6,1.4,1.7,2.7,3.3l-5,1.8
			c-0.6-0.8-1.1-1.3-1.3-1.5c-1.7-1.7-3.7-2.5-6.1-2.5c-2.4,0-4.4,0.8-6.1,2.5c-1.7,1.7-2.5,3.7-2.5,6.1c0,2.4,0.8,4.4,2.5,6.1
			c1.7,1.7,3.7,2.5,6.1,2.5c2.4,0,4.4-0.8,6.1-2.5C570.1,308.6,570.5,308.1,571.2,307.3z"/>
		<path class="st209" d="M585.1,290.9v-9.4h5v9.4h4.5v5h-4.5v20h-5v-20h-4.5v-5H585.1z"/>
		<path class="st209" d="M612.8,288.8c3.8,0,7.1,1.4,9.8,4.1c2.7,2.7,4,6,4,9.8s-1.3,7.1-4,9.8c-2.7,2.7-6,4.1-9.8,4.1
			c-3.8,0-7.1-1.4-9.8-4.1c-2.7-2.7-4.1-6-4.1-9.8s1.4-7.1,4.1-9.8C605.7,290.2,609,288.8,612.8,288.8z M606.7,296.5
			c-1.7,1.7-2.5,3.7-2.5,6.1c0,2.4,0.8,4.4,2.5,6.1c1.7,1.7,3.7,2.5,6.1,2.5c2.4,0,4.4-0.8,6.1-2.5c1.7-1.7,2.5-3.7,2.5-6.1
			c0-2.4-0.8-4.4-2.5-6.1s-3.7-2.6-6.1-2.6C610.4,294,608.4,294.8,606.7,296.5z"/>
		<path class="st209" d="M654.7,312.7v11.5h-5v-33.4h5v2.3c2.4-2.9,5.3-4.3,8.5-4.3c3.8,0,7.1,1.3,9.8,4c2.7,2.7,4,6,4,9.8
			s-1.3,7.1-4,9.8c-2.7,2.7-6,4.1-9.8,4.1C659.9,316.5,657.1,315.3,654.7,312.7z M654.7,300.7v3.9c0.3,1.5,1.1,2.9,2.4,4.2
			c1.7,1.7,3.7,2.5,6.1,2.5s4.4-0.8,6.1-2.5c1.7-1.7,2.5-3.7,2.5-6.1c0-2.4-0.8-4.4-2.5-6.1c-1.7-1.7-3.7-2.6-6.1-2.6
			s-4.4,0.9-6.1,2.6C655.8,297.8,655,299.2,654.7,300.7z"/>
		<path class="st209" d="M704.7,292.6v-1.7h5.1v25h-5.1v-3.1c-2.4,2.5-5.2,3.8-8.5,3.8c-3.8,0-7.1-1.3-9.8-4c-2.7-2.7-4-6-4-9.8
			s1.3-7.1,4-9.8c2.7-2.7,6-4,9.8-4C699.5,288.9,702.3,290.1,704.7,292.6z M704.7,304.5v-3.7c-0.3-1.6-1.1-3-2.3-4.3
			c-1.7-1.7-3.7-2.5-6.1-2.5c-2.4,0-4.4,0.8-6.1,2.5s-2.5,3.7-2.5,6.1c0,2.4,0.8,4.4,2.5,6.1s3.7,2.5,6.1,2.5c2.4,0,4.4-0.8,6.1-2.5
			C703.6,307.5,704.4,306.1,704.7,304.5z"/>
		<path class="st209" d="M722.1,294.2c1.9-2.5,4.2-3.9,6.9-4v5.2c-1.8,0.1-3.3,0.7-4.4,1.8c-1.6,1.6-2.5,3.5-2.6,5.8v12.9h-5v-25h5
			V294.2z"/>
		<path class="st209" d="M755.6,292.6v-1.7h5.1v25h-5.1v-3.1c-2.4,2.5-5.2,3.8-8.5,3.8c-3.8,0-7.1-1.3-9.8-4c-2.7-2.7-4-6-4-9.8
			s1.3-7.1,4-9.8c2.7-2.7,6-4,9.8-4C750.3,288.9,753.2,290.1,755.6,292.6z M755.6,304.5v-3.7c-0.3-1.6-1.1-3-2.3-4.3
			c-1.7-1.7-3.7-2.5-6.1-2.5c-2.4,0-4.4,0.8-6.1,2.5s-2.5,3.7-2.5,6.1c0,2.4,0.8,4.4,2.5,6.1s3.7,2.5,6.1,2.5c2.4,0,4.4-0.8,6.1-2.5
			C754.5,307.5,755.3,306.1,755.6,304.5z"/>
		<path class="st209" d="M804.9,307.3l5,1.8c-1.2,1.7-2.1,2.8-2.7,3.4c-2.7,2.7-6,4.1-9.8,4.1c-3.8,0-7.1-1.4-9.8-4.1
			c-2.7-2.7-4.1-6-4.1-9.8s1.4-7.1,4.1-9.8c2.7-2.7,6-4.1,9.8-4.1c3.8,0,7.1,1.4,9.8,4.1c0.6,0.6,1.4,1.7,2.7,3.3l-5,1.8
			c-0.6-0.8-1.1-1.3-1.3-1.5c-1.7-1.7-3.7-2.5-6.1-2.5c-2.4,0-4.4,0.8-6.1,2.5c-1.7,1.7-2.5,3.7-2.5,6.1c0,2.4,0.8,4.4,2.5,6.1
			c1.7,1.7,3.7,2.5,6.1,2.5c2.4,0,4.4-0.8,6.1-2.5C803.9,308.6,804.3,308.1,804.9,307.3z"/>
		<path class="st209" d="M828.2,288.8c3.8,0,7.1,1.4,9.8,4.1c2.7,2.7,4,6,4,9.8s-1.3,7.1-4,9.8c-2.7,2.7-6,4.1-9.8,4.1
			c-3.8,0-7.1-1.4-9.8-4.1c-2.7-2.7-4.1-6-4.1-9.8s1.4-7.1,4.1-9.8C821.1,290.2,824.4,288.8,828.2,288.8z M822,296.5
			c-1.7,1.7-2.5,3.7-2.5,6.1c0,2.4,0.8,4.4,2.5,6.1c1.7,1.7,3.7,2.5,6.1,2.5c2.4,0,4.4-0.8,6.1-2.5c1.7-1.7,2.5-3.7,2.5-6.1
			c0-2.4-0.8-4.4-2.5-6.1s-3.7-2.6-6.1-2.6C825.8,294,823.7,294.8,822,296.5z"/>
		<path class="st209" d="M852.9,297.6v18.3h-5.1v-25h5.1v2.9c1.1-2.8,3.2-4.3,6.3-4.3c2.7,0,4.9,1,6.4,2.9c1.6,1.9,2.4,4.3,2.5,7.2
			v16.3h-5v-16.1c0-1.4-0.5-2.7-1.6-3.7s-2.3-1.5-3.8-1.5c-1.4,0-2.7,0.5-3.7,1.5C853.4,296.7,853.1,297.2,852.9,297.6z"/>
		<path class="st209" d="M880.5,310.5c0.6,0.6,1.3,0.9,2.1,0.9c0.8,0,1.5-0.3,2.1-0.9s0.9-1.3,0.9-2.2c0-0.8-0.3-1.5-0.9-2.1
			c-0.4-0.4-1.3-1-2.6-1.9c-1.8-1-3.1-1.9-3.9-2.6c-1.3-1.3-2-2.9-2-4.8c0-1.9,0.7-3.5,2-4.8s2.9-2,4.8-2c1.9,0,3.4,0.6,4.7,1.9
			c0.9,0.9,1.5,1.9,1.7,3l-4.9,1.4c-0.1-0.4-0.2-0.7-0.3-0.8c-0.3-0.3-0.7-0.4-1.2-0.4s-0.9,0.2-1.3,0.5c-0.3,0.3-0.5,0.8-0.5,1.3
			c0,0.5,0.2,0.9,0.5,1.2c0.3,0.3,1,0.8,2.1,1.5c2,1.1,3.5,2.1,4.4,3c1.6,1.6,2.4,3.5,2.4,5.7c0,2.2-0.8,4.1-2.3,5.7
			c-1.6,1.6-3.5,2.4-5.7,2.4c-2.2,0-4.1-0.8-5.7-2.4c-1.1-1.1-1.8-2.4-2.1-4.1l5-1.1C880,309.7,880.2,310.2,880.5,310.5z"/>
		<path class="st209" d="M904.7,310.2c0.8,0.7,2.4,1.1,4.6,1.1c2.4,0,4.4-0.8,6.1-2.5c0.2-0.2,0.6-0.7,1.3-1.5l5,1.8
			c-1.2,1.7-2.1,2.8-2.7,3.4c-2.7,2.7-6,4.1-9.8,4.1c-3.8,0-7.1-1.4-9.8-4.1c-2.7-2.7-4.1-6-4.1-9.8s1.4-7.1,4.1-9.8
			c2.7-2.7,6-4.1,9.8-4.1c3.3,0,6.1,1,8.6,3c0.4,0.3,0.8,0.7,1.2,1.1c0.2,0.2,0.6,0.7,1.4,1.5l-2.5,2.6L904.7,310.2z M913.1,294.7
			c-0.6-0.4-1.8-0.7-3.8-0.7c-2.4,0-4.4,0.8-6.1,2.5c-1.7,1.7-2.5,3.7-2.5,6.1c0,2,0.2,3.2,0.7,3.8L913.1,294.7z"/>
		<path class="st209" d="M949.3,292.6v-1.7h5.1v18.6c0,4.9-1.3,8.6-4,11.2c-2.7,2.4-6,3.6-9.8,3.6c-3.8,0-7.1-1.2-9.8-3.6
			c-0.6-0.5-1.4-1.7-2.6-3.4l5-1.8c0.6,0.8,1.1,1.3,1.3,1.5c1.7,1.7,3.7,2.5,6.1,2.5c4,0,6.8-2.6,8.3-7.9c-1.6,3-4.3,4.6-8.1,4.6
			s-7.1-1.3-9.8-3.9c-2.7-2.6-4-5.8-4-9.7s1.3-7.1,4-9.8c2.7-2.7,6-4,9.8-4C944,288.8,946.8,290.1,949.3,292.6z M949.2,300.7
			c-0.3-1.5-1.1-2.9-2.3-4.2c-1.7-1.7-3.7-2.6-6.1-2.6s-4.4,0.9-6.1,2.6s-2.5,3.7-2.5,6.1c0,2.4,0.8,4.4,2.5,6.1s3.7,2.5,6.1,2.5
			s4.4-0.8,6.1-2.5c1.2-1.2,2-2.6,2.3-4.1V300.7z"/>
		<path class="st209" d="M972.3,316.2c-3.2,0-5.7-1-7.6-2.9c-1.9-1.9-2.9-4.3-3-7.2v-15.2h5.1v15c0,1.4,0.5,2.7,1.6,3.7
			c1.1,1,2.4,1.6,3.9,1.6c1.4,0,2.7-0.5,3.8-1.5c1.1-1,1.6-2.3,1.6-3.7v-15h5v15.2c0,2.9-1,5.3-2.9,7.2
			C977.8,315.2,975.3,316.2,972.3,316.2z"/>
		<path class="st209" d="M995.4,281.6c0.7,0.7,1,1.5,1,2.5s-0.3,1.8-1,2.5s-1.5,1-2.5,1c-1,0-1.8-0.3-2.5-1s-1-1.5-1-2.5
			s0.3-1.8,1-2.5c0.7-0.7,1.5-1,2.5-1C993.8,280.6,994.7,280.9,995.4,281.6z M995.4,290.9v25h-5v-25H995.4z"/>
		<path class="st209" d="M1008.1,294.2c1.9-2.5,4.2-3.9,6.9-4v5.2c-1.8,0.1-3.3,0.7-4.4,1.8c-1.6,1.6-2.5,3.5-2.6,5.8v12.9h-5v-25h5
			V294.2z"/>
		<path class="st209" d="M1025.5,277v38.9h-5.1V277H1025.5z"/>
		<path class="st209" d="M1045.1,288.8c3.8,0,7.1,1.4,9.8,4.1c2.7,2.7,4,6,4,9.8s-1.3,7.1-4,9.8c-2.7,2.7-6,4.1-9.8,4.1
			c-3.8,0-7.1-1.4-9.8-4.1c-2.7-2.7-4.1-6-4.1-9.8s1.4-7.1,4.1-9.8C1038,290.2,1041.3,288.8,1045.1,288.8z M1039,296.5
			c-1.7,1.7-2.5,3.7-2.5,6.1c0,2.4,0.8,4.4,2.5,6.1c1.7,1.7,3.7,2.5,6.1,2.5c2.4,0,4.4-0.8,6.1-2.5c1.7-1.7,2.5-3.7,2.5-6.1
			c0-2.4-0.8-4.4-2.5-6.1s-3.7-2.6-6.1-2.6C1042.7,294,1040.7,294.8,1039,296.5z"/>
		<path class="st209" d="M110.4,369.9c0.8,0.7,2.4,1.1,4.6,1.1c2.4,0,4.4-0.8,6.1-2.5c0.2-0.2,0.6-0.7,1.3-1.5l5,1.8
			c-1.2,1.7-2.1,2.8-2.7,3.4c-2.7,2.7-6,4.1-9.8,4.1c-3.8,0-7.1-1.4-9.8-4.1c-2.7-2.7-4.1-6-4.1-9.8s1.4-7.1,4.1-9.8
			c2.7-2.7,6-4.1,9.8-4.1c3.3,0,6.1,1,8.6,3c0.4,0.3,0.8,0.7,1.2,1.1c0.2,0.2,0.6,0.7,1.4,1.5l-2.5,2.6L110.4,369.9z M118.8,354.4
			c-0.6-0.4-1.8-0.7-3.8-0.7c-2.4,0-4.4,0.8-6.1,2.5c-1.7,1.7-2.5,3.7-2.5,6.1c0,2,0.2,3.2,0.7,3.8L118.8,354.4z"/>
		<path class="st209" d="M138.3,370.2c0.6,0.6,1.3,0.9,2.1,0.9c0.8,0,1.5-0.3,2.1-0.9s0.9-1.3,0.9-2.2c0-0.8-0.3-1.5-0.9-2.1
			c-0.4-0.4-1.3-1-2.6-1.9c-1.8-1-3.1-1.9-3.9-2.6c-1.3-1.3-2-2.9-2-4.8c0-1.9,0.7-3.5,2-4.8s2.9-2,4.8-2c1.9,0,3.4,0.6,4.7,1.9
			c0.9,0.9,1.5,1.9,1.7,3l-4.9,1.4c-0.1-0.4-0.2-0.7-0.3-0.8c-0.3-0.3-0.7-0.4-1.2-0.4s-0.9,0.2-1.3,0.5c-0.3,0.3-0.5,0.8-0.5,1.3
			c0,0.5,0.2,0.9,0.5,1.2c0.3,0.3,1,0.8,2.1,1.5c2,1.1,3.5,2.1,4.4,3c1.6,1.6,2.4,3.5,2.4,5.7c0,2.2-0.8,4.1-2.3,5.7
			c-1.6,1.6-3.5,2.4-5.7,2.4c-2.2,0-4.1-0.8-5.7-2.4c-1.1-1.1-1.8-2.4-2.1-4.1l5-1.1C137.8,369.4,138,369.9,138.3,370.2z"/>
		<path class="st209" d="M179.7,369.9c0.8,0.7,2.4,1.1,4.6,1.1c2.4,0,4.4-0.8,6.1-2.5c0.2-0.2,0.6-0.7,1.3-1.5l5,1.8
			c-1.2,1.7-2.1,2.8-2.7,3.4c-2.7,2.7-6,4.1-9.8,4.1c-3.8,0-7.1-1.4-9.8-4.1c-2.7-2.7-4.1-6-4.1-9.8s1.4-7.1,4.1-9.8
			c2.7-2.7,6-4.1,9.8-4.1c3.3,0,6.1,1,8.6,3c0.4,0.3,0.8,0.7,1.2,1.1c0.2,0.2,0.6,0.7,1.4,1.5l-2.5,2.6L179.7,369.9z M188.1,354.4
			c-0.6-0.4-1.8-0.7-3.8-0.7c-2.4,0-4.4,0.8-6.1,2.5c-1.7,1.7-2.5,3.7-2.5,6.1c0,2,0.2,3.2,0.7,3.8L188.1,354.4z"/>
		<path class="st209" d="M207.6,336.7v38.9h-5.1v-38.9H207.6z"/>
		<path class="st209" d="M253.8,352.3v-1.7h5.1v25h-5.1v-3.1c-2.4,2.5-5.2,3.8-8.5,3.8c-3.8,0-7.1-1.3-9.8-4c-2.7-2.7-4-6-4-9.8
			s1.3-7.1,4-9.8c2.7-2.7,6-4,9.8-4C248.5,348.6,251.3,349.8,253.8,352.3z M253.8,364.2v-3.7c-0.3-1.6-1.1-3-2.3-4.3
			c-1.7-1.7-3.7-2.5-6.1-2.5c-2.4,0-4.4,0.8-6.1,2.5s-2.5,3.7-2.5,6.1c0,2.4,0.8,4.4,2.5,6.1s3.7,2.5,6.1,2.5c2.4,0,4.4-0.8,6.1-2.5
			C252.7,367.2,253.5,365.8,253.8,364.2z"/>
		<path class="st209" d="M276.7,375.9c-3.2,0-5.7-1-7.6-2.9c-1.9-1.9-2.9-4.3-3-7.2v-15.2h5.1v15c0,1.4,0.5,2.7,1.6,3.7
			c1.1,1,2.4,1.6,3.9,1.6c1.4,0,2.7-0.5,3.8-1.5c1.1-1,1.6-2.3,1.6-3.7v-15h5v15.2c0,2.9-1,5.3-2.9,7.2
			C282.2,374.9,279.7,375.9,276.7,375.9z"/>
		<path class="st209" d="M297.4,350.6v-9.4h5v9.4h4.5v5h-4.5v20h-5v-20h-4.5v-5H297.4z"/>
		<path class="st209" d="M325.1,348.5c3.8,0,7.1,1.4,9.8,4.1c2.7,2.7,4,6,4,9.8s-1.3,7.1-4,9.8c-2.7,2.7-6,4.1-9.8,4.1
			c-3.8,0-7.1-1.4-9.8-4.1c-2.7-2.7-4.1-6-4.1-9.8s1.4-7.1,4.1-9.8C318.1,349.9,321.3,348.5,325.1,348.5z M319,356.2
			c-1.7,1.7-2.5,3.7-2.5,6.1c0,2.4,0.8,4.4,2.5,6.1c1.7,1.7,3.7,2.5,6.1,2.5c2.4,0,4.4-0.8,6.1-2.5c1.7-1.7,2.5-3.7,2.5-6.1
			c0-2.4-0.8-4.4-2.5-6.1s-3.7-2.6-6.1-2.6C322.7,353.7,320.7,354.5,319,356.2z"/>
		<path class="st209" d="M364.6,367l5,1.8c-1.2,1.7-2.1,2.8-2.7,3.4c-2.7,2.7-6,4.1-9.8,4.1c-3.8,0-7.1-1.4-9.8-4.1
			c-2.7-2.7-4.1-6-4.1-9.8s1.4-7.1,4.1-9.8c2.7-2.7,6-4.1,9.8-4.1c3.8,0,7.1,1.4,9.8,4.1c0.6,0.6,1.4,1.7,2.7,3.3l-5,1.8
			c-0.6-0.8-1.1-1.3-1.3-1.5c-1.7-1.7-3.7-2.5-6.1-2.5c-2.4,0-4.4,0.8-6.1,2.5c-1.7,1.7-2.5,3.7-2.5,6.1c0,2.4,0.8,4.4,2.5,6.1
			c1.7,1.7,3.7,2.5,6.1,2.5c2.4,0,4.4-0.8,6.1-2.5C363.5,368.3,363.9,367.8,364.6,367z"/>
		<path class="st209" d="M387.8,348.5c3.8,0,7.1,1.4,9.8,4.1c2.7,2.7,4,6,4,9.8s-1.3,7.1-4,9.8c-2.7,2.7-6,4.1-9.8,4.1
			c-3.8,0-7.1-1.4-9.8-4.1c-2.7-2.7-4.1-6-4.1-9.8s1.4-7.1,4.1-9.8C380.8,349.9,384,348.5,387.8,348.5z M381.7,356.2
			c-1.7,1.7-2.5,3.7-2.5,6.1c0,2.4,0.8,4.4,2.5,6.1c1.7,1.7,3.7,2.5,6.1,2.5c2.4,0,4.4-0.8,6.1-2.5c1.7-1.7,2.5-3.7,2.5-6.1
			c0-2.4-0.8-4.4-2.5-6.1s-3.7-2.6-6.1-2.6C385.4,353.7,383.4,354.5,381.7,356.2z"/>
		<path class="st209" d="M412.5,357.3v18.3h-5.1v-25h5.1v2.9c1.1-2.8,3.2-4.3,6.3-4.3c2.7,0,4.9,1,6.4,2.9c1.6,1.9,2.4,4.3,2.5,7.2
			v16.3h-5v-16.1c0-1.4-0.5-2.7-1.6-3.7s-2.3-1.5-3.8-1.5c-1.4,0-2.7,0.5-3.7,1.5C413.1,356.4,412.7,356.9,412.5,357.3z"/>
		<path class="st209" d="M447.5,348.5c3.8,0,7.1,1.4,9.8,4.1c2.7,2.7,4,6,4,9.8s-1.3,7.1-4,9.8c-2.7,2.7-6,4.1-9.8,4.1
			c-3.8,0-7.1-1.4-9.8-4.1c-2.7-2.7-4.1-6-4.1-9.8s1.4-7.1,4.1-9.8C440.4,349.9,443.7,348.5,447.5,348.5z M441.4,356.2
			c-1.7,1.7-2.5,3.7-2.5,6.1c0,2.4,0.8,4.4,2.5,6.1c1.7,1.7,3.7,2.5,6.1,2.5c2.4,0,4.4-0.8,6.1-2.5c1.7-1.7,2.5-3.7,2.5-6.1
			c0-2.4-0.8-4.4-2.5-6.1s-3.7-2.6-6.1-2.6C445.1,353.7,443.1,354.5,441.4,356.2z"/>
		<path class="st209" d="M487,367l5,1.8c-1.2,1.7-2.1,2.8-2.7,3.4c-2.7,2.7-6,4.1-9.8,4.1c-3.8,0-7.1-1.4-9.8-4.1
			c-2.7-2.7-4.1-6-4.1-9.8s1.4-7.1,4.1-9.8c2.7-2.7,6-4.1,9.8-4.1c3.8,0,7.1,1.4,9.8,4.1c0.6,0.6,1.4,1.7,2.7,3.3l-5,1.8
			c-0.6-0.8-1.1-1.3-1.3-1.5c-1.7-1.7-3.7-2.5-6.1-2.5c-2.4,0-4.4,0.8-6.1,2.5c-1.7,1.7-2.5,3.7-2.5,6.1c0,2.4,0.8,4.4,2.5,6.1
			c1.7,1.7,3.7,2.5,6.1,2.5c2.4,0,4.4-0.8,6.1-2.5C485.9,368.3,486.3,367.8,487,367z"/>
		<path class="st209" d="M503.2,341.3c0.7,0.7,1,1.5,1,2.5s-0.3,1.8-1,2.5s-1.5,1-2.5,1c-1,0-1.8-0.3-2.5-1s-1-1.5-1-2.5
			s0.3-1.8,1-2.5c0.7-0.7,1.5-1,2.5-1C501.7,340.3,502.5,340.6,503.2,341.3z M503.3,350.6v25h-5v-25H503.3z"/>
		<path class="st209" d="M511,350.6h5v2.3c1-2.4,2.8-3.7,5.6-3.7c2.8,0,4.3,1.4,4.6,4.2c0.8-2.8,3-4.2,6.6-4.2
			c3.5,0,5.3,2.1,5.3,6.4v19.9H533V358c0-2.5-1-3.7-3-3.7c-0.8,0-1.5,0.3-2.1,0.9s-0.9,2.5-0.9,5.9v14.5h-5l0-17.6
			c0-2.5-1-3.7-3-3.7c-0.8,0-1.5,0.3-2.1,0.9c-0.5,0.5-0.8,1.8-0.9,4v16.4h-5V350.6z"/>
		<path class="st209" d="M550.8,341.3c0.7,0.7,1,1.5,1,2.5s-0.3,1.8-1,2.5s-1.5,1-2.5,1c-1,0-1.8-0.3-2.5-1s-1-1.5-1-2.5
			s0.3-1.8,1-2.5c0.7-0.7,1.5-1,2.5-1C549.3,340.3,550.1,340.6,550.8,341.3z M550.8,350.6v25h-5v-25H550.8z"/>
		<path class="st209" d="M566.3,369.9c0.8,0.7,2.4,1.1,4.6,1.1c2.4,0,4.4-0.8,6.1-2.5c0.2-0.2,0.6-0.7,1.3-1.5l5,1.8
			c-1.2,1.7-2.1,2.8-2.7,3.4c-2.7,2.7-6,4.1-9.8,4.1c-3.8,0-7.1-1.4-9.8-4.1c-2.7-2.7-4.1-6-4.1-9.8s1.4-7.1,4.1-9.8
			c2.7-2.7,6-4.1,9.8-4.1c3.3,0,6.1,1,8.6,3c0.4,0.3,0.8,0.7,1.2,1.1c0.2,0.2,0.6,0.7,1.4,1.5l-2.5,2.6L566.3,369.9z M574.7,354.4
			c-0.6-0.4-1.8-0.7-3.8-0.7c-2.4,0-4.4,0.8-6.1,2.5c-1.7,1.7-2.5,3.7-2.5,6.1c0,2,0.2,3.2,0.7,3.8L574.7,354.4z"/>
		<path class="st209" d="M594.3,357.3v18.3h-5.1v-25h5.1v2.9c1.1-2.8,3.2-4.3,6.3-4.3c2.7,0,4.9,1,6.4,2.9c1.6,1.9,2.4,4.3,2.5,7.2
			v16.3h-5v-16.1c0-1.4-0.5-2.7-1.6-3.7s-2.3-1.5-3.8-1.5c-1.4,0-2.7,0.5-3.7,1.5C594.8,356.4,594.4,356.9,594.3,357.3z"/>
		<path class="st209" d="M619.9,350.6v-9.4h5v9.4h4.5v5h-4.5v20h-5v-20h-4.5v-5H619.9z"/>
		<path class="st209" d="M647.7,348.5c3.8,0,7.1,1.4,9.8,4.1c2.7,2.7,4,6,4,9.8s-1.3,7.1-4,9.8c-2.7,2.7-6,4.1-9.8,4.1
			c-3.8,0-7.1-1.4-9.8-4.1c-2.7-2.7-4.1-6-4.1-9.8s1.4-7.1,4.1-9.8C640.6,349.9,643.8,348.5,647.7,348.5z M641.5,356.2
			c-1.7,1.7-2.5,3.7-2.5,6.1c0,2.4,0.8,4.4,2.5,6.1c1.7,1.7,3.7,2.5,6.1,2.5c2.4,0,4.4-0.8,6.1-2.5c1.7-1.7,2.5-3.7,2.5-6.1
			c0-2.4-0.8-4.4-2.5-6.1s-3.7-2.6-6.1-2.6C645.3,353.7,643.2,354.5,641.5,356.2z"/>
	</g>
	<g>
		<path class="st2" d="M31.2,42.7c13.6,3,20.9,14.2,20.9,25.1c0,14.2-11.2,26-25.4,26C12.1,93.9,0,83.9,0,66
			C0,38.5,15.1,13.6,33.6,0L50,18.2C43.6,22.4,32.7,33,31.2,42.7z M91.8,42.7c13.6,3,20.9,14.2,20.9,25.1c0,14.2-11.2,26-25.4,26
			c-14.5,0-26.7-10-26.7-27.9c0-27.6,15.1-52.4,33.6-66l16.4,18.2C104.2,22.4,93.3,33,91.8,42.7z"/>
	</g>
	<g>
		<path class="st2" d="M1138.4,362.5l16.4-18.2c18.5,13.6,33.6,38.5,33.6,66c0,17.9-12.1,27.9-26.7,27.9c-14.2,0-25.4-11.8-25.4-26
			c0-10.9,7.3-22.1,20.9-25.1C1155.7,377.3,1144.8,366.7,1138.4,362.5z M1199,362.5l16.4-18.2c18.5,13.6,33.6,38.5,33.6,66
			c0,17.9-12.1,27.9-26.6,27.9c-14.2,0-25.4-11.8-25.4-26c0-10.9,7.3-22.1,20.9-25.1C1216.2,377.3,1205.3,366.7,1199,362.5z"/>
	</g>
	<g>
		<g>
			<path class="st3" d="M134.9,445.6c-0.2-4.7-0.5-10.3-0.5-14.5h-0.1c-1.1,3.9-2.5,8.1-4.2,12.7l-5.9,16.3h-3.3l-5.4-16
				c-1.6-4.7-2.9-9.1-3.9-13h-0.1c-0.1,4.2-0.3,9.8-0.6,14.8l-0.9,14.4h-4.1l2.3-33.5h5.5l5.7,16.2c1.4,4.1,2.5,7.8,3.4,11.3h0.1
				c0.8-3.4,2-7.1,3.5-11.3l6-16.2h5.5l2.1,33.5h-4.2L134.9,445.6z"/>
			<path class="st3" d="M152,429.5c0,1.5-1,2.7-2.8,2.7c-1.5,0-2.6-1.2-2.6-2.7c0-1.5,1.1-2.7,2.7-2.7C151,426.8,152,428,152,429.5z
				 M147.1,460.4v-24.1h4.4v24.1H147.1z"/>
			<path class="st3" d="M175.9,459.5c-1.1,0.6-3.7,1.4-6.9,1.4c-7.3,0-12-4.9-12-12.3c0-7.4,5.1-12.8,12.9-12.8
				c2.6,0,4.9,0.6,6.1,1.2l-1,3.4c-1-0.6-2.7-1.1-5.1-1.1c-5.5,0-8.5,4.1-8.5,9.1c0,5.6,3.6,9,8.4,9c2.5,0,4.1-0.6,5.4-1.2
				L175.9,459.5z"/>
			<path class="st3" d="M181.1,425.1h4.4v15h0.1c0.7-1.2,1.8-2.3,3.1-3.1c1.3-0.7,2.8-1.2,4.5-1.2c3.2,0,8.4,2,8.4,10.3v14.3h-4.4
				v-13.8c0-3.9-1.4-7.2-5.6-7.2c-2.8,0-5.1,2-5.9,4.4c-0.2,0.6-0.3,1.2-0.3,2.1v14.5h-4.4V425.1z"/>
			<path class="st3" d="M211.1,449.1c0.1,5.9,3.9,8.4,8.3,8.4c3.1,0,5-0.5,6.7-1.2l0.7,3.1c-1.5,0.7-4.2,1.5-8,1.5
				c-7.4,0-11.8-4.9-11.8-12.1c0-7.3,4.3-13,11.3-13c7.9,0,9.9,6.9,9.9,11.3c0,0.9-0.1,1.6-0.1,2H211.1z M223.9,446
				c0-2.8-1.1-7.1-6.1-7.1c-4.4,0-6.4,4.1-6.7,7.1H223.9z"/>
			<path class="st3" d="M233.6,425.1h4.4v35.3h-4.4V425.1z"/>
			<path class="st3" d="M245.3,425.1h4.4v35.3h-4.4V425.1z"/>
			<path class="st3" d="M259.5,449.1c0.1,5.9,3.9,8.4,8.3,8.4c3.1,0,5-0.5,6.7-1.2l0.7,3.1c-1.5,0.7-4.2,1.5-8,1.5
				c-7.4,0-11.8-4.9-11.8-12.1c0-7.3,4.3-13,11.3-13c7.9,0,9.9,6.9,9.9,11.3c0,0.9-0.1,1.6-0.1,2H259.5z M272.4,446
				c0-2.8-1.1-7.1-6.1-7.1c-4.4,0-6.4,4.1-6.7,7.1H272.4z"/>
			<path class="st3" d="M316.1,459.3c-1.6,0.8-4.8,1.6-8.9,1.6c-9.5,0-16.6-6-16.6-17c0-10.5,7.1-17.6,17.5-17.6
				c4.2,0,6.8,0.9,8,1.5l-1,3.5c-1.6-0.8-4-1.4-6.8-1.4c-7.9,0-13.1,5-13.1,13.8c0,8.2,4.7,13.5,12.9,13.5c2.6,0,5.3-0.5,7.1-1.4
				L316.1,459.3z"/>
			<path class="st3" d="M320.4,457.8c0-1.8,1.2-3.1,3-3.1s2.9,1.3,2.9,3.1c0,1.8-1.1,3.1-3,3.1C321.6,460.9,320.4,459.6,320.4,457.8
				z"/>
		</g>
	</g>
</g>
</svg>
