<?xml version="1.0" encoding="utf-8"?>
<!-- Generator: Adobe Illustrator 21.0.0, SVG Export Plug-In . SVG Version: 6.00 Build 0)  -->
<svg version="1.1" id="Layer_1" xmlns="http://www.w3.org/2000/svg" xmlns:xlink="http://www.w3.org/1999/xlink" x="0px" y="0px"
	 viewBox="0 0 1019 444.7" style="enable-background:new 0 0 1019 444.7;" xml:space="preserve">
<style type="text/css">
	.st0{fill:#FFFFFF;}
	.st1{fill-rule:evenodd;clip-rule:evenodd;fill:#685989;}
	.st2{fill:#F87481;}
	.st3{fill:#864D7D;}
	.st4{fill:#685989;}
	.st5{fill:#7087AF;}
	.st6{fill:#9CC1C8;}
	.st7{fill:#BEDBC3;}
	.st8{fill:none;stroke:#685989;stroke-width:3;stroke-miterlimit:10;}
	.st9{fill:none;stroke:#9CC1C8;stroke-width:3;stroke-miterlimit:10;}
	.st10{fill:none;stroke:#864D7D;stroke-width:3;stroke-miterlimit:10;}
	.st11{fill-rule:evenodd;clip-rule:evenodd;fill:#F87481;}
	.st12{opacity:0.3;clip-path:url(#SVGID_2_);}
	.st13{opacity:0.3;clip-path:url(#SVGID_4_);}
	.st14{opacity:0.3;clip-path:url(#SVGID_6_);}
	.st15{opacity:0.3;clip-path:url(#SVGID_8_);}
	.st16{opacity:0.3;clip-path:url(#SVGID_10_);}
	.st17{fill:#F6F6F6;}
	.st18{clip-path:url(#SVGID_12_);}
	.st19{clip-path:url(#SVGID_16_);}
	.st20{fill:#EDEDED;}
	.st21{opacity:0.5;fill:#9CC1C8;}
	.st22{fill:#D3DEE4;}
	.st23{fill:#007271;}
	.st24{fill:#369999;}
	.st25{fill:#4D2B2B;}
	.st26{fill:#3A1F1E;}
	.st27{fill:#E95B4E;}
	.st28{fill:#EE8268;}
	.st29{fill:#C83D36;}
	.st30{fill:#F6B99F;}
	.st31{fill:#EEE9DC;}
	.st32{fill:#EDC9C7;stroke:#221F20;stroke-linecap:round;stroke-linejoin:round;stroke-miterlimit:10;}
	.st33{fill:#F19775;}
	.st34{fill:#6B3E3F;}
	.st35{fill:#C7BDB7;}
	.st36{fill:#D1D5CA;}
	.st37{fill:#2B3668;}
	.st38{fill:#EE827D;}
	.st39{fill:#FFFFFF;stroke:#FFFFFF;stroke-miterlimit:10;}
	.st40{fill:#606060;}
	.st41{fill:none;stroke:#BEDBC3;stroke-width:4;stroke-linecap:round;stroke-linejoin:round;stroke-miterlimit:10;}
	.st42{fill:none;stroke:#864D7D;stroke-width:3.7;stroke-miterlimit:10;}
	.st43{fill:#864D7D;stroke:#864D7D;stroke-width:0.9403;stroke-miterlimit:10;}
	.st44{opacity:0.5;}
	.st45{fill:#FEFFFF;}
	.st46{fill:#FEFEFF;}
	.st47{fill:#FDFEFE;}
	.st48{fill:#FDFDFE;}
	.st49{fill:#FCFDFE;}
	.st50{fill:#FBFCFE;}
	.st51{fill:#FBFCFD;}
	.st52{fill:#FAFCFD;}
	.st53{fill:#FAFBFD;}
	.st54{fill:#F9FBFD;}
	.st55{fill:#F8FAFC;}
	.st56{fill:#F7FAFC;}
	.st57{fill:#F7F9FC;}
	.st58{fill:#F6F9FC;}
	.st59{fill:#F6F9FB;}
	.st60{fill:#F5F8FB;}
	.st61{fill:#F4F7FB;}
	.st62{fill:#F3F7FB;}
	.st63{fill:#F3F7FA;}
	.st64{fill:#F2F6FA;}
	.st65{fill:#F1F5FA;}
	.st66{fill:#F0F5F9;}
	.st67{fill:#F0F4F9;}
	.st68{fill:#EFF4F9;}
	.st69{fill:#EEF3F8;}
	.st70{fill:#EDF3F8;}
	.st71{fill:#EDF2F8;}
	.st72{fill:#ECF2F8;}
	.st73{fill:#EBF1F7;}
	.st74{fill:#EAF1F7;}
	.st75{fill:#EAF0F7;}
	.st76{fill:#E9F0F7;}
	.st77{fill:#E8EFF6;}
	.st78{fill:#E7EFF6;}
	.st79{fill:#E7EEF6;}
	.st80{fill:#E6EEF5;}
	.st81{fill:#E5EDF5;}
	.st82{fill:#E4ECF5;}
	.st83{fill:#E4ECF4;}
	.st84{fill:#E3ECF4;}
	.st85{fill:#E2EBF4;}
	.st86{fill:#E1EAF4;}
	.st87{fill:#E1EAF3;}
	.st88{fill:#E0EAF3;}
	.st89{fill:#E0E9F3;}
	.st90{fill:#DFE9F3;}
	.st91{fill:#DEE8F2;}
	.st92{fill:#DDE8F2;}
	.st93{fill:#DDE7F2;}
	.st94{fill:#DCE7F2;}
	.st95{fill:#DCE7F1;}
	.st96{fill:#DBE6F1;}
	.st97{fill:#DAE6F1;}
	.st98{fill:#DAE5F1;}
	.st99{fill:#D9E5F0;}
	.st100{fill:#D9E4F0;}
	.st101{fill:#D8E4F0;}
	.st102{fill:#D6E2EE;}
	.st103{fill:#D4E0EC;}
	.st104{fill:#D2DEEA;}
	.st105{fill:#D0DCE8;}
	.st106{fill:#CEDAE6;}
	.st107{fill:#CDD9E5;}
	.st108{fill:#CBD7E3;}
	.st109{fill:#C9D5E1;}
	.st110{fill:#C7D3DF;}
	.st111{fill:#C5D1DD;}
	.st112{fill:#C3CFDB;}
	.st113{fill:#C1CDD9;}
	.st114{fill:#BFCBD7;}
	.st115{fill:#BDC9D5;}
	.st116{fill:#BBC7D3;}
	.st117{fill:#B9C6D2;}
	.st118{fill:#B7C4D0;}
	.st119{fill:#B6C2CE;}
	.st120{fill:#B4C0CC;}
	.st121{fill:#B2BECA;}
	.st122{fill:#B0BCC8;}
	.st123{fill:#AEBAC6;}
	.st124{fill:#ACB8C4;}
	.st125{fill:#AAB6C2;}
	.st126{fill:#A8B4C0;}
	.st127{fill:#A6B3BF;}
	.st128{fill:#A4B1BD;}
	.st129{fill:#A2AFBB;}
	.st130{fill:#A0ADB9;}
	.st131{fill:#9FABB7;}
	.st132{fill:#9DA9B5;}
	.st133{fill:#9BA7B3;}
	.st134{fill:#99A5B1;}
	.st135{fill:#97A3AF;}
	.st136{fill:#95A1AD;}
	.st137{fill:#93A0AC;}
	.st138{fill:#919EAA;}
	.st139{fill:#8F9CA8;}
	.st140{fill:#8D9AA6;}
	.st141{fill:#8B98A4;}
	.st142{fill:#8996A2;}
	.st143{fill:#8894A0;}
	.st144{fill:#86929E;}
	.st145{fill:#84909C;}
	.st146{fill:#828E9A;}
	.st147{fill:#808D99;}
	.st148{fill:#7E8B97;}
	.st149{fill:#7C8995;}
	.st150{fill:#7A8793;}
	.st151{fill:#788591;}
	.st152{fill:#76838F;}
	.st153{fill:#74818D;}
	.st154{fill:#727F8B;}
	.st155{fill:#717D89;}
	.st156{fill:#6F7B87;}
	.st157{fill:#6D7A86;}
	.st158{fill:#6B7884;}
	.st159{fill:#697682;}
	.st160{fill:#677480;}
	.st161{fill:#65727E;}
	.st162{fill:#63707C;}
	.st163{fill:#616E7A;}
	.st164{fill:#5F6C78;}
	.st165{fill:#5D6A76;}
	.st166{fill:#5B6874;}
	.st167{fill:#5A6773;}
	.st168{fill:#586571;}
	.st169{fill:#56636F;}
	.st170{fill:#54616D;}
	.st171{fill:#525F6B;}
	.st172{fill:#505D69;}
	.st173{fill:#864D7D;stroke:#864D7D;stroke-miterlimit:10;}
	.st174{fill:none;stroke:#FFFFFF;stroke-width:2;stroke-miterlimit:10;}
	.st175{fill:#FFFFFF;stroke:#242E77;stroke-width:0.1637;stroke-linecap:round;stroke-linejoin:round;stroke-miterlimit:10;}
	.st176{opacity:0.3;clip-path:url(#SVGID_30_);}
	.st177{fill:none;stroke:#7087AF;stroke-miterlimit:10;}
	.st178{clip-path:url(#SVGID_32_);}
	.st179{fill:none;stroke:#FFFFFF;stroke-miterlimit:10;}
	.st180{fill-rule:evenodd;clip-rule:evenodd;fill:#FFFFFF;}
	.st181{fill:#B2555F;}
	.st182{fill:#47284F;}
	.st183{fill:#FFBF9B;}
	.st184{fill:#FFA687;}
	.st185{fill:none;stroke:#47284F;stroke-width:1.1054;stroke-linecap:round;stroke-miterlimit:10;}
	.st186{fill:#72426B;}
	.st187{fill:#FFC9AC;}
	.st188{fill:#C19884;}
	.st189{fill:#FFA68D;}
	.st190{fill:#13A6CE;}
	.st191{fill:#4E2447;}
	.st192{opacity:0.3;}
	.st193{fill:#1A2E35;}
	.st194{fill:#FFBF9D;}
	.st195{fill:#FF9A6C;}
	.st196{fill:#375A64;}
	.st197{fill:#E1E1E1;}
	.st198{opacity:0.2;}
	.st199{fill:#FF4F5B;}
	.st200{fill:#EBEBEB;}
	.st201{fill:#AA6550;}
	.st202{fill:none;stroke:#FFA6AD;stroke-miterlimit:10;}
	.st203{fill:none;stroke:#FFFFFF;stroke-width:5.000000e-02;stroke-miterlimit:10;}
	.st204{fill:#FAFAFA;}
	.st205{fill:#FFFFFF;stroke:#FFFFFF;stroke-width:3;stroke-miterlimit:10;}
	.st206{clip-path:url(#SVGID_34_);}
</style>
<g>
	<path class="st6" d="M824.9,376.9H81.1V244.5h781.1v95C862.2,360.1,845.5,376.9,824.9,376.9z"/>
	<g>
		<g>
			<path class="st3" d="M901.5,333.4l17.4-19.3c19.6,14.5,35.7,40.9,35.7,70.2c0,19-12.9,29.6-28.3,29.6
				c-15.1,0-27.1-12.6-27.1-27.7c0-11.6,7.7-23.5,22.2-26.7C919.8,349.1,908.2,337.9,901.5,333.4z M965.9,333.4l17.4-19.3
				c19.6,14.5,35.7,40.9,35.7,70.2c0,19-12.9,29.6-28.3,29.6c-15.1,0-27.1-12.6-27.1-27.7c0-11.6,7.7-23.5,22.2-26.7
				C984.2,349.1,972.6,337.9,965.9,333.4z"/>
		</g>
	</g>
	<g>
		<g>
			<path class="st3" d="M33.2,45.4c14.5,3.2,22.2,15.1,22.2,26.7c0,15.1-11.9,27.7-27.1,27.7C12.9,99.8,0,89.2,0,70.2
				C0,40.9,16.1,14.5,35.7,0l17.4,19.3C46.4,23.8,34.8,35.1,33.2,45.4z M97.6,45.4c14.5,3.2,22.2,15.1,22.2,26.7
				c0,15.1-11.9,27.7-27.1,27.7c-15.5,0-28.3-10.6-28.3-29.6c0-29.3,16.1-55.7,35.7-70.2l17.4,19.3C110.8,23.8,99.2,35.1,97.6,45.4z
				"/>
		</g>
	</g>
	<g>
		<g>
			<path class="st3" d="M126,442.9c-1.7,0.8-5.1,1.7-9.4,1.7c-10.1,0-17.6-6.3-17.6-18c0-11.2,7.6-18.7,18.6-18.7
				c4.4,0,7.2,1,8.5,1.6l-1.1,3.8c-1.7-0.8-4.2-1.5-7.2-1.5c-8.4,0-13.9,5.3-13.9,14.7c0,8.7,5,14.3,13.7,14.3
				c2.8,0,5.7-0.6,7.5-1.5L126,442.9z"/>
			<path class="st3" d="M130.5,441.3c0-2,1.3-3.3,3.2-3.3c1.9,0,3.1,1.4,3.1,3.3c0,1.9-1.2,3.3-3.2,3.3
				C131.8,444.7,130.5,443.3,130.5,441.3z"/>
			<path class="st3" d="M150,408.4h4.6v23.9c0,9.5-4.7,12.4-10.8,12.4c-1.7,0-3.8-0.4-4.9-0.8l0.7-3.8c1,0.4,2.3,0.7,3.9,0.7
				c4.1,0,6.6-1.9,6.6-8.8V408.4z"/>
			<path class="st3" d="M160.4,441.3c0-2,1.3-3.3,3.2-3.3c1.9,0,3.1,1.4,3.1,3.3c0,1.9-1.2,3.3-3.2,3.3
				C161.7,444.7,160.4,443.3,160.4,441.3z"/>
		</g>
	</g>
	<g>
		<g>
			<path class="st3" d="M97.6,135.5v-14.9h4.5v14.9H97.6z M104.6,135.5v-14.9h4.5v14.9H104.6z"/>
			<path class="st3" d="M109.6,136h-5.5v-15.9h5.5V136z M105.1,135h3.5v-13.9h-3.5V135z M102.7,136h-5.5v-15.9h5.5V136z M98.1,135
				h3.5v-13.9h-3.5V135z"/>
		</g>
		<g>
			<path class="st3" d="M117.5,141.2v14.5H113v-35.2h4.5v16.1h10.9v-16.1h4.5v35.2h-4.5v-14.5H117.5z"/>
			<path class="st3" d="M133.4,156.3h-5.5v-14.5H118v14.5h-5.5v-36.2h5.5v16.1h9.9v-16.1h5.5V156.3z M128.9,155.3h3.5v-34.2h-3.5
				v16.1H117v-16.1h-3.5v34.2h3.5v-14.5h11.9V155.3z"/>
		</g>
		<g>
			<path class="st3" d="M159.1,134.7v-1.6h4.6v22.6h-4.6V153c-2.2,2.3-4.7,3.4-7.6,3.4c-3.5,0-6.4-1.2-8.8-3.7
				c-2.4-2.4-3.7-5.4-3.7-8.8s1.2-6.4,3.7-8.8c2.4-2.4,5.4-3.7,8.8-3.7C154.4,131.4,156.9,132.5,159.1,134.7z M159.1,145.5v-3.3
				c-0.3-1.4-1-2.7-2.1-3.9c-1.5-1.5-3.4-2.3-5.5-2.3c-2.2,0-4,0.8-5.5,2.3c-1.5,1.5-2.3,3.4-2.3,5.5c0,2.2,0.8,4,2.3,5.5
				c1.5,1.5,3.4,2.3,5.5,2.3c2.2,0,4-0.8,5.5-2.3C158.1,148.2,158.9,146.9,159.1,145.5z"/>
			<path class="st3" d="M151.5,156.9c-3.6,0-6.7-1.3-9.2-3.8c-2.5-2.5-3.8-5.6-3.8-9.2s1.3-6.7,3.8-9.2c2.5-2.5,5.6-3.8,9.2-3.8
				c2.7,0,5.1,0.9,7.1,2.7v-0.9h5.6v23.6h-5.6v-2.2C156.5,155.9,154.1,156.9,151.5,156.9z M151.5,131.9c-3.3,0-6.2,1.2-8.5,3.5
				c-2.3,2.3-3.5,5.2-3.5,8.5s1.2,6.2,3.5,8.5c2.3,2.3,5.2,3.5,8.5,3.5c2.7,0,5.2-1.1,7.3-3.3l0.9-0.9v3.6h3.6v-21.6h-3.6v2.3
				l-0.9-0.9C156.7,132.9,154.2,131.9,151.5,131.9z M151.5,152.2c-2.3,0-4.3-0.8-5.9-2.4c-1.6-1.6-2.4-3.6-2.4-5.9
				c0-2.3,0.8-4.3,2.4-5.9c1.6-1.6,3.6-2.4,5.9-2.4c2.3,0,4.3,0.8,5.9,2.4c1.2,1.2,2,2.6,2.2,4.1l0,3.5l0,0c-0.3,1.5-1,2.9-2.2,4.1
				C155.7,151.4,153.7,152.2,151.5,152.2z M151.5,136.5c-2,0-3.7,0.7-5.2,2.1c-1.4,1.4-2.1,3.1-2.1,5.2c0,2,0.7,3.7,2.1,5.2
				c1.4,1.4,3.1,2.1,5.2,2.1c2,0,3.7-0.7,5.2-2.1c1-1.1,1.7-2.3,2-3.6v-3.3c-0.2-1.2-0.9-2.4-2-3.5
				C155.2,137.2,153.5,136.5,151.5,136.5z"/>
		</g>
		<g>
			<path class="st3" d="M174.9,150.9c0.5,0.5,1.2,0.8,1.9,0.8s1.4-0.3,1.9-0.8c0.5-0.5,0.8-1.2,0.8-2c0-0.7-0.3-1.4-0.8-1.9
				c-0.4-0.4-1.1-0.9-2.4-1.7c-1.6-0.9-2.8-1.7-3.5-2.4c-1.2-1.2-1.8-2.6-1.8-4.3c0-1.7,0.6-3.2,1.8-4.4c1.2-1.2,2.7-1.8,4.4-1.8
				s3.1,0.6,4.2,1.7c0.8,0.8,1.3,1.7,1.5,2.7l-4.4,1.3c-0.1-0.4-0.2-0.6-0.3-0.7c-0.3-0.3-0.6-0.4-1.1-0.4s-0.8,0.2-1.1,0.5
				s-0.5,0.7-0.5,1.1s0.2,0.8,0.5,1.1c0.3,0.3,0.9,0.7,1.9,1.3c1.8,1,3.1,1.9,4,2.7c1.4,1.4,2.1,3.1,2.1,5.1c0,2-0.7,3.7-2.1,5.2
				c-1.4,1.4-3.1,2.1-5.2,2.1c-2,0-3.7-0.7-5.1-2.2c-1-1-1.6-2.2-1.9-3.7l4.5-1C174.4,150.2,174.6,150.6,174.9,150.9z"/>
			<path class="st3" d="M176.8,156.8c-2.1,0-4-0.8-5.5-2.3c-1-1-1.7-2.4-2.1-3.9l-0.1-0.5l5.5-1.2l0.1,0.5c0.1,0.7,0.3,1,0.5,1.2
				c0.4,0.4,1,0.6,1.6,0.6c0.6,0,1.1-0.2,1.6-0.6c0.4-0.4,0.7-1,0.7-1.6c0-0.6-0.2-1.1-0.6-1.6c-0.3-0.3-1.1-0.9-2.3-1.6
				c-1.7-0.9-2.9-1.7-3.6-2.4c-1.3-1.3-1.9-2.9-1.9-4.7c0-1.8,0.7-3.4,1.9-4.7c1.3-1.3,2.9-2,4.7-2c1.8,0,3.4,0.6,4.6,1.9
				c0.9,0.9,1.4,1.9,1.7,2.9l0.1,0.5l-5.4,1.5l-0.1-0.5c-0.1-0.4-0.2-0.5-0.2-0.5c-0.3-0.3-1-0.3-1.5,0.1c-0.2,0.2-0.3,0.5-0.3,0.8
				s0.1,0.6,0.3,0.8c0.2,0.2,0.6,0.5,1.8,1.3c1.8,1,3.2,1.9,4,2.8c1.5,1.5,2.3,3.4,2.3,5.5c0,2.1-0.8,4-2.3,5.5
				C180.8,156,179,156.8,176.8,156.8z M170.3,150.8c0.3,1.2,0.9,2.1,1.7,2.9c1.3,1.4,2.9,2,4.8,2c1.9,0,3.5-0.7,4.8-2
				c1.3-1.3,2-2.9,2-4.8c0-1.9-0.6-3.4-2-4.8c-0.8-0.8-2.1-1.7-3.8-2.6c-1-0.7-1.7-1.1-2-1.4c-0.4-0.4-0.6-0.9-0.6-1.5
				s0.2-1.1,0.6-1.5c0.8-0.8,2.2-0.8,2.9-0.1c0.1,0.1,0.2,0.3,0.3,0.5l3.5-1c-0.2-0.7-0.7-1.4-1.3-2c-1-1.1-2.3-1.6-3.9-1.6
				c-1.6,0-2.9,0.5-4,1.7c-1.1,1.1-1.7,2.4-1.7,4c0,1.6,0.5,2.9,1.7,4c0.7,0.7,1.8,1.4,3.4,2.3c1.3,0.8,2.1,1.4,2.5,1.8
				c0.6,0.6,0.9,1.4,0.9,2.3c0,0.9-0.3,1.7-1,2.3c-0.6,0.6-1.4,0.9-2.3,0.9c-0.9,0-1.6-0.3-2.3-0.9l0,0c-0.3-0.3-0.5-0.7-0.6-1.2
				L170.3,150.8z"/>
		</g>
		<g>
			<path class="st3" d="M192.8,133.2v-8.5h4.5v8.5h4.1v4.5h-4.1v18.1h-4.5v-18.1h-4.1v-4.5H192.8z"/>
			<path class="st3" d="M197.8,156.3h-5.5v-18.1h-4.1v-5.5h4.1v-8.5h5.5v8.5h4.1v5.5h-4.1V156.3z M193.3,155.3h3.5v-18.1h4.1v-3.5
				h-4.1v-8.5h-3.5v8.5h-4.1v3.5h4.1V155.3z"/>
		</g>
		<g>
			<path class="st3" d="M226.3,134.7v-1.6h4.6v22.6h-4.6V153c-2.2,2.3-4.7,3.4-7.6,3.4c-3.5,0-6.4-1.2-8.8-3.7
				c-2.4-2.4-3.7-5.4-3.7-8.8s1.2-6.4,3.7-8.8c2.4-2.4,5.4-3.7,8.8-3.7C221.5,131.4,224.1,132.5,226.3,134.7z M226.3,145.5v-3.3
				c-0.3-1.4-1-2.7-2.1-3.9c-1.5-1.5-3.4-2.3-5.5-2.3c-2.2,0-4,0.8-5.5,2.3c-1.5,1.5-2.3,3.4-2.3,5.5c0,2.2,0.8,4,2.3,5.5
				c1.5,1.5,3.4,2.3,5.5,2.3c2.2,0,4-0.8,5.5-2.3C225.3,148.2,226,146.9,226.3,145.5z"/>
			<path class="st3" d="M218.6,156.9c-3.6,0-6.7-1.3-9.2-3.8c-2.5-2.5-3.8-5.6-3.8-9.2s1.3-6.7,3.8-9.2c2.5-2.5,5.6-3.8,9.2-3.8
				c2.7,0,5.1,0.9,7.1,2.7v-0.9h5.6v23.6h-5.6v-2.2C223.7,155.9,221.3,156.9,218.6,156.9z M218.6,131.9c-3.3,0-6.2,1.2-8.5,3.5
				c-2.3,2.3-3.5,5.2-3.5,8.5s1.2,6.2,3.5,8.5c2.3,2.3,5.2,3.5,8.5,3.5c2.7,0,5.2-1.1,7.3-3.3l0.9-0.9v3.6h3.6v-21.6h-3.6v2.3
				l-0.9-0.9C223.8,132.9,221.4,131.9,218.6,131.9z M218.6,152.2c-2.3,0-4.3-0.8-5.9-2.4c-1.6-1.6-2.4-3.6-2.4-5.9
				c0-2.3,0.8-4.3,2.4-5.9c1.6-1.6,3.6-2.4,5.9-2.4c2.3,0,4.3,0.8,5.9,2.4c1.2,1.2,2,2.6,2.2,4.1l0,3.5l0,0c-0.3,1.5-1,2.9-2.2,4.1
				C222.9,151.4,220.9,152.2,218.6,152.2z M218.6,136.5c-2,0-3.7,0.7-5.2,2.1c-1.4,1.4-2.1,3.1-2.1,5.2c0,2,0.7,3.7,2.1,5.2
				c1.4,1.4,3.1,2.1,5.2,2.1c2,0,3.7-0.7,5.2-2.1c1-1.1,1.7-2.3,2-3.6v-3.3c-0.2-1.2-0.9-2.4-2-3.5
				C222.3,137.2,220.7,136.5,218.6,136.5z"/>
		</g>
		<g>
			<path class="st3" d="M272.1,134.7v-1.6h4.6v30.2h-4.6V153c-2.2,2.3-4.8,3.4-7.7,3.4c-3.5,0-6.4-1.2-8.8-3.7
				c-2.4-2.4-3.7-5.4-3.7-8.9s1.2-6.4,3.7-8.8c2.4-2.4,5.4-3.7,8.8-3.7C267.3,131.3,269.9,132.5,272.1,134.7z M272.1,145.5v-3.4
				c-0.3-1.4-1-2.7-2.1-3.9c-1.5-1.5-3.4-2.3-5.5-2.3s-4,0.8-5.5,2.3s-2.3,3.4-2.3,5.5c0,2.2,0.8,4,2.3,5.5s3.4,2.3,5.5,2.3
				s4-0.8,5.5-2.3C271.1,148.2,271.8,146.9,272.1,145.5z"/>
			<path class="st3" d="M277.1,163.9h-5.6v-9.8c-2.1,1.8-4.5,2.7-7.2,2.7c-3.6,0-6.7-1.3-9.2-3.8c-2.5-2.5-3.8-5.6-3.8-9.2
				s1.3-6.7,3.8-9.2c2.5-2.5,5.6-3.8,9.2-3.8c2.7,0,5.1,0.9,7.2,2.7v-0.9h5.6V163.9z M272.6,162.9h3.6v-29.2h-3.6v2.3l-0.9-0.9
				c-2.1-2.1-4.5-3.2-7.3-3.2c-3.3,0-6.2,1.2-8.5,3.5c-2.3,2.3-3.5,5.2-3.5,8.5c0,3.3,1.2,6.2,3.5,8.5c2.3,2.3,5.2,3.5,8.5,3.5
				c2.8,0,5.2-1.1,7.3-3.3l0.9-0.9V162.9z M264.4,152.2c-2.3,0-4.3-0.8-5.9-2.4s-2.4-3.6-2.4-5.9c0-2.3,0.8-4.3,2.4-5.9
				c1.6-1.6,3.6-2.5,5.9-2.5c2.3,0,4.3,0.8,5.9,2.5c1.2,1.2,2,2.6,2.3,4.1l0,3.5l0,0c-0.3,1.5-1,2.9-2.3,4.1
				C268.7,151.4,266.7,152.2,264.4,152.2z M264.4,136.5c-2,0-3.7,0.7-5.2,2.2c-1.4,1.5-2.2,3.1-2.2,5.2c0,2,0.7,3.7,2.1,5.2
				c1.4,1.4,3.1,2.1,5.2,2.1c2,0,3.7-0.7,5.2-2.1c1.1-1.1,1.7-2.3,2-3.6v-3.3c-0.2-1.2-0.9-2.4-2-3.5
				C268.2,137.2,266.5,136.5,264.4,136.5z"/>
		</g>
		<g>
			<path class="st3" d="M292.8,156.1c-2.9,0-5.2-0.9-6.9-2.6s-2.6-3.9-2.7-6.5v-13.8h4.6v13.6c0,1.3,0.5,2.4,1.4,3.4
				s2.1,1.4,3.6,1.4c1.3,0,2.4-0.5,3.4-1.4c1-0.9,1.4-2.1,1.4-3.4v-13.6h4.5v13.8c0,2.6-0.9,4.8-2.7,6.5
				C297.8,155.2,295.5,156.1,292.8,156.1z"/>
			<path class="st3" d="M292.8,156.6c-3,0-5.4-0.9-7.3-2.8c-1.8-1.8-2.8-4.1-2.8-6.9l0-14.3h5.6v14.1c0,1.2,0.4,2.2,1.3,3
				c0.9,0.8,1.9,1.3,3.2,1.3c1.2,0,2.2-0.4,3-1.3c0.9-0.8,1.3-1.8,1.3-3v-14.1h5.5v14.3c0,2.8-1,5.1-2.8,6.9
				C298,155.6,295.7,156.6,292.8,156.6z M283.7,133.7v13.3c0,2.5,0.9,4.6,2.5,6.2c1.6,1.6,3.8,2.5,6.5,2.5c2.6,0,4.7-0.8,6.3-2.5
				c1.6-1.6,2.5-3.7,2.5-6.2l0-13.2h-3.5v13.1c0,1.5-0.5,2.7-1.6,3.7c-1.1,1-2.3,1.5-3.7,1.5c-1.6,0-2.9-0.5-3.9-1.5
				c-1-1-1.6-2.3-1.6-3.7v-13.1H283.7z"/>
		</g>
		<g>
			<path class="st3" d="M315.8,150.6c0.8,0.7,2.1,1,4.2,1c2.2,0,4-0.8,5.6-2.3c0.2-0.2,0.6-0.7,1.2-1.4l4.5,1.6
				c-1.1,1.5-1.9,2.6-2.4,3.1c-2.4,2.4-5.4,3.7-8.9,3.7c-3.4,0-6.4-1.2-8.8-3.7s-3.7-5.4-3.7-8.9s1.2-6.4,3.7-8.9s5.4-3.7,8.8-3.7
				c3,0,5.6,0.9,7.8,2.7c0.4,0.3,0.7,0.6,1.1,1c0.1,0.1,0.6,0.6,1.3,1.4l-2.3,2.3L315.8,150.6z M323.4,136.6
				c-0.5-0.4-1.7-0.6-3.4-0.6c-2.2,0-4,0.8-5.5,2.3c-1.5,1.5-2.3,3.4-2.3,5.5c0,1.8,0.2,2.9,0.6,3.4L323.4,136.6z"/>
			<path class="st3" d="M320,156.9c-3.6,0-6.7-1.3-9.2-3.8c-2.5-2.5-3.8-5.6-3.8-9.2s1.3-6.7,3.8-9.2c2.5-2.5,5.6-3.8,9.2-3.8
				c3.1,0,5.8,0.9,8.1,2.8c0.4,0.3,0.8,0.7,1.1,1c0.1,0.1,0.6,0.6,1.3,1.4l0.3,0.4l-2.6,2.6l-11.6,11.6c0.7,0.4,1.9,0.6,3.4,0.6
				c2,0,3.8-0.7,5.2-2.1c0.2-0.2,0.6-0.6,1.1-1.3l0.2-0.3l5.5,2l-0.4,0.5c-1.1,1.6-1.9,2.6-2.5,3.1
				C326.6,155.6,323.5,156.9,320,156.9z M320,131.8c-3.3,0-6.1,1.2-8.5,3.5c-2.3,2.3-3.5,5.2-3.5,8.5s1.2,6.2,3.5,8.5
				c2.3,2.3,5.2,3.5,8.5,3.5c3.3,0,6.2-1.2,8.5-3.5c0.4-0.4,1.1-1.2,2-2.5l-3.6-1.3c-0.5,0.6-0.8,0.9-1,1.1
				c-1.6,1.6-3.6,2.4-5.9,2.4c-2.2,0-3.6-0.4-4.5-1.1l-0.4-0.4l14.3-14.3c-0.5-0.6-0.8-0.9-0.9-1c-0.3-0.3-0.7-0.7-1-1
				C325.3,132.7,322.8,131.8,320,131.8z M312.7,148l-0.3-0.5c-0.5-0.6-0.7-1.8-0.7-3.7c0-2.3,0.8-4.3,2.4-5.9
				c1.6-1.6,3.6-2.4,5.9-2.4c1.9,0,3.1,0.2,3.8,0.7l0.4,0.3L312.7,148z M320,136.5c-2,0-3.7,0.7-5.2,2.1c-1.4,1.4-2.1,3.1-2.1,5.2
				c0,1.3,0.1,2.1,0.2,2.6l9.7-9.7C322.1,136.6,321.3,136.5,320,136.5z"/>
		</g>
		<g>
			<path class="st3" d="M356.6,120.6v35.2h-4.6v-35.2H356.6z"/>
			<path class="st3" d="M357.1,156.3h-5.6v-36.2h5.6V156.3z M352.6,155.3h3.6v-34.2h-3.6V155.3z"/>
		</g>
		<g>
			<path class="st3" d="M374.4,131.3c3.5,0,6.4,1.2,8.8,3.7c2.4,2.4,3.7,5.4,3.7,8.9s-1.2,6.4-3.7,8.9c-2.4,2.4-5.4,3.7-8.8,3.7
				c-3.4,0-6.4-1.2-8.8-3.7s-3.7-5.4-3.7-8.9s1.2-6.4,3.7-8.9S371,131.3,374.4,131.3z M368.9,138.3c-1.5,1.5-2.3,3.4-2.3,5.5
				c0,2.2,0.8,4,2.3,5.5s3.4,2.3,5.5,2.3s4-0.8,5.5-2.3c1.5-1.5,2.3-3.4,2.3-5.5c0-2.2-0.8-4-2.3-5.5c-1.5-1.5-3.4-2.3-5.5-2.3
				S370.4,136.8,368.9,138.3z"/>
			<path class="st3" d="M374.4,156.9c-3.6,0-6.7-1.3-9.2-3.8c-2.5-2.5-3.8-5.6-3.8-9.2s1.3-6.7,3.8-9.2c2.5-2.5,5.6-3.8,9.2-3.8
				c3.6,0,6.7,1.3,9.2,3.8c2.5,2.5,3.8,5.6,3.8,9.2s-1.3,6.7-3.8,9.2C381.1,155.6,378,156.9,374.4,156.9z M374.4,131.8
				c-3.3,0-6.1,1.2-8.5,3.5c-2.3,2.3-3.5,5.2-3.5,8.5s1.2,6.2,3.5,8.5c2.3,2.3,5.2,3.5,8.5,3.5c3.3,0,6.2-1.2,8.5-3.5
				c2.3-2.3,3.5-5.2,3.5-8.5s-1.2-6.2-3.5-8.5C380.6,133,377.7,131.8,374.4,131.8z M374.4,152.2c-2.3,0-4.3-0.8-5.9-2.4
				c-1.6-1.6-2.4-3.6-2.4-5.9c0-2.3,0.8-4.3,2.4-5.9c1.6-1.6,3.6-2.5,5.9-2.5c2.3,0,4.3,0.8,5.9,2.5c1.6,1.6,2.4,3.6,2.4,5.9
				c0,2.3-0.8,4.3-2.4,5.9C378.7,151.3,376.7,152.2,374.4,152.2z M374.4,136.5c-2,0-3.7,0.7-5.2,2.2c-1.4,1.5-2.2,3.1-2.2,5.2
				c0,2,0.7,3.7,2.1,5.2c1.4,1.4,3.1,2.1,5.2,2.1c2,0,3.7-0.7,5.2-2.1c1.4-1.4,2.1-3.1,2.1-5.2c0-2-0.7-3.7-2.2-5.2
				C378.2,137.2,376.5,136.5,374.4,136.5z"/>
		</g>
		<g>
			<path class="st3" d="M412.6,124.8c0.6,0.6,0.9,1.4,0.9,2.3s-0.3,1.6-0.9,2.3s-1.4,0.9-2.3,0.9c-0.9,0-1.6-0.3-2.2-0.9
				s-0.9-1.4-0.9-2.3s0.3-1.6,0.9-2.3s1.4-0.9,2.2-0.9C411.3,123.9,412,124.2,412.6,124.8z M412.7,133.2v22.6h-4.5v-22.6H412.7z"/>
			<path class="st3" d="M413.2,156.3h-5.5v-23.6h5.5V156.3z M408.6,155.3h3.5v-21.6h-3.5V155.3z M410.4,130.7c-1,0-1.9-0.4-2.6-1.1
				c-0.7-0.7-1.1-1.6-1.1-2.6s0.4-1.9,1.1-2.6c0.7-0.7,1.6-1.1,2.6-1.1c1,0,1.9,0.4,2.6,1.1c0.7,0.7,1.1,1.6,1.1,2.6
				s-0.4,1.9-1.1,2.6C412.3,130.4,411.4,130.7,410.4,130.7z M410.4,124.4c-0.7,0-1.4,0.3-1.9,0.8c-0.5,0.5-0.8,1.1-0.8,1.9
				s0.3,1.4,0.8,1.9c0.5,0.5,1.2,0.8,1.9,0.8c0.8,0,1.4-0.3,1.9-0.8c0.5-0.5,0.8-1.1,0.8-1.9s-0.3-1.4-0.8-1.9
				C411.7,124.6,411.1,124.4,410.4,124.4z"/>
		</g>
		<g>
			<path class="st3" d="M424.2,139.2v16.5h-4.6v-22.6h4.6v2.6c1-2.6,2.9-3.9,5.7-3.9c2.4,0,4.4,0.9,5.8,2.6c1.4,1.7,2.2,3.9,2.2,6.5
				v14.7h-4.5v-14.5c0-1.3-0.5-2.4-1.4-3.4c-1-0.9-2.1-1.4-3.4-1.4c-1.3,0-2.4,0.5-3.4,1.4C424.7,138.4,424.4,138.9,424.2,139.2z"/>
			<path class="st3" d="M438.5,156.3h-5.5v-15c0-1.2-0.4-2.2-1.3-3c-0.9-0.8-1.9-1.3-3.1-1.3c-1.2,0-2.2,0.4-3,1.2
				c-0.5,0.5-0.8,0.9-0.9,1.1v16.9h-5.6v-23.6h5.6v1.1c1.2-1.6,2.9-2.4,5.2-2.4c2.6,0,4.7,0.9,6.2,2.8c1.5,1.8,2.3,4.1,2.3,6.8
				L438.5,156.3z M433.9,155.3h3.5v-14.2c0-2.5-0.8-4.6-2.1-6.2c-1.4-1.6-3.1-2.4-5.4-2.4c-2.7,0-4.4,1.2-5.3,3.5l-1,2.6v-4.9h-3.6
				v21.6h3.6l0-16.2c0.2-0.4,0.6-0.9,1.1-1.5c1.1-1,2.3-1.5,3.7-1.5c1.4,0,2.7,0.5,3.8,1.5c1,1,1.6,2.3,1.6,3.7V155.3z"/>
		</g>
		<g>
			<path class="st3" d="M462.6,148l4.5,1.6c-1.1,1.5-1.9,2.6-2.4,3.1c-2.4,2.4-5.4,3.7-8.9,3.7c-3.4,0-6.4-1.2-8.8-3.7
				s-3.7-5.4-3.7-8.9s1.2-6.4,3.7-8.9s5.4-3.7,8.8-3.7c3.5,0,6.4,1.2,8.9,3.7c0.5,0.5,1.3,1.5,2.4,3l-4.5,1.7
				c-0.6-0.7-1-1.2-1.2-1.4c-1.5-1.5-3.4-2.3-5.5-2.3c-2.2,0-4,0.8-5.5,2.3c-1.5,1.5-2.3,3.4-2.3,5.5c0,2.2,0.8,4,2.3,5.5
				c1.5,1.5,3.4,2.3,5.5,2.3c2.2,0,4-0.8,5.6-2.3C461.6,149.2,462,148.7,462.6,148z"/>
			<path class="st3" d="M455.8,156.9c-3.6,0-6.7-1.3-9.2-3.8c-2.5-2.5-3.8-5.6-3.8-9.2s1.3-6.7,3.8-9.2c2.5-2.5,5.6-3.8,9.2-3.8
				c3.6,0,6.7,1.3,9.2,3.8c0.5,0.5,1.3,1.5,2.5,3.1l0.4,0.5l-5.5,2l-0.2-0.3c-0.6-0.7-1-1.2-1.2-1.3c-1.4-1.4-3.1-2.1-5.2-2.1
				c-2,0-3.7,0.7-5.2,2.1c-1.4,1.4-2.1,3.1-2.1,5.2c0,2,0.7,3.7,2.1,5.2c1.4,1.4,3.1,2.1,5.2,2.1c2,0,3.8-0.7,5.2-2.1
				c0.2-0.2,0.6-0.6,1.1-1.3l0.2-0.3l5.5,2l-0.4,0.5c-1.1,1.6-1.9,2.6-2.5,3.1C462.5,155.6,459.4,156.9,455.8,156.9z M455.8,131.8
				c-3.3,0-6.1,1.2-8.5,3.5c-2.3,2.3-3.5,5.2-3.5,8.5s1.2,6.2,3.5,8.5c2.3,2.3,5.2,3.5,8.5,3.5c3.3,0,6.2-1.2,8.5-3.5
				c0.4-0.4,1.1-1.2,2-2.5l-3.6-1.3c-0.5,0.6-0.8,0.9-1,1.1c-1.6,1.6-3.6,2.4-5.9,2.4c-2.3,0-4.3-0.8-5.9-2.4
				c-1.6-1.6-2.4-3.6-2.4-5.9c0-2.3,0.8-4.3,2.4-5.9c1.6-1.6,3.6-2.4,5.9-2.4c2.3,0,4.3,0.8,5.9,2.4c0.2,0.2,0.5,0.6,1,1.1l3.6-1.3
				c-0.9-1.2-1.6-2-2-2.4C462,133,459.1,131.8,455.8,131.8z"/>
		</g>
		<g>
			<path class="st3" d="M483.6,131.3c3.5,0,6.4,1.2,8.8,3.7c2.4,2.4,3.7,5.4,3.7,8.9s-1.2,6.4-3.7,8.9c-2.4,2.4-5.4,3.7-8.8,3.7
				c-3.4,0-6.4-1.2-8.8-3.7s-3.7-5.4-3.7-8.9s1.2-6.4,3.7-8.9S480.1,131.3,483.6,131.3z M478,138.3c-1.5,1.5-2.3,3.4-2.3,5.5
				c0,2.2,0.8,4,2.3,5.5s3.4,2.3,5.5,2.3s4-0.8,5.5-2.3c1.5-1.5,2.3-3.4,2.3-5.5c0-2.2-0.8-4-2.3-5.5c-1.5-1.5-3.4-2.3-5.5-2.3
				S479.5,136.8,478,138.3z"/>
			<path class="st3" d="M483.6,156.9c-3.6,0-6.7-1.3-9.2-3.8c-2.5-2.5-3.8-5.6-3.8-9.2s1.3-6.7,3.8-9.2c2.5-2.5,5.6-3.8,9.2-3.8
				c3.6,0,6.7,1.3,9.2,3.8c2.5,2.5,3.8,5.6,3.8,9.2s-1.3,6.7-3.8,9.2C490.2,155.6,487.1,156.9,483.6,156.9z M483.6,131.8
				c-3.3,0-6.1,1.2-8.5,3.5c-2.3,2.3-3.5,5.2-3.5,8.5s1.2,6.2,3.5,8.5c2.3,2.3,5.2,3.5,8.5,3.5c3.3,0,6.2-1.2,8.5-3.5
				c2.3-2.3,3.5-5.2,3.5-8.5s-1.2-6.2-3.5-8.5C489.7,133,486.9,131.8,483.6,131.8z M483.6,152.2c-2.3,0-4.3-0.8-5.9-2.4
				c-1.6-1.6-2.4-3.6-2.4-5.9c0-2.3,0.8-4.3,2.4-5.9c1.6-1.6,3.6-2.5,5.9-2.5c2.3,0,4.3,0.8,5.9,2.5c1.6,1.6,2.4,3.6,2.4,5.9
				c0,2.3-0.8,4.3-2.4,5.9C487.8,151.3,485.9,152.2,483.6,152.2z M483.6,136.5c-2,0-3.7,0.7-5.2,2.2c-1.4,1.5-2.2,3.1-2.2,5.2
				c0,2,0.7,3.7,2.1,5.2c1.4,1.4,3.1,2.1,5.2,2.1c2,0,3.7-0.7,5.2-2.1c1.4-1.4,2.1-3.1,2.1-5.2c0-2-0.7-3.7-2.2-5.2
				C487.3,137.2,485.6,136.5,483.6,136.5z"/>
		</g>
		<g>
			<path class="st3" d="M505.9,139.2v16.5h-4.6v-22.6h4.6v2.6c1-2.6,2.9-3.9,5.7-3.9c2.4,0,4.4,0.9,5.8,2.6c1.4,1.7,2.2,3.9,2.2,6.5
				v14.7h-4.5v-14.5c0-1.3-0.5-2.4-1.4-3.4c-1-0.9-2.1-1.4-3.4-1.4c-1.3,0-2.4,0.5-3.4,1.4C506.4,138.4,506.1,138.9,505.9,139.2z"/>
			<path class="st3" d="M520.2,156.3h-5.5v-15c0-1.2-0.4-2.2-1.3-3c-0.9-0.8-1.9-1.3-3.1-1.3c-1.2,0-2.2,0.4-3,1.2
				c-0.5,0.5-0.8,0.9-0.9,1.1v16.9h-5.6v-23.6h5.6v1.1c1.2-1.6,2.9-2.4,5.2-2.4c2.6,0,4.7,0.9,6.2,2.8c1.5,1.8,2.3,4.1,2.3,6.8
				L520.2,156.3z M515.7,155.3h3.5v-14.2c0-2.5-0.8-4.6-2.1-6.2c-1.4-1.6-3.1-2.4-5.4-2.4c-2.7,0-4.4,1.2-5.3,3.5l-1,2.6v-4.9h-3.6
				v21.6h3.6l0-16.2c0.2-0.4,0.6-0.9,1.1-1.5c1.1-1,2.3-1.5,3.7-1.5c1.4,0,2.7,0.5,3.8,1.5c1,1,1.6,2.3,1.6,3.7V155.3z"/>
		</g>
		<g>
			<path class="st3" d="M530.9,150.9c0.5,0.5,1.2,0.8,1.9,0.8s1.4-0.3,1.9-0.8c0.5-0.5,0.8-1.2,0.8-2c0-0.7-0.3-1.4-0.8-1.9
				c-0.4-0.4-1.1-0.9-2.4-1.7c-1.6-0.9-2.8-1.7-3.5-2.4c-1.2-1.2-1.8-2.6-1.8-4.3c0-1.7,0.6-3.2,1.8-4.4c1.2-1.2,2.7-1.8,4.4-1.8
				s3.1,0.6,4.2,1.7c0.8,0.8,1.3,1.7,1.5,2.7l-4.4,1.3c-0.1-0.4-0.2-0.6-0.3-0.7c-0.3-0.3-0.6-0.4-1.1-0.4s-0.8,0.2-1.1,0.5
				s-0.5,0.7-0.5,1.1s0.2,0.8,0.5,1.1c0.3,0.3,0.9,0.7,1.9,1.3c1.8,1,3.1,1.9,4,2.7c1.4,1.4,2.1,3.1,2.1,5.1c0,2-0.7,3.7-2.1,5.2
				c-1.4,1.4-3.1,2.1-5.2,2.1c-2,0-3.7-0.7-5.1-2.2c-1-1-1.6-2.2-1.9-3.7l4.5-1C530.5,150.2,530.7,150.6,530.9,150.9z"/>
			<path class="st3" d="M532.9,156.8c-2.1,0-4-0.8-5.5-2.3c-1-1-1.7-2.4-2.1-3.9l-0.1-0.5l5.5-1.2l0.1,0.5c0.1,0.7,0.3,1,0.5,1.2
				c0.4,0.4,1,0.6,1.6,0.6c0.6,0,1.1-0.2,1.6-0.6c0.4-0.4,0.7-1,0.7-1.6c0-0.6-0.2-1.1-0.6-1.6c-0.3-0.3-1.1-0.9-2.3-1.6
				c-1.7-0.9-2.9-1.7-3.6-2.4c-1.3-1.3-1.9-2.9-1.9-4.7c0-1.8,0.7-3.4,1.9-4.7c1.3-1.3,2.9-2,4.7-2c1.8,0,3.4,0.6,4.6,1.9
				c0.9,0.9,1.4,1.9,1.7,2.9l0.1,0.5l-5.4,1.5l-0.1-0.5c-0.1-0.4-0.2-0.5-0.2-0.5c-0.3-0.3-1-0.3-1.5,0.1c-0.2,0.2-0.3,0.5-0.3,0.8
				s0.1,0.6,0.3,0.8c0.2,0.2,0.6,0.5,1.8,1.3c1.8,1,3.2,1.9,4,2.8c1.5,1.5,2.3,3.4,2.3,5.5c0,2.1-0.8,4-2.3,5.5
				C536.9,156,535,156.8,532.9,156.8z M526.4,150.8c0.3,1.2,0.9,2.1,1.7,2.9c1.3,1.4,2.9,2,4.8,2c1.9,0,3.5-0.7,4.8-2
				c1.3-1.3,2-2.9,2-4.8c0-1.9-0.6-3.4-2-4.8c-0.8-0.8-2.1-1.7-3.8-2.6c-1-0.7-1.7-1.1-2-1.4c-0.4-0.4-0.6-0.9-0.6-1.5
				s0.2-1.1,0.6-1.5c0.8-0.8,2.2-0.8,2.9-0.1c0.1,0.1,0.2,0.3,0.3,0.5l3.5-1c-0.2-0.7-0.7-1.4-1.3-2c-1-1.1-2.3-1.6-3.9-1.6
				c-1.6,0-2.9,0.5-4,1.7c-1.1,1.1-1.7,2.4-1.7,4c0,1.6,0.5,2.9,1.7,4c0.7,0.7,1.8,1.4,3.4,2.3c1.3,0.8,2.1,1.4,2.5,1.8
				c0.6,0.6,0.9,1.4,0.9,2.3c0,0.9-0.3,1.7-1,2.3c-0.6,0.6-1.4,0.9-2.3,0.9c-0.9,0-1.6-0.3-2.3-0.9l0,0c-0.3-0.3-0.5-0.7-0.6-1.2
				L526.4,150.8z"/>
		</g>
		<g>
			<path class="st3" d="M563.7,148l4.5,1.6c-1.1,1.5-1.9,2.6-2.4,3.1c-2.4,2.4-5.4,3.7-8.9,3.7c-3.4,0-6.4-1.2-8.8-3.7
				s-3.7-5.4-3.7-8.9s1.2-6.4,3.7-8.9s5.4-3.7,8.8-3.7c3.5,0,6.4,1.2,8.9,3.7c0.5,0.5,1.3,1.5,2.4,3l-4.5,1.7
				c-0.6-0.7-1-1.2-1.2-1.4c-1.5-1.5-3.4-2.3-5.5-2.3c-2.2,0-4,0.8-5.5,2.3c-1.5,1.5-2.3,3.4-2.3,5.5c0,2.2,0.8,4,2.3,5.5
				c1.5,1.5,3.4,2.3,5.5,2.3c2.2,0,4-0.8,5.6-2.3C562.7,149.2,563.1,148.7,563.7,148z"/>
			<path class="st3" d="M556.9,156.9c-3.6,0-6.7-1.3-9.2-3.8c-2.5-2.5-3.8-5.6-3.8-9.2s1.3-6.7,3.8-9.2c2.5-2.5,5.6-3.8,9.2-3.8
				c3.6,0,6.7,1.3,9.2,3.8c0.5,0.5,1.3,1.5,2.5,3.1l0.4,0.5l-5.5,2l-0.2-0.3c-0.6-0.7-1-1.2-1.2-1.3c-1.4-1.4-3.1-2.1-5.2-2.1
				c-2,0-3.7,0.7-5.2,2.1c-1.4,1.4-2.1,3.1-2.1,5.2c0,2,0.7,3.7,2.1,5.2c1.4,1.4,3.1,2.1,5.2,2.1c2,0,3.8-0.7,5.2-2.1
				c0.2-0.2,0.6-0.6,1.1-1.3l0.2-0.3l5.5,2l-0.4,0.5c-1.1,1.6-1.9,2.6-2.5,3.1C563.6,155.6,560.5,156.9,556.9,156.9z M556.9,131.8
				c-3.3,0-6.1,1.2-8.5,3.5c-2.3,2.3-3.5,5.2-3.5,8.5s1.2,6.2,3.5,8.5c2.3,2.3,5.2,3.5,8.5,3.5c3.3,0,6.2-1.2,8.5-3.5
				c0.4-0.4,1.1-1.2,2-2.5l-3.6-1.3c-0.5,0.6-0.8,0.9-1,1.1c-1.6,1.6-3.6,2.4-5.9,2.4c-2.3,0-4.3-0.8-5.9-2.4
				c-1.6-1.6-2.4-3.6-2.4-5.9c0-2.3,0.8-4.3,2.4-5.9c1.6-1.6,3.6-2.4,5.9-2.4c2.3,0,4.3,0.8,5.9,2.4c0.2,0.2,0.5,0.6,1,1.1l3.6-1.3
				c-0.9-1.2-1.6-2-2-2.4C563.1,133,560.2,131.8,556.9,131.8z"/>
		</g>
		<g>
			<path class="st3" d="M578.4,124.8c0.6,0.6,0.9,1.4,0.9,2.3s-0.3,1.6-0.9,2.3s-1.4,0.9-2.3,0.9c-0.9,0-1.6-0.3-2.2-0.9
				s-0.9-1.4-0.9-2.3s0.3-1.6,0.9-2.3s1.4-0.9,2.2-0.9C577,123.9,577.7,124.2,578.4,124.8z M578.4,133.2v22.6h-4.5v-22.6H578.4z"/>
			<path class="st3" d="M578.9,156.3h-5.5v-23.6h5.5V156.3z M574.3,155.3h3.5v-21.6h-3.5V155.3z M576.1,130.7c-1,0-1.9-0.4-2.6-1.1
				c-0.7-0.7-1.1-1.6-1.1-2.6s0.4-1.9,1.1-2.6c0.7-0.7,1.6-1.1,2.6-1.1c1,0,1.9,0.4,2.6,1.1c0.7,0.7,1.1,1.6,1.1,2.6
				s-0.4,1.9-1.1,2.6C578,130.4,577.1,130.7,576.1,130.7z M576.1,124.4c-0.7,0-1.4,0.3-1.9,0.8c-0.5,0.5-0.8,1.1-0.8,1.9
				s0.3,1.4,0.8,1.9c0.5,0.5,1.2,0.8,1.9,0.8c0.8,0,1.4-0.3,1.9-0.8c0.5-0.5,0.8-1.1,0.8-1.9s-0.3-1.4-0.8-1.9
				C577.5,124.6,576.9,124.4,576.1,124.4z"/>
		</g>
		<g>
			<path class="st3" d="M592.4,150.6c0.8,0.7,2.1,1,4.2,1c2.2,0,4-0.8,5.6-2.3c0.2-0.2,0.6-0.7,1.2-1.4l4.5,1.6
				c-1.1,1.5-1.9,2.6-2.4,3.1c-2.4,2.4-5.4,3.7-8.9,3.7c-3.4,0-6.4-1.2-8.8-3.7s-3.7-5.4-3.7-8.9s1.2-6.4,3.7-8.9s5.4-3.7,8.8-3.7
				c3,0,5.6,0.9,7.8,2.7c0.4,0.3,0.7,0.6,1.1,1c0.1,0.1,0.6,0.6,1.3,1.4l-2.3,2.3L592.4,150.6z M600,136.6c-0.5-0.4-1.7-0.6-3.4-0.6
				c-2.2,0-4,0.8-5.5,2.3c-1.5,1.5-2.3,3.4-2.3,5.5c0,1.8,0.2,2.9,0.6,3.4L600,136.6z"/>
			<path class="st3" d="M596.5,156.9c-3.6,0-6.7-1.3-9.2-3.8c-2.5-2.5-3.8-5.6-3.8-9.2s1.3-6.7,3.8-9.2c2.5-2.5,5.6-3.8,9.2-3.8
				c3.1,0,5.8,0.9,8.1,2.8c0.4,0.3,0.8,0.7,1.1,1c0.1,0.1,0.6,0.6,1.3,1.4l0.3,0.4l-2.6,2.6l-11.6,11.6c0.7,0.4,1.9,0.6,3.4,0.6
				c2,0,3.8-0.7,5.2-2.1c0.2-0.2,0.6-0.6,1.1-1.3l0.2-0.3l5.5,2l-0.4,0.5c-1.1,1.6-1.9,2.6-2.5,3.1
				C603.2,155.6,600.1,156.9,596.5,156.9z M596.5,131.8c-3.3,0-6.1,1.2-8.5,3.5c-2.3,2.3-3.5,5.2-3.5,8.5s1.2,6.2,3.5,8.5
				c2.3,2.3,5.2,3.5,8.5,3.5c3.3,0,6.2-1.2,8.5-3.5c0.4-0.4,1.1-1.2,2-2.5l-3.6-1.3c-0.5,0.6-0.8,0.9-1,1.1
				c-1.6,1.6-3.6,2.4-5.9,2.4c-2.2,0-3.6-0.4-4.5-1.1l-0.4-0.4l14.3-14.3c-0.5-0.6-0.8-0.9-0.9-1c-0.3-0.3-0.7-0.7-1-1
				C601.9,132.7,599.4,131.8,596.5,131.8z M589.3,148l-0.3-0.5c-0.5-0.6-0.7-1.8-0.7-3.7c0-2.3,0.8-4.3,2.4-5.9
				c1.6-1.6,3.6-2.4,5.9-2.4c1.9,0,3.1,0.2,3.8,0.7l0.4,0.3L589.3,148z M596.5,136.5c-2,0-3.7,0.7-5.2,2.1c-1.4,1.4-2.1,3.1-2.1,5.2
				c0,1.3,0.1,2.1,0.2,2.6l9.7-9.7C598.7,136.6,597.9,136.5,596.5,136.5z"/>
		</g>
		<g>
			<path class="st3" d="M617.7,139.2v16.5h-4.6v-22.6h4.6v2.6c1-2.6,2.9-3.9,5.7-3.9c2.4,0,4.4,0.9,5.8,2.6c1.4,1.7,2.2,3.9,2.2,6.5
				v14.7h-4.5v-14.5c0-1.3-0.5-2.4-1.4-3.4c-1-0.9-2.1-1.4-3.4-1.4c-1.3,0-2.4,0.5-3.4,1.4C618.2,138.4,617.8,138.9,617.7,139.2z"/>
			<path class="st3" d="M632,156.3h-5.5v-15c0-1.2-0.4-2.2-1.3-3c-0.9-0.8-1.9-1.3-3.1-1.3c-1.2,0-2.2,0.4-3,1.2
				c-0.5,0.5-0.8,0.9-0.9,1.1v16.9h-5.6v-23.6h5.6v1.1c1.2-1.6,2.9-2.4,5.2-2.4c2.6,0,4.7,0.9,6.2,2.8c1.5,1.8,2.3,4.1,2.3,6.8
				L632,156.3z M627.4,155.3h3.5v-14.2c0-2.5-0.8-4.6-2.1-6.2c-1.4-1.6-3.1-2.4-5.4-2.4c-2.7,0-4.4,1.2-5.3,3.5l-1,2.6v-4.9h-3.6
				v21.6h3.6l0-16.2c0.2-0.4,0.6-0.9,1.1-1.5c1.1-1,2.3-1.5,3.7-1.5c1.4,0,2.7,0.5,3.8,1.5c1,1,1.6,2.3,1.6,3.7V155.3z"/>
		</g>
		<g>
			<path class="st3" d="M640.9,133.2v-8.5h4.5v8.5h4.1v4.5h-4.1v18.1h-4.5v-18.1h-4.1v-4.5H640.9z"/>
			<path class="st3" d="M645.9,156.3h-5.5v-18.1h-4.1v-5.5h4.1v-8.5h5.5v8.5h4.1v5.5h-4.1V156.3z M641.4,155.3h3.5v-18.1h4.1v-3.5
				h-4.1v-8.5h-3.5v8.5h-4.1v3.5h4.1V155.3z"/>
		</g>
		<g>
			<path class="st3" d="M661.8,150.6c0.8,0.7,2.1,1,4.2,1c2.2,0,4-0.8,5.6-2.3c0.2-0.2,0.6-0.7,1.2-1.4l4.5,1.6
				c-1.1,1.5-1.9,2.6-2.4,3.1c-2.4,2.4-5.4,3.7-8.9,3.7c-3.4,0-6.4-1.2-8.8-3.7s-3.7-5.4-3.7-8.9s1.2-6.4,3.7-8.9s5.4-3.7,8.8-3.7
				c3,0,5.6,0.9,7.8,2.7c0.4,0.3,0.7,0.6,1.1,1c0.1,0.1,0.6,0.6,1.3,1.4l-2.3,2.3L661.8,150.6z M669.4,136.6
				c-0.5-0.4-1.7-0.6-3.4-0.6c-2.2,0-4,0.8-5.5,2.3c-1.5,1.5-2.3,3.4-2.3,5.5c0,1.8,0.2,2.9,0.6,3.4L669.4,136.6z"/>
			<path class="st3" d="M666,156.9c-3.6,0-6.7-1.3-9.2-3.8c-2.5-2.5-3.8-5.6-3.8-9.2s1.3-6.7,3.8-9.2c2.5-2.5,5.6-3.8,9.2-3.8
				c3.1,0,5.8,0.9,8.1,2.8c0.4,0.3,0.8,0.7,1.1,1c0.1,0.1,0.6,0.6,1.3,1.4l0.3,0.4l-2.6,2.6l-11.6,11.6c0.7,0.4,1.9,0.6,3.4,0.6
				c2,0,3.8-0.7,5.2-2.1c0.2-0.2,0.6-0.6,1.1-1.3l0.2-0.3l5.5,2l-0.4,0.5c-1.1,1.6-1.9,2.6-2.5,3.1
				C672.6,155.6,669.5,156.9,666,156.9z M666,131.8c-3.3,0-6.1,1.2-8.5,3.5c-2.3,2.3-3.5,5.2-3.5,8.5s1.2,6.2,3.5,8.5
				c2.3,2.3,5.2,3.5,8.5,3.5c3.3,0,6.2-1.2,8.5-3.5c0.4-0.4,1.1-1.2,2-2.5l-3.6-1.3c-0.5,0.6-0.8,0.9-1,1.1
				c-1.6,1.6-3.6,2.4-5.9,2.4c-2.2,0-3.6-0.4-4.5-1.1l-0.4-0.4l14.3-14.3c-0.5-0.6-0.8-0.9-0.9-1c-0.3-0.3-0.7-0.7-1-1
				C671.3,132.7,668.8,131.8,666,131.8z M658.7,148l-0.3-0.5c-0.5-0.6-0.7-1.8-0.7-3.7c0-2.3,0.8-4.3,2.4-5.9
				c1.6-1.6,3.6-2.4,5.9-2.4c1.9,0,3.1,0.2,3.8,0.7l0.4,0.3L658.7,148z M666,136.5c-2,0-3.7,0.7-5.2,2.1c-1.4,1.4-2.1,3.1-2.1,5.2
				c0,1.3,0.1,2.1,0.2,2.6l9.7-9.7C668.1,136.6,667.3,136.5,666,136.5z"/>
		</g>
		<g>
			<path class="st3" d="M702.6,139.2v16.5h-4.6v-22.6h4.6v2.6c1-2.6,2.9-3.9,5.7-3.9c2.4,0,4.4,0.9,5.8,2.6c1.4,1.7,2.2,3.9,2.2,6.5
				v14.7h-4.5v-14.5c0-1.3-0.5-2.4-1.4-3.4c-1-0.9-2.1-1.4-3.4-1.4c-1.3,0-2.4,0.5-3.4,1.4C703.1,138.4,702.8,138.9,702.6,139.2z"/>
			<path class="st3" d="M716.9,156.3h-5.5v-15c0-1.2-0.4-2.2-1.3-3c-0.9-0.8-1.9-1.3-3.1-1.3c-1.2,0-2.2,0.4-3,1.2
				c-0.5,0.5-0.8,0.9-0.9,1.1v16.9h-5.6v-23.6h5.6v1.1c1.2-1.6,2.9-2.4,5.2-2.4c2.6,0,4.7,0.9,6.2,2.8c1.5,1.8,2.3,4.1,2.3,6.8
				L716.9,156.3z M712.4,155.3h3.5v-14.2c0-2.5-0.8-4.6-2.1-6.2c-1.4-1.6-3.1-2.4-5.4-2.4c-2.7,0-4.4,1.2-5.3,3.5l-1,2.6v-4.9h-3.6
				v21.6h3.6l0-16.2c0.2-0.4,0.6-0.9,1.1-1.5c1.1-1,2.3-1.5,3.7-1.5c1.4,0,2.7,0.5,3.8,1.5c1,1,1.6,2.3,1.6,3.7V155.3z"/>
		</g>
		<g>
			<path class="st3" d="M734.3,131.3c3.5,0,6.4,1.2,8.8,3.7c2.4,2.4,3.7,5.4,3.7,8.9s-1.2,6.4-3.7,8.9c-2.4,2.4-5.4,3.7-8.8,3.7
				c-3.4,0-6.4-1.2-8.8-3.7s-3.7-5.4-3.7-8.9s1.2-6.4,3.7-8.9S730.8,131.3,734.3,131.3z M728.7,138.3c-1.5,1.5-2.3,3.4-2.3,5.5
				c0,2.2,0.8,4,2.3,5.5s3.4,2.3,5.5,2.3s4-0.8,5.5-2.3c1.5-1.5,2.3-3.4,2.3-5.5c0-2.2-0.8-4-2.3-5.5c-1.5-1.5-3.4-2.3-5.5-2.3
				S730.3,136.8,728.7,138.3z"/>
			<path class="st3" d="M734.3,156.9c-3.6,0-6.7-1.3-9.2-3.8c-2.5-2.5-3.8-5.6-3.8-9.2s1.3-6.7,3.8-9.2c2.5-2.5,5.6-3.8,9.2-3.8
				c3.6,0,6.7,1.3,9.2,3.8c2.5,2.5,3.8,5.6,3.8,9.2s-1.3,6.7-3.8,9.2C740.9,155.6,737.8,156.9,734.3,156.9z M734.3,131.8
				c-3.3,0-6.1,1.2-8.5,3.5c-2.3,2.3-3.5,5.2-3.5,8.5s1.2,6.2,3.5,8.5c2.3,2.3,5.2,3.5,8.5,3.5c3.3,0,6.2-1.2,8.5-3.5
				c2.3-2.3,3.5-5.2,3.5-8.5s-1.2-6.2-3.5-8.5C740.4,133,737.6,131.8,734.3,131.8z M734.3,152.2c-2.3,0-4.3-0.8-5.9-2.4
				c-1.6-1.6-2.4-3.6-2.4-5.9c0-2.3,0.8-4.3,2.4-5.9c1.6-1.6,3.6-2.5,5.9-2.5c2.3,0,4.3,0.8,5.9,2.5c1.6,1.6,2.4,3.6,2.4,5.9
				c0,2.3-0.8,4.3-2.4,5.9C738.6,151.3,736.6,152.2,734.3,152.2z M734.3,136.5c-2,0-3.7,0.7-5.2,2.2c-1.4,1.5-2.2,3.1-2.2,5.2
				c0,2,0.7,3.7,2.1,5.2c1.4,1.4,3.1,2.1,5.2,2.1c2,0,3.7-0.7,5.2-2.1c1.4-1.4,2.1-3.1,2.1-5.2c0-2-0.7-3.7-2.2-5.2
				C738,137.2,736.3,136.5,734.3,136.5z"/>
		</g>
		<g>
			<path class="st3" d="M772.2,150.9c0.5,0.5,1.2,0.8,1.9,0.8s1.4-0.3,1.9-0.8c0.5-0.5,0.8-1.2,0.8-2c0-0.7-0.3-1.4-0.8-1.9
				c-0.4-0.4-1.1-0.9-2.4-1.7c-1.6-0.9-2.8-1.7-3.5-2.4c-1.2-1.2-1.8-2.6-1.8-4.3c0-1.7,0.6-3.2,1.8-4.4c1.2-1.2,2.7-1.8,4.4-1.8
				s3.1,0.6,4.2,1.7c0.8,0.8,1.3,1.7,1.5,2.7l-4.4,1.3c-0.1-0.4-0.2-0.6-0.3-0.7c-0.3-0.3-0.6-0.4-1.1-0.4s-0.8,0.2-1.1,0.5
				s-0.5,0.7-0.5,1.1s0.2,0.8,0.5,1.1c0.3,0.3,0.9,0.7,1.9,1.3c1.8,1,3.1,1.9,4,2.7c1.4,1.4,2.1,3.1,2.1,5.1c0,2-0.7,3.7-2.1,5.2
				c-1.4,1.4-3.1,2.1-5.2,2.1c-2,0-3.7-0.7-5.1-2.2c-1-1-1.6-2.2-1.9-3.7l4.5-1C771.7,150.2,771.9,150.6,772.2,150.9z"/>
			<path class="st3" d="M774.1,156.8c-2.1,0-4-0.8-5.5-2.3c-1-1-1.7-2.4-2.1-3.9l-0.1-0.5l5.5-1.2l0.1,0.5c0.1,0.7,0.3,1,0.5,1.2
				c0.4,0.4,1,0.6,1.6,0.6c0.6,0,1.1-0.2,1.6-0.6c0.4-0.4,0.7-1,0.7-1.6c0-0.6-0.2-1.1-0.6-1.6c-0.3-0.3-1.1-0.9-2.3-1.6
				c-1.7-0.9-2.9-1.7-3.6-2.4c-1.3-1.3-1.9-2.9-1.9-4.7c0-1.8,0.7-3.4,1.9-4.7c1.3-1.3,2.9-2,4.7-2c1.8,0,3.4,0.6,4.6,1.9
				c0.9,0.9,1.4,1.9,1.7,2.9l0.1,0.5l-5.4,1.5l-0.1-0.5c-0.1-0.4-0.2-0.5-0.2-0.5c-0.3-0.3-1-0.3-1.5,0.1c-0.2,0.2-0.3,0.5-0.3,0.8
				s0.1,0.6,0.3,0.8c0.2,0.2,0.6,0.5,1.8,1.3c1.8,1,3.2,1.9,4,2.8c1.5,1.5,2.3,3.4,2.3,5.5c0,2.1-0.8,4-2.3,5.5
				C778.1,156,776.3,156.8,774.1,156.8z M767.6,150.8c0.3,1.2,0.9,2.1,1.7,2.9c1.3,1.4,2.9,2,4.8,2c1.9,0,3.5-0.7,4.8-2
				c1.3-1.3,2-2.9,2-4.8c0-1.9-0.6-3.4-2-4.8c-0.8-0.8-2.1-1.7-3.8-2.6c-1-0.7-1.7-1.1-2-1.4c-0.4-0.4-0.6-0.9-0.6-1.5
				s0.2-1.1,0.6-1.5c0.8-0.8,2.2-0.8,2.9-0.1c0.1,0.1,0.2,0.3,0.3,0.5l3.5-1c-0.2-0.7-0.7-1.4-1.3-2c-1-1.1-2.3-1.6-3.9-1.6
				c-1.6,0-2.9,0.5-4,1.7c-1.1,1.1-1.7,2.4-1.7,4c0,1.6,0.5,2.9,1.7,4c0.7,0.7,1.8,1.4,3.4,2.3c1.3,0.8,2.1,1.4,2.5,1.8
				c0.6,0.6,0.9,1.4,0.9,2.3c0,0.9-0.3,1.7-1,2.3c-0.6,0.6-1.4,0.9-2.3,0.9c-0.9,0-1.6-0.3-2.3-0.9l0,0c-0.3-0.3-0.5-0.7-0.6-1.2
				L767.6,150.8z"/>
		</g>
		<g>
			<path class="st3" d="M794,150.6c0.8,0.7,2.1,1,4.2,1c2.2,0,4-0.8,5.6-2.3c0.2-0.2,0.6-0.7,1.2-1.4l4.5,1.6
				c-1.1,1.5-1.9,2.6-2.4,3.1c-2.4,2.4-5.4,3.7-8.9,3.7c-3.4,0-6.4-1.2-8.8-3.7s-3.7-5.4-3.7-8.9s1.2-6.4,3.7-8.9s5.4-3.7,8.8-3.7
				c3,0,5.6,0.9,7.8,2.7c0.4,0.3,0.7,0.6,1.1,1c0.1,0.1,0.6,0.6,1.3,1.4l-2.3,2.3L794,150.6z M801.6,136.6c-0.5-0.4-1.7-0.6-3.4-0.6
				c-2.2,0-4,0.8-5.5,2.3c-1.5,1.5-2.3,3.4-2.3,5.5c0,1.8,0.2,2.9,0.6,3.4L801.6,136.6z"/>
			<path class="st3" d="M798.2,156.9c-3.6,0-6.7-1.3-9.2-3.8c-2.5-2.5-3.8-5.6-3.8-9.2s1.3-6.7,3.8-9.2c2.5-2.5,5.6-3.8,9.2-3.8
				c3.1,0,5.8,0.9,8.1,2.8c0.4,0.3,0.8,0.7,1.1,1c0.1,0.1,0.6,0.6,1.3,1.4l0.3,0.4l-2.6,2.6l-11.6,11.6c0.7,0.4,1.9,0.6,3.4,0.6
				c2,0,3.8-0.7,5.2-2.1c0.2-0.2,0.6-0.6,1.1-1.3l0.2-0.3l5.5,2l-0.4,0.5c-1.1,1.6-1.9,2.6-2.5,3.1
				C804.8,155.6,801.7,156.9,798.2,156.9z M798.2,131.8c-3.3,0-6.1,1.2-8.5,3.5c-2.3,2.3-3.5,5.2-3.5,8.5s1.2,6.2,3.5,8.5
				c2.3,2.3,5.2,3.5,8.5,3.5c3.3,0,6.2-1.2,8.5-3.5c0.4-0.4,1.1-1.2,2-2.5l-3.6-1.3c-0.5,0.6-0.8,0.9-1,1.1
				c-1.6,1.6-3.6,2.4-5.9,2.4c-2.2,0-3.6-0.4-4.5-1.1l-0.4-0.4l14.3-14.3c-0.5-0.6-0.8-0.9-0.9-1c-0.3-0.3-0.7-0.7-1-1
				C803.5,132.7,801,131.8,798.2,131.8z M790.9,148l-0.3-0.5c-0.5-0.6-0.7-1.8-0.7-3.7c0-2.3,0.8-4.3,2.4-5.9
				c1.6-1.6,3.6-2.4,5.9-2.4c1.9,0,3.1,0.2,3.8,0.7l0.4,0.3L790.9,148z M798.2,136.5c-2,0-3.7,0.7-5.2,2.1c-1.4,1.4-2.1,3.1-2.1,5.2
				c0,1.3,0.1,2.1,0.2,2.6l9.7-9.7C800.3,136.6,799.5,136.5,798.2,136.5z"/>
		</g>
		<g>
			<path class="st3" d="M100.4,174.6h4.6v15c1.3-2.4,3.1-3.7,5.5-3.7s4.3,0.9,5.8,2.6c1.4,1.7,2.2,3.9,2.2,6.5v14.7h-4.5v-14.5
				c0-1.3-0.4-2.4-1.1-3.4c-0.7-0.9-1.9-1.4-3.5-1.4c-1.9,0-3.4,1-4.4,3v16.2h-4.6V174.6z"/>
			<path class="st3" d="M119,210.3h-5.5v-15c0-1.2-0.3-2.2-1-3c-0.6-0.8-1.7-1.2-3.1-1.2c-1.7,0-2.9,0.9-3.9,2.7v16.6h-5.6v-36.2
				h5.6v13.8c1.3-1.6,3-2.5,5-2.5c2.6,0,4.6,0.9,6.2,2.8c1.5,1.8,2.3,4.1,2.3,6.8L119,210.3z M114.4,209.3h3.5v-14.2
				c0-2.5-0.8-4.6-2.1-6.2c-1.4-1.6-3.1-2.4-5.4-2.4c-2.2,0-3.9,1.1-5.1,3.4l-0.9,1.8v-16.5h-3.6v34.2h3.6v-15.9l0.1-0.1
				c1.1-2.2,2.8-3.3,4.8-3.3c1.7,0,3.1,0.5,3.9,1.6c0.8,1,1.2,2.2,1.2,3.7V209.3z"/>
		</g>
		<g>
			<path class="st3" d="M144.7,188.7v-1.6h4.6v22.6h-4.6V207c-2.2,2.3-4.7,3.4-7.6,3.4c-3.5,0-6.4-1.2-8.8-3.7
				c-2.4-2.4-3.7-5.4-3.7-8.8s1.2-6.4,3.7-8.8c2.4-2.4,5.4-3.7,8.8-3.7C139.9,185.4,142.5,186.5,144.7,188.7z M144.7,199.5v-3.3
				c-0.3-1.4-1-2.7-2.1-3.9c-1.5-1.5-3.4-2.3-5.5-2.3c-2.2,0-4,0.8-5.5,2.3c-1.5,1.5-2.3,3.4-2.3,5.5c0,2.2,0.8,4,2.3,5.5
				c1.5,1.5,3.4,2.3,5.5,2.3c2.2,0,4-0.8,5.5-2.3C143.7,202.2,144.4,200.9,144.7,199.5z"/>
			<path class="st3" d="M137,210.9c-3.6,0-6.7-1.3-9.2-3.8c-2.5-2.5-3.8-5.6-3.8-9.2s1.3-6.7,3.8-9.2c2.5-2.5,5.6-3.8,9.2-3.8
				c2.7,0,5.1,0.9,7.1,2.7v-0.9h5.6v23.6h-5.6v-2.2C142.1,209.9,139.7,210.9,137,210.9z M137,185.9c-3.3,0-6.2,1.2-8.5,3.5
				c-2.3,2.3-3.5,5.2-3.5,8.5s1.2,6.2,3.5,8.5c2.3,2.3,5.2,3.5,8.5,3.5c2.7,0,5.2-1.1,7.3-3.3l0.9-0.9v3.6h3.6v-21.6h-3.6v2.3
				l-0.9-0.9C142.2,186.9,139.8,185.9,137,185.9z M137,206.2c-2.3,0-4.3-0.8-5.9-2.4c-1.6-1.6-2.4-3.6-2.4-5.9
				c0-2.3,0.8-4.3,2.4-5.9c1.6-1.6,3.6-2.4,5.9-2.4c2.3,0,4.3,0.8,5.9,2.4c1.2,1.2,2,2.6,2.2,4.1l0,3.5l0,0c-0.3,1.5-1,2.9-2.2,4.1
				C141.3,205.4,139.3,206.2,137,206.2z M137,190.5c-2,0-3.7,0.7-5.2,2.1c-1.4,1.4-2.1,3.1-2.1,5.2c0,2,0.7,3.7,2.1,5.2
				c1.4,1.4,3.1,2.1,5.2,2.1c2,0,3.7-0.7,5.2-2.1c1-1.1,1.7-2.3,2-3.6v-3.3c-0.2-1.2-0.9-2.4-2-3.5
				C140.8,191.2,139.1,190.5,137,190.5z"/>
		</g>
		<g>
			<path class="st3" d="M175.5,188.7v-1.6h4.6V204c0,4.4-1.2,7.8-3.6,10.2c-2.4,2.2-5.4,3.2-8.9,3.2s-6.4-1.1-8.9-3.2
				c-0.5-0.5-1.3-1.5-2.4-3l4.5-1.6c0.6,0.7,1,1.2,1.2,1.4c1.5,1.5,3.4,2.3,5.5,2.3c3.6,0,6.1-2.4,7.5-7.1c-1.4,2.8-3.9,4.1-7.3,4.1
				s-6.4-1.2-8.8-3.6c-2.4-2.4-3.7-5.3-3.7-8.7s1.2-6.4,3.7-8.8c2.4-2.4,5.4-3.7,8.8-3.7C170.7,185.3,173.3,186.5,175.5,188.7z
				 M175.5,196.1c-0.3-1.4-1-2.7-2.1-3.8c-1.5-1.5-3.4-2.3-5.5-2.3s-4,0.8-5.5,2.3c-1.5,1.5-2.3,3.4-2.3,5.5c0,2.2,0.8,4,2.3,5.5
				c1.5,1.5,3.4,2.3,5.5,2.3s4-0.8,5.5-2.3c1.1-1.1,1.8-2.4,2.1-3.7V196.1z"/>
			<path class="st3" d="M167.6,217.9c-3.6,0-6.7-1.1-9.2-3.4c-0.5-0.5-1.3-1.6-2.5-3.1l-0.4-0.5l5.5-2l0.2,0.3
				c0.6,0.7,1,1.1,1.2,1.3c1.5,1.4,3.1,2.1,5.2,2.1c2.5,0,4.5-1.2,5.8-3.7c-1.5,1.2-3.3,1.7-5.6,1.7c-3.6,0-6.7-1.2-9.2-3.7
				c-2.5-2.5-3.8-5.5-3.8-9.1c0-3.6,1.3-6.7,3.8-9.2c2.5-2.5,5.6-3.8,9.2-3.8c2.7,0,5.1,0.9,7.2,2.7v-0.9h5.6V204
				c0,4.5-1.3,8.1-3.7,10.5C174.3,216.7,171.2,217.9,167.6,217.9z M157.2,211.3c0.9,1.2,1.5,2,2,2.4c2.3,2,5.2,3.1,8.5,3.1
				s6.2-1,8.5-3.1c2.3-2.3,3.4-5.6,3.4-9.8v-16.3H176v2.3l-0.9-0.9c-2.1-2.1-4.5-3.2-7.3-3.2c-3.3,0-6.2,1.2-8.5,3.5
				c-2.3,2.3-3.5,5.2-3.5,8.5c0,3.3,1.2,6.1,3.5,8.4c2.3,2.3,5.2,3.4,8.5,3.4c3.3,0,5.5-1.3,6.9-3.9l0.9,0.4c-1.5,5-4.1,7.5-8,7.5
				c-2.3,0-4.3-0.8-5.9-2.4c-0.2-0.2-0.5-0.6-1-1.1L157.2,211.3z M167.8,206.2c-2.3,0-4.3-0.8-5.9-2.4c-1.6-1.6-2.4-3.6-2.4-5.9
				c0-2.3,0.8-4.3,2.4-5.9c1.6-1.6,3.6-2.5,5.9-2.5s4.3,0.8,5.9,2.5c1.2,1.2,1.9,2.5,2.2,4l0,0.1l0,3.7c-0.3,1.5-1.1,2.8-2.2,4
				C172.1,205.4,170.1,206.2,167.8,206.2z M167.8,190.5c-2,0-3.7,0.7-5.2,2.2c-1.4,1.5-2.2,3.1-2.2,5.2c0,2,0.7,3.7,2.1,5.2
				c1.4,1.4,3.1,2.1,5.2,2.1c2,0,3.7-0.7,5.2-2.1c1-1,1.7-2.2,2-3.4v-3.5c-0.3-1.3-0.9-2.4-2-3.5
				C171.6,191.2,169.9,190.5,167.8,190.5z"/>
		</g>
		<g>
			<path class="st3" d="M206,188.7v-1.6h4.6v22.6H206V207c-2.2,2.3-4.7,3.4-7.6,3.4c-3.5,0-6.4-1.2-8.8-3.7
				c-2.4-2.4-3.7-5.4-3.7-8.8s1.2-6.4,3.7-8.8c2.4-2.4,5.4-3.7,8.8-3.7C201.3,185.4,203.8,186.5,206,188.7z M206,199.5v-3.3
				c-0.3-1.4-1-2.7-2.1-3.9c-1.5-1.5-3.4-2.3-5.5-2.3c-2.2,0-4,0.8-5.5,2.3c-1.5,1.5-2.3,3.4-2.3,5.5c0,2.2,0.8,4,2.3,5.5
				c1.5,1.5,3.4,2.3,5.5,2.3c2.2,0,4-0.8,5.5-2.3C205,202.2,205.7,200.9,206,199.5z"/>
			<path class="st3" d="M198.4,210.9c-3.6,0-6.7-1.3-9.2-3.8c-2.5-2.5-3.8-5.6-3.8-9.2s1.3-6.7,3.8-9.2c2.5-2.5,5.6-3.8,9.2-3.8
				c2.7,0,5.1,0.9,7.1,2.7v-0.9h5.6v23.6h-5.6v-2.2C203.4,209.9,201,210.9,198.4,210.9z M198.4,185.9c-3.3,0-6.2,1.2-8.5,3.5
				c-2.3,2.3-3.5,5.2-3.5,8.5s1.2,6.2,3.5,8.5c2.3,2.3,5.2,3.5,8.5,3.5c2.7,0,5.2-1.1,7.3-3.3l0.9-0.9v3.6h3.6v-21.6h-3.6v2.3
				l-0.9-0.9C203.6,186.9,201.1,185.9,198.4,185.9z M198.4,206.2c-2.3,0-4.3-0.8-5.9-2.4c-1.6-1.6-2.4-3.6-2.4-5.9
				c0-2.3,0.8-4.3,2.4-5.9c1.6-1.6,3.6-2.4,5.9-2.4c2.3,0,4.3,0.8,5.9,2.4c1.2,1.2,2,2.6,2.2,4.1l0,3.5l0,0c-0.3,1.5-1,2.9-2.2,4.1
				C202.6,205.4,200.6,206.2,198.4,206.2z M198.4,190.5c-2,0-3.7,0.7-5.2,2.1c-1.4,1.4-2.1,3.1-2.1,5.2c0,2,0.7,3.7,2.1,5.2
				c1.4,1.4,3.1,2.1,5.2,2.1c2,0,3.7-0.7,5.2-2.1c1-1.1,1.7-2.3,2-3.6v-3.3c-0.2-1.2-0.9-2.4-2-3.5
				C202.1,191.2,200.4,190.5,198.4,190.5z"/>
		</g>
		<g>
			<path class="st3" d="M250.7,202l4.5,1.6c-1.1,1.5-1.9,2.6-2.4,3.1c-2.4,2.4-5.4,3.7-8.9,3.7c-3.4,0-6.4-1.2-8.8-3.7
				s-3.7-5.4-3.7-8.9s1.2-6.4,3.7-8.9s5.4-3.7,8.8-3.7c3.5,0,6.4,1.2,8.9,3.7c0.5,0.5,1.3,1.5,2.4,3l-4.5,1.7
				c-0.6-0.7-1-1.2-1.2-1.4c-1.5-1.5-3.4-2.3-5.5-2.3c-2.2,0-4,0.8-5.5,2.3c-1.5,1.5-2.3,3.4-2.3,5.5c0,2.2,0.8,4,2.3,5.5
				c1.5,1.5,3.4,2.3,5.5,2.3c2.2,0,4-0.8,5.6-2.3C249.7,203.2,250.1,202.7,250.7,202z"/>
			<path class="st3" d="M243.9,210.9c-3.6,0-6.7-1.3-9.2-3.8c-2.5-2.5-3.8-5.6-3.8-9.2s1.3-6.7,3.8-9.2c2.5-2.5,5.6-3.8,9.2-3.8
				c3.6,0,6.7,1.3,9.2,3.8c0.5,0.5,1.3,1.5,2.5,3.1l0.4,0.5l-5.5,2l-0.2-0.3c-0.6-0.7-1-1.2-1.2-1.3c-1.4-1.4-3.1-2.1-5.2-2.1
				c-2,0-3.7,0.7-5.2,2.1c-1.4,1.4-2.1,3.1-2.1,5.2c0,2,0.7,3.7,2.1,5.2c1.4,1.4,3.1,2.1,5.2,2.1c2,0,3.8-0.7,5.2-2.1
				c0.2-0.2,0.6-0.6,1.1-1.3l0.2-0.3l5.5,2l-0.4,0.5c-1.1,1.6-1.9,2.6-2.5,3.1C250.6,209.6,247.5,210.9,243.9,210.9z M243.9,185.8
				c-3.3,0-6.1,1.2-8.5,3.5c-2.3,2.3-3.5,5.2-3.5,8.5s1.2,6.2,3.5,8.5c2.3,2.3,5.2,3.5,8.5,3.5c3.3,0,6.2-1.2,8.5-3.5
				c0.4-0.4,1.1-1.2,2-2.5l-3.6-1.3c-0.5,0.6-0.8,0.9-1,1.1c-1.6,1.6-3.6,2.4-5.9,2.4c-2.3,0-4.3-0.8-5.9-2.4
				c-1.6-1.6-2.4-3.6-2.4-5.9c0-2.3,0.8-4.3,2.4-5.9c1.6-1.6,3.6-2.4,5.9-2.4c2.3,0,4.3,0.8,5.9,2.4c0.2,0.2,0.5,0.6,1,1.1l3.6-1.3
				c-0.9-1.2-1.6-2-2-2.4C250.1,187,247.2,185.8,243.9,185.8z"/>
		</g>
		<g>
			<path class="st3" d="M271.7,185.3c3.5,0,6.4,1.2,8.8,3.7c2.4,2.4,3.7,5.4,3.7,8.9s-1.2,6.4-3.7,8.9c-2.4,2.4-5.4,3.7-8.8,3.7
				c-3.4,0-6.4-1.2-8.8-3.7s-3.7-5.4-3.7-8.9s1.2-6.4,3.7-8.9S268.2,185.3,271.7,185.3z M266.1,192.3c-1.5,1.5-2.3,3.4-2.3,5.5
				c0,2.2,0.8,4,2.3,5.5s3.4,2.3,5.5,2.3s4-0.8,5.5-2.3c1.5-1.5,2.3-3.4,2.3-5.5c0-2.2-0.8-4-2.3-5.5c-1.5-1.5-3.4-2.3-5.5-2.3
				S267.6,190.8,266.1,192.3z"/>
			<path class="st3" d="M271.7,210.9c-3.6,0-6.7-1.3-9.2-3.8c-2.5-2.5-3.8-5.6-3.8-9.2s1.3-6.7,3.8-9.2c2.5-2.5,5.6-3.8,9.2-3.8
				c3.6,0,6.7,1.3,9.2,3.8c2.5,2.5,3.8,5.6,3.8,9.2s-1.3,6.7-3.8,9.2C278.3,209.6,275.2,210.9,271.7,210.9z M271.7,185.8
				c-3.3,0-6.1,1.2-8.5,3.5c-2.3,2.3-3.5,5.2-3.5,8.5s1.2,6.2,3.5,8.5c2.3,2.3,5.2,3.5,8.5,3.5c3.3,0,6.2-1.2,8.5-3.5
				c2.3-2.3,3.5-5.2,3.5-8.5s-1.2-6.2-3.5-8.5C277.8,187,275,185.8,271.7,185.8z M271.7,206.2c-2.3,0-4.3-0.8-5.9-2.4
				c-1.6-1.6-2.4-3.6-2.4-5.9c0-2.3,0.8-4.3,2.4-5.9c1.6-1.6,3.6-2.5,5.9-2.5c2.3,0,4.3,0.8,5.9,2.5c1.6,1.6,2.4,3.6,2.4,5.9
				c0,2.3-0.8,4.3-2.4,5.9C275.9,205.3,274,206.2,271.7,206.2z M271.7,190.5c-2,0-3.7,0.7-5.2,2.2c-1.4,1.5-2.2,3.1-2.2,5.2
				c0,2,0.7,3.7,2.1,5.2c1.4,1.4,3.1,2.1,5.2,2.1c2,0,3.7-0.7,5.2-2.1c1.4-1.4,2.1-3.1,2.1-5.2c0-2-0.7-3.7-2.2-5.2
				C275.4,191.2,273.7,190.5,271.7,190.5z"/>
		</g>
		<g>
			<path class="st3" d="M294,193.2v16.5h-4.6v-22.6h4.6v2.6c1-2.6,2.9-3.9,5.7-3.9c2.4,0,4.4,0.9,5.8,2.6c1.4,1.7,2.2,3.9,2.2,6.5
				v14.7h-4.5v-14.5c0-1.3-0.5-2.4-1.4-3.4c-1-0.9-2.1-1.4-3.4-1.4c-1.3,0-2.4,0.5-3.4,1.4C294.5,192.4,294.2,192.9,294,193.2z"/>
			<path class="st3" d="M308.3,210.3h-5.5v-15c0-1.2-0.4-2.2-1.3-3c-0.9-0.8-1.9-1.3-3.1-1.3c-1.2,0-2.2,0.4-3,1.2
				c-0.5,0.5-0.8,0.9-0.9,1.1v16.9h-5.6v-23.6h5.6v1.1c1.2-1.6,2.9-2.4,5.2-2.4c2.6,0,4.7,0.9,6.2,2.8c1.5,1.8,2.3,4.1,2.3,6.8
				L308.3,210.3z M303.8,209.3h3.5v-14.2c0-2.5-0.8-4.6-2.1-6.2c-1.4-1.6-3.1-2.4-5.4-2.4c-2.7,0-4.4,1.2-5.3,3.5l-1,2.6v-4.9h-3.6
				v21.6h3.6l0-16.2c0.2-0.4,0.6-0.9,1.1-1.5c1.1-1,2.3-1.5,3.7-1.5c1.4,0,2.7,0.5,3.8,1.5c1,1,1.6,2.3,1.6,3.7V209.3z"/>
		</g>
		<g>
			<path class="st3" d="M319,204.9c0.5,0.5,1.2,0.8,1.9,0.8s1.4-0.3,1.9-0.8c0.5-0.5,0.8-1.2,0.8-2c0-0.7-0.3-1.4-0.8-1.9
				c-0.4-0.4-1.1-0.9-2.4-1.7c-1.6-0.9-2.8-1.7-3.5-2.4c-1.2-1.2-1.8-2.6-1.8-4.3c0-1.7,0.6-3.2,1.8-4.4c1.2-1.2,2.7-1.8,4.4-1.8
				s3.1,0.6,4.2,1.7c0.8,0.8,1.3,1.7,1.5,2.7l-4.4,1.3c-0.1-0.4-0.2-0.6-0.3-0.7c-0.3-0.3-0.6-0.4-1.1-0.4s-0.8,0.2-1.1,0.5
				s-0.5,0.7-0.5,1.1s0.2,0.8,0.5,1.1c0.3,0.3,0.9,0.7,1.9,1.3c1.8,1,3.1,1.9,4,2.7c1.4,1.4,2.1,3.1,2.1,5.1c0,2-0.7,3.7-2.1,5.2
				c-1.4,1.4-3.1,2.1-5.2,2.1c-2,0-3.7-0.7-5.1-2.2c-1-1-1.6-2.2-1.9-3.7l4.5-1C318.5,204.2,318.8,204.6,319,204.9z"/>
			<path class="st3" d="M321,210.8c-2.1,0-4-0.8-5.5-2.3c-1-1-1.7-2.4-2.1-3.9l-0.1-0.5l5.5-1.2l0.1,0.5c0.1,0.7,0.3,1,0.5,1.2
				c0.4,0.4,1,0.6,1.6,0.6c0.6,0,1.1-0.2,1.6-0.6c0.4-0.4,0.7-1,0.7-1.6c0-0.6-0.2-1.1-0.6-1.6c-0.3-0.3-1.1-0.9-2.3-1.6
				c-1.7-0.9-2.9-1.7-3.6-2.4c-1.3-1.3-1.9-2.9-1.9-4.7c0-1.8,0.7-3.4,1.9-4.7c1.3-1.3,2.9-2,4.7-2c1.8,0,3.4,0.6,4.6,1.9
				c0.9,0.9,1.4,1.9,1.7,2.9l0.1,0.5l-5.4,1.5l-0.1-0.5c-0.1-0.4-0.2-0.5-0.2-0.5c-0.3-0.3-1-0.3-1.5,0.1c-0.2,0.2-0.3,0.5-0.3,0.8
				s0.1,0.6,0.3,0.8c0.2,0.2,0.6,0.5,1.8,1.3c1.8,1,3.2,1.9,4,2.8c1.5,1.5,2.3,3.4,2.3,5.5c0,2.1-0.8,4-2.3,5.5
				C325,210,323.1,210.8,321,210.8z M314.5,204.8c0.3,1.2,0.9,2.1,1.7,2.9c1.3,1.4,2.9,2,4.8,2c1.9,0,3.5-0.7,4.8-2
				c1.3-1.3,2-2.9,2-4.8c0-1.9-0.6-3.4-2-4.8c-0.8-0.8-2.1-1.7-3.8-2.6c-1-0.7-1.7-1.1-2-1.4c-0.4-0.4-0.6-0.9-0.6-1.5
				s0.2-1.1,0.6-1.5c0.8-0.8,2.2-0.8,2.9-0.1c0.1,0.1,0.2,0.3,0.3,0.5l3.5-1c-0.2-0.7-0.7-1.4-1.3-2c-1-1.1-2.3-1.6-3.9-1.6
				c-1.6,0-2.9,0.5-4,1.7c-1.1,1.1-1.7,2.4-1.7,4c0,1.6,0.5,2.9,1.7,4c0.7,0.7,1.8,1.4,3.4,2.3c1.3,0.8,2.1,1.4,2.5,1.8
				c0.6,0.6,0.9,1.4,0.9,2.3c0,0.9-0.3,1.7-1,2.3c-0.6,0.6-1.4,0.9-2.3,0.9c-0.9,0-1.6-0.3-2.3-0.9l0,0c-0.3-0.3-0.5-0.7-0.6-1.2
				L314.5,204.8z"/>
		</g>
		<g>
			<path class="st3" d="M351.7,202l4.5,1.6c-1.1,1.5-1.9,2.6-2.4,3.1c-2.4,2.4-5.4,3.7-8.9,3.7c-3.4,0-6.4-1.2-8.8-3.7
				s-3.7-5.4-3.7-8.9s1.2-6.4,3.7-8.9s5.4-3.7,8.8-3.7c3.5,0,6.4,1.2,8.9,3.7c0.5,0.5,1.3,1.5,2.4,3l-4.5,1.7
				c-0.6-0.7-1-1.2-1.2-1.4c-1.5-1.5-3.4-2.3-5.5-2.3c-2.2,0-4,0.8-5.5,2.3c-1.5,1.5-2.3,3.4-2.3,5.5c0,2.2,0.8,4,2.3,5.5
				c1.5,1.5,3.4,2.3,5.5,2.3c2.2,0,4-0.8,5.6-2.3C350.8,203.2,351.2,202.7,351.7,202z"/>
			<path class="st3" d="M345,210.9c-3.6,0-6.7-1.3-9.2-3.8c-2.5-2.5-3.8-5.6-3.8-9.2s1.3-6.7,3.8-9.2c2.5-2.5,5.6-3.8,9.2-3.8
				c3.6,0,6.7,1.3,9.2,3.8c0.5,0.5,1.3,1.5,2.5,3.1l0.4,0.5l-5.5,2l-0.2-0.3c-0.6-0.7-1-1.2-1.2-1.3c-1.4-1.4-3.1-2.1-5.2-2.1
				c-2,0-3.7,0.7-5.2,2.1c-1.4,1.4-2.1,3.1-2.1,5.2c0,2,0.7,3.7,2.1,5.2c1.4,1.4,3.1,2.1,5.2,2.1c2,0,3.8-0.7,5.2-2.1
				c0.2-0.2,0.6-0.6,1.1-1.3l0.2-0.3l5.5,2l-0.4,0.5c-1.1,1.6-1.9,2.6-2.5,3.1C351.7,209.6,348.6,210.9,345,210.9z M345,185.8
				c-3.3,0-6.1,1.2-8.5,3.5c-2.3,2.3-3.5,5.2-3.5,8.5s1.2,6.2,3.5,8.5c2.3,2.3,5.2,3.5,8.5,3.5c3.3,0,6.2-1.2,8.5-3.5
				c0.4-0.4,1.1-1.2,2-2.5l-3.6-1.3c-0.5,0.6-0.8,0.9-1,1.1c-1.6,1.6-3.6,2.4-5.9,2.4c-2.3,0-4.3-0.8-5.9-2.4
				c-1.6-1.6-2.4-3.6-2.4-5.9c0-2.3,0.8-4.3,2.4-5.9c1.6-1.6,3.6-2.4,5.9-2.4c2.3,0,4.3,0.8,5.9,2.4c0.2,0.2,0.5,0.6,1,1.1l3.6-1.3
				c-0.9-1.2-1.6-2-2-2.4C351.2,187,348.3,185.8,345,185.8z"/>
		</g>
		<g>
			<path class="st3" d="M366.5,178.8c0.6,0.6,0.9,1.4,0.9,2.3s-0.3,1.6-0.9,2.3s-1.4,0.9-2.3,0.9c-0.9,0-1.6-0.3-2.2-0.9
				s-0.9-1.4-0.9-2.3s0.3-1.6,0.9-2.3s1.4-0.9,2.2-0.9C365.1,177.9,365.8,178.2,366.5,178.8z M366.5,187.2v22.6h-4.5v-22.6H366.5z"
				/>
			<path class="st3" d="M367,210.3h-5.5v-23.6h5.5V210.3z M362.4,209.3h3.5v-21.6h-3.5V209.3z M364.2,184.7c-1,0-1.9-0.4-2.6-1.1
				c-0.7-0.7-1.1-1.6-1.1-2.6s0.4-1.9,1.1-2.6c0.7-0.7,1.6-1.1,2.6-1.1c1,0,1.9,0.4,2.6,1.1c0.7,0.7,1.1,1.6,1.1,2.6
				s-0.4,1.9-1.1,2.6C366.1,184.4,365.2,184.7,364.2,184.7z M364.2,178.4c-0.7,0-1.4,0.3-1.9,0.8c-0.5,0.5-0.8,1.1-0.8,1.9
				s0.3,1.4,0.8,1.9c0.5,0.5,1.2,0.8,1.9,0.8c0.8,0,1.4-0.3,1.9-0.8c0.5-0.5,0.8-1.1,0.8-1.9s-0.3-1.4-0.8-1.9
				C365.6,178.6,365,178.4,364.2,178.4z"/>
		</g>
		<g>
			<path class="st3" d="M380.5,204.6c0.8,0.7,2.1,1,4.2,1c2.2,0,4-0.8,5.6-2.3c0.2-0.2,0.6-0.7,1.2-1.4l4.5,1.6
				c-1.1,1.5-1.9,2.6-2.4,3.1c-2.4,2.4-5.4,3.7-8.9,3.7c-3.4,0-6.4-1.2-8.8-3.7s-3.7-5.4-3.7-8.9s1.2-6.4,3.7-8.9s5.4-3.7,8.8-3.7
				c3,0,5.6,0.9,7.8,2.7c0.4,0.3,0.7,0.6,1.1,1c0.1,0.1,0.6,0.6,1.3,1.4l-2.3,2.3L380.5,204.6z M388.1,190.6
				c-0.5-0.4-1.7-0.6-3.4-0.6c-2.2,0-4,0.8-5.5,2.3c-1.5,1.5-2.3,3.4-2.3,5.5c0,1.8,0.2,2.9,0.6,3.4L388.1,190.6z"/>
			<path class="st3" d="M384.6,210.9c-3.6,0-6.7-1.3-9.2-3.8c-2.5-2.5-3.8-5.6-3.8-9.2s1.3-6.7,3.8-9.2c2.5-2.5,5.6-3.8,9.2-3.8
				c3.1,0,5.8,0.9,8.1,2.8c0.4,0.3,0.8,0.7,1.1,1c0.1,0.1,0.6,0.6,1.3,1.4l0.3,0.4l-2.6,2.6l-11.6,11.6c0.7,0.4,1.9,0.6,3.4,0.6
				c2,0,3.8-0.7,5.2-2.1c0.2-0.2,0.6-0.6,1.1-1.3l0.2-0.3l5.5,2l-0.4,0.5c-1.1,1.6-1.9,2.6-2.5,3.1
				C391.3,209.6,388.2,210.9,384.6,210.9z M384.6,185.8c-3.3,0-6.1,1.2-8.5,3.5c-2.3,2.3-3.5,5.2-3.5,8.5s1.2,6.2,3.5,8.5
				c2.3,2.3,5.2,3.5,8.5,3.5c3.3,0,6.2-1.2,8.5-3.5c0.4-0.4,1.1-1.2,2-2.5l-3.6-1.3c-0.5,0.6-0.8,0.9-1,1.1
				c-1.6,1.6-3.6,2.4-5.9,2.4c-2.2,0-3.6-0.4-4.5-1.1l-0.4-0.4l14.3-14.3c-0.5-0.6-0.8-0.9-0.9-1c-0.3-0.3-0.7-0.7-1-1
				C390,186.7,387.5,185.8,384.6,185.8z M377.4,202l-0.3-0.5c-0.5-0.6-0.7-1.8-0.7-3.7c0-2.3,0.8-4.3,2.4-5.9
				c1.6-1.6,3.6-2.4,5.9-2.4c1.9,0,3.1,0.2,3.8,0.7l0.4,0.3L377.4,202z M384.6,190.5c-2,0-3.7,0.7-5.2,2.1c-1.4,1.4-2.1,3.1-2.1,5.2
				c0,1.3,0.1,2.1,0.2,2.6l9.7-9.7C386.8,190.6,386,190.5,384.6,190.5z"/>
		</g>
		<g>
			<path class="st3" d="M405.8,193.2v16.5h-4.6v-22.6h4.6v2.6c1-2.6,2.9-3.9,5.7-3.9c2.4,0,4.4,0.9,5.8,2.6c1.4,1.7,2.2,3.9,2.2,6.5
				v14.7H415v-14.5c0-1.3-0.5-2.4-1.4-3.4c-1-0.9-2.1-1.4-3.4-1.4c-1.3,0-2.4,0.5-3.4,1.4C406.3,192.4,405.9,192.9,405.8,193.2z"/>
			<path class="st3" d="M420.1,210.3h-5.5v-15c0-1.2-0.4-2.2-1.3-3c-0.9-0.8-1.9-1.3-3.1-1.3c-1.2,0-2.2,0.4-3,1.2
				c-0.5,0.5-0.8,0.9-0.9,1.1v16.9h-5.6v-23.6h5.6v1.1c1.2-1.6,2.9-2.4,5.2-2.4c2.6,0,4.7,0.9,6.2,2.8c1.5,1.8,2.3,4.1,2.3,6.8
				L420.1,210.3z M415.5,209.3h3.5v-14.2c0-2.5-0.8-4.6-2.1-6.2c-1.4-1.6-3.1-2.4-5.4-2.4c-2.7,0-4.4,1.2-5.3,3.5l-1,2.6v-4.9h-3.6
				v21.6h3.6l0-16.2c0.2-0.4,0.6-0.9,1.1-1.5c1.1-1,2.3-1.5,3.7-1.5c1.4,0,2.7,0.5,3.8,1.5c1,1,1.6,2.3,1.6,3.7V209.3z"/>
		</g>
		<g>
			<path class="st3" d="M429,187.2v-8.5h4.5v8.5h4.1v4.5h-4.1v18.1H429v-18.1h-4.1v-4.5H429z"/>
			<path class="st3" d="M434,210.3h-5.5v-18.1h-4.1v-5.5h4.1v-8.5h5.5v8.5h4.1v5.5H434V210.3z M429.5,209.3h3.5v-18.1h4.1v-3.5H433
				v-8.5h-3.5v8.5h-4.1v3.5h4.1V209.3z"/>
		</g>
		<g>
			<path class="st3" d="M449.9,204.6c0.8,0.7,2.1,1,4.2,1c2.2,0,4-0.8,5.6-2.3c0.2-0.2,0.6-0.7,1.2-1.4l4.5,1.6
				c-1.1,1.5-1.9,2.6-2.4,3.1c-2.4,2.4-5.4,3.7-8.9,3.7c-3.4,0-6.4-1.2-8.8-3.7s-3.7-5.4-3.7-8.9s1.2-6.4,3.7-8.9s5.4-3.7,8.8-3.7
				c3,0,5.6,0.9,7.8,2.7c0.4,0.3,0.7,0.6,1.1,1c0.1,0.1,0.6,0.6,1.3,1.4l-2.3,2.3L449.9,204.6z M457.5,190.6
				c-0.5-0.4-1.7-0.6-3.4-0.6c-2.2,0-4,0.8-5.5,2.3c-1.5,1.5-2.3,3.4-2.3,5.5c0,1.8,0.2,2.9,0.6,3.4L457.5,190.6z"/>
			<path class="st3" d="M454.1,210.9c-3.6,0-6.7-1.3-9.2-3.8c-2.5-2.5-3.8-5.6-3.8-9.2s1.3-6.7,3.8-9.2c2.5-2.5,5.6-3.8,9.2-3.8
				c3.1,0,5.8,0.9,8.1,2.8c0.4,0.3,0.8,0.7,1.1,1c0.1,0.1,0.6,0.6,1.3,1.4l0.3,0.4l-2.6,2.6l-11.6,11.6c0.7,0.4,1.9,0.6,3.4,0.6
				c2,0,3.8-0.7,5.2-2.1c0.2-0.2,0.6-0.6,1.1-1.3l0.2-0.3l5.5,2l-0.4,0.5c-1.1,1.6-1.9,2.6-2.5,3.1
				C460.7,209.6,457.6,210.9,454.1,210.9z M454.1,185.8c-3.3,0-6.1,1.2-8.5,3.5c-2.3,2.3-3.5,5.2-3.5,8.5s1.2,6.2,3.5,8.5
				c2.3,2.3,5.2,3.5,8.5,3.5c3.3,0,6.2-1.2,8.5-3.5c0.4-0.4,1.1-1.2,2-2.5l-3.6-1.3c-0.5,0.6-0.8,0.9-1,1.1
				c-1.6,1.6-3.6,2.4-5.9,2.4c-2.2,0-3.6-0.4-4.5-1.1l-0.4-0.4l14.3-14.3c-0.5-0.6-0.8-0.9-0.9-1c-0.3-0.3-0.7-0.7-1-1
				C459.4,186.7,456.9,185.8,454.1,185.8z M446.8,202l-0.3-0.5c-0.5-0.6-0.7-1.8-0.7-3.7c0-2.3,0.8-4.3,2.4-5.9
				c1.6-1.6,3.6-2.4,5.9-2.4c1.9,0,3.1,0.2,3.8,0.7l0.4,0.3L446.8,202z M454.1,190.5c-2,0-3.7,0.7-5.2,2.1c-1.4,1.4-2.1,3.1-2.1,5.2
				c0,1.3,0.1,2.1,0.2,2.6l9.7-9.7C456.2,190.6,455.4,190.5,454.1,190.5z"/>
		</g>
		<g>
			<path class="st3" d="M475.3,203.7l-5.1,10.5h-4.3l2.8-10.5H475.3z"/>
			<path class="st3" d="M470.6,214.7h-5.3l3.1-11.5h7.8L470.6,214.7z M466.6,213.7h3.4l4.6-9.5h-5.4L466.6,213.7z"/>
		</g>
		<g>
			<path class="st3" d="M501.8,204.6c0.8,0.7,2.1,1,4.2,1c2.2,0,4-0.8,5.6-2.3c0.2-0.2,0.6-0.7,1.2-1.4l4.5,1.6
				c-1.1,1.5-1.9,2.6-2.4,3.1c-2.4,2.4-5.4,3.7-8.9,3.7c-3.4,0-6.4-1.2-8.8-3.7s-3.7-5.4-3.7-8.9s1.2-6.4,3.7-8.9s5.4-3.7,8.8-3.7
				c3,0,5.6,0.9,7.8,2.7c0.4,0.3,0.7,0.6,1.1,1c0.1,0.1,0.6,0.6,1.3,1.4l-2.3,2.3L501.8,204.6z M509.4,190.6
				c-0.5-0.4-1.7-0.6-3.4-0.6c-2.2,0-4,0.8-5.5,2.3c-1.5,1.5-2.3,3.4-2.3,5.5c0,1.8,0.2,2.9,0.6,3.4L509.4,190.6z"/>
			<path class="st3" d="M506,210.9c-3.6,0-6.7-1.3-9.2-3.8c-2.5-2.5-3.8-5.6-3.8-9.2s1.3-6.7,3.8-9.2c2.5-2.5,5.6-3.8,9.2-3.8
				c3.1,0,5.8,0.9,8.1,2.8c0.4,0.3,0.8,0.7,1.1,1c0.1,0.1,0.6,0.6,1.3,1.4l0.3,0.4l-2.6,2.6l-11.6,11.6c0.7,0.4,1.9,0.6,3.4,0.6
				c2,0,3.8-0.7,5.2-2.1c0.2-0.2,0.6-0.6,1.1-1.3l0.2-0.3l5.5,2l-0.4,0.5c-1.1,1.6-1.9,2.6-2.5,3.1
				C512.7,209.6,509.6,210.9,506,210.9z M506,185.8c-3.3,0-6.1,1.2-8.5,3.5c-2.3,2.3-3.5,5.2-3.5,8.5s1.2,6.2,3.5,8.5
				c2.3,2.3,5.2,3.5,8.5,3.5c3.3,0,6.2-1.2,8.5-3.5c0.4-0.4,1.1-1.2,2-2.5l-3.6-1.3c-0.5,0.6-0.8,0.9-1,1.1
				c-1.6,1.6-3.6,2.4-5.9,2.4c-2.2,0-3.6-0.4-4.5-1.1l-0.4-0.4l14.3-14.3c-0.5-0.6-0.8-0.9-0.9-1c-0.3-0.3-0.7-0.7-1-1
				C511.3,186.7,508.8,185.8,506,185.8z M498.7,202l-0.3-0.5c-0.5-0.6-0.7-1.8-0.7-3.7c0-2.3,0.8-4.3,2.4-5.9
				c1.6-1.6,3.6-2.4,5.9-2.4c1.9,0,3.1,0.2,3.8,0.7l0.4,0.3L498.7,202z M506,190.5c-2,0-3.7,0.7-5.2,2.1c-1.4,1.4-2.1,3.1-2.1,5.2
				c0,1.3,0.1,2.1,0.2,2.6l9.7-9.7C508.1,190.6,507.3,190.5,506,190.5z"/>
		</g>
		<g>
			<path class="st3" d="M527.1,174.6v35.2h-4.6v-35.2H527.1z"/>
			<path class="st3" d="M527.6,210.3H522v-36.2h5.6V210.3z M523,209.3h3.6v-34.2H523V209.3z"/>
		</g>
		<g>
			<path class="st3" d="M553.8,204.9c0.5,0.5,1.2,0.8,1.9,0.8s1.4-0.3,1.9-0.8c0.5-0.5,0.8-1.2,0.8-2c0-0.7-0.3-1.4-0.8-1.9
				c-0.4-0.4-1.1-0.9-2.4-1.7c-1.6-0.9-2.8-1.7-3.5-2.4c-1.2-1.2-1.8-2.6-1.8-4.3c0-1.7,0.6-3.2,1.8-4.4c1.2-1.2,2.7-1.8,4.4-1.8
				s3.1,0.6,4.2,1.7c0.8,0.8,1.3,1.7,1.5,2.7l-4.4,1.3c-0.1-0.4-0.2-0.6-0.3-0.7c-0.3-0.3-0.6-0.4-1.1-0.4s-0.8,0.2-1.1,0.5
				s-0.5,0.7-0.5,1.1s0.2,0.8,0.5,1.1c0.3,0.3,0.9,0.7,1.9,1.3c1.8,1,3.1,1.9,4,2.7c1.4,1.4,2.1,3.1,2.1,5.1c0,2-0.7,3.7-2.1,5.2
				c-1.4,1.4-3.1,2.1-5.2,2.1c-2,0-3.7-0.7-5.1-2.2c-1-1-1.6-2.2-1.9-3.7l4.5-1C553.3,204.2,553.6,204.6,553.8,204.9z"/>
			<path class="st3" d="M555.8,210.8c-2.1,0-4-0.8-5.5-2.3c-1-1-1.7-2.4-2.1-3.9l-0.1-0.5l5.5-1.2l0.1,0.5c0.1,0.7,0.3,1,0.5,1.2
				c0.4,0.4,1,0.6,1.6,0.6c0.6,0,1.1-0.2,1.6-0.6c0.4-0.4,0.7-1,0.7-1.6c0-0.6-0.2-1.1-0.6-1.6c-0.3-0.3-1.1-0.9-2.3-1.6
				c-1.7-0.9-2.9-1.7-3.6-2.4c-1.3-1.3-1.9-2.9-1.9-4.7c0-1.8,0.7-3.4,1.9-4.7c1.3-1.3,2.9-2,4.7-2c1.8,0,3.4,0.6,4.6,1.9
				c0.9,0.9,1.4,1.9,1.7,2.9l0.1,0.5l-5.4,1.5l-0.1-0.5c-0.1-0.4-0.2-0.5-0.2-0.5c-0.3-0.3-1-0.3-1.5,0.1c-0.2,0.2-0.3,0.5-0.3,0.8
				s0.1,0.6,0.3,0.8c0.2,0.2,0.6,0.5,1.8,1.3c1.8,1,3.2,1.9,4,2.8c1.5,1.5,2.3,3.4,2.3,5.5c0,2.1-0.8,4-2.3,5.5
				C559.8,210,557.9,210.8,555.8,210.8z M549.3,204.8c0.3,1.2,0.9,2.1,1.7,2.9c1.3,1.4,2.9,2,4.8,2c1.9,0,3.5-0.7,4.8-2
				c1.3-1.3,2-2.9,2-4.8c0-1.9-0.6-3.4-2-4.8c-0.8-0.8-2.1-1.7-3.8-2.6c-1-0.7-1.7-1.1-2-1.4c-0.4-0.4-0.6-0.9-0.6-1.5
				s0.2-1.1,0.6-1.5c0.8-0.8,2.2-0.8,2.9-0.1c0.1,0.1,0.2,0.3,0.3,0.5l3.5-1c-0.2-0.7-0.7-1.4-1.3-2c-1-1.1-2.3-1.6-3.9-1.6
				c-1.6,0-2.9,0.5-4,1.7c-1.1,1.1-1.7,2.4-1.7,4c0,1.6,0.5,2.9,1.7,4c0.7,0.7,1.8,1.4,3.4,2.3c1.3,0.8,2.1,1.4,2.5,1.8
				c0.6,0.6,0.9,1.4,0.9,2.3c0,0.9-0.3,1.7-1,2.3c-0.6,0.6-1.4,0.9-2.3,0.9c-0.9,0-1.6-0.3-2.3-0.9l0,0c-0.3-0.3-0.5-0.7-0.6-1.2
				L549.3,204.8z"/>
		</g>
		<g>
			<path class="st3" d="M578.2,210.1c-2.9,0-5.2-0.9-6.9-2.6s-2.6-3.9-2.7-6.5v-13.8h4.6v13.6c0,1.3,0.5,2.4,1.4,3.4
				s2.1,1.4,3.6,1.4c1.3,0,2.4-0.5,3.4-1.4c1-0.9,1.4-2.1,1.4-3.4v-13.6h4.5v13.8c0,2.6-0.9,4.8-2.7,6.5
				C583.2,209.2,580.9,210.1,578.2,210.1z"/>
			<path class="st3" d="M578.2,210.6c-3,0-5.4-0.9-7.3-2.8c-1.8-1.8-2.8-4.1-2.8-6.9l0-14.3h5.6v14.1c0,1.2,0.4,2.2,1.3,3
				c0.9,0.8,1.9,1.3,3.2,1.3c1.2,0,2.2-0.4,3-1.3c0.9-0.8,1.3-1.8,1.3-3v-14.1h5.5v14.3c0,2.8-1,5.1-2.8,6.9
				C583.4,209.6,581.1,210.6,578.2,210.6z M569.1,187.7v13.3c0,2.5,0.9,4.6,2.5,6.2c1.6,1.6,3.8,2.5,6.5,2.5c2.6,0,4.7-0.8,6.3-2.5
				c1.6-1.6,2.5-3.7,2.5-6.2l0-13.2h-3.5v13.1c0,1.5-0.5,2.7-1.6,3.7c-1.1,1-2.3,1.5-3.7,1.5c-1.6,0-2.9-0.5-3.9-1.5
				c-1-1-1.6-2.3-1.6-3.7v-13.1H569.1z"/>
		</g>
		<g>
			<path class="st3" d="M598.7,207v2.8h-4.5v-35.2h4.5v14.1c2.2-2.3,4.8-3.4,7.7-3.4c3.5,0,6.4,1.2,8.8,3.7c2.4,2.4,3.7,5.4,3.7,8.9
				s-1.2,6.4-3.7,8.9c-2.4,2.4-5.4,3.7-8.8,3.7C603.5,210.4,600.9,209.2,598.7,207z M598.7,196.1v3.5c0.3,1.4,1,2.6,2.1,3.8
				c1.5,1.5,3.4,2.3,5.6,2.3s4-0.8,5.5-2.3s2.3-3.4,2.3-5.5c0-2.2-0.8-4-2.3-5.5s-3.4-2.3-5.5-2.3s-4,0.8-5.6,2.3
				C599.7,193.4,599,194.7,598.7,196.1z"/>
			<path class="st3" d="M606.4,210.9c-2.7,0-5.1-0.9-7.2-2.7v2.1h-5.5v-36.2h5.5v13.4c2.1-1.8,4.5-2.7,7.2-2.7
				c3.6,0,6.7,1.3,9.2,3.8c2.5,2.5,3.8,5.6,3.8,9.2s-1.3,6.7-3.8,9.2C613.1,209.6,610,210.9,606.4,210.9z M598.2,205.7l0.9,0.9
				c2.1,2.2,4.5,3.3,7.3,3.3c3.3,0,6.2-1.2,8.5-3.5c2.3-2.3,3.5-5.2,3.5-8.5s-1.2-6.2-3.5-8.5c-2.3-2.3-5.2-3.5-8.5-3.5
				c-2.8,0-5.2,1.1-7.3,3.3l-0.9,0.9v-14.8h-3.5v34.2h3.5V205.7z M606.4,206.2c-2.3,0-4.3-0.8-5.9-2.4c-1.2-1.2-2-2.5-2.2-4l0-3.7
				l0,0c0.3-1.5,1.1-2.8,2.2-4c1.6-1.6,3.6-2.5,5.9-2.5c2.3,0,4.3,0.8,5.9,2.5c1.6,1.6,2.4,3.6,2.4,5.9c0,2.3-0.8,4.3-2.4,5.9
				C610.7,205.3,608.7,206.2,606.4,206.2z M599.2,196.1v3.5c0.2,1.2,0.9,2.4,2,3.4c1.5,1.4,3.2,2.1,5.2,2.1c2,0,3.7-0.7,5.2-2.1
				c1.4-1.4,2.1-3.1,2.1-5.2c0-2-0.7-3.7-2.2-5.2c-1.4-1.5-3.1-2.2-5.2-2.2c-2,0-3.8,0.7-5.2,2.2
				C600.1,193.7,599.5,194.9,599.2,196.1z"/>
		</g>
		<g>
			<path class="st3" d="M642.8,202l4.5,1.6c-1.1,1.5-1.9,2.6-2.4,3.1c-2.4,2.4-5.4,3.7-8.9,3.7c-3.4,0-6.4-1.2-8.8-3.7
				s-3.7-5.4-3.7-8.9s1.2-6.4,3.7-8.9s5.4-3.7,8.8-3.7c3.5,0,6.4,1.2,8.9,3.7c0.5,0.5,1.3,1.5,2.4,3l-4.5,1.7
				c-0.6-0.7-1-1.2-1.2-1.4c-1.5-1.5-3.4-2.3-5.5-2.3c-2.2,0-4,0.8-5.5,2.3c-1.5,1.5-2.3,3.4-2.3,5.5c0,2.2,0.8,4,2.3,5.5
				c1.5,1.5,3.4,2.3,5.5,2.3c2.2,0,4-0.8,5.6-2.3C641.9,203.2,642.3,202.7,642.8,202z"/>
			<path class="st3" d="M636.1,210.9c-3.6,0-6.7-1.3-9.2-3.8c-2.5-2.5-3.8-5.6-3.8-9.2s1.3-6.7,3.8-9.2c2.5-2.5,5.6-3.8,9.2-3.8
				c3.6,0,6.7,1.3,9.2,3.8c0.5,0.5,1.3,1.5,2.5,3.1l0.4,0.5l-5.5,2l-0.2-0.3c-0.6-0.7-1-1.2-1.2-1.3c-1.4-1.4-3.1-2.1-5.2-2.1
				c-2,0-3.7,0.7-5.2,2.1c-1.4,1.4-2.1,3.1-2.1,5.2c0,2,0.7,3.7,2.1,5.2c1.4,1.4,3.1,2.1,5.2,2.1c2,0,3.8-0.7,5.2-2.1
				c0.2-0.2,0.6-0.6,1.1-1.3l0.2-0.3l5.5,2l-0.4,0.5c-1.1,1.6-1.9,2.6-2.5,3.1C642.8,209.6,639.7,210.9,636.1,210.9z M636.1,185.8
				c-3.3,0-6.1,1.2-8.5,3.5c-2.3,2.3-3.5,5.2-3.5,8.5s1.2,6.2,3.5,8.5c2.3,2.3,5.2,3.5,8.5,3.5c3.3,0,6.2-1.2,8.5-3.5
				c0.4-0.4,1.1-1.2,2-2.5l-3.6-1.3c-0.5,0.6-0.8,0.9-1,1.1c-1.6,1.6-3.6,2.4-5.9,2.4c-2.3,0-4.3-0.8-5.9-2.4
				c-1.6-1.6-2.4-3.6-2.4-5.9c0-2.3,0.8-4.3,2.4-5.9c1.6-1.6,3.6-2.4,5.9-2.4c2.3,0,4.3,0.8,5.9,2.4c0.2,0.2,0.5,0.6,1,1.1l3.6-1.3
				c-0.9-1.2-1.6-2-2-2.4C642.3,187,639.4,185.8,636.1,185.8z"/>
		</g>
		<g>
			<path class="st3" d="M663.8,185.3c3.5,0,6.4,1.2,8.8,3.7c2.4,2.4,3.7,5.4,3.7,8.9s-1.2,6.4-3.7,8.9c-2.4,2.4-5.4,3.7-8.8,3.7
				c-3.4,0-6.4-1.2-8.8-3.7s-3.7-5.4-3.7-8.9s1.2-6.4,3.7-8.9S660.4,185.3,663.8,185.3z M658.3,192.3c-1.5,1.5-2.3,3.4-2.3,5.5
				c0,2.2,0.8,4,2.3,5.5s3.4,2.3,5.5,2.3s4-0.8,5.5-2.3c1.5-1.5,2.3-3.4,2.3-5.5c0-2.2-0.8-4-2.3-5.5c-1.5-1.5-3.4-2.3-5.5-2.3
				S659.8,190.8,658.3,192.3z"/>
			<path class="st3" d="M663.8,210.9c-3.6,0-6.7-1.3-9.2-3.8c-2.5-2.5-3.8-5.6-3.8-9.2s1.3-6.7,3.8-9.2c2.5-2.5,5.6-3.8,9.2-3.8
				c3.6,0,6.7,1.3,9.2,3.8c2.5,2.5,3.8,5.6,3.8,9.2s-1.3,6.7-3.8,9.2C670.5,209.6,667.4,210.9,663.8,210.9z M663.8,185.8
				c-3.3,0-6.1,1.2-8.5,3.5c-2.3,2.3-3.5,5.2-3.5,8.5s1.2,6.2,3.5,8.5c2.3,2.3,5.2,3.5,8.5,3.5c3.3,0,6.2-1.2,8.5-3.5
				c2.3-2.3,3.5-5.2,3.5-8.5s-1.2-6.2-3.5-8.5C670,187,667.2,185.8,663.8,185.8z M663.8,206.2c-2.3,0-4.3-0.8-5.9-2.4
				c-1.6-1.6-2.4-3.6-2.4-5.9c0-2.3,0.8-4.3,2.4-5.9c1.6-1.6,3.6-2.5,5.9-2.5c2.3,0,4.3,0.8,5.9,2.5c1.6,1.6,2.4,3.6,2.4,5.9
				c0,2.3-0.8,4.3-2.4,5.9C668.1,205.3,666.1,206.2,663.8,206.2z M663.8,190.5c-2,0-3.7,0.7-5.2,2.2c-1.4,1.5-2.2,3.1-2.2,5.2
				c0,2,0.7,3.7,2.1,5.2c1.4,1.4,3.1,2.1,5.2,2.1c2,0,3.7-0.7,5.2-2.1c1.4-1.4,2.1-3.1,2.1-5.2c0-2-0.7-3.7-2.2-5.2
				C667.6,191.2,665.9,190.5,663.8,190.5z"/>
		</g>
		<g>
			<path class="st3" d="M686.2,193.2v16.5h-4.6v-22.6h4.6v2.6c1-2.6,2.9-3.9,5.7-3.9c2.4,0,4.4,0.9,5.8,2.6c1.4,1.7,2.2,3.9,2.2,6.5
				v14.7h-4.5v-14.5c0-1.3-0.5-2.4-1.4-3.4c-1-0.9-2.1-1.4-3.4-1.4c-1.3,0-2.4,0.5-3.4,1.4C686.7,192.4,686.4,192.9,686.2,193.2z"/>
			<path class="st3" d="M700.5,210.3h-5.5v-15c0-1.2-0.4-2.2-1.3-3c-0.9-0.8-1.9-1.3-3.1-1.3c-1.2,0-2.2,0.4-3,1.2
				c-0.5,0.5-0.8,0.9-0.9,1.1v16.9h-5.6v-23.6h5.6v1.1c1.2-1.6,2.9-2.4,5.2-2.4c2.6,0,4.7,0.9,6.2,2.8c1.5,1.8,2.3,4.1,2.3,6.8
				L700.5,210.3z M695.9,209.3h3.5v-14.2c0-2.5-0.8-4.6-2.1-6.2c-1.4-1.6-3.1-2.4-5.4-2.4c-2.7,0-4.4,1.2-5.3,3.5l-1,2.6v-4.9h-3.6
				v21.6h3.6l0-16.2c0.2-0.4,0.6-0.9,1.1-1.5c1.1-1,2.3-1.5,3.7-1.5c1.4,0,2.7,0.5,3.8,1.5c1,1,1.6,2.3,1.6,3.7V209.3z"/>
		</g>
		<g>
			<path class="st3" d="M711.2,204.9c0.5,0.5,1.2,0.8,1.9,0.8s1.4-0.3,1.9-0.8c0.5-0.5,0.8-1.2,0.8-2c0-0.7-0.3-1.4-0.8-1.9
				c-0.4-0.4-1.1-0.9-2.4-1.7c-1.6-0.9-2.8-1.7-3.5-2.4c-1.2-1.2-1.8-2.6-1.8-4.3c0-1.7,0.6-3.2,1.8-4.4c1.2-1.2,2.7-1.8,4.4-1.8
				s3.1,0.6,4.2,1.7c0.8,0.8,1.3,1.7,1.5,2.7l-4.4,1.3c-0.1-0.4-0.2-0.6-0.3-0.7c-0.3-0.3-0.6-0.4-1.1-0.4s-0.8,0.2-1.1,0.5
				s-0.5,0.7-0.5,1.1s0.2,0.8,0.5,1.1c0.3,0.3,0.9,0.7,1.9,1.3c1.8,1,3.1,1.9,4,2.7c1.4,1.4,2.1,3.1,2.1,5.1c0,2-0.7,3.7-2.1,5.2
				c-1.4,1.4-3.1,2.1-5.2,2.1c-2,0-3.7-0.7-5.1-2.2c-1-1-1.6-2.2-1.9-3.7l4.5-1C710.7,204.2,710.9,204.6,711.2,204.9z"/>
			<path class="st3" d="M713.2,210.8c-2.1,0-4-0.8-5.5-2.3c-1-1-1.7-2.4-2.1-3.9l-0.1-0.5l5.5-1.2l0.1,0.5c0.1,0.7,0.3,1,0.5,1.2
				c0.4,0.4,1,0.6,1.6,0.6c0.6,0,1.1-0.2,1.6-0.6c0.4-0.4,0.7-1,0.7-1.6c0-0.6-0.2-1.1-0.6-1.6c-0.3-0.3-1.1-0.9-2.3-1.6
				c-1.7-0.9-2.9-1.7-3.6-2.4c-1.3-1.3-1.9-2.9-1.9-4.7c0-1.8,0.7-3.4,1.9-4.7c1.3-1.3,2.9-2,4.7-2c1.8,0,3.4,0.6,4.6,1.9
				c0.9,0.9,1.4,1.9,1.7,2.9l0.1,0.5l-5.4,1.5l-0.1-0.5c-0.1-0.4-0.2-0.5-0.2-0.5c-0.3-0.3-1-0.3-1.5,0.1c-0.2,0.2-0.3,0.5-0.3,0.8
				s0.1,0.6,0.3,0.8c0.2,0.2,0.6,0.5,1.8,1.3c1.8,1,3.2,1.9,4,2.8c1.5,1.5,2.3,3.4,2.3,5.5c0,2.1-0.8,4-2.3,5.5
				C717.2,210,715.3,210.8,713.2,210.8z M706.7,204.8c0.3,1.2,0.9,2.1,1.7,2.9c1.3,1.4,2.9,2,4.8,2c1.9,0,3.5-0.7,4.8-2
				c1.3-1.3,2-2.9,2-4.8c0-1.9-0.6-3.4-2-4.8c-0.8-0.8-2.1-1.7-3.8-2.6c-1-0.7-1.7-1.1-2-1.4c-0.4-0.4-0.6-0.9-0.6-1.5
				s0.2-1.1,0.6-1.5c0.8-0.8,2.2-0.8,2.9-0.1c0.1,0.1,0.2,0.3,0.3,0.5l3.5-1c-0.2-0.7-0.7-1.4-1.3-2c-1-1.1-2.3-1.6-3.9-1.6
				c-1.6,0-2.9,0.5-4,1.7c-1.1,1.1-1.7,2.4-1.7,4c0,1.6,0.5,2.9,1.7,4c0.7,0.7,1.8,1.4,3.4,2.3c1.3,0.8,2.1,1.4,2.5,1.8
				c0.6,0.6,0.9,1.4,0.9,2.3c0,0.9-0.3,1.7-1,2.3c-0.6,0.6-1.4,0.9-2.3,0.9c-0.9,0-1.6-0.3-2.3-0.9l0,0c-0.3-0.3-0.5-0.7-0.6-1.2
				L706.7,204.8z"/>
		</g>
		<g>
			<path class="st3" d="M743.9,202l4.5,1.6c-1.1,1.5-1.9,2.6-2.4,3.1c-2.4,2.4-5.4,3.7-8.9,3.7c-3.4,0-6.4-1.2-8.8-3.7
				s-3.7-5.4-3.7-8.9s1.2-6.4,3.7-8.9s5.4-3.7,8.8-3.7c3.5,0,6.4,1.2,8.9,3.7c0.5,0.5,1.3,1.5,2.4,3l-4.5,1.7
				c-0.6-0.7-1-1.2-1.2-1.4c-1.5-1.5-3.4-2.3-5.5-2.3c-2.2,0-4,0.8-5.5,2.3c-1.5,1.5-2.3,3.4-2.3,5.5c0,2.2,0.8,4,2.3,5.5
				c1.5,1.5,3.4,2.3,5.5,2.3c2.2,0,4-0.8,5.6-2.3C743,203.2,743.4,202.7,743.9,202z"/>
			<path class="st3" d="M737.2,210.9c-3.6,0-6.7-1.3-9.2-3.8c-2.5-2.5-3.8-5.6-3.8-9.2s1.3-6.7,3.8-9.2c2.5-2.5,5.6-3.8,9.2-3.8
				c3.6,0,6.7,1.3,9.2,3.8c0.5,0.5,1.3,1.5,2.5,3.1l0.4,0.5l-5.5,2l-0.2-0.3c-0.6-0.7-1-1.2-1.2-1.3c-1.4-1.4-3.1-2.1-5.2-2.1
				c-2,0-3.7,0.7-5.2,2.1c-1.4,1.4-2.1,3.1-2.1,5.2c0,2,0.7,3.7,2.1,5.2c1.4,1.4,3.1,2.1,5.2,2.1c2,0,3.8-0.7,5.2-2.1
				c0.2-0.2,0.6-0.6,1.1-1.3l0.2-0.3l5.5,2l-0.4,0.5c-1.1,1.6-1.9,2.6-2.5,3.1C743.9,209.6,740.8,210.9,737.2,210.9z M737.2,185.8
				c-3.3,0-6.1,1.2-8.5,3.5c-2.3,2.3-3.5,5.2-3.5,8.5s1.2,6.2,3.5,8.5c2.3,2.3,5.2,3.5,8.5,3.5c3.3,0,6.2-1.2,8.5-3.5
				c0.4-0.4,1.1-1.2,2-2.5l-3.6-1.3c-0.5,0.6-0.8,0.9-1,1.1c-1.6,1.6-3.6,2.4-5.9,2.4c-2.3,0-4.3-0.8-5.9-2.4
				c-1.6-1.6-2.4-3.6-2.4-5.9c0-2.3,0.8-4.3,2.4-5.9c1.6-1.6,3.6-2.4,5.9-2.4c2.3,0,4.3,0.8,5.9,2.4c0.2,0.2,0.5,0.6,1,1.1l3.6-1.3
				c-0.9-1.2-1.6-2-2-2.4C743.4,187,740.5,185.8,737.2,185.8z"/>
		</g>
		<g>
			<path class="st3" d="M758.7,178.8c0.6,0.6,0.9,1.4,0.9,2.3s-0.3,1.6-0.9,2.3s-1.4,0.9-2.3,0.9c-0.9,0-1.6-0.3-2.2-0.9
				s-0.9-1.4-0.9-2.3s0.3-1.6,0.9-2.3s1.4-0.9,2.2-0.9C757.3,177.9,758,178.2,758.7,178.8z M758.7,187.2v22.6h-4.5v-22.6H758.7z"/>
			<path class="st3" d="M759.2,210.3h-5.5v-23.6h5.5V210.3z M754.6,209.3h3.5v-21.6h-3.5V209.3z M756.4,184.7c-1,0-1.9-0.4-2.6-1.1
				c-0.7-0.7-1.1-1.6-1.1-2.6s0.4-1.9,1.1-2.6c0.7-0.7,1.6-1.1,2.6-1.1c1,0,1.9,0.4,2.6,1.1c0.7,0.7,1.1,1.6,1.1,2.6
				s-0.4,1.9-1.1,2.6C758.3,184.4,757.4,184.7,756.4,184.7z M756.4,178.4c-0.7,0-1.4,0.3-1.9,0.8c-0.5,0.5-0.8,1.1-0.8,1.9
				s0.3,1.4,0.8,1.9c0.5,0.5,1.2,0.8,1.9,0.8c0.8,0,1.4-0.3,1.9-0.8c0.5-0.5,0.8-1.1,0.8-1.9s-0.3-1.4-0.8-1.9
				C757.8,178.6,757.1,178.4,756.4,178.4z"/>
		</g>
		<g>
			<path class="st3" d="M772.7,204.6c0.8,0.7,2.1,1,4.2,1c2.2,0,4-0.8,5.6-2.3c0.2-0.2,0.6-0.7,1.2-1.4l4.5,1.6
				c-1.1,1.5-1.9,2.6-2.4,3.1c-2.4,2.4-5.4,3.7-8.9,3.7c-3.4,0-6.4-1.2-8.8-3.7s-3.7-5.4-3.7-8.9s1.2-6.4,3.7-8.9s5.4-3.7,8.8-3.7
				c3,0,5.6,0.9,7.8,2.7c0.4,0.3,0.7,0.6,1.1,1c0.1,0.1,0.6,0.6,1.3,1.4l-2.3,2.3L772.7,204.6z M780.3,190.6
				c-0.5-0.4-1.7-0.6-3.4-0.6c-2.2,0-4,0.8-5.5,2.3c-1.5,1.5-2.3,3.4-2.3,5.5c0,1.8,0.2,2.9,0.6,3.4L780.3,190.6z"/>
			<path class="st3" d="M776.8,210.9c-3.6,0-6.7-1.3-9.2-3.8c-2.5-2.5-3.8-5.6-3.8-9.2s1.3-6.7,3.8-9.2c2.5-2.5,5.6-3.8,9.2-3.8
				c3.1,0,5.8,0.9,8.1,2.8c0.4,0.3,0.8,0.7,1.1,1c0.1,0.1,0.6,0.6,1.3,1.4l0.3,0.4L785,193l-11.6,11.6c0.7,0.4,1.9,0.6,3.4,0.6
				c2,0,3.8-0.7,5.2-2.1c0.2-0.2,0.6-0.6,1.1-1.3l0.2-0.3l5.5,2l-0.4,0.5c-1.1,1.6-1.9,2.6-2.5,3.1
				C783.5,209.6,780.4,210.9,776.8,210.9z M776.8,185.8c-3.3,0-6.1,1.2-8.5,3.5c-2.3,2.3-3.5,5.2-3.5,8.5s1.2,6.2,3.5,8.5
				c2.3,2.3,5.2,3.5,8.5,3.5c3.3,0,6.2-1.2,8.5-3.5c0.4-0.4,1.1-1.2,2-2.5l-3.6-1.3c-0.5,0.6-0.8,0.9-1,1.1
				c-1.6,1.6-3.6,2.4-5.9,2.4c-2.2,0-3.6-0.4-4.5-1.1l-0.4-0.4l14.3-14.3c-0.5-0.6-0.8-0.9-0.9-1c-0.3-0.3-0.7-0.7-1-1
				C782.2,186.7,779.7,185.8,776.8,185.8z M769.5,202l-0.3-0.5c-0.5-0.6-0.7-1.8-0.7-3.7c0-2.3,0.8-4.3,2.4-5.9
				c1.6-1.6,3.6-2.4,5.9-2.4c1.9,0,3.1,0.2,3.8,0.7l0.4,0.3L769.5,202z M776.8,190.5c-2,0-3.7,0.7-5.2,2.1c-1.4,1.4-2.1,3.1-2.1,5.2
				c0,1.3,0.1,2.1,0.2,2.6l9.7-9.7C779,190.6,778.2,190.5,776.8,190.5z"/>
		</g>
		<g>
			<path class="st3" d="M797.9,193.2v16.5h-4.6v-22.6h4.6v2.6c1-2.6,2.9-3.9,5.7-3.9c2.4,0,4.4,0.9,5.8,2.6c1.4,1.7,2.2,3.9,2.2,6.5
				v14.7h-4.5v-14.5c0-1.3-0.5-2.4-1.4-3.4c-1-0.9-2.1-1.4-3.4-1.4c-1.3,0-2.4,0.5-3.4,1.4C798.5,192.4,798.1,192.9,797.9,193.2z"/>
			<path class="st3" d="M812.2,210.3h-5.5v-15c0-1.2-0.4-2.2-1.3-3c-0.9-0.8-1.9-1.3-3.1-1.3c-1.2,0-2.2,0.4-3,1.2
				c-0.5,0.5-0.8,0.9-0.9,1.1v16.9h-5.6v-23.6h5.6v1.1c1.2-1.6,2.9-2.4,5.2-2.4c2.6,0,4.7,0.9,6.2,2.8c1.5,1.8,2.3,4.1,2.3,6.8
				L812.2,210.3z M807.7,209.3h3.5v-14.2c0-2.5-0.8-4.6-2.1-6.2c-1.4-1.6-3.1-2.4-5.4-2.4c-2.7,0-4.4,1.2-5.3,3.5l-1,2.6v-4.9h-3.6
				v21.6h3.6l0-16.2c0.2-0.4,0.6-0.9,1.1-1.5c1.1-1,2.3-1.5,3.7-1.5c1.4,0,2.7,0.5,3.8,1.5c1,1,1.6,2.3,1.6,3.7V209.3z"/>
		</g>
		<g>
			<path class="st3" d="M821.2,187.2v-8.5h4.5v8.5h4.1v4.5h-4.1v18.1h-4.5v-18.1h-4.1v-4.5H821.2z"/>
			<path class="st3" d="M826.2,210.3h-5.5v-18.1h-4.1v-5.5h4.1v-8.5h5.5v8.5h4.1v5.5h-4.1V210.3z M821.7,209.3h3.5v-18.1h4.1v-3.5
				h-4.1v-8.5h-3.5v8.5h-4.1v3.5h4.1V209.3z"/>
		</g>
		<g>
			<path class="st3" d="M842.1,204.6c0.8,0.7,2.1,1,4.2,1c2.2,0,4-0.8,5.6-2.3c0.2-0.2,0.6-0.7,1.2-1.4l4.5,1.6
				c-1.1,1.5-1.9,2.6-2.4,3.1c-2.4,2.4-5.4,3.7-8.9,3.7c-3.4,0-6.4-1.2-8.8-3.7s-3.7-5.4-3.7-8.9s1.2-6.4,3.7-8.9s5.4-3.7,8.8-3.7
				c3,0,5.6,0.9,7.8,2.7c0.4,0.3,0.7,0.6,1.1,1c0.1,0.1,0.6,0.6,1.3,1.4l-2.3,2.3L842.1,204.6z M849.7,190.6
				c-0.5-0.4-1.7-0.6-3.4-0.6c-2.2,0-4,0.8-5.5,2.3c-1.5,1.5-2.3,3.4-2.3,5.5c0,1.8,0.2,2.9,0.6,3.4L849.7,190.6z"/>
			<path class="st3" d="M846.2,210.9c-3.6,0-6.7-1.3-9.2-3.8s-3.8-5.6-3.8-9.2s1.3-6.7,3.8-9.2s5.6-3.8,9.2-3.8
				c3.1,0,5.8,0.9,8.1,2.8c0.4,0.3,0.8,0.7,1.1,1c0.1,0.1,0.6,0.6,1.3,1.4l0.3,0.4l-2.6,2.6l-11.6,11.6c0.7,0.4,1.9,0.6,3.4,0.6
				c2,0,3.8-0.7,5.2-2.1c0.2-0.2,0.6-0.6,1.1-1.3l0.2-0.3l5.5,2l-0.4,0.5c-1.1,1.6-1.9,2.6-2.5,3.1
				C852.9,209.6,849.8,210.9,846.2,210.9z M846.2,185.8c-3.3,0-6.1,1.2-8.5,3.5c-2.3,2.3-3.5,5.2-3.5,8.5s1.2,6.2,3.5,8.5
				c2.3,2.3,5.2,3.5,8.5,3.5c3.3,0,6.2-1.2,8.5-3.5c0.4-0.4,1.1-1.2,2-2.5l-3.6-1.3c-0.5,0.6-0.8,0.9-1,1.1
				c-1.6,1.6-3.6,2.4-5.9,2.4c-2.2,0-3.6-0.4-4.5-1.1l-0.4-0.4l14.3-14.3c-0.5-0.6-0.8-0.9-0.9-1c-0.3-0.3-0.7-0.7-1-1
				C851.6,186.7,849.1,185.8,846.2,185.8z M839,202l-0.3-0.5c-0.5-0.6-0.7-1.8-0.7-3.7c0-2.3,0.8-4.3,2.4-5.9
				c1.6-1.6,3.6-2.4,5.9-2.4c1.9,0,3.1,0.2,3.8,0.7l0.4,0.3L839,202z M846.2,190.5c-2,0-3.7,0.7-5.2,2.1c-1.4,1.4-2.1,3.1-2.1,5.2
				c0,1.3,0.1,2.1,0.2,2.6l9.7-9.7C848.4,190.6,847.6,190.5,846.2,190.5z"/>
		</g>
	</g>
	<g>
		<g>
			<path class="st0" d="M116.6,294c0.5,0.5,1.2,0.8,1.9,0.8s1.4-0.3,1.9-0.8c0.5-0.5,0.8-1.2,0.8-1.9c0-0.7-0.3-1.4-0.8-1.9
				c-0.4-0.4-1.1-0.9-2.3-1.7c-1.6-0.9-2.7-1.6-3.4-2.3c-1.2-1.2-1.8-2.6-1.8-4.2c0-1.7,0.6-3.1,1.8-4.3c1.2-1.2,2.6-1.8,4.3-1.8
				c1.7,0,3,0.6,4.1,1.7c0.8,0.8,1.3,1.7,1.5,2.6l-4.3,1.2c-0.1-0.4-0.2-0.6-0.3-0.7c-0.3-0.3-0.6-0.4-1-0.4s-0.8,0.2-1.1,0.5
				c-0.3,0.3-0.5,0.7-0.5,1.1s0.2,0.8,0.5,1.1c0.3,0.3,0.9,0.7,1.8,1.3c1.8,1,3.1,1.9,3.9,2.7c1.4,1.4,2.1,3.1,2.1,5
				c0,2-0.7,3.7-2.1,5.1c-1.4,1.4-3.1,2.1-5,2.1c-2,0-3.6-0.7-5-2.1c-1-1-1.6-2.2-1.9-3.6l4.4-0.9
				C116.2,293.2,116.4,293.7,116.6,294z"/>
			<path class="st0" d="M138,293.7c0.7,0.7,2.1,1,4.1,1c2.1,0,3.9-0.7,5.4-2.2c0.2-0.2,0.6-0.6,1.1-1.3l4.4,1.6
				c-1.1,1.5-1.9,2.5-2.4,3c-2.4,2.4-5.3,3.6-8.7,3.6c-3.4,0-6.2-1.2-8.6-3.6c-2.4-2.4-3.6-5.3-3.6-8.7c0-3.4,1.2-6.3,3.6-8.7
				c2.4-2.4,5.3-3.6,8.6-3.6c2.9,0,5.4,0.9,7.6,2.6c0.4,0.3,0.7,0.6,1.1,1c0.1,0.1,0.6,0.6,1.2,1.4l-2.2,2.3L138,293.7z
				 M145.4,279.9c-0.5-0.4-1.6-0.6-3.4-0.6c-2.1,0-3.9,0.7-5.4,2.2c-1.5,1.5-2.2,3.3-2.2,5.4c0,1.7,0.2,2.9,0.6,3.4L145.4,279.9z"/>
			<path class="st0" d="M177.4,278.1v-1.5h4.5V293c0,4.3-1.2,7.6-3.5,9.9c-2.4,2.1-5.3,3.2-8.7,3.2c-3.4,0-6.3-1.1-8.7-3.2
				c-0.5-0.5-1.3-1.5-2.3-3l4.4-1.6c0.6,0.7,1,1.1,1.2,1.3c1.5,1.5,3.3,2.2,5.4,2.2c3.5,0,6-2.3,7.3-7c-1.4,2.7-3.8,4-7.2,4
				c-3.4,0-6.3-1.2-8.6-3.5s-3.6-5.2-3.6-8.6c0-3.4,1.2-6.3,3.6-8.6s5.3-3.6,8.6-3.6C172.8,274.8,175.3,275.9,177.4,278.1z
				 M177.4,285.3c-0.3-1.4-1-2.6-2.1-3.7c-1.5-1.5-3.3-2.3-5.4-2.3c-2.1,0-3.9,0.8-5.4,2.3c-1.5,1.5-2.2,3.3-2.2,5.4
				c0,2.1,0.7,3.9,2.2,5.4c1.5,1.5,3.3,2.2,5.4,2.2c2.1,0,3.9-0.7,5.4-2.2c1.1-1.1,1.8-2.3,2.1-3.7V285.3z"/>
			<path class="st0" d="M197.8,299c-2.8,0-5-0.9-6.7-2.6c-1.7-1.7-2.6-3.8-2.6-6.4v-13.4h4.5v13.3c0,1.3,0.5,2.4,1.4,3.3
				c0.9,0.9,2.1,1.4,3.5,1.4c1.3,0,2.4-0.5,3.3-1.4c0.9-0.9,1.4-2,1.4-3.3v-13.3h4.4V290c0,2.6-0.9,4.7-2.6,6.4
				C202.6,298.1,200.5,299,197.8,299z"/>
			<path class="st0" d="M218.2,268.4c0.6,0.6,0.9,1.3,0.9,2.2c0,0.9-0.3,1.6-0.9,2.2c-0.6,0.6-1.4,0.9-2.2,0.9
				c-0.8,0-1.6-0.3-2.2-0.9c-0.6-0.6-0.9-1.3-0.9-2.2c0-0.9,0.3-1.6,0.9-2.2c0.6-0.6,1.3-0.9,2.2-0.9
				C216.8,267.5,217.6,267.8,218.2,268.4z M218.2,276.6v22.1h-4.4v-22.1H218.2z"/>
			<path class="st0" d="M229.5,279.6c1.7-2.2,3.7-3.4,6.1-3.5v4.6c-1.6,0.1-2.9,0.6-3.9,1.6c-1.4,1.4-2.2,3.1-2.3,5.1v11.4H225
				v-22.1h4.4V279.6z"/>
			<path class="st0" d="M259.1,278.1v-1.5h4.5v22.1h-4.5v-2.8c-2.1,2.2-4.6,3.3-7.5,3.3c-3.4,0-6.3-1.2-8.6-3.6s-3.6-5.3-3.6-8.6
				c0-3.4,1.2-6.3,3.6-8.6s5.3-3.6,8.6-3.6C254.4,274.8,256.9,275.9,259.1,278.1z M259.1,288.7v-3.3c-0.3-1.4-0.9-2.6-2.1-3.8
				c-1.5-1.5-3.3-2.2-5.4-2.2c-2.1,0-3.9,0.7-5.4,2.2c-1.5,1.5-2.2,3.3-2.2,5.4c0,2.1,0.7,3.9,2.2,5.4c1.5,1.5,3.3,2.2,5.4,2.2
				c2.1,0,3.9-0.7,5.4-2.2C258.1,291.3,258.8,290.1,259.1,288.7z M252.7,268.5h5.4l-5.8,6h-4.2L252.7,268.5z"/>
			<path class="st0" d="M304.4,278.1v-13.8h4.5v34.4h-4.5v-2.8c-2.1,2.2-4.6,3.3-7.5,3.3c-3.4,0-6.3-1.2-8.6-3.6
				c-2.4-2.4-3.6-5.3-3.6-8.7c0-3.4,1.2-6.3,3.6-8.7c2.4-2.4,5.3-3.6,8.6-3.6C299.7,274.8,302.2,275.9,304.4,278.1z M304.4,288.7
				v-3.3c-0.3-1.4-1-2.6-2.1-3.8c-1.5-1.5-3.3-2.3-5.4-2.3c-2.1,0-3.9,0.8-5.4,2.3c-1.5,1.5-2.2,3.3-2.2,5.4c0,2.1,0.7,3.9,2.2,5.4
				c1.5,1.5,3.3,2.2,5.4,2.2c2.1,0,3.9-0.7,5.4-2.2C303.4,291.3,304.1,290.1,304.4,288.7z"/>
			<path class="st0" d="M320.1,268.4c0.6,0.6,0.9,1.3,0.9,2.2c0,0.9-0.3,1.6-0.9,2.2c-0.6,0.6-1.4,0.9-2.2,0.9
				c-0.8,0-1.6-0.3-2.2-0.9c-0.6-0.6-0.9-1.3-0.9-2.2c0-0.9,0.3-1.6,0.9-2.2c0.6-0.6,1.3-0.9,2.2-0.9
				C318.7,267.5,319.5,267.8,320.1,268.4z M320.1,276.6v22.1h-4.4v-22.1H320.1z"/>
			<path class="st0" d="M331.4,279.6c1.7-2.2,3.7-3.4,6.1-3.5v4.6c-1.6,0.1-2.9,0.6-3.9,1.6c-1.4,1.4-2.2,3.1-2.3,5.1v11.4h-4.4
				v-22.1h4.4V279.6z"/>
			<path class="st0" d="M347,268.4c0.6,0.6,0.9,1.3,0.9,2.2c0,0.9-0.3,1.6-0.9,2.2c-0.6,0.6-1.4,0.9-2.2,0.9c-0.8,0-1.6-0.3-2.2-0.9
				c-0.6-0.6-0.9-1.3-0.9-2.2c0-0.9,0.3-1.6,0.9-2.2c0.6-0.6,1.3-0.9,2.2-0.9C345.7,267.5,346.4,267.8,347,268.4z M347.1,276.6v22.1
				h-4.4v-22.1H347.1z"/>
			<path class="st0" d="M373.1,278.1v-1.5h4.5V293c0,4.3-1.2,7.6-3.5,9.9c-2.4,2.1-5.3,3.2-8.7,3.2c-3.4,0-6.3-1.1-8.7-3.2
				c-0.5-0.5-1.3-1.5-2.3-3l4.4-1.6c0.6,0.7,1,1.1,1.2,1.3c1.5,1.5,3.3,2.2,5.4,2.2c3.5,0,6-2.3,7.3-7c-1.4,2.7-3.8,4-7.2,4
				c-3.4,0-6.3-1.2-8.6-3.5s-3.6-5.2-3.6-8.6c0-3.4,1.2-6.3,3.6-8.6s5.3-3.6,8.6-3.6C368.4,274.8,370.9,275.9,373.1,278.1z
				 M373,285.3c-0.3-1.4-1-2.6-2.1-3.7c-1.5-1.5-3.3-2.3-5.4-2.3c-2.1,0-3.9,0.8-5.4,2.3c-1.5,1.5-2.2,3.3-2.2,5.4
				c0,2.1,0.7,3.9,2.2,5.4c1.5,1.5,3.3,2.2,5.4,2.2c2.1,0,3.9-0.7,5.4-2.2c1.1-1.1,1.8-2.3,2.1-3.7V285.3z"/>
			<path class="st0" d="M388.8,268.4c0.6,0.6,0.9,1.3,0.9,2.2c0,0.9-0.3,1.6-0.9,2.2c-0.6,0.6-1.4,0.9-2.2,0.9
				c-0.8,0-1.6-0.3-2.2-0.9c-0.6-0.6-0.9-1.3-0.9-2.2c0-0.9,0.3-1.6,0.9-2.2c0.6-0.6,1.3-0.9,2.2-0.9
				C387.5,267.5,388.2,267.8,388.8,268.4z M388.9,276.6v22.1h-4.4v-22.1H388.9z"/>
			<path class="st0" d="M402.6,293.7c0.7,0.7,2.1,1,4.1,1c2.1,0,3.9-0.7,5.4-2.2c0.2-0.2,0.6-0.6,1.1-1.3l4.4,1.6
				c-1.1,1.5-1.9,2.5-2.4,3c-2.4,2.4-5.3,3.6-8.7,3.6c-3.4,0-6.2-1.2-8.6-3.6c-2.4-2.4-3.6-5.3-3.6-8.7c0-3.4,1.2-6.3,3.6-8.7
				c2.4-2.4,5.3-3.6,8.6-3.6c2.9,0,5.4,0.9,7.6,2.6c0.4,0.3,0.7,0.6,1.1,1c0.1,0.1,0.6,0.6,1.2,1.4l-2.2,2.3L402.6,293.7z
				 M410,279.9c-0.5-0.4-1.6-0.6-3.4-0.6c-2.1,0-3.9,0.7-5.4,2.2c-1.5,1.5-2.2,3.3-2.2,5.4c0,1.7,0.2,2.9,0.6,3.4L410,279.9z"/>
			<path class="st0" d="M427.3,282.5v16.2h-4.5v-22.1h4.5v2.6c0.9-2.5,2.8-3.8,5.6-3.8c2.4,0,4.3,0.8,5.7,2.5
				c1.4,1.7,2.1,3.8,2.2,6.4v14.4h-4.4v-14.2c0-1.3-0.5-2.4-1.4-3.3c-0.9-0.9-2-1.4-3.3-1.4c-1.3,0-2.4,0.4-3.3,1.3
				C427.8,281.7,427.4,282.2,427.3,282.5z"/>
			<path class="st0" d="M466.4,278.1v-13.8h4.5v34.4h-4.5v-2.8c-2.1,2.2-4.6,3.3-7.5,3.3c-3.4,0-6.3-1.2-8.6-3.6
				c-2.4-2.4-3.6-5.3-3.6-8.7c0-3.4,1.2-6.3,3.6-8.7c2.4-2.4,5.3-3.6,8.6-3.6C461.8,274.8,464.3,275.9,466.4,278.1z M466.4,288.7
				v-3.3c-0.3-1.4-1-2.6-2.1-3.8c-1.5-1.5-3.3-2.3-5.4-2.3c-2.1,0-3.9,0.8-5.4,2.3c-1.5,1.5-2.2,3.3-2.2,5.4c0,2.1,0.7,3.9,2.2,5.4
				c1.5,1.5,3.3,2.2,5.4,2.2c2.1,0,3.9-0.7,5.4-2.2C465.5,291.3,466.2,290.1,466.4,288.7z"/>
			<path class="st0" d="M488.3,274.8c3.4,0,6.3,1.2,8.6,3.6c2.4,2.4,3.6,5.3,3.6,8.7c0,3.4-1.2,6.3-3.6,8.7
				c-2.4,2.4-5.3,3.6-8.6,3.6c-3.4,0-6.2-1.2-8.6-3.6c-2.4-2.4-3.6-5.3-3.6-8.7c0-3.4,1.2-6.3,3.6-8.7
				C482.1,276,484.9,274.8,488.3,274.8z M482.9,281.6c-1.5,1.5-2.2,3.3-2.2,5.4c0,2.1,0.7,3.9,2.2,5.4c1.5,1.5,3.3,2.2,5.4,2.2
				c2.1,0,3.9-0.7,5.4-2.2c1.5-1.5,2.2-3.3,2.2-5.4c0-2.1-0.7-3.9-2.2-5.4c-1.5-1.5-3.3-2.3-5.4-2.3
				C486.2,279.4,484.4,280.1,482.9,281.6z"/>
			<path class="st0" d="M523.6,276.6v-8.3h4.4v8.3h4v4.4h-4v17.7h-4.4V281h-4v-4.4H523.6z"/>
			<path class="st0" d="M546.5,299c-2.8,0-5-0.9-6.7-2.6c-1.7-1.7-2.6-3.8-2.6-6.4v-13.4h4.5v13.3c0,1.3,0.5,2.4,1.4,3.3
				c0.9,0.9,2.1,1.4,3.5,1.4c1.3,0,2.4-0.5,3.3-1.4c0.9-0.9,1.4-2,1.4-3.3v-13.3h4.4V290c0,2.6-0.9,4.7-2.6,6.4
				C551.4,298.1,549.2,299,546.5,299z"/>
			<path class="st0" d="M585.8,298.7l-10.5-22.1h5l6.6,14.4l6.7-14.4h5L588,298.7H585.8z"/>
			<path class="st0" d="M607.7,268.4c0.6,0.6,0.9,1.3,0.9,2.2c0,0.9-0.3,1.6-0.9,2.2c-0.6,0.6-1.4,0.9-2.2,0.9
				c-0.8,0-1.6-0.3-2.2-0.9c-0.6-0.6-0.9-1.3-0.9-2.2c0-0.9,0.3-1.6,0.9-2.2c0.6-0.6,1.3-0.9,2.2-0.9
				C606.3,267.5,607,267.8,607.7,268.4z M607.7,276.6v22.1h-4.4v-22.1H607.7z"/>
			<path class="st0" d="M633.7,278.1v-13.8h4.5v34.4h-4.5v-2.8c-2.1,2.2-4.6,3.3-7.5,3.3c-3.4,0-6.3-1.2-8.6-3.6
				c-2.4-2.4-3.6-5.3-3.6-8.7c0-3.4,1.2-6.3,3.6-8.7c2.4-2.4,5.3-3.6,8.6-3.6C629,274.8,631.5,275.9,633.7,278.1z M633.7,288.7v-3.3
				c-0.3-1.4-1-2.6-2.1-3.8c-1.5-1.5-3.3-2.3-5.4-2.3c-2.1,0-3.9,0.8-5.4,2.3c-1.5,1.5-2.2,3.3-2.2,5.4c0,2.1,0.7,3.9,2.2,5.4
				c1.5,1.5,3.3,2.2,5.4,2.2c2.1,0,3.9-0.7,5.4-2.2C632.7,291.3,633.4,290.1,633.7,288.7z"/>
			<path class="st0" d="M663.8,278.1v-1.5h4.5v22.1h-4.5v-2.8c-2.1,2.2-4.6,3.3-7.5,3.3c-3.4,0-6.3-1.2-8.6-3.6s-3.6-5.3-3.6-8.6
				c0-3.4,1.2-6.3,3.6-8.6s5.3-3.6,8.6-3.6C659.1,274.8,661.6,275.9,663.8,278.1z M663.8,288.7v-3.3c-0.3-1.4-0.9-2.6-2.1-3.8
				c-1.5-1.5-3.3-2.2-5.4-2.2c-2.1,0-3.9,0.7-5.4,2.2c-1.5,1.5-2.2,3.3-2.2,5.4c0,2.1,0.7,3.9,2.2,5.4c1.5,1.5,3.3,2.2,5.4,2.2
				c2.1,0,3.9-0.7,5.4-2.2C662.8,291.3,663.5,290.1,663.8,288.7z"/>
			<path class="st0" d="M695.3,306.1h-4.7l5.9-12.4l-8.2-17.2h5l5.6,12.1l5.6-12.1h5L695.3,306.1z"/>
			<path class="st0" d="M732.3,276.6v-8.3h4.4v8.3h4v4.4h-4v17.7h-4.4V281h-4v-4.4H732.3z"/>
			<path class="st0" d="M755.2,299c-2.8,0-5-0.9-6.7-2.6c-1.7-1.7-2.6-3.8-2.6-6.4v-13.4h4.5v13.3c0,1.3,0.5,2.4,1.4,3.3
				c0.9,0.9,2.1,1.4,3.5,1.4c1.3,0,2.4-0.5,3.3-1.4c0.9-0.9,1.4-2,1.4-3.3v-13.3h4.4V290c0,2.6-0.9,4.7-2.6,6.4
				C760.1,298.1,757.9,299,755.2,299z M756.4,268.5h5.4l-5.8,6h-4.2L756.4,268.5z"/>
			<path class="st0" d="M790.5,264.3v34.4h-4.5v-34.4H790.5z"/>
			<path class="st0" d="M803.8,293.7c0.7,0.7,2.1,1,4.1,1c2.1,0,3.9-0.7,5.4-2.2c0.2-0.2,0.6-0.6,1.1-1.3l4.4,1.6
				c-1.1,1.5-1.9,2.5-2.4,3c-2.4,2.4-5.3,3.6-8.7,3.6c-3.4,0-6.2-1.2-8.6-3.6c-2.4-2.4-3.6-5.3-3.6-8.7c0-3.4,1.2-6.3,3.6-8.7
				c2.4-2.4,5.3-3.6,8.6-3.6c2.9,0,5.4,0.9,7.6,2.6c0.4,0.3,0.7,0.6,1.1,1c0.1,0.1,0.6,0.6,1.2,1.4l-2.2,2.3L803.8,293.7z
				 M811.3,279.9c-0.5-0.4-1.6-0.6-3.4-0.6c-2.1,0-3.9,0.7-5.4,2.2c-1.5,1.5-2.2,3.3-2.2,5.4c0,1.7,0.2,2.9,0.6,3.4L811.3,279.9z"/>
			<path class="st0" d="M116.6,317.1v34.4h-4.5v-34.4H116.6z"/>
			<path class="st0" d="M127.6,317.1v34.4h-4.5v-34.4H127.6z"/>
			<path class="st0" d="M153.2,330.9v-1.5h4.5v22.1h-4.5v-2.8c-2.1,2.2-4.6,3.3-7.5,3.3c-3.4,0-6.3-1.2-8.6-3.6s-3.6-5.3-3.6-8.6
				c0-3.4,1.2-6.3,3.6-8.6s5.3-3.6,8.6-3.6C148.5,327.6,151,328.7,153.2,330.9z M153.2,341.5v-3.3c-0.3-1.4-0.9-2.6-2.1-3.8
				c-1.5-1.5-3.3-2.2-5.4-2.2c-2.1,0-3.9,0.7-5.4,2.2c-1.5,1.5-2.2,3.3-2.2,5.4c0,2.1,0.7,3.9,2.2,5.4c1.5,1.5,3.3,2.2,5.4,2.2
				c2.1,0,3.9-0.7,5.4-2.2C152.2,344.1,152.9,342.9,153.2,341.5z"/>
			<path class="st0" d="M164.1,329.4h4.4v2.1c0.9-2.2,2.5-3.2,5-3.2c2.4,0,3.8,1.2,4.1,3.7c0.7-2.5,2.6-3.7,5.8-3.7
				c3.1,0,4.7,1.9,4.7,5.7v17.6h-4.5v-15.6c0-2.2-0.9-3.3-2.6-3.3c-0.7,0-1.4,0.3-1.9,0.8c-0.5,0.5-0.8,2.2-0.8,5.2v12.8h-4.4
				l0-15.6c0-2.2-0.9-3.3-2.7-3.3c-0.7,0-1.4,0.3-1.9,0.8c-0.5,0.4-0.7,1.6-0.8,3.5v14.5h-4.4V329.4z"/>
			<path class="st0" d="M213.7,330.9v-1.5h4.5v22.1h-4.5v-2.8c-2.1,2.2-4.6,3.3-7.5,3.3c-3.4,0-6.3-1.2-8.6-3.6s-3.6-5.3-3.6-8.6
				c0-3.4,1.2-6.3,3.6-8.6s5.3-3.6,8.6-3.6C209.1,327.6,211.6,328.7,213.7,330.9z M213.7,341.5v-3.3c-0.3-1.4-0.9-2.6-2.1-3.8
				c-1.5-1.5-3.3-2.2-5.4-2.2c-2.1,0-3.9,0.7-5.4,2.2c-1.5,1.5-2.2,3.3-2.2,5.4c0,2.1,0.7,3.9,2.2,5.4c1.5,1.5,3.3,2.2,5.4,2.2
				c2.1,0,3.9-0.7,5.4-2.2C212.8,344.1,213.5,342.9,213.7,341.5z"/>
			<path class="st0" d="M229.1,332.4c1.7-2.2,3.7-3.4,6.1-3.5v4.6c-1.6,0.1-2.9,0.6-3.9,1.6c-1.4,1.4-2.2,3.1-2.3,5.1v11.4h-4.4
				v-22.1h4.4V332.4z"/>
			<path class="st0" d="M258.7,330.9v-1.5h4.5v22.1h-4.5v-2.8c-2.1,2.2-4.6,3.3-7.5,3.3c-3.4,0-6.3-1.2-8.6-3.6s-3.6-5.3-3.6-8.6
				c0-3.4,1.2-6.3,3.6-8.6s5.3-3.6,8.6-3.6C254.1,327.6,256.6,328.7,258.7,330.9z M258.7,341.5v-3.3c-0.3-1.4-0.9-2.6-2.1-3.8
				c-1.5-1.5-3.3-2.2-5.4-2.2c-2.1,0-3.9,0.7-5.4,2.2c-1.5,1.5-2.2,3.3-2.2,5.4c0,2.1,0.7,3.9,2.2,5.4c1.5,1.5,3.3,2.2,5.4,2.2
				c2.1,0,3.9-0.7,5.4-2.2C257.8,344.1,258.5,342.9,258.7,341.5z M252.4,321.3h5.4l-5.8,6h-4.2L252.4,321.3z"/>
			<path class="st0" d="M274.1,346.8c0.5,0.5,1.2,0.8,1.9,0.8s1.4-0.3,1.9-0.8c0.5-0.5,0.8-1.2,0.8-1.9c0-0.7-0.3-1.4-0.8-1.9
				c-0.4-0.4-1.1-0.9-2.3-1.7c-1.6-0.9-2.7-1.6-3.4-2.3c-1.2-1.2-1.8-2.6-1.8-4.2c0-1.7,0.6-3.1,1.8-4.3c1.2-1.2,2.6-1.8,4.3-1.8
				c1.7,0,3,0.6,4.1,1.7c0.8,0.8,1.3,1.7,1.5,2.6l-4.3,1.2c-0.1-0.4-0.2-0.6-0.3-0.7c-0.3-0.3-0.6-0.4-1-0.4s-0.8,0.2-1.1,0.5
				c-0.3,0.3-0.5,0.7-0.5,1.1s0.2,0.8,0.5,1.1c0.3,0.3,0.9,0.7,1.8,1.3c1.8,1,3.1,1.9,3.9,2.7c1.4,1.4,2.1,3.1,2.1,5
				c0,2-0.7,3.7-2.1,5.1c-1.4,1.4-3.1,2.1-5,2.1c-2,0-3.6-0.7-5-2.1c-1-1-1.6-2.2-1.9-3.6l4.4-0.9
				C273.6,346,273.8,346.5,274.1,346.8z"/>
			<path class="st0" d="M323,330.9v-13.8h4.5v34.4H323v-2.8c-2.1,2.2-4.6,3.3-7.5,3.3c-3.4,0-6.3-1.2-8.6-3.6
				c-2.4-2.4-3.6-5.3-3.6-8.7c0-3.4,1.2-6.3,3.6-8.7c2.4-2.4,5.3-3.6,8.6-3.6C318.4,327.6,320.9,328.7,323,330.9z M323,341.5v-3.3
				c-0.3-1.4-1-2.6-2.1-3.8c-1.5-1.5-3.3-2.3-5.4-2.3c-2.1,0-3.9,0.8-5.4,2.3c-1.5,1.5-2.2,3.3-2.2,5.4c0,2.1,0.7,3.9,2.2,5.4
				c1.5,1.5,3.3,2.2,5.4,2.2c2.1,0,3.9-0.7,5.4-2.2C322,344.1,322.7,342.9,323,341.5z"/>
			<path class="st0" d="M340.8,346.5c0.7,0.7,2.1,1,4.1,1c2.1,0,3.9-0.7,5.4-2.2c0.2-0.2,0.6-0.6,1.1-1.3l4.4,1.6
				c-1.1,1.5-1.9,2.5-2.4,3c-2.4,2.4-5.3,3.6-8.7,3.6c-3.4,0-6.2-1.2-8.6-3.6c-2.4-2.4-3.6-5.3-3.6-8.7c0-3.4,1.2-6.3,3.6-8.7
				c2.4-2.4,5.3-3.6,8.6-3.6c2.9,0,5.4,0.9,7.6,2.6c0.4,0.3,0.7,0.6,1.1,1c0.1,0.1,0.6,0.6,1.2,1.4l-2.2,2.3L340.8,346.5z
				 M348.2,332.7c-0.5-0.4-1.6-0.6-3.4-0.6c-2.1,0-3.9,0.7-5.4,2.2c-1.5,1.5-2.2,3.3-2.2,5.4c0,1.7,0.2,2.9,0.6,3.4L348.2,332.7z"/>
			<path class="st0" d="M365.5,346.8c0.5,0.5,1.2,0.8,1.9,0.8s1.4-0.3,1.9-0.8c0.5-0.5,0.8-1.2,0.8-1.9c0-0.7-0.3-1.4-0.8-1.9
				c-0.4-0.4-1.1-0.9-2.3-1.7c-1.6-0.9-2.7-1.6-3.4-2.3c-1.2-1.2-1.8-2.6-1.8-4.2c0-1.7,0.6-3.1,1.8-4.3c1.2-1.2,2.6-1.8,4.3-1.8
				c1.7,0,3,0.6,4.1,1.7c0.8,0.8,1.3,1.7,1.5,2.6l-4.3,1.2c-0.1-0.4-0.2-0.6-0.3-0.7c-0.3-0.3-0.6-0.4-1-0.4s-0.8,0.2-1.1,0.5
				c-0.3,0.3-0.5,0.7-0.5,1.1s0.2,0.8,0.5,1.1c0.3,0.3,0.9,0.7,1.8,1.3c1.8,1,3.1,1.9,3.9,2.7c1.4,1.4,2.1,3.1,2.1,5
				c0,2-0.7,3.7-2.1,5.1c-1.4,1.4-3.1,2.1-5,2.1c-2,0-3.6-0.7-5-2.1c-1-1-1.6-2.2-1.9-3.6l4.4-0.9C365,346,365.2,346.5,365.5,346.8z
				"/>
			<path class="st0" d="M383,329.4v-8.3h4.4v8.3h4v4.4h-4v17.7H383v-17.7h-4v-4.4H383z"/>
			<path class="st0" d="M401.4,321.2c0.6,0.6,0.9,1.3,0.9,2.2c0,0.9-0.3,1.6-0.9,2.2c-0.6,0.6-1.4,0.9-2.2,0.9
				c-0.8,0-1.6-0.3-2.2-0.9c-0.6-0.6-0.9-1.3-0.9-2.2c0-0.9,0.3-1.6,0.9-2.2c0.6-0.6,1.3-0.9,2.2-0.9
				C400,320.3,400.8,320.6,401.4,321.2z M401.4,329.4v22.1h-4.4v-22.1H401.4z"/>
			<path class="st0" d="M412.7,335.3v16.2h-4.5v-22.1h4.5v2.6c0.9-2.5,2.8-3.8,5.6-3.8c2.4,0,4.3,0.8,5.7,2.5
				c1.4,1.7,2.1,3.8,2.2,6.4v14.4h-4.4v-14.2c0-1.3-0.5-2.4-1.4-3.3c-0.9-0.9-2-1.4-3.3-1.4c-1.3,0-2.4,0.4-3.3,1.3
				C413.2,334.5,412.8,335,412.7,335.3z"/>
			<path class="st0" d="M443.6,327.6c3.4,0,6.3,1.2,8.6,3.6c2.4,2.4,3.6,5.3,3.6,8.7c0,3.4-1.2,6.3-3.6,8.7
				c-2.4,2.4-5.3,3.6-8.6,3.6c-3.4,0-6.2-1.2-8.6-3.6c-2.4-2.4-3.6-5.3-3.6-8.7c0-3.4,1.2-6.3,3.6-8.7
				C437.4,328.8,440.2,327.6,443.6,327.6z M438.2,334.4c-1.5,1.5-2.2,3.3-2.2,5.4c0,2.1,0.7,3.9,2.2,5.4c1.5,1.5,3.3,2.2,5.4,2.2
				c2.1,0,3.9-0.7,5.4-2.2c1.5-1.5,2.2-3.3,2.2-5.4c0-2.1-0.7-3.9-2.2-5.4c-1.5-1.5-3.3-2.3-5.4-2.3
				C441.5,332.2,439.7,332.9,438.2,334.4z"/>
			<path class="st0" d="M458.3,331.7v-14.5h4.4v14.5H458.3z M465.1,331.7v-14.5h4.4v14.5H465.1z"/>
		</g>
	</g>
</g>
</svg>
