<?xml version="1.0" encoding="utf-8"?>
<!-- Generator: Adobe Illustrator 21.0.0, SVG Export Plug-In . SVG Version: 6.00 Build 0)  -->
<svg version="1.1" id="Layer_1" xmlns="http://www.w3.org/2000/svg" xmlns:xlink="http://www.w3.org/1999/xlink" x="0px" y="0px"
	 viewBox="0 0 1026.9 398.6" style="enable-background:new 0 0 1026.9 398.6;" xml:space="preserve">
<style type="text/css">
	.st0{fill:#EDEDED;}
	.st1{fill:#685989;}
	.st2{fill:#864D7D;}
	.st3{fill:#BEDBC3;}
	.st4{fill:#9CC1C8;}
	.st5{opacity:0.5;fill:#9CC1C8;}
	.st6{fill:#D3DEE4;}
	.st7{fill:#007271;}
	.st8{fill:#369999;}
	.st9{fill:#4D2B2B;}
	.st10{fill:#3A1F1E;}
	.st11{fill:#E95B4E;}
	.st12{fill:#EE8268;}
	.st13{fill:#C83D36;}
	.st14{fill:#F6B99F;}
	.st15{fill:#EEE9DC;}
	.st16{fill:#F19775;}
	.st17{fill:#6B3E3F;}
	.st18{fill:#C7BDB7;}
	.st19{fill:#D1D5CA;}
	.st20{fill:#2B3668;}
	.st21{fill:#EE827D;}
	.st22{fill:#F87481;}
	.st23{fill:#FFFFFF;stroke:#FFFFFF;stroke-miterlimit:10;}
	.st24{fill:#FFFFFF;}
	.st25{opacity:0.3;clip-path:url(#SVGID_2_);}
	.st26{opacity:0.3;clip-path:url(#SVGID_4_);}
	.st27{opacity:0.3;clip-path:url(#SVGID_6_);}
	.st28{fill:#7087AF;}
	.st29{clip-path:url(#SVGID_8_);}
	.st30{fill:#B2555F;}
	.st31{fill:#47284F;}
	.st32{fill:#FFBF9B;}
	.st33{fill:#FFA687;}
	.st34{fill:#72426B;}
	.st35{fill:#FFC9AC;}
	.st36{fill:#C19884;}
	.st37{fill:#FFA68D;}
	.st38{fill:#13A6CE;}
	.st39{fill:#4E2447;}
	.st40{opacity:0.3;}
	.st41{fill:#1A2E35;}
	.st42{fill:#FFBF9D;}
	.st43{fill:#FF9A6C;}
	.st44{fill:#375A64;}
	.st45{fill:#E1E1E1;}
	.st46{opacity:0.2;}
	.st47{fill:#FF4F5B;}
	.st48{fill:#EBEBEB;}
	.st49{fill:#AA6550;}
	.st50{fill:#FAFAFA;}
</style>
<g>
	<path class="st4" d="M828.5,330H84.7V197.6h781.1v95C865.8,313.2,849.1,330,828.5,330z"/>
	<g>
		<g>
			<path class="st2" d="M909.3,288l17.4-19.3c19.6,14.5,35.7,40.9,35.7,70.2c0,19-12.9,29.6-28.3,29.6c-15.1,0-27.1-12.6-27.1-27.7
				c0-11.6,7.7-23.5,22.2-26.7C927.7,303.8,916.1,292.5,909.3,288z M973.7,288l17.4-19.3c19.6,14.5,35.7,40.9,35.7,70.2
				c0,19-12.9,29.6-28.3,29.6c-15.1,0-27.1-12.6-27.1-27.7c0-11.6,7.7-23.5,22.2-26.7C992.1,303.8,980.5,292.5,973.7,288z"/>
		</g>
	</g>
	<g>
		<g>
			<path class="st2" d="M33.2,45.4c14.5,3.2,22.2,15.1,22.2,26.7c0,15.1-11.9,27.7-27.1,27.7C12.9,99.8,0,89.2,0,70.2
				C0,40.9,16.1,14.5,35.7,0l17.4,19.3C46.4,23.8,34.8,35.1,33.2,45.4z M97.6,45.4c14.5,3.2,22.2,15.1,22.2,26.7
				c0,15.1-11.9,27.7-27.1,27.7c-15.5,0-28.3-10.6-28.3-29.6c0-29.3,16.1-55.7,35.7-70.2l17.4,19.3C110.8,23.8,99.2,35.1,97.6,45.4z
				"/>
		</g>
	</g>
	<g>
		<g>
			<path class="st24" d="M125.2,237.3l4.4,1.6c-1.1,1.5-1.9,2.5-2.4,3c-2.4,2.4-5.3,3.6-8.7,3.6c-3.4,0-6.2-1.2-8.6-3.6
				c-2.4-2.4-3.6-5.3-3.6-8.7c0-3.4,1.2-6.3,3.6-8.7c2.4-2.4,5.3-3.6,8.6-3.6c3.4,0,6.3,1.2,8.7,3.6c0.5,0.5,1.3,1.5,2.4,2.9
				l-4.4,1.6c-0.6-0.7-1-1.2-1.2-1.4c-1.5-1.5-3.3-2.2-5.4-2.2c-2.1,0-3.9,0.7-5.4,2.2c-1.5,1.5-2.2,3.3-2.2,5.4
				c0,2.1,0.7,3.9,2.2,5.4c1.5,1.5,3.3,2.2,5.4,2.2c2.1,0,3.9-0.7,5.4-2.2C124.2,238.4,124.6,238,125.2,237.3z"/>
			<path class="st24" d="M144.1,245.2c-2.8,0-5-0.9-6.7-2.6c-1.7-1.7-2.6-3.8-2.6-6.4v-13.4h4.5V236c0,1.3,0.5,2.4,1.4,3.3
				c0.9,0.9,2.1,1.4,3.5,1.4c1.3,0,2.4-0.5,3.3-1.4c0.9-0.9,1.4-2,1.4-3.3v-13.3h4.4v13.4c0,2.6-0.9,4.7-2.6,6.4
				C149,244.3,146.8,245.2,144.1,245.2z"/>
			<path class="st24" d="M178.9,224.3v-1.5h4.5v22.1h-4.5v-2.8c-2.1,2.2-4.6,3.3-7.5,3.3c-3.4,0-6.3-1.2-8.6-3.6s-3.6-5.3-3.6-8.6
				c0-3.4,1.2-6.3,3.6-8.6s5.3-3.6,8.6-3.6C174.3,221,176.8,222.1,178.9,224.3z M178.9,234.9v-3.3c-0.3-1.4-0.9-2.6-2.1-3.8
				c-1.5-1.5-3.3-2.2-5.4-2.2c-2.1,0-3.9,0.7-5.4,2.2c-1.5,1.5-2.2,3.3-2.2,5.4c0,2.1,0.7,3.9,2.2,5.4c1.5,1.5,3.3,2.2,5.4,2.2
				c2.1,0,3.9-0.7,5.4-2.2C178,237.5,178.6,236.2,178.9,234.9z"/>
			<path class="st24" d="M194.3,228.7v16.2h-4.5v-22.1h4.5v2.6c0.9-2.5,2.8-3.8,5.6-3.8c2.4,0,4.3,0.8,5.7,2.5
				c1.4,1.7,2.1,3.8,2.2,6.4v14.4h-4.4v-14.2c0-1.3-0.5-2.4-1.4-3.3c-0.9-0.9-2-1.4-3.3-1.4c-1.3,0-2.4,0.4-3.3,1.3
				C194.8,227.9,194.5,228.3,194.3,228.7z"/>
			<path class="st24" d="M233.5,224.3v-13.8h4.5v34.4h-4.5v-2.8c-2.1,2.2-4.6,3.3-7.5,3.3c-3.4,0-6.3-1.2-8.6-3.6
				c-2.4-2.4-3.6-5.3-3.6-8.7c0-3.4,1.2-6.3,3.6-8.7c2.4-2.4,5.3-3.6,8.6-3.6C228.8,221,231.3,222.1,233.5,224.3z M233.5,234.9v-3.3
				c-0.3-1.4-1-2.6-2.1-3.8c-1.5-1.5-3.3-2.3-5.4-2.3c-2.1,0-3.9,0.8-5.4,2.3c-1.5,1.5-2.2,3.3-2.2,5.4c0,2.1,0.7,3.9,2.2,5.4
				c1.5,1.5,3.3,2.2,5.4,2.2c2.1,0,3.9-0.7,5.4-2.2C232.5,237.5,233.2,236.2,233.5,234.9z"/>
			<path class="st24" d="M255.3,221c3.4,0,6.3,1.2,8.6,3.6c2.4,2.4,3.6,5.3,3.6,8.7c0,3.4-1.2,6.3-3.6,8.7c-2.4,2.4-5.3,3.6-8.6,3.6
				c-3.4,0-6.2-1.2-8.6-3.6c-2.4-2.4-3.6-5.3-3.6-8.7c0-3.4,1.2-6.3,3.6-8.7C249.1,222.2,252,221,255.3,221z M249.9,227.8
				c-1.5,1.5-2.2,3.3-2.2,5.4c0,2.1,0.7,3.9,2.2,5.4c1.5,1.5,3.3,2.2,5.4,2.2c2.1,0,3.9-0.7,5.4-2.2c1.5-1.5,2.2-3.3,2.2-5.4
				c0-2.1-0.7-3.9-2.2-5.4c-1.5-1.5-3.3-2.3-5.4-2.3C253.2,225.5,251.4,226.3,249.9,227.8z"/>
			<path class="st24" d="M287.9,222.8h4.4v2.1c0.9-2.2,2.5-3.2,5-3.2c2.4,0,3.8,1.2,4.1,3.7c0.7-2.5,2.6-3.7,5.8-3.7
				c3.1,0,4.7,1.9,4.7,5.7v17.6h-4.5v-15.6c0-2.2-0.9-3.3-2.6-3.3c-0.7,0-1.4,0.3-1.9,0.8c-0.5,0.5-0.8,2.2-0.8,5.2v12.8h-4.4
				l0-15.6c0-2.2-0.9-3.3-2.7-3.3c-0.7,0-1.4,0.3-1.9,0.8c-0.5,0.4-0.7,1.6-0.8,3.5v14.5h-4.4V222.8z"/>
			<path class="st24" d="M325.3,239.9c0.7,0.7,2.1,1,4.1,1c2.1,0,3.9-0.7,5.4-2.2c0.2-0.2,0.6-0.6,1.1-1.3l4.4,1.6
				c-1.1,1.5-1.9,2.5-2.4,3c-2.4,2.4-5.3,3.6-8.7,3.6c-3.4,0-6.2-1.2-8.6-3.6c-2.4-2.4-3.6-5.3-3.6-8.7c0-3.4,1.2-6.3,3.6-8.7
				c2.4-2.4,5.3-3.6,8.6-3.6c2.9,0,5.4,0.9,7.6,2.6c0.4,0.3,0.7,0.6,1.1,1c0.1,0.1,0.6,0.6,1.2,1.4l-2.2,2.3L325.3,239.9z
				 M332.7,226.1c-0.5-0.4-1.6-0.6-3.4-0.6c-2.1,0-3.9,0.7-5.4,2.2c-1.5,1.5-2.2,3.3-2.2,5.4c0,1.7,0.2,2.9,0.6,3.4L332.7,226.1z"/>
			<path class="st24" d="M379.9,224.3v-1.5h4.5v22.1h-4.5v-2.8c-2.1,2.2-4.6,3.3-7.5,3.3c-3.4,0-6.3-1.2-8.6-3.6s-3.6-5.3-3.6-8.6
				c0-3.4,1.2-6.3,3.6-8.6s5.3-3.6,8.6-3.6C375.2,221,377.7,222.1,379.9,224.3z M379.9,234.9v-3.3c-0.3-1.4-0.9-2.6-2.1-3.8
				c-1.5-1.5-3.3-2.2-5.4-2.2c-2.1,0-3.9,0.7-5.4,2.2c-1.5,1.5-2.2,3.3-2.2,5.4c0,2.1,0.7,3.9,2.2,5.4c1.5,1.5,3.3,2.2,5.4,2.2
				c2.1,0,3.9-0.7,5.4-2.2C378.9,237.5,379.6,236.2,379.9,234.9z"/>
			<path class="st24" d="M408.3,237.3l4.4,1.6c-1.1,1.5-1.9,2.5-2.4,3c-2.4,2.4-5.3,3.6-8.7,3.6c-3.4,0-6.2-1.2-8.6-3.6
				c-2.4-2.4-3.6-5.3-3.6-8.7c0-3.4,1.2-6.3,3.6-8.7c2.4-2.4,5.3-3.6,8.6-3.6c3.4,0,6.3,1.2,8.7,3.6c0.5,0.5,1.3,1.5,2.4,2.9
				l-4.4,1.6c-0.6-0.7-1-1.2-1.2-1.4c-1.5-1.5-3.3-2.2-5.4-2.2c-2.1,0-3.9,0.7-5.4,2.2c-1.5,1.5-2.2,3.3-2.2,5.4
				c0,2.1,0.7,3.9,2.2,5.4c1.5,1.5,3.3,2.2,5.4,2.2c2.1,0,3.9-0.7,5.4-2.2C407.4,238.4,407.8,238,408.3,237.3z"/>
			<path class="st24" d="M424.8,239.9c0.7,0.7,2.1,1,4.1,1c2.1,0,3.9-0.7,5.4-2.2c0.2-0.2,0.6-0.6,1.1-1.3l4.4,1.6
				c-1.1,1.5-1.9,2.5-2.4,3c-2.4,2.4-5.3,3.6-8.7,3.6c-3.4,0-6.2-1.2-8.6-3.6c-2.4-2.4-3.6-5.3-3.6-8.7c0-3.4,1.2-6.3,3.6-8.7
				c2.4-2.4,5.3-3.6,8.6-3.6c2.9,0,5.4,0.9,7.6,2.6c0.4,0.3,0.7,0.6,1.1,1c0.1,0.1,0.6,0.6,1.2,1.4l-2.2,2.3L424.8,239.9z
				 M432.2,226.1c-0.5-0.4-1.6-0.6-3.4-0.6c-2.1,0-3.9,0.7-5.4,2.2c-1.5,1.5-2.2,3.3-2.2,5.4c0,1.7,0.2,2.9,0.6,3.4L432.2,226.1z"/>
			<path class="st24" d="M449.5,242.1v10.2H445v-29.5h4.4v2c2.1-2.5,4.6-3.8,7.5-3.8c3.4,0,6.3,1.2,8.6,3.6s3.6,5.3,3.6,8.6
				c0,3.4-1.2,6.3-3.6,8.7c-2.4,2.4-5.3,3.6-8.6,3.6C454.1,245.5,451.6,244.3,449.5,242.1z M449.5,231.5v3.5c0.3,1.4,1,2.6,2.1,3.7
				c1.5,1.5,3.3,2.2,5.4,2.2c2.1,0,3.9-0.7,5.4-2.2c1.5-1.5,2.2-3.3,2.2-5.4c0-2.1-0.7-3.9-2.2-5.4c-1.5-1.5-3.3-2.3-5.4-2.3
				c-2.1,0-3.9,0.8-5.4,2.3C450.5,228.9,449.8,230.1,449.5,231.5z"/>
			<path class="st24" d="M477.3,222.8v-8.3h4.4v8.3h4v4.4h-4v17.7h-4.4v-17.7h-4v-4.4H477.3z"/>
			<path class="st24" d="M501.8,221c3.4,0,6.3,1.2,8.6,3.6c2.4,2.4,3.6,5.3,3.6,8.7c0,3.4-1.2,6.3-3.6,8.7c-2.4,2.4-5.3,3.6-8.6,3.6
				c-3.4,0-6.2-1.2-8.6-3.6c-2.4-2.4-3.6-5.3-3.6-8.7c0-3.4,1.2-6.3,3.6-8.7C495.6,222.2,498.4,221,501.8,221z M496.4,227.8
				c-1.5,1.5-2.2,3.3-2.2,5.4c0,2.1,0.7,3.9,2.2,5.4c1.5,1.5,3.3,2.2,5.4,2.2c2.1,0,3.9-0.7,5.4-2.2c1.5-1.5,2.2-3.3,2.2-5.4
				c0-2.1-0.7-3.9-2.2-5.4c-1.5-1.5-3.3-2.3-5.4-2.3C499.7,225.5,497.9,226.3,496.4,227.8z"/>
			<path class="st24" d="M537.1,222.8v-8.3h4.4v8.3h4v4.4h-4v17.7h-4.4v-17.7h-4v-4.4H537.1z"/>
			<path class="st24" d="M569.9,224.3v-1.5h4.5v22.1h-4.5v-2.8c-2.1,2.2-4.6,3.3-7.5,3.3c-3.4,0-6.3-1.2-8.6-3.6s-3.6-5.3-3.6-8.6
				c0-3.4,1.2-6.3,3.6-8.6s5.3-3.6,8.6-3.6C565.2,221,567.7,222.1,569.9,224.3z M569.9,234.9v-3.3c-0.3-1.4-0.9-2.6-2.1-3.8
				c-1.5-1.5-3.3-2.2-5.4-2.2c-2.1,0-3.9,0.7-5.4,2.2c-1.5,1.5-2.2,3.3-2.2,5.4c0,2.1,0.7,3.9,2.2,5.4c1.5,1.5,3.3,2.2,5.4,2.2
				c2.1,0,3.9-0.7,5.4-2.2C568.9,237.5,569.6,236.2,569.9,234.9z"/>
			<path class="st24" d="M585.3,210.5v34.4h-4.5v-34.4H585.3z"/>
			<path class="st24" d="M624.4,237.3l4.4,1.6c-1.1,1.5-1.9,2.5-2.4,3c-2.4,2.4-5.3,3.6-8.7,3.6c-3.4,0-6.2-1.2-8.6-3.6
				c-2.4-2.4-3.6-5.3-3.6-8.7c0-3.4,1.2-6.3,3.6-8.7c2.4-2.4,5.3-3.6,8.6-3.6c3.4,0,6.3,1.2,8.7,3.6c0.5,0.5,1.3,1.5,2.4,2.9
				l-4.4,1.6c-0.6-0.7-1-1.2-1.2-1.4c-1.5-1.5-3.3-2.2-5.4-2.2c-2.1,0-3.9,0.7-5.4,2.2c-1.5,1.5-2.2,3.3-2.2,5.4
				c0,2.1,0.7,3.9,2.2,5.4c1.5,1.5,3.3,2.2,5.4,2.2c2.1,0,3.9-0.7,5.4-2.2C623.5,238.4,623.8,238,624.4,237.3z"/>
			<path class="st24" d="M645,221c3.4,0,6.3,1.2,8.6,3.6c2.4,2.4,3.6,5.3,3.6,8.7c0,3.4-1.2,6.3-3.6,8.7c-2.4,2.4-5.3,3.6-8.6,3.6
				c-3.4,0-6.2-1.2-8.6-3.6c-2.4-2.4-3.6-5.3-3.6-8.7c0-3.4,1.2-6.3,3.6-8.7C638.7,222.2,641.6,221,645,221z M639.5,227.8
				c-1.5,1.5-2.2,3.3-2.2,5.4c0,2.1,0.7,3.9,2.2,5.4c1.5,1.5,3.3,2.2,5.4,2.2c2.1,0,3.9-0.7,5.4-2.2c1.5-1.5,2.2-3.3,2.2-5.4
				c0-2.1-0.7-3.9-2.2-5.4c-1.5-1.5-3.3-2.3-5.4-2.3C642.8,225.5,641,226.3,639.5,227.8z"/>
			<path class="st24" d="M662.3,222.8h4.4v2.1c0.9-2.2,2.5-3.2,5-3.2c2.4,0,3.8,1.2,4.1,3.7c0.7-2.5,2.6-3.7,5.8-3.7
				c3.1,0,4.7,1.9,4.7,5.7v17.6h-4.5v-15.6c0-2.2-0.9-3.3-2.6-3.3c-0.7,0-1.4,0.3-1.9,0.8c-0.5,0.5-0.8,2.2-0.8,5.2v12.8h-4.4
				l0-15.6c0-2.2-0.9-3.3-2.7-3.3c-0.7,0-1.4,0.3-1.9,0.8c-0.5,0.4-0.7,1.6-0.8,3.5v14.5h-4.4V222.8z"/>
			<path class="st24" d="M703.7,221c3.4,0,6.3,1.2,8.6,3.6c2.4,2.4,3.6,5.3,3.6,8.7c0,3.4-1.2,6.3-3.6,8.7c-2.4,2.4-5.3,3.6-8.6,3.6
				c-3.4,0-6.2-1.2-8.6-3.6c-2.4-2.4-3.6-5.3-3.6-8.7c0-3.4,1.2-6.3,3.6-8.7C697.5,222.2,700.4,221,703.7,221z M698.3,227.8
				c-1.5,1.5-2.2,3.3-2.2,5.4c0,2.1,0.7,3.9,2.2,5.4c1.5,1.5,3.3,2.2,5.4,2.2c2.1,0,3.9-0.7,5.4-2.2c1.5-1.5,2.2-3.3,2.2-5.4
				c0-2.1-0.7-3.9-2.2-5.4c-1.5-1.5-3.3-2.3-5.4-2.3C701.6,225.5,699.8,226.3,698.3,227.8z"/>
			<path class="st24" d="M740.8,240.1c0.5,0.5,1.2,0.8,1.9,0.8s1.4-0.3,1.9-0.8c0.5-0.5,0.8-1.2,0.8-1.9c0-0.7-0.3-1.4-0.8-1.9
				c-0.4-0.4-1.1-0.9-2.3-1.7c-1.6-0.9-2.7-1.6-3.4-2.3c-1.2-1.2-1.8-2.6-1.8-4.2c0-1.7,0.6-3.1,1.8-4.3c1.2-1.2,2.6-1.8,4.3-1.8
				c1.7,0,3,0.6,4.1,1.7c0.8,0.8,1.3,1.7,1.5,2.6l-4.3,1.2c-0.1-0.4-0.2-0.6-0.3-0.7c-0.3-0.3-0.6-0.4-1-0.4s-0.8,0.2-1.1,0.5
				c-0.3,0.3-0.5,0.7-0.5,1.1s0.2,0.8,0.5,1.1c0.3,0.3,0.9,0.7,1.8,1.3c1.8,1,3.1,1.9,3.9,2.7c1.4,1.4,2.1,3.1,2.1,5
				c0,2-0.7,3.7-2.1,5.1c-1.4,1.4-3.1,2.1-5,2.1c-2,0-3.6-0.7-5-2.1c-1-1-1.6-2.2-1.9-3.6l4.4-0.9
				C740.3,239.4,740.5,239.9,740.8,240.1z"/>
			<path class="st24" d="M766.2,221c3.4,0,6.3,1.2,8.6,3.6c2.4,2.4,3.6,5.3,3.6,8.7c0,3.4-1.2,6.3-3.6,8.7c-2.4,2.4-5.3,3.6-8.6,3.6
				c-3.4,0-6.2-1.2-8.6-3.6c-2.4-2.4-3.6-5.3-3.6-8.7c0-3.4,1.2-6.3,3.6-8.7C760,222.2,762.9,221,766.2,221z M760.8,227.8
				c-1.5,1.5-2.2,3.3-2.2,5.4c0,2.1,0.7,3.9,2.2,5.4c1.5,1.5,3.3,2.2,5.4,2.2c2.1,0,3.9-0.7,5.4-2.2c1.5-1.5,2.2-3.3,2.2-5.4
				c0-2.1-0.7-3.9-2.2-5.4c-1.5-1.5-3.3-2.3-5.4-2.3C764.1,225.5,762.3,226.3,760.8,227.8z"/>
			<path class="st24" d="M788.6,252.3h-4.7l5.9-12.4l-8.2-17.2h5l5.6,12.1l5.6-12.1h5L788.6,252.3z"/>
			<path class="st24" d="M809.8,238.9l-5,10.3h-4.2l2.8-10.3H809.8z"/>
			<path class="st24" d="M114.5,292.7c0.7,0.7,2.1,1,4.1,1c2.1,0,3.9-0.7,5.4-2.2c0.2-0.2,0.6-0.6,1.1-1.3l4.4,1.6
				c-1.1,1.5-1.9,2.5-2.4,3c-2.4,2.4-5.3,3.6-8.7,3.6c-3.4,0-6.2-1.2-8.6-3.6c-2.4-2.4-3.6-5.3-3.6-8.7c0-3.4,1.2-6.3,3.6-8.7
				c2.4-2.4,5.3-3.6,8.6-3.6c2.9,0,5.4,0.9,7.6,2.6c0.4,0.3,0.7,0.6,1.1,1c0.1,0.1,0.6,0.6,1.2,1.4l-2.2,2.3L114.5,292.7z
				 M122,278.9c-0.5-0.4-1.6-0.6-3.4-0.6c-2.1,0-3.9,0.7-5.4,2.2c-1.5,1.5-2.2,3.3-2.2,5.4c0,1.7,0.2,2.9,0.6,3.4L122,278.9z"/>
			<path class="st24" d="M139.2,281.5v16.2h-4.5v-22.1h4.5v2.6c0.9-2.5,2.8-3.8,5.6-3.8c2.4,0,4.3,0.8,5.7,2.5
				c1.4,1.7,2.1,3.8,2.2,6.4v14.4h-4.4v-14.2c0-1.3-0.5-2.4-1.4-3.3c-0.9-0.9-2-1.4-3.3-1.4c-1.3,0-2.4,0.4-3.3,1.3
				C139.7,280.7,139.4,281.1,139.2,281.5z"/>
			<path class="st24" d="M161.9,275.6v-8.3h4.4v8.3h4v4.4h-4v17.7h-4.4V280h-4v-4.4H161.9z"/>
			<path class="st24" d="M186.5,273.8c3.4,0,6.3,1.2,8.6,3.6c2.4,2.4,3.6,5.3,3.6,8.7c0,3.4-1.2,6.3-3.6,8.7
				c-2.4,2.4-5.3,3.6-8.6,3.6c-3.4,0-6.2-1.2-8.6-3.6c-2.4-2.4-3.6-5.3-3.6-8.7c0-3.4,1.2-6.3,3.6-8.7
				C180.2,275,183.1,273.8,186.5,273.8z M181,280.6c-1.5,1.5-2.2,3.3-2.2,5.4c0,2.1,0.7,3.9,2.2,5.4c1.5,1.5,3.3,2.2,5.4,2.2
				c2.1,0,3.9-0.7,5.4-2.2c1.5-1.5,2.2-3.3,2.2-5.4c0-2.1-0.7-3.9-2.2-5.4c-1.5-1.5-3.3-2.3-5.4-2.3
				C184.3,278.3,182.5,279.1,181,280.6z"/>
			<path class="st24" d="M208.3,281.5v16.2h-4.5v-22.1h4.5v2.6c0.9-2.5,2.8-3.8,5.6-3.8c2.4,0,4.3,0.8,5.7,2.5
				c1.4,1.7,2.1,3.8,2.2,6.4v14.4h-4.4v-14.2c0-1.3-0.5-2.4-1.4-3.3c-0.9-0.9-2-1.4-3.3-1.4c-1.3,0-2.4,0.4-3.3,1.3
				C208.8,280.7,208.5,281.1,208.3,281.5z"/>
			<path class="st24" d="M245.8,290.1l4.4,1.6c-1.1,1.5-1.9,2.5-2.4,3c-2.4,2.4-5.3,3.6-8.7,3.6c-3.4,0-6.2-1.2-8.6-3.6
				c-2.4-2.4-3.6-5.3-3.6-8.7c0-3.4,1.2-6.3,3.6-8.7c2.4-2.4,5.3-3.6,8.6-3.6c3.4,0,6.3,1.2,8.7,3.6c0.5,0.5,1.3,1.5,2.4,2.9
				l-4.4,1.6c-0.6-0.7-1-1.2-1.2-1.4c-1.5-1.5-3.3-2.2-5.4-2.2c-2.1,0-3.9,0.7-5.4,2.2c-1.5,1.5-2.2,3.3-2.2,5.4
				c0,2.1,0.7,3.9,2.2,5.4c1.5,1.5,3.3,2.2,5.4,2.2c2.1,0,3.9-0.7,5.4-2.2C244.9,291.2,245.3,290.8,245.8,290.1z"/>
			<path class="st24" d="M262.3,292.7c0.7,0.7,2.1,1,4.1,1c2.1,0,3.9-0.7,5.4-2.2c0.2-0.2,0.6-0.6,1.1-1.3l4.4,1.6
				c-1.1,1.5-1.9,2.5-2.4,3c-2.4,2.4-5.3,3.6-8.7,3.6c-3.4,0-6.2-1.2-8.6-3.6c-2.4-2.4-3.6-5.3-3.6-8.7c0-3.4,1.2-6.3,3.6-8.7
				c2.4-2.4,5.3-3.6,8.6-3.6c2.9,0,5.4,0.9,7.6,2.6c0.4,0.3,0.7,0.6,1.1,1c0.1,0.1,0.6,0.6,1.2,1.4L274,281L262.3,292.7z
				 M269.7,278.9c-0.5-0.4-1.6-0.6-3.4-0.6c-2.1,0-3.9,0.7-5.4,2.2c-1.5,1.5-2.2,3.3-2.2,5.4c0,1.7,0.2,2.9,0.6,3.4L269.7,278.9z"/>
			<path class="st24" d="M287,292.9c0.5,0.5,1.2,0.8,1.9,0.8s1.4-0.3,1.9-0.8c0.5-0.5,0.8-1.2,0.8-1.9c0-0.7-0.3-1.4-0.8-1.9
				c-0.4-0.4-1.1-0.9-2.3-1.7c-1.6-0.9-2.7-1.6-3.4-2.3c-1.2-1.2-1.8-2.6-1.8-4.2c0-1.7,0.6-3.1,1.8-4.3c1.2-1.2,2.6-1.8,4.3-1.8
				c1.7,0,3,0.6,4.1,1.7c0.8,0.8,1.3,1.7,1.5,2.6l-4.3,1.2c-0.1-0.4-0.2-0.6-0.3-0.7c-0.3-0.3-0.6-0.4-1-0.4s-0.8,0.2-1.1,0.5
				c-0.3,0.3-0.5,0.7-0.5,1.1s0.2,0.8,0.5,1.1c0.3,0.3,0.9,0.7,1.8,1.3c1.8,1,3.1,1.9,3.9,2.7c1.4,1.4,2.1,3.1,2.1,5
				c0,2-0.7,3.7-2.1,5.1c-1.4,1.4-3.1,2.1-5,2.1c-2,0-3.6-0.7-5-2.1c-1-1-1.6-2.2-1.9-3.6l4.4-0.9
				C286.5,292.2,286.7,292.7,287,292.9z"/>
			<path class="st24" d="M321.1,294.9v10.2h-4.4v-29.5h4.4v2c2.1-2.5,4.6-3.8,7.5-3.8c3.4,0,6.3,1.2,8.6,3.6s3.6,5.3,3.6,8.6
				c0,3.4-1.2,6.3-3.6,8.7c-2.4,2.4-5.3,3.6-8.6,3.6C325.8,298.3,323.3,297.1,321.1,294.9z M321.1,284.3v3.5c0.3,1.4,1,2.6,2.1,3.7
				c1.5,1.5,3.3,2.2,5.4,2.2c2.1,0,3.9-0.7,5.4-2.2c1.5-1.5,2.2-3.3,2.2-5.4c0-2.1-0.7-3.9-2.2-5.4c-1.5-1.5-3.3-2.3-5.4-2.3
				c-2.1,0-3.9,0.8-5.4,2.3C322.1,281.7,321.4,282.9,321.1,284.3z"/>
			<path class="st24" d="M355.6,298c-2.8,0-5-0.9-6.7-2.6c-1.7-1.7-2.6-3.8-2.6-6.4v-13.4h4.5v13.3c0,1.3,0.5,2.4,1.4,3.3
				c0.9,0.9,2.1,1.4,3.5,1.4c1.3,0,2.4-0.5,3.3-1.4c0.9-0.9,1.4-2,1.4-3.3v-13.3h4.4V289c0,2.6-0.9,4.7-2.6,6.4
				C360.5,297.1,358.3,298,355.6,298z"/>
			<path class="st24" d="M378.1,292.7c0.7,0.7,2.1,1,4.1,1c2.1,0,3.9-0.7,5.4-2.2c0.2-0.2,0.6-0.6,1.1-1.3l4.4,1.6
				c-1.1,1.5-1.9,2.5-2.4,3c-2.4,2.4-5.3,3.6-8.7,3.6c-3.4,0-6.2-1.2-8.6-3.6c-2.4-2.4-3.6-5.3-3.6-8.7c0-3.4,1.2-6.3,3.6-8.7
				c2.4-2.4,5.3-3.6,8.6-3.6c2.9,0,5.4,0.9,7.6,2.6c0.4,0.3,0.7,0.6,1.1,1c0.1,0.1,0.6,0.6,1.2,1.4l-2.2,2.3L378.1,292.7z
				 M385.5,278.9c-0.5-0.4-1.6-0.6-3.4-0.6c-2.1,0-3.9,0.7-5.4,2.2c-1.5,1.5-2.2,3.3-2.2,5.4c0,1.7,0.2,2.9,0.6,3.4L385.5,278.9z"/>
			<path class="st24" d="M417.5,277.1v-13.8h4.5v34.4h-4.5v-2.8c-2.1,2.2-4.6,3.3-7.5,3.3c-3.4,0-6.3-1.2-8.6-3.6
				c-2.4-2.4-3.6-5.3-3.6-8.7c0-3.4,1.2-6.3,3.6-8.7c2.4-2.4,5.3-3.6,8.6-3.6C412.9,273.8,415.4,274.9,417.5,277.1z M417.5,287.7
				v-3.3c-0.3-1.4-1-2.6-2.1-3.8c-1.5-1.5-3.3-2.3-5.4-2.3c-2.1,0-3.9,0.8-5.4,2.3c-1.5,1.5-2.2,3.3-2.2,5.4c0,2.1,0.7,3.9,2.2,5.4
				c1.5,1.5,3.3,2.2,5.4,2.2c2.1,0,3.9-0.7,5.4-2.2C416.6,290.3,417.2,289,417.5,287.7z"/>
			<path class="st24" d="M439.4,273.8c3.4,0,6.3,1.2,8.6,3.6c2.4,2.4,3.6,5.3,3.6,8.7c0,3.4-1.2,6.3-3.6,8.7
				c-2.4,2.4-5.3,3.6-8.6,3.6c-3.4,0-6.2-1.2-8.6-3.6c-2.4-2.4-3.6-5.3-3.6-8.7c0-3.4,1.2-6.3,3.6-8.7
				C433.1,275,436,273.8,439.4,273.8z M433.9,280.6c-1.5,1.5-2.2,3.3-2.2,5.4c0,2.1,0.7,3.9,2.2,5.4c1.5,1.5,3.3,2.2,5.4,2.2
				c2.1,0,3.9-0.7,5.4-2.2c1.5-1.5,2.2-3.3,2.2-5.4c0-2.1-0.7-3.9-2.2-5.4c-1.5-1.5-3.3-2.3-5.4-2.3
				C437.2,278.3,435.4,279.1,433.9,280.6z"/>
			<path class="st24" d="M489.5,290.1l4.4,1.6c-1.1,1.5-1.9,2.5-2.4,3c-2.4,2.4-5.3,3.6-8.7,3.6c-3.4,0-6.2-1.2-8.6-3.6
				c-2.4-2.4-3.6-5.3-3.6-8.7c0-3.4,1.2-6.3,3.6-8.7c2.4-2.4,5.3-3.6,8.6-3.6c3.4,0,6.3,1.2,8.7,3.6c0.5,0.5,1.3,1.5,2.4,2.9
				l-4.4,1.6c-0.6-0.7-1-1.2-1.2-1.4c-1.5-1.5-3.3-2.2-5.4-2.2c-2.1,0-3.9,0.7-5.4,2.2c-1.5,1.5-2.2,3.3-2.2,5.4
				c0,2.1,0.7,3.9,2.2,5.4c1.5,1.5,3.3,2.2,5.4,2.2c2.1,0,3.9-0.7,5.4-2.2C488.5,291.2,488.9,290.8,489.5,290.1z"/>
			<path class="st24" d="M518.2,277.1v-1.5h4.5v22.1h-4.5v-2.8c-2.1,2.2-4.6,3.3-7.5,3.3c-3.4,0-6.3-1.2-8.6-3.6s-3.6-5.3-3.6-8.6
				c0-3.4,1.2-6.3,3.6-8.6s5.3-3.6,8.6-3.6C513.6,273.8,516.1,274.9,518.2,277.1z M518.2,287.7v-3.3c-0.3-1.4-0.9-2.6-2.1-3.8
				c-1.5-1.5-3.3-2.2-5.4-2.2c-2.1,0-3.9,0.7-5.4,2.2c-1.5,1.5-2.2,3.3-2.2,5.4c0,2.1,0.7,3.9,2.2,5.4c1.5,1.5,3.3,2.2,5.4,2.2
				c2.1,0,3.9-0.7,5.4-2.2C517.3,290.3,518,289,518.2,287.7z"/>
			<path class="st24" d="M529.2,275.6h4.4v2.1c0.9-2.2,2.5-3.2,5-3.2c2.4,0,3.8,1.2,4.1,3.7c0.7-2.5,2.6-3.7,5.8-3.7
				c3.1,0,4.7,1.9,4.7,5.7v17.6h-4.5v-15.6c0-2.2-0.9-3.3-2.6-3.3c-0.7,0-1.4,0.3-1.9,0.8c-0.5,0.5-0.8,2.2-0.8,5.2v12.8h-4.4
				l0-15.6c0-2.2-0.9-3.3-2.7-3.3c-0.7,0-1.4,0.3-1.9,0.8c-0.5,0.4-0.7,1.6-0.8,3.5v14.5h-4.4V275.6z"/>
			<path class="st24" d="M564.1,294.9v2.8h-4.4v-34.4h4.4v13.8c2.1-2.2,4.6-3.3,7.5-3.3c3.4,0,6.3,1.2,8.6,3.6
				c2.4,2.4,3.6,5.3,3.6,8.7c0,3.4-1.2,6.3-3.6,8.7c-2.4,2.4-5.3,3.6-8.6,3.6C568.7,298.3,566.2,297.1,564.1,294.9z M564.1,284.3
				v3.5c0.3,1.3,1,2.6,2.1,3.7c1.5,1.5,3.3,2.2,5.4,2.2c2.1,0,3.9-0.7,5.4-2.2c1.5-1.5,2.2-3.3,2.2-5.4c0-2.1-0.7-3.9-2.2-5.4
				c-1.5-1.5-3.3-2.3-5.4-2.3c-2.1,0-3.9,0.8-5.4,2.3C565,281.7,564.3,282.9,564.1,284.3z"/>
			<path class="st24" d="M594.5,267.4c0.6,0.6,0.9,1.3,0.9,2.2c0,0.9-0.3,1.6-0.9,2.2c-0.6,0.6-1.4,0.9-2.2,0.9
				c-0.8,0-1.6-0.3-2.2-0.9c-0.6-0.6-0.9-1.3-0.9-2.2c0-0.9,0.3-1.6,0.9-2.2c0.6-0.6,1.3-0.9,2.2-0.9
				C593.1,266.5,593.9,266.8,594.5,267.4z M594.5,275.6v22.1h-4.4v-22.1H594.5z"/>
			<path class="st24" d="M620.5,277.1v-1.5h4.5v22.1h-4.5v-2.8c-2.1,2.2-4.6,3.3-7.5,3.3c-3.4,0-6.3-1.2-8.6-3.6s-3.6-5.3-3.6-8.6
				c0-3.4,1.2-6.3,3.6-8.6s5.3-3.6,8.6-3.6C615.8,273.8,618.3,274.9,620.5,277.1z M620.5,287.7v-3.3c-0.3-1.4-0.9-2.6-2.1-3.8
				c-1.5-1.5-3.3-2.2-5.4-2.2c-2.1,0-3.9,0.7-5.4,2.2c-1.5,1.5-2.2,3.3-2.2,5.4c0,2.1,0.7,3.9,2.2,5.4c1.5,1.5,3.3,2.2,5.4,2.2
				c2.1,0,3.9-0.7,5.4-2.2C619.5,290.3,620.2,289,620.5,287.7z"/>
			<path class="st24" d="M635.9,278.6c1.7-2.2,3.7-3.4,6.1-3.5v4.6c-1.6,0.1-2.9,0.6-3.9,1.6c-1.4,1.4-2.2,3.1-2.3,5.1v11.4h-4.4
				v-22.1h4.4V278.6z"/>
			<path class="st24" d="M648.7,268.4c-0.6-0.6-0.9-1.3-0.9-2.2c0-0.9,0.3-1.6,0.9-2.2c0.6-0.6,1.3-0.9,2.2-0.9
				c0.8,0,1.6,0.3,2.2,0.9c0.6,0.6,0.9,1.3,0.9,2.2c0,0.5-0.1,0.9-0.3,1.3l-2.3,4.7h-4.1L648.7,268.4z M655.9,268.4
				c-0.6-0.6-0.9-1.3-0.9-2.2c0-0.9,0.3-1.6,0.9-2.2c0.6-0.6,1.3-0.9,2.2-0.9c0.8,0,1.6,0.3,2.2,0.9c0.6,0.6,0.9,1.3,0.9,2.2
				c0,0.5-0.1,0.9-0.3,1.3l-2.3,4.7h-4.1L655.9,268.4z"/>
			<path class="st24" d="M669.8,292.6c0.6,0.6,0.9,1.3,0.9,2.2c0,0.9-0.3,1.6-0.9,2.2c-0.6,0.6-1.3,0.9-2.2,0.9
				c-0.8,0-1.6-0.3-2.2-0.9c-0.6-0.6-0.9-1.3-0.9-2.2c0-0.9,0.3-1.6,0.9-2.2c0.6-0.6,1.3-0.9,2.2-0.9
				C668.4,291.7,669.2,292,669.8,292.6z"/>
		</g>
	</g>
	<g>
		<g>
			<g>
				<path class="st2" d="M111,142.5c0.6,0.6,0.9,1.4,0.9,2.3c0,0.9-0.3,1.6-0.9,2.2s-1.4,0.9-2.3,0.9c-0.9,0-1.6-0.3-2.2-0.9
					s-0.9-1.4-0.9-2.2c0-0.5,0.1-0.9,0.3-1.4l2.4-4.8h4.2L111,142.5z M118.3,142.5c0.6,0.6,0.9,1.4,0.9,2.3c0,0.9-0.3,1.6-0.9,2.2
					c-0.6,0.6-1.4,0.9-2.3,0.9c-0.9,0-1.6-0.3-2.2-0.9s-0.9-1.4-0.9-2.2c0-0.5,0.1-0.9,0.3-1.4l2.4-4.8h4.2L118.3,142.5z"/>
				<path class="st2" d="M116.1,148.5c-1,0-1.9-0.4-2.6-1.1c-0.6-0.6-1-1.3-1.1-2.1c-0.1,0.8-0.5,1.5-1.1,2.1
					c-0.7,0.7-1.6,1.1-2.6,1.1c-1,0-1.9-0.4-2.6-1.1c-0.7-0.7-1.1-1.6-1.1-2.6c0-0.5,0.1-1.1,0.3-1.5l2.5-5.1h5.2l-1.5,4.3
					c0.5,0.5,0.7,1.2,0.8,1.9c0-0.4,0.1-0.7,0.3-1.1l2.5-5.1h5.2l-1.5,4.3c0.6,0.7,0.9,1.5,0.9,2.4c0,1-0.4,1.9-1.1,2.6
					C117.9,148.1,117.1,148.5,116.1,148.5z M115.8,139.1l-2.2,4.5c-0.1,0.3-0.2,0.7-0.2,1.1c0,0.7,0.3,1.4,0.8,1.9
					c0.5,0.5,1.2,0.8,1.9,0.8c0.7,0,1.4-0.3,1.9-0.8c0.5-0.5,0.8-1.1,0.8-1.9c0-0.8-0.3-1.4-0.8-1.9l-0.2-0.2l1.2-3.5H115.8z
					 M108.5,139.1l-2.2,4.5c-0.1,0.3-0.2,0.7-0.2,1.1c0,0.7,0.3,1.4,0.8,1.9c0.5,0.5,1.2,0.8,1.9,0.8c0.7,0,1.4-0.3,1.9-0.8
					c0.5-0.5,0.8-1.1,0.8-1.9c0-0.8-0.3-1.4-0.8-1.9l-0.2-0.2l1.2-3.5H108.5z"/>
			</g>
			<g>
				<path class="st2" d="M124.9,174v-35.2h4.5v30.6H142v4.6H124.9z"/>
				<path class="st2" d="M142.5,174.5h-18.1v-36.2h5.5v30.6h12.6V174.5z M125.4,173.5h16.1v-3.6H129v-30.6h-3.5V173.5z"/>
			</g>
			<g>
				<path class="st2" d="M165.5,153v-1.6h4.6V174h-4.6v-2.8c-2.2,2.3-4.7,3.4-7.6,3.4c-3.5,0-6.4-1.2-8.8-3.7
					c-2.4-2.4-3.7-5.4-3.7-8.8s1.2-6.4,3.7-8.8c2.4-2.4,5.4-3.7,8.8-3.7C160.8,149.6,163.3,150.7,165.5,153z M165.5,163.8v-3.3
					c-0.3-1.4-1-2.7-2.1-3.9c-1.5-1.5-3.4-2.3-5.5-2.3c-2.2,0-4,0.8-5.5,2.3c-1.5,1.5-2.3,3.4-2.3,5.5c0,2.2,0.8,4,2.3,5.5
					c1.5,1.5,3.4,2.3,5.5,2.3c2.2,0,4-0.8,5.5-2.3C164.6,166.5,165.3,165.2,165.5,163.8z"/>
				<path class="st2" d="M157.9,175.1c-3.6,0-6.7-1.3-9.2-3.8c-2.5-2.5-3.8-5.6-3.8-9.2s1.3-6.7,3.8-9.2c2.5-2.5,5.6-3.8,9.2-3.8
					c2.7,0,5.1,0.9,7.1,2.7v-0.9h5.6v23.6H165v-2.2C162.9,174.2,160.5,175.1,157.9,175.1z M157.9,150.1c-3.3,0-6.2,1.2-8.5,3.5
					c-2.3,2.3-3.5,5.2-3.5,8.5s1.2,6.2,3.5,8.5c2.3,2.3,5.2,3.5,8.5,3.5c2.7,0,5.2-1.1,7.3-3.3l0.9-0.9v3.6h3.6v-21.6H166v2.3
					l-0.9-0.9C163.1,151.2,160.6,150.1,157.9,150.1z M157.9,170.4c-2.3,0-4.3-0.8-5.9-2.4c-1.6-1.6-2.4-3.6-2.4-5.9
					c0-2.3,0.8-4.3,2.4-5.9c1.6-1.6,3.6-2.4,5.9-2.4c2.3,0,4.3,0.8,5.9,2.4c1.2,1.2,2,2.6,2.2,4.1l0,3.5l0,0c-0.3,1.5-1,2.9-2.2,4.1
					C162.1,169.6,160.2,170.4,157.9,170.4z M157.9,154.8c-2,0-3.7,0.7-5.2,2.1c-1.4,1.4-2.1,3.1-2.1,5.2c0,2,0.7,3.7,2.1,5.2
					c1.4,1.4,3.1,2.1,5.2,2.1c2,0,3.7-0.7,5.2-2.1c1-1.1,1.7-2.3,2-3.6v-3.3c-0.2-1.2-0.9-2.4-2-3.5
					C161.6,155.5,159.9,154.8,157.9,154.8z"/>
			</g>
			<g>
				<path class="st2" d="M210.2,166.2l4.5,1.6c-1.1,1.5-1.9,2.6-2.4,3.1c-2.4,2.4-5.4,3.7-8.9,3.7c-3.4,0-6.4-1.2-8.8-3.7
					s-3.7-5.4-3.7-8.9s1.2-6.4,3.7-8.9s5.4-3.7,8.8-3.7c3.5,0,6.4,1.2,8.9,3.7c0.5,0.5,1.3,1.5,2.4,3l-4.5,1.7
					c-0.6-0.7-1-1.2-1.2-1.4c-1.5-1.5-3.4-2.3-5.5-2.3c-2.2,0-4,0.8-5.5,2.3c-1.5,1.5-2.3,3.4-2.3,5.5c0,2.2,0.8,4,2.3,5.5
					c1.5,1.5,3.4,2.3,5.5,2.3c2.2,0,4-0.8,5.6-2.3C209.2,167.4,209.6,166.9,210.2,166.2z"/>
				<path class="st2" d="M203.4,175.1c-3.6,0-6.7-1.3-9.2-3.8c-2.5-2.5-3.8-5.6-3.8-9.2c0-3.6,1.3-6.7,3.8-9.2
					c2.5-2.5,5.6-3.8,9.2-3.8c3.6,0,6.7,1.3,9.2,3.8c0.5,0.5,1.3,1.5,2.5,3.1l0.4,0.5l-5.5,2l-0.2-0.3c-0.7-0.9-1-1.2-1.2-1.3
					c-1.4-1.4-3.1-2.1-5.2-2.1c-2,0-3.7,0.7-5.2,2.1c-1.4,1.4-2.1,3.1-2.1,5.2c0,2,0.7,3.7,2.1,5.2c1.4,1.4,3.1,2.1,5.2,2.1
					c2,0,3.8-0.7,5.2-2.1c0.2-0.2,0.6-0.6,1.1-1.3l0.2-0.3l5.5,2l-0.4,0.5c-1.1,1.6-1.9,2.6-2.5,3.1
					C210.1,173.8,207,175.1,203.4,175.1z M203.4,150c-3.3,0-6.1,1.2-8.5,3.5c-2.3,2.3-3.5,5.2-3.5,8.5c0,3.3,1.2,6.2,3.5,8.5
					c2.3,2.3,5.2,3.5,8.5,3.5c3.3,0,6.2-1.2,8.5-3.5c0.4-0.4,1.1-1.2,2-2.5l-3.6-1.3c-0.5,0.6-0.8,0.9-1,1.1
					c-1.6,1.6-3.6,2.4-5.9,2.4c-2.3,0-4.3-0.8-5.9-2.4c-1.6-1.6-2.4-3.6-2.4-5.9c0-2.3,0.8-4.3,2.4-5.9c1.6-1.6,3.6-2.4,5.9-2.4
					c2.3,0,4.3,0.8,5.9,2.4c0.2,0.2,0.5,0.6,1,1.1l3.6-1.3c-0.9-1.2-1.6-2-2-2.4C209.6,151.2,206.7,150,203.4,150z"/>
			</g>
			<g>
				<path class="st2" d="M229.6,174.3c-2.9,0-5.2-0.9-6.9-2.6s-2.6-3.9-2.7-6.5v-13.8h4.6V165c0,1.3,0.5,2.4,1.4,3.4
					s2.1,1.4,3.6,1.4c1.3,0,2.4-0.5,3.4-1.4c1-0.9,1.4-2.1,1.4-3.4v-13.6h4.5v13.8c0,2.6-0.9,4.8-2.7,6.5
					C234.5,173.4,232.3,174.3,229.6,174.3z"/>
				<path class="st2" d="M229.6,174.8c-3,0-5.4-0.9-7.3-2.8c-1.8-1.8-2.8-4.1-2.8-6.9v-14.3h5.6V165c0,1.2,0.4,2.2,1.3,3
					c0.9,0.8,1.9,1.3,3.2,1.3c1.2,0,2.2-0.4,3-1.3c0.9-0.8,1.3-1.8,1.3-3v-14.1h5.5v14.3c0,2.8-1,5.1-2.8,6.9
					C234.8,173.9,232.4,174.8,229.6,174.8z M220.5,151.9v13.3c0,2.5,0.9,4.6,2.5,6.2c1.6,1.6,3.8,2.5,6.5,2.5c2.6,0,4.7-0.8,6.3-2.5
					c1.6-1.6,2.5-3.7,2.5-6.2v-13.2h-3.5V165c0,1.5-0.5,2.7-1.6,3.7c-1.1,1-2.3,1.5-3.7,1.5c-1.6,0-2.9-0.5-3.9-1.5
					c-1-1-1.6-2.3-1.6-3.7v-13.1H220.5z"/>
			</g>
			<g>
				<path class="st2" d="M250.1,154.4c1.7-2.3,3.8-3.5,6.3-3.6v4.7c-1.7,0.1-3,0.6-4,1.6c-1.5,1.5-2.2,3.2-2.3,5.2V174h-4.5v-22.6
					h4.5V154.4z"/>
				<path class="st2" d="M250.6,174.5H245v-23.6h5.5v2.2c1.6-1.7,3.5-2.6,5.7-2.7l0.5,0v5.7l-0.5,0c-1.5,0.1-2.7,0.6-3.6,1.5
					c-1.4,1.4-2.1,3-2.2,4.9L250.6,174.5z M246,173.5h3.5v-11.1c0.1-2.2,0.9-4,2.5-5.6c1-1,2.2-1.5,3.8-1.7v-3.7
					c-2.1,0.2-3.9,1.4-5.4,3.4l-0.9,1.2v-4.1H246V173.5z"/>
			</g>
			<g>
				<path class="st2" d="M266.1,143c0.6,0.6,0.9,1.4,0.9,2.3s-0.3,1.6-0.9,2.3s-1.4,0.9-2.3,0.9c-0.9,0-1.6-0.3-2.2-0.9
					s-0.9-1.4-0.9-2.3s0.3-1.6,0.9-2.3s1.4-0.9,2.2-0.9C264.7,142.1,265.5,142.4,266.1,143z M266.1,151.4V174h-4.5v-22.6H266.1z"/>
				<path class="st2" d="M266.6,174.5h-5.5v-23.6h5.5V174.5z M262.1,173.5h3.5v-21.6h-3.5V173.5z M263.8,149c-1,0-1.9-0.4-2.6-1.1
					c-0.7-0.7-1.1-1.6-1.1-2.6c0-1,0.4-1.9,1.1-2.6c0.7-0.7,1.6-1.1,2.6-1.1c1,0,1.9,0.4,2.6,1.1c0.7,0.7,1.1,1.6,1.1,2.6
					c0,1-0.4,1.9-1.1,2.6C265.7,148.6,264.8,149,263.8,149z M263.8,142.6c-0.7,0-1.4,0.3-1.9,0.8c-0.5,0.5-0.8,1.1-0.8,1.9
					s0.3,1.4,0.8,1.9c0.5,0.5,1.2,0.8,1.9,0.8c0.7,0,1.4-0.3,1.9-0.8c0.5-0.5,0.8-1.1,0.8-1.9s-0.3-1.4-0.8-1.9
					C265.2,142.9,264.6,142.6,263.8,142.6z"/>
			</g>
			<g>
				<path class="st2" d="M284.3,149.5c3.5,0,6.4,1.2,8.8,3.7c2.4,2.4,3.7,5.4,3.7,8.9s-1.2,6.4-3.7,8.9c-2.4,2.4-5.4,3.7-8.8,3.7
					c-3.4,0-6.4-1.2-8.8-3.7s-3.7-5.4-3.7-8.9s1.2-6.4,3.7-8.9S280.8,149.5,284.3,149.5z M278.7,156.5c-1.5,1.5-2.3,3.4-2.3,5.5
					c0,2.2,0.8,4,2.3,5.5c1.5,1.5,3.4,2.3,5.5,2.3s4-0.8,5.5-2.3c1.5-1.5,2.3-3.4,2.3-5.5c0-2.2-0.8-4-2.3-5.5
					c-1.5-1.5-3.4-2.3-5.5-2.3S280.2,155,278.7,156.5z"/>
				<path class="st2" d="M284.3,175.1c-3.6,0-6.7-1.3-9.2-3.8c-2.5-2.5-3.8-5.6-3.8-9.2s1.3-6.7,3.8-9.2c2.5-2.5,5.6-3.8,9.2-3.8
					c3.6,0,6.7,1.3,9.2,3.8c2.5,2.5,3.8,5.6,3.8,9.2c0,3.6-1.3,6.7-3.8,9.2C290.9,173.8,287.8,175.1,284.3,175.1z M284.3,150
					c-3.3,0-6.1,1.2-8.5,3.5c-2.3,2.3-3.5,5.2-3.5,8.5c0,3.3,1.2,6.2,3.5,8.5c2.3,2.3,5.2,3.5,8.5,3.5c3.3,0,6.2-1.2,8.5-3.5
					s3.5-5.2,3.5-8.5c0-3.3-1.2-6.2-3.5-8.5C290.4,151.2,287.6,150,284.3,150z M284.3,170.4c-2.3,0-4.3-0.8-5.9-2.4
					c-1.6-1.6-2.4-3.6-2.4-5.9c0-2.3,0.8-4.3,2.4-5.9h0c1.6-1.6,3.6-2.5,5.9-2.5c2.3,0,4.3,0.8,5.9,2.5c1.6,1.6,2.4,3.6,2.4,5.9
					c0,2.3-0.8,4.3-2.4,5.9C288.5,169.6,286.6,170.4,284.3,170.4z M279.1,156.9c-1.4,1.5-2.2,3.2-2.2,5.2c0,2,0.7,3.7,2.1,5.2
					c1.4,1.4,3.1,2.1,5.2,2.1c2,0,3.7-0.7,5.2-2.1c1.4-1.4,2.1-3.1,2.1-5.2c0-2-0.7-3.7-2.2-5.2c-1.4-1.5-3.1-2.2-5.2-2.2
					C282.2,154.7,280.5,155.4,279.1,156.9L279.1,156.9z"/>
			</g>
			<g>
				<path class="st2" d="M306.6,169.1c0.5,0.5,1.2,0.8,1.9,0.8s1.4-0.3,1.9-0.8c0.5-0.5,0.8-1.2,0.8-2c0-0.7-0.3-1.4-0.8-1.9
					c-0.4-0.4-1.1-0.9-2.4-1.7c-1.6-0.9-2.8-1.7-3.5-2.4c-1.2-1.2-1.8-2.6-1.8-4.3c0-1.7,0.6-3.2,1.8-4.4c1.2-1.2,2.7-1.8,4.4-1.8
					s3.1,0.6,4.2,1.7c0.8,0.8,1.3,1.7,1.5,2.7l-4.4,1.3c-0.1-0.4-0.2-0.6-0.3-0.7c-0.3-0.3-0.6-0.4-1.1-0.4s-0.8,0.2-1.1,0.5
					c-0.3,0.3-0.5,0.7-0.5,1.1s0.2,0.8,0.5,1.1c0.3,0.3,0.9,0.7,1.9,1.3c1.8,1,3.1,1.9,4,2.7c1.4,1.4,2.1,3.1,2.1,5.1
					c0,2-0.7,3.7-2.1,5.2c-1.4,1.4-3.1,2.1-5.2,2.1c-2,0-3.7-0.7-5.1-2.2c-1-1-1.6-2.2-1.9-3.7l4.5-1
					C306.1,168.4,306.3,168.9,306.6,169.1z"/>
				<path class="st2" d="M308.5,175c-2.1,0-4-0.8-5.5-2.3c-1-1-1.7-2.4-2.1-3.9l-0.1-0.5l5.5-1.2l0.1,0.5c0.1,0.7,0.3,1,0.5,1.2
					c0.4,0.4,1,0.6,1.6,0.6c0.6,0,1.1-0.2,1.6-0.6c0.4-0.4,0.7-1,0.7-1.6c0-0.6-0.2-1.1-0.6-1.6c-0.3-0.3-1.1-0.9-2.3-1.6
					c-1.7-0.9-2.9-1.7-3.6-2.4c-1.3-1.3-1.9-2.9-1.9-4.7c0-1.8,0.7-3.4,1.9-4.7c1.3-1.3,2.9-2,4.7-2c1.8,0,3.4,0.6,4.6,1.9
					c0.9,0.9,1.4,1.9,1.7,2.9l0.1,0.5L310,157l-0.1-0.5c-0.1-0.4-0.2-0.5-0.2-0.5c-0.3-0.3-1-0.3-1.5,0.1c-0.2,0.2-0.3,0.5-0.3,0.8
					c0,0.3,0.1,0.6,0.3,0.8c0.2,0.2,0.6,0.5,1.8,1.3c1.8,1,3.2,1.9,4,2.8c1.5,1.5,2.3,3.4,2.3,5.5c0,2.1-0.8,4-2.3,5.5
					C312.5,174.2,310.7,175,308.5,175z M302.1,169.1c0.3,1.2,0.9,2.1,1.7,2.9c1.3,1.4,2.9,2,4.8,2c1.9,0,3.5-0.7,4.8-2
					c1.3-1.3,2-2.9,2-4.8c0-1.9-0.6-3.4-2-4.8c-0.8-0.8-2.1-1.7-3.8-2.6c-1-0.7-1.7-1.1-2-1.4c-0.4-0.4-0.6-0.9-0.6-1.5
					s0.2-1.1,0.6-1.5c0.8-0.8,2.2-0.8,2.9-0.1c0.1,0.1,0.2,0.3,0.3,0.5l3.5-1c-0.2-0.7-0.7-1.4-1.3-2c-1-1.1-2.3-1.6-3.9-1.6
					c-1.6,0-2.9,0.5-4,1.7c-1.1,1.1-1.7,2.4-1.7,4c0,1.6,0.5,2.9,1.7,4c0.7,0.7,1.8,1.4,3.4,2.3c1.3,0.8,2.1,1.4,2.5,1.8
					c0.6,0.6,0.9,1.4,0.9,2.3c0,0.9-0.3,1.7-1,2.3c-0.6,0.6-1.4,0.9-2.3,0.9c-0.9,0-1.6-0.3-2.3-0.9l0,0c-0.3-0.3-0.5-0.7-0.6-1.2
					L302.1,169.1z"/>
			</g>
			<g>
				<path class="st2" d="M341,153v-1.6h4.6V174H341v-2.8c-2.2,2.3-4.7,3.4-7.6,3.4c-3.5,0-6.4-1.2-8.8-3.7c-2.4-2.4-3.7-5.4-3.7-8.8
					s1.2-6.4,3.7-8.8c2.4-2.4,5.4-3.7,8.8-3.7C336.3,149.6,338.8,150.7,341,153z M341,163.8v-3.3c-0.3-1.4-1-2.7-2.1-3.9
					c-1.5-1.5-3.4-2.3-5.5-2.3c-2.2,0-4,0.8-5.5,2.3c-1.5,1.5-2.3,3.4-2.3,5.5c0,2.2,0.8,4,2.3,5.5c1.5,1.5,3.4,2.3,5.5,2.3
					c2.2,0,4-0.8,5.5-2.3C340,166.5,340.7,165.2,341,163.8z"/>
				<path class="st2" d="M333.4,175.1c-3.6,0-6.7-1.3-9.2-3.8c-2.5-2.5-3.8-5.6-3.8-9.2s1.3-6.7,3.8-9.2c2.5-2.5,5.6-3.8,9.2-3.8
					c2.7,0,5.1,0.9,7.1,2.7v-0.9h5.6v23.6h-5.6v-2.2C338.4,174.2,336,175.1,333.4,175.1z M333.4,150.1c-3.3,0-6.2,1.2-8.5,3.5
					c-2.3,2.3-3.5,5.2-3.5,8.5s1.2,6.2,3.5,8.5c2.3,2.3,5.2,3.5,8.5,3.5c2.7,0,5.2-1.1,7.3-3.3l0.9-0.9v3.6h3.6v-21.6h-3.6v2.3
					l-0.9-0.9C338.6,151.2,336.1,150.1,333.4,150.1z M333.4,170.4c-2.3,0-4.3-0.8-5.9-2.4c-1.6-1.6-2.4-3.6-2.4-5.9
					c0-2.3,0.8-4.3,2.4-5.9c1.6-1.6,3.6-2.4,5.9-2.4c2.3,0,4.3,0.8,5.9,2.4c1.2,1.2,2,2.6,2.2,4.1l0,3.5l0,0c-0.3,1.5-1,2.9-2.2,4.1
					C337.6,169.6,335.6,170.4,333.4,170.4z M333.4,154.8c-2,0-3.7,0.7-5.2,2.1c-1.4,1.4-2.1,3.1-2.1,5.2c0,2,0.7,3.7,2.1,5.2
					s3.1,2.1,5.2,2.1c2,0,3.7-0.7,5.2-2.1c1-1.1,1.7-2.3,2-3.6v-3.3c-0.2-1.2-0.9-2.4-2-3.5C337.1,155.5,335.4,154.8,333.4,154.8z"
					/>
			</g>
			<g>
				<path class="st2" d="M372.3,171.2v10.4h-4.5v-30.2h4.5v2c2.2-2.6,4.8-3.9,7.7-3.9c3.5,0,6.4,1.2,8.8,3.7
					c2.4,2.4,3.7,5.4,3.7,8.8s-1.2,6.4-3.7,8.9c-2.4,2.4-5.4,3.7-8.8,3.7C377.1,174.6,374.5,173.5,372.3,171.2z M372.3,160.3v3.5
					c0.3,1.4,1,2.7,2.1,3.8c1.5,1.5,3.4,2.3,5.5,2.3s4-0.8,5.5-2.3c1.5-1.5,2.3-3.4,2.3-5.5c0-2.2-0.8-4-2.3-5.5
					c-1.5-1.5-3.4-2.3-5.5-2.3s-4,0.8-5.5,2.3C373.3,157.7,372.6,158.9,372.3,160.3z"/>
				<path class="st2" d="M372.8,182.1h-5.5v-31.2h5.5v1.3c2.1-2.1,4.5-3.1,7.2-3.1c3.6,0,6.7,1.3,9.2,3.8s3.8,5.6,3.8,9.2
					c0,3.6-1.3,6.7-3.8,9.2c-2.5,2.5-5.6,3.8-9.2,3.8c-2.7,0-5.1-0.9-7.2-2.7V182.1z M368.3,181.1h3.5V170l0.9,0.9
					c2.1,2.2,4.5,3.3,7.3,3.3c3.3,0,6.2-1.2,8.5-3.5c2.3-2.3,3.5-5.2,3.5-8.5c0-3.3-1.2-6.2-3.5-8.5c-2.3-2.3-5.2-3.5-8.5-3.5
					c-2.7,0-5.2,1.2-7.3,3.7l-0.9,1v-2.9h-3.5V181.1z M380,170.4c-2.3,0-4.3-0.8-5.9-2.4c-1.2-1.2-2-2.6-2.3-4l0-3.7l0,0
					c0.3-1.5,1.1-2.8,2.3-4c1.6-1.6,3.6-2.5,5.9-2.5c2.3,0,4.3,0.8,5.9,2.5c1.6,1.6,2.4,3.6,2.4,5.9c0,2.3-0.8,4.3-2.4,5.9
					C384.3,169.6,382.3,170.4,380,170.4z M372.8,160.4v3.5c0.2,1.2,0.9,2.4,2,3.4c1.4,1.4,3.1,2.1,5.2,2.1c2,0,3.7-0.7,5.2-2.1
					c1.4-1.4,2.1-3.1,2.1-5.2c0-2-0.7-3.7-2.2-5.2c-1.4-1.5-3.1-2.2-5.2-2.2c-2,0-3.7,0.7-5.2,2.2
					C373.7,157.9,373.1,159.1,372.8,160.4z"/>
			</g>
			<g>
				<path class="st2" d="M417.6,153v-1.6h4.6V174h-4.6v-2.8c-2.2,2.3-4.7,3.4-7.6,3.4c-3.5,0-6.4-1.2-8.8-3.7
					c-2.4-2.4-3.7-5.4-3.7-8.8s1.2-6.4,3.7-8.8c2.4-2.4,5.4-3.7,8.8-3.7C412.8,149.6,415.4,150.7,417.6,153z M417.6,163.8v-3.3
					c-0.3-1.4-1-2.7-2.1-3.9c-1.5-1.5-3.4-2.3-5.5-2.3c-2.2,0-4,0.8-5.5,2.3c-1.5,1.5-2.3,3.4-2.3,5.5c0,2.2,0.8,4,2.3,5.5
					c1.5,1.5,3.4,2.3,5.5,2.3c2.2,0,4-0.8,5.5-2.3C416.6,166.5,417.3,165.2,417.6,163.8z"/>
				<path class="st2" d="M409.9,175.1c-3.6,0-6.7-1.3-9.2-3.8c-2.5-2.5-3.8-5.6-3.8-9.2s1.3-6.7,3.8-9.2c2.5-2.5,5.6-3.8,9.2-3.8
					c2.7,0,5.1,0.9,7.1,2.7v-0.9h5.6v23.6h-5.6v-2.2C415,174.2,412.6,175.1,409.9,175.1z M409.9,150.1c-3.3,0-6.2,1.2-8.5,3.5
					c-2.3,2.3-3.5,5.2-3.5,8.5s1.2,6.2,3.5,8.5c2.3,2.3,5.2,3.5,8.5,3.5c2.7,0,5.2-1.1,7.3-3.3l0.9-0.9v3.6h3.6v-21.6h-3.6v2.3
					l-0.9-0.9C415.1,151.2,412.7,150.1,409.9,150.1z M409.9,170.4c-2.3,0-4.3-0.8-5.9-2.4c-1.6-1.6-2.4-3.6-2.4-5.9
					c0-2.3,0.8-4.3,2.4-5.9c1.6-1.6,3.6-2.4,5.9-2.4c2.3,0,4.3,0.8,5.9,2.4c1.2,1.2,2,2.6,2.2,4.1l0,3.5l0,0c-0.3,1.5-1,2.9-2.2,4.1
					C414.2,169.6,412.2,170.4,409.9,170.4z M409.9,154.8c-2,0-3.7,0.7-5.2,2.1c-1.4,1.4-2.1,3.1-2.1,5.2c0,2,0.7,3.7,2.1,5.2
					s3.1,2.1,5.2,2.1c2,0,3.7-0.7,5.2-2.1c1-1.1,1.7-2.3,2-3.6v-3.3c-0.2-1.2-0.9-2.4-2-3.5C413.7,155.5,412,154.8,409.9,154.8z"/>
			</g>
			<g>
				<path class="st2" d="M433.3,154.4c1.7-2.3,3.8-3.5,6.3-3.6v4.7c-1.7,0.1-3,0.6-4,1.6c-1.5,1.5-2.2,3.2-2.3,5.2V174h-4.5v-22.6
					h4.5V154.4z"/>
				<path class="st2" d="M433.8,174.5h-5.5v-23.6h5.5v2.2c1.6-1.7,3.5-2.6,5.7-2.7l0.5,0v5.7l-0.5,0c-1.5,0.1-2.7,0.6-3.6,1.5
					c-1.4,1.4-2.1,3-2.2,4.9L433.8,174.5z M429.3,173.5h3.5v-11.1c0.1-2.2,0.9-4,2.5-5.6c1-1,2.2-1.5,3.8-1.7v-3.7
					c-2.1,0.2-3.9,1.4-5.4,3.4l-0.9,1.2v-4.1h-3.5V173.5z"/>
			</g>
			<g>
				<path class="st2" d="M463.6,153v-1.6h4.6V174h-4.6v-2.8c-2.2,2.3-4.7,3.4-7.6,3.4c-3.5,0-6.4-1.2-8.8-3.7
					c-2.4-2.4-3.7-5.4-3.7-8.8s1.2-6.4,3.7-8.8c2.4-2.4,5.4-3.7,8.8-3.7C458.8,149.6,461.4,150.7,463.6,153z M463.6,163.8v-3.3
					c-0.3-1.4-1-2.7-2.1-3.9c-1.5-1.5-3.4-2.3-5.5-2.3c-2.2,0-4,0.8-5.5,2.3c-1.5,1.5-2.3,3.4-2.3,5.5c0,2.2,0.8,4,2.3,5.5
					c1.5,1.5,3.4,2.3,5.5,2.3c2.2,0,4-0.8,5.5-2.3C462.6,166.5,463.3,165.2,463.6,163.8z"/>
				<path class="st2" d="M455.9,175.1c-3.6,0-6.7-1.3-9.2-3.8c-2.5-2.5-3.8-5.6-3.8-9.2s1.3-6.7,3.8-9.2c2.5-2.5,5.6-3.8,9.2-3.8
					c2.7,0,5.1,0.9,7.1,2.7v-0.9h5.6v23.6h-5.6v-2.2C461,174.2,458.6,175.1,455.9,175.1z M455.9,150.1c-3.3,0-6.2,1.2-8.5,3.5
					c-2.3,2.3-3.5,5.2-3.5,8.5s1.2,6.2,3.5,8.5c2.3,2.3,5.2,3.5,8.5,3.5c2.7,0,5.2-1.1,7.3-3.3l0.9-0.9v3.6h3.6v-21.6h-3.6v2.3
					l-0.9-0.9C461.1,151.2,458.7,150.1,455.9,150.1z M455.9,170.4c-2.3,0-4.3-0.8-5.9-2.4c-1.6-1.6-2.4-3.6-2.4-5.9
					c0-2.3,0.8-4.3,2.4-5.9c1.6-1.6,3.6-2.4,5.9-2.4c2.3,0,4.3,0.8,5.9,2.4c1.2,1.2,2,2.6,2.2,4.1l0,3.5l0,0c-0.3,1.5-1,2.9-2.2,4.1
					C460.2,169.6,458.2,170.4,455.9,170.4z M455.9,154.8c-2,0-3.7,0.7-5.2,2.1c-1.4,1.4-2.1,3.1-2.1,5.2c0,2,0.7,3.7,2.1,5.2
					s3.1,2.1,5.2,2.1c2,0,3.7-0.7,5.2-2.1c1-1.1,1.7-2.3,2-3.6v-3.3c-0.2-1.2-0.9-2.4-2-3.5C459.7,155.5,458,154.8,455.9,154.8z"/>
			</g>
			<g>
				<path class="st2" d="M494.4,153v-14.1h4.6V174h-4.6v-2.8c-2.2,2.3-4.8,3.4-7.7,3.4c-3.5,0-6.4-1.2-8.8-3.7
					c-2.4-2.4-3.7-5.4-3.7-8.9s1.2-6.4,3.7-8.9c2.4-2.4,5.4-3.7,8.8-3.7C489.6,149.5,492.2,150.7,494.4,153z M494.4,163.8v-3.4
					c-0.3-1.4-1-2.7-2.1-3.9c-1.5-1.5-3.4-2.3-5.5-2.3s-4,0.8-5.5,2.3c-1.5,1.5-2.3,3.4-2.3,5.5c0,2.2,0.8,4,2.3,5.5
					c1.5,1.5,3.4,2.3,5.5,2.3s4-0.8,5.5-2.3C493.4,166.4,494.1,165.2,494.4,163.8z"/>
				<path class="st2" d="M486.7,175.1c-3.6,0-6.7-1.3-9.2-3.8c-2.5-2.5-3.8-5.6-3.8-9.2s1.3-6.7,3.8-9.2c2.5-2.5,5.6-3.8,9.2-3.8
					c2.7,0,5.1,0.9,7.2,2.7v-13.4h5.6v36.2h-5.6v-2.1C491.8,174.2,489.4,175.1,486.7,175.1z M486.7,150c-3.3,0-6.2,1.2-8.5,3.5
					c-2.3,2.3-3.5,5.2-3.5,8.5s1.2,6.2,3.5,8.5c2.3,2.3,5.2,3.5,8.5,3.5c2.8,0,5.2-1.1,7.3-3.3l0.9-0.9v3.5h3.6v-34.2h-3.6v14.8
					l-0.9-0.9C491.9,151.1,489.5,150,486.7,150z M486.7,170.4c-2.3,0-4.3-0.8-5.9-2.4c-1.6-1.6-2.4-3.6-2.4-5.9
					c0-2.3,0.8-4.3,2.4-5.9c1.6-1.6,3.6-2.5,5.9-2.5c2.3,0,4.3,0.8,5.9,2.5c1.2,1.2,2,2.6,2.3,4.1l0,3.5l0,0c-0.3,1.5-1,2.9-2.3,4.1
					C491,169.6,489,170.4,486.7,170.4z M486.7,154.7c-2,0-3.7,0.7-5.2,2.2c-1.4,1.5-2.2,3.2-2.2,5.2c0,2,0.7,3.7,2.1,5.2
					s3.1,2.1,5.2,2.1c2,0,3.7-0.7,5.2-2.1c1.1-1.1,1.7-2.3,2-3.5v-3.3c-0.2-1.2-0.9-2.4-2-3.5C490.5,155.4,488.8,154.7,486.7,154.7z
					"/>
			</g>
			<g>
				<path class="st2" d="M516.7,149.5c3.5,0,6.4,1.2,8.8,3.7c2.4,2.4,3.7,5.4,3.7,8.9s-1.2,6.4-3.7,8.9c-2.4,2.4-5.4,3.7-8.8,3.7
					c-3.4,0-6.4-1.2-8.8-3.7s-3.7-5.4-3.7-8.9s1.2-6.4,3.7-8.9S513.3,149.5,516.7,149.5z M511.2,156.5c-1.5,1.5-2.3,3.4-2.3,5.5
					c0,2.2,0.8,4,2.3,5.5c1.5,1.5,3.4,2.3,5.5,2.3s4-0.8,5.5-2.3c1.5-1.5,2.3-3.4,2.3-5.5c0-2.2-0.8-4-2.3-5.5
					c-1.5-1.5-3.4-2.3-5.5-2.3S512.7,155,511.2,156.5z"/>
				<path class="st2" d="M516.7,175.1c-3.6,0-6.7-1.3-9.2-3.8c-2.5-2.5-3.8-5.6-3.8-9.2s1.3-6.7,3.8-9.2c2.5-2.5,5.6-3.8,9.2-3.8
					c3.6,0,6.7,1.3,9.2,3.8c2.5,2.5,3.8,5.6,3.8,9.2c0,3.6-1.3,6.7-3.8,9.2C523.4,173.8,520.3,175.1,516.7,175.1z M516.7,150
					c-3.3,0-6.1,1.2-8.5,3.5c-2.3,2.3-3.5,5.2-3.5,8.5c0,3.3,1.2,6.2,3.5,8.5c2.3,2.3,5.2,3.5,8.5,3.5c3.3,0,6.2-1.2,8.5-3.5
					s3.5-5.2,3.5-8.5c0-3.3-1.2-6.2-3.5-8.5C522.9,151.2,520,150,516.7,150z M516.7,170.4c-2.3,0-4.3-0.8-5.9-2.4
					c-1.6-1.6-2.4-3.6-2.4-5.9c0-2.3,0.8-4.3,2.4-5.9h0c1.6-1.6,3.6-2.5,5.9-2.5c2.3,0,4.3,0.8,5.9,2.5c1.6,1.6,2.4,3.6,2.4,5.9
					c0,2.3-0.8,4.3-2.4,5.9C521,169.6,519,170.4,516.7,170.4z M511.5,156.9c-1.4,1.5-2.2,3.2-2.2,5.2c0,2,0.7,3.7,2.1,5.2
					c1.4,1.4,3.1,2.1,5.2,2.1c2,0,3.7-0.7,5.2-2.1c1.4-1.4,2.1-3.1,2.1-5.2c0-2-0.7-3.7-2.2-5.2c-1.4-1.5-3.1-2.2-5.2-2.2
					C514.7,154.7,513,155.4,511.5,156.9L511.5,156.9z"/>
			</g>
			<g>
				<path class="st2" d="M532.3,174.2c1.6-0.2,2.5-0.7,2.5-1.5v-21.3h4.5v21.2c0,3.7-2.3,5.7-7,6.1V174.2z M539.3,143
					c0.6,0.6,0.9,1.4,0.9,2.3s-0.3,1.6-0.9,2.3s-1.4,0.9-2.3,0.9c-0.9,0-1.6-0.3-2.2-0.9s-0.9-1.4-0.9-2.3s0.3-1.6,0.9-2.3
					s1.4-0.9,2.2-0.9C537.9,142.1,538.6,142.4,539.3,143z"/>
				<path class="st2" d="M531.8,179.3v-5.5l0.4,0c0.9-0.1,2-0.4,2-1v-21.8h5.5v21.7c0,4-2.5,6.2-7.5,6.6L531.8,179.3z M532.8,174.7
					v3.5c4-0.5,6-2.3,6-5.6v-20.7h-3.5v20.8C535.2,173.7,534.4,174.4,532.8,174.7z M537,149c-1,0-1.9-0.4-2.6-1.1
					c-0.7-0.7-1.1-1.6-1.1-2.6s0.4-1.9,1.1-2.6c0.7-0.7,1.6-1.1,2.6-1.1c1,0,1.9,0.4,2.6,1.1c0.7,0.7,1.1,1.6,1.1,2.6
					s-0.4,1.9-1.1,2.6C538.9,148.6,538,149,537,149z M537,142.6c-0.7,0-1.4,0.3-1.9,0.8c-0.5,0.5-0.8,1.1-0.8,1.9
					c0,0.8,0.3,1.4,0.8,1.9c0.5,0.5,1.2,0.8,1.9,0.8c0.8,0,1.4-0.3,1.9-0.8c0.5-0.5,0.8-1.1,0.8-1.9c0-0.8-0.3-1.4-0.8-1.9
					C538.4,142.9,537.8,142.6,537,142.6z"/>
			</g>
			<g>
				<path class="st2" d="M566.4,153v-1.6h4.6V174h-4.6v-2.8c-2.2,2.3-4.7,3.4-7.6,3.4c-3.5,0-6.4-1.2-8.8-3.7
					c-2.4-2.4-3.7-5.4-3.7-8.8s1.2-6.4,3.7-8.8c2.4-2.4,5.4-3.7,8.8-3.7C561.7,149.6,564.2,150.7,566.4,153z M566.4,163.8v-3.3
					c-0.3-1.4-1-2.7-2.1-3.9c-1.5-1.5-3.4-2.3-5.5-2.3c-2.2,0-4,0.8-5.5,2.3c-1.5,1.5-2.3,3.4-2.3,5.5c0,2.2,0.8,4,2.3,5.5
					c1.5,1.5,3.4,2.3,5.5,2.3c2.2,0,4-0.8,5.5-2.3C565.5,166.5,566.2,165.2,566.4,163.8z"/>
				<path class="st2" d="M558.8,175.1c-3.6,0-6.7-1.3-9.2-3.8c-2.5-2.5-3.8-5.6-3.8-9.2s1.3-6.7,3.8-9.2c2.5-2.5,5.6-3.8,9.2-3.8
					c2.7,0,5.1,0.9,7.1,2.7v-0.9h5.6v23.6h-5.6v-2.2C563.8,174.2,561.4,175.1,558.8,175.1z M558.8,150.1c-3.3,0-6.2,1.2-8.5,3.5
					c-2.3,2.3-3.5,5.2-3.5,8.5s1.2,6.2,3.5,8.5c2.3,2.3,5.2,3.5,8.5,3.5c2.7,0,5.2-1.1,7.3-3.3l0.9-0.9v3.6h3.6v-21.6h-3.6v2.3
					l-0.9-0.9C564,151.2,561.5,150.1,558.8,150.1z M558.8,170.4c-2.3,0-4.3-0.8-5.9-2.4c-1.6-1.6-2.4-3.6-2.4-5.9
					c0-2.3,0.8-4.3,2.4-5.9c1.6-1.6,3.6-2.4,5.9-2.4c2.3,0,4.3,0.8,5.9,2.4c1.2,1.2,2,2.6,2.2,4.1l0,3.5l0,0c-0.3,1.5-1,2.9-2.2,4.1
					C563,169.6,561.1,170.4,558.8,170.4z M558.8,154.8c-2,0-3.7,0.7-5.2,2.1c-1.4,1.4-2.1,3.1-2.1,5.2c0,2,0.7,3.7,2.2,5.2
					c1.4,1.4,3.1,2.1,5.2,2.1c2,0,3.7-0.7,5.2-2.1c1-1.1,1.7-2.3,2-3.6v-3.3c-0.2-1.2-0.9-2.4-2-3.5
					C562.5,155.5,560.8,154.8,558.8,154.8z"/>
			</g>
			<g>
				<path class="st2" d="M600.2,168.9c0.8,0.7,2.1,1,4.2,1c2.2,0,4-0.8,5.6-2.3c0.2-0.2,0.6-0.7,1.2-1.4l4.5,1.6
					c-1.1,1.5-1.9,2.6-2.4,3.1c-2.4,2.4-5.4,3.7-8.9,3.7c-3.4,0-6.4-1.2-8.8-3.7s-3.7-5.4-3.7-8.9s1.2-6.4,3.7-8.9s5.4-3.7,8.8-3.7
					c3,0,5.6,0.9,7.8,2.7c0.4,0.3,0.7,0.6,1.1,1c0.1,0.1,0.6,0.6,1.3,1.4l-2.3,2.3L600.2,168.9z M607.8,154.8
					c-0.5-0.4-1.7-0.6-3.4-0.6c-2.2,0-4,0.8-5.5,2.3c-1.5,1.5-2.3,3.4-2.3,5.5c0,1.8,0.2,2.9,0.6,3.5L607.8,154.8z"/>
				<path class="st2" d="M604.4,175.1c-3.6,0-6.7-1.3-9.2-3.8c-2.5-2.5-3.8-5.6-3.8-9.2s1.3-6.7,3.8-9.2c2.5-2.5,5.6-3.8,9.2-3.8
					c3.1,0,5.8,0.9,8.1,2.8c0.4,0.3,0.8,0.7,1.1,1c0.1,0.1,0.6,0.6,1.3,1.4l0.3,0.4l-2.6,2.6L601,168.8c0.7,0.4,1.9,0.6,3.4,0.6
					c2,0,3.8-0.7,5.2-2.1c0.2-0.2,0.6-0.6,1.1-1.3l0.2-0.3l5.5,2l-0.4,0.5c-1.1,1.6-1.9,2.6-2.5,3.1
					C611,173.8,607.9,175.1,604.4,175.1z M604.4,150c-3.3,0-6.1,1.2-8.5,3.5c-2.3,2.3-3.5,5.2-3.5,8.5c0,3.3,1.2,6.2,3.5,8.5
					c2.3,2.3,5.2,3.5,8.5,3.5c3.3,0,6.2-1.2,8.5-3.5c0.4-0.4,1.1-1.2,2-2.5l-3.6-1.3c-0.5,0.6-0.8,0.9-1,1.1
					c-1.6,1.6-3.6,2.4-5.9,2.4c-2.2,0-3.6-0.4-4.5-1.1l-0.4-0.4l14.3-14.3c-0.5-0.6-0.8-0.9-0.9-1c-0.3-0.3-0.7-0.7-1-1
					C609.7,150.9,607.2,150,604.4,150z M597.1,166.3l-0.3-0.5c-0.5-0.6-0.7-1.8-0.7-3.8c0-2.3,0.8-4.3,2.4-5.9
					c1.6-1.6,3.6-2.4,5.9-2.4c1.9,0,3.1,0.2,3.8,0.7l0.4,0.3L597.1,166.3z M604.4,154.7c-2,0-3.7,0.7-5.2,2.1s-2.1,3.1-2.1,5.2
					c0,1.3,0.1,2.1,0.2,2.6l9.7-9.7C606.5,154.8,605.7,154.7,604.4,154.7z"/>
			</g>
			<g>
				<path class="st2" d="M625.5,169.1c0.5,0.5,1.2,0.8,1.9,0.8s1.4-0.3,1.9-0.8c0.5-0.5,0.8-1.2,0.8-2c0-0.7-0.3-1.4-0.8-1.9
					c-0.4-0.4-1.1-0.9-2.4-1.7c-1.6-0.9-2.8-1.7-3.5-2.4c-1.2-1.2-1.8-2.6-1.8-4.3c0-1.7,0.6-3.2,1.8-4.4c1.2-1.2,2.7-1.8,4.4-1.8
					s3.1,0.6,4.2,1.7c0.8,0.8,1.3,1.7,1.5,2.7l-4.4,1.3c-0.1-0.4-0.2-0.6-0.3-0.7c-0.3-0.3-0.6-0.4-1.1-0.4s-0.8,0.2-1.1,0.5
					c-0.3,0.3-0.5,0.7-0.5,1.1s0.2,0.8,0.5,1.1c0.3,0.3,0.9,0.7,1.9,1.3c1.8,1,3.1,1.9,4,2.7c1.4,1.4,2.1,3.1,2.1,5.1
					c0,2-0.7,3.7-2.1,5.2c-1.4,1.4-3.1,2.1-5.2,2.1c-2,0-3.7-0.7-5.1-2.2c-1-1-1.6-2.2-1.9-3.7l4.5-1
					C625,168.4,625.2,168.9,625.5,169.1z"/>
				<path class="st2" d="M627.4,175c-2.1,0-4-0.8-5.5-2.3c-1-1-1.7-2.4-2.1-3.9l-0.1-0.5l5.5-1.2l0.1,0.5c0.1,0.7,0.3,1,0.5,1.2
					c0.4,0.4,1,0.6,1.6,0.6c0.6,0,1.1-0.2,1.6-0.6c0.4-0.4,0.7-1,0.7-1.6c0-0.6-0.2-1.1-0.6-1.6c-0.3-0.3-1.1-0.9-2.3-1.6
					c-1.7-0.9-2.9-1.7-3.6-2.4c-1.3-1.3-1.9-2.9-1.9-4.7c0-1.8,0.7-3.4,1.9-4.7c1.3-1.3,2.9-2,4.7-2c1.8,0,3.4,0.6,4.6,1.9
					c0.9,0.9,1.4,1.9,1.7,2.9l0.1,0.5l-5.4,1.5l-0.1-0.5c-0.1-0.4-0.2-0.5-0.2-0.5c-0.3-0.3-1-0.3-1.5,0.1c-0.2,0.2-0.3,0.5-0.3,0.8
					c0,0.3,0.1,0.6,0.3,0.8c0.2,0.2,0.6,0.5,1.8,1.3c1.8,1,3.2,1.9,4,2.8c1.5,1.5,2.3,3.4,2.3,5.5c0,2.1-0.8,4-2.3,5.5
					C631.4,174.2,629.6,175,627.4,175z M620.9,169.1c0.3,1.2,0.9,2.1,1.7,2.9c1.3,1.4,2.9,2,4.8,2c1.9,0,3.5-0.7,4.8-2
					c1.3-1.3,2-2.9,2-4.8c0-1.9-0.6-3.4-2-4.8c-0.8-0.8-2.1-1.7-3.8-2.6c-1-0.7-1.7-1.1-2-1.4c-0.4-0.4-0.6-0.9-0.6-1.5
					s0.2-1.1,0.6-1.5c0.8-0.8,2.2-0.8,2.9-0.1c0.1,0.1,0.2,0.3,0.3,0.5l3.5-1c-0.2-0.7-0.7-1.4-1.3-2c-1-1.1-2.3-1.6-3.9-1.6
					c-1.6,0-2.9,0.5-4,1.7c-1.1,1.1-1.7,2.4-1.7,4c0,1.6,0.5,2.9,1.7,4c0.7,0.7,1.8,1.4,3.4,2.3c1.3,0.8,2.1,1.4,2.5,1.8
					c0.6,0.6,0.9,1.4,0.9,2.3c0,0.9-0.3,1.7-1,2.3c-0.6,0.6-1.4,0.9-2.3,0.9c-0.9,0-1.6-0.3-2.3-0.9l0,0c-0.3-0.3-0.5-0.7-0.6-1.2
					L620.9,169.1z"/>
			</g>
			<g>
				<path class="st2" d="M674.9,153v-1.6h4.6v30.2h-4.6v-10.4c-2.2,2.3-4.8,3.4-7.7,3.4c-3.5,0-6.4-1.2-8.8-3.7
					c-2.4-2.4-3.7-5.4-3.7-8.9s1.2-6.4,3.7-8.8c2.4-2.4,5.4-3.7,8.8-3.7C670.2,149.6,672.7,150.7,674.9,153z M674.9,163.8v-3.4
					c-0.3-1.4-1-2.7-2.1-3.9c-1.5-1.5-3.4-2.3-5.5-2.3s-4,0.8-5.5,2.3c-1.5,1.5-2.3,3.4-2.3,5.5c0,2.2,0.8,4,2.3,5.5
					c1.5,1.5,3.4,2.3,5.5,2.3s4-0.8,5.5-2.3C673.9,166.5,674.6,165.2,674.9,163.8z"/>
				<path class="st2" d="M680,182.1h-5.6v-9.8c-2.1,1.8-4.5,2.7-7.2,2.7c-3.6,0-6.7-1.3-9.2-3.8c-2.5-2.5-3.8-5.6-3.8-9.2
					c0-3.6,1.3-6.7,3.8-9.2c2.5-2.5,5.6-3.8,9.2-3.8c2.7,0,5.1,0.9,7.2,2.7v-0.9h5.6V182.1z M675.4,181.1h3.6v-29.2h-3.6v2.3
					l-0.9-0.9c-2.1-2.1-4.5-3.2-7.3-3.2c-3.3,0-6.2,1.2-8.5,3.5c-2.3,2.3-3.5,5.2-3.5,8.5c0,3.3,1.2,6.2,3.5,8.5
					c2.3,2.3,5.2,3.5,8.5,3.5c2.8,0,5.2-1.1,7.3-3.3l0.9-0.9V181.1z M667.2,170.4c-2.3,0-4.3-0.8-5.9-2.4c-1.6-1.6-2.4-3.6-2.4-5.9
					c0-2.3,0.8-4.3,2.4-5.9c1.6-1.6,3.6-2.5,5.9-2.5c2.3,0,4.3,0.8,5.9,2.5c1.2,1.2,2,2.6,2.3,4.1l0,3.5l0,0c-0.3,1.5-1,2.9-2.3,4.1
					C671.5,169.6,669.5,170.4,667.2,170.4z M667.2,154.7c-2,0-3.7,0.7-5.2,2.2c-1.4,1.5-2.2,3.2-2.2,5.2c0,2,0.7,3.7,2.1,5.2
					c1.4,1.4,3.1,2.1,5.2,2.1c2,0,3.7-0.7,5.2-2.1c1.1-1.1,1.7-2.3,2-3.6v-3.3c-0.2-1.2-0.9-2.4-2-3.5
					C671,155.4,669.3,154.7,667.2,154.7z"/>
			</g>
			<g>
				<path class="st2" d="M695.7,174.3c-2.9,0-5.2-0.9-6.9-2.6s-2.6-3.9-2.7-6.5v-13.8h4.6V165c0,1.3,0.5,2.4,1.4,3.4
					s2.1,1.4,3.6,1.4c1.3,0,2.4-0.5,3.4-1.4c1-0.9,1.4-2.1,1.4-3.4v-13.6h4.5v13.8c0,2.6-0.9,4.8-2.7,6.5
					C700.6,173.4,698.4,174.3,695.7,174.3z"/>
				<path class="st2" d="M695.7,174.8c-3,0-5.4-0.9-7.3-2.8c-1.8-1.8-2.8-4.1-2.8-6.9v-14.3h5.6V165c0,1.2,0.4,2.2,1.3,3
					c0.9,0.8,1.9,1.3,3.2,1.3c1.2,0,2.2-0.4,3-1.3c0.9-0.8,1.3-1.8,1.3-3v-14.1h5.5v14.3c0,2.8-1,5.1-2.8,6.9
					C700.9,173.9,698.5,174.8,695.7,174.8z M686.6,151.9v13.3c0,2.5,0.9,4.6,2.5,6.2c1.6,1.6,3.8,2.5,6.5,2.5c2.6,0,4.7-0.8,6.3-2.5
					c1.6-1.6,2.5-3.7,2.5-6.2v-13.2H701V165c0,1.5-0.5,2.7-1.6,3.7c-1.1,1-2.3,1.5-3.7,1.5c-1.6,0-2.9-0.5-3.9-1.5
					c-1-1-1.6-2.3-1.6-3.7v-13.1H686.6z"/>
			</g>
			<g>
				<path class="st2" d="M718.6,168.9c0.8,0.7,2.1,1,4.2,1c2.2,0,4-0.8,5.6-2.3c0.2-0.2,0.6-0.7,1.2-1.4l4.5,1.6
					c-1.1,1.5-1.9,2.6-2.4,3.1c-2.4,2.4-5.4,3.7-8.9,3.7c-3.4,0-6.4-1.2-8.8-3.7s-3.7-5.4-3.7-8.9s1.2-6.4,3.7-8.9s5.4-3.7,8.8-3.7
					c3,0,5.6,0.9,7.8,2.7c0.4,0.3,0.7,0.6,1.1,1c0.1,0.1,0.6,0.6,1.3,1.4l-2.3,2.3L718.6,168.9z M726.2,154.8
					c-0.5-0.4-1.7-0.6-3.4-0.6c-2.2,0-4,0.8-5.5,2.3c-1.5,1.5-2.3,3.4-2.3,5.5c0,1.8,0.2,2.9,0.6,3.5L726.2,154.8z"/>
				<path class="st2" d="M722.8,175.1c-3.6,0-6.7-1.3-9.2-3.8c-2.5-2.5-3.8-5.6-3.8-9.2s1.3-6.7,3.8-9.2c2.5-2.5,5.6-3.8,9.2-3.8
					c3.1,0,5.8,0.9,8.1,2.8c0.4,0.3,0.8,0.7,1.1,1c0.1,0.1,0.6,0.6,1.3,1.4l0.3,0.4l-2.6,2.6l-11.6,11.6c0.7,0.4,1.9,0.6,3.4,0.6
					c2,0,3.8-0.7,5.2-2.1c0.2-0.2,0.6-0.6,1.1-1.3l0.2-0.3l5.5,2l-0.4,0.5c-1.1,1.6-1.9,2.6-2.5,3.1
					C729.5,173.8,726.4,175.1,722.8,175.1z M722.8,150c-3.3,0-6.1,1.2-8.5,3.5c-2.3,2.3-3.5,5.2-3.5,8.5c0,3.3,1.2,6.2,3.5,8.5
					c2.3,2.3,5.2,3.5,8.5,3.5c3.3,0,6.2-1.2,8.5-3.5c0.4-0.4,1.1-1.2,2-2.5l-3.6-1.3c-0.5,0.6-0.8,0.9-1,1.1
					c-1.6,1.6-3.6,2.4-5.9,2.4c-2.2,0-3.6-0.4-4.5-1.1l-0.4-0.4l14.3-14.3c-0.5-0.6-0.8-0.9-0.9-1c-0.3-0.3-0.7-0.7-1-1
					C728.1,150.9,725.6,150,722.8,150z M715.5,166.3l-0.3-0.5c-0.5-0.6-0.7-1.8-0.7-3.8c0-2.3,0.8-4.3,2.4-5.9
					c1.6-1.6,3.6-2.4,5.9-2.4c1.9,0,3.1,0.2,3.8,0.7l0.4,0.3L715.5,166.3z M722.8,154.7c-2,0-3.7,0.7-5.2,2.1s-2.1,3.1-2.1,5.2
					c0,1.3,0.1,2.1,0.2,2.6l9.7-9.7C724.9,154.8,724.1,154.7,722.8,154.7z"/>
			</g>
		</g>
	</g>
	<g>
		<g>
			<path class="st2" d="M148,396.8c-1.7,0.8-5.1,1.7-9.4,1.7c-10.1,0-17.6-6.3-17.6-18c0-11.2,7.6-18.7,18.6-18.7
				c4.4,0,7.2,1,8.5,1.6l-1.1,3.8c-1.7-0.8-4.2-1.5-7.2-1.5c-8.4,0-13.9,5.3-13.9,14.7c0,8.7,5,14.3,13.7,14.3
				c2.8,0,5.7-0.6,7.5-1.5L148,396.8z"/>
			<path class="st2" d="M152.5,395.2c0-2,1.3-3.3,3.2-3.3c1.9,0,3.1,1.4,3.1,3.3c0,1.9-1.2,3.3-3.2,3.3
				C153.8,398.6,152.5,397.1,152.5,395.2z"/>
			<path class="st2" d="M164.7,362.8c2.3-0.5,5.7-0.7,8.8-0.7c4.9,0,8.1,0.9,10.3,2.9c1.8,1.6,2.8,4,2.8,6.8c0,4.7-3,7.8-6.7,9.1
				v0.2c2.8,1,4.4,3.5,5.2,7.2c1.2,5,2,8.4,2.8,9.8h-4.8c-0.6-1-1.4-4.1-2.4-8.5c-1.1-4.9-3-6.8-7.1-6.9h-4.3V398h-4.6V362.8z
				 M169.3,379.1h4.7c4.9,0,8-2.7,8-6.8c0-4.6-3.3-6.6-8.2-6.7c-2.2,0-3.8,0.2-4.5,0.4V379.1z"/>
			<path class="st2" d="M191.9,395.2c0-2,1.3-3.3,3.2-3.3c1.9,0,3.1,1.4,3.1,3.3c0,1.9-1.2,3.3-3.2,3.3
				C193.2,398.6,191.9,397.1,191.9,395.2z"/>
		</g>
	</g>
</g>
</svg>
