<?xml version="1.0" encoding="utf-8"?>
<!-- Generator: Adobe Illustrator 21.0.0, SVG Export Plug-In . SVG Version: 6.00 Build 0)  -->
<svg version="1.1" id="Layer_1" xmlns="http://www.w3.org/2000/svg" xmlns:xlink="http://www.w3.org/1999/xlink" x="0px" y="0px"
	 viewBox="0 0 628.4 245.3" style="enable-background:new 0 0 628.4 245.3;" xml:space="preserve">
<style type="text/css">
	.st0{fill:#FFFFFF;}
	.st1{fill-rule:evenodd;clip-rule:evenodd;fill:#685989;}
	.st2{fill:#F87481;}
	.st3{fill:#864D7D;}
	.st4{fill:#685989;}
	.st5{fill:#7087AF;}
	.st6{fill:#9CC1C8;}
	.st7{fill:#BEDBC3;}
	.st8{fill:none;stroke:#685989;stroke-width:3;stroke-miterlimit:10;}
	.st9{fill:none;stroke:#9CC1C8;stroke-width:3;stroke-miterlimit:10;}
	.st10{fill:none;stroke:#864D7D;stroke-width:3;stroke-miterlimit:10;}
	.st11{fill-rule:evenodd;clip-rule:evenodd;fill:#F87481;}
	.st12{opacity:0.3;clip-path:url(#SVGID_2_);}
	.st13{opacity:0.3;clip-path:url(#SVGID_4_);}
	.st14{opacity:0.3;clip-path:url(#SVGID_6_);}
	.st15{opacity:0.3;clip-path:url(#SVGID_8_);}
	.st16{opacity:0.3;clip-path:url(#SVGID_10_);}
	.st17{fill:#F6F6F6;}
	.st18{clip-path:url(#SVGID_12_);}
	.st19{clip-path:url(#SVGID_16_);}
	.st20{fill:#EDEDED;}
	.st21{opacity:0.5;fill:#9CC1C8;}
	.st22{fill:#D3DEE4;}
	.st23{fill:#007271;}
	.st24{fill:#369999;}
	.st25{fill:#4D2B2B;}
	.st26{fill:#3A1F1E;}
	.st27{fill:#E95B4E;}
	.st28{fill:#EE8268;}
	.st29{fill:#C83D36;}
	.st30{fill:#F6B99F;}
	.st31{fill:#EEE9DC;}
	.st32{fill:#EDC9C7;stroke:#221F20;stroke-linecap:round;stroke-linejoin:round;stroke-miterlimit:10;}
	.st33{fill:#F19775;}
	.st34{fill:#6B3E3F;}
	.st35{fill:#C7BDB7;}
	.st36{fill:#D1D5CA;}
	.st37{fill:#2B3668;}
	.st38{fill:#EE827D;}
	.st39{fill:#FFFFFF;stroke:#FFFFFF;stroke-miterlimit:10;}
	.st40{fill:#606060;}
	.st41{fill:none;stroke:#BEDBC3;stroke-width:4;stroke-linecap:round;stroke-linejoin:round;stroke-miterlimit:10;}
	.st42{fill:none;stroke:#864D7D;stroke-width:3.7;stroke-miterlimit:10;}
	.st43{fill:#864D7D;stroke:#864D7D;stroke-width:0.9403;stroke-miterlimit:10;}
	.st44{opacity:0.5;}
	.st45{fill:#FEFFFF;}
	.st46{fill:#FEFEFF;}
	.st47{fill:#FDFEFE;}
	.st48{fill:#FDFDFE;}
	.st49{fill:#FCFDFE;}
	.st50{fill:#FBFCFE;}
	.st51{fill:#FBFCFD;}
	.st52{fill:#FAFCFD;}
	.st53{fill:#FAFBFD;}
	.st54{fill:#F9FBFD;}
	.st55{fill:#F8FAFC;}
	.st56{fill:#F7FAFC;}
	.st57{fill:#F7F9FC;}
	.st58{fill:#F6F9FC;}
	.st59{fill:#F6F9FB;}
	.st60{fill:#F5F8FB;}
	.st61{fill:#F4F7FB;}
	.st62{fill:#F3F7FB;}
	.st63{fill:#F3F7FA;}
	.st64{fill:#F2F6FA;}
	.st65{fill:#F1F5FA;}
	.st66{fill:#F0F5F9;}
	.st67{fill:#F0F4F9;}
	.st68{fill:#EFF4F9;}
	.st69{fill:#EEF3F8;}
	.st70{fill:#EDF3F8;}
	.st71{fill:#EDF2F8;}
	.st72{fill:#ECF2F8;}
	.st73{fill:#EBF1F7;}
	.st74{fill:#EAF1F7;}
	.st75{fill:#EAF0F7;}
	.st76{fill:#E9F0F7;}
	.st77{fill:#E8EFF6;}
	.st78{fill:#E7EFF6;}
	.st79{fill:#E7EEF6;}
	.st80{fill:#E6EEF5;}
	.st81{fill:#E5EDF5;}
	.st82{fill:#E4ECF5;}
	.st83{fill:#E4ECF4;}
	.st84{fill:#E3ECF4;}
	.st85{fill:#E2EBF4;}
	.st86{fill:#E1EAF4;}
	.st87{fill:#E1EAF3;}
	.st88{fill:#E0EAF3;}
	.st89{fill:#E0E9F3;}
	.st90{fill:#DFE9F3;}
	.st91{fill:#DEE8F2;}
	.st92{fill:#DDE8F2;}
	.st93{fill:#DDE7F2;}
	.st94{fill:#DCE7F2;}
	.st95{fill:#DCE7F1;}
	.st96{fill:#DBE6F1;}
	.st97{fill:#DAE6F1;}
	.st98{fill:#DAE5F1;}
	.st99{fill:#D9E5F0;}
	.st100{fill:#D9E4F0;}
	.st101{fill:#D8E4F0;}
	.st102{fill:#D6E2EE;}
	.st103{fill:#D4E0EC;}
	.st104{fill:#D2DEEA;}
	.st105{fill:#D0DCE8;}
	.st106{fill:#CEDAE6;}
	.st107{fill:#CDD9E5;}
	.st108{fill:#CBD7E3;}
	.st109{fill:#C9D5E1;}
	.st110{fill:#C7D3DF;}
	.st111{fill:#C5D1DD;}
	.st112{fill:#C3CFDB;}
	.st113{fill:#C1CDD9;}
	.st114{fill:#BFCBD7;}
	.st115{fill:#BDC9D5;}
	.st116{fill:#BBC7D3;}
	.st117{fill:#B9C6D2;}
	.st118{fill:#B7C4D0;}
	.st119{fill:#B6C2CE;}
	.st120{fill:#B4C0CC;}
	.st121{fill:#B2BECA;}
	.st122{fill:#B0BCC8;}
	.st123{fill:#AEBAC6;}
	.st124{fill:#ACB8C4;}
	.st125{fill:#AAB6C2;}
	.st126{fill:#A8B4C0;}
	.st127{fill:#A6B3BF;}
	.st128{fill:#A4B1BD;}
	.st129{fill:#A2AFBB;}
	.st130{fill:#A0ADB9;}
	.st131{fill:#9FABB7;}
	.st132{fill:#9DA9B5;}
	.st133{fill:#9BA7B3;}
	.st134{fill:#99A5B1;}
	.st135{fill:#97A3AF;}
	.st136{fill:#95A1AD;}
	.st137{fill:#93A0AC;}
	.st138{fill:#919EAA;}
	.st139{fill:#8F9CA8;}
	.st140{fill:#8D9AA6;}
	.st141{fill:#8B98A4;}
	.st142{fill:#8996A2;}
	.st143{fill:#8894A0;}
	.st144{fill:#86929E;}
	.st145{fill:#84909C;}
	.st146{fill:#828E9A;}
	.st147{fill:#808D99;}
	.st148{fill:#7E8B97;}
	.st149{fill:#7C8995;}
	.st150{fill:#7A8793;}
	.st151{fill:#788591;}
	.st152{fill:#76838F;}
	.st153{fill:#74818D;}
	.st154{fill:#727F8B;}
	.st155{fill:#717D89;}
	.st156{fill:#6F7B87;}
	.st157{fill:#6D7A86;}
	.st158{fill:#6B7884;}
	.st159{fill:#697682;}
	.st160{fill:#677480;}
	.st161{fill:#65727E;}
	.st162{fill:#63707C;}
	.st163{fill:#616E7A;}
	.st164{fill:#5F6C78;}
	.st165{fill:#5D6A76;}
	.st166{fill:#5B6874;}
	.st167{fill:#5A6773;}
	.st168{fill:#586571;}
	.st169{fill:#56636F;}
	.st170{fill:#54616D;}
	.st171{fill:#525F6B;}
	.st172{fill:#505D69;}
	.st173{fill:#864D7D;stroke:#864D7D;stroke-miterlimit:10;}
	.st174{fill:none;stroke:#FFFFFF;stroke-width:2;stroke-miterlimit:10;}
	.st175{fill:#FFFFFF;stroke:#242E77;stroke-width:0.1637;stroke-linecap:round;stroke-linejoin:round;stroke-miterlimit:10;}
	.st176{opacity:0.3;clip-path:url(#SVGID_30_);}
	.st177{fill:none;stroke:#7087AF;stroke-miterlimit:10;}
	.st178{clip-path:url(#SVGID_32_);}
	.st179{fill:none;stroke:#FFFFFF;stroke-miterlimit:10;}
	.st180{fill-rule:evenodd;clip-rule:evenodd;fill:#FFFFFF;}
	.st181{fill:#B2555F;}
	.st182{fill:#47284F;}
	.st183{fill:#FFBF9B;}
	.st184{fill:#FFA687;}
	.st185{fill:none;stroke:#47284F;stroke-width:1.1054;stroke-linecap:round;stroke-miterlimit:10;}
	.st186{fill:#72426B;}
	.st187{fill:#FFC9AC;}
	.st188{fill:#C19884;}
	.st189{fill:#FFA68D;}
	.st190{fill:#13A6CE;}
	.st191{fill:#4E2447;}
	.st192{opacity:0.3;}
	.st193{fill:#1A2E35;}
	.st194{fill:#FFBF9D;}
	.st195{fill:#FF9A6C;}
	.st196{fill:#375A64;}
	.st197{fill:#E1E1E1;}
	.st198{opacity:0.2;}
	.st199{fill:#FF4F5B;}
	.st200{fill:#EBEBEB;}
	.st201{fill:#AA6550;}
	.st202{fill:none;stroke:#FFA6AD;stroke-miterlimit:10;}
	.st203{fill:none;stroke:#FFFFFF;stroke-width:5.000000e-02;stroke-miterlimit:10;}
	.st204{fill:#FAFAFA;}
	.st205{clip-path:url(#SVGID_34_);}
	.st206{fill:#FFFFFF;stroke:#FFFFFF;stroke-width:3;stroke-miterlimit:10;}
	.st207{fill:#F87481;stroke:#F87481;stroke-miterlimit:10;}
	.st208{clip-path:url(#SVGID_38_);}
</style>
<g>
	<rect y="0" class="st6" width="568.1" height="75.2"/>
	<rect y="170.1" class="st2" width="568.1" height="75.2"/>
	<rect x="60.3" y="85.1" class="st3" width="568.1" height="75.2"/>
	<g>
		<path class="st39" d="M46.3,24.4c0.6,0.6,0.9,1.3,0.9,2.1c0,0.8-0.3,1.5-0.9,2.1c-0.6,0.6-1.3,0.9-2.1,0.9c-0.8,0-1.5-0.3-2.1-0.9
			c-0.6-0.6-0.9-1.3-0.9-2.1c0-0.4,0.1-0.9,0.2-1.3l2.2-4.5h3.9L46.3,24.4z M53.2,24.4c0.6,0.6,0.9,1.3,0.9,2.1
			c0,0.8-0.3,1.5-0.9,2.1c-0.6,0.6-1.3,0.9-2.1,0.9c-0.8,0-1.5-0.3-2.1-0.9s-0.9-1.3-0.9-2.1c0-0.4,0.1-0.9,0.2-1.3l2.2-4.5h3.9
			L53.2,24.4z"/>
		<path class="st39" d="M79.1,21v4.3H65.7v10h13.4v4.3H65.7v10h13.4v4.3H61.4V21H79.1z"/>
		<path class="st39" d="M91.1,21v32.9h-4.3V21H91.1z"/>
		<path class="st39" d="M122.6,49c0.7,0.6,2,0.9,3.9,0.9c2,0,3.8-0.7,5.2-2.1c0.2-0.2,0.5-0.6,1.1-1.3l4.3,1.5
			c-1,1.4-1.8,2.4-2.3,2.9c-2.3,2.3-5,3.4-8.3,3.4c-3.2,0-6-1.1-8.3-3.4c-2.3-2.3-3.4-5-3.4-8.3c0-3.2,1.1-6,3.4-8.3
			c2.3-2.3,5-3.4,8.3-3.4c2.8,0,5.2,0.8,7.3,2.5c0.3,0.3,0.7,0.6,1,0.9c0.1,0.1,0.5,0.6,1.2,1.3l-2.1,2.2L122.6,49z M129.7,35.9
			c-0.5-0.4-1.6-0.6-3.2-0.6c-2,0-3.7,0.7-5.2,2.1c-1.4,1.4-2.1,3.2-2.1,5.2c0,1.7,0.2,2.7,0.6,3.2L129.7,35.9z"/>
		<path class="st39" d="M148.3,49.3c0.5,0.5,1.1,0.7,1.8,0.7s1.3-0.2,1.8-0.7c0.5-0.5,0.7-1.1,0.7-1.8c0-0.7-0.2-1.3-0.7-1.8
			c-0.3-0.3-1.1-0.9-2.2-1.6c-1.5-0.8-2.6-1.6-3.3-2.2c-1.1-1.1-1.7-2.5-1.7-4c0-1.6,0.6-2.9,1.7-4.1c1.1-1.1,2.5-1.7,4.1-1.7
			s2.9,0.5,4,1.6c0.8,0.8,1.2,1.6,1.4,2.5l-4.1,1.2c-0.1-0.3-0.2-0.6-0.3-0.7c-0.2-0.2-0.6-0.4-1-0.4s-0.8,0.1-1.1,0.4
			c-0.3,0.3-0.4,0.6-0.4,1.1s0.1,0.8,0.4,1c0.3,0.2,0.8,0.7,1.8,1.3c1.7,0.9,2.9,1.8,3.7,2.5c1.3,1.3,2,2.9,2,4.8
			c0,1.9-0.7,3.5-2,4.8c-1.3,1.3-2.9,2-4.8,2c-1.9,0-3.5-0.7-4.8-2c-0.9-0.9-1.5-2.1-1.8-3.4l4.2-0.9
			C147.9,48.6,148.1,49,148.3,49.3z"/>
		<path class="st39" d="M167.1,32.7v-7.9h4.3v7.9h3.8V37h-3.8v16.9h-4.3V37h-3.8v-4.3H167.1z"/>
		<path class="st39" d="M200.6,34.2v-1.5h4.3v21.1h-4.3v-2.6c-2.1,2.1-4.4,3.2-7.1,3.2c-3.2,0-6-1.1-8.3-3.4c-2.3-2.3-3.4-5-3.4-8.3
			c0-3.2,1.1-6,3.4-8.3c2.3-2.3,5-3.4,8.3-3.4C196.1,31,198.5,32.1,200.6,34.2z M200.6,44.3v-3.1c-0.2-1.3-0.9-2.5-2-3.6
			c-1.4-1.4-3.2-2.1-5.2-2.1c-2,0-3.8,0.7-5.2,2.1c-1.4,1.4-2.1,3.1-2.1,5.2c0,2,0.7,3.7,2.1,5.2c1.4,1.4,3.2,2.1,5.2,2.1
			c2,0,3.7-0.7,5.2-2.1C199.7,46.8,200.3,45.6,200.6,44.3z"/>
		<path class="st39" d="M231.5,34.2V21h4.3v32.9h-4.3v-2.6c-2.1,2.1-4.4,3.2-7.2,3.2c-3.2,0-6-1.1-8.3-3.4c-2.3-2.3-3.4-5-3.4-8.3
			c0-3.2,1.1-6,3.4-8.3c2.3-2.3,5-3.4,8.3-3.4C227,31,229.4,32,231.5,34.2z M231.5,44.3v-3.1c-0.2-1.3-0.9-2.5-2-3.6
			c-1.4-1.4-3.1-2.2-5.2-2.2s-3.8,0.7-5.2,2.2c-1.4,1.4-2.1,3.2-2.1,5.2c0,2,0.7,3.8,2.1,5.2c1.4,1.4,3.2,2.1,5.2,2.1
			s3.8-0.7,5.2-2.1C230.5,46.8,231.2,45.6,231.5,44.3z"/>
		<path class="st39" d="M254.4,31c3.2,0,6,1.1,8.3,3.4c2.3,2.3,3.4,5,3.4,8.3c0,3.2-1.1,6-3.4,8.3c-2.3,2.3-5,3.4-8.3,3.4
			c-3.2,0-6-1.1-8.3-3.4c-2.3-2.3-3.4-5-3.4-8.3c0-3.2,1.1-6,3.4-8.3C248.5,32.1,251.2,31,254.4,31z M249.3,37.5
			c-1.4,1.4-2.1,3.2-2.1,5.2c0,2,0.7,3.8,2.1,5.2c1.4,1.4,3.2,2.1,5.2,2.1s3.8-0.7,5.2-2.1c1.4-1.4,2.1-3.1,2.1-5.2
			c0-2-0.7-3.7-2.1-5.2c-1.4-1.4-3.2-2.2-5.2-2.2S250.7,36.1,249.3,37.5z"/>
		<path class="st39" d="M308.1,34.2V21h4.3v32.9h-4.3v-2.6c-2.1,2.1-4.4,3.2-7.2,3.2c-3.2,0-6-1.1-8.3-3.4c-2.3-2.3-3.4-5-3.4-8.3
			c0-3.2,1.1-6,3.4-8.3c2.3-2.3,5-3.4,8.3-3.4C303.7,31,306.1,32,308.1,34.2z M308.1,44.3v-3.1c-0.2-1.3-0.9-2.5-2-3.6
			c-1.4-1.4-3.1-2.2-5.2-2.2s-3.8,0.7-5.2,2.2c-1.4,1.4-2.1,3.2-2.1,5.2c0,2,0.7,3.8,2.1,5.2c1.4,1.4,3.2,2.1,5.2,2.1
			s3.8-0.7,5.2-2.1C307.2,46.8,307.9,45.6,308.1,44.3z"/>
		<path class="st39" d="M327.2,49c0.7,0.6,2,0.9,3.9,0.9c2,0,3.8-0.7,5.2-2.1c0.2-0.2,0.5-0.6,1.1-1.3l4.3,1.5
			c-1,1.4-1.8,2.4-2.3,2.9c-2.3,2.3-5,3.4-8.3,3.4c-3.2,0-6-1.1-8.3-3.4c-2.3-2.3-3.4-5-3.4-8.3c0-3.2,1.1-6,3.4-8.3
			c2.3-2.3,5-3.4,8.3-3.4c2.8,0,5.2,0.8,7.3,2.5c0.3,0.3,0.7,0.6,1,0.9c0.1,0.1,0.5,0.6,1.2,1.3l-2.1,2.2L327.2,49z M334.3,35.9
			c-0.5-0.4-1.6-0.6-3.2-0.6c-2,0-3.7,0.7-5.2,2.1c-1.4,1.4-2.1,3.2-2.1,5.2c0,1.7,0.2,2.7,0.6,3.2L334.3,35.9z"/>
		<path class="st39" d="M367.9,32.7v-7.9h4.3v7.9h3.8V37h-3.8v16.9h-4.3V37h-3.8v-4.3H367.9z"/>
		<path class="st39" d="M391.9,54.1c-2.7,0-4.8-0.8-6.4-2.4c-1.6-1.6-2.5-3.7-2.5-6.1V32.7h4.3v12.7c0,1.2,0.4,2.3,1.3,3.1
			c0.9,0.9,2,1.3,3.3,1.3c1.2,0,2.3-0.4,3.2-1.3c0.9-0.9,1.3-1.9,1.3-3.2V32.7h4.3v12.9c0,2.5-0.9,4.5-2.5,6.1
			C396.6,53.3,394.5,54.1,391.9,54.1z"/>
		<path class="st39" d="M433.6,53.8l-10.1-21.1h4.8l6.3,13.7l6.4-13.7h4.8l-10.1,21.1H433.6z"/>
		<path class="st39" d="M456.7,24.9c0.6,0.6,0.9,1.3,0.9,2.1c0,0.8-0.3,1.5-0.9,2.1s-1.3,0.9-2.1,0.9c-0.8,0-1.5-0.3-2.1-0.9
			c-0.6-0.6-0.9-1.3-0.9-2.1c0-0.8,0.3-1.5,0.9-2.1c0.6-0.6,1.3-0.9,2.1-0.9C455.4,24,456.1,24.3,456.7,24.9z M456.7,32.7v21.1h-4.2
			V32.7H456.7z"/>
		<path class="st39" d="M483.6,34.2V21h4.3v32.9h-4.3v-2.6c-2.1,2.1-4.4,3.2-7.2,3.2c-3.2,0-6-1.1-8.3-3.4c-2.3-2.3-3.4-5-3.4-8.3
			c0-3.2,1.1-6,3.4-8.3c2.3-2.3,5-3.4,8.3-3.4C479.2,31,481.6,32,483.6,34.2z M483.6,44.3v-3.1c-0.2-1.3-0.9-2.5-2-3.6
			c-1.4-1.4-3.1-2.2-5.2-2.2s-3.8,0.7-5.2,2.2c-1.4,1.4-2.1,3.2-2.1,5.2c0,2,0.7,3.8,2.1,5.2c1.4,1.4,3.2,2.1,5.2,2.1
			s3.8-0.7,5.2-2.1C482.7,46.8,483.4,45.6,483.6,44.3z"/>
		<path class="st39" d="M514.5,34.2v-1.5h4.3v21.1h-4.3v-2.6c-2.1,2.1-4.4,3.2-7.1,3.2c-3.2,0-6-1.1-8.3-3.4c-2.3-2.3-3.4-5-3.4-8.3
			c0-3.2,1.1-6,3.4-8.3c2.3-2.3,5-3.4,8.3-3.4C510,31,512.4,32.1,514.5,34.2z M514.5,44.3v-3.1c-0.2-1.3-0.9-2.5-2-3.6
			c-1.4-1.4-3.2-2.1-5.2-2.1c-2,0-3.8,0.7-5.2,2.1c-1.4,1.4-2.1,3.1-2.1,5.2c0,2,0.7,3.7,2.1,5.2c1.4,1.4,3.2,2.1,5.2,2.1
			c2,0,3.7-0.7,5.2-2.1C513.6,46.8,514.2,45.6,514.5,44.3z"/>
		<path class="st39" d="M532.2,48.1l-4.7,9.9h-4l2.6-9.9H532.2z"/>
	</g>
	<g>
		<path class="st39" d="M104.4,128.5c0.6,0.5,1.6,0.8,3.1,0.8c1.6,0,3-0.6,4.2-1.7c0.1-0.2,0.4-0.5,0.9-1l3.4,1.2
			c-0.8,1.2-1.4,1.9-1.8,2.3c-1.8,1.8-4.1,2.8-6.7,2.8c-2.6,0-4.8-0.9-6.7-2.8c-1.8-1.8-2.8-4.1-2.8-6.7s0.9-4.8,2.8-6.7
			s4.1-2.8,6.7-2.8c2.2,0,4.2,0.7,5.9,2c0.3,0.2,0.5,0.5,0.8,0.7c0.1,0.1,0.4,0.5,0.9,1l-1.7,1.7L104.4,128.5z M110.2,117.9
			c-0.4-0.3-1.3-0.4-2.6-0.4c-1.6,0-3,0.6-4.2,1.7c-1.2,1.2-1.7,2.5-1.7,4.2c0,1.3,0.1,2.2,0.4,2.6L110.2,117.9z"/>
		<path class="st39" d="M125.2,128.7c0.4,0.4,0.9,0.6,1.5,0.6s1-0.2,1.5-0.6c0.4-0.4,0.6-0.9,0.6-1.5c0-0.6-0.2-1-0.6-1.4
			c-0.3-0.3-0.9-0.7-1.8-1.3c-1.2-0.7-2.1-1.3-2.6-1.8c-0.9-0.9-1.4-2-1.4-3.3c0-1.3,0.5-2.4,1.4-3.3c0.9-0.9,2-1.4,3.3-1.4
			s2.3,0.4,3.2,1.3c0.6,0.6,1,1.3,1.2,2l-3.3,1c-0.1-0.3-0.2-0.5-0.2-0.5c-0.2-0.2-0.5-0.3-0.8-0.3c-0.3,0-0.6,0.1-0.9,0.4
			c-0.2,0.2-0.4,0.5-0.4,0.9c0,0.3,0.1,0.6,0.3,0.8c0.2,0.2,0.7,0.5,1.4,1c1.4,0.8,2.4,1.4,3,2.1c1.1,1.1,1.6,2.4,1.6,3.9
			c0,1.5-0.5,2.8-1.6,3.9c-1.1,1.1-2.4,1.6-3.9,1.6c-1.5,0-2.8-0.5-3.9-1.6c-0.7-0.7-1.2-1.7-1.5-2.8l3.4-0.7
			C124.8,128.1,125,128.5,125.2,128.7z"/>
		<path class="st39" d="M155,119.9v12.5h-3.4v-17.1h3.4v2c0.7-1.9,2.2-2.9,4.3-2.9c1.8,0,3.3,0.7,4.4,2c1.1,1.3,1.6,3,1.7,4.9v11.1
			h-3.4v-11c0-1-0.4-1.8-1.1-2.5s-1.6-1.1-2.6-1.1c-1,0-1.8,0.3-2.6,1C155.3,119.3,155.1,119.6,155,119.9z"/>
		<path class="st39" d="M186.9,116.5v-1.2h3.4v17.1h-3.4v-2.1c-1.7,1.7-3.6,2.6-5.8,2.6c-2.6,0-4.8-0.9-6.7-2.8
			c-1.8-1.8-2.8-4.1-2.8-6.7s0.9-4.8,2.8-6.7c1.8-1.8,4.1-2.8,6.7-2.8C183.3,114,185.2,114.8,186.9,116.5z M186.9,124.6v-2.5
			c-0.2-1.1-0.7-2-1.6-2.9c-1.2-1.1-2.6-1.7-4.2-1.7c-1.6,0-3,0.6-4.2,1.7c-1.2,1.1-1.7,2.5-1.7,4.2c0,1.6,0.6,3,1.7,4.2
			c1.2,1.2,2.5,1.7,4.2,1.7c1.6,0,3-0.6,4.2-1.7C186.1,126.7,186.7,125.7,186.9,124.6z"/>
		<path class="st39" d="M211.8,116.5v-10.6h3.4v26.5h-3.4v-2.1c-1.7,1.7-3.6,2.6-5.8,2.6c-2.6,0-4.8-0.9-6.7-2.8
			c-1.8-1.8-2.8-4.1-2.8-6.7s0.9-4.8,2.8-6.7c1.8-1.8,4.1-2.8,6.7-2.8C208.2,113.9,210.1,114.8,211.8,116.5z M211.8,124.6v-2.5
			c-0.2-1.1-0.7-2-1.6-2.9c-1.1-1.2-2.5-1.7-4.2-1.7s-3,0.6-4.2,1.7c-1.2,1.2-1.7,2.6-1.7,4.2c0,1.6,0.6,3,1.7,4.2
			c1.2,1.1,2.5,1.7,4.2,1.7s3-0.6,4.2-1.7C211.1,126.7,211.6,125.7,211.8,124.6z"/>
		<path class="st39" d="M236.7,116.5v-1.2h3.4v17.1h-3.4v-2.1c-1.7,1.7-3.6,2.6-5.8,2.6c-2.6,0-4.8-0.9-6.7-2.8
			c-1.8-1.8-2.8-4.1-2.8-6.7s0.9-4.8,2.8-6.7c1.8-1.8,4.1-2.8,6.7-2.8C233.1,114,235,114.8,236.7,116.5z M236.7,124.6v-2.5
			c-0.2-1.1-0.7-2-1.6-2.9c-1.2-1.1-2.6-1.7-4.2-1.7c-1.6,0-3,0.6-4.2,1.7c-1.2,1.1-1.7,2.5-1.7,4.2c0,1.6,0.6,3,1.7,4.2
			c1.2,1.2,2.5,1.7,4.2,1.7c1.6,0,3-0.6,4.2-1.7C236,126.7,236.5,125.7,236.7,124.6z"/>
		<path class="st39" d="M260.3,115.3h3.4v1.6c0.7-1.7,1.9-2.5,3.8-2.5c1.9,0,2.9,1,3.2,2.9c0.5-1.9,2-2.9,4.5-2.9
			c2.4,0,3.6,1.5,3.6,4.4v13.6h-3.4v-12c0-1.7-0.7-2.5-2-2.5c-0.6,0-1,0.2-1.5,0.6c-0.4,0.4-0.6,1.7-0.6,4v9.9h-3.4l0-12
			c0-1.7-0.7-2.5-2.1-2.5c-0.6,0-1,0.2-1.5,0.6c-0.4,0.3-0.6,1.2-0.6,2.7v11.2h-3.4V115.3z"/>
		<path class="st39" d="M300.2,116.5v-1.2h3.4v17.1h-3.4v-2.1c-1.7,1.7-3.6,2.6-5.8,2.6c-2.6,0-4.8-0.9-6.7-2.8
			c-1.8-1.8-2.8-4.1-2.8-6.7s0.9-4.8,2.8-6.7c1.8-1.8,4.1-2.8,6.7-2.8C296.7,114,298.6,114.8,300.2,116.5z M300.2,124.6v-2.5
			c-0.2-1.1-0.7-2-1.6-2.9c-1.2-1.1-2.6-1.7-4.2-1.7c-1.6,0-3,0.6-4.2,1.7c-1.2,1.1-1.7,2.5-1.7,4.2c0,1.6,0.6,3,1.7,4.2
			c1.2,1.2,2.5,1.7,4.2,1.7c1.6,0,3-0.6,4.2-1.7C299.5,126.7,300,125.7,300.2,124.6z M295.4,109h4.2l-4.5,4.6h-3.3L295.4,109z"/>
		<path class="st39" d="M313.8,128.7c0.4,0.4,0.9,0.6,1.5,0.6s1-0.2,1.5-0.6c0.4-0.4,0.6-0.9,0.6-1.5c0-0.6-0.2-1-0.6-1.4
			c-0.3-0.3-0.9-0.7-1.8-1.3c-1.2-0.7-2.1-1.3-2.6-1.8c-0.9-0.9-1.4-2-1.4-3.3c0-1.3,0.5-2.4,1.4-3.3c0.9-0.9,2-1.4,3.3-1.4
			s2.3,0.4,3.2,1.3c0.6,0.6,1,1.3,1.2,2l-3.3,1c-0.1-0.3-0.2-0.5-0.2-0.5c-0.2-0.2-0.5-0.3-0.8-0.3c-0.3,0-0.6,0.1-0.9,0.4
			c-0.2,0.2-0.4,0.5-0.4,0.9c0,0.3,0.1,0.6,0.3,0.8c0.2,0.2,0.7,0.5,1.4,1c1.4,0.8,2.4,1.4,3,2.1c1.1,1.1,1.6,2.4,1.6,3.9
			c0,1.5-0.5,2.8-1.6,3.9c-1.1,1.1-2.4,1.6-3.9,1.6c-1.5,0-2.8-0.5-3.9-1.6c-0.7-0.7-1.2-1.7-1.5-2.8l3.4-0.7
			C313.5,128.1,313.6,128.5,313.8,128.7z"/>
		<path class="st39" d="M354.5,116.5v-1.2h3.4v22.8h-3.4v-7.9c-1.7,1.7-3.6,2.6-5.8,2.6c-2.6,0-4.8-0.9-6.7-2.8
			c-1.8-1.8-2.8-4.1-2.8-6.7s0.9-4.8,2.8-6.7c1.8-1.8,4.1-2.8,6.7-2.8C350.9,113.9,352.9,114.8,354.5,116.5z M354.5,124.6v-2.5
			c-0.2-1.1-0.7-2-1.6-2.9c-1.1-1.2-2.5-1.7-4.2-1.7s-3,0.6-4.2,1.7s-1.7,2.6-1.7,4.2c0,1.6,0.6,3,1.7,4.2c1.2,1.2,2.5,1.7,4.2,1.7
			s3-0.6,4.2-1.7C353.8,126.7,354.3,125.7,354.5,124.6z"/>
		<path class="st39" d="M371.9,132.6c-2.2,0-3.9-0.7-5.2-2c-1.3-1.3-2-3-2-4.9v-10.4h3.4v10.2c0,1,0.4,1.8,1.1,2.5
			c0.7,0.7,1.6,1.1,2.7,1.1c1,0,1.8-0.4,2.6-1.1c0.7-0.7,1.1-1.5,1.1-2.5v-10.2h3.4v10.4c0,2-0.7,3.6-2,4.9
			C375.6,131.9,373.9,132.6,371.9,132.6z"/>
		<path class="st39" d="M390.9,128.5c0.6,0.5,1.6,0.8,3.1,0.8c1.6,0,3-0.6,4.2-1.7c0.1-0.2,0.4-0.5,0.9-1l3.4,1.2
			c-0.8,1.2-1.4,1.9-1.8,2.3c-1.8,1.8-4.1,2.8-6.7,2.8c-2.6,0-4.8-0.9-6.7-2.8c-1.8-1.8-2.8-4.1-2.8-6.7s0.9-4.8,2.8-6.7
			s4.1-2.8,6.7-2.8c2.2,0,4.2,0.7,5.9,2c0.3,0.2,0.5,0.5,0.8,0.7c0.1,0.1,0.4,0.5,0.9,1l-1.7,1.7L390.9,128.5z M396.6,117.9
			c-0.4-0.3-1.3-0.4-2.6-0.4c-1.6,0-3,0.6-4.2,1.7c-1.2,1.2-1.7,2.5-1.7,4.2c0,1.3,0.1,2.2,0.4,2.6L396.6,117.9z"/>
		<path class="st39" d="M426.9,128.5c0.6,0.5,1.6,0.8,3.1,0.8c1.6,0,3-0.6,4.2-1.7c0.1-0.2,0.4-0.5,0.9-1l3.4,1.2
			c-0.8,1.2-1.4,1.9-1.8,2.3c-1.8,1.8-4.1,2.8-6.7,2.8c-2.6,0-4.8-0.9-6.7-2.8c-1.8-1.8-2.8-4.1-2.8-6.7s0.9-4.8,2.8-6.7
			s4.1-2.8,6.7-2.8c2.2,0,4.2,0.7,5.9,2c0.3,0.2,0.5,0.5,0.8,0.7c0.1,0.1,0.4,0.5,0.9,1l-1.7,1.7L426.9,128.5z M432.7,117.9
			c-0.4-0.3-1.3-0.4-2.6-0.4c-1.6,0-3,0.6-4.2,1.7c-1.2,1.2-1.7,2.5-1.7,4.2c0,1.3,0.1,2.2,0.4,2.6L432.7,117.9z"/>
		<path class="st39" d="M447.7,105.8v26.5h-3.4v-26.5H447.7z"/>
		<path class="st39" d="M471.2,117.6c1.3-1.7,2.9-2.6,4.7-2.7v3.6c-1.2,0.1-2.2,0.5-3,1.2c-1.1,1.1-1.7,2.4-1.7,3.9v8.8h-3.4v-17.1
			h3.4V117.6z"/>
		<path class="st39" d="M486.2,128.5c0.6,0.5,1.6,0.8,3.1,0.8c1.6,0,3-0.6,4.2-1.7c0.1-0.2,0.4-0.5,0.9-1l3.4,1.2
			c-0.8,1.2-1.4,1.9-1.8,2.3c-1.8,1.8-4.1,2.8-6.7,2.8c-2.6,0-4.8-0.9-6.7-2.8c-1.8-1.8-2.8-4.1-2.8-6.7s0.9-4.8,2.8-6.7
			s4.1-2.8,6.7-2.8c2.2,0,4.2,0.7,5.9,2c0.3,0.2,0.5,0.5,0.8,0.7c0.1,0.1,0.4,0.5,0.9,1l-1.7,1.7L486.2,128.5z M491.9,117.9
			c-0.4-0.3-1.3-0.4-2.6-0.4c-1.6,0-3,0.6-4.2,1.7c-1.2,1.2-1.7,2.5-1.7,4.2c0,1.3,0.1,2.2,0.4,2.6L491.9,117.9z"/>
		<path class="st39" d="M507.5,118.7v13.7H504v-13.7h-1.5v-3.4h1.5v-3.1c0.1-1.4,0.6-2.6,1.6-3.6c1-1,2.2-1.5,3.6-1.5
			c0.7,0,1.7,0.2,3.1,0.7l-1.1,3.2c-1-0.4-1.6-0.6-1.8-0.6c-0.5,0-0.9,0.2-1.3,0.6c-0.4,0.4-0.6,0.8-0.6,1.3v2.9h3.1v3.4H507.5z"/>
		<path class="st39" d="M518.5,105.8v26.5h-3.4v-26.5H518.5z"/>
		<path class="st39" d="M530.5,128.5c0.6,0.5,1.6,0.8,3.1,0.8c1.6,0,3-0.6,4.2-1.7c0.1-0.2,0.4-0.5,0.9-1l3.4,1.2
			c-0.8,1.2-1.4,1.9-1.8,2.3c-1.8,1.8-4.1,2.8-6.7,2.8c-2.6,0-4.8-0.9-6.7-2.8c-1.8-1.8-2.8-4.1-2.8-6.7s0.9-4.8,2.8-6.7
			s4.1-2.8,6.7-2.8c2.2,0,4.2,0.7,5.9,2c0.3,0.2,0.5,0.5,0.8,0.7c0.1,0.1,0.4,0.5,0.9,1l-1.7,1.7L530.5,128.5z M536.2,117.9
			c-0.4-0.3-1.3-0.4-2.6-0.4c-1.6,0-3,0.6-4.2,1.7c-1.2,1.2-1.7,2.5-1.7,4.2c0,1.3,0.1,2.2,0.4,2.6L536.2,117.9z"/>
		<path class="st39" d="M546.1,132.5c1.2-0.1,1.9-0.5,1.9-1.2v-16.1h3.4v16c0,2.8-1.8,4.3-5.3,4.6V132.5z M551.4,109
			c0.5,0.5,0.7,1,0.7,1.7c0,0.7-0.2,1.2-0.7,1.7s-1,0.7-1.7,0.7c-0.7,0-1.2-0.2-1.7-0.7c-0.5-0.5-0.7-1-0.7-1.7
			c0-0.7,0.2-1.2,0.7-1.7c0.5-0.5,1-0.7,1.7-0.7C550.4,108.3,550.9,108.5,551.4,109z"/>
		<path class="st39" d="M567.3,113.9c2.6,0,4.8,0.9,6.7,2.8c1.8,1.8,2.8,4.1,2.8,6.7s-0.9,4.8-2.8,6.7c-1.8,1.8-4.1,2.8-6.7,2.8
			c-2.6,0-4.8-0.9-6.7-2.8c-1.8-1.8-2.8-4.1-2.8-6.7s0.9-4.8,2.8-6.7S564.7,113.9,567.3,113.9z M563.1,119.2
			c-1.2,1.2-1.7,2.6-1.7,4.2c0,1.6,0.6,3,1.7,4.2c1.2,1.1,2.5,1.7,4.2,1.7s3-0.6,4.2-1.7c1.2-1.1,1.7-2.5,1.7-4.2
			c0-1.6-0.6-3-1.7-4.2c-1.2-1.2-2.5-1.7-4.2-1.7S564.2,118,563.1,119.2z"/>
	</g>
	<g>
		<path class="st39" d="M91.3,203.5v-10.6h3.4v26.5h-3.4v-2.1c-1.7,1.7-3.6,2.6-5.8,2.6c-2.6,0-4.8-0.9-6.7-2.8
			c-1.8-1.8-2.8-4.1-2.8-6.7s0.9-4.8,2.8-6.7c1.8-1.8,4.1-2.8,6.7-2.8C87.7,200.9,89.7,201.8,91.3,203.5z M91.3,211.7v-2.5
			c-0.2-1.1-0.7-2-1.6-2.9c-1.1-1.2-2.5-1.7-4.2-1.7s-3,0.6-4.2,1.7c-1.2,1.2-1.7,2.6-1.7,4.2c0,1.6,0.6,3,1.7,4.2
			c1.2,1.1,2.5,1.7,4.2,1.7s3-0.6,4.2-1.7C90.6,213.7,91.1,212.7,91.3,211.7z"/>
		<path class="st39" d="M106.7,215.5c0.6,0.5,1.6,0.8,3.1,0.8c1.6,0,3-0.6,4.2-1.7c0.1-0.2,0.4-0.5,0.9-1l3.4,1.2
			c-0.8,1.2-1.4,1.9-1.8,2.3c-1.8,1.8-4.1,2.8-6.7,2.8c-2.6,0-4.8-0.9-6.7-2.8c-1.8-1.8-2.8-4.1-2.8-6.7s0.9-4.8,2.8-6.7
			s4.1-2.8,6.7-2.8c2.2,0,4.2,0.7,5.9,2c0.3,0.2,0.5,0.5,0.8,0.7c0.1,0.1,0.4,0.5,0.9,1l-1.7,1.7L106.7,215.5z M112.5,204.9
			c-0.4-0.3-1.3-0.4-2.6-0.4c-1.6,0-3,0.6-4.2,1.7c-1.2,1.2-1.7,2.5-1.7,4.2c0,1.3,0.1,2.2,0.4,2.6L112.5,204.9z"/>
		<path class="st39" d="M127.5,192.9v26.5H124v-26.5H127.5z"/>
		<path class="st39" d="M152.9,215.5c0.6,0.5,1.6,0.8,3.1,0.8c1.6,0,3-0.6,4.2-1.7c0.1-0.2,0.4-0.5,0.9-1l3.4,1.2
			c-0.8,1.2-1.4,1.9-1.8,2.3c-1.8,1.8-4.1,2.8-6.7,2.8c-2.6,0-4.8-0.9-6.7-2.8c-1.8-1.8-2.8-4.1-2.8-6.7s0.9-4.8,2.8-6.7
			s4.1-2.8,6.7-2.8c2.2,0,4.2,0.7,5.9,2c0.3,0.2,0.5,0.5,0.8,0.7c0.1,0.1,0.4,0.5,0.9,1l-1.7,1.7L152.9,215.5z M158.6,204.9
			c-0.4-0.3-1.3-0.4-2.6-0.4c-1.6,0-3,0.6-4.2,1.7c-1.2,1.2-1.7,2.5-1.7,4.2c0,1.3,0.1,2.2,0.4,2.6L158.6,204.9z"/>
		<path class="st39" d="M173.7,215.7c0.4,0.4,0.9,0.6,1.5,0.6s1-0.2,1.5-0.6c0.4-0.4,0.6-0.9,0.6-1.5c0-0.6-0.2-1-0.6-1.4
			c-0.3-0.3-0.9-0.7-1.8-1.3c-1.2-0.7-2.1-1.3-2.6-1.8c-0.9-0.9-1.4-2-1.4-3.3c0-1.3,0.5-2.4,1.4-3.3c0.9-0.9,2-1.4,3.3-1.4
			s2.3,0.4,3.2,1.3c0.6,0.6,1,1.3,1.2,2l-3.3,1c-0.1-0.3-0.2-0.5-0.2-0.5c-0.2-0.2-0.5-0.3-0.8-0.3c-0.3,0-0.6,0.1-0.9,0.4
			c-0.2,0.2-0.4,0.5-0.4,0.9c0,0.3,0.1,0.6,0.3,0.8c0.2,0.2,0.7,0.5,1.4,1c1.4,0.8,2.4,1.4,3,2.1c1.1,1.1,1.6,2.4,1.6,3.9
			c0,1.5-0.5,2.8-1.6,3.9c-1.1,1.1-2.4,1.6-3.9,1.6c-1.5,0-2.8-0.5-3.9-1.6c-0.7-0.7-1.2-1.7-1.5-2.8l3.4-0.7
			C173.3,215.2,173.4,215.5,173.7,215.7z"/>
		<path class="st39" d="M188.8,202.3v-6.4h3.4v6.4h3.1v3.4h-3.1v13.6h-3.4v-13.6h-3.1v-3.4H188.8z"/>
		<path class="st39" d="M215.8,203.5v-1.2h3.4v17.1h-3.4v-2.1c-1.7,1.7-3.6,2.6-5.8,2.6c-2.6,0-4.8-0.9-6.7-2.8
			c-1.8-1.8-2.8-4.1-2.8-6.7s0.9-4.8,2.8-6.7c1.8-1.8,4.1-2.8,6.7-2.8C212.2,201,214.2,201.8,215.8,203.5z M215.8,211.7v-2.5
			c-0.2-1.1-0.7-2-1.6-2.9c-1.2-1.1-2.6-1.7-4.2-1.7c-1.6,0-3,0.6-4.2,1.7c-1.2,1.1-1.7,2.5-1.7,4.2c0,1.6,0.6,3,1.7,4.2
			c1.2,1.2,2.5,1.7,4.2,1.7c1.6,0,3-0.6,4.2-1.7C215.1,213.7,215.6,212.7,215.8,211.7z"/>
		<path class="st39" d="M240.7,203.5v-10.6h3.4v26.5h-3.4v-2.1c-1.7,1.7-3.6,2.6-5.8,2.6c-2.6,0-4.8-0.9-6.7-2.8
			c-1.8-1.8-2.8-4.1-2.8-6.7s0.9-4.8,2.8-6.7c1.8-1.8,4.1-2.8,6.7-2.8C237.2,200.9,239.1,201.8,240.7,203.5z M240.7,211.7v-2.5
			c-0.2-1.1-0.7-2-1.6-2.9c-1.1-1.2-2.5-1.7-4.2-1.7s-3,0.6-4.2,1.7c-1.2,1.2-1.7,2.6-1.7,4.2c0,1.6,0.6,3,1.7,4.2
			c1.2,1.1,2.5,1.7,4.2,1.7s3-0.6,4.2-1.7C240,213.7,240.5,212.7,240.7,211.7z"/>
		<path class="st39" d="M259.3,200.9c2.6,0,4.8,0.9,6.7,2.8c1.8,1.8,2.8,4.1,2.8,6.7s-0.9,4.8-2.8,6.7c-1.8,1.8-4.1,2.8-6.7,2.8
			c-2.6,0-4.8-0.9-6.7-2.8c-1.8-1.8-2.8-4.1-2.8-6.7s0.9-4.8,2.8-6.7S256.7,200.9,259.3,200.9z M255.1,206.2
			c-1.2,1.2-1.7,2.6-1.7,4.2c0,1.6,0.6,3,1.7,4.2c1.2,1.1,2.5,1.7,4.2,1.7s3-0.6,4.2-1.7c1.2-1.1,1.7-2.5,1.7-4.2
			c0-1.6-0.6-3-1.7-4.2c-1.2-1.2-2.5-1.7-4.2-1.7S256.3,205.1,255.1,206.2z"/>
		<path class="st39" d="M302.6,203.5v-10.6h3.4v26.5h-3.4v-2.1c-1.7,1.7-3.6,2.6-5.8,2.6c-2.6,0-4.8-0.9-6.7-2.8
			c-1.8-1.8-2.8-4.1-2.8-6.7s0.9-4.8,2.8-6.7c1.8-1.8,4.1-2.8,6.7-2.8C299,200.9,301,201.8,302.6,203.5z M302.6,211.7v-2.5
			c-0.2-1.1-0.7-2-1.6-2.9c-1.1-1.2-2.5-1.7-4.2-1.7s-3,0.6-4.2,1.7c-1.2,1.2-1.7,2.6-1.7,4.2c0,1.6,0.6,3,1.7,4.2
			c1.2,1.1,2.5,1.7,4.2,1.7s3-0.6,4.2-1.7C301.9,213.7,302.4,212.7,302.6,211.7z"/>
		<path class="st39" d="M318.1,215.5c0.6,0.5,1.6,0.8,3.1,0.8c1.6,0,3-0.6,4.2-1.7c0.1-0.2,0.4-0.5,0.9-1l3.4,1.2
			c-0.8,1.2-1.4,1.9-1.8,2.3c-1.8,1.8-4.1,2.8-6.7,2.8c-2.6,0-4.8-0.9-6.7-2.8c-1.8-1.8-2.8-4.1-2.8-6.7s0.9-4.8,2.8-6.7
			s4.1-2.8,6.7-2.8c2.2,0,4.2,0.7,5.9,2c0.3,0.2,0.5,0.5,0.8,0.7c0.1,0.1,0.4,0.5,0.9,1l-1.7,1.7L318.1,215.5z M323.8,204.9
			c-0.4-0.3-1.3-0.4-2.6-0.4c-1.6,0-3,0.6-4.2,1.7c-1.2,1.2-1.7,2.5-1.7,4.2c0,1.3,0.1,2.2,0.4,2.6L323.8,204.9z"/>
		<path class="st39" d="M350.9,202.3v-6.4h3.4v6.4h3.1v3.4h-3.1v13.6h-3.4v-13.6h-3.1v-3.4H350.9z"/>
		<path class="st39" d="M370.3,219.6c-2.2,0-3.9-0.7-5.2-2c-1.3-1.3-2-3-2-4.9v-10.4h3.4v10.2c0,1,0.4,1.8,1.1,2.5
			c0.7,0.7,1.6,1.1,2.7,1.1c1,0,1.8-0.4,2.6-1.1c0.7-0.7,1.1-1.5,1.1-2.5v-10.2h3.4v10.4c0,2-0.7,3.6-2,4.9
			C374,219,372.3,219.6,370.3,219.6z"/>
		<path class="st39" d="M397.4,202.3h3.4v1.6c0.7-1.7,1.9-2.5,3.8-2.5c1.9,0,2.9,1,3.2,2.9c0.5-1.9,2-2.9,4.5-2.9
			c2.4,0,3.6,1.5,3.6,4.4v13.6h-3.4v-12c0-1.7-0.7-2.5-2-2.5c-0.6,0-1,0.2-1.5,0.6c-0.4,0.4-0.6,1.7-0.6,4v9.9H405l0-12
			c0-1.7-0.7-2.5-2.1-2.5c-0.6,0-1,0.2-1.5,0.6c-0.4,0.3-0.6,1.2-0.6,2.7v11.2h-3.4V202.3z"/>
		<path class="st39" d="M427.9,215.5c0.6,0.5,1.6,0.8,3.1,0.8c1.6,0,3-0.6,4.2-1.7c0.1-0.2,0.4-0.5,0.9-1l3.4,1.2
			c-0.8,1.2-1.4,1.9-1.8,2.3c-1.8,1.8-4.1,2.8-6.7,2.8c-2.6,0-4.8-0.9-6.7-2.8c-1.8-1.8-2.8-4.1-2.8-6.7s0.9-4.8,2.8-6.7
			s4.1-2.8,6.7-2.8c2.2,0,4.2,0.7,5.9,2c0.3,0.2,0.5,0.5,0.8,0.7c0.1,0.1,0.4,0.5,0.9,1l-1.7,1.7L427.9,215.5z M433.7,204.9
			c-0.4-0.3-1.3-0.4-2.6-0.4c-1.6,0-3,0.6-4.2,1.7c-1.2,1.2-1.7,2.5-1.7,4.2c0,1.3,0.1,2.2,0.4,2.6L433.7,204.9z"/>
		<path class="st39" d="M448.7,206.9v12.5h-3.4v-17.1h3.4v2c0.7-1.9,2.2-2.9,4.3-2.9c1.8,0,3.3,0.7,4.4,2c1.1,1.3,1.6,3,1.7,4.9
			v11.1h-3.4v-11c0-1-0.4-1.8-1.1-2.5s-1.6-1.1-2.6-1.1c-1,0-1.8,0.3-2.6,1C449.1,206.3,448.8,206.6,448.7,206.9z"/>
		<path class="st39" d="M467.9,202.3v-6.4h3.4v6.4h3.1v3.4h-3.1v13.6h-3.4v-13.6h-3.1v-3.4H467.9z"/>
		<path class="st39" d="M485.4,215.5c0.6,0.5,1.6,0.8,3.1,0.8c1.6,0,3-0.6,4.2-1.7c0.1-0.2,0.4-0.5,0.9-1l3.4,1.2
			c-0.8,1.2-1.4,1.9-1.8,2.3c-1.8,1.8-4.1,2.8-6.7,2.8c-2.6,0-4.8-0.9-6.7-2.8c-1.8-1.8-2.8-4.1-2.8-6.7s0.9-4.8,2.8-6.7
			s4.1-2.8,6.7-2.8c2.2,0,4.2,0.7,5.9,2c0.3,0.2,0.5,0.5,0.8,0.7c0.1,0.1,0.4,0.5,0.9,1l-1.7,1.7L485.4,215.5z M491.1,204.9
			c-0.4-0.3-1.3-0.4-2.6-0.4c-1.6,0-3,0.6-4.2,1.7c-1.2,1.2-1.7,2.5-1.7,4.2c0,1.3,0.1,2.2,0.4,2.6L491.1,204.9z"/>
		<path class="st39" d="M502.1,196.8c-0.5-0.5-0.7-1-0.7-1.7c0-0.7,0.2-1.2,0.7-1.7c0.5-0.5,1-0.7,1.7-0.7c0.7,0,1.2,0.2,1.7,0.7
			c0.5,0.5,0.7,1,0.7,1.7c0,0.4-0.1,0.7-0.2,1l-1.8,3.6h-3.1L502.1,196.8z M507.6,196.8c-0.5-0.5-0.7-1-0.7-1.7
			c0-0.7,0.2-1.2,0.7-1.7c0.5-0.5,1-0.7,1.7-0.7c0.7,0,1.2,0.2,1.7,0.7c0.5,0.5,0.7,1,0.7,1.7c0,0.4-0.1,0.7-0.2,1l-1.8,3.6h-3.1
			L507.6,196.8z"/>
	</g>
</g>
</svg>
