<?xml version="1.0" encoding="utf-8"?>
<!-- Generator: Adobe Illustrator 21.0.0, SVG Export Plug-In . SVG Version: 6.00 Build 0)  -->
<svg version="1.1" id="Layer_1" xmlns="http://www.w3.org/2000/svg" xmlns:xlink="http://www.w3.org/1999/xlink" x="0px" y="0px"
	 viewBox="0 0 85.6 106.4" style="enable-background:new 0 0 85.6 106.4;" xml:space="preserve">
<style type="text/css">
	.st0{fill:#EDEDED;}
	.st1{fill:#685989;}
	.st2{fill:#864D7D;}
	.st3{fill:#BEDBC3;}
	.st4{fill:#9CC1C8;}
	.st5{opacity:0.5;fill:#9CC1C8;}
	.st6{fill:#D3DEE4;}
	.st7{fill:#007271;}
	.st8{fill:#369999;}
	.st9{fill:#4D2B2B;}
	.st10{fill:#3A1F1E;}
	.st11{fill:#E95B4E;}
	.st12{fill:#EE8268;}
	.st13{fill:#C83D36;}
	.st14{fill:#F6B99F;}
	.st15{fill:#EEE9DC;}
	.st16{fill:#F19775;}
	.st17{fill:#6B3E3F;}
	.st18{fill:#C7BDB7;}
	.st19{fill:#D1D5CA;}
	.st20{fill:#2B3668;}
	.st21{fill:#EE827D;}
	.st22{fill:#F87481;}
	.st23{fill:#FFFFFF;stroke:#FFFFFF;stroke-miterlimit:10;}
	.st24{fill:#FFFFFF;}
	.st25{opacity:0.3;clip-path:url(#SVGID_2_);}
	.st26{opacity:0.3;clip-path:url(#SVGID_4_);}
	.st27{opacity:0.3;clip-path:url(#SVGID_6_);}
	.st28{fill:#7087AF;}
	.st29{clip-path:url(#SVGID_8_);}
	.st30{fill:#B2555F;}
	.st31{fill:#47284F;}
	.st32{fill:#FFBF9B;}
	.st33{fill:#FFA687;}
	.st34{fill:#72426B;}
	.st35{fill:#FFC9AC;}
	.st36{fill:#C19884;}
	.st37{fill:#FFA68D;}
	.st38{fill:#13A6CE;}
	.st39{fill:#4E2447;}
	.st40{opacity:0.3;}
	.st41{fill:#1A2E35;}
	.st42{fill:#FFBF9D;}
	.st43{fill:#FF9A6C;}
	.st44{fill:#375A64;}
	.st45{fill:#E1E1E1;}
	.st46{opacity:0.2;}
	.st47{fill:#FF4F5B;}
	.st48{fill:#EBEBEB;}
	.st49{fill:#AA6550;}
	.st50{fill:#FAFAFA;}
</style>
<g>
	<path class="st2" d="M85,87.1C82.3,79.2,74.8,73.9,66.5,74H53.4v-6.3c1.4-0.8,2.7-1.7,3.9-2.7h14.1c3.2,0,5.8-2.6,5.8-5.8
		c-0.1-7.8,0.9-19.4-2.6-26.5V19.3c0-0.2,0-0.3,0-0.5l0,0c-0.2-0.5-0.5-0.8-0.9-1.1L43.6,0.2c-0.6-0.3-1.3-0.3-1.8,0L11.6,17.7
		c-0.9,0.5-1.1,1.7-0.6,2.5c0.1,0.2,0.3,0.4,0.6,0.6l0,0l4.9,2.8C11.2,30,8.3,38.1,8.3,46.5V59c0,3.2,2.6,5.8,5.8,5.8h14.1
		c1.2,1.1,2.5,2,3.9,2.8v6.3h-13c-8.4-0.1-15.9,5.2-18.5,13.1c-2.4,8,2.2,16.4,10.2,18.7c1.3,0.4,2.7,0.6,4.1,0.6h55.8
		c8.3-0.1,15-6.9,14.9-15.2C85.6,89.8,85.4,88.4,85,87.1z M41,97.3l-7.7-14.1c2.1,1.9,4.8,3.1,7.7,3.5V97.3z M44.7,86.7
		c2.8-0.4,5.5-1.6,7.7-3.5l-7.7,14.1V86.7z M34.8,64.9L34.8,64.9c-5.6-2.5-9.2-8-9.4-14.1V39.5c11,5.1,23.7,5.1,34.7,0v11.3
		C60.4,62.7,45.6,70.4,34.8,64.9z M41.8,38.3c0.6,0.3,1.3,0.3,1.8,0L62,27.6v6.7c-11.9,7.2-26.8,7.2-38.7,0v-6.7L41.8,38.3z
		 M63.8,43.9h1.5c1,0,1.8,0.8,1.8,1.8V48c0,1-0.8,1.8-1.8,1.8h-1.5V43.9z M73.6,59.1c0,1.2-0.9,2.2-2.1,2.2h0H60.6
		c1.6-2.3,2.6-4.9,3-7.7h1.8c3,0,5.5-2.5,5.5-5.5v-2.2c0-3-2.5-5.5-5.5-5.5h-1.5c0-0.7,0.1-2-0.4-2.5c1-0.6,2.4-1.1,2.3-2.5v-9.9
		l0.2-0.1c4.9,5.6,7.6,12.8,7.6,20.3L73.6,59.1z M69.1,23.5l1.8-1.1v3.5C70.3,25.1,69.8,24.3,69.1,23.5z M42.8,4L66,17.4H42.8
		c-1,0-1.8,0.8-1.8,1.8c0,1,0.8,1.8,1.8,1.8H66L42.8,34.6L16.3,19.3L42.8,4z M12.1,59.1V46.5c0-7.6,2.7-15,7.7-20.8v9.5
		c0,1.3,1.4,1.8,2.3,2.4c-0.4,0.5-0.2,2-0.2,2.6c-3.7-0.4-7,1.7-7.1,5.5v2.2c0,3,2.5,5.5,5.5,5.5h0h1.8c0.4,2.8,1.5,5.4,3,7.7H14.2
		C13.1,61.1,12.1,60.2,12.1,59.1z M21.8,49.9h-1.5c-1,0-1.8-0.8-1.8-1.8v-2.2c0-1,0.8-1.8,1.8-1.8h1.5V49.9z M42.8,70.4
		c2.4,0,4.7-0.4,6.9-1.1v6.6c0,1,0.8,1.8,1.8,1.8h1.6c-2.9,2.4-6.4,5.8-10.4,5.5c-4,0.3-7.6-3.1-10.4-5.5h1.6c1,0,1.8-0.8,1.8-1.8
		v-6.6C38.1,70,40.5,70.4,42.8,70.4z M5.8,98.2C-0.8,89,8.5,77.3,19.2,77.7h7l13.5,25.1H14.9C11.3,102.8,8,101.1,5.8,98.2z
		 M79.8,98.2c-2.1,2.9-5.5,4.6-9.1,4.6H45.9l13.5-25.1h7C77.1,77.3,86.5,89,79.8,98.2z"/>
	<path class="st2" d="M39.3,48.3c-0.2-2.6-2.4-4.6-5-4.4c-2.4,0.1-4.3,2-4.4,4.4c0,1,0.8,1.8,1.8,1.8s1.8-0.8,1.8-1.8
		c-0.1-0.6,0.3-1.1,0.9-1.2c0.6-0.1,1.1,0.3,1.2,0.9c0,0.1,0,0.2,0,0.3c0,1,0.8,1.8,1.8,1.8S39.3,49.3,39.3,48.3z"/>
	<path class="st2" d="M48.2,50.1c1,0,1.8-0.8,1.8-1.8c-0.1-0.6,0.3-1.1,0.9-1.2c0.6-0.1,1.1,0.3,1.2,0.9c0,0.1,0,0.2,0,0.3
		c0,1,0.8,1.8,1.8,1.8s1.8-0.8,1.8-1.8c0.2-2.6-1.8-4.9-4.4-5c-2.6-0.2-4.9,1.8-5,4.4c0,0.2,0,0.4,0,0.6
		C46.4,49.3,47.2,50.1,48.2,50.1z"/>
	<path class="st2" d="M47.6,56.6c0-1-0.8-1.8-1.8-1.8c-1,0-1.8,0.8-1.8,1.8c0,0.6-0.5,1.1-1.1,1.1c-0.6,0-1.1-0.5-1.1-1.1v0
		c0-1-0.8-1.8-1.8-1.8s-1.8,0.8-1.8,1.8c0,2.6,2.1,4.7,4.7,4.7C45.4,61.4,47.6,59.3,47.6,56.6z"/>
</g>
</svg>
