<?xml version="1.0" encoding="utf-8"?>
<!-- Generator: Adobe Illustrator 21.0.0, SVG Export Plug-In . SVG Version: 6.00 Build 0)  -->
<svg version="1.1" id="Layer_1" xmlns="http://www.w3.org/2000/svg" xmlns:xlink="http://www.w3.org/1999/xlink" x="0px" y="0px"
	 viewBox="0 0 77.6 73.6" style="enable-background:new 0 0 77.6 73.6;" xml:space="preserve">
<style type="text/css">
	.st0{fill:#EDEDED;}
	.st1{fill:#685989;}
	.st2{fill:#864D7D;}
	.st3{fill:#BEDBC3;}
	.st4{fill:#9CC1C8;}
	.st5{opacity:0.5;fill:#9CC1C8;}
	.st6{fill:#D3DEE4;}
	.st7{fill:#007271;}
	.st8{fill:#369999;}
	.st9{fill:#4D2B2B;}
	.st10{fill:#3A1F1E;}
	.st11{fill:#E95B4E;}
	.st12{fill:#EE8268;}
	.st13{fill:#C83D36;}
	.st14{fill:#F6B99F;}
	.st15{fill:#EEE9DC;}
	.st16{fill:#F19775;}
	.st17{fill:#6B3E3F;}
	.st18{fill:#C7BDB7;}
	.st19{fill:#D1D5CA;}
	.st20{fill:#2B3668;}
	.st21{fill:#EE827D;}
	.st22{fill:#F87481;}
	.st23{fill:#FFFFFF;stroke:#FFFFFF;stroke-miterlimit:10;}
	.st24{fill:#FFFFFF;}
	.st25{opacity:0.3;clip-path:url(#SVGID_2_);}
	.st26{opacity:0.3;clip-path:url(#SVGID_4_);}
	.st27{opacity:0.3;clip-path:url(#SVGID_6_);}
	.st28{fill:#7087AF;}
	.st29{clip-path:url(#SVGID_8_);}
	.st30{fill:#B2555F;}
	.st31{fill:#47284F;}
	.st32{fill:#FFBF9B;}
	.st33{fill:#FFA687;}
	.st34{fill:#72426B;}
	.st35{fill:#FFC9AC;}
	.st36{fill:#C19884;}
	.st37{fill:#FFA68D;}
	.st38{fill:#13A6CE;}
	.st39{fill:#4E2447;}
	.st40{opacity:0.3;}
	.st41{fill:#1A2E35;}
	.st42{fill:#FFBF9D;}
	.st43{fill:#FF9A6C;}
	.st44{fill:#375A64;}
	.st45{fill:#E1E1E1;}
	.st46{opacity:0.2;}
	.st47{fill:#FF4F5B;}
	.st48{fill:#EBEBEB;}
	.st49{fill:#AA6550;}
	.st50{fill:#FAFAFA;}
</style>
<g>
	<g>
		<path class="st2" d="M49.2,55.7c-0.6-0.2-1.3,0.1-1.6,0.7c-2,4.7-7.4,6.9-12.1,4.9c-2.1-0.9-3.8-2.5-4.7-4.5
			c-0.2-0.6-0.9-1-1.6-0.7c-0.6,0.2-1,0.9-0.7,1.6c0,0.1,0.1,0.1,0.1,0.2c2.8,5.8,9.7,8.3,15.5,5.5c2.6-1.2,4.6-3.3,5.7-6
			C50,56.7,49.8,56,49.2,55.7z"/>
		<path class="st2" d="M39.1,64.9c-1.4,0-2.8-0.2-4.1-0.7c-3.1-1.1-5.5-3.3-6.9-6.2c0,0-0.1-0.1-0.1-0.2c-0.3-0.9,0.1-1.9,1-2.2
			c0.4-0.2,0.9-0.1,1.3,0.1c0.4,0.2,0.7,0.5,0.9,1c0.9,1.9,2.5,3.4,4.4,4.2c4.4,1.9,9.5-0.2,11.4-4.6c0.4-0.9,1.4-1.2,2.2-0.9l0,0
			c0.8,0.4,1.2,1.4,0.9,2.2c-1.2,2.8-3.3,5-6,6.3C42.6,64.5,40.9,64.9,39.1,64.9z M29.6,56.4c-0.1,0-0.2,0-0.2,0
			C29,56.6,28.8,57,29,57.4c0,0,0,0.1,0.1,0.1c1.3,2.7,3.5,4.8,6.3,5.8c2.8,1,5.8,0.8,8.5-0.4c2.5-1.2,4.4-3.2,5.5-5.7
			c0.1-0.4,0-0.8-0.4-0.9c-0.4-0.1-0.8,0-1,0.4c-2.1,4.9-7.8,7.2-12.7,5.1c-2.2-0.9-4-2.6-5-4.8c-0.1-0.2-0.2-0.4-0.4-0.4
			C29.8,56.4,29.7,56.4,29.6,56.4z"/>
	</g>
	<g>
		<path class="st2" d="M33.1,44.2c0.4-0.5,0.3-1.3-0.2-1.7c-0.5-0.4-1.2-0.4-1.6,0.1c-1,1.4-2.7,2.3-4.5,2.4c-1.6-0.2-3-1-3.9-2.3
			c-0.4-0.5-1.1-0.7-1.7-0.3c0,0,0,0,0,0c-0.5,0.4-0.7,1.1-0.3,1.7c1.4,1.8,3.4,3,5.7,3.3H27C29.4,47.3,31.6,46.1,33.1,44.2z"/>
		<path class="st2" d="M26.7,47.9c-2.5-0.3-4.7-1.6-6.1-3.5c-0.5-0.8-0.3-1.8,0.4-2.4c0.8-0.6,1.8-0.4,2.4,0.4
			c0.9,1.1,2.1,1.9,3.6,2.1c1.5-0.1,3-0.9,4-2.2c0.7-0.7,1.7-0.7,2.3-0.2c0.4,0.3,0.6,0.7,0.6,1.2c0,0.5-0.1,0.9-0.4,1.2
			c-1.6,2-3.9,3.3-6.5,3.4L26.7,47.9z M22,42.7c-0.1,0-0.3,0-0.4,0.1c-0.3,0.2-0.4,0.7-0.2,1c1.3,1.7,3.2,2.8,5.4,3.1l0.3,0
			c2.2-0.1,4.3-1.2,5.7-3l0,0c0.1-0.1,0.2-0.3,0.2-0.5c0-0.2-0.1-0.4-0.3-0.5c-0.3-0.2-0.7-0.2-1,0c-1.1,1.5-2.9,2.5-4.8,2.5
			c-1.8-0.2-3.3-1.1-4.3-2.5C22.4,42.8,22.2,42.7,22,42.7z"/>
	</g>
	<g>
		<path class="st2" d="M54.8,42.6c-1,1.4-2.7,2.3-4.4,2.4c-1.6-0.2-3-1-3.9-2.3c-0.2-0.7-0.9-1-1.6-0.8c-0.7,0.2-1,0.9-0.8,1.6
			c0.1,0.3,0.2,0.5,0.5,0.6c1.4,1.9,3.5,3,5.8,3.3h0.3c2.4-0.1,4.6-1.3,6.1-3.2c0.4-0.5,0.4-1.2-0.1-1.7
			C56.1,42,55.3,42.1,54.8,42.6z"/>
		<path class="st2" d="M50.3,47.9c-2.5-0.3-4.7-1.5-6.2-3.4c-0.3-0.2-0.5-0.5-0.6-0.8c-0.1-0.5-0.1-0.9,0.1-1.4s0.6-0.7,1-0.9
			c0.5-0.1,0.9-0.1,1.4,0.1c0.4,0.2,0.7,0.5,0.9,0.9c0.9,1.1,2.1,1.8,3.5,2c1.5-0.1,3-0.9,4-2.2l0-0.1c0.7-0.7,1.7-0.7,2.5-0.1
			c0.7,0.7,0.7,1.7,0.2,2.4c-1.5,2-3.9,3.2-6.4,3.4L50.3,47.9z M45.3,42.3c-0.1,0-0.2,0-0.2,0c-0.2,0.1-0.4,0.2-0.5,0.4
			c-0.1,0.2-0.1,0.4,0,0.6c0.1,0.2,0.1,0.3,0.3,0.4l0.1,0.1c1.3,1.7,3.3,2.9,5.5,3.1l0.3,0c2.2-0.1,4.3-1.2,5.7-3
			c0.3-0.3,0.2-0.8,0-1.1c-0.3-0.2-0.7-0.2-1,0.1c-1.1,1.5-2.9,2.5-4.8,2.6c-1.8-0.2-3.3-1.1-4.3-2.5L46,42.8
			c-0.1-0.2-0.2-0.4-0.4-0.5C45.5,42.3,45.4,42.3,45.3,42.3z"/>
	</g>
	<g>
		<path class="st2" d="M67.4,32.1c-0.2-3.3-1.3-12.2-6.8-17.4c-3.2-2.9-7.4-4.3-11.7-3.8c-2.7,0.2-5.2,0.4-7.4,0.6
			c-13.7,1.2-17.8,1.6-22-10.2c-0.2-0.5-0.7-0.8-1.3-0.8c-0.2,0-0.3,0.1-0.4,0.1C17.5,0.8,9.1,5.4,6.7,14.4
			C5.2,20,6.2,25.9,9.8,32.2c-6,0.9-10.1,6.5-9.2,12.5C1.5,50,6.1,54,11.5,54h0.8c4,11.3,14.6,19,26.6,19.2
			c12-0.2,22.6-7.8,26.6-19.2h0.6c6.1,0,11-4.9,11-11C77.1,37.4,72.9,32.8,67.4,32.1L67.4,32.1z M9,15.1C10.7,9,15.6,5,17.8,3.5
			c4.8,12.1,10.6,11.6,24,10.4c2.2-0.2,4.7-0.4,7.4-0.6c3.6-0.4,7.2,0.8,9.8,3.2c5,4.7,5.9,13.1,6,15.9c-10.7,2.4-14.3-8.9-14.5-9.5
			c-0.2-0.6-0.9-1-1.5-0.8c-0.3,0.1-0.5,0.2-0.6,0.5c-6.8,9.6-17.9,11.7-22.3,12.1c-5.8,0.5-11.2-0.5-13.6-2.7
			C8.8,26,7.6,20.3,9,15.1z M2.9,43c0-4.3,3.1-7.9,7.4-8.5V43c0,2.9,0.4,5.8,1.2,8.6C6.7,51.5,2.9,47.7,2.9,43z M38.9,70.7
			c-14.4,0-26.2-12.4-26.2-27.7v-7.9c3.2,1.6,6.8,2.3,10.3,2.2c1.1,0,2.2-0.1,3.3-0.2c4.5-0.4,15.3-2.4,22.7-11.4
			c1.8,3.7,6.6,11,16,9.2V43C65.1,58.3,53.3,70.7,38.9,70.7z M66.3,51.5c0.8-2.8,1.2-5.7,1.2-8.5v-8.4c4.7,0.8,7.8,5.2,7,9.8
			C73.9,48.4,70.4,51.4,66.3,51.5z"/>
		<path class="st2" d="M38.9,73.6c-12.1-0.2-22.9-7.9-27-19.2h-0.4c0,0,0,0,0,0c-5.7,0-10.5-4.1-11.3-9.7c-0.5-3,0.3-6.1,2.1-8.5
			c1.7-2.3,4.1-3.8,6.8-4.4c-3.4-6.1-4.3-12-2.8-17.5C8.7,4.9,17.6,0.2,17.7,0.2C17.8,0.1,18,0,18.3,0c0.8-0.1,1.5,0.4,1.8,1.1
			c4.1,11.4,7.8,11.1,21.5,9.9c2.2-0.2,4.7-0.4,7.4-0.6c4.4-0.5,8.8,1,12,4c5.5,5.2,6.7,14.1,6.9,17.3c5.5,0.9,9.7,5.7,9.7,11.3
			c0,3.1-1.2,5.9-3.3,8.1c-2.2,2.2-5,3.4-8.1,3.4h-0.3C61.7,65.8,51,73.4,38.9,73.6z M11.5,53.5h1.1l0.1,0.3
			c3.9,11.1,14.4,18.6,26.2,18.8c11.7-0.2,22.2-7.7,26.1-18.8l0.1-0.3h1c2.8,0,5.4-1.1,7.4-3.1s3.1-4.6,3.1-7.4
			c0-5.1-3.7-9.4-8.6-10.3l0,0.7l-2-2l0.8,0.1c-0.3-3.2-1.4-11.5-6.6-16.4c-3-2.8-7.1-4.1-11.3-3.7c-2.7,0.2-5.2,0.4-7.4,0.6
			c-13.6,1.2-18.2,1.6-22.5-10.5C19,1.2,18.7,1,18.4,1c-0.1,0-0.2,0-0.2,0.1C18,1.1,9.6,5.6,7.2,14.6C5.7,20,6.7,25.8,10.2,31.9
			l0.4,0.6l-0.7,0.1c-2.8,0.4-5.2,1.9-6.9,4.2c-1.7,2.3-2.3,5-1.9,7.8C1.9,49.7,6.3,53.5,11.5,53.5C11.5,53.5,11.5,53.5,11.5,53.5z
			 M38.9,71.2c-14.7,0-26.7-12.6-26.7-28.2v-8.7l0.7,0.3c3.1,1.5,6.6,2.2,10.1,2.1c1.1,0,2.2-0.1,3.3-0.2
			c4.3-0.4,15.1-2.3,22.4-11.2l0.5-0.6l0.3,0.7c1.6,3.3,6.2,10.7,15.4,8.9l0.6-0.1V43C65.6,58.5,53.6,71.2,38.9,71.2z M13.2,35.9V43
			c0,15,11.5,27.2,25.7,27.2C53.1,70.2,64.6,58,64.6,43v-7.5c-8.9,1.4-13.7-5.2-15.6-8.9c-7.5,8.7-18.2,10.6-22.6,11
			c-1.1,0.1-2.3,0.1-3.4,0.2C19.7,37.9,16.3,37.3,13.2,35.9z M12.1,52.1l-0.7,0c-5,0-9-4.1-9-9.1v0c0-4.5,3.4-8.3,7.8-8.9l0.6-0.1v9
			c0,2.8,0.4,5.7,1.2,8.4L12.1,52.1z M3.4,43c0,4.2,3.3,7.7,7.4,8c-0.7-2.6-1-5.3-1-8v-7.9C6.1,35.9,3.4,39.2,3.4,43z M65.7,52
			l0.2-0.7c0.8-2.7,1.2-5.6,1.2-8.4v-9l0.6,0.1c4.9,0.8,8.3,5.5,7.5,10.4c-0.7,4.3-4.4,7.5-8.7,7.6L65.7,52z M68,35.2V43
			c0,2.7-0.3,5.4-1,8c3.6-0.4,6.5-3.1,7.1-6.7C74.7,40.1,72.1,36.1,68,35.2z M23.1,35.4c-4.7,0-8.8-1.1-10.9-2.9l-0.1-0.1
			c-3.8-6.2-5-12-3.6-17.4l0,0c1.7-6.4,6.9-10.4,9-11.9l0.5-0.3l0.2,0.6c4.6,11.7,10.1,11.2,23.5,10.1c2.2-0.2,4.7-0.4,7.4-0.6
			c3.7-0.4,7.4,0.8,10.2,3.3c5.2,4.9,6,13.7,6.2,16.3l0,0.4L65.1,33c-11.3,2.5-15-9.7-15.1-9.8c-0.1-0.2-0.2-0.3-0.3-0.4
			c-0.2-0.1-0.4-0.1-0.5,0c-0.1,0-0.3,0.1-0.4,0.3c-6.9,9.8-18.1,11.9-22.6,12.3C25.1,35.3,24.1,35.4,23.1,35.4z M12.9,31.7
			c2.3,2,7.6,3,13.2,2.5c4.4-0.4,15.2-2.4,21.9-11.9c0.2-0.3,0.5-0.5,0.9-0.6c0.4-0.1,0.9-0.1,1.3,0.1c0.4,0.2,0.7,0.6,0.8,1
			c0,0.1,3.4,11.2,13.5,9.2c-0.2-2.9-1.2-10.8-5.8-15.2c-2.6-2.3-6-3.4-9.4-3c-2.7,0.2-5.2,0.4-7.4,0.6
			c-13.3,1.2-19.4,1.7-24.3-10.1C15.3,5.9,11,9.6,9.5,15.2l0,0C8.1,20.3,9.3,25.8,12.9,31.7z"/>
	</g>
</g>
</svg>
