<?xml version="1.0" encoding="utf-8"?>
<!-- Generator: Adobe Illustrator 21.0.0, SVG Export Plug-In . SVG Version: 6.00 Build 0)  -->
<svg version="1.1" id="Layer_1" xmlns="http://www.w3.org/2000/svg" xmlns:xlink="http://www.w3.org/1999/xlink" x="0px" y="0px"
	 viewBox="0 0 105.5 101.5" style="enable-background:new 0 0 105.5 101.5;" xml:space="preserve">
<style type="text/css">
	.st0{fill:#FFFFFF;}
	.st1{fill-rule:evenodd;clip-rule:evenodd;fill:#685989;}
	.st2{fill:#F87481;}
	.st3{fill:#864D7D;}
	.st4{fill:#685989;}
	.st5{fill:#7087AF;}
	.st6{fill:#9CC1C8;}
	.st7{fill:#BEDBC3;}
	.st8{fill:none;stroke:#685989;stroke-width:3;stroke-miterlimit:10;}
	.st9{fill:none;stroke:#9CC1C8;stroke-width:3;stroke-miterlimit:10;}
	.st10{fill:none;stroke:#864D7D;stroke-width:3;stroke-miterlimit:10;}
	.st11{fill-rule:evenodd;clip-rule:evenodd;fill:#F87481;}
	.st12{opacity:0.3;clip-path:url(#SVGID_2_);}
	.st13{opacity:0.3;clip-path:url(#SVGID_4_);}
	.st14{opacity:0.3;clip-path:url(#SVGID_6_);}
	.st15{opacity:0.3;clip-path:url(#SVGID_8_);}
	.st16{opacity:0.3;clip-path:url(#SVGID_10_);}
	.st17{clip-path:url(#SVGID_12_);}
	.st18{clip-path:url(#SVGID_16_);}
	.st19{fill:#F6F6F6;}
	.st20{fill:#EDEDED;}
	.st21{opacity:0.5;fill:#9CC1C8;}
	.st22{fill:#D3DEE4;}
	.st23{fill:#007271;}
	.st24{fill:#369999;}
	.st25{fill:#4D2B2B;}
	.st26{fill:#3A1F1E;}
	.st27{fill:#E95B4E;}
	.st28{fill:#EE8268;}
	.st29{fill:#C83D36;}
	.st30{fill:#F6B99F;}
	.st31{fill:#EEE9DC;}
	.st32{fill:#EDC9C7;stroke:#221F20;stroke-linecap:round;stroke-linejoin:round;stroke-miterlimit:10;}
	.st33{fill:#F19775;}
	.st34{fill:#6B3E3F;}
	.st35{fill:#C7BDB7;}
	.st36{fill:#D1D5CA;}
	.st37{fill:#2B3668;}
	.st38{fill:#EE827D;}
	.st39{fill:#FFFFFF;stroke:#FFFFFF;stroke-miterlimit:10;}
	.st40{fill:#606060;}
	.st41{fill:none;stroke:#BEDBC3;stroke-width:4;stroke-linecap:round;stroke-linejoin:round;stroke-miterlimit:10;}
	.st42{fill:none;stroke:#864D7D;stroke-width:3.7;stroke-miterlimit:10;}
	.st43{fill:#864D7D;stroke:#864D7D;stroke-width:0.9403;stroke-miterlimit:10;}
	.st44{opacity:0.5;}
	.st45{fill:#FEFFFF;}
	.st46{fill:#FEFEFF;}
	.st47{fill:#FDFEFE;}
	.st48{fill:#FDFDFE;}
	.st49{fill:#FCFDFE;}
	.st50{fill:#FBFCFE;}
	.st51{fill:#FBFCFD;}
	.st52{fill:#FAFCFD;}
	.st53{fill:#FAFBFD;}
	.st54{fill:#F9FBFD;}
	.st55{fill:#F8FAFC;}
	.st56{fill:#F7FAFC;}
	.st57{fill:#F7F9FC;}
	.st58{fill:#F6F9FC;}
	.st59{fill:#F6F9FB;}
	.st60{fill:#F5F8FB;}
	.st61{fill:#F4F7FB;}
	.st62{fill:#F3F7FB;}
	.st63{fill:#F3F7FA;}
	.st64{fill:#F2F6FA;}
	.st65{fill:#F1F5FA;}
	.st66{fill:#F0F5F9;}
	.st67{fill:#F0F4F9;}
	.st68{fill:#EFF4F9;}
	.st69{fill:#EEF3F8;}
	.st70{fill:#EDF3F8;}
	.st71{fill:#EDF2F8;}
	.st72{fill:#ECF2F8;}
	.st73{fill:#EBF1F7;}
	.st74{fill:#EAF1F7;}
	.st75{fill:#EAF0F7;}
	.st76{fill:#E9F0F7;}
	.st77{fill:#E8EFF6;}
	.st78{fill:#E7EFF6;}
	.st79{fill:#E7EEF6;}
	.st80{fill:#E6EEF5;}
	.st81{fill:#E5EDF5;}
	.st82{fill:#E4ECF5;}
	.st83{fill:#E4ECF4;}
	.st84{fill:#E3ECF4;}
	.st85{fill:#E2EBF4;}
	.st86{fill:#E1EAF4;}
	.st87{fill:#E1EAF3;}
	.st88{fill:#E0EAF3;}
	.st89{fill:#E0E9F3;}
	.st90{fill:#DFE9F3;}
	.st91{fill:#DEE8F2;}
	.st92{fill:#DDE8F2;}
	.st93{fill:#DDE7F2;}
	.st94{fill:#DCE7F2;}
	.st95{fill:#DCE7F1;}
	.st96{fill:#DBE6F1;}
	.st97{fill:#DAE6F1;}
	.st98{fill:#DAE5F1;}
	.st99{fill:#D9E5F0;}
	.st100{fill:#D9E4F0;}
	.st101{fill:#D8E4F0;}
	.st102{fill:#D6E2EE;}
	.st103{fill:#D4E0EC;}
	.st104{fill:#D2DEEA;}
	.st105{fill:#D0DCE8;}
	.st106{fill:#CEDAE6;}
	.st107{fill:#CDD9E5;}
	.st108{fill:#CBD7E3;}
	.st109{fill:#C9D5E1;}
	.st110{fill:#C7D3DF;}
	.st111{fill:#C5D1DD;}
	.st112{fill:#C3CFDB;}
	.st113{fill:#C1CDD9;}
	.st114{fill:#BFCBD7;}
	.st115{fill:#BDC9D5;}
	.st116{fill:#BBC7D3;}
	.st117{fill:#B9C6D2;}
	.st118{fill:#B7C4D0;}
	.st119{fill:#B6C2CE;}
	.st120{fill:#B4C0CC;}
	.st121{fill:#B2BECA;}
	.st122{fill:#B0BCC8;}
	.st123{fill:#AEBAC6;}
	.st124{fill:#ACB8C4;}
	.st125{fill:#AAB6C2;}
	.st126{fill:#A8B4C0;}
	.st127{fill:#A6B3BF;}
	.st128{fill:#A4B1BD;}
	.st129{fill:#A2AFBB;}
	.st130{fill:#A0ADB9;}
	.st131{fill:#9FABB7;}
	.st132{fill:#9DA9B5;}
	.st133{fill:#9BA7B3;}
	.st134{fill:#99A5B1;}
	.st135{fill:#97A3AF;}
	.st136{fill:#95A1AD;}
	.st137{fill:#93A0AC;}
	.st138{fill:#919EAA;}
	.st139{fill:#8F9CA8;}
	.st140{fill:#8D9AA6;}
	.st141{fill:#8B98A4;}
	.st142{fill:#8996A2;}
	.st143{fill:#8894A0;}
	.st144{fill:#86929E;}
	.st145{fill:#84909C;}
	.st146{fill:#828E9A;}
	.st147{fill:#808D99;}
	.st148{fill:#7E8B97;}
	.st149{fill:#7C8995;}
	.st150{fill:#7A8793;}
	.st151{fill:#788591;}
	.st152{fill:#76838F;}
	.st153{fill:#74818D;}
	.st154{fill:#727F8B;}
	.st155{fill:#717D89;}
	.st156{fill:#6F7B87;}
	.st157{fill:#6D7A86;}
	.st158{fill:#6B7884;}
	.st159{fill:#697682;}
	.st160{fill:#677480;}
	.st161{fill:#65727E;}
	.st162{fill:#63707C;}
	.st163{fill:#616E7A;}
	.st164{fill:#5F6C78;}
	.st165{fill:#5D6A76;}
	.st166{fill:#5B6874;}
	.st167{fill:#5A6773;}
	.st168{fill:#586571;}
	.st169{fill:#56636F;}
	.st170{fill:#54616D;}
	.st171{fill:#525F6B;}
	.st172{fill:#505D69;}
	.st173{fill:#864D7D;stroke:#864D7D;stroke-miterlimit:10;}
	.st174{fill:none;stroke:#FFFFFF;stroke-width:2;stroke-miterlimit:10;}
	.st175{clip-path:url(#SVGID_26_);}
	.st176{clip-path:url(#SVGID_30_);}
	.st177{fill:#FFFFFF;stroke:#242E77;stroke-width:0.1637;stroke-linecap:round;stroke-linejoin:round;stroke-miterlimit:10;}
	.st178{opacity:0.3;clip-path:url(#SVGID_34_);}
	.st179{opacity:0.3;clip-path:url(#SVGID_36_);}
	.st180{opacity:0.3;clip-path:url(#SVGID_38_);}
	.st181{opacity:0.3;clip-path:url(#SVGID_40_);}
	.st182{opacity:0.3;clip-path:url(#SVGID_42_);}
	.st183{fill:none;stroke:#7087AF;stroke-miterlimit:10;}
	.st184{clip-path:url(#SVGID_44_);}
	.st185{clip-path:url(#SVGID_46_);}
	.st186{fill:none;stroke:#FFFFFF;stroke-miterlimit:10;}
	.st187{fill-rule:evenodd;clip-rule:evenodd;fill:#FFFFFF;}
	.st188{fill:#B2555F;}
	.st189{fill:#47284F;}
	.st190{fill:#FFBF9B;}
	.st191{fill:#FFA687;}
	.st192{fill:none;stroke:#47284F;stroke-width:1.1054;stroke-linecap:round;stroke-miterlimit:10;}
	.st193{fill:#72426B;}
	.st194{fill:#FFC9AC;}
	.st195{fill:#C19884;}
	.st196{fill:#FFA68D;}
	.st197{fill:#13A6CE;}
	.st198{fill:#4E2447;}
	.st199{opacity:0.3;}
	.st200{fill:#1A2E35;}
	.st201{fill:#FFBF9D;}
	.st202{fill:#FF9A6C;}
	.st203{fill:#375A64;}
	.st204{fill:#E1E1E1;}
	.st205{opacity:0.2;}
	.st206{fill:#FF4F5B;}
	.st207{fill:#EBEBEB;}
	.st208{fill:#AA6550;}
	.st209{fill:none;stroke:#FFA6AD;stroke-miterlimit:10;}
	.st210{fill:none;stroke:#FFFFFF;stroke-width:5.000000e-02;stroke-miterlimit:10;}
	.st211{fill:#FAFAFA;}
	.st212{fill:#FFFFFF;stroke:#FFFFFF;stroke-width:3;stroke-miterlimit:10;}
	.st213{clip-path:url(#SVGID_62_);}
	.st214{clip-path:url(#SVGID_66_);}
</style>
<g>
	<g>
		<path class="st0" d="M93.8,47.7c0-9-7.3-16.3-16.3-16.3c-9,0-16.3,7.3-16.3,16.3c0,6.1,3.3,11.6,8.7,14.4l1.3,0.7l-1.4,0.4
			c-1.5,0.4-2.9,1-4.2,1.6L65,65.1l-0.2-0.6c-1.8-4.6-6.2-7.5-11.1-7.5c-4.2,0-8.2,2.3-10.3,5.9l-0.3,0.5l-0.5-0.2
			c-1.7-0.8-3.4-1.4-5.2-1.9l-1.6-0.4l1.5-0.7c6-2.9,9.9-9,9.9-15.6c0-9.6-7.8-17.3-17.3-17.3c-9.6,0-17.3,7.8-17.3,17.3
			c0,6.6,3.9,12.8,9.9,15.6l1.5,0.7l-1.6,0.4C9.2,64.8,0,76.7,0,90.2v1.9h34.4l-0.3,0.8c-0.7,2.2-1.1,4.4-1.1,6.6v1.9h41.3v-1.9
			c0-2.2-0.4-4.5-1.1-6.6l-0.3-0.8h32.6v-1.9c0-12.4-8.3-23.5-20.3-26.9l-1.4-0.4l1.3-0.7C90.5,59.3,93.8,53.8,93.8,47.7z M53.7,61
			c4.5,0,8.1,3.6,8.1,8.1c0,4.5-3.6,8.1-8.1,8.1s-8.1-3.6-8.1-8.1C45.6,64.6,49.2,61,53.7,61z M16.4,44.6c0-7.4,6-13.5,13.5-13.5
			s13.5,6,13.5,13.5s-6,13.5-13.5,13.5S16.4,52,16.4,44.6z M36.4,88.3H3.9L4,87.6c1.3-13.3,12.4-23.4,25.8-23.4
			c4.1,0,8,0.9,11.6,2.8l0.4,0.2l0,0.4c-0.1,0.5-0.1,1-0.1,1.4c0,4,2,7.7,5.4,10l1,0.7L46.9,80c-4.2,1.5-7.9,4.3-10.4,8L36.4,88.3z
			 M37,97.6l0.1-0.7c1.3-8.1,8.4-14.2,16.6-14.2c8.2,0,15.3,6.1,16.6,14.2l0.1,0.7H37z M101.5,87.6l0.1,0.7H70.9L70.8,88
			c-2.5-3.7-6.2-6.5-10.4-8l-1.1-0.4l1-0.7c3.2-2.1,5.2-5.6,5.3-9.4l0-0.3l0.3-0.2c3.6-2,7.6-3,11.6-3
			C89.8,66.1,100.2,75.3,101.5,87.6z M77.5,60.2c-6.9,0-12.5-5.6-12.5-12.5c0-6.9,5.6-12.5,12.5-12.5s12.5,5.6,12.5,12.5
			C89.9,54.6,84.4,60.2,77.5,60.2z"/>
		<path class="st0" d="M55.1,2l-0.3,0.2L54.5,2C50-1.1,44-0.5,40.2,3.3c-4.4,4.4-4.4,11.5,0,15.9l14.5,14.5l0.1-0.1l0.1,0.1
			l14.5-14.5c4.4-4.4,4.4-11.5,0-15.9C65.6-0.5,59.6-1.1,55.1,2z"/>
	</g>
</g>
</svg>
