<?xml version="1.0" encoding="utf-8"?>
<!-- Generator: Adobe Illustrator 21.0.0, SVG Export Plug-In . SVG Version: 6.00 Build 0)  -->
<svg version="1.1" id="Layer_1" xmlns="http://www.w3.org/2000/svg" xmlns:xlink="http://www.w3.org/1999/xlink" x="0px" y="0px"
	 viewBox="0 0 93.9 106.4" style="enable-background:new 0 0 93.9 106.4;" xml:space="preserve">
<style type="text/css">
	.st0{fill:#EDEDED;}
	.st1{fill:#685989;}
	.st2{fill:#864D7D;}
	.st3{fill:#BEDBC3;}
	.st4{fill:#9CC1C8;}
	.st5{opacity:0.5;fill:#9CC1C8;}
	.st6{fill:#D3DEE4;}
	.st7{fill:#007271;}
	.st8{fill:#369999;}
	.st9{fill:#4D2B2B;}
	.st10{fill:#3A1F1E;}
	.st11{fill:#E95B4E;}
	.st12{fill:#EE8268;}
	.st13{fill:#C83D36;}
	.st14{fill:#F6B99F;}
	.st15{fill:#EEE9DC;}
	.st16{fill:#F19775;}
	.st17{fill:#6B3E3F;}
	.st18{fill:#C7BDB7;}
	.st19{fill:#D1D5CA;}
	.st20{fill:#2B3668;}
	.st21{fill:#EE827D;}
	.st22{fill:#F87481;}
	.st23{fill:#FFFFFF;stroke:#FFFFFF;stroke-miterlimit:10;}
	.st24{fill:#FFFFFF;}
	.st25{opacity:0.3;clip-path:url(#SVGID_2_);}
	.st26{opacity:0.3;clip-path:url(#SVGID_4_);}
	.st27{opacity:0.3;clip-path:url(#SVGID_6_);}
	.st28{fill:#7087AF;}
	.st29{clip-path:url(#SVGID_8_);}
	.st30{fill:#B2555F;}
	.st31{fill:#47284F;}
	.st32{fill:#FFBF9B;}
	.st33{fill:#FFA687;}
	.st34{fill:#72426B;}
	.st35{fill:#FFC9AC;}
	.st36{fill:#C19884;}
	.st37{fill:#FFA68D;}
	.st38{fill:#13A6CE;}
	.st39{fill:#4E2447;}
	.st40{opacity:0.3;}
	.st41{fill:#1A2E35;}
	.st42{fill:#FFBF9D;}
	.st43{fill:#FF9A6C;}
	.st44{fill:#375A64;}
	.st45{fill:#E1E1E1;}
	.st46{opacity:0.2;}
	.st47{fill:#FF4F5B;}
	.st48{fill:#EBEBEB;}
	.st49{fill:#AA6550;}
	.st50{fill:#FAFAFA;}
</style>
<g>
	<path class="st2" d="M34,73.2c-8,0-14.6-6.6-14.6-14.6v-7.4h-9.1l9.1-15.2v-4.3h-4.9v3L5.4,50.1c-1.1,1.9-0.5,4.4,1.4,5.5
		c0.6,0.4,1.3,0.6,2.1,0.6h5.8v2.5c0,10.7,8.7,19.4,19.4,19.5c1.3-0.1,2.5,1,2.5,2.3c0,0,0,0,0,0v0.4c0,3.9-3.2,7-7,7H17.9
		c-9.6,0-14,0.7-17.9,17.4l4.8,1.1C8,92.8,9.9,92.8,17.9,92.8h11.6c6.6,0,11.9-5.3,11.9-11.9v-0.4c0-4-3.3-7.2-7.3-7.2
		C34.1,73.2,34.1,73.2,34,73.2z"/>
	<path class="st2" d="M76,87.9h-8c-3.9,0-7-3.2-7-7V77c4.7-4.9,7.3-11.5,7.3-18.3v-27h-4.9v27c0,5.9-2.4,11.5-6.6,15.5L56.1,75v5.8
		c0,6.6,5.3,11.9,11.9,11.9h8c8,0,9.9,0,13.1,13.3l4.7-1.1C89.9,88.6,85.5,87.9,76,87.9z"/>
	<path class="st2" d="M41.4,14.6c-9.4,0-17.1,7.7-17.1,17.1h4.9c0-6.7,5.5-12.2,12.2-12.2S53.6,25,53.6,31.7h4.9
		C58.5,22.3,50.9,14.7,41.4,14.6z"/>
	<path class="st2" d="M41.3,23.7c-4.4,0.1-8,3.7-7.9,8.1h4.9c-0.1-1.7,1.2-3.1,2.9-3.2c1.7-0.1,3.1,1.2,3.2,2.9c0,0.1,0,0.2,0,0.3
		h4.9C49.2,27.3,45.7,23.7,41.3,23.7z"/>
	<rect x="39" y="0" class="st2" width="4.9" height="9.8"/>
	<rect x="56.7" y="11.1" transform="matrix(0.7071 -0.7071 0.7071 0.7071 8.5727 47.8484)" class="st2" width="10.8" height="4.9"/>
	<rect x="18.4" y="8.2" transform="matrix(0.7071 -0.7072 0.7072 0.7071 -3.4967 18.7112)" class="st2" width="4.9" height="10.8"/>
</g>
</svg>
