<?xml version="1.0" encoding="utf-8"?>
<!-- Generator: Adobe Illustrator 21.0.0, SVG Export Plug-In . SVG Version: 6.00 Build 0)  -->
<svg version="1.1" id="Layer_1" xmlns="http://www.w3.org/2000/svg" xmlns:xlink="http://www.w3.org/1999/xlink" x="0px" y="0px"
	 viewBox="0 0 77.9 106.4" style="enable-background:new 0 0 77.9 106.4;" xml:space="preserve">
<style type="text/css">
	.st0{fill:#EDEDED;}
	.st1{fill:#685989;}
	.st2{fill:#864D7D;}
	.st3{fill:#BEDBC3;}
	.st4{fill:#9CC1C8;}
	.st5{opacity:0.5;fill:#9CC1C8;}
	.st6{fill:#D3DEE4;}
	.st7{fill:#007271;}
	.st8{fill:#369999;}
	.st9{fill:#4D2B2B;}
	.st10{fill:#3A1F1E;}
	.st11{fill:#E95B4E;}
	.st12{fill:#EE8268;}
	.st13{fill:#C83D36;}
	.st14{fill:#F6B99F;}
	.st15{fill:#EEE9DC;}
	.st16{fill:#F19775;}
	.st17{fill:#6B3E3F;}
	.st18{fill:#C7BDB7;}
	.st19{fill:#D1D5CA;}
	.st20{fill:#2B3668;}
	.st21{fill:#EE827D;}
	.st22{fill:#F87481;}
	.st23{fill:#FFFFFF;stroke:#FFFFFF;stroke-miterlimit:10;}
	.st24{fill:#FFFFFF;}
	.st25{opacity:0.3;clip-path:url(#SVGID_2_);}
	.st26{opacity:0.3;clip-path:url(#SVGID_4_);}
	.st27{opacity:0.3;clip-path:url(#SVGID_6_);}
	.st28{fill:#7087AF;}
	.st29{clip-path:url(#SVGID_8_);}
	.st30{fill:#B2555F;}
	.st31{fill:#47284F;}
	.st32{fill:#FFBF9B;}
	.st33{fill:#FFA687;}
	.st34{fill:#72426B;}
	.st35{fill:#FFC9AC;}
	.st36{fill:#C19884;}
	.st37{fill:#FFA68D;}
	.st38{fill:#13A6CE;}
	.st39{fill:#4E2447;}
	.st40{opacity:0.3;}
	.st41{fill:#1A2E35;}
	.st42{fill:#FFBF9D;}
	.st43{fill:#FF9A6C;}
	.st44{fill:#375A64;}
	.st45{fill:#E1E1E1;}
	.st46{opacity:0.2;}
	.st47{fill:#FF4F5B;}
	.st48{fill:#EBEBEB;}
	.st49{fill:#AA6550;}
	.st50{fill:#FAFAFA;}
</style>
<g>
	<g>
		<path class="st2" d="M39,76.9c-0.3,0-0.6,0-0.9,0c-6-0.1-11.8-1.6-17.1-4.3C8,65.9,0,52.8,0,38.5C0,17.3,17.5,0,39,0
			c21.5,0,39,17.3,39,38.5c0,14.2-7.9,27.3-20.7,34c-5.3,2.8-11.1,4.3-17.1,4.5C39.8,76.9,39.4,76.9,39,76.9z M39,4.6
			C20,4.6,4.6,19.8,4.6,38.5c0,12.6,7.1,24.1,18.4,30c4.7,2.4,9.8,3.7,15.2,3.8l0.1,0c0.2,0,0.4,0,0.7,0c0.3,0,0.6,0,1,0
			c5.4-0.1,10.5-1.5,15.2-3.9C66.4,62.5,73.4,51,73.4,38.5C73.4,19.8,57.9,4.6,39,4.6z"/>
	</g>
	<g>
		<path class="st2" d="M39,67.1c-16,0-29-12.8-29-28.6S23,9.9,39,9.9s29,12.8,29,28.6S54.9,67.1,39,67.1z M39,14.4
			c-13.5,0-24.4,10.8-24.4,24c0,13.2,10.9,24,24.4,24s24.4-10.8,24.4-24C63.3,25.2,52.4,14.4,39,14.4z"/>
	</g>
	<g>
		<path class="st2" d="M28.5,106.4l-6.9-12.5l-13.5,6.4l12.6-33l2.3,1.2c4.7,2.4,9.8,3.7,15.2,3.8l3.2,0.1L28.5,106.4z M23.6,88
			l4.2,7.6l7.1-18.8c-4.1-0.4-8-1.4-11.7-3.1l-6.7,17.7L23.6,88z"/>
	</g>
	<g>
		<path class="st2" d="M49.7,106.4l-12.8-34l3.2-0.1c5.3-0.1,10.4-1.5,15.1-3.9l2.3-1.2L70,100.4l-13.5-6.4L49.7,106.4z M43.3,76.7
			l7.1,18.8l4.1-7.6l7.2,3.4l-6.8-17.8C51.2,75.2,47.3,76.3,43.3,76.7z"/>
	</g>
	<g>
		<path class="st2" d="M50.9,55.8L39,49.2L27,55.8l2.3-14l-9.5-9.8l13.2-2l6-12.8l6,12.8l13.2,2l-9.5,9.8L50.9,55.8z M29.2,35.3
			l4.9,5.1l-1.1,7L39,44l5.9,3.3l-1.1-7l4.9-5.1l-6.8-1L39,28L36,34.2L29.2,35.3z"/>
	</g>
</g>
</svg>
