<?xml version="1.0" encoding="utf-8"?>
<!-- Generator: Adobe Illustrator 21.0.0, SVG Export Plug-In . SVG Version: 6.00 Build 0)  -->
<svg version="1.1" id="Layer_1" xmlns="http://www.w3.org/2000/svg" xmlns:xlink="http://www.w3.org/1999/xlink" x="0px" y="0px"
	 viewBox="0 0 480.9 480.9" style="enable-background:new 0 0 480.9 480.9;" xml:space="preserve">
<style type="text/css">
	.st0{fill:#EDEDED;}
	.st1{fill:#685989;}
	.st2{fill:#864D7D;}
	.st3{fill:#BEDBC3;}
	.st4{fill:#9CC1C8;}
	.st5{opacity:0.5;fill:#9CC1C8;}
	.st6{fill:#D3DEE4;}
	.st7{fill:#007271;}
	.st8{fill:#369999;}
	.st9{fill:#4D2B2B;}
	.st10{fill:#3A1F1E;}
	.st11{fill:#E95B4E;}
	.st12{fill:#EE8268;}
	.st13{fill:#C83D36;}
	.st14{fill:#F6B99F;}
	.st15{fill:#EEE9DC;}
	.st16{fill:#F19775;}
	.st17{fill:#6B3E3F;}
	.st18{fill:#C7BDB7;}
	.st19{fill:#D1D5CA;}
	.st20{fill:#2B3668;}
	.st21{fill:#EE827D;}
	.st22{fill:#F87481;}
	.st23{fill:#FFFFFF;stroke:#FFFFFF;stroke-miterlimit:10;}
	.st24{fill:#FFFFFF;}
	.st25{opacity:0.3;clip-path:url(#SVGID_2_);}
	.st26{opacity:0.3;clip-path:url(#SVGID_4_);}
	.st27{opacity:0.3;clip-path:url(#SVGID_6_);}
	.st28{fill:#7087AF;}
	.st29{clip-path:url(#SVGID_8_);}
	.st30{fill:#B2555F;}
	.st31{fill:#47284F;}
	.st32{fill:#FFBF9B;}
	.st33{fill:#FFA687;}
	.st34{fill:#72426B;}
	.st35{fill:#FFC9AC;}
	.st36{fill:#C19884;}
	.st37{fill:#FFA68D;}
	.st38{fill:#13A6CE;}
	.st39{fill:#4E2447;}
	.st40{opacity:0.3;}
	.st41{fill:#1A2E35;}
	.st42{fill:#FFBF9D;}
	.st43{fill:#FF9A6C;}
	.st44{fill:#375A64;}
	.st45{fill:#E1E1E1;}
	.st46{opacity:0.2;}
	.st47{fill:#FF4F5B;}
	.st48{fill:#EBEBEB;}
	.st49{fill:#AA6550;}
	.st50{fill:#FAFAFA;}
</style>
<g>
	<g>
		<g>
			<g>
				<defs>
					<circle id="SVGID_53_" cx="240.4" cy="240.4" r="215.1"/>
				</defs>
				<clipPath id="SVGID_2_">
					<use xlink:href="#SVGID_53_"  style="overflow:visible;"/>
				</clipPath>
			</g>
		</g>
		<g>
			<circle class="st4" cx="240.4" cy="240.4" r="240.4"/>
			<g>
				<defs>
					<circle id="SVGID_55_" cx="240.4" cy="240.4" r="215.1"/>
				</defs>
				<use xlink:href="#SVGID_55_"  style="overflow:visible;fill:#FFFFFF;"/>
				<clipPath id="SVGID_4_">
					<use xlink:href="#SVGID_55_"  style="overflow:visible;"/>
				</clipPath>
			</g>
		</g>
		<g>
			<g>
				<defs>
					<circle id="SVGID_57_" cx="240.4" cy="240.4" r="215.1"/>
				</defs>
				<clipPath id="SVGID_6_">
					<use xlink:href="#SVGID_57_"  style="overflow:visible;"/>
				</clipPath>
			</g>
		</g>
	</g>
	<g>
		<g>
			<g>
				<g>
					<g>
						<polygon class="st45" points="199.9,232.5 211.8,230.2 270.5,230.9 300.4,237.4 311.8,404.1 179.8,410.3 						"/>
					</g>
				</g>
				<g>
					<g>
						<path class="st22" d="M285.4,396.4l2.8-75.8l-4.7-87.9c18.6,4.8,44,10.1,58,26.1c9.1,10.4,18.1,23.7,21.4,45.1
							c3.9,25.2,9,73.5,12.2,100.5"/>
					</g>
				</g>
				<g>
					<g>
						<path class="st22" d="M304,384l-91.2,14.8l-3.2-56.4l-5-111.4c-26.5,1.1-56.6,23-65.7,40c-6.3,11.8-11.6,25.6-13.2,38.9
							c-3.2,25.3-8.5,68.5-11.7,95.4c-2,16.6,3.7,33.2,15.3,45.3h0c13.2,13.7,34,18.4,52.6,14.5l138.9-39.2L304,384z"/>
					</g>
				</g>
			</g>
			<g>
				<g>
					<g>
						<g>
							<path class="st41" d="M294.4,383c0,0,0-0.1,0.1-0.3c0.1-0.2,0.2-0.5,0.3-0.9c0.3-0.8,0.6-2,1.1-3.5c1-3.1,2.4-7.5,4.1-13.1
								c3.6-11.2,8.6-26.8,14.3-44.7l0.2,0.4c-4.8-2-9.7-4-14.8-6.1l-0.6-0.2l0.5-0.3c1.1-0.7,2.2-1.5,3.4-2.2
								c3.8-2.5,7.6-5,11.2-7.3l-0.1,0.4c-5.7-19.7-10.7-37.1-14.3-49.6c-1.8-6.2-3.2-11.2-4.2-14.7c-0.5-1.7-0.8-3-1.1-4
								c-0.1-0.4-0.2-0.8-0.3-1c-0.1-0.2-0.1-0.4-0.1-0.4c0,0,0.1,0.1,0.1,0.3c0.1,0.3,0.2,0.6,0.3,1c0.3,0.9,0.7,2.3,1.2,3.9
								c1,3.5,2.5,8.4,4.3,14.6c3.6,12.5,8.7,29.8,14.5,49.5l0.1,0.2l-0.2,0.1c-3.6,2.3-7.3,4.8-11.2,7.3c-1.2,0.8-2.3,1.5-3.4,2.2
								l-0.1-0.6c5.1,2.1,10,4.2,14.8,6.1l0.3,0.1l-0.1,0.3c-5.8,17.9-10.9,33.5-14.5,44.6c-1.8,5.5-3.3,9.9-4.3,13
								c-0.5,1.5-0.9,2.7-1.2,3.5c-0.1,0.4-0.2,0.7-0.3,0.9C294.5,382.9,294.4,383,294.4,383z"/>
						</g>
					</g>
				</g>
				<g class="st46">
					<g>
						<g>
							<path d="M314.6,305.1c-0.6,2.5-2.8,5.9-4.6,6.9c-1.7,1-0.7,2.3,0.7,3.7c1.7,1.7,4.5,2.1,5.8,4.1c1.2,1.9,0.6,4.3-0.1,6.4
								c-6.3,20.1-14,39.8-23,58.8l21.2-64.5l-14.8-6.1L314.6,305.1z"/>
						</g>
					</g>
				</g>
			</g>
			<g>
				<g>
					<g>
						<path class="st41" d="M205.2,384.6c0,0-0.1-0.1-0.1-0.3c-0.1-0.2-0.2-0.5-0.4-0.8c-0.3-0.7-0.8-1.8-1.4-3.1
							c-1.2-2.7-2.9-6.6-5-11.5c-4.2-9.9-10.2-23.8-17.1-39.9l-0.1-0.2l0.2-0.1c3.7-2.7,7.7-5.5,11.7-8.3l0,0.5
							c-2.5-2-5.1-4-7.7-6.1c-1.1-0.9-2.3-1.8-3.4-2.7l-1.7-1.3l-0.4-0.3c-0.1-0.1-0.1-0.1-0.2-0.2c-0.1-0.1-0.1-0.3-0.2-0.4
							c-0.1-0.4-0.1-0.8-0.1-1.2c0-2.9,0.4-5.7,0.8-8.4c0.8-5.5,1.7-10.7,2.6-15.7c1.8-10,3.6-18.9,5.1-26.4
							c1.5-7.5,2.8-13.6,3.7-17.8c0.5-2.1,0.8-3.7,1.1-4.8c0.1-0.5,0.2-0.9,0.3-1.2c0.1-0.3,0.1-0.4,0.1-0.4c0,0,0,0.1-0.1,0.4
							c-0.1,0.3-0.1,0.7-0.2,1.3c-0.2,1.1-0.5,2.8-0.9,4.8c-0.8,4.2-2,10.3-3.5,17.8c-1.5,7.5-3.2,16.5-4.9,26.5
							c-0.9,5-1.8,10.2-2.5,15.7c-0.4,2.7-0.8,5.5-0.8,8.3c0,0.3,0,0.7,0.1,1c0,0.1,0.4,0.4,0.6,0.6l1.7,1.3
							c1.1,0.9,2.3,1.8,3.4,2.7c2.6,2.1,5.3,4.2,7.7,6.1l0.3,0.3l-0.4,0.3c-4,2.9-7.9,5.7-11.7,8.3l0.1-0.4
							c6.8,16.1,12.7,30,16.8,40c2.1,4.9,3.7,8.9,4.8,11.6c0.5,1.3,1,2.4,1.3,3.1c0.1,0.3,0.2,0.6,0.3,0.8
							C205.2,384.5,205.2,384.6,205.2,384.6z"/>
					</g>
				</g>
			</g>
		</g>
		<g>
			<g>
				<g>
					<path class="st47" d="M294.7,464.4l-91.9-14.2c-1.7-0.3-2.8-1.8-2.5-3.5l19.8-128.5c0.3-1.7,1.8-2.8,3.5-2.5l91.9,14.2
						c1.7,0.3,2.8,1.8,2.5,3.5l-19.8,128.5C297.9,463.6,296.4,464.7,294.7,464.4z"/>
				</g>
			</g>
			<g class="st46">
				<g>
					<path d="M294.7,464.4l-91.9-14.2c-1.7-0.3-2.8-1.8-2.5-3.5l19.8-128.5c0.3-1.7,1.8-2.8,3.5-2.5l91.9,14.2
						c1.7,0.3,2.8,1.8,2.5,3.5l-19.8,128.5C297.9,463.6,296.4,464.7,294.7,464.4z"/>
				</g>
			</g>
			<g>
				<g>
					
						<rect x="215.4" y="324.9" transform="matrix(0.9883 0.1525 -0.1525 0.9883 62.2669 -35.0264)" class="st48" width="88" height="126.7"/>
				</g>
			</g>
			<g>
				<g>
					<path class="st41" d="M286.5,330.3c-1.3-3.9-4.6-6.7-8.6-7.4l0.7-5.4c0.6-4-2.1-7.8-6.2-8.5h0c-4-0.6-7.8,2.1-8.5,6.2l-0.9,5.6
						l-1.9-0.3c-4-0.5-8,1.2-10.3,4.5l-1.4,2.1l37.9,5.8L286.5,330.3z M270.8,320.5c-2.2-0.3-3.7-2.4-3.3-4.6
						c0.3-2.2,2.4-3.7,4.6-3.3c2.2,0.3,3.7,2.4,3.3,4.6C275,319.3,273,320.8,270.8,320.5z"/>
				</g>
			</g>
			<g>
				<g>
					<g>
						
							<ellipse transform="matrix(0.1525 -0.9883 0.9883 0.1525 -129.7049 528.4345)" class="st41" cx="243.3" cy="339.8" rx="0.3" ry="11.9"/>
					</g>
				</g>
			</g>
			<g>
				<g>
					<g>
						
							<ellipse transform="matrix(0.1525 -0.9883 0.9883 0.1525 -138.4048 524.3611)" class="st41" cx="236.6" cy="342.9" rx="0.3" ry="5.8"/>
					</g>
				</g>
			</g>
			<g>
				<g>
					<g>
						
							<ellipse transform="matrix(0.1525 -0.9883 0.9883 0.1525 -131.1569 563.7155)" class="st41" cx="263.1" cy="358.3" rx="0.3" ry="33.2"/>
					</g>
				</g>
			</g>
			<g>
				<g>
					<g>
						
							<ellipse transform="matrix(0.1525 -0.9883 0.9883 0.1525 -138.1638 568.0663)" class="st41" cx="262.2" cy="364.6" rx="0.3" ry="33.2"/>
					</g>
				</g>
			</g>
			<g>
				<g>
					<g>
						
							<ellipse transform="matrix(0.1525 -0.9883 0.9883 0.1525 -145.1707 572.4173)" class="st41" cx="261.2" cy="370.9" rx="0.3" ry="33.2"/>
					</g>
				</g>
			</g>
			<g>
				<g>
					<g>
						
							<ellipse transform="matrix(0.1525 -0.9883 0.9883 0.1525 -152.1775 576.7682)" class="st41" cx="260.2" cy="377.1" rx="0.3" ry="33.2"/>
					</g>
				</g>
			</g>
			<g>
				<g>
					<g>
						
							<ellipse transform="matrix(0.1525 -0.9883 0.9883 0.1525 -159.1847 581.1183)" class="st41" cx="259.3" cy="383.4" rx="0.3" ry="33.2"/>
					</g>
				</g>
			</g>
			<g>
				<g>
					<g>
						
							<ellipse transform="matrix(0.1525 -0.9883 0.9883 0.1525 -166.1913 585.47)" class="st41" cx="258.3" cy="389.6" rx="0.3" ry="33.2"/>
					</g>
				</g>
			</g>
			<g>
				<g>
					<g>
						<path class="st41" d="M257.4,395.3c0,0-0.5,0-1.3-0.1c-0.8-0.1-2-0.2-3.5-0.4c-3-0.4-7.1-1-11.6-1.7
							c-4.5-0.7-8.6-1.4-11.6-1.9c-1.5-0.3-2.7-0.5-3.5-0.6c-0.8-0.2-1.3-0.3-1.3-0.3c0,0,0.5,0,1.3,0.1c0.8,0.1,2,0.2,3.5,0.4
							c3,0.4,7.1,1,11.6,1.7c4.5,0.7,8.6,1.4,11.6,1.9c1.5,0.3,2.7,0.5,3.5,0.6C257,395.1,257.4,395.2,257.4,395.3z"/>
					</g>
				</g>
			</g>
			<g>
				<g>
					<g>
						
							<ellipse transform="matrix(0.1525 -0.9883 0.9883 0.1525 -92.5259 586.8895)" class="st41" cx="295.9" cy="347.4" rx="0.3" ry="5.3"/>
					</g>
				</g>
			</g>
			<g>
				<g>
					<g>
						
							<ellipse transform="matrix(0.1525 -0.9883 0.9883 0.1525 -204.0742 572.6297)" class="st41" cx="231.9" cy="405.3" rx="0.3" ry="8.6"/>
					</g>
				</g>
			</g>
			<g>
				<g>
					<g>
						
							<ellipse transform="matrix(0.1525 -0.9883 0.9883 0.1525 -210.14 577.057)" class="st41" cx="231.4" cy="411.1" rx="0.3" ry="8.8"/>
					</g>
				</g>
			</g>
			<g>
				<g>
					<g>
						
							<ellipse transform="matrix(0.1526 -0.9883 0.9883 0.1526 -165.6915 632.3128)" class="st41" cx="285.9" cy="412.8" rx="0.3" ry="4.2"/>
					</g>
				</g>
			</g>
			<g>
				<g>
					<g>
						
							<ellipse transform="matrix(0.1526 -0.9883 0.9883 0.1526 -171.2186 636.1884)" class="st41" cx="285.4" cy="417.9" rx="0.3" ry="4.2"/>
					</g>
				</g>
			</g>
			<g>
				<g>
					<g>
						
							<ellipse transform="matrix(0.1525 -0.9883 0.9883 0.1525 -219.0896 577.5521)" class="st41" cx="227.2" cy="416.5" rx="0.3" ry="4"/>
					</g>
				</g>
			</g>
			<g>
				<g>
					<g>
						
							<ellipse transform="matrix(0.1525 -0.9883 0.9883 0.1525 -176.9076 641.934)" class="st41" cx="285.9" cy="424.1" rx="0.3" ry="3"/>
					</g>
				</g>
			</g>
			<g>
				<g>
					<g>
						<path class="st41" d="M220.6,429.3c0,0,0.5,0,1.5,0c1,0,2.4,0.1,4.2,0.1c3.7,0.1,8.8,0.4,15,0.6l0.3,0l-0.1,0.3
							c-0.4,1.5-1.3,3-2.6,4.1c-1.3,1.1-3.2,1.6-5.1,1.2c-1.8-0.4-3.5-1.7-4.1-3.6c-0.7-1.9,0-4.1,1.5-5.5c0.6-0.5,1.3-0.9,2-1.1
							c0.2-0.1,0.4-0.1,0.6-0.1c0.2,0,0.4,0,0.6,0c0.2,0,0.5,0.2,0.6,0.5c0.1,0.3,0.1,0.5,0.1,0.7c-0.2,1.4-0.7,2.8-1.4,4
							c-0.7,1.2-1.7,2.2-2.8,3c-1.1,0.8-2.4,1.3-3.7,1.2c-1.4,0-2.6-1-3-2.2c-0.5-1.1-0.6-2.4-0.3-3.5c0.7-2.2,2.3-3.7,3.5-5.1
							l0.3-0.4l0.1,0.5c0.2,2-0.2,3.7-1,5.1c-0.7,1.4-1.7,2.3-2.5,3c-0.9,0.7-1.6,1-2.2,1.2c-0.5,0.2-0.8,0.2-0.8,0.2
							c0-0.1,1.2-0.3,2.8-1.6c0.8-0.7,1.7-1.6,2.3-3c0.7-1.3,1.1-3,0.8-4.8l0.4,0.1c-1.3,1.3-2.8,2.8-3.3,4.9
							c-0.3,1-0.2,2.1,0.3,3.1c0.4,1,1.4,1.8,2.5,1.8c1.1,0.1,2.3-0.4,3.3-1.2c1-0.7,1.9-1.7,2.6-2.8c0.7-1.1,1.1-2.4,1.3-3.7
							c0-0.2,0-0.3,0-0.3c0-0.1-0.1-0.1-0.2-0.1c-0.2,0-0.6,0-0.9,0.1c-0.6,0.1-1.2,0.5-1.7,0.9c-1.3,1.2-2,3.1-1.4,4.7
							c0.6,1.6,2.1,2.8,3.7,3.2c1.6,0.4,3.3-0.1,4.5-1c1.3-0.9,2.1-2.3,2.4-3.7l0.3,0.3c-6.1-0.3-11.3-0.6-14.9-0.8
							c-1.7-0.1-3.1-0.2-4.2-0.3C221.1,429.4,220.6,429.3,220.6,429.3z"/>
					</g>
				</g>
			</g>
			<g>
				<g>
					<g>
						<path class="st41" d="M283,438.7c0,0-0.2,0.3-0.7,0.8c-0.3,0.2-0.6,0.5-1.1,0.7c-0.5,0.2-1.1,0.3-1.7,0.1
							c-0.3-0.1-0.6-0.3-0.9-0.6c-0.2-0.3-0.3-0.7-0.4-1.1c0-0.8,0.1-1.6,0.2-2.4c0.2-1.7,0.4-3.6,0.6-5.6l0.5,0.2
							c-1.5,2-3.1,4.2-4.8,6.5c-0.4,0.5-0.8,1.1-1.2,1.6l-0.8,1l0.2-1.3c0.5-3.4,1-6.5,1.4-9.3l0.5,0.3c-2.4,2.1-4.1,4.2-5.2,5.7
							c-1.1,1.5-1.6,2.5-1.6,2.4c0,0,0.1-0.3,0.3-0.7c0.2-0.5,0.6-1.1,1.1-1.9c1-1.6,2.6-3.8,5.1-5.9l0.6-0.5l-0.1,0.7
							c-0.4,2.8-0.8,5.9-1.3,9.3l-0.6-0.2c0.4-0.5,0.8-1.1,1.2-1.6c1.7-2.3,3.4-4.5,4.9-6.5l0.7-0.9l-0.1,1.1
							c-0.2,2-0.5,3.9-0.7,5.6c-0.1,0.8-0.2,1.6-0.2,2.3c0,0.7,0.4,1.2,0.9,1.4c1.1,0.4,2-0.2,2.6-0.6
							C282.7,438.9,282.9,438.7,283,438.7z"/>
					</g>
				</g>
			</g>
			<g>
				<g>
					<g>
						
							<ellipse transform="matrix(4.497843e-03 -1 1 4.497843e-03 -163.6277 706.0728)" class="st41" cx="272.8" cy="435.2" rx="0.3" ry="12.4"/>
					</g>
				</g>
			</g>
			<g>
				<g>
					<g>
						
							<ellipse transform="matrix(0.9941 -0.1081 0.1081 0.9941 -45.948 32.7633)" class="st41" cx="279.3" cy="440.3" rx="10" ry="0.3"/>
					</g>
				</g>
			</g>
		</g>
		<g class="st46">
			<g>
				<g>
					<path d="M179.5,309.4c-0.1,3.8,0.9,7.6,4,9.8c-3.9,1.9-6.1,6.5-6.2,10.9c-0.1,4.4,1.4,8.7,3.1,12.7c5.1,12.5,16,30.2,24.3,40.8
						c0,0-4.2-11.4-5.4-14c-5.5-12-10.3-24-15.8-36c-0.6-1.3-1.7-4.9-1.7-4.9c-0.6,0.3,0.2,0,1.6-1.1c3.1-2.5,9.8-6.9,9.8-6.9
						S179.5,309.7,179.5,309.4"/>
				</g>
			</g>
		</g>
		<g>
			<g>
				<g>
					
						<ellipse transform="matrix(3.204851e-02 -0.9995 0.9995 3.204851e-02 -194.8049 534.0073)" class="st41" cx="178.3" cy="367.6" rx="32.5" ry="0.3"/>
				</g>
			</g>
		</g>
		<g>
			<g>
				<g>
					<path class="st22" d="M205.2,384.6l-17,41.8l135.5,37.6c12.6,3.5,26,1.1,36.7-6.4l0,0c14.2-10,17.6-27.5,15.9-44.8l-2.4-18.4
						L205.2,384.6z"/>
				</g>
			</g>
			<g>
				<g>
					<g>
						<path class="st41" d="M348.8,429.9c-0.1,0-0.4-2.9-1.8-7.3c-0.4-1.1-0.8-2.3-1.3-3.5c-0.5-1.3-1.1-2.6-1.8-3.9
							c-1.4-2.7-3.2-5.5-5.5-8.3c-2.2-2.7-4.7-5-7-7c-1.2-0.9-2.3-1.8-3.5-2.6c-1.1-0.8-2.2-1.4-3.2-2c-4-2.2-6.8-3.1-6.8-3.2
							c0,0,0.7,0.2,1.9,0.6c0.6,0.2,1.4,0.5,2.2,0.9c0.8,0.4,1.8,0.8,2.8,1.4c1,0.5,2.2,1.2,3.3,1.9c1.2,0.7,2.3,1.6,3.6,2.5
							c2.4,1.9,4.9,4.3,7.1,7c2.2,2.8,4.1,5.7,5.5,8.4c0.7,1.4,1.3,2.7,1.8,4c0.5,1.3,0.9,2.5,1.2,3.6c0.4,1.1,0.6,2.1,0.8,3
							c0.2,0.9,0.3,1.7,0.4,2.3C348.7,429.2,348.8,429.9,348.8,429.9z"/>
					</g>
				</g>
			</g>
			<g class="st46">
				<g>
					<g>
						<path d="M185.2,402.4c-10.3,0.9-18.3,1.8-29,3.1c-6.7,0.8-13.6,0.4-15.8-6c-2.2-6.4-0.8-13.6,2.8-19.3
							c3.6-5.7,9.2-19,39.3-8.8L185.2,402.4z"/>
					</g>
				</g>
			</g>
			<g>
				<g>
					<g>
						<path class="st41" d="M199.1,400.5c0,0,0-0.1,0.1-0.3c0.1-0.2,0.2-0.5,0.3-0.8c0.3-0.8,0.7-1.8,1.1-3.2
							c1-2.8,2.5-6.8,4.3-11.7l0.1-0.2l0.2,0c11.4,1,27.9,2.5,46.1,4.2c17.4,1.7,33.1,3.1,44.6,4.2c5.7,0.6,10.3,1,13.5,1.4
							c1.6,0.2,2.8,0.3,3.7,0.4c0.4,0,0.7,0.1,1,0.1c0.2,0,0.3,0.1,0.3,0.1c0,0-0.1,0-0.3,0c-0.3,0-0.6,0-1-0.1
							c-0.9-0.1-2.1-0.2-3.7-0.3c-3.2-0.3-7.9-0.7-13.5-1.2c-11.5-1-27.2-2.5-44.6-4c-18.2-1.7-34.6-3.3-46.1-4.4l0.2-0.1
							c-1.9,4.9-3.5,8.9-4.5,11.7c-0.5,1.3-0.9,2.4-1.3,3.1c-0.1,0.3-0.2,0.6-0.3,0.8C199.2,400.5,199.1,400.5,199.1,400.5z"/>
					</g>
				</g>
			</g>
			<g class="st46">
				<g>
					<g>
						<path d="M254.9,443.6c19.2,5.2,30.9,2.2,48.4-7.4c3.3-1.8,7.3-4.7,10.3-7c3.5-2.7,6.6-7,6.6-7c-22.5,8.6-41.2,15.1-64.4,21.6"
							/>
					</g>
				</g>
			</g>
			<g>
				<g>
					<g>
						<path class="st42" d="M199.2,400.1l4.4-12.3l-10.2-16c-1.8-2.8-4.7-4.7-7.9-5.4l-37.6-7.1c0,0-1.8,4.6,3.2,7.4
							c4.9,2.8,27.1,8,27.1,8l-34.2-0.6c0,0-1.1,4.9,2.8,6.7c3.9,1.8,28.2,2.7,28.2,2.7l-31.2,4.4c0,0-0.2,4.9,6.9,5
							c5.7,0,17.4-0.8,21-1.3c0.6-0.1,1.2,0.3,1.3,0.9l0,0c0.1,0.6-0.3,1.1-0.8,1.3l-20.7,4.9c-2.7,0.6-2.9,4.7-0.2,5.4
							c0.4,0.1,0.7,0.1,1.2,0.1c3.5-0.4,24.6-3,24.6-3l1.1,2.5L199.2,400.1"/>
					</g>
				</g>
				<g>
					<g>
						<g>
							<path class="st49" d="M183.7,396.3c-0.1,0-0.2-0.9-1.2-1.9c-0.5-0.5-1.2-0.9-2-1.2c-0.8-0.3-1.8-0.4-2.9-0.3
								c-2.1,0.2-4,0.8-5.4,0.9c-1.4,0.2-2.3,0.1-2.3,0c0-0.1,0.9-0.2,2.2-0.5c1.4-0.3,3.2-1,5.5-1.1c1.1-0.1,2.2,0,3.1,0.4
								c0.9,0.4,1.6,0.9,2.1,1.5C183.9,395.3,183.8,396.3,183.7,396.3z"/>
						</g>
					</g>
				</g>
				<g>
					<g>
						<g>
							<path class="st49" d="M187.1,386.9c-0.1,0-0.1-0.3-0.4-0.9c-0.3-0.5-0.8-1.2-1.8-1.8c-1.9-1.1-5.1-0.7-8.5-0.5
								c-3.4,0.3-6.5,0.7-8.7,1c-2.2,0.3-3.6,0.5-3.6,0.4c0-0.1,1.3-0.4,3.6-0.8c2.2-0.4,5.3-0.9,8.7-1.2c1.7-0.1,3.4-0.2,4.9-0.2
								c1.5,0,2.9,0.3,3.9,1c1,0.6,1.6,1.5,1.8,2.1C187.2,386.5,187.1,386.9,187.1,386.9z"/>
						</g>
					</g>
				</g>
				<g>
					<g>
						<g>
							<path class="st49" d="M189.7,381.5c-0.1,0,0.2-1.3-0.8-2.8c-0.5-0.8-1.2-1.6-2.3-2.2c-1-0.6-2.4-1-3.8-1.1
								c-2.8-0.3-5.5,0.1-7.4-0.2c-1.9-0.2-3-0.7-3-0.7c0-0.1,1.2,0.2,3,0.3c1.9,0.1,4.5-0.3,7.4,0c1.5,0.2,2.9,0.6,4,1.2
								c1.1,0.7,1.9,1.6,2.4,2.5c0.5,0.9,0.6,1.7,0.6,2.2C189.9,381.2,189.7,381.5,189.7,381.5z"/>
						</g>
					</g>
				</g>
			</g>
		</g>
		<g>
			<g>
				<g>
					<path class="st41" d="M311.9,381.4c0,0,0-0.7,0.2-2c0.2-1.3,0.5-3.2,0.9-5.5c0.9-4.6,2.4-11,4-18c1.6-7,2.8-13.4,3.3-18.1
						c0.2-1.2,0.2-2.2,0.3-3.2c0.1-0.9,0.1-1.7,0.2-2.4c0.1-1.3,0.1-2,0.2-2c0,0,0.1,0.7,0.1,2.1c0,0.7,0,1.5-0.1,2.4
						c0,0.9-0.1,2-0.2,3.2c-0.4,4.7-1.5,11.2-3.1,18.2c-1.6,7-3.2,13.3-4.2,17.9c-0.5,2.3-0.9,4.2-1.1,5.5
						C312.1,380.7,311.9,381.4,311.9,381.4z"/>
				</g>
			</g>
		</g>
		<g>
			<g>
				<g>
					<path class="st41" d="M325,464.2c0,0-0.3,0-0.7-0.1c-0.5-0.1-1.2-0.3-2.1-0.5c-1.9-0.5-4.5-1.1-7.7-1.9
						c-6.5-1.6-15.4-4-25.2-6.7c-9.8-2.7-18.6-5.3-25-7.3c-3.1-1-5.7-1.8-7.5-2.4c-0.8-0.3-1.5-0.5-2-0.7c-0.5-0.2-0.7-0.3-0.7-0.3
						c0,0,0.3,0,0.7,0.2c0.5,0.1,1.2,0.3,2.1,0.6c1.9,0.5,4.5,1.3,7.6,2.2c6.5,1.8,15.3,4.3,25.1,7.1c9.8,2.7,18.6,5.1,25.1,6.9
						c3.2,0.9,5.7,1.6,7.6,2.1c0.8,0.2,1.5,0.4,2.1,0.6C324.7,464.1,325,464.1,325,464.2z"/>
				</g>
			</g>
		</g>
		<g>
			<g>
				<g>
					<path class="st41" d="M195.1,98.4c2.8-8.6,17-16.3,24.8-20.8c11.7-6.7,22.5-5.4,29.1,0.6c12-10.1,27.9-19.8,43.1-15.8
						c15.2,4,27.5,19.5,24.8,35c-1.6,9.1-7.9,17.3-7.6,26.5c0.3,6.3,3.6,12,6.3,17.7c2.7,5.7,4.7,12.4,2.3,18.2
						c-2.2,5.4-7.7,8.8-10.7,13.9c-2.4,4.1-3,9.1-4.5,13.6c-5.7,16.8-25.5,26.2-43,23.2c-17.5-2.9-32-16.1-40.3-31.8
						c-8.3-15.7-11-33.7-11.9-51.4"/>
				</g>
			</g>
			<g>
				<g>
					<g>
						<g>
							<g>
								<g>
									<g>
										<g>
											<g>
												<g>
													<g>
														<path class="st42" d="M208,110.1l3.5,139.9c1.3,16,16,27.7,33.2,26.3l0,0c17.3-1.5,30.6-15.8,29.6-32
															c-1-17-1.8-35-1.8-35s21.7-5.1,24.4-34c1.4-14.8-1-39.1-3.5-58.4c-2.1-16.2-17.2-27.3-33.3-24.6"/>
													</g>
												</g>
											</g>
										</g>
									</g>
								</g>
								<g>
									<g>
										<g>
											<g>
												<g>
													<g>
														<g>
															<path class="st41" d="M286.9,137.7c0.2,1.9-1.3,3.7-3.3,3.9c-2,0.2-3.8-1.1-4-3.1c-0.2-1.9,1.3-3.7,3.3-3.9
																C284.9,134.4,286.7,135.7,286.9,137.7z"/>
														</g>
													</g>
												</g>
											</g>
										</g>
									</g>
									<g>
										<g>
											<g>
												<g>
													<g>
														<g>
															<g>
																<path class="st41" d="M290.5,133.9c-0.4,0.5-3.3-1.4-7.3-1.1c-3.9,0.2-6.7,2.4-7.2,2c-0.2-0.2,0.2-1.1,1.4-2.1
																	c1.2-1,3.2-2,5.7-2.2c2.5-0.1,4.6,0.6,5.8,1.5C290.2,132.9,290.7,133.7,290.5,133.9z"/>
															</g>
														</g>
													</g>
												</g>
											</g>
										</g>
									</g>
								</g>
								<g>
									<g>
										<g>
											<g>
												<g>
													<g>
														<g>
															<path class="st41" d="M248.9,141.6c0.2,1.9-1.3,3.7-3.3,3.9c-2,0.2-3.8-1.1-4-3.1c-0.2-1.9,1.3-3.7,3.3-3.9
																C246.9,138.3,248.7,139.7,248.9,141.6z"/>
														</g>
													</g>
												</g>
											</g>
										</g>
									</g>
									<g>
										<g>
											<g>
												<g>
													<g>
														<g>
															<g>
																<path class="st41" d="M251.7,137.2c-0.4,0.5-3.3-1.4-7.3-1.1c-3.9,0.2-6.7,2.4-7.2,2c-0.2-0.2,0.2-1.1,1.4-2.1
																	c1.2-1,3.2-2,5.7-2.2c2.5-0.1,4.6,0.6,5.8,1.5C251.4,136.1,251.9,136.9,251.7,137.2z"/>
															</g>
														</g>
													</g>
												</g>
											</g>
										</g>
									</g>
								</g>
								<g>
									<g>
										<g>
											<g>
												<g>
													<g>
														<g>
															<path class="st41" d="M267.9,165.5c0-0.2,2.4-0.8,6.3-1.6c1-0.2,1.9-0.4,2.1-1.1c0.2-0.7-0.3-1.8-0.9-2.9
																c-1.1-2.4-2.3-4.9-3.5-7.5c-4.8-10.7-8.4-19.5-8-19.6c0.4-0.2,4.7,8.3,9.6,19c1.2,2.6,2.3,5.1,3.4,7.5
																c0.5,1.1,1.2,2.4,0.8,3.9c-0.2,0.8-0.9,1.4-1.6,1.6c-0.6,0.2-1.2,0.3-1.7,0.3C270.4,165.6,268,165.7,267.9,165.5z"/>
														</g>
													</g>
												</g>
											</g>
										</g>
									</g>
								</g>
								<g>
									<g>
										<g>
											<g>
												<g>
													<g>
														<path class="st43" d="M272.4,209.2c0,0-19.2,2.5-39-7.7c0,0,10.8,19.3,39.3,14.7L272.4,209.2z"/>
													</g>
												</g>
											</g>
										</g>
									</g>
								</g>
							</g>
						</g>
					</g>
					<g>
						<g>
							<g>
								<g>
									<g>
										<g>
											<path class="st41" d="M251.7,121.6c-0.3,1.1-4.3,0.8-8.9,1.7c-4.6,0.8-8.3,2.4-8.9,1.4c-0.3-0.4,0.3-1.5,1.7-2.6
												c1.4-1.1,3.8-2.3,6.5-2.8c2.8-0.5,5.3-0.2,7.1,0.4C251,120.3,251.9,121.1,251.7,121.6z"/>
										</g>
									</g>
								</g>
							</g>
						</g>
					</g>
					<g>
						<g>
							<g>
								<g>
									<g>
										<g>
											<path class="st41" d="M288.3,122.6c-0.6,0.9-3.4,0.2-6.7,0.4c-3.3,0.1-6,1-6.7,0.1c-0.3-0.4,0.1-1.4,1.2-2.3
												c1.1-0.9,3.1-1.7,5.3-1.8c2.3-0.1,4.3,0.6,5.4,1.5C288.1,121.2,288.6,122.1,288.3,122.6z"/>
										</g>
									</g>
								</g>
							</g>
						</g>
					</g>
				</g>
			</g>
			<g>
				<g>
					<path class="st49" d="M261.8,172.9c3.1,0,4.6,0.9,7.3,2.5c0.8,0.5,1.5,1,1.9,1.8c0.5,1.1,0.2,2.4-0.4,3.4
						c-1.3,2.3-3.9,3.8-6.5,3.5c-2.6-0.3-5-2.3-5.5-4.9C258,176.8,259.4,174,261.8,172.9"/>
				</g>
			</g>
			<g>
				<g>
					<g>
						<g>
							<path class="st41" d="M272.3,179.6c0,0.3-1,0.8-2.7,0.7c-1.7-0.1-4-0.8-6.2-2c-2.2-1.3-3.9-2.8-4.9-4.1
								c-1-1.3-1.3-2.4-1.1-2.5c0.5-0.3,3.1,2.4,7.2,4.6c2,1.1,3.9,2,5.3,2.4C271.3,179,272.2,179.2,272.3,179.6z"/>
						</g>
					</g>
				</g>
			</g>
			<g>
				<g>
					<circle class="st49" cx="252.8" cy="153.9" r="1"/>
				</g>
			</g>
			<g>
				<g>
					<circle class="st49" cx="282.4" cy="148.7" r="1"/>
				</g>
			</g>
			<g>
				<g>
					<circle class="st49" cx="288.2" cy="151.5" r="1"/>
				</g>
			</g>
			<g>
				<g>
					<circle class="st49" cx="290" cy="147.1" r="1"/>
				</g>
			</g>
			<g>
				<g>
					<circle class="st49" cx="248" cy="158.5" r="1"/>
				</g>
			</g>
			<g>
				<g>
					<circle class="st49" cx="244.1" cy="154.3" r="1"/>
				</g>
			</g>
			<g>
				<g>
					<g>
						<path class="st24" d="M262.3,141.6c-0.1,0,0-1.6-0.7-4.4c-0.7-2.7-2.5-6.8-6.6-9.9c-2-1.5-4.6-2.8-7.6-3.3
							c-2.9-0.5-6.3-0.4-9.4,0.8c-1.6,0.6-3.1,1.4-4.5,2.4c-1.4,1-2.7,2.3-3.8,3.8c-2.2,2.9-3.4,6.7-3.5,10.6
							c0,3.9,1.3,7.6,3.5,10.6c1.1,1.5,2.4,2.8,3.8,3.8c1.4,1.1,2.9,1.9,4.5,2.4c3.2,1.2,6.5,1.3,9.4,0.8c3-0.5,5.5-1.8,7.6-3.3
							c4.1-3.1,5.9-7.1,6.6-9.9C262.3,143.2,262.2,141.6,262.3,141.6c0,0,0,0.1,0,0.3c0,0.2,0,0.5,0,0.9c0,0.4,0,0.9-0.1,1.4
							c-0.1,0.6-0.1,1.2-0.3,1.9c-0.3,1.4-0.9,3.1-2,4.9c-1,1.8-2.6,3.7-4.6,5.3c-2.1,1.6-4.7,2.9-7.7,3.5c-3,0.5-6.4,0.5-9.7-0.8
							c-1.6-0.6-3.2-1.4-4.7-2.5c-1.5-1.1-2.8-2.4-3.9-3.9c-2.3-3-3.6-6.9-3.6-11c0-4,1.3-7.9,3.6-10.9c1.1-1.5,2.4-2.9,3.9-3.9
							c1.5-1.1,3-1.9,4.7-2.5c3.3-1.2,6.7-1.3,9.7-0.8c3,0.6,5.7,1.9,7.7,3.5c2.1,1.6,3.6,3.5,4.6,5.3c1,1.8,1.7,3.5,2,4.9
							c0.2,0.7,0.3,1.3,0.3,1.9c0.1,0.6,0.1,1,0.1,1.4c0,0.3,0,0.6,0,0.9C262.3,141.5,262.3,141.6,262.3,141.6z"/>
					</g>
				</g>
			</g>
			<g>
				<g>
					<g>
						<path class="st24" d="M270.2,136.1c-0.1,0.2-1.9-0.8-4.3-0.5c-2.4,0.2-4,1.5-4.1,1.4c-0.1-0.1,0.3-0.5,1-1
							c0.7-0.5,1.8-1,3.1-1.1c1.3-0.1,2.5,0.1,3.2,0.4C269.8,135.7,270.2,136,270.2,136.1z"/>
					</g>
				</g>
			</g>
			<g>
				<g>
					<path class="st41" d="M258.7,88.3c-2.6,22.8-19.5,43.3-41.3,50.2c7.1,10.2,2.6,29.5,2.8,45.7c0.2,15,0.2,19.3-9.6,27
						c-8,1.9-12.7-20.1-18.6-26.2c-6-6.1-11.7-13.7-11.2-22.3c0.2-4,1.8-7.8,2-11.8c0.2-4.4-1.2-8.8-2-13.2
						c-3.5-19.4,6.6-40.2,23.4-50.3c16.9-10.1,39.4-9.4,56.1,0.9"/>
				</g>
			</g>
			<g>
				<g>
					<path class="st41" d="M210.4,182c-2.3-7.7-5.5-13.8-10.6-20.1l0.4,0.8c-4-9.1-14-15.3-23.9-14.8c-10,0.5-19.2,7.6-22.3,17.1
						c-3.1,9.5,0.3,20.7,8.1,26.9c-2.8-0.6-5.7,1.8-6.4,4.7c-0.6,2.8,0.5,5.8,2.1,8.2c5.9,8.6,19.3,10.9,27.8,4.7
						c6.7,4.5,16.6,1.9,21.5-4.5C212.1,198.7,212.7,189.7,210.4,182z"/>
				</g>
			</g>
			<g>
				<g>
					<g>
						<path class="st44" d="M183.3,148.6c0,0-0.3-0.3-0.7-0.8c-0.4-0.6-1-1.5-1.3-2.8c-0.8-2.6-0.4-6.7,1.7-11.1
							c1-2.2,2.6-4.4,4.6-6.4c2-2,4.2-4.1,6.9-5.8c2.6-1.8,5.6-3.4,8.9-4.5c3.3-1.1,6.7-2,10.3-2.9c3.5-0.9,7-1.8,10.2-2.9
							c3.2-1.1,6.3-2.4,9-3.9c5.6-3,10.1-6.4,13.6-9.6c3.5-3.2,6-6.2,7.7-8.3c0.8-1,1.4-1.9,1.9-2.5c0.4-0.6,0.6-0.9,0.7-0.8
							c0,0-0.2,0.3-0.6,0.9c-0.4,0.6-1,1.5-1.8,2.5c-1.6,2.2-4.1,5.2-7.6,8.4c-3.5,3.3-8.1,6.8-13.7,9.8c-2.8,1.5-5.9,2.9-9.1,4
							c-3.3,1.2-6.7,2-10.3,2.9c-3.5,0.9-7,1.7-10.2,2.8c-3.2,1.1-6.2,2.6-8.8,4.4c-2.6,1.7-4.9,3.7-6.8,5.7c-2,2-3.5,4.1-4.5,6.2
							c-2.1,4.3-2.5,8.3-1.8,10.8C182.1,147.5,183.4,148.5,183.3,148.6z"/>
					</g>
				</g>
			</g>
			<g>
				<g>
					<g>
						<path class="st44" d="M256.6,86.4c0,0-0.2,0.3-0.6,0.7c-0.4,0.5-1,1.1-1.8,2c-1.6,1.7-4,4-7.3,6.6c-3.3,2.6-7.4,5.5-12.5,7.5
							c-2.6,1-5.4,1.7-8.4,2.3c-2.9,0.6-6,1-9.1,1.5c-6.3,0.9-12.2,1.9-17.4,3.7c-5.2,1.8-9.5,4.3-12.6,7c-3.1,2.7-5.1,5.5-6.1,7.6
							c-0.5,1-0.9,1.9-1,2.4c-0.2,0.6-0.3,0.9-0.4,0.9c0,0,0.1-0.3,0.2-0.9c0.1-0.6,0.5-1.4,0.9-2.5c1-2.1,2.9-5,6-7.8
							c3.1-2.8,7.5-5.4,12.7-7.2c5.2-1.8,11.2-2.8,17.5-3.7c3.1-0.5,6.2-0.9,9.1-1.5c2.9-0.6,5.7-1.2,8.3-2.2
							c5.1-2,9.2-4.9,12.4-7.3c3.3-2.5,5.7-4.8,7.4-6.4c0.8-0.8,1.4-1.4,1.9-1.9C256.4,86.6,256.6,86.4,256.6,86.4z"/>
					</g>
				</g>
			</g>
			<g>
				<g>
					<g>
						<path class="st44" d="M288.7,61.4c0,0.1-2.5,0.2-6.3,1.2c-1,0.3-2,0.6-3.1,1c-1.1,0.4-2.2,0.9-3.4,1.4
							c-2.3,1.2-4.8,2.6-7.2,4.5c-2.3,1.9-4.3,3.9-6,6c-0.8,1-1.6,2-2.2,3c-0.7,1-1.2,1.9-1.7,2.8c-1.9,3.5-2.5,5.9-2.6,5.8
							c0,0,0.1-0.6,0.4-1.7c0.2-0.5,0.4-1.2,0.7-1.9c0.3-0.7,0.6-1.6,1.1-2.5c0.4-0.9,1-1.9,1.6-2.8c0.6-1,1.4-2,2.2-3.1
							c1.7-2.1,3.7-4.2,6.1-6.1c2.4-1.9,4.9-3.4,7.3-4.5c1.2-0.5,2.4-1.1,3.5-1.4c1.1-0.4,2.2-0.7,3.1-0.9c1-0.3,1.9-0.4,2.6-0.5
							c0.8-0.1,1.5-0.2,2-0.2C288,61.4,288.6,61.4,288.7,61.4z"/>
					</g>
				</g>
			</g>
			<g>
				<g>
					<g>
						<path class="st44" d="M309,170.3c0,0,0.1-0.1,0.2-0.3c0.2-0.2,0.4-0.4,0.6-0.7c0.5-0.6,1.3-1.5,2.2-2.8c0.9-1.2,2-2.8,2.5-4.9
							c0.3-1,0.4-2.2,0.3-3.4c-0.2-1.2-0.6-2.4-1.3-3.6c-1.4-2.4-3.6-4.4-5.6-7c-2-2.5-3.9-5.5-5.4-8.9c-1.5-3.4-2.6-7.1-3.1-11
							c-0.5-4-0.4-8.1-0.3-12.3c0.1-4.2-0.1-8.3-1.1-12.1c-1-3.8-3-7.1-5.5-9.8c-2.4-2.7-5.3-4.7-8.2-6c-2.9-1.3-5.9-1.9-8.6-2
							c-5.5-0.2-9.8,1.4-12.5,2.8c-1.4,0.7-2.4,1.4-3,1.8c-0.3,0.2-0.5,0.4-0.8,0.5C259.1,91,259,91,259,91c0,0,1.2-1.2,3.9-2.7
							c2.7-1.5,7.1-3.1,12.6-3c2.8,0.1,5.8,0.6,8.8,2c3,1.3,5.9,3.3,8.4,6.1c2.5,2.7,4.5,6.1,5.6,10c1.1,3.9,1.2,8.1,1.2,12.3
							c-0.1,4.2-0.2,8.3,0.3,12.2c0.5,3.9,1.6,7.6,3,10.9c1.4,3.3,3.3,6.3,5.3,8.8c2,2.5,4.2,4.6,5.6,7.1c0.7,1.2,1.2,2.5,1.3,3.8
							c0.1,1.3,0,2.5-0.3,3.5c-0.6,2.1-1.8,3.7-2.7,5c-0.9,1.2-1.8,2.1-2.3,2.7c-0.3,0.3-0.5,0.5-0.6,0.7
							C309.1,170.3,309,170.3,309,170.3z"/>
					</g>
				</g>
			</g>
			<g>
				<g>
					<g>
						<path class="st24" d="M306,137.2c-0.1,0,0-1.6-0.7-4.4c-0.7-2.7-2.5-6.8-6.6-9.9c-2-1.5-4.6-2.8-7.6-3.3
							c-2.9-0.5-6.3-0.4-9.4,0.8c-1.6,0.6-3.1,1.4-4.5,2.4c-1.4,1-2.7,2.3-3.8,3.8c-2.2,2.9-3.4,6.7-3.5,10.6
							c0,3.9,1.3,7.6,3.5,10.6c1.1,1.5,2.4,2.8,3.8,3.8c1.4,1.1,2.9,1.9,4.5,2.4c3.2,1.2,6.5,1.3,9.4,0.8c3-0.5,5.5-1.8,7.6-3.3
							c4.1-3.1,5.9-7.1,6.6-9.9C306.1,138.8,305.9,137.2,306,137.2c0,0,0,0.1,0,0.3c0,0.2,0,0.5,0,0.9c0,0.4,0,0.9-0.1,1.4
							c-0.1,0.6-0.1,1.2-0.3,1.9c-0.3,1.4-0.9,3.1-2,4.9c-1,1.8-2.6,3.7-4.6,5.3c-2.1,1.6-4.7,2.9-7.7,3.5c-3,0.5-6.4,0.5-9.7-0.8
							c-1.6-0.6-3.2-1.4-4.7-2.5c-1.5-1.1-2.8-2.4-3.9-3.9c-2.3-3-3.6-6.9-3.6-11c0-4,1.3-7.9,3.6-10.9c1.1-1.5,2.4-2.9,3.9-3.9
							c1.5-1.1,3-1.9,4.7-2.5c3.3-1.2,6.7-1.3,9.7-0.8c3,0.6,5.7,1.9,7.7,3.5c2.1,1.6,3.6,3.5,4.6,5.3c1,1.8,1.7,3.5,2,4.9
							c0.2,0.7,0.3,1.3,0.3,1.9c0.1,0.6,0.1,1,0.1,1.4c0,0.3,0,0.6,0,0.9C306.1,137.1,306.1,137.2,306,137.2z"/>
					</g>
				</g>
			</g>
			<g>
				<g>
					<g>
						<path class="st44" d="M210.4,211.6c0,0-0.2-0.1-0.6-0.4c-0.4-0.3-1-0.7-1.7-1.3c-1.4-1.2-3.5-2.9-5.7-5.3
							c-2.2-2.4-4.6-5.8-5.4-10.2c-0.4-2.2-0.2-4.5-0.3-6.9c-0.1-2.3-0.5-4.8-2-6.8c-1.4-2-3.3-3.6-4.9-5.3
							c-1.7-1.7-3.1-3.6-4.1-5.6c-1-2-1.6-4-2-5.9c-0.4-1.9-0.6-3.7-0.5-5.4c0.1-1.7,0.4-3.1,0.5-4.4c0.2-1.3,0.2-2.4,0.1-3.3
							c-0.2-1.8-0.6-2.8-0.5-2.8c0,0,0.1,0.2,0.3,0.7c0.2,0.5,0.3,1.2,0.5,2.1c0.1,0.9,0.2,2.1,0,3.4c-0.1,1.3-0.4,2.8-0.4,4.4
							c0,3.2,0.7,7.2,2.6,11.1c0.9,1.9,2.3,3.7,4,5.4c1.6,1.7,3.6,3.3,5,5.4c0.7,1.1,1.3,2.2,1.6,3.5c0.3,1.2,0.4,2.5,0.5,3.7
							c0.1,2.4-0.1,4.7,0.3,6.8c0.7,4.3,3,7.6,5.1,10c2.2,2.5,4.2,4.2,5.6,5.4c0.6,0.6,1.2,1,1.6,1.4
							C210.2,211.4,210.4,211.6,210.4,211.6z"/>
					</g>
				</g>
			</g>
			<g>
				<g>
					<g>
						<path class="st44" d="M196,182.2c0,0,0,0.2,0,0.5c0,0.3,0,0.8-0.1,1.5c-0.1,1.3-0.5,3.1-1.2,5.3c-0.7,2.2-2,4.7-3.8,7.1
							c-1.8,2.5-4.3,4.8-7.3,6.7c-3.1,1.8-6.3,2.9-9.3,3.3c-3,0.5-5.8,0.4-8.1,0c-2.3-0.4-4.1-0.9-5.3-1.4c-0.6-0.2-1-0.5-1.3-0.6
							c-0.3-0.2-0.5-0.2-0.4-0.3c0.1-0.2,2.6,1.2,7.1,1.8c2.2,0.3,5,0.4,7.9-0.1c3-0.5,6.1-1.5,9.1-3.3c2.9-1.8,5.4-4.1,7.2-6.5
							c1.8-2.4,3.1-4.8,3.9-6.9C195.9,185.1,195.9,182.2,196,182.2z"/>
					</g>
				</g>
			</g>
			<g>
				<g>
					<g>
						<path class="st44" d="M191.2,176.3c0,0-0.1,0.6-0.4,1.7c-0.3,1.1-0.9,2.7-1.8,4.5c-1.8,3.6-5.4,8.3-10.7,11.5
							c-5.4,3.3-11.1,4.3-15.1,4.4c-2,0.1-3.7-0.1-4.8-0.2c-1.1-0.2-1.7-0.3-1.7-0.4c0-0.1,2.5,0.4,6.5,0.1c4-0.2,9.6-1.4,14.8-4.5
							c5.3-3.2,8.8-7.7,10.7-11.2C190.5,178.7,191,176.2,191.2,176.3z"/>
					</g>
				</g>
			</g>
			<g>
				<g>
					<g>
						<path class="st44" d="M154.3,163.7c0,0,0.4-0.3,1.1-0.7c0.4-0.2,0.8-0.4,1.4-0.6c0.6-0.2,1.2-0.5,1.9-0.7
							c1.4-0.5,3.2-0.8,5.2-1c2-0.2,4.2-0.2,6.5,0.1c2.3,0.3,4.4,0.9,6.3,1.6c1.9,0.8,3.5,1.5,4.7,2.4c0.7,0.4,1.2,0.8,1.7,1.2
							c0.5,0.4,0.9,0.7,1.2,1c0.6,0.6,0.9,0.9,0.9,1c-0.1,0.1-1.4-1.2-4-2.7c-1.3-0.8-2.9-1.5-4.7-2.2c-1.9-0.6-3.9-1.2-6.2-1.5
							c-2.2-0.3-4.4-0.3-6.4-0.2c-2,0.2-3.7,0.5-5.1,0.9C156,163,154.3,163.8,154.3,163.7z"/>
					</g>
				</g>
			</g>
			<g>
				<g>
					<g>
						
							<ellipse transform="matrix(0.6585 -0.7526 0.7526 0.6585 -53.3006 174.6281)" class="st47" cx="165.8" cy="146" rx="0.3" ry="23.3"/>
					</g>
				</g>
			</g>
			<g>
				<g>
					<g>
						<path class="st24" d="M219.6,147.6c-0.1-0.1,0.9-1.6,2.6-2.9c1.7-1.4,3.3-2,3.4-1.9c0.1,0.2-1.4,1.1-3,2.4
							C221,146.5,219.8,147.7,219.6,147.6z"/>
					</g>
				</g>
			</g>
			<g>
				<g>
					<g>
						<path class="st50" d="M184.2,154.7c0,0-0.1-0.1-0.2-0.2c-0.1-0.2-0.3-0.5-0.4-0.8c-0.3-0.7-0.8-1.8-1-3.2
							c-0.5-2.9,0.2-7.4,3.3-11.7c0.8-1.1,1.7-2.1,2.8-3c1.1-0.9,2.4-1.8,3.7-2.5c2.7-1.5,5.9-2.5,9.3-3.2
							c6.8-1.4,14.5-1.1,22.3-2.2c3.9-0.6,7.7-1.7,10.9-3.4c3.3-1.7,6.1-4,8.5-6.5c4.7-5,7.7-10.5,9.8-15.3
							c2.1-4.8,3.4-8.8,4.3-11.6c0.5-1.3,0.8-2.4,1.1-3.2c0.1-0.3,0.2-0.6,0.3-0.8c0.1-0.2,0.1-0.3,0.1-0.3c0,0,0,0.1-0.1,0.3
							c-0.1,0.2-0.1,0.5-0.2,0.8c-0.2,0.8-0.6,1.9-1,3.2c-0.9,2.8-2.1,6.8-4.1,11.7c-2,4.8-4.9,10.5-9.7,15.5
							c-2.4,2.5-5.2,4.9-8.6,6.7c-3.4,1.8-7.2,2.9-11.1,3.5c-7.9,1.2-15.6,0.8-22.3,2.2c-6.7,1.2-12.5,4.2-15.6,8.4
							c-3.1,4.1-3.9,8.6-3.4,11.4C183.3,153.3,184.3,154.6,184.2,154.7z"/>
					</g>
				</g>
			</g>
			<g>
				<g>
					<g>
						<path class="st41" d="M192.3,204.7c0,0-0.2,1.9-1.6,5.1c-0.7,1.6-1.7,3.5-3.3,5.4c-1.5,1.9-3.7,3.8-6.4,5.4
							c-2.7,1.5-6.1,2.5-9.8,2.5c-3.6,0-7.7-0.9-11.1-3.2c-3.4-2.3-6.2-6-7.3-10.4c-0.6-2.2-0.7-4.5-0.4-6.8
							c0.4-2.3,1.3-4.5,2.6-6.5c2.2-3.3,5.7-5.8,9.4-6.6l0,0.6c-4-0.6-7.7-2.2-10.8-4.4c-3.1-2.2-5.5-5.1-6.9-8.3
							c-1.4-3.2-1.9-6.5-1.7-9.5c0.2-3,1.3-5.8,2.7-7.9c1.5-2.1,3.3-3.6,5-4.7c1.7-1,3.4-1.6,4.8-1.8c1.4-0.3,2.5-0.3,3.2-0.2
							c0.3,0,0.6,0.1,0.8,0.1c0.2,0,0.3,0,0.3,0.1c0,0.1-1.5-0.3-4.3,0.3c-1.3,0.3-3,0.9-4.6,1.9c-1.7,1-3.4,2.5-4.8,4.6
							c-1.4,2.1-2.4,4.7-2.6,7.7c-0.2,2.9,0.3,6.2,1.7,9.2c1.4,3,3.7,5.9,6.7,8c3,2.1,6.6,3.6,10.6,4.3l1.6,0.3l-1.6,0.4
							c-3.5,0.8-6.8,3.2-9,6.4c-1.3,1.9-2.2,4.1-2.5,6.3c-0.3,2.2-0.2,4.5,0.4,6.6c1.1,4.2,3.8,7.8,7.1,10.1
							c3.3,2.3,7.2,3.2,10.7,3.2c3.6,0,6.9-1,9.5-2.4c2.7-1.5,4.8-3.3,6.3-5.2c1.6-1.9,2.6-3.7,3.3-5.2c0.7-1.5,1.1-2.8,1.4-3.7
							c0.1-0.4,0.2-0.7,0.3-1C192.2,204.8,192.3,204.7,192.3,204.7z"/>
					</g>
				</g>
			</g>
			<g>
				<g>
					<g>
						<path class="st41" d="M184.8,150.2c0,0-0.1,0-0.3-0.1c-0.2-0.1-0.5-0.3-0.9-0.5c-0.8-0.4-1.9-1.1-3.1-2.2
							c-2.5-2.1-6-5.7-8.1-11.3c-2.1-5.5-2.4-13.2,1.1-20.3c1.7-3.6,4.3-6.9,7.8-9.5c3.4-2.6,7.5-4.5,11.8-5.8c4.3-1.3,8.7-2,13-2.4
							c4.2-0.4,8.3-0.6,12.2-0.9c3.9-0.3,7.6-0.6,11-1.2c3.4-0.6,6.5-1.5,9.2-2.5c5.5-2.1,9.4-5,11.7-7.3c1.1-1.2,1.9-2.2,2.4-2.9
							c0.2-0.3,0.4-0.6,0.6-0.8c0.1-0.2,0.2-0.3,0.2-0.3c0,0-0.8,1.7-3,4.1c-2.3,2.4-6.1,5.4-11.7,7.6c-2.8,1.1-5.9,2-9.3,2.6
							c-3.4,0.6-7.1,1-11,1.3c-7.8,0.6-16.4,0.7-25,3.3c-4.3,1.3-8.3,3.1-11.6,5.7c-3.4,2.5-6,5.8-7.6,9.2c-3.4,7-3.2,14.5-1.2,19.9
							c2,5.5,5.4,9.2,7.8,11.3c1.2,1.1,2.3,1.8,3,2.2c0.3,0.2,0.6,0.4,0.8,0.5C184.7,150.1,184.8,150.2,184.8,150.2z"/>
					</g>
				</g>
			</g>
			<g>
				<g>
					<g>
						<path class="st41" d="M325.4,131.6c0,0-0.3,0.5-1.2,0.6c-0.9,0.1-2.3-0.4-3.1-2c-0.4-0.8-0.3-1.8,0.2-2.7
							c0.5-0.9,1.4-1.7,2.5-2.1c2.2-1,5.3-0.6,7.7,1.2c1.2,0.9,2.3,2.2,2.9,3.7c0.6,1.5,0.7,3.3,0.3,5.1c-0.4,1.7-1.3,3.4-2.8,4.7
							c-1.5,1.2-3.3,2-5.3,2.2c-4,0.5-8.2-1.4-11.2-4.4c-1.5-1.5-2.8-3.4-3.6-5.5c-0.8-2.1-1-4.4-0.6-6.7c0.4-2.3,1.2-4.4,2-6.4
							c0.8-2,1.6-4,2.3-6c1.3-4,2.2-8,2.5-11.8c0.3-3.8,0.1-7.5-0.7-10.9c-0.7-3.3-2.1-6.3-3.6-8.8c-3.1-5-7.1-7.8-10-9.2
							c-1.5-0.7-2.7-1.1-3.5-1.3c-0.4-0.1-0.7-0.2-1-0.2c-0.2-0.1-0.3-0.1-0.3-0.1c0,0,0.1,0,0.3,0c0.3,0,0.6,0.1,1,0.2
							c0.8,0.2,2.1,0.5,3.6,1.2c3,1.3,7.1,4.2,10.3,9.2c1.6,2.5,3,5.5,3.7,8.9c0.8,3.4,1.1,7.2,0.7,11.1c-0.3,3.9-1.2,7.9-2.5,12
							c-0.7,2-1.5,4-2.3,6c-0.8,2-1.6,4.1-2,6.2c-0.4,2.2-0.2,4.4,0.6,6.4c0.7,2,2,3.8,3.4,5.2c2.9,2.9,6.9,4.7,10.7,4.3
							c1.9-0.2,3.6-0.9,5-2.1c1.4-1.1,2.3-2.7,2.6-4.3c0.4-1.6,0.3-3.3-0.3-4.8c-0.5-1.5-1.5-2.7-2.7-3.5c-2.3-1.7-5.2-2.1-7.3-1.2
							c-1.1,0.4-1.9,1.1-2.4,1.9c-0.5,0.8-0.6,1.8-0.2,2.5c0.7,1.5,2,2,2.8,2C325,132,325.3,131.6,325.4,131.6z"/>
					</g>
				</g>
			</g>
		</g>
		<g>
			<g class="st46">
				<g>
					<g>
						<path d="M317.3,417.1c6.1-1.7,12.5,3.8,18.7,2.3c3.8-0.9,6.6-4.3,8.3-7.8c1.7-3.6,2.6-7.5,4.5-11c1.8-3.5,4.9-6.7,8.8-7.3
							c3.6-0.5,7.8,1.2,10.5-1.2c2.1-1.9,1.8-5.4,0.1-7.6c-1.6-2.3-4.2-3.6-6.7-4.8c-2.8-1.4-5.7-2.8-8.7-3.5
							c-3.1-0.7-6.4-0.5-9.1,1.1c-5.2,3.1-6.3,10-7.8,15.9c-1,4.1-2.6,8.1-5.2,11.5c-2.6,3.4-6.2,6-10.4,6.7
							c-1.6,0.3-3.3,0.3-4.6,1.2c-1.3,0.9-1.8,3.2-0.5,4"/>
					</g>
				</g>
			</g>
			<g>
				<g>
					<g>
						<g>
							<path class="st42" d="M285.4,394.4l23-8l20.6-32.2c2-3.2,5.3-5.4,9-6.1l36.9-7c0,0,1.8,4.6-3.2,7.4c-4.9,2.8-27.1,8-27.1,8
								l34.2-0.6c0,0,1.1,4.9-2.8,6.7c-3.9,1.8-28.2,2.7-28.2,2.7l31.2,4.4c0,0,0.2,4.9-6.9,5c-5.7,0-17.4-0.8-21-1.3
								c-0.6-0.1-1.2,0.3-1.3,0.9l0,0c-0.1,0.6,0.3,1.1,0.8,1.3l20.7,4.9c2.7,0.6,2.9,4.7,0.2,5.4c-0.4,0.1-0.7,0.1-1.2,0.1
								c-3.5-0.4-24.6-3-24.6-3s-7.4,26.1-12.3,28.2c-4.8,2.1-14.9,2.7-14.9,2.7l-21.4,8.5L285.4,394.4z"/>
						</g>
					</g>
					<g>
						<g>
							<g>
								<path class="st49" d="M376.4,355.8c0,0-0.6,0.1-1.8,0.2c-1.3,0.1-2.9,0.1-4.9,0.2c-4.1,0.2-9.8,0.4-16.1,0.5
									c-3.1,0.1-6.1,0.2-8.9,0.2c-2.7,0-5.2,0.2-7,1c-1.9,0.8-3.1,2-3.6,3c-0.6,1-0.6,1.6-0.7,1.6c0,0,0-0.2,0-0.5
									c0.1-0.3,0.2-0.7,0.5-1.3c0.5-1,1.7-2.4,3.7-3.3c1.9-0.9,4.5-1.1,7.2-1.2c2.7-0.1,5.7-0.2,8.9-0.3c6.3-0.2,12-0.3,16.1-0.4
									c2,0,3.6,0,4.9,0C375.8,355.8,376.4,355.8,376.4,355.8z"/>
							</g>
						</g>
					</g>
					<g>
						<g>
							<g>
								<path class="st49" d="M376.9,369.8c0,0-0.6,0-1.7-0.1c-1.2-0.1-2.7-0.3-4.5-0.6c-3.8-0.5-9-1.2-14.7-2.1
									c-2.9-0.4-5.6-0.9-8.1-1.1c-2.5-0.2-4.7,0.2-6.3,1.1c-1.6,0.9-2.7,2.1-3.3,2.9c-0.6,0.9-0.8,1.4-0.9,1.4c0,0,0-0.2,0.1-0.4
									c0.1-0.3,0.3-0.6,0.6-1.1c0.6-0.9,1.6-2.2,3.2-3.2c1.7-1,4.1-1.5,6.6-1.3c2.5,0.2,5.3,0.7,8.1,1.1
									c5.7,0.9,10.9,1.7,14.7,2.3c1.8,0.3,3.3,0.6,4.4,0.8C376.3,369.6,376.9,369.8,376.9,369.8z"/>
							</g>
						</g>
					</g>
					<g>
						<g>
							<g>
								<path class="st49" d="M359.5,377.7c0,0.1-1.4-0.2-3.6-0.8c-2.2-0.5-5.3-1.3-8.7-2c-0.8-0.1-1.7-0.4-2.4-0.4
									c-0.8,0-1.5,0.3-2.1,0.6c-1.3,0.7-2.2,1.7-2.8,2.6c-1.1,1.9-1,3.4-1.1,3.4c0,0-0.1-0.4-0.1-1c0-0.6,0.2-1.6,0.8-2.6
									c0.6-1,1.5-2.1,2.9-2.9c0.7-0.4,1.5-0.7,2.4-0.7c0.9,0,1.7,0.2,2.6,0.4c3.4,0.7,6.5,1.6,8.6,2.2
									C358.2,377.2,359.6,377.6,359.5,377.7z"/>
							</g>
						</g>
					</g>
				</g>
				<g>
					<g>
						<g>
							<path class="st22" d="M114.8,411.7l68.9-8.5l120.9-19.7l15.6,39.2c-45.4,15.7-92,29.9-137.7,42.4c-3.1,0.9-8.1,1-11.4,1
								C155.9,466.2,118.2,460.1,114.8,411.7z"/>
						</g>
					</g>
					<g>
						<g>
							<g>
								<g>
									<path class="st22" d="M320.2,422.8c0,0-0.1-0.2-0.3-0.7c-0.2-0.5-0.5-1.2-0.9-2.1c-0.8-1.8-1.8-4.5-3.2-7.9
										c-2.8-6.8-6.7-16.6-11.5-28.5l0.3,0.2c-16.4,2.7-36.7,6.1-58.7,9.8c-13.9,2.4-27.2,3.9-39.2,5.5c-6,0.8-11.8,1.6-17.1,2.5
										c-2.7,0.4-5.2,0.9-7.7,1.3c-2.5,0.5-4.9,0.8-7,1.5c-4.4,1.4-7.9,3.6-10.6,6.1c-2.7,2.4-4.5,5-5.8,7.3
										c-1.3,2.2-2,4.1-2.4,5.4c-0.2,0.6-0.4,1.1-0.5,1.5c-0.1,0.3-0.2,0.5-0.2,0.5c0,0,0.1-0.7,0.5-2c0.4-1.3,1-3.2,2.3-5.5
										c1.2-2.3,3.1-4.9,5.8-7.4c2.7-2.5,6.3-4.8,10.7-6.2c2.2-0.7,4.6-1.1,7.1-1.6c2.5-0.5,5-0.9,7.7-1.4
										c5.3-0.9,11.1-1.7,17.1-2.5c12.1-1.6,25.4-3.2,39.2-5.6c22-3.6,42.4-7,58.8-9.7l0.2,0l0.1,0.2c4.7,11.9,8.5,21.7,11.3,28.6
										c1.3,3.4,2.4,6.1,3.1,7.9c0.3,0.9,0.6,1.6,0.8,2.1C320.1,422.5,320.2,422.8,320.2,422.8z"/>
								</g>
							</g>
						</g>
						<g>
							<g>
								<g>
									<path class="st22" d="M151.9,464.1c0,0,0.2,0,0.6,0.1c0.4,0.1,0.9,0.2,1.6,0.4c1.4,0.3,3.5,0.8,6.2,1.1
										c5.4,0.7,13.5,1,23.1-1.1c2.4-0.5,4.9-1.2,7.5-1.9c2.6-0.7,5.3-1.5,8-2.3c5.6-1.6,11.5-3.3,17.7-5.1
										c12.5-3.6,26.2-7.7,40.5-12.2c24-7.4,46-14.7,63.1-20.6l-0.2,0.3c-4.7-12-8.6-21.8-11.3-28.6c-1.3-3.4-2.3-6-3.1-7.9
										c-0.3-0.9-0.6-1.6-0.8-2.1c-0.2-0.5-0.2-0.7-0.2-0.7s0.1,0.2,0.3,0.7c0.2,0.5,0.5,1.2,0.9,2c0.7,1.8,1.8,4.5,3.2,7.8
										c2.7,6.8,6.7,16.6,11.5,28.6l0.1,0.3l-0.3,0.1c-17.1,6-39.1,13.3-63.1,20.8c-14.3,4.5-28,8.5-40.5,12.1
										c-6.2,1.8-12.2,3.5-17.7,5c-2.8,0.8-5.5,1.5-8.1,2.2c-2.6,0.7-5.1,1.4-7.5,1.9c-9.7,2-17.8,1.7-23.2,0.9
										C154.7,465.2,151.9,464.1,151.9,464.1z"/>
								</g>
							</g>
						</g>
					</g>
				</g>
			</g>
			<g>
				<g>
					<g>
						<path class="st41" d="M178.6,403.2c0,0-0.6,0.1-1.7,0.3c-1.2,0.1-2.8,0.3-4.7,0.5c-4.1,0.4-9.6,0.9-15.6,1.5
							c-6,0.6-11.5,1.2-15.6,1.7c-1.9,0.2-3.5,0.4-4.7,0.5c-1.1,0.1-1.7,0.1-1.7,0.1c0,0,0.6-0.2,1.7-0.4c1.1-0.2,2.7-0.4,4.7-0.7
							c4-0.6,9.5-1.2,15.6-1.9c6.1-0.6,11.6-1.1,15.6-1.3c2-0.1,3.6-0.2,4.7-0.3C178,403.2,178.6,403.2,178.6,403.2z"/>
					</g>
				</g>
			</g>
		</g>
	</g>
</g>
</svg>
