<?xml version="1.0" encoding="utf-8"?>
<!-- Generator: Adobe Illustrator 21.0.0, SVG Export Plug-In . SVG Version: 6.00 Build 0)  -->
<svg version="1.1" id="Layer_1" xmlns="http://www.w3.org/2000/svg" xmlns:xlink="http://www.w3.org/1999/xlink" x="0px" y="0px"
	 viewBox="0 0 890.2 585" style="enable-background:new 0 0 890.2 585;" xml:space="preserve">
<style type="text/css">
	.st0{fill:#EDEDED;}
	.st1{fill:#685989;}
	.st2{fill:#864D7D;}
	.st3{fill:#BEDBC3;}
	.st4{fill:#9CC1C8;}
	.st5{opacity:0.5;fill:#9CC1C8;}
	.st6{fill:#D3DEE4;}
	.st7{fill:#007271;}
	.st8{fill:#369999;}
	.st9{fill:#4D2B2B;}
	.st10{fill:#3A1F1E;}
	.st11{fill:#E95B4E;}
	.st12{fill:#EE8268;}
	.st13{fill:#C83D36;}
	.st14{fill:#F6B99F;}
	.st15{fill:#EEE9DC;}
	.st16{fill:#F19775;}
	.st17{fill:#6B3E3F;}
	.st18{fill:#C7BDB7;}
	.st19{fill:#D1D5CA;}
	.st20{fill:#2B3668;}
	.st21{fill:#EE827D;}
	.st22{fill:#F87481;}
	.st23{fill:#FFFFFF;stroke:#FFFFFF;stroke-miterlimit:10;}
	.st24{fill:#FFFFFF;}
	.st25{opacity:0.3;clip-path:url(#SVGID_2_);}
	.st26{opacity:0.3;clip-path:url(#SVGID_4_);}
	.st27{opacity:0.3;clip-path:url(#SVGID_6_);}
	.st28{fill:#7087AF;}
	.st29{clip-path:url(#SVGID_8_);}
	.st30{fill:#B2555F;}
	.st31{fill:#47284F;}
	.st32{fill:#FFBF9B;}
	.st33{fill:#FFA687;}
	.st34{fill:#72426B;}
	.st35{fill:#FFC9AC;}
	.st36{fill:#C19884;}
	.st37{fill:#FFA68D;}
	.st38{fill:#13A6CE;}
	.st39{fill:#4E2447;}
	.st40{opacity:0.3;}
	.st41{fill:#1A2E35;}
	.st42{fill:#FFBF9D;}
	.st43{fill:#FF9A6C;}
	.st44{fill:#375A64;}
	.st45{fill:#E1E1E1;}
	.st46{opacity:0.2;}
	.st47{fill:#FF4F5B;}
	.st48{fill:#EBEBEB;}
	.st49{fill:#AA6550;}
	.st50{fill:#FAFAFA;}
</style>
<g>
	<g>
		<g>
			<path class="st22" d="M150.8,305.1l-31.4-6.2l-48.3,19.8C24.3,382.1,0,544.7,0,544.7h328.9l-18.2-118.3l148.8,44.4
				c20.3,6,42.1,3.8,60.7-6.3l134.3-72.7l-73.5-57.5l-104.9,43.6l-131.3-52.5c-26.2-10.5-55.1-11.9-82.2-4l-12.8,3.7L150.8,305.1z"
				/>
			<path class="st30" d="M654.4,391.7l-73.5-57.5l-95.7,39.8c3,5.4,6.4,10.6,10.1,15.6c11.9,16.1,12.3,37.8,1.9,54.9
				c-5.6,9.2-10,19.2-13,29.6c12.5-0.3,24.8-3.5,35.9-9.6L654.4,391.7z"/>
			<path class="st30" d="M310.6,426.3l-8.7-56.5l12,15.7c6.4,8.3,11.6,17.6,15.4,27.4l8.2,21.4L310.6,426.3z"/>
			<path class="st30" d="M62.5,331.7c-22.8,75.5,13.4,108,91.5,213h89.6L62.5,331.7z"/>
			<line class="st30" x1="301.9" y1="369.9" x2="316.1" y2="461.8"/>
		</g>
		<g>
			<g>
				<path class="st9" d="M573.6,366.9c-19.2,2.4-39.4-1.5-55.1-12.8c-15.7-11.3-26.2-30.2-25.2-49.5c0.9-19.3,14.2-37.9,32.8-43.2
					c9.4-29.6,30-56.8,58.9-67.9c29-11.1,62.9-8.2,89.7,7.5c50.1,29.5,67.3,94.7,111.6,132.3c12.8,10.9,27.5,19.1,41.3,28.6
					c13.8,9.5,27.2,20.5,35.4,35c8.3,14.6,10.8,33.3,2.8,48.1c-8.7,16-28,24-46.2,23.6s-35.4-8-51.3-16.8
					c-48.4-26.8-89.5-66.6-117.7-114.1C626.7,347.7,599.3,363.7,573.6,366.9z"/>
				<g>
					<g>
						<path class="st17" d="M695.1,269.1c-8.8,1.1-18.9,1.9-29.7,1.6c-10.8-0.2-22.2-1.5-33.4-3.9c-11.2-2.4-22.1-6-32-10.2
							c-9.9-4.2-18.8-9.1-26.4-13.8c6.7,5.8,15.2,11.7,25.1,16.6c9.8,5,21,9,32.4,11.5c11.5,2.5,23.3,3.4,34.3,3
							C676.4,273.4,686.6,271.6,695.1,269.1z"/>
					</g>
					<g>
						<path class="st17" d="M682.6,235.4c-11.2,4.9-26.3,9.9-42,11.9c-15.7,2.2-31.6,1.4-43.7-0.4c5.8,1.8,12.8,3.2,20.4,3.9
							c7.6,0.6,15.7,0.5,23.7-0.6c8-1.1,15.9-3.1,23-5.7C671.1,241.9,677.4,238.7,682.6,235.4z"/>
					</g>
					<g>
						<path class="st17" d="M673.6,211.9c-4.4,3.2-9.6,6.5-15.4,9.5c-5.9,3-12.4,5.5-19.1,7.3c-6.7,1.8-13.6,2.9-20.1,3.3
							c-6.5,0.4-12.7,0.2-18.1-0.4c5.2,1.4,11.5,2.3,18.2,2.3c6.7,0,13.9-0.9,20.8-2.8c6.9-1.9,13.5-4.7,19.3-8.1
							C664.9,219.6,669.8,215.7,673.6,211.9z"/>
					</g>
					<g>
						<path class="st17" d="M535.9,347.2c6.5-3.4,13.5-8.4,19.8-15.1c6.3-6.6,11.8-14.9,15.7-23.9c3.8-9,5.9-18.7,6.3-27.9
							c0.4-9.2-0.9-17.7-3-24.7c1,7.3,1.3,15.7,0.4,24.5c-0.9,8.8-3.2,18.1-6.8,26.7c-3.7,8.6-8.7,16.7-14.4,23.5
							C548.1,337.2,541.8,342.8,535.9,347.2z"/>
					</g>
					<g>
						<path class="st17" d="M531.5,321.7c4-1.5,8.5-4,12.6-7.4c4.2-3.4,8-7.7,11.1-12.6c3-4.9,5.3-10.2,6.5-15.5
							c1.3-5.2,1.5-10.3,1.2-14.6c-0.3,4.3-1.1,9.2-2.6,14.2c-1.5,5-3.8,10.1-6.8,14.8c-3,4.7-6.5,9-10.4,12.5
							C539.4,316.7,535.3,319.6,531.5,321.7z"/>
					</g>
				</g>
			</g>
			<g>
				<path class="st2" d="M661.1,488.2l-6.6,56.4h235.8c-73.7-200.1-108.3-206.8-179.1-206.8L661.1,488.2z"/>
				<path class="st31" d="M762.2,402c-17.7,76.3-89.5,142.7-89.5,142.7h-18.2l6.6-56.4L762.2,402z"/>
			</g>
			<g>
				<path class="st32" d="M561.9,356c16.1,27,41.9,47.9,71.6,58.2c7.9,2.7,16.1,4.7,24.5,4.6c8.3-0.1,16.8-2.5,23.3-7.8
					c10.7-8.7,14.2-23.9,12.4-37.5c-1.9-13.6-8.3-26.2-14.6-38.4c-13.5-4.2-27.6-14-31.9-27.5c-12.5,0.9-25.5-2.8-35.9-9.9
					C595.5,335.7,561.9,356,561.9,356z"/>
				<g>
					<path class="st32" d="M668.8,309.9c1.2-4.7,3.6-9.3,7.4-12.4c3.8-3.1,9.2-4.4,13.8-2.7c5.3,2,8.5,7.4,10.4,12.8
						c2.8,7.8,3.7,16.7,0.1,24.2c-3.6,7.6-15.7,15.1-23.5,8.9C668.6,334.1,666.3,319.7,668.8,309.9z"/>
					<path class="st33" d="M683.7,334.2c-0.7,0-1-0.2-1.2-0.4c-5.1-4-6.9-14.8-5.1-21.7c0.9-3.4,2.4-6.1,4.4-7.6
						c1.1-0.9,2.7-1.5,3.9-1.5c0.4,0,0.8,0.1,1.2,0.2c1.9,0.7,3.7,3.4,5.2,7.5c1.4,3.9,3.3,11.4,0.4,17.4
						C691.1,331,686.6,334.2,683.7,334.2z"/>
				</g>
				<path class="st33" d="M611.3,297.8c-15.8,37.9-49.4,58.2-49.4,58.2c2,3.3,4.1,6.5,6.3,9.6C582,355.5,608.5,328.4,611.3,297.8z"
					/>
				<g>
					<g>
						<path class="st9" d="M622.8,349.8c7.3-3.8,11.1-11.2,10.6-18.2c-9.2,7.6-20,13.2-31.5,16.3
							C607.2,352.4,615.5,353.6,622.8,349.8z"/>
					</g>
					<g>
						<path class="st31" d="M618,360.5c3,2.2,8.5,2.7,13,0.3c4.5-2.3,7.3-7.1,7.2-10.8c-2.4,2.8-5.4,5.6-9,7.4
							C625.7,359.2,621.6,360.1,618,360.5z"/>
					</g>
					<g>
						<path class="st9" d="M587.1,371.6c3.1-3.2,2.4-9.5-0.9-15.3c-2.7,6.5-7.3,11.3-13.5,14C578.1,374,584,374.9,587.1,371.6z"/>
					</g>
					<g>
						<path class="st31" d="M586.9,382.3c2.9,1.7,6.9,1.8,9.1-0.5c2.2-2.3,2.2-6.6,0.7-9.8c-0.6,2.5-1.6,5.1-3.3,7
							C591.7,380.7,589.3,381.7,586.9,382.3z"/>
					</g>
					<g>
						<path class="st31" d="M618.2,400.1c-0.4,0-0.7,0-1.1-0.1c-2.9-0.7-4.3-4-5.1-5.9c-5.2-12.4-12.3-23.9-21.2-34
							c-0.2-0.2-0.2-0.6,0.1-0.8c0.2-0.2,0.6-0.2,0.8,0.1c8.9,10.2,16.1,21.8,21.3,34.3c1,2.4,2.2,4.8,4.3,5.3
							c2.2,0.5,4.4-1.2,5.8-2.7c0.2-0.2,0.5-0.5,0.7-0.8c1.5-1.6,3-3.3,5.2-3.9c0.3-0.1,0.6,0.1,0.7,0.4c0.1,0.3-0.1,0.6-0.4,0.7
							c-1.9,0.5-3.3,2.1-4.6,3.6c-0.2,0.3-0.5,0.5-0.7,0.8C622,399,620.1,400.1,618.2,400.1z"/>
					</g>
				</g>
			</g>
			<g>
				<g>
					<path class="st32" d="M572.8,415.7l-63.2,41.4c-19.9,13-27.1,38.7-17,60.2l0,0c10.8,23,37.7,33.5,61.2,23.9l70.8-28.9
						L572.8,415.7z"/>
					<path class="st33" d="M572.8,415.7l-7.3,4.8c1.7,29.1,9.9,56.7,17.8,74.3c3.8,8.5,0.3,18.5-8,22.9l-29.1,15.2
						c-15.6,8.1-33.8,5.7-46.6-4.6c13.1,15.1,34.7,20.9,54.1,13l70.8-28.9L572.8,415.7z"/>
				</g>
				<g>
					<path class="st2" d="M564.3,415.8l117.5-70.3c25.1-15,57.6-7.5,73.5,17.1h0c15,23.1,10.3,53.7-10.9,71.3l-113.8,94.6
						C580.9,487.7,564.3,415.8,564.3,415.8z"/>
					<path class="st34" d="M755.3,362.6L755.3,362.6c-0.4-0.6-0.8-1.1-1.2-1.7c0.7,3.4,1,6.9,0.9,10.4c-0.3,14.2-6.3,27.9-14.8,39.3
						c-8.4,11.5-19.2,21-30.2,30c-31,25.6-64.3,48.4-99.3,68.2c5.9,7,12.5,13.7,19.8,19.7L744.5,434
						C765.6,416.4,770.3,385.7,755.3,362.6z"/>
				</g>
			</g>
		</g>
		<g>
			<g>
				<g>
					<g>
						<path class="st9" d="M234.5,16.1c-14.2-14-36-18.8-55.5-14.6c-15.5,3.4-30,12.3-39.2,25.3c-9.2,13-12.9,29.9-9,45.4
							c3.9,15.4,15.5,28.9,30.6,34.1c14.6,5.1,31,2.3,45-4.2c13.4-6.3,35.1-18.3,40.1-33.4C252.5,50.5,248.1,29.5,234.5,16.1z"/>
						<path class="st4" d="M196.2,69.1c-9.2,5.3-17.3,13.1-21.7,22.8c-2.3,5.2-3.5,10.9-3.4,16.6c11.9,1.4,24.3-1.3,35.2-6.5
							c13.4-6.3,35.1-18.3,40.1-33.4c0.7-2.1,1.2-4.2,1.7-6.4C230.8,57.7,211.7,60.1,196.2,69.1z"/>
					</g>
					<g>
						<g>
							<path class="st17" d="M169.5,89.1c-4.2-3.1-8.5-7.2-12.2-12.3c-3.7-5.1-6.7-11.1-8.3-17.5c-1.7-6.4-2-13.1-1.2-19.4
								c0.7-6.2,2.5-12,4.7-16.7c-2.9,4.3-5.3,10-6.5,16.4c-1.2,6.4-1.1,13.5,0.7,20.3c1.8,6.8,5.1,13,9.2,18
								C160,82.9,164.9,86.7,169.5,89.1z"/>
						</g>
						<g>
							<path class="st17" d="M172.9,75.4c-4.4-5.5-9.2-13.4-12.2-22c-3.1-8.6-4.4-17.7-4.5-24.8c-1,7-0.3,16.5,2.9,25.3
								C162.3,62.8,167.8,70.6,172.9,75.4z"/>
						</g>
						<g>
							<path class="st17" d="M190.9,66.8c-1.7-7.8-5.2-17.7-10.1-27c-4.8-9.3-11-17.8-16.4-23.6c4.4,6.6,10,15.3,14.7,24.5
								C184,49.9,188,59.4,190.9,66.8z"/>
						</g>
						<g>
							<path class="st17" d="M196.6,48c-0.9-4.5-3-10.3-6.2-15.4c-3.2-5.2-7.4-9.6-11.1-12.4c3.2,3.3,7,7.9,10.1,13
								C192.6,38.2,195,43.7,196.6,48z"/>
						</g>
						<g>
							<path class="st17" d="M223.6,54.1c0.2-4.5-0.4-9.9-2.3-15.3c-1.9-5.4-5-10.7-9.2-15.2c-4.2-4.4-9.3-7.9-14.6-10.1
								c-5.2-2.2-10.6-3.2-15.1-3.3c4.5,0.8,9.5,2.3,14.4,4.7c4.9,2.5,9.7,5.9,13.7,10.1c4,4.2,7.1,9.2,9.3,14.3
								C221.9,44.4,223.1,49.6,223.6,54.1z"/>
						</g>
						<g>
							<path class="st17" d="M235.5,51.3c0.6-4.5,0.4-9.8-1.1-15.3c-1.5-5.5-4.2-11-8.1-15.7c-3.9-4.7-8.8-8.4-13.9-10.8
								c-5.1-2.5-10.3-3.6-14.8-3.9c4.4,0.9,9.4,2.6,14.1,5.3c4.8,2.7,9.3,6.3,13,10.8c3.7,4.4,6.4,9.6,8.2,14.8
								C234.7,41.7,235.4,46.8,235.5,51.3z"/>
						</g>
						<g>
							<path class="st17" d="M162.6,99c-3.6-2.5-7.5-5.7-10.9-9.8c-3.4-4-6.4-8.9-8.5-14.1c-2.1-5.2-3.2-10.8-3.6-16.1
								c-0.3-5.3,0.2-10.3,1.1-14.6c-1.5,4.1-2.6,9.2-2.6,14.7c0,5.5,1,11.3,3.2,16.8c2.2,5.4,5.5,10.4,9.3,14.3
								C154.4,94.2,158.6,97.1,162.6,99z"/>
						</g>
					</g>
				</g>
				<g>
					<path class="st9" d="M201.2,220.6c-11.1,1.5-22.3-0.1-29.5-8.7c-7.3-8.6-11-19.6-12.7-30.7c-7.3-45.6,19.3-94.6,61.6-113.3
						c42.3-18.7,96.4-5.5,125.3,30.5c12.2-0.1,23.3,11.5,26.9,23.1c3.6,11.7,0.7,24.6-5.6,35.1c-6.3,10.5-15.7,18.7-25.6,25.8
						C303,209.9,248,214.4,201.2,220.6z"/>
					<g>
						<g>
							<path class="st17" d="M233.9,125.3c5.8,1.5,12.8,2.4,20.3,2.3c7.5-0.1,15.4-1.3,23.1-3.5c7.6-2.2,15-5.5,21.3-9.4
								c6.4-3.9,11.8-8.4,15.9-12.8c-4.8,3.7-10.5,7.5-16.9,10.9c-6.5,3.4-13.6,6.4-21.1,8.6c-7.4,2.2-15.1,3.5-22.4,4.1
								C246.7,126.1,239.8,125.9,233.9,125.3z"/>
						</g>
						<g>
							<path class="st17" d="M213.4,102.1c5.8,2.6,12.8,4.9,20.5,6.5c7.7,1.6,16.1,2.3,24.5,2.1c8.4-0.2,16.7-1.4,24.3-3.4
								c7.6-1.9,14.5-4.7,20.1-7.5c-6,2-13,3.9-20.6,5.3c-7.6,1.4-15.7,2.4-23.9,2.6c-8.2,0.2-16.4-0.3-24-1.4
								C226.7,105.3,219.6,103.7,213.4,102.1z"/>
						</g>
						<g>
							<path class="st17" d="M244.9,86.9c6.5,3.2,15.7,6.1,25.2,7.1c9.5,1.1,19.1,0.4,26.2-1.2c-7.2,0.5-16.6,0.6-26-0.5
								C261,91.3,251.8,89,244.9,86.9z"/>
						</g>
					</g>
				</g>
			</g>
			<g>
				<g>
					<polygon class="st35" points="210.3,199.9 171.2,289.3 215,358.3 221.2,399.5 267.3,279.2 					"/>
					<path class="st36" d="M207.4,208.1l2.3,31.9c0.7,10.3,4.7,20,11.4,27.9l34.8,41.1l11.4-29.8l-57-79.4L207.4,208.1z"/>
				</g>
				<g>
					<path class="st35" d="M336,119.2c16.5,20.6,20.3,50.7,9.4,74.7l-1.3,44.2c-0.1,4.8-5.2,7.9-9.5,5.8l-2.4-1.2L313,272.3
						c-10.1,15.5-31.5,18.8-45.7,7l-42.9-35.6c-6.4-5.3-11-12.6-13.1-20.6l-6.2-23.8c37-1.1,48.6-41.5,48.6-41.5
						C302.9,155,328.2,134.8,336,119.2z"/>
					<g>
						<path class="st31" d="M337.5,245.1c-1.1,0-2.1-0.2-3.1-0.7l-10.9-5.3c-0.3-0.1-0.4-0.5-0.3-0.7c0.1-0.3,0.5-0.4,0.7-0.3
							l10.9,5.3c1.9,0.9,4,0.8,5.8-0.3c1.8-1.1,2.9-3,2.9-5l0.7-23.3c0-0.3,0.3-0.6,0.6-0.5c0.3,0,0.5,0.3,0.5,0.6l-0.7,23.3
							c-0.1,2.4-1.4,4.7-3.5,5.9C340.1,244.8,338.8,245.1,337.5,245.1z"/>
					</g>
				</g>
				<g>
					<g>
						<path class="st35" d="M212.2,166c-4.9-5-12.1-8-19.1-7.1c-7,0.9-13.5,5.9-15.4,12.7c-1.7,5.9,0.1,12.2,1.9,18.1
							c2.4,7.9,5.3,16.5,12.4,20.7c7.2,4.3,18.3,1.4,24.2-4c6-5.5,5.4-17.4,4-24.5C219.1,176,216.4,170.3,212.2,166z"/>
						<path class="st37" d="M200.2,203.6c-1.5,0-2.8-0.3-3.7-0.8c-4.2-2.5-6.4-8.8-8.4-15.7c-1.6-5.4-2.8-9.8-1.9-13.1
							c0.9-3.1,4.3-5.8,8-6.3c0.5-0.1,0.9-0.1,1.4-0.1c3.6,0,7.5,1.7,10.3,4.6c2.8,2.8,4.8,6.8,5.7,11.4c1.6,7.9,0.5,14.6-1.3,16.3
							C207.9,202.1,203.7,203.6,200.2,203.6L200.2,203.6z"/>
					</g>
					<circle class="st24" cx="193.9" cy="214.4" r="6.2"/>
				</g>
				<g>
					<path class="st9" d="M281.4,166.9c5.8,4.2,12.8,6.4,19.9,7.1c7.1,0.7,14.3,0,21.3-1.3l5.2-10.4
						C307,169.6,281.4,166.9,281.4,166.9z"/>
					<path class="st9" d="M324.5,186.8l-11.1-4.5c-3-1.2-6.7,0.9-8.3,4.7c-1.6,3.9-0.4,8,2.6,9.2c3,1.2,6.7-0.9,8.3-4.7
						c0.7-1.8,0.9-3.6,0.5-5.2L324.5,186.8z"/>
					<path class="st24" d="M317.1,252.1c-18-4.2-36.1-8.3-53-15.7c2.8,5.2,5.4,11.2,9.1,15.8c3.7,4.6,8.4,8.5,14,10.4
						c5.1,1.7,10.7,1.7,15.7-0.2C308,260.7,314.3,256.7,317.1,252.1z"/>
				</g>
			</g>
		</g>
		<g>
			<g>
				<polygon class="st38" points="164.8,279.2 175.6,279.2 171.2,289.3 				"/>
				<polygon class="st22" points="215,358.3 164.8,279.2 149.2,301.4 191.8,399.5 				"/>
				<g>
					<polygon class="st22" points="221.2,399.5 241.5,358.3 266,331.7 253.6,314.9 					"/>
					<polygon class="st22" points="266,331.7 262,383.8 241.5,358.3 					"/>
				</g>
			</g>
			<g>
				<path class="st30" d="M149.2,301.4c3.8,8.1,7.4,16.2,11.1,24.3l10.9,24.4c3.6,8.1,7.3,16.3,10.8,24.4l10.7,24.5l-2-0.1
					l11.6-20.6l11.7-20.6l0,1L204,342.6l-10.1-16.3c-3.4-5.4-6.7-10.9-10-16.3c-3.3-5.4-6.7-10.9-9.9-16.4c3.6,5.3,7.1,10.6,10.6,16
					c3.5,5.3,7,10.7,10.5,16l10.4,16l10.4,16.1c0.2,0.3,0.2,0.7,0,1l0,0l-11.5,20.7l-11.6,20.6c-0.3,0.5-1,0.7-1.5,0.4
					c-0.2-0.1-0.4-0.3-0.5-0.5l-10.6-24.6c-3.5-8.2-7-16.4-10.4-24.6l-10.4-24.6C156,317.9,152.6,309.7,149.2,301.4z"/>
				<g>
					<path class="st30" d="M235.8,369.9c0.8-2,1.6-4,2.4-6c0.8-2,1.7-4,2.6-5.9c0-0.1,0.1-0.1,0.1-0.1l0,0c2-2.3,3.9-4.6,5.9-6.8
						c2-2.3,4-4.5,6-6.7c2.1-2.2,4.1-4.4,6.2-6.6c2.1-2.2,4.2-4.4,6.3-6.5l-0.1,1c-1.3-1.9-2.5-3.8-3.8-5.7
						c-1.2-1.9-2.5-3.8-3.6-5.8c1.5,1.7,3,3.4,4.4,5.2s2.9,3.5,4.3,5.3c0.2,0.3,0.2,0.7,0,1l0,0c-2,2.3-3.9,4.6-5.9,6.8
						c-2,2.3-4,4.5-6.1,6.7c-2.1,2.2-4.1,4.4-6.2,6.6c-2.1,2.2-4.2,4.3-6.3,6.5l0.1-0.2c-1,1.9-2.1,3.8-3.1,5.7
						C238,366.2,237,368,235.8,369.9z"/>
					<path class="st30" d="M221.2,399.5c0.4-1.8,0.9-3.5,1.6-5.1c0.6-1.7,1.3-3.3,2.1-4.9c0.8-1.6,1.6-3.1,2.6-4.6
						c0.9-1.5,1.9-3,3.1-4.4c-0.4,1.8-0.9,3.5-1.6,5.1c-0.6,1.7-1.3,3.3-2.1,4.9c-0.8,1.6-1.6,3.1-2.6,4.6
						C223.4,396.7,222.4,398.1,221.2,399.5z"/>
					<path class="st30" d="M241.5,358.3c1.9-2.3,3.9-4.6,5.8-6.9c1.9-2.3,3.9-4.6,5.9-6.9c2-2.3,4-4.5,6-6.8l6-6.7
						c0.4-0.4,1-0.5,1.5-0.1c0.2,0.2,0.4,0.5,0.3,0.8l0,0c-0.3,4.3-0.6,8.7-0.9,13l-1,13c-0.4,4.3-0.8,8.7-1.2,13
						c-0.4,4.3-0.9,8.7-1.3,13l0,0c0,0.3-0.3,0.5-0.6,0.5c-0.2,0-0.3-0.1-0.4-0.2c-2.6-3.5-5.2-7-7.8-10.6c2.9,3.3,5.8,6.6,8.7,9.9
						l-1,0.3c0.2-4.4,0.4-8.7,0.7-13.1c0.2-4.4,0.5-8.7,0.8-13l1-13c0.4-4.3,0.7-8.7,1.1-13l1.8,0.8l-6.2,6.6
						c-2.1,2.2-4.2,4.4-6.3,6.5c-2.1,2.2-4.2,4.3-6.3,6.4C245.8,354,243.7,356.2,241.5,358.3z"/>
				</g>
				<path class="st30" d="M215,358.3c0.8,2.1,1.3,4.1,1.8,6.2c0.5,2.1,0.9,4.2,1.2,6.3c0.3,2.1,0.6,4.3,0.7,6.4
					c0.2,2.2,0.2,4.3,0.1,6.5c-0.8-2.1-1.3-4.1-1.8-6.2c-0.5-2.1-0.9-4.2-1.2-6.3c-0.3-2.1-0.6-4.3-0.7-6.4
					C214.9,362.6,214.9,360.5,215,358.3z"/>
			</g>
		</g>
		<g>
			<g>
				<g>
					<path class="st35" d="M379.7,409.9l24.9-15.8l16.6-69.6c13.2-30.3,32-47.9,40.8-54.9c2.7-2.2,6.6-2.4,9.5-0.5l0,0
						c4.3,2.7,5.1,8.6,1.7,12.4c-11.9,13.7-21.5,32.4-23.6,38.9c10.7-16.1,24.2-34,36.1-43.5c3.2-2.5,7.7-2.4,10.8,0.2l0.2,0.1
						c3.9,3.3,4.2,9.3,0.6,12.9c-15.8,16-25.6,36.3-31.4,46c11.7-15.2,26-27.9,33.4-34.1c2.9-2.4,7-2.4,9.9,0l0,0
						c3.4,2.8,3.8,7.8,0.9,11c-13.8,15.9-32,38.8-32,38.8c9.8-9.2,20.4-19.2,25.9-24.5c2.2-2.1,5.6-2.1,7.9,0l0,0
						c2.1,1.9,2.5,5.1,0.9,7.4C499,355.6,474.2,375,474.2,375l-10.6,25.1c-4.6,11-14.1,19.3-25.6,22.4l0,0l-27.1,25.1L379.7,409.9z"
						/>
				</g>
				<path class="st37" d="M410.9,447.7l27.1-25.1c0,0-3-24.1-32-33.4l-1.4,4.9l-24.9,15.8L410.9,447.7z"/>
				<g>
					<g>
						<path class="st31" d="M429.3,431.2c-0.1,0-0.3-0.1-0.4-0.2c-0.2-0.2-0.2-0.6,0-0.8l8.7-8.1l0.1,0
							c11.4-3.1,20.6-11.2,25.2-22.1l10.7-25.3l0.1-0.1c0.2-0.2,24.9-19.6,38.5-40.2c1.4-2.1,1.1-5-0.8-6.7c-2-1.9-5.1-1.8-7.1,0
							c-5.6,5.3-16.1,15.3-25.9,24.5l-0.8-0.7c0.2-0.2,18.4-23.2,32.1-38.9c1.3-1.5,1.9-3.4,1.7-5.3c-0.2-1.9-1.1-3.7-2.6-5
							c-2.7-2.2-6.5-2.2-9.2,0c-7.4,6.2-21.7,18.9-33.3,34l-0.9-0.6c1.1-1.8,2.3-4,3.7-6.5c5.9-10.6,14.9-26.6,27.8-39.6
							c1.6-1.7,2.5-3.8,2.4-6.2c-0.1-2.3-1.1-4.4-2.9-6l-0.2-0.1c-2.9-2.5-7.1-2.5-10.1-0.2c-12.7,10.1-26.6,29.1-36,43.4l-2.2,3.3
							l1.2-3.8c2.2-6.8,12-25.7,23.7-39.1c1.5-1.7,2.2-4,1.8-6.2c-0.3-2.2-1.6-4.2-3.5-5.4c-2.8-1.8-6.3-1.6-8.9,0.5
							c-9.6,7.7-27.8,25.1-40.6,54.7c-0.1,0.3-0.4,0.4-0.7,0.3c-0.3-0.1-0.4-0.4-0.3-0.7c13-29.8,31.2-47.3,41-55.1
							c2.9-2.4,7-2.6,10.2-0.6c2.1,1.4,3.6,3.6,4,6.1c0.4,2.5-0.4,5.1-2.1,7.1c-9.5,10.9-17.7,25.4-21.6,34
							c9.3-13.7,21.8-30.2,33.4-39.3c3.4-2.7,8.2-2.6,11.5,0.2l0.2,0.1c2,1.7,3.2,4.1,3.3,6.7c0.1,2.6-0.8,5.1-2.7,7
							c-12.7,13-21.7,28.9-27.6,39.4c-0.1,0.1-0.2,0.3-0.2,0.4c10.7-12.8,22.5-23.2,29.1-28.7c3.1-2.6,7.5-2.6,10.6,0
							c1.7,1.4,2.8,3.5,3,5.7c0.2,2.2-0.5,4.4-2,6.1c-9.3,10.7-20.7,24.7-27.1,32.7c8-7.5,15.7-14.8,20.2-19.1
							c2.4-2.3,6.2-2.3,8.6,0c2.3,2.1,2.7,5.5,1,8.1c-13.2,20-36.8,38.9-38.6,40.4l-10.6,25c-4.7,11.2-14.1,19.4-25.8,22.7l-8.5,7.9
							C429.6,431.1,429.5,431.2,429.3,431.2z"/>
					</g>
				</g>
				<g>
					<g>
						<path class="st31" d="M469.9,280.2c-0.1,0-0.1,0-0.2,0c-3.8-1.5-7.4-3.7-10.3-6.6c-0.2-0.2-0.2-0.6,0-0.8
							c0.2-0.2,0.6-0.2,0.8,0c2.8,2.8,6.2,5,9.9,6.4c0.3,0.1,0.4,0.4,0.3,0.7C470.3,280.1,470.1,280.2,469.9,280.2z"/>
					</g>
					<g>
						<path class="st31" d="M468.7,279.5c-0.2,0-0.3-0.1-0.5-0.2c-0.2-0.2-0.1-0.6,0.1-0.8c1.7-1.2,2.3-3.6,1.4-5.5
							c-0.9-1.8-3.2-2.8-5.2-2.2c-1.6,0.5-2.8,1.8-3.8,3c-0.2,0.2-0.5,0.3-0.8,0.1c-0.2-0.2-0.3-0.5-0.1-0.8
							c1.2-1.4,2.5-2.8,4.3-3.4c2.4-0.8,5.4,0.5,6.5,2.8c1.1,2.3,0.4,5.4-1.7,6.9C468.9,279.5,468.8,279.5,468.7,279.5z"/>
					</g>
				</g>
				<g>
					<g>
						<path class="st31" d="M494.6,289.1c-0.1,0-0.1,0-0.2,0c-3.8-1.5-7.4-3.7-10.3-6.6c-0.2-0.2-0.2-0.6,0-0.8
							c0.2-0.2,0.6-0.2,0.8,0c2.8,2.8,6.2,5,9.9,6.4c0.3,0.1,0.4,0.4,0.3,0.7C495.1,289,494.9,289.1,494.6,289.1z"/>
					</g>
					<g>
						<path class="st31" d="M493.4,288.4c-0.2,0-0.3-0.1-0.5-0.2c-0.2-0.2-0.1-0.6,0.1-0.8c1.7-1.2,2.3-3.6,1.4-5.5
							c-0.9-1.8-3.2-2.8-5.2-2.2c-1.6,0.5-2.8,1.8-3.8,3c-0.2,0.2-0.5,0.3-0.8,0.1c-0.2-0.2-0.3-0.5-0.1-0.8
							c1.2-1.4,2.5-2.8,4.3-3.4c2.4-0.8,5.4,0.5,6.5,2.8c1.1,2.3,0.4,5.4-1.7,6.9C493.6,288.4,493.5,288.4,493.4,288.4z"/>
					</g>
				</g>
				<g>
					<g>
						<path class="st31" d="M507.1,313.6c-0.1,0-0.2,0-0.2,0c-3.7-1.7-7.1-4.2-9.8-7.2c-0.2-0.2-0.2-0.6,0-0.8
							c0.2-0.2,0.6-0.2,0.8,0c2.6,2.9,5.9,5.3,9.5,7c0.3,0.1,0.4,0.5,0.3,0.7C507.5,313.5,507.3,313.6,507.1,313.6z"/>
					</g>
					<g>
						<path class="st31" d="M506.6,313.3c-0.2,0-0.3-0.1-0.5-0.2c-0.2-0.2-0.1-0.6,0.1-0.8c1.7-1.2,2.5-4.6,1.6-6.4
							c-0.9-1.8-3.2-2.8-5.2-2.2c-1.6,0.5-2.8,1.8-3.8,3c-0.2,0.2-0.5,0.3-0.8,0.1c-0.2-0.2-0.3-0.5-0.1-0.8
							c1.2-1.4,2.5-2.8,4.3-3.4c2.4-0.8,5.4,0.5,6.5,2.8c1.1,2.3,0.1,6.3-2,7.8C506.8,313.3,506.7,313.3,506.6,313.3z"/>
					</g>
				</g>
				<g>
					<g>
						<path class="st31" d="M509.9,336c-0.1,0-0.2,0-0.2,0c-2.7-1.2-5.1-3-7.1-5.2c-0.2-0.2-0.2-0.6,0-0.8c0.2-0.2,0.6-0.2,0.8,0
							c1.9,2.1,4.2,3.8,6.7,4.9c0.3,0.1,0.4,0.5,0.3,0.7C510.4,335.9,510.2,336,509.9,336z"/>
					</g>
					<g>
						<path class="st31" d="M509.6,335.9c-0.2,0-0.3-0.1-0.5-0.2c-0.2-0.2-0.1-0.6,0.1-0.8c1.1-0.8,1.7-3.1,1.1-4.3
							c-0.6-1.2-2.2-1.9-3.5-1.5c-1.1,0.3-1.9,1.3-2.6,2.1c-0.2,0.2-0.5,0.3-0.8,0.1c-0.2-0.2-0.3-0.5-0.1-0.8c0.9-1,1.8-2,3.1-2.4
							c1.8-0.6,4,0.4,4.8,2.1c0.8,1.7,0.1,4.6-1.5,5.7C509.8,335.8,509.7,335.9,509.6,335.9z"/>
					</g>
				</g>
			</g>
			<g>
				<path class="st22" d="M370.6,416.2l25.4-21.8l0.5,0.2c17.7,8.5,31.1,24,36.9,42.8l0,0L404.5,463L370.6,416.2z"/>
				<path class="st22" d="M423.2,417c4.4,6.2,7.9,13,10.2,20.5l0,0L404.5,463l-33.9-46.8l25.4-21.8l0.5,0.2
					c5.7,2.7,11,6.2,15.7,10.3"/>
				<path class="st22" d="M158.9,323.3c40.7,61.3,108.4,163.4,108.4,163.4l79.2-63.9c8-6.4,17.8-10.2,28.1-10.6l0,0l0,0
					c15.2,9.8,26.7,24.4,32.8,41.4l1.9,5.2l0.3,2.1c2.4,19.2-5.3,38.3-20.4,50.4l-69,55c-37.5,29.8-92.1,23.3-121.5-14.5
					C158.3,500.3,104.2,431,69,386c-19.3-24.6-13.2-60.5,13.1-77.5l1.2-0.8C108.7,291.3,142.3,298.3,158.9,323.3z"/>
				<path class="st22" d="M267.3,486.8l-32.2,25.9l1-6.3c2.1-13.6,12-24.8,25.2-28.7l0,0L267.3,486.8z"/>
			</g>
			<path class="st30" d="M164.8,332.3c4.5,6.3,8.8,12.7,13.3,19l13.1,19.1c8.7,12.8,17.3,25.6,25.8,38.5c8.5,12.9,17,25.8,25.4,38.8
				l12.5,19.5c4.1,6.5,8.3,13,12.3,19.6c-4.5-6.3-8.8-12.7-13.3-19l-13.1-19.1c-8.7-12.8-17.3-25.6-25.8-38.5
				c-8.5-12.9-17-25.8-25.4-38.8l-12.5-19.5C173.1,345.4,168.9,338.9,164.8,332.3z"/>
			<path class="st30" d="M235.1,512.7c7.4-6.6,15-13,22.6-19.3c7.6-6.4,15.3-12.6,23-18.8c7.7-6.2,15.5-12.4,23.3-18.5
				c7.8-6.1,15.7-12.1,23.7-18c-7.4,6.6-15,13-22.6,19.3c-7.6,6.4-15.3,12.6-23,18.8c-7.7,6.2-15.5,12.4-23.3,18.5
				C251,500.9,243.1,506.8,235.1,512.7z"/>
			<path class="st30" d="M346.5,422.9c3.8-3.4,8.3-6,13-8c4.8-2,9.9-3.1,15-3.4c0.2,0,0.3,0,0.4,0.1l0,0c4.2,2.7,8.2,5.7,11.9,9.1
				c3.7,3.4,7,7.1,10,11.1c3,4,5.6,8.3,7.8,12.8c2.2,4.5,3.9,9.2,5.5,13.9c0,0.1,0,0.2,0.1,0.2c0.2,1.2,0.3,2.4,0.4,3.7l0.2,1.9
				c0,0.6,0,1.3,0.1,1.9l0,1.9c0,0.6,0,1.2-0.1,1.9l-0.1,1.9l-0.2,1.9c-0.5,5-1.8,9.8-3.6,14.5c-1.9,4.6-4.3,9-7.4,12.9
				c-3,3.9-6.6,7.4-10.5,10.3c3.7-3.2,7-6.9,9.8-10.9c2.8-4,5-8.4,6.7-12.9c1.7-4.5,2.7-9.3,3.1-14.1l0.2-1.8l0-1.8
				c0-0.6,0-1.2,0-1.8l-0.1-1.8c0-0.6,0-1.2-0.1-1.8l-0.2-1.8c-0.1-1.2-0.3-2.4-0.4-3.6l0.1,0.2c-1.7-4.7-3.3-9.3-5.5-13.6
				c-2.1-4.4-4.7-8.6-7.6-12.5c-2.9-3.9-6.1-7.6-9.6-11c-3.5-3.4-7.3-6.5-11.4-9.2l0.5,0.1c-5,0.1-10,1.1-14.8,2.7
				C355.1,417.4,350.6,419.9,346.5,422.9z"/>
			<path class="st30" d="M158,389.3c-0.7,4-1.4,8-1.8,12c-0.4,4-0.8,8-0.8,12c-0.1,4,0,8,0.2,12c0.3,4,0.7,8,1.2,12.1
				c-1.4-3.8-2.4-7.8-3-11.9c-0.6-4-0.8-8.2-0.7-12.3c0.1-4.1,0.6-8.2,1.4-12.2C155.2,397,156.4,393,158,389.3z"/>
			<path class="st30" d="M350.6,466.2c0.1,4-0.2,8-1,12c-0.7,4-1.9,7.9-3.3,11.6c-1.5,3.8-3.2,7.4-5.3,10.9
				c-2.1,3.4-4.5,6.7-7.3,9.6c2-3.5,4-6.9,5.7-10.5c1.7-3.5,3.4-7.1,4.7-10.8c1.4-3.7,2.6-7.4,3.7-11.2
				C349,474,349.8,470.1,350.6,466.2z"/>
		</g>
		<path class="st39" d="M563.8,65.2c-3.4-5.7-9.7-9.8-16.1-9.9c-2.7-1.8-5.8-3.1-9.2-3.7c-0.1,0-0.2,0-0.4,0c-1.2-1-2.4-2-3.8-2.8
			c-11.5-6.9-26.3-5-38.9-1.1c-4.8-0.9-10,0.8-12.9,5c-2,1-4,2.1-6,3.3c-3.1-1-6.4-1.5-9.9-1c-10.9,1.5-16.7,12.4-11.2,21.7
			c-9.5,8-15.2,22.9-7.8,34.1c1.2,1.9,2.8,3.5,4.5,4.9c0.1,0.5,0.2,1,0.4,1.4c2.3,7.6,6.4,14.2,11.7,19.7c2.9,5.7,8,10,15.8,11.4
			c0.3,0,0.6,0.1,0.8,0.1c9.4,4.1,19.9,5.5,30.2,3.7c2.5,3.4,1.4,7.9-0.1,11.7c-1.5,3.8-3.9,8.8-1.9,13c1.6,3.3,5.8,5,9,6.3
			c0.2,0.1,0.3,0.1,0.5,0.1c1.6,0.7,3.2,1.2,4.7,1.6c5.2,1.4,9.6,3,12.5,7.8c2.4,4,3,8.5,1.9,12.9c-0.4,1.4,1.8,2,2.1,0.6
			c2.2-8.6-1.8-18-10.1-21.7c-3.4-1.5-7.4-1.7-10.8-3.3c-5.2-2.6-6.2-7.3-2.6-11.7c2.7-3.3,6.6-5.7,8.6-9.6
			c2.4-4.7,1.1-8.5-1.6-11.7c2.2-1.1,4.4-2.4,6.4-3.8c4.6,0.1,9.4-1.5,13.2-4.4c8.8-6.7,13.6-20.1,12.9-31.3c2.5-2.2,4.6-4.9,6-7.7
			C567.5,90.3,570.1,75.9,563.8,65.2z M553.8,107.8c-0.5,0.4-1,0.8-1.6,1.2c0.2-0.9,0.3-1.9,0.4-2.9c0.2-0.4,0.5-0.8,0.7-1.2
			C553.6,105.9,553.7,106.8,553.8,107.8z M529.3,142c-3.3-0.2-6.5-1.5-9.1-4c-0.9-0.9-1.6-1.9-2.2-2.9c3.4-3.2,6.4-6.9,9-10.5
			c0.3-0.4,0.5-0.8,0.8-1.1c7.2-0.6,14.2-4.6,19.2-10c0.7-0.2,1.4-0.4,2.1-0.7C546.2,124.5,539.1,135.1,529.3,142z M510.5,148.2
			c-2.8-2-6.1-2.9-9.4-3.1c3.4-0.8,6.5-2.2,9.5-4c1,0.6,1.9,1.2,2.9,1.7c2.1,1.2,4.5,2.6,6.5,4.4c-0.3,0.1-0.6,0.3-1,0.4
			c-2.2,0.8-4.6,1.5-6.9,1.9C511.6,149.1,511.1,148.6,510.5,148.2z M480.4,145.7c-4.9-2.2-9.4-5.2-13.2-8.9
			c-3.3-4.9-4.5-10.6-4.1-16.5c2,0.3,4,0.4,6.1,0.3c1.1,1,2.2,2,3.3,2.9c2.3,10.5,7.9,20.4,19.5,22
			C488,145.9,484.1,146.3,480.4,145.7z M457.8,79.7c0.5,0.5,1,1,1.6,1.5c-0.5,1.5-1,3.1-1.4,4.7c-2,9.4,0,18.8,4.5,26.5
			c-0.4,1.8-0.8,3.6-1,5.4c-2.8-0.8-5.4-2-7.6-3.7C451.1,102.4,452.7,90.3,457.8,79.7z M476.8,58.6c0.7,0.2,1.3,0.5,1.9,0.8
			c-0.5,0.2-1,0.5-1.4,0.7c-4.7,2.6-8.9,6.3-12.2,10.6c-0.9,0.5-1.8,0.9-2.7,1.4c3.7-5.1,8.4-9.6,13.9-13.2
			C476.5,58.8,476.7,58.7,476.8,58.6z M484.3,54.4c3.7-1.8,7.5-3.3,11.4-4.6c1,0.2,2,0.6,3,1.2c3,1.8,4.8,4.5,5.7,7.5
			c-6.4-3.8-14.5-3.4-21.5-0.9c0-0.1,0.1-0.1,0.1-0.2C483.2,56.3,483.7,55.3,484.3,54.4z M545.8,111.5c-0.8,0.1-1.6,0.2-2.5,0.2
			c-2.6,0-5.3-1.1-7.4-2.9c0.5-1.3,0.9-2.5,1.2-3.8c3.2-1,6-2.9,8.4-5.2c1.7,0.2,3.5,0.3,5.2,0.1c0,1.7,0,3.4-0.2,5.1
			C549.1,107.3,547.5,109.5,545.8,111.5z M517.1,132.9c-0.8-2.8-0.8-5.8-0.3-8.8c0.8-0.5,1.5-1.1,2.2-1.7c2,0.7,4.1,1,6.2,1.1
			c-2,2.6-4.1,5.1-6.2,7.4C518.4,131.6,517.8,132.3,517.1,132.9z M482.7,138.9c-4.1-3.7-6.4-8.5-7.8-13.7c6.4,4.2,14,6.5,22.1,6.1
			c1.2-0.1,2.5-0.2,3.7-0.4c1.5,3.8,4.4,6.5,7.6,8.7C500.1,144.3,490.5,145.9,482.7,138.9z M464.6,111.6c1.3-4.4,3.4-8.6,6-12.3
			c-0.2,5.4,0.2,10.9,0.6,16c0.1,0.9,0.2,1.9,0.3,2.9c-0.6,0.1-1.2,0.2-1.8,0.2C467.8,116.4,466.1,114.1,464.6,111.6z M461.3,82.5
			c0.6,0.4,1.2,0.7,1.9,1.1c-2.7,3.4-3.8,7.7-3,12.1c0.2,1.4,2.4,0.8,2.1-0.6c-0.7-3.9,0.6-7.7,3-10.6c2.3,0.9,4.8,1.5,7.4,1.7
			c-0.9,2.9-1.5,6-1.7,9.2c-0.7,0.8-1.4,1.7-2,2.6c-2.3,3.2-4.1,7.1-5.5,11.3c-2.4-4.8-3.8-10-3.9-15.4
			C459.4,90.1,460,86.2,461.3,82.5z M459,77.5c0.1-0.3,0.3-0.5,0.4-0.8c1-0.7,1.9-1.3,3-1.9c-0.8,1.3-1.4,2.7-2,4.1
			C459.8,78.5,459.4,78,459,77.5z M466.4,72.7c2-0.9,4-1.8,6.1-2.5c5.5-1.8,11.4-3.3,17.3-4c0.4,0.3,0.8,0.7,1.3,1
			c-3.5,1.4-6.9,3.2-9.8,5.6c-1.6,1.3-3,2.8-4.2,4.4c-4-0.4-8.1,0.8-11.7,3.9c-0.3,0.2-0.5,0.5-0.8,0.7c-0.3-0.1-0.6-0.3-0.9-0.4
			c-0.6-0.3-1.2-0.7-1.7-1.1C463.2,77.7,464.6,75.1,466.4,72.7z M549.7,97.9c-0.8,0.1-1.7,0.1-2.5,0c0.4-0.5,0.7-0.9,1.1-1.4
			C548.8,96.9,549.3,97.3,549.7,97.9z M545.1,97.6c-1.2-0.2-2.4-0.5-3.5-0.8c-1.1-0.3-2.1-0.7-3.2-1.1c0-0.9-0.1-1.8-0.1-2.7
			c2.8-0.6,6,0.4,8.6,2.3C546.3,96.1,545.7,96.9,545.1,97.6z M534.3,107.2c-0.4-0.4-0.7-0.9-1-1.4c0.5-0.1,1-0.1,1.5-0.2
			C534.6,106.1,534.5,106.7,534.3,107.2z M519.1,120.2c-0.5-0.2-0.9-0.4-1.4-0.6c0.2-0.7,0.4-1.5,0.5-2.2c1.3-5.2,2.2-10.2,1.5-15
			c0.6,0.4,1.3,0.8,2,1.2c2.1,1.1,4.2,1.8,6.3,2.1c-1.1,4.7-3.6,9.2-7.4,13C520.1,119.2,519.6,119.7,519.1,120.2z M478.5,79.6
			c2.5,0.5,4.9,1.7,6.8,3.4c-0.1,0.2-0.3,0.3-0.4,0.5c-3,0.7-6,1-9,0.9C476.6,82.7,477.5,81.1,478.5,79.6z M473.3,84.2
			c-2.2-0.2-4.4-0.7-6.4-1.4c2.2-1.9,4.9-3.1,7.8-3.4c0.3,0,0.7,0,1,0C474.7,80.9,473.9,82.5,473.3,84.2z M515.5,118.5
			c-0.4-0.2-0.8-0.5-1.2-0.7c-0.4-0.3-0.8-0.7-1.3-0.9c-8.1-6.6-9.5-18.5-6.7-29c2,1,3.9,2.3,5.5,3.9c1,3.2,2.6,6.1,5.2,8.5
			C518.8,106.1,517,112.3,515.5,118.5z M502.7,128.3c-0.2,0-0.4-0.1-0.6-0.1c-1.1-5,2.1-12.2,8.4-10.4c0.4,0.1,0.8,0.3,1.2,0.5
			c0.5,0.5,1.1,0.9,1.7,1.3c1,1.2,1.1,2.8,0.5,4.3C510.4,126,506.6,127.5,502.7,128.3z M507.1,85.6c0.5-1.4,1-2.8,1.6-4.2
			c0.6,0.4,1.2,0.8,1.8,1.2c0.1,1.9,0.3,3.7,0.6,5.4C509.8,87.1,508.5,86.3,507.1,85.6z M494.6,82.1c2.7-1.4,5.1-3.4,7.1-5.7
			c0.1,0,0.2,0,0.3-0.1c1.6,1.3,3.2,2.5,4.8,3.7c-0.7,1.5-1.3,3-1.9,4.6c-4.5-1.6-9.3-1.8-14.1-0.9
			C492.1,83.3,493.4,82.7,494.6,82.1z M489.7,82c2.4-2,5.1-3.5,8-4.5C495.3,79.4,492.6,80.8,489.7,82z M505,76.2
			c1.3,0,2.5,0.1,3.8,0.3c-0.4,0.6-0.7,1.2-1,1.8C506.8,77.6,505.9,76.9,505,76.2z M509.6,79.6c0.2-0.5,0.5-0.9,0.7-1.4
			c0,0.6,0,1.3,0,1.9C510.1,80,509.9,79.8,509.6,79.6z M512.5,77.4c1.5,0.5,3,1.2,4.4,2c4.8,2.8,8,6.7,9.9,11.1
			c-4.9-2.6-9.7-5.6-14.2-8.8C512.5,80.3,512.5,78.8,512.5,77.4z M510.1,74.4c-2.1-0.5-4.3-0.7-6.5-0.6c1.5-2.3,2.7-4.8,3.2-7.4
			c0.5,0.1,1.1,0.2,1.6,0.3c1,2.2,1.5,4.8,1.7,7.5C510.2,74.3,510.2,74.4,510.1,74.4z M502.6,71.7c-0.3,0.6-0.8,1.2-1.2,1.7
			c-0.7-0.5-1.4-1.1-2-1.6c-1.4-1.1-2.8-2.3-4.3-3.6c3.1-0.9,6.3-1.6,9.5-2C504.3,68.2,503.6,70,502.6,71.7z M499.6,74.4
			c-0.1,0-0.1,0-0.2,0c-4.7,1.1-9.1,3.6-12.6,7c-2.1-1.8-4.4-3-7-3.7c2.5-3.1,5.7-5.6,9.9-7.5c1.1-0.5,2.2-0.9,3.4-1.3
			C495.3,70.7,497.4,72.6,499.6,74.4z M483,85.9c-0.2,0.2-0.3,0.4-0.5,0.7c-3.2,1.6-6.3,3.6-8.9,6.1c0.4-2.1,0.9-4.2,1.5-6.2
			C477.7,86.6,480.4,86.4,483,85.9z M472.9,102.1c0-2,0.1-4,0.2-5.9c0.2-0.2,0.4-0.5,0.6-0.7c2-2.1,4.3-3.9,6.8-5.4
			c-1.2,2.5-2,5.1-2.4,7.8c-0.8,5.7,0.4,11.5,3,16.5c-2.3,1.5-4.9,2.7-7.5,3.3C472.9,112.4,472.9,107,472.9,102.1z M482.3,91.4
			c0.5-1.1,1.1-2.2,1.8-3.2c1.4-0.6,2.9-1.1,4.4-1.5c1,1.5,1.8,3.1,2.3,4.8c2.6,8.4-1.4,16.5-7.9,21.6
			C479.6,106.5,479,98.6,482.3,91.4z M492.4,89.3c-0.4-1.1-1-2.1-1.6-3.1c4.6-0.9,9.2-0.7,13.4,0.7c-0.3,1-0.5,1.9-0.7,2.9
			c-1.8,8.9-0.3,18.8,5.4,25.7c-1.7-0.1-3.4,0.3-4.9,1.3c-3.4,2.4-4.7,6.7-4.2,10.8c-0.3-0.1-0.7-0.2-1-0.3
			c-6.3-2.2-11.5-6.6-14.8-12.2C491.8,109.1,496.2,99,492.4,89.3z M518.9,98.9c-0.7-2.2-1.8-4.3-3.5-6.4c-0.6-0.8-1.2-1.5-1.9-2.1
			c-0.6-2-0.8-4.1-0.9-6.2c4.9,3.2,9.9,6.2,15.1,8.9c1,3.3,1.2,6.9,0.7,10.3C525,102.8,521.6,101.3,518.9,98.9z M531.1,96.2
			c-0.1-0.5-0.2-1.1-0.3-1.6c0.3,0.2,0.7,0.3,1,0.5C531.6,95.4,531.3,95.8,531.1,96.2z M532.3,103.6c-0.6-2-0.5-4.2,0.7-6.4
			c0.2-0.4,0.5-0.8,0.8-1.2c0.8,0.4,1.6,0.7,2.4,1c-0.1,2.1-0.3,4.1-0.8,6.2C534.4,103.4,533.3,103.5,532.3,103.6z M538.3,97.9
			c1.6,0.6,3.2,1.1,5,1.5c-0.8,0.7-1.6,1.3-2.6,1.8c-1,0.6-2,1-3,1.4C538,101,538.2,99.5,538.3,97.9z M536.2,94.8
			c-0.3-0.1-0.7-0.3-1-0.4c0.3-0.3,0.6-0.4,0.9-0.6C536.2,94.1,536.2,94.5,536.2,94.8z M535.5,92c-0.9,0.5-1.7,1-2.4,1.6
			c-1-0.5-2-0.9-3-1.4c-0.8-2.4-2-4.7-3.7-7c-3.5-4.7-8.4-8.3-13.9-10.1c1.5-2,3.3-3.8,5.3-5.2c9,4.2,16.5,12,18.1,22
			C535.8,91.9,535.6,91.9,535.5,92z M512.3,71.8c-0.2-1.5-0.4-2.9-0.8-4.3c0.1,0,0.3,0.1,0.4,0.1c1.2,0.3,2.4,0.7,3.5,1.2
			C514.2,69.7,513.2,70.7,512.3,71.8z M493.1,66.5c-0.2-0.2-0.4-0.4-0.6-0.5c1-0.1,2-0.1,2.9-0.2C494.6,66,493.8,66.3,493.1,66.5z
			 M471.8,120.3c0,0,0,0.1,0,0.1c0,0-0.1-0.1-0.1-0.1C471.8,120.4,471.8,120.3,471.8,120.3z M473.8,120c1.7-0.4,3.4-0.9,5-1.7
			c1.2-0.5,2.3-1.2,3.4-1.9c2,3.2,4.6,6.1,7.7,8.5c2,1.5,4.6,3,7.5,4.2c-4.8,0.3-9.6-0.3-14.2-1.9c-3.2-1.1-6.2-2.8-8.9-4.8
			C474.1,121.6,473.9,120.8,473.8,120z M509.8,138.1c-2.7-1.9-5.4-4.4-6.9-7.5c4.1,0.7,8.2,0.2,11.1-2.5c0,2.2,0.3,4.4,1.2,6.5
			c-1.6,1.4-3.2,2.6-5,3.8C510.1,138.3,510,138.2,509.8,138.1z M521,120.8c4.6-4.2,8-9.3,9.6-14.8c0.2,0,0.3,0,0.5,0
			c0.6,1.4,1.4,2.6,2.3,3.7c-1.7,4.2-4,8.1-6.7,11.8C524.8,121.6,522.9,121.3,521,120.8z M534.9,111.2c0.6,0.5,1.2,0.9,1.8,1.2
			c2.2,1.1,4.4,1.6,6.6,1.6c-4,3.8-8.8,6.6-14,7.4C531.5,118.1,533.4,114.7,534.9,111.2z M549.6,94.3c0.1-0.3,0.3-0.5,0.4-0.8
			c0.1,0.5,0.2,0.9,0.2,1.4C550,94.7,549.8,94.5,549.6,94.3z M549.9,84.7c-0.5-1.3-1.1-2.5-1.7-3.7c0.5,0,1,0.1,1.4,0.2
			C549.8,82.4,549.9,83.6,549.9,84.7z M546.8,78.8c-0.9-1.3-1.8-2.6-2.8-3.7c0.5-1,0.8-2.1,1.1-3.1c1.8,2,3.2,4.4,4,7
			C548.3,78.9,547.6,78.9,546.8,78.8z M536.3,71.4c1.8,1.2,3.5,2.5,5,4.1c-0.3,0.4-0.5,0.9-0.9,1.3C538.4,75.5,537,73.6,536.3,71.4z
			 M542.8,77.2c0.3,0.3,0.5,0.7,0.8,1c-0.1,0-0.2,0-0.3-0.1c-0.3-0.1-0.6-0.2-0.9-0.3C542.5,77.6,542.7,77.4,542.8,77.2z
			 M543.5,67.6c-2.1-1.5-4.4-2.6-6.9-3.4c0.6-1.3,1.4-2.5,2.6-3.6c0.7-0.6,1.4-1.1,2.2-1.6C542.8,61.7,543.5,64.7,543.5,67.6z
			 M543.3,70.2c-0.2,1.1-0.5,2.1-0.9,3.2c-2-1.9-4.2-3.5-6.6-4.8c0-0.8,0-1.5,0.2-2.3C538.6,67.1,541.1,68.5,543.3,70.2z
			 M533.7,67.5c-1.7-0.8-3.5-1.5-5.4-2c1.7-0.2,3.4-0.1,5.2,0.2c0.2,0,0.3,0.1,0.5,0.1C533.8,66.4,533.7,67,533.7,67.5z M524.3,66.8
			c3.4,0.6,6.5,1.6,9.3,3.1c0.3,3.5,1.9,6.7,5.1,8.8c2,1.3,4.3,1.8,6.7,2.1c1.7,2.7,2.9,5.7,3.8,9c-0.3,1.1-0.7,2.2-1.2,3.3
			c-2.9-2-6.4-3-10.1-2c-0.5-2.8-1.4-5.6-2.9-8.3c-3.5-6.5-8.9-11.2-15.3-14.3c1.2-0.7,2.4-1.3,3.6-1.7
			C523.7,66.7,524.1,66.7,524.3,66.8z M517.3,67.3c-1.4-0.6-2.7-1-4.1-1.5c2,0,4,0.1,6,0.3C518.5,66.5,517.9,66.9,517.3,67.3z
			 M498.2,58.5c2.8,0.6,5,1.8,6.8,3.3c0,0.7,0,1.5,0,2.2c0,0-0.1,0-0.1,0c-1.8-0.2-3.6-0.4-5.4-0.4c-3.1-0.1-6.2,0.1-9.5,0.4
			c-2-1.6-4-3.1-6.1-4.4C488.5,58,493.4,57.4,498.2,58.5z M487.2,64.3c-5.9,0.8-11.8,2.2-17.4,4.3c2.5-2.6,5.5-4.9,8.7-6.6
			c0.9-0.5,1.8-0.9,2.8-1.4C483.3,61.7,485.3,62.9,487.2,64.3z M463.9,114.4c1,1.4,2,2.8,3.2,4.1c-1.3,0-2.6-0.2-3.8-0.4
			C463.4,116.9,463.6,115.6,463.9,114.4z M512.4,139.8c1.3-1,2.6-2,3.9-3.1c0.3,0.5,0.7,1.1,1.1,1.6c2.4,3.1,5.7,4.9,9.1,5.6
			c-1.5,0.9-3.1,1.7-4.7,2.5C519.1,143.8,515.5,141.7,512.4,139.8z M553.5,99.4C553.6,99.4,553.6,99.4,553.5,99.4
			C553.6,99.4,553.6,99.4,553.5,99.4C553.6,99.4,553.6,99.4,553.5,99.4z M552.8,97.2c-0.2-2.6-0.6-5.2-1.3-7.7
			c0.7-2.6,0.9-5.3,0.6-8c0.6,0.1,1.1,0.2,1.7,0.4c1.7,0.5,3.1,1.4,4,2.6c-0.3,3.2-0.9,6.4-1.9,9.4c-0.3,0.8-0.5,1.5-0.8,2.3
			C554.3,96.7,553.5,97,552.8,97.2z M559.4,89.6c0,0.9-0.3,1.8-0.7,2.7C559,91.4,559.2,90.5,559.4,89.6z M555.5,80.2
			c-1.3-0.5-2.6-0.7-3.9-0.9c-0.6-2.4-1.7-4.8-3.3-7c-0.8-1.1-1.7-2.1-2.7-3c0.4-3.8-0.4-7.6-2.2-11c1.3-0.4,2.6-0.7,4-0.7
			c7.4,5.2,10.6,14.5,10.5,23.9C557.2,81,556.4,80.6,555.5,80.2z M542.2,56.3c-0.4-0.6-0.9-1.2-1.3-1.8c1.1,0.3,2.2,0.7,3.3,1.2
			C543.5,55.9,542.9,56.1,542.2,56.3z M516.8,46.5c7.8,0.1,16,2.3,21.5,8.1c0.8,0.8,1.4,1.6,2,2.5c-0.4,0.2-0.9,0.5-1.3,0.8
			c-2,1.4-3.5,3.4-4.4,5.7c-3.8-0.8-7.8-0.6-11.5,0.6c0,0-0.1,0-0.1,0c-0.9-0.1-1.8-0.2-2.7-0.3c-3.4-0.3-7-0.5-10.6-0.3
			c-0.7-1.1-1.5-2.1-2.5-3c-0.4-2.8-1.5-5.6-3.6-8.2c-1.3-1.6-2.8-2.7-4.5-3.6C505,47.4,511,46.5,516.8,46.5z M481.1,56
			c-0.1,0.3-0.2,0.5-0.3,0.8c-0.2,0.6,0.2,1.1,0.7,1.3c0,0,0,0-0.1,0c-0.7-0.4-1.4-0.7-2.1-1.1C479.9,56.7,480.5,56.4,481.1,56z
			 M456.9,63.5c3.6-6,10.7-7.1,17.1-5.7c-6.8,4.6-12.6,10.3-16.8,17.4C455.2,71.6,454.6,67.4,456.9,63.5z M446.7,98.4
			c0.2-7,3.2-12.8,7.7-17.4c-4,9.5-5,20.2-3.1,30.4C448.3,108.1,446.5,103.6,446.7,98.4z M460,128.1c-2.1-3.4-3.8-7-5-10.6
			c2,1.1,4.1,1.9,6.3,2.4c-0.3,3.9,0,7.9,1,11.5C461.5,130.4,460.7,129.3,460,128.1z M487.4,148.4c4.3-0.4,8.6-1.4,12.9-1.2
			c3,0.2,6.4,1,8.9,2.8C502,151.1,494.5,150.5,487.4,148.4z M524,155.3c-0.1,4.2-3.7,7-6.4,9.7c-2.9,2.9-6.3,6.2-5.6,10.6
			c0,0.3,0.2,0.5,0.2,0.8c-1.1-1.6-1.6-3.6-1-6.3c0.8-3.5,2.8-6.6,3.5-10c0.7-3.1,0.3-6.1-1.2-8.6c1-0.2,2-0.5,3.1-0.8
			c1.7-0.5,3.4-1.1,5-1.8C523.1,150.7,524.1,152.8,524,155.3z M539.8,139.5c-2,1.2-4.3,2-6.7,2.4c9.4-7.6,16.1-18.5,18.7-30.3
			c0.8-0.4,1.5-0.9,2.2-1.5C554.3,121.3,548.6,134.3,539.8,139.5z M555.8,106c0-0.2,0-0.4-0.1-0.6c-0.2-1.1-0.5-2.1-0.8-3.2
			c0.8-1.5,1.4-3,2.1-4.5c1-0.7,2-1.6,2.8-2.8c2.5-3.5,2.6-7.8,0.5-11c0.2-2.7,0.2-5.4-0.1-8c-0.8-6.9-4.1-13.4-9-18
			c2.6,0.6,5,1.9,7,3.6c5.4,4.8,7.3,12.2,7,19.3C564.8,88.8,561.9,99.5,555.8,106z"/>
	</g>
	
		<ellipse transform="matrix(0.2397 -0.9708 0.9708 0.2397 9.7052 442.0924)" class="st21" cx="287.1" cy="214.8" rx="6.9" ry="13.3"/>
</g>
</svg>
