<?xml version="1.0" encoding="utf-8"?>
<!-- Generator: Adobe Illustrator 21.0.0, SVG Export Plug-In . SVG Version: 6.00 Build 0)  -->
<svg version="1.1" id="Layer_1" xmlns="http://www.w3.org/2000/svg" xmlns:xlink="http://www.w3.org/1999/xlink" x="0px" y="0px"
	 viewBox="0 0 480.9 480.9" style="enable-background:new 0 0 480.9 480.9;" xml:space="preserve">
<style type="text/css">
	.st0{fill:#EDEDED;}
	.st1{fill:#685989;}
	.st2{fill:#864D7D;}
	.st3{fill:#BEDBC3;}
	.st4{fill:#9CC1C8;}
	.st5{opacity:0.5;fill:#9CC1C8;}
	.st6{fill:#D3DEE4;}
	.st7{fill:#007271;}
	.st8{fill:#369999;}
	.st9{fill:#4D2B2B;}
	.st10{fill:#3A1F1E;}
	.st11{fill:#E95B4E;}
	.st12{fill:#EE8268;}
	.st13{fill:#C83D36;}
	.st14{fill:#F6B99F;}
	.st15{fill:#EEE9DC;}
	.st16{fill:#F19775;}
	.st17{fill:#6B3E3F;}
	.st18{fill:#C7BDB7;}
	.st19{fill:#D1D5CA;}
	.st20{fill:#2B3668;}
	.st21{fill:#EE827D;}
	.st22{fill:#F87481;}
	.st23{fill:#FFFFFF;stroke:#FFFFFF;stroke-miterlimit:10;}
	.st24{fill:#FFFFFF;}
	.st25{opacity:0.3;clip-path:url(#SVGID_2_);}
	.st26{opacity:0.3;clip-path:url(#SVGID_4_);}
	.st27{opacity:0.3;clip-path:url(#SVGID_6_);}
	.st28{fill:#7087AF;}
	.st29{clip-path:url(#SVGID_8_);}
	.st30{fill:#B2555F;}
	.st31{fill:#47284F;}
	.st32{fill:#FFBF9B;}
	.st33{fill:#FFA687;}
	.st34{fill:#72426B;}
	.st35{fill:#FFC9AC;}
	.st36{fill:#C19884;}
	.st37{fill:#FFA68D;}
	.st38{fill:#13A6CE;}
	.st39{fill:#4E2447;}
	.st40{opacity:0.3;}
	.st41{fill:#1A2E35;}
	.st42{fill:#FFBF9D;}
	.st43{fill:#FF9A6C;}
	.st44{fill:#375A64;}
	.st45{fill:#E1E1E1;}
	.st46{opacity:0.2;}
	.st47{fill:#FF4F5B;}
	.st48{fill:#EBEBEB;}
	.st49{fill:#AA6550;}
	.st50{fill:#FAFAFA;}
</style>
<g>
	<g>
		<circle class="st2" cx="240.4" cy="240.4" r="240.4"/>
		<g>
			<defs>
				<circle id="SVGID_9_" cx="240.4" cy="240.4" r="215.1"/>
			</defs>
			<use xlink:href="#SVGID_9_"  style="overflow:visible;fill:#FFFFFF;"/>
			<clipPath id="SVGID_2_">
				<use xlink:href="#SVGID_9_"  style="overflow:visible;"/>
			</clipPath>
		</g>
	</g>
	<g>
		<g>
			<g>
				<g>
					<g>
						<path class="st4" d="M294.3,238.2c0,0,27.9,6.9,32.5,64.3c2.7,33.6,6,67.8,6,67.8l61.3,14.5l10.8,33.4L324.6,434
							c-22.2,0-46.6-19.2-46.1-41.4l-0.9-77.2L294.3,238.2z"/>
					</g>
				</g>
			</g>
			<g>
				<g>
					<g>
						<path class="st4" d="M147.1,238.7L134.7,325c-1.8,12.5-0.9,25.2,2.6,37.3l15.3,52.6c0,0-20.8,26.7-3.6,37
							c3.4,2,95.5,6.2,95.5,6.2l44.7-3.1l6-127.8l-0.9-89c0,0-31-11.3-43.1-12.6c-7.6-0.8-40.6-1.9-67.7,0.5L147.1,238.7z"/>
					</g>
				</g>
			</g>
			<g>
				<path class="st24" d="M289.9,326.4c-1-0.4-2.2-0.2-3.3-0.1c-4.3,0.1-8.6-2.7-10.1-6.8c-0.7,2.1-1.4,4.3-2.9,6
					c-1.5,1.7-3.9,2.7-6,1.9c-2.2-0.8-3.3-3.3-4.9-5.1c-4-4.2-12.3-2.3-14.2,3.2c-0.8,2.5-1.4,6.1-4,6.1c-3-0.1-3-4.9-5.3-6.8
					c-2.4-1.9-5.9,0.1-8,2.4c-2,2.3-4.2,5.2-7.3,5.1c-2.9-0.1-5-2.8-5.8-5.5c-0.8-2.7-0.9-5.7-1.8-8.4c-1-2.7-3.5-5.2-6.3-4.8
					c-3.5,0.5-4.8,4.8-5.7,8.2c-0.9,3.4-3.5,7.5-6.9,6.6c-4.9-1.3-2.9-10-7.3-12.6c-3.1-1.9-7.1,0.8-8.7,4c-1.6,3.2-2,7-4,9.9
					c-2,3-6.8,4.6-9,1.9c-0.8-1-1.1-2.2-1.9-3.1c-1.6-1.7-4.4-1.3-6.4-0.2c-2,1.1-3.7,2.8-5.8,3.7c-2.1,0.9-6.8-0.1-7.8-2.1
					l-6.4,11.1c-1,2.3-3.8,5.2-2.2,6.2c1.6,0.9,3.9,0,4.4-1.8c2.5,1.3,5.8,1.3,7.8-0.7c1.5-1.4,2.9-3.8,4.9-3.3c1,0.3,1.7,1.3,2.4,2
					c2.5,2.8,7.2,3.2,10.2,0.9c1.6-1.2,2.7-3,4.1-4.5c1.4-1.4,3.6-2.5,5.4-1.7c2.2,1,2.7,3.9,2.5,6.3s-0.7,5.1,0.6,7.1
					c1.7,2.6,5.8,2.7,8.5,1.1c2.7-1.5,4.7-4.2,6.9-6.4c2.2-2.2,5.3-4.1,8.4-3.5c3.6,0.7,6.3,4.7,10,4.3c2.5-0.3,4.5-2.7,7-2.8
					c2.8-0.2,5,2.5,7.7,3.3c6.1,1.9,11.6-5.7,18-5.1c5.8,0.5,10.5,7.8,16,5.8c4.8-1.8,4.9-9.1,9.1-12c2.6-1.8,6-1.5,9.1-1.1
					c3.1,0.4,6.5,0.7,9.1-1.1C292.5,332.2,292.9,327.4,289.9,326.4z"/>
			</g>
			<g>
				<path class="st24" d="M294.6,321.3c-0.6-1.4-0.2-3.2,1-4.1c1.2-0.9,3.1-0.9,4.3,0c1.4,1.1,1.7,3,1.8,4.7c0.1,1.7,0,3.6,0.8,5.1
					c0.8,1.5,3,2.5,4.4,1.4c1.1-0.9,1.1-2.4,1.3-3.8c0.2-1.4,0.8-3,2.2-3.1c1.4-0.1,2.2,1.5,2.5,2.9c0.3,1.4,0.3,2.9,1.4,3.8
					c1.5-0.5,1.8-2.4,2.2-4c0.4-1.6,1.8-3.4,3.2-2.6c0.7,0.4,0.9,1.2,1.3,1.9c0.4,0.7,1.1,1.4,1.8,1.1c1.2-0.5,0.6-2.8,1.8-3.3
					c0.8-0.3,1.6,0.6,2,1.3c0.8,1.4,1.7,2.8,1.7,4.4s-1.1,3.4-2.7,3.4c-0.9,0-1.8-0.5-2.7-0.7c-2-0.4-3.9,0.9-5,2.5
					c-1.1,1.7-1.5,3.7-1.9,5.6c-2.4-2.4-6.9-2.1-8.9,0.6c-1.8,2.3-2.2,6.1-5.1,6.7c-1.9,0.4-3.7-1.2-4.3-3c-0.6-1.8-0.4-3.8-0.1-5.7
					c-1.3,1.1-2.5,2.1-3.8,3.2c-0.3-1.7-0.6-3.4-0.9-5.1"/>
			</g>
			<g class="st40">
				<path d="M142.3,441.3l49.2-15.2l31.3-2.9c0,0,9,15.6,16.9,14.9c7.9-0.7,13.4-4.1,13.4-4.1s3,16.4,11,15.2
					c8-1.2,3.9-50.2,3.9-50.2l-83-16.7L135.7,395L142.3,441.3z"/>
			</g>
			<g>
				<g>
					<path class="st4" d="M147.1,238.7c0,0-25.6,9-35.2,23.4c-12.7,19.1-48.6,74-65.5,117c-5.3,13.4-0.9,34.1,6.9,46.3l0,0
						c10.4,16.3,30.3,23.8,48.9,18.5l89.8-25.3l8.3-50.5l-78.2,3.3l21.9-35.9L147.1,238.7z"/>
				</g>
			</g>
			<g>
				<path class="st24" d="M77.2,318.4c1.8-2.4,6.2-2.3,7.8,0.3c1.4,2.2,1.4,5.8,3.9,6.3c1.9,0.4,3.3-1.4,4.5-2.9
					c1.2-1.4,3.4-2.7,4.8-1.4c1.3,1.2,0.6,3.8,2.1,4.7c1.4,0.9,3-0.5,3.9-1.8c0.9-1.3,2-2.9,3.6-2.8c3.3,0.3,2.6,7,5.9,7.1
					c1.7,0,2.7-1.9,4.2-2.5c2-0.8,4.2,0.7,5.8,2.1c1.1,0.9,2.2,1.9,2.8,3.2c0.6,1.3,0.6,3-0.3,4c-1.4,1.6-4,0.9-5.9-0.1
					c-1.9-1-3.9-2.4-5.9-1.9c-3.5,0.9-4.8,6.7-8.4,6.3c-3.3-0.4-4.1-5.7-7.4-6c-3.4-0.4-5.9,5.1-9,3.8c-1.5-0.6-2.1-2.4-3.4-3.2
					c-1.3-0.8-3-0.4-4.3,0.2c-1.4,0.7-2.6,1.6-4,2c-1.4,0.4-3.3,0.3-4.1-1c-0.9-1.2,0.2-3.4,1.7-3.1c-1.2-0.2-2.4-0.4-3.6-0.6
					c0-0.9-0.1-1.9-0.1-2.8"/>
			</g>
			<g>
				<g>
					<g>
						<g>
							<path class="st41" d="M293.9,288.6c0.1,0,0.2,1.4,0.3,4c0.1,2.6,0.2,6.3,0.2,11c0.1,9.3-0.1,22.1-0.8,36.3
								c-0.7,14.2-1.7,26.9-2.6,36.2c-0.5,4.6-0.9,8.4-1.2,10.9c0.8,36.2-0.6,4-0.6,4c-0.1,0,0-1.4,0.2-4c0.2-2.8,0.5-6.5,0.8-11
								c0.7-9.2,1.6-22,2.2-36.2c0.6-14.1,1-26.9,1.1-36.2c0.1-4.5,0.1-8.2,0.2-11C293.8,290.1,293.8,288.6,293.9,288.6z"/>
						</g>
					</g>
				</g>
				<g>
					<g>
						<g>
							<path class="st41" d="M299,240.9c0.3,0.2-3.2,4.9-5.7,11.5c-2.5,6.6-3,12.5-3.3,12.4c-0.3,0-0.4-6,2.2-12.9
								C294.7,245.2,298.8,240.7,299,240.9z"/>
						</g>
					</g>
				</g>
				<g>
					<g>
						<path class="st41" d="M156.6,285.6c-0.2,0-0.4-2.3-1.2-6c-0.9-3.6-2.5-8.5-5.4-13.4c-2.9-4.9-6.4-8.7-9.2-11.2
							c-2.8-2.5-4.7-3.8-4.6-3.9c0-0.1,0.6,0.2,1.5,0.7c0.9,0.5,2.2,1.4,3.7,2.6c3,2.4,6.7,6.2,9.6,11.2c3,5,4.6,10.1,5.3,13.8
							c0.3,1.9,0.5,3.4,0.5,4.5C156.7,285,156.7,285.6,156.6,285.6z"/>
					</g>
				</g>
				<g>
					<g>
						<path class="st41" d="M121.1,371.7c0.1,0.3-6.8,1.8-14.3,5.9c-7.5,4.1-12.5,9.1-12.7,8.8c-0.1-0.1,1-1.5,3.1-3.4
							c2.1-1.9,5.2-4.3,9.1-6.4c3.8-2.1,7.5-3.4,10.3-4.2C119.4,371.8,121.1,371.6,121.1,371.7z"/>
					</g>
				</g>
				<g>
					<g>
						<path class="st41" d="M158.4,305.4c0.1,0-0.3,1-1.1,2.7c-0.8,1.7-2,4.2-3.5,7.2c-3,6.1-7.3,14.3-12.4,23.3
							c-5.1,9-9.9,17-13.6,22.7c-1.8,2.9-3.3,5.1-4.4,6.7c-1.1,1.6-1.7,2.4-1.7,2.4c-0.1,0,0.4-1,1.4-2.6c1.1-1.8,2.4-4.1,4.1-6.9
							c3.5-5.8,8.2-13.8,13.3-22.8c5.1-9,9.5-17.2,12.7-23.1c1.5-2.8,2.8-5.2,3.8-7.1C157.8,306.3,158.3,305.3,158.4,305.4z"/>
					</g>
				</g>
				<g>
					<g>
						<path class="st41" d="M94.1,445.4c0,0,0.2-0.1,0.5-0.2c0.4-0.1,0.8-0.3,1.4-0.4c1.3-0.4,3.2-0.9,5.6-1.6
							c4.9-1.4,11.9-3.4,20.6-5.8c17.6-4.9,42-11.6,69.6-19.3l-0.4,0.4c0.8-4.8,1.6-9.9,2.5-15c2.1-12.4,4-24.4,5.9-35.4l0.5,0.6
							c-23.5-0.7-43.6,1-57.9,2.1c-7.1,0.6-12.7,1.1-16.7,1.4c-1.9,0.1-3.4,0.3-4.5,0.3c-0.5,0-0.8,0-1.2,0.1c-0.3,0-0.4,0-0.4,0
							c0,0,0.1,0,0.4-0.1c0.3,0,0.7-0.1,1.1-0.2c1.1-0.1,2.6-0.3,4.4-0.5c3.9-0.4,9.5-1,16.7-1.7c14.3-1.3,34.4-3.1,58-2.5l0.6,0
							l-0.1,0.6c-1.8,11-3.8,23-5.8,35.4c-0.8,5.1-1.7,10.2-2.5,15l-0.1,0.3l-0.3,0.1c-27.6,7.5-52.1,14.1-69.7,18.9
							c-8.7,2.3-15.8,4.2-20.7,5.5c-2.4,0.6-4.2,1.1-5.6,1.4c-0.6,0.1-1.1,0.3-1.5,0.3C94.3,445.3,94.1,445.4,94.1,445.4z"/>
					</g>
				</g>
			</g>
		</g>
		<g>
			<g>
				<g>
					<g>
						<path class="st42" d="M394.6,387.3c0,0,21.8-16.2,25.6-16.9c3.8-0.7,32.7,3,34.4,4.7c1.7,1.7,28.6,22,23.4,23.7
							c-5.2,1.7-23.8-12.7-23.8-12.7l-3.5,0c0,0,16.3,12,18.9,16.1c2.4,3.8-0.9,7.4-4,5.3c-3.1-2-17-13-18.2-12.8
							c-1.2,0.2,14.6,12.8,15.9,14.9c1.8,2.8-0.3,7.5-3.4,5.6c-1.8-1.1-16.3-14-16.3-14s10.6,11.9,11.2,13.7c1,2.9-2.1,5-4.6,2.9
							c-1.7-1.5-8.8-10.7-11.1-12.7c0,0-2.8-0.6-7.6,3.2c-4.8,3.8-27.4,8.1-27.4,8.1L394.6,387.3z"/>
					</g>
				</g>
			</g>
			<g>
				<g>
					<g>
						<g>
							<path class="st42" d="M401.2,391.1c0.9,2.6,4.1,3.7,6.8,3.5c2.8-0.2,5.4-1.3,8.1-1.7c8.2-1.1,16.3,4.3,24.4,2.8
								c1.1-0.2,2.5-0.8,2.5-2c0-1.1-1.1-1.8-2-2.2c-8.2-4-16.4-8-24.6-12"/>
						</g>
					</g>
				</g>
				<g>
					<g>
						<g>
							<g>
								<path class="st43" d="M416.4,379.6c0-0.1,1,0.3,2.8,1c1.8,0.7,4.3,1.9,7.4,3.3c3.2,1.5,6.8,3.2,10.8,5.1
									c1,0.5,2.1,1,3.1,1.5c1,0.5,2.4,0.8,3.2,2.6c0.3,0.9-0.1,2-0.8,2.5c-0.6,0.5-1.3,0.8-2,0.9c-1.3,0.2-2.7,0.4-4,0.3
									c-5.4-0.2-10.1-2.2-14.4-2.9c-2.2-0.4-4.2-0.5-6.1-0.3c-1.9,0.2-3.7,0.8-5.4,1.1c-3.4,0.9-6.5,0.2-8.1-1.1
									c-1.6-1.3-1.7-2.5-1.6-2.5c0.1-0.1,0.4,1,2,2c1.5,1,4.3,1.5,7.5,0.5c1.6-0.4,3.4-1,5.5-1.3c2.1-0.3,4.3-0.2,6.6,0.2
									c4.5,0.7,9.2,2.6,14.2,2.8c1.2,0.1,2.5-0.1,3.6-0.3c1.1-0.2,1.9-0.9,1.7-1.4c-0.2-0.6-1.3-1.2-2.4-1.7
									c-1.1-0.5-2.1-1-3.1-1.5c-3.9-2-7.5-3.8-10.7-5.4c-3-1.6-5.5-2.8-7.1-3.7C417.3,380.3,416.4,379.7,416.4,379.6z"/>
							</g>
						</g>
					</g>
				</g>
			</g>
			<g>
				<g>
					<g>
						<g>
							<path class="st43" d="M478,398.9c0,0.2-2.4,0-6.1-1.3c-1.8-0.6-4-1.6-6.2-2.9c-2.1-1.4-4.4-3-6.8-4.7
								c-1.8-1.3-3.5-2.5-5.1-3.6l0.3,0.1c-8.6-1.2-14.8-2.2-14.8-2.6c0-0.3,6.3,0.1,15,1.1l0.2,0l0.2,0.1c1.6,1.1,3.3,2.3,5.1,3.6
								c2.3,1.7,4.6,3.3,6.7,4.8c2.1,1.3,4.1,2.3,5.9,3.1C475.7,398.1,478,398.7,478,398.9z"/>
						</g>
					</g>
				</g>
			</g>
		</g>
		<g>
			<g>
				<g>
					<g>
						<path class="st42" d="M271.3,393.7c-7.7-2.3-4.2-10.8-18.3-15.5c-10.5-3.5-21.8-10-52.7-6.5l-7,42.7l29.8-7.9l8.6,19.2
							c1.8,3.9,6.4,5.7,10.3,3.8l15.1-7.2c0,0,4.3,20.8,5.5,21.6c3.6,2.3,7.4-1.3,6.8-4.1c-0.6-2.8-2.2-38.8-2.2-38.8
							s11.4,3.2,10.7-1.3C277.9,399.5,279,396,271.3,393.7z"/>
					</g>
				</g>
			</g>
			<g>
				<g>
					<g>
						<g>
							<g>
								<path class="st43" d="M239.2,431.3c-0.1-0.1,0.4-0.9,1-2.4c0.5-1.4,1-3.6,0.7-5.9c-0.2-2.3-1.1-4.4-1.9-5.7
									c-0.8-1.3-1.5-2-1.4-2.1c0.1-0.1,0.9,0.5,1.9,1.8c1,1.3,2,3.4,2.2,5.9c0.2,2.5-0.3,4.8-1,6.2
									C240,430.6,239.3,431.3,239.2,431.3z"/>
							</g>
						</g>
					</g>
				</g>
			</g>
			<g>
				<g>
					<g>
						<g>
							<g>
								<path class="st43" d="M248.7,426.1c-0.2-0.1,1-3.3,0.2-7.2c-0.7-4-3-6.5-2.8-6.7c0.1-0.1,0.7,0.5,1.5,1.6
									c0.8,1.1,1.7,2.9,2,4.9c0.4,2.1,0.2,4-0.1,5.3C249.2,425.4,248.7,426.1,248.7,426.1z"/>
							</g>
						</g>
					</g>
				</g>
			</g>
			<g>
				<g>
					<g>
						<g>
							<g>
								<path class="st43" d="M255.3,409.7c0.1-0.1,0.6,0.5,1.1,1.5c0.5,1,1,2.6,1,4.3c0.1,1.8-0.3,3.3-0.8,4.4
									c-0.4,1.1-0.9,1.6-1,1.6c-0.2-0.1,1-2.6,0.9-5.9C256.5,412.2,255.1,409.8,255.3,409.7z"/>
							</g>
						</g>
					</g>
				</g>
			</g>
		</g>
		<g>
			<g>
				<g>
					<path class="st44" d="M353.9,455.3l-153.6-3.8c-1.6,0-2.9-1.3-2.9-2.9l0,0c0-1.6,1.3-2.9,2.9-2.9l84.7-1.1l33.5-103.7
						c1.1-3.5,4.4-5.8,8.1-5.7l128.6,3.6c5.7,0.2,9.5,5.9,7.5,11.2L422.3,457L353.9,455.3"/>
				</g>
			</g>
			<g>
				<g>
					<path class="st24" d="M387.5,393.1c-1.5-2.8-7.9-3.7-10.9-1.4c-1.9,1.2-3.4,3-4,5.1c-0.9,3.4,1.1,7.5,4.4,8.5
						c3.3,1.1,6.9-0.7,9-3.4C388,399.5,389,395.9,387.5,393.1z"/>
				</g>
			</g>
		</g>
		<g>
			<g>
				<path class="st41" d="M263.2,79.3c1.6-2.2,5.3-0.2,6.4,2.3c1.2,2.5,1.7,5.7,4.2,6.9c3.3,1.6,8.3-1.3,10.3,1.8
					c1.6,2.3-0.7,5.4-0.1,8.2c1.2,4.8,9.5,3.7,11.9,8c1.4,2.6-0.1,5.8-1.2,8.5c-1.1,2.7-1.6,6.5,1,8.1c2.5,1.5,6.3-0.2,8.3,1.8
					c2.8,2.7-1.4,7.3-0.5,11.1c0.6,2.8,3.7,4.1,6.5,4.8c2.8,0.6,5.9,1,7.7,3.2c4.1,4.8-1.9,12.2-0.2,18.3c1,3.7,4.8,6.8,3.9,10.5
					c-1.1,4.7-8.8,5.4-9.9,10.1c-0.9,4,3.6,8.6,1.1,11.9c-2.5,3.2-7.9,0.2-11.4,2.2c-4,2.3-3.3,9.8-7.8,10.9c-2,0.5-4.1-0.7-6.1-0.4
					c-5,0.7-6.3,9.3-11.3,9c-2.9-0.2-5.2-3.7-8.1-3c-2.8,0.7-3.2,4.7-5.6,6.2c-3.8,2.4-8.1-2.6-12.6-2.8c-2.8-0.1-5.5,1.7-8.2,1.2
					c-2.6-0.5-4.4-3-5-5.6c-0.6-2.6-0.1-5.3,0.2-8c1.6-14.5-0.9-29.5-7.3-42.7"/>
			</g>
			<g>
				<g>
					<g>
						<g>
							<g>
								<g>
									<g>
										<g>
											<g>
												<g>
													<g>
														<g>
															<g>
																<g>
																	<g>
																		<g>
																			<path class="st42" d="M249,235.9l-0.4-22.9c0,0,22.8-3.4,28-32.9c2.6-14.7,2.3-38.9,1.4-58.6
																				c-1-21.8-24.7-44.8-42.4-43.2L182.9,97l0,9.6l1.6,130.3c0.2,17.6,14.6,31.8,32.2,31.8l0,0
																				C234.8,268.7,249.3,253.9,249,235.9z"/>
																		</g>
																	</g>
																</g>
															</g>
														</g>
													</g>
												</g>
											</g>
											<g>
												<g>
													<g>
														<g>
															<g>
																<g>
																	<g>
																		<g>
																			<g>
																				<path class="st41" d="M268.8,141.9c0,2-1.6,3.7-3.7,3.8c-2.1,0.1-3.8-1.5-3.9-3.5c0-2,1.6-3.7,3.7-3.8
																					C267.1,138.4,268.8,139.9,268.8,141.9z"/>
																			</g>
																		</g>
																	</g>
																</g>
															</g>
														</g>
													</g>
												</g>
												<g>
													<g>
														<g>
															<g>
																<g>
																	<g>
																		<g>
																			<g>
																				<g>
																					<path class="st41" d="M272.5,133.9c-0.5,0.5-3.3-1.7-7.4-1.8c-4.1-0.1-7.1,1.9-7.6,1.4c-0.2-0.2,0.3-1.1,1.6-2
																						c1.3-0.9,3.5-1.8,6.1-1.8c2.5,0.1,4.7,1,5.9,2C272.3,132.8,272.7,133.7,272.5,133.9z"/>
																				</g>
																			</g>
																		</g>
																	</g>
																</g>
															</g>
														</g>
													</g>
												</g>
											</g>
											<g>
												<g>
													<g>
														<g>
															<g>
																<g>
																	<g>
																		<g>
																			<g>
																				<path class="st41" d="M231.3,140.9c0,2-1.6,3.7-3.7,3.8c-2.1,0.1-3.8-1.5-3.9-3.5c0-2,1.6-3.7,3.7-3.8
																					C229.5,137.3,231.2,138.9,231.3,140.9z"/>
																			</g>
																		</g>
																	</g>
																</g>
															</g>
														</g>
													</g>
												</g>
												<g>
													<g>
														<g>
															<g>
																<g>
																	<g>
																		<g>
																			<g>
																				<g>
																					<path class="st41" d="M232.3,133.9c-0.5,0.5-3.3-1.7-7.4-1.8c-4.1-0.1-7.1,1.9-7.6,1.4c-0.2-0.2,0.3-1.1,1.6-2
																						c1.3-0.9,3.5-1.8,6.1-1.8c2.5,0.1,4.7,1,5.9,2C232.1,132.8,232.5,133.7,232.3,133.9z"/>
																				</g>
																			</g>
																		</g>
																	</g>
																</g>
															</g>
														</g>
													</g>
												</g>
											</g>
											<g>
												<g>
													<g>
														<g>
															<g>
																<g>
																	<g>
																		<g>
																			<g>
																				<path class="st41" d="M246.6,164.5c0-0.2,2.5-0.6,6.7-1.1c1-0.1,2-0.3,2.2-1c0.3-0.8-0.2-1.9-0.6-3.1
																					c-0.9-2.5-1.9-5.2-2.9-8c-4.1-11.4-7-20.8-6.6-20.9c0.5-0.2,4.1,8.9,8.2,20.3c1,2.8,1.9,5.5,2.8,8.1
																					c0.4,1.2,1,2.6,0.5,4.1c-0.3,0.8-1.1,1.3-1.7,1.5c-0.7,0.2-1.3,0.2-1.8,0.2
																					C249.2,164.8,246.6,164.8,246.6,164.5z"/>
																			</g>
																		</g>
																	</g>
																</g>
															</g>
														</g>
													</g>
												</g>
											</g>
											<g>
												<g>
													<g>
														<g>
															<g>
																<g>
																	<g>
																		<g>
																			<path class="st43" d="M248.6,213c0,0-20,0.9-39.5-11.3c0,0,9.9,20.7,39.6,18.5L248.6,213z"/>
																		</g>
																	</g>
																</g>
															</g>
														</g>
													</g>
												</g>
											</g>
											<g>
												<g>
													<g>
														<g>
															<g>
																<g>
																	<g>
																		<g>
																			<g>
																				<path class="st41" d="M237,178.5c0.6-0.4,2.8,3.5,7.6,4.4c4.9,0.9,8.7-1.9,9.1-1.4c0.2,0.2-0.5,1.3-2.2,2.3
																					c-1.7,1-4.5,1.9-7.4,1.3c-3-0.5-5.1-2.3-6.1-3.8C236.9,179.8,236.8,178.6,237,178.5z"/>
																			</g>
																		</g>
																	</g>
																</g>
															</g>
														</g>
													</g>
												</g>
											</g>
										</g>
									</g>
								</g>
								<g>
									<g>
										<g>
											<g>
												<g>
													<g>
														<g>
															<g>
																<path class="st41" d="M233.6,117.9c-0.4,1.1-4.5,0.5-9.3,1c-4.8,0.4-8.7,1.7-9.3,0.7c-0.3-0.5,0.4-1.5,2-2.6
																	c1.6-1,4.1-2,6.9-2.3c2.9-0.3,5.5,0.2,7.2,1C232.9,116.5,233.8,117.4,233.6,117.9z"/>
															</g>
														</g>
													</g>
												</g>
											</g>
										</g>
									</g>
								</g>
								<g>
									<g>
										<g>
											<g>
												<g>
													<g>
														<g>
															<g>
																<path class="st41" d="M271.2,122c-0.7,0.9-3.5-0.1-6.9-0.2c-3.4-0.2-6.3,0.5-6.9-0.5c-0.3-0.5,0.2-1.4,1.5-2.3
																	c1.3-0.9,3.3-1.5,5.7-1.4c2.3,0.1,4.3,1,5.5,2C271.2,120.6,271.5,121.6,271.2,122z"/>
															</g>
														</g>
													</g>
												</g>
											</g>
										</g>
									</g>
								</g>
							</g>
						</g>
					</g>
				</g>
				<g>
					<g>
						<g>
							<ellipse class="st41" cx="259.5" cy="83.8" rx="2.3" ry="0.6"/>
						</g>
					</g>
				</g>
			</g>
			<g>
				<path class="st41" d="M259.9,89.6c7.6-15.2-9.7-27.9-18-32c-8.3-4.1-18.7-4.4-26.6,0.3c-3.6,2.2-6.8,5.3-10.9,6.3
					c-9.5,2.4-19.6-7.3-28.4-3.1c-7.2,3.5-8.5,14.3-15.7,17.7c-3.5,1.6-7.6,1.1-11.4,1.5s-8.2,2.5-8.7,6.3
					c-0.6,4.3,3.9,8.8,1.7,12.4c-2.8,4.5-11,0.3-14.6,4.2c-3.3,3.6,0.6,11-3.5,13.8c-3,2.1-8-0.4-10.2,2.5c-2.3,3.1,2,6.9,2.5,10.8
					c0.5,4-3.3,7-6.4,9.4c-3.2,2.4-6.5,6.2-5,9.9c1.8,4.2,8.7,4.6,9.9,9c1.2,4.6-4.9,9.6-2.1,13.4c1.8,2.6,6.1,1.8,8.4,3.9
					c3.9,3.5-0.8,10.2,1.1,15.1c2.6,6.7,14.2,3.8,18.6,9.5c2.5,3.2,2.1,8.4,5.6,10.4c3.6,2,8-1.2,12.1-0.7c6.7,0.8,10.8,10.9,17.2,9
					c3.3-1,5.7-5.2,9.1-4.3c2.9,0.7,4,4.8,7,5.3c4,0.6,5.1-5.2,7.5-8.4c3.2-4.3,10.1-4.6,13-9c2.6-4,0.7-9.4-1.6-13.6
					c-2.3-4.2-5.1-8.8-4-13.5c1.3-5.3,7.4-10,5.3-15c-2.4-5.5-12.7-4.9-13.4-10.9c-0.7-5.6,8.8-8.8,7.7-14.4
					c-0.7-3.7-5.9-5.2-6.8-8.9c-1.1-4.3,4.1-7.9,4-12.4c0-2.8-2.2-5.1-3.7-7.5c-1.5-2.4-2.4-5.9-0.2-7.8c3.4-2.9,8.6,2.4,12.9,1.1
					c3-0.9,4.1-4.5,5.2-7.5c0,0,8-12.1,22.3-10.4C253.8,83.9,259.9,89.6,259.9,89.6z"/>
			</g>
			<g>
				<path class="st41" d="M260.1,84.1c2.9,2.9,1.5,8.6-2.3,10c-3.6,1.2-7.3-1-10.5-3.1c-3.2-2.1-7-4.2-10.5-2.7
					c-6.4,2.7-4.6,14.3-11,16.8c-2.6,1-5.6,0-8.4-0.6c-2.8-0.6-6.2-0.5-7.8,1.9c-2.1,3.2,0.7,8.3-2.1,10.9c-1.2,1.1-3,1.3-4,2.5
					c-1.7,1.9-0.4,5,1.5,6.8c1.9,1.8,4.3,3.1,5.2,5.5c1.5,3.8-1.7,7.8-5,10.2c-3.3,2.5-7.2,4.9-7.9,9c-1.1,6.5,6.9,12.7,4.2,18.7
					c-1.5,3.4-6.1,4.5-9.6,3.2c-3.5-1.3-6-4.4-7.8-7.6c-7.3-13.3-5.3-29.6-2.8-44.7c1.6-9.8,3.5-20,9.3-28.2
					c6-8.5,15.5-13.8,25.2-17.2c7.5-2.6,15.4-4.3,23.3-3.3c7.8,1,15.6,4.9,19.8,11.6"/>
			</g>
			<g>
				<g>
					<path class="st44" d="M175,218.5c0,0-0.1,0.1-0.5,0.3c-0.4,0.2-1,0.2-1.8-0.2c-0.7-0.4-1.4-1.1-1.8-2.2
						c-0.2-0.5-0.3-1.2-0.2-1.9c0.1-0.7,0.4-1.3,0.9-2c0.9-1.2,2.3-2.2,3.8-3.1c1.5-0.9,3.2-1.8,4.5-3.4c0.6-0.8,1.1-1.7,1.1-2.8
						c0-1-0.4-2-1.1-2.9c-0.7-0.9-1.6-1.7-2.6-2.5c-0.9-0.8-1.9-1.8-2.5-3.1c-0.6-1.3-0.5-3,0.4-4.2c0.8-1.2,2.1-2,3.4-2.8
						c1.2-0.7,2.6-1.4,3.7-2.2c1.2-0.8,2.2-1.9,2.5-3.2c0.3-1.4-0.3-2.8-1.4-3.8c-1-1.1-2.3-2.1-3.6-3.1c-1.3-1.1-2.6-2.2-3.4-3.9
						c-0.8-1.7-0.6-3.8,0.3-5.4c0.9-1.6,2.2-2.9,3.5-4.1c1.4-1.2,2.9-2.1,4.2-3.3c1.3-1.2,2.6-2.5,3.1-4.1c0.6-1.6,0.3-3.4-0.7-4.9
						c-0.9-1.5-2.2-2.9-3.5-4.3c-1.3-1.4-2.6-3-3.1-5.1c-0.2-1.1-0.1-2.2,0.2-3.2c0.4-1,1-1.9,1.8-2.6c1.5-1.4,3.4-2.3,5-3.3
						c1.7-1,3.3-2.1,4.1-3.7c0.8-1.6,0.5-3.5-0.5-5.1c-0.9-1.6-2.2-3-3.5-4.5c-1.2-1.5-2.3-3.2-2.7-5.2c-0.2-1-0.1-2.1,0.2-3.1
						c0.4-1,1.1-1.8,2-2.3c1.8-1.1,3.7-1.2,5.5-1.3c1.8-0.1,3.6-0.1,5.2-0.6c1.6-0.4,2.9-1.6,3.3-3.1c0.5-1.5,0.5-3.3,0.9-5
						c0.4-1.8,1.7-3.3,3.2-4.1c3.1-1.7,6.6-1.2,9.6-1.1c1.5,0,3,0,4.4-0.4c1.4-0.4,2.6-1.1,3.7-2c2.2-1.7,3.9-3.9,5.7-5.8
						c1.8-1.9,3.8-3.6,6-4.5c2.2-0.9,4.6-1.2,6.7-1c4.3,0.4,7.5,2.8,9.2,5.1c1.8,2.4,2.4,4.7,2.6,6.2c0.2,1.5,0.1,2.4,0.1,2.4
						c-0.1,0,0-0.8-0.3-2.3c-0.3-1.5-1-3.7-2.8-6c-1.7-2.2-4.8-4.5-8.9-4.8c-2-0.2-4.2,0.1-6.3,1c-2.1,0.9-4,2.5-5.7,4.4
						c-1.8,1.9-3.4,4.1-5.7,5.9c-1.1,0.9-2.5,1.7-4,2.1c-1.5,0.4-3.1,0.5-4.6,0.5c-3.1-0.1-6.3-0.4-9.1,1.1c-1.4,0.7-2.4,2-2.7,3.5
						c-0.4,1.5-0.3,3.3-0.9,5.1c-0.5,1.8-2.2,3.3-4,3.8c-1.8,0.6-3.6,0.6-5.4,0.7c-1.8,0.1-3.6,0.3-5,1.2c-0.7,0.5-1.3,1.1-1.5,1.9
						c-0.3,0.8-0.3,1.6-0.2,2.5c0.4,1.7,1.3,3.3,2.5,4.8c1.2,1.4,2.6,2.9,3.6,4.7c0.5,0.9,0.9,1.9,1,2.9c0.1,1.1-0.1,2.2-0.5,3.2
						c-1,2-2.8,3.2-4.5,4.2c-1.7,1-3.5,1.9-4.9,3.2c-0.7,0.6-1.2,1.4-1.5,2.2c-0.3,0.8-0.3,1.7-0.2,2.6c0.4,1.7,1.6,3.2,2.9,4.6
						c1.3,1.4,2.6,2.8,3.6,4.5c1,1.7,1.4,3.9,0.7,5.8c-0.7,1.9-2.1,3.3-3.4,4.5c-1.4,1.2-2.9,2.2-4.3,3.3c-1.3,1.1-2.5,2.3-3.3,3.8
						c-0.8,1.4-0.9,3.1-0.3,4.5c0.6,1.4,1.8,2.5,3.1,3.6c1.2,1,2.6,2,3.7,3.2c1.1,1.2,2,3,1.6,4.6c-0.3,1.7-1.6,2.9-2.9,3.8
						c-1.3,0.9-2.6,1.5-3.8,2.2c-1.2,0.7-2.4,1.4-3.1,2.5c-0.7,1-0.8,2.3-0.3,3.4c1,2.2,3.4,3.5,4.9,5.4c0.8,1,1.3,2.2,1.3,3.4
						c0,1.2-0.6,2.3-1.3,3.1c-1.4,1.7-3.2,2.6-4.7,3.5c-1.5,0.9-2.9,1.8-3.7,2.9c-0.9,1.1-1.1,2.4-0.7,3.5c0.3,1,1,1.8,1.6,2.1
						c0.6,0.4,1.3,0.4,1.6,0.3C174.8,218.6,174.9,218.5,175,218.5z"/>
				</g>
			</g>
			<g>
				<g>
					<path class="st44" d="M124.9,192.6c0,0,0.2,0,0.6-0.2c0.4-0.1,0.9-0.6,1.1-1.5c0.2-0.8,0.2-1.9-0.3-3.1
						c-0.5-1.1-1.6-2.2-2.6-3.5c-0.5-0.7-0.9-1.5-1.1-2.5c-0.1-1,0.2-2.1,0.9-2.9c1.3-1.7,3.5-2.6,4.8-4.4c0.6-0.9,0.9-2.1,0.6-3.2
						c-0.3-1.1-1.1-2.2-1.9-3.2c-0.8-1-1.8-2.1-2.6-3.3c-0.8-1.2-1.5-2.6-1.4-4.3c0.1-1.6,1.2-3.1,2.5-4c1.4-0.9,3-1.4,4.6-1.8
						c1.6-0.3,3.3-0.4,4.9-0.8c1.6-0.4,3.2-1,4.3-2.2c1.1-1.2,1.5-2.9,1.3-4.6c-0.2-1.7-0.8-3.5-1.3-5.2c-0.5-1.8-1.1-3.7-1-5.7
						c0-1,0.5-2,1-2.9c0.6-0.9,1.4-1.6,2.4-2.1c3.8-1.9,8.2-1,11.5-3.3c0.8-0.5,1.4-1.2,1.8-2.1c0.3-0.9,0.4-1.8,0.2-2.8
						c-0.5-1.9-1.6-3.7-2.5-5.7c-0.4-1-0.9-2.1-0.9-3.3c-0.1-1.2,0.4-2.5,1.2-3.4c1.8-1.8,4.2-2,6.3-2.5c2.1-0.4,4.4-1.1,4.9-3.1
						c0.5-1.9-0.8-4.1-0.7-6.6c0.1-4.8,3.5-9.2,7.9-10.7c4.6-1.5,9.1,0.6,13-0.4c2-0.4,3.8-1.6,4.5-3.4c0.7-1.8,0.3-3.9,0.4-6.1
						c0.1-1.1,0.3-2.2,0.9-3.2c0.6-1,1.6-1.7,2.6-2c2.1-0.8,4.2-0.6,6.2-0.1c1.9,0.5,3.7,1.3,5.6,1.6c1.8,0.4,3.6,0.2,5.3-0.5
						c3.3-1.5,5.6-4.4,8.4-6.6c5.7-4.5,12.9-5.5,18.7-4.3c6,1.1,10.7,4.6,13.6,8.4c2.9,3.8,4.3,7.8,4.9,11.1
						c0.6,3.3,0.5,5.9,0.3,7.7c-0.2,1.7-0.5,2.6-0.5,2.6c-0.1,0,0.1-0.9,0.3-2.7c0.1-1.7,0.2-4.3-0.5-7.6c-0.7-3.2-2.1-7.1-5-10.8
						c-2.9-3.7-7.4-7-13.2-8c-5.7-1.1-12.7-0.2-18,4.2c-2.7,2.1-5,5.1-8.6,6.8c-1.8,0.8-3.9,1-5.8,0.6c-2-0.4-3.8-1.1-5.6-1.6
						c-1.8-0.5-3.8-0.6-5.6,0.1c-0.9,0.3-1.6,0.9-2.1,1.6c-0.5,0.8-0.7,1.7-0.8,2.7c-0.2,2,0.3,4.1-0.5,6.3
						c-0.8,2.3-3.1,3.6-5.2,4.1c-4.5,1-8.9-1-12.9,0.3c-4,1.3-7.1,5.4-7.2,9.7c-0.1,1.1,0.2,2.1,0.4,3.2c0.2,1.1,0.5,2.3,0.2,3.6
						c-0.3,1.3-1.3,2.3-2.4,2.8c-1.1,0.5-2.2,0.8-3.3,1c-2.1,0.5-4.4,0.8-5.8,2.2c-0.7,0.7-1,1.6-1,2.6c0,1,0.4,1.9,0.8,2.9
						c0.9,1.9,2.1,3.7,2.6,5.9c0.3,1.1,0.2,2.3-0.2,3.4c-0.4,1.1-1.3,2-2.2,2.6c-1.9,1.2-4,1.6-6,1.9c-2,0.3-4,0.5-5.6,1.4
						c-1.7,0.8-2.8,2.4-2.9,4.2c-0.2,1.8,0.4,3.6,0.9,5.4c0.5,1.8,1.1,3.5,1.4,5.4c0.2,1.9-0.2,3.9-1.5,5.3c-1.3,1.4-3.1,2-4.8,2.4
						c-1.7,0.4-3.4,0.5-4.9,0.8c-1.6,0.3-3.1,0.8-4.3,1.6c-1.2,0.8-2.1,2-2.2,3.4c-0.1,1.4,0.5,2.7,1.3,3.8c0.8,1.1,1.7,2.2,2.5,3.2
						c0.8,1.1,1.6,2.2,2,3.5c0.4,1.3,0,2.7-0.7,3.7c-1.5,2-3.7,2.9-4.9,4.4c-0.6,0.7-0.9,1.6-0.8,2.5c0.1,0.9,0.5,1.6,0.9,2.3
						c0.9,1.4,2,2.4,2.5,3.6c0.5,1.2,0.5,2.4,0.2,3.3c-0.3,0.9-0.9,1.4-1.3,1.5C125.1,192.6,124.9,192.6,124.9,192.6z"/>
				</g>
			</g>
			<g>
				<g>
					<path class="st44" d="M299,194.1c0-0.1,0.3,0.4,1.3,0.5c0.9,0.1,2.3-0.5,3.1-2c0.9-1.5,0.4-3.7,0.1-6.2
						c-0.1-1.3,0.1-2.7,0.5-4.1c0.4-1.4,1.1-2.8,1.4-4.3c0.3-1.5,0-3.1-1.2-4.2c-1.2-1.1-2.9-1.6-4.7-2.1c-1.7-0.6-3.8-0.9-5.4-2.6
						c-0.7-0.9-1.1-2.1-0.9-3.2c0.2-1.2,0.9-2.1,1.6-2.9c1.4-1.6,3.3-2.9,4-4.7c0.8-1.9-0.6-3.8-2.6-4.8c-1.9-1.1-4.2-1.3-6.5-2.3
						c-1.1-0.5-2.2-1.3-3-2.4c-0.7-1.1-1.1-2.4-1.1-3.7c0-2.6,1-4.9,2-7.1c1-2.1,2.1-4.2,2.3-6.3c0.3-2.2-0.5-4.2-2-5.7
						c-1.4-1.5-3.3-2.7-4.8-4.2c-1.6-1.4-2.8-3.4-3.3-5.4c-0.5-2-0.5-4-0.5-5.9c0.1-3.7,0.3-7.2-0.7-10.1c-1-2.9-2.8-5.2-4.6-6.9
						c-1.8-1.7-3.8-2.7-5.4-3.3c-3.3-1.2-5.3-0.9-5.3-1.1c0,0,0.5-0.1,1.4-0.1c0.9,0.1,2.3,0.2,4,0.8c1.7,0.6,3.7,1.5,5.6,3.2
						c1.9,1.7,3.8,4,4.9,7.1c1.2,3.1,0.9,6.7,0.9,10.4c0,1.8,0,3.8,0.5,5.6c0.5,1.9,1.5,3.5,3,4.9c1.5,1.4,3.3,2.6,4.9,4.2
						c1.6,1.6,2.7,4.1,2.3,6.5c-0.6,4.8-4.4,8.6-4.3,13.3c0,1.1,0.3,2.2,0.9,3.1c0.6,0.9,1.5,1.5,2.5,2c2,0.9,4.4,1.1,6.6,2.3
						c1,0.6,2,1.4,2.7,2.4c0.7,1.1,0.8,2.5,0.3,3.6c-0.9,2.3-2.9,3.5-4.2,5.1c-0.7,0.7-1.2,1.5-1.4,2.4c-0.2,0.9,0.1,1.8,0.6,2.4
						c1.2,1.3,3.2,1.8,4.9,2.4c1.8,0.6,3.6,1.1,5,2.4c0.7,0.6,1.2,1.5,1.4,2.3c0.2,0.9,0.2,1.8,0,2.6c-0.3,1.6-1,3-1.5,4.3
						c-0.5,1.3-0.7,2.6-0.6,3.8c0.2,2.4,0.7,4.8-0.4,6.5c-1,1.6-2.5,2.2-3.5,2C299.3,194.7,299,194,299,194.1z"/>
				</g>
			</g>
		</g>
		<g class="st40">
			<polygon points="154.3,313.5 154.3,369.4 139.8,370.5 134.5,350.5 			"/>
		</g>
	</g>
</g>
</svg>
