<?xml version="1.0" encoding="utf-8"?>
<!-- Generator: Adobe Illustrator 21.0.0, SVG Export Plug-In . SVG Version: 6.00 Build 0)  -->
<svg version="1.1" id="Layer_1" xmlns="http://www.w3.org/2000/svg" xmlns:xlink="http://www.w3.org/1999/xlink" x="0px" y="0px"
	 viewBox="0 0 64 64" style="enable-background:new 0 0 64 64;" xml:space="preserve">
<style type="text/css">
	.st0{fill:#EDEDED;}
	.st1{fill:#685989;}
	.st2{fill:#864D7D;}
	.st3{fill:#BEDBC3;}
	.st4{fill:#9CC1C8;}
	.st5{opacity:0.5;fill:#9CC1C8;}
	.st6{fill:#D3DEE4;}
	.st7{fill:#007271;}
	.st8{fill:#369999;}
	.st9{fill:#4D2B2B;}
	.st10{fill:#3A1F1E;}
	.st11{fill:#E95B4E;}
	.st12{fill:#EE8268;}
	.st13{fill:#C83D36;}
	.st14{fill:#F6B99F;}
	.st15{fill:#EEE9DC;}
	.st16{fill:#F19775;}
	.st17{fill:#6B3E3F;}
	.st18{fill:#C7BDB7;}
	.st19{fill:#D1D5CA;}
	.st20{fill:#2B3668;}
	.st21{fill:#EE827D;}
	.st22{fill:#F87481;}
	.st23{fill:#FFFFFF;stroke:#FFFFFF;stroke-miterlimit:10;}
	.st24{fill:#FFFFFF;}
	.st25{opacity:0.3;clip-path:url(#SVGID_2_);}
	.st26{opacity:0.3;clip-path:url(#SVGID_4_);}
	.st27{opacity:0.3;clip-path:url(#SVGID_6_);}
	.st28{fill:#7087AF;}
	.st29{clip-path:url(#SVGID_8_);}
	.st30{fill:#B2555F;}
	.st31{fill:#47284F;}
	.st32{fill:#FFBF9B;}
	.st33{fill:#FFA687;}
	.st34{fill:#72426B;}
	.st35{fill:#FFC9AC;}
	.st36{fill:#C19884;}
	.st37{fill:#FFA68D;}
	.st38{fill:#13A6CE;}
	.st39{fill:#4E2447;}
	.st40{opacity:0.3;}
	.st41{fill:#1A2E35;}
	.st42{fill:#FFBF9D;}
	.st43{fill:#FF9A6C;}
	.st44{fill:#375A64;}
	.st45{fill:#E1E1E1;}
	.st46{opacity:0.2;}
	.st47{fill:#FF4F5B;}
	.st48{fill:#EBEBEB;}
	.st49{fill:#AA6550;}
	.st50{fill:#FAFAFA;}
</style>
<g>
	<g>
		<path class="st4" d="M32,64C14.4,64,0,49.6,0,32S14.4,0,32,0s32,14.4,32,32S49.6,64,32,64z M32,3C16,3,3,16,3,32s13,29,29,29
			s29-13,29-29S48,3,32,3z"/>
	</g>
	<g>
		<g>
			<path class="st22" d="M39,23.5L39,23.5c0.9,0,1.6,0.7,1.6,1.6c0,0.9-0.8,1.6-1.6,1.6c-0.9,0-1.6-0.8-1.6-1.6
				C37.3,24.2,38,23.5,39,23.5z"/>
			<path class="st22" d="M45.3,25.3c0.2,2.1,0.3,12.1-0.3,14.5c-0.8,3-2.8,4.9-5.9,5.4c-1.1,0.2-4.3,0.3-7.4,0.3
				c-3.2,0-6.4-0.1-7.5-0.4c-3-0.8-4.9-2.8-5.4-5.9c-0.4-2.3-0.4-12.8,0.3-15.1c0.9-3,2.8-4.7,5.9-5.2c1.4-0.3,4.1-0.3,6.7-0.3
				c2.5,0,5.1,0.1,6.6,0.2c1.8,0.1,3.5,0.7,4.9,2C44.5,22,45.2,23.5,45.3,25.3z M42.8,38.8c0.4-2.4,0.4-11,0.2-13.2
				c-0.2-2.4-1.7-3.9-4-4.3c-1.2-0.2-4-0.3-6.7-0.3c-2.7,0-5.3,0.1-6.5,0.2c-2.3,0.2-3.9,1.7-4.3,4C21,27.7,21,37,21.2,38.8
				c0.3,2,1.4,3.3,3.3,3.8c1,0.3,4.2,0.4,7.2,0.4c2.8,0,5.6-0.1,6.6-0.2C40.8,42.6,42.4,41.1,42.8,38.8"/>
			<path class="st22" d="M32.1,25.1c3.8,0,6.8,3.1,6.8,6.9c-0.1,3.8-3.2,6.9-7,6.9s-6.8-3.1-6.8-6.9C25.2,28.2,28.3,25.1,32.1,25.1z
				 M32,36.5c2.4,0,4.5-2,4.5-4.4c0.1-2.5-1.9-4.5-4.4-4.5c0,0,0,0-0.1,0c-2.4,0-4.5,2-4.5,4.4C27.6,34.4,29.5,36.4,32,36.5
				C32,36.5,32,36.5,32,36.5"/>
		</g>
	</g>
</g>
</svg>
