<?xml version="1.0" encoding="utf-8"?>
<!-- Generator: Adobe Illustrator 21.0.0, SVG Export Plug-In . SVG Version: 6.00 Build 0)  -->
<svg version="1.1" id="Layer_1" xmlns="http://www.w3.org/2000/svg" xmlns:xlink="http://www.w3.org/1999/xlink" x="0px" y="0px"
	 viewBox="0 0 988.5 720.1" style="enable-background:new 0 0 988.5 720.1;" xml:space="preserve">
<style type="text/css">
	.st0{fill:#EDEDED;}
	.st1{fill:#685989;}
	.st2{fill:#864D7D;}
	.st3{fill:#BEDBC3;}
	.st4{fill:#9CC1C8;}
	.st5{opacity:0.5;fill:#9CC1C8;}
	.st6{fill:#D3DEE4;}
	.st7{fill:#007271;}
	.st8{fill:#369999;}
	.st9{fill:#4D2B2B;}
	.st10{fill:#3A1F1E;}
	.st11{fill:#E95B4E;}
	.st12{fill:#EE8268;}
	.st13{fill:#C83D36;}
	.st14{fill:#F6B99F;}
	.st15{fill:#EEE9DC;}
	.st16{fill:#F19775;}
	.st17{fill:#6B3E3F;}
	.st18{fill:#C7BDB7;}
	.st19{fill:#D1D5CA;}
	.st20{fill:#2B3668;}
	.st21{fill:#EE827D;}
	.st22{fill:#F87481;}
	.st23{fill:#FFFFFF;stroke:#FFFFFF;stroke-miterlimit:10;}
	.st24{fill:#FFFFFF;}
	.st25{opacity:0.3;clip-path:url(#SVGID_2_);}
	.st26{opacity:0.3;clip-path:url(#SVGID_4_);}
	.st27{opacity:0.3;clip-path:url(#SVGID_6_);}
	.st28{fill:#7087AF;}
	.st29{clip-path:url(#SVGID_8_);}
	.st30{fill:#B2555F;}
	.st31{fill:#47284F;}
	.st32{fill:#FFBF9B;}
	.st33{fill:#FFA687;}
	.st34{fill:#72426B;}
	.st35{fill:#FFC9AC;}
	.st36{fill:#C19884;}
	.st37{fill:#FFA68D;}
	.st38{fill:#13A6CE;}
	.st39{fill:#4E2447;}
	.st40{opacity:0.3;}
	.st41{fill:#1A2E35;}
	.st42{fill:#FFBF9D;}
	.st43{fill:#FF9A6C;}
	.st44{fill:#375A64;}
	.st45{fill:#E1E1E1;}
	.st46{opacity:0.2;}
	.st47{fill:#FF4F5B;}
	.st48{fill:#EBEBEB;}
	.st49{fill:#AA6550;}
	.st50{fill:#FAFAFA;}
</style>
<g>
	<g>
		<g>
			<path class="st0" d="M762.8,236.2c0,0-23.4,77.1-92.1,53.6C670.7,289.8,685.9,229.6,762.8,236.2z"/>
		</g>
		<g>
			<path class="st0" d="M836.3,436.2c0,0-23.4,77.1-92.1,53.6C744.2,489.8,759.4,429.6,836.3,436.2z"/>
		</g>
		<g>
			<path class="st0" d="M590.2,466.6c0,0,58,56,5.7,106.4C595.9,573,549.3,532.1,590.2,466.6z"/>
		</g>
		<g>
			<path class="st0" d="M635.3,598.7c0,0-30.2,74.7-96.5,45.2C538.8,643.9,559.2,585.3,635.3,598.7z"/>
		</g>
		<g>
			<path class="st0" d="M555.1,197.9c0,0,18.7,78.4-52.5,92.8C502.6,290.7,485.3,231,555.1,197.9z"/>
		</g>
		<g>
			<path class="st0" d="M558,363.1c0,0-9.1,80.1-80.9,69.3C477.1,432.4,481.1,370.5,558,363.1z"/>
		</g>
		<g>
			<path class="st0" d="M658.8,120.4c0,0-27.2,62.8-82.8,36.3C576,156.7,594.6,107.4,658.8,120.4z"/>
		</g>
		<g>
			<path class="st0" d="M564.4,174.6c0,0-68.2,5.2-70.8-56.3C493.6,118.2,545.9,111.7,564.4,174.6z"/>
		</g>
		<g>
			<path class="st0" d="M592.9,25.1c0,0-19.6,78.2-89.4,58.1C503.5,83.1,515.7,22.3,592.9,25.1z"/>
		</g>
		<g>
			<path class="st0" d="M828.1,102.2c0,0-64.2,48.7-106-10.7C722.1,91.6,769.7,51.7,828.1,102.2z"/>
		</g>
		<g>
			<path class="st0" d="M729.5,561.8c0,0-79.8-11.6-66.8-83.1C662.7,478.8,724.5,484.8,729.5,561.8z"/>
		</g>
		<g>
			<path class="st0" d="M821.6,502.6c0,0,9.5,80-62.9,86.1C758.8,588.7,748.5,527.4,821.6,502.6z"/>
		</g>
		<g>
			<path class="st0" d="M963.7,321.2c0,0-73.6-32.8-41.8-98C921.9,223.1,979.7,245.6,963.7,321.2z"/>
		</g>
		<g>
			<path class="st0" d="M806.2,244.3c0,0-66.6-45.3-23.7-103.9C782.5,140.4,835.4,172.8,806.2,244.3z"/>
		</g>
		<g>
			<path class="st0" d="M37.3,491.6c0,0-13.9-79.4,58-89.4C95.3,402.2,108.9,462.8,37.3,491.6z"/>
		</g>
		<g>
			<path class="st0" d="M142.4,582.9c0,0-58.4-33.4-26.5-85C115.9,497.9,162.1,521.5,142.4,582.9z"/>
		</g>
		<g>
			<path class="st0" d="M228.1,560c0,0-65.6,15.1-77.1-44.4C151,515.6,200.8,501.6,228.1,560z"/>
		</g>
		<g>
			<path class="st0" d="M822,474.1c0,0,45.2-66.7,103.9-24C925.9,450.1,893.6,503.1,822,474.1z"/>
		</g>
		<g>
			<path class="st0" d="M931.7,374.3c0,0-71.3-37.6-35.2-100.6C896.5,273.7,952.7,300,931.7,374.3z"/>
		</g>
		<g>
			<path class="st0" d="M326.7,156.2c0,0-39.7-70.2,24.8-103.7C351.4,52.6,384.5,105.1,326.7,156.2z"/>
		</g>
		<g>
			<path class="st0" d="M375.8,373.3c0,0,19.2-78.3,89.1-58.6C464.8,314.7,453,375.6,375.8,373.3z"/>
		</g>
		<g>
			<path class="st0" d="M250,535.8c0,0,4.5-80.5,76.8-73.9C326.8,461.9,326.3,523.9,250,535.8z"/>
		</g>
		<g>
			<path class="st0" d="M338.7,383.3c0,0-53.5-60.3,2.5-106.6C341.2,276.7,384.6,321.2,338.7,383.3z"/>
		</g>
		<g>
			<path class="st0" d="M182.4,236.5c0,0,79.3,14.4,63.9,85.3C246.3,321.8,184.7,313.7,182.4,236.5z"/>
		</g>
		<g>
			<path class="st0" d="M282.9,280.7c0,0-41-69.4,22.7-104.1C305.7,176.5,339.8,228.4,282.9,280.7z"/>
		</g>
		<g>
			<path class="st0" d="M147,289.7c0,0-36.2,72-99.9,37.2C47.1,326.9,72.3,270.1,147,289.7z"/>
		</g>
		<g>
			<path class="st0" d="M179.3,363.3c0,0-28.2,35.2-59,8.6C120.3,372,140.7,343.9,179.3,363.3z"/>
		</g>
		<g>
			<path class="st0" d="M73.8,352c0,0-11,43.7-50,32.5C23.8,384.5,30.7,350.5,73.8,352z"/>
		</g>
		<g>
			<path class="st0" d="M95.1,479.4c0,0,11.5,43.6-28.2,52.6C66.9,532,56.5,498.9,95.1,479.4z"/>
		</g>
		<g>
			<path class="st0" d="M212.7,340.2c0,0-36.5,26.5-59.2-7.2C153.5,333,180.6,311.3,212.7,340.2z"/>
		</g>
		<g>
			<path class="st0" d="M154.9,216.8c0,0-14-42.8,25-54.1C179.9,162.6,192.3,195.1,154.9,216.8z"/>
		</g>
		<g>
			<path class="st0" d="M201,209.3c0,0-14-42.8,25-54.1C225.9,155.1,238.3,187.6,201,209.3z"/>
		</g>
		<g>
			<path class="st0" d="M208.8,439.2c0,0-37.8-24.6-14.5-57.8C194.3,381.4,224.3,398.9,208.8,439.2z"/>
		</g>
		<g>
			<path class="st0" d="M242.8,419.5c0,0-37.8-24.6-14.5-57.8C228.3,361.6,258.3,379.1,242.8,419.5z"/>
		</g>
		<g>
			<path class="st0" d="M221.9,511.2c0,0-44-9.9-33.7-49.2C188.2,462,222.4,468,221.9,511.2z"/>
		</g>
		<g>
			<path class="st0" d="M490.5,549.1c0,0-42.3,15.6-55-23C435.5,526.1,467.5,512.5,490.5,549.1z"/>
		</g>
		<g>
			<path class="st0" d="M610.2,412.1c0,0-7,44.5-46.9,36.9C563.4,448.9,567.1,414.4,610.2,412.1z"/>
		</g>
		<g>
			<path class="st0" d="M513.7,499.9c0,0-35.6-27.6-9.7-58.8C504.1,441,532.5,461,513.7,499.9z"/>
		</g>
		<g>
			<path class="st0" d="M488,189.6c0,0-42.3,15.6-55-23C433,166.6,465,153.1,488,189.6z"/>
		</g>
		<g>
			<path class="st0" d="M506.1,157.5c0,0-42.3,15.6-55-23C451.1,134.5,483,121,506.1,157.5z"/>
		</g>
		<g>
			<path class="st0" d="M423.7,30.3c0,0-24.3,38-57.7,14.9C365.9,45.2,383.2,15.1,423.7,30.3z"/>
		</g>
		<g>
			<path class="st0" d="M448.8,88.5c0,0-22.3,39.2-56.9,17.9C392,106.4,407.7,75.5,448.8,88.5z"/>
		</g>
		<g>
			<path class="st0" d="M473.5,45.2c0,0-22.3,39.2-56.9,17.9C416.6,63.1,432.3,32.1,473.5,45.2z"/>
		</g>
		<g>
			<path class="st0" d="M414.1,128.4c0,0-22.3,39.2-56.9,17.9C357.2,146.3,372.9,115.3,414.1,128.4z"/>
		</g>
		<g>
			<path class="st0" d="M395.2,171.7c0,0-22.3,39.2-56.9,17.9C338.3,189.6,354,158.6,395.2,171.7z"/>
		</g>
		<g>
			<path class="st0" d="M241.4,206.9c0,0-2.6-45,38-45.9C279.5,161,283.1,195.6,241.4,206.9z"/>
		</g>
		<g>
			<path class="st0" d="M414.9,258.3c0,0-32.9-30.8-4.1-59.5C410.8,198.9,437.2,221.4,414.9,258.3z"/>
		</g>
		<g>
			<path class="st0" d="M483.4,298.5c0,0-44.2-9.1-34.6-48.5C448.8,250,483.1,255.3,483.4,298.5z"/>
		</g>
		<g>
			<path class="st0" d="M501.9,371.9c0,0-36.2-26.8-10.9-58.6C490.9,313.3,519.8,332.6,501.9,371.9z"/>
		</g>
		<g>
			<path class="st0" d="M615.2,375.9c0,0-22.3,39.2-56.9,17.9C558.4,393.8,574.1,362.8,615.2,375.9z"/>
		</g>
		<g>
			<path class="st0" d="M690,127.8c0,0,43.2-12.8,53.4,26.5C743.4,154.3,710.6,165.7,690,127.8z"/>
		</g>
		<g>
			<path class="st0" d="M606.9,44.9c0,0,40.3-20.3,57.3,16.6C664.1,61.5,633.9,78.6,606.9,44.9z"/>
		</g>
		<g>
			<path class="st0" d="M846.6,168.1c0,0-35.7-27.6-9.7-58.8C836.9,109.2,865.4,129.1,846.6,168.1z"/>
		</g>
		<g>
			<path class="st0" d="M830.2,234.6c0,0,9.6-44,49-34C879.2,200.6,873.4,234.8,830.2,234.6z"/>
		</g>
		<g>
			<path class="st0" d="M648.3,318.3c0,0-43.5,12-52.9-27.5C595.4,290.8,628.4,279.9,648.3,318.3z"/>
		</g>
		<g>
			<path class="st0" d="M875.6,353.6c0,0-44.1-9.5-34.1-48.9C841.5,304.7,875.8,310.4,875.6,353.6z"/>
		</g>
		<g>
			<path class="st0" d="M306.2,602.7c0,0-30.4-33.3,0.6-59.6C306.8,543.1,331.4,567.6,306.2,602.7z"/>
		</g>
		<g>
			<path class="st0" d="M358.7,633.7c0,0-38.4-23.5-16-57.4C342.7,576.3,373.1,593,358.7,633.7z"/>
		</g>
		<g>
			<path class="st0" d="M369.2,524c0,0,2.4-45,42.9-41.4C412.1,482.6,411.9,517.3,369.2,524z"/>
		</g>
		<g>
			<path class="st0" d="M377.4,482.2c0,0,2.4-45,42.9-41.4C420.3,440.8,420.1,475.5,377.4,482.2z"/>
		</g>
		<g>
			<path class="st0" d="M413,639c0,0-38.4-23.5-16-57.4C397,581.5,427.4,598.2,413,639z"/>
		</g>
		<g>
			<path class="st0" d="M689.5,446.8c0,0-45,2-45.4-38.6C644.1,408.2,678.7,405,689.5,446.8z"/>
		</g>
		<g>
			<path class="st0" d="M841.5,548.6c0,0-6.7-44.6,33.6-49.2C875.1,499.4,881.9,533.4,841.5,548.6z"/>
		</g>
		<g>
			<path class="st0" d="M852.6,361.1c0,0,42.1,16.3,26.1,53.6C878.7,414.7,845.8,403.7,852.6,361.1z"/>
		</g>
		<g>
			<path class="st0" d="M795.7,372.8c0,0,45.1-0.1,43.7,40.5C839.4,413.3,804.7,415,795.7,372.8z"/>
		</g>
		<g>
			<path class="st0" d="M646.6,607.5c0,0-14.4-42.7,24.6-54.3C671.1,553.2,683.8,585.6,646.6,607.5z"/>
		</g>
		<g>
			<path class="st0" d="M557.4,487.9c0,0,3.5,44.9-37,46.7C520.4,534.7,516,500.2,557.4,487.9z"/>
		</g>
		<g>
			<path class="st0" d="M550.1,564.7c0,0-9.6,44.1-49,34C501.1,598.7,506.9,564.5,550.1,564.7z"/>
		</g>
		<g>
			<path class="st0" d="M646.5,364.8c0,0,45,3.1,40.8,43.5C687.3,408.3,652.6,407.5,646.5,364.8z"/>
		</g>
		<g>
			<path class="st0" d="M736.6,331.8c0,0,36.8,26,12.2,58.4C748.8,390.2,719.5,371.5,736.6,331.8z"/>
		</g>
		<g>
			<path class="st0" d="M631.8,330.5c0,0-20.2,40.3-55.9,20.8C575.9,351.3,590,319.6,631.8,330.5z"/>
		</g>
		<g>
			<path class="st0" d="M784.5,418.8c0,0-28.5,34.9-59.1,8.2C725.4,427,746.1,399.1,784.5,418.8z"/>
		</g>
		<g>
			<path class="st0" d="M821.8,292.4c0,0-21.1,39.9-56.3,19.6C765.5,312,780.2,280.6,821.8,292.4z"/>
		</g>
		<g>
			<path class="st0" d="M773.4,258.3c0,0,7.8,44.4-32.4,50.1C741,308.3,733.4,274.5,773.4,258.3z"/>
		</g>
		<g>
			<path class="st0" d="M888.5,281.5c0,0-44.5,7.2-49.6-33.1C838.8,248.4,872.8,241.3,888.5,281.5z"/>
		</g>
		<g>
			<path class="st0" d="M668.1,160.2c0,0-18.2,41.3-54.7,23.6C613.4,183.8,625.8,151.4,668.1,160.2z"/>
		</g>
		<g>
			<path class="st0" d="M756.2,192.4c0,0-40.8,19.2-56.8-18.2C699.4,174.2,730.1,158,756.2,192.4z"/>
		</g>
		<g>
			<path class="st0" d="M641.9,234.6c0,0-8.7-44.2,31.5-50.6C673.3,184,681.6,217.7,641.9,234.6z"/>
		</g>
		<g>
			<path class="st0" d="M132.8,438.5c0,0-5.9-36.1,26.8-40.2C159.6,398.2,165.4,425.8,132.8,438.5z"/>
		</g>
		<g>
			<path class="st0" d="M694,247.9c0,0-28.1-23.4-6.2-47.9C687.8,200,710.3,216.9,694,247.9z"/>
		</g>
		<g>
			<path class="st0" d="M641,495.1c0,0-31.4-18.7-13.6-46.4C627.3,448.7,652.2,461.9,641,495.1z"/>
		</g>
		<g>
			<path class="st0" d="M654.6,550.2c0,0-31.4-18.7-13.6-46.4C641,503.9,665.9,517.1,654.6,550.2z"/>
		</g>
		<g>
			<path class="st0" d="M432.6,565.2c0,0,36.4-2.9,37.9,30C470.4,595.2,442.5,598.8,432.6,565.2z"/>
		</g>
		<g>
			<path class="st0" d="M443.6,453.8c0,0,27.9,23.6,5.7,48C449.4,501.8,427.1,484.6,443.6,453.8z"/>
		</g>
		<g>
			<path class="st0" d="M431.6,418.1c0,0,36-6.3,40.6,26.3C472.2,444.4,444.7,450.6,431.6,418.1z"/>
		</g>
		<g>
			<path class="st0" d="M408.2,398.4c0,0,24.5-27.1,48.2-4.2C456.4,394.1,438.6,415.9,408.2,398.4z"/>
		</g>
		<g>
			<path class="st0" d="M363.2,441c0,0,10.6-35,41.8-24.3C404.9,416.7,398.1,444,363.2,441z"/>
		</g>
		<path class="st0" d="M693.4,184c0.5-49.3-11.6-80.5-36.1-92.9c-35.3-17.9-83.5,10.9-98.9,21.3C518.8,89.6,484.7,84.5,457,97.2
			c-43.7,19.9-53.8,76.2-54.2,78.5l0.1,0c-0.3,0.9-0.5,1.8-0.5,2.7c0,5,4,9,9,9c5,0,9-4,9-9c0.7-3.9,10.2-49.6,44-65
			c23.2-10.6,53.4-4.8,89.8,17.2l5.2,3.1l4.8-3.6c14.7-11,58.6-36.6,85.1-23.1c17.8,9,26.6,34.6,26.3,76c-0.1,0.4-0.1,0.8-0.1,1.2
			c0,5,4,9,9,9c5,0,9-4,9-9C693.5,184.1,693.4,184.1,693.4,184z"/>
		<path class="st0" d="M790.2,329.5c-60.3-30.4-106.3-35.1-136.6-13.7c-46.3,32.7-36.6,112.5-36.2,115.9l0.2,0c0,0,0,0,0,0
			c0,5,4,9,9,9c5,0,9-4,9-9c0-1-0.2-2-0.5-2.9c-0.8-7-7-73.2,28.8-98.4c24.7-17.4,64.9-12.1,119.6,15.7l0-0.1
			c1.3,0.7,2.7,1.1,4.3,1.1c5,0,9-4,9-9C796.8,334,794,330.6,790.2,329.5z"/>
		<path class="st0" d="M987,267.7c-7.3-42.1-40.6-76.2-98.9-101.6c-0.7-14.9-5.8-52.8-37.7-82.5C816.7,52.1,764.3,40,694.6,47.4
			C681,35.7,626.5-6.8,563,3.5c-19.1,3.1-37.1,10.6-53.9,22.5C464.5,0.6,421.3-6.3,380.5,5.7c-64.1,18.8-102.2,78.1-113.3,97.8
			c-37.7-8.3-70.6-3-98,15.8c-49.3,33.9-65.8,101.4-70.6,127.8c-1.5,0.9-3,1.8-4.4,2.7c-44.4,28.5-74.8,68.4-87.9,115.6
			c-6.6,23.8-7.9,52.8-4.6,77.1c6.1,45,32.3,90.8,63.4,123.3c37.4,39.1,88.1,41.7,139.1,35.6c32.9-3.9,49.3-7,57.8-9.5
			c44.7,50.9,89.4,75.4,132.9,72.8c40.8-2.4,69-28.2,82.2-43.2c19.1,28.8,43,46.5,71,52.8c51.7,11.6,98.1-20.5,100-21.9
			c43.9-30.5,62.8-6.2,86.8,24.4C753,700,773.2,726,806,718.8c2.5-0.6,5.1-1.3,7.8-2.3c29.3-10.6,23.2-48.4,19.1-73.4
			c-1-6-2.3-13.9-2.2-17.8c17.1-8.1,105.2-52.7,119-119.9c6.1-29.8-3.1-59.4-27.4-88.2C941.8,397.5,998.4,333.8,987,267.7z
			 M932.2,501.9c-13.1,64-110.5,108-111.5,108.4c-10.5,4.7-8.4,17.7-5.4,35.7c4.1,25.4,6.7,48.6-7.5,53.8c-24,8.7-38-7.2-58.8-33.8
			c-23.7-30.4-53.3-68.2-111.1-28.1c-0.4,0.3-41.8,28.9-85.9,19.1c-25-5.6-46.3-22.7-63.5-50.8c20.7-27.6,29.4-53.4,25.7-76.7
			c-3.9-24.5-20.2-38-25.4-41.7c-1.6-1.6-3.8-2.5-6.2-2.5c-5,0-9,4-9,9c0,3.2,1.7,6,4.3,7.6l0,0c0.2,0.1,15.6,10.1,18.7,30.4
			c2.6,16.8-3.4,35.9-17.8,57l-0.1-0.2l-3.5,5.2c-2.8,3.8-5.8,7.6-9.1,11.5l0.6,0.5c-9.4,11.5-35.3,38.5-73,40.7
			c-36.5,2.1-75-18.9-114.4-62.5l0.4-0.4c-3-2.9-5.7-5.8-8.3-8.6c0,0-0.1-0.1-0.1-0.1l0,0c-20.2-22.2-29.9-42.9-28.7-61.7
			c1.1-17.3,11.6-28.1,14.9-31.1c0.2-0.2,0.5-0.4,0.7-0.6c0.2-0.2,0.3-0.3,0.3-0.3l0-0.1c1.4-1.6,2.3-3.6,2.3-5.9c0-5-4-9-9-9
			c-1.4,0-2.7,0.3-3.8,0.9l-0.1-0.2c-0.1,0.1-0.4,0.3-0.9,0.8c-0.7,0.5-1.3,1-1.9,1.7c-5.8,5.4-18.7,19.9-20.1,42.6
			c-1.3,20.6,6.9,42.3,24.6,64.6c-4.3,0.8-8.6,1.2-12.6,1.9c-24.1,3.9-48.4,6.4-72.6,8.7c-26.9,2.5-50.7-8.2-72.4-23.4
			c-58-40.5-86.8-126.5-68.1-194C42.7,301.2,115,230,233.4,225.8c0.2,0,0.4,0.1,0.6,0.1c5,0,9-4,9-9c0-4.8-3.7-8.6-8.4-8.9l0-0.1
			c-0.1,0-0.3,0-0.4,0c-0.1,0-0.1,0-0.2,0c-0.2,0-0.4,0-0.5,0.1c-40.6,1.3-80.7,11.4-115.6,28.7c7.1-28,24.2-76.9,61.5-102.5
			c24.6-16.9,54.9-20.8,90.2-11.6l7,1.8l3.2-6.5c0.4-0.8,37.7-75,105.8-94.9c34.1-10,70.5-4.8,108.4,15.3c-18.3,16.6-35,39-50,66.8
			l15.7,8.5c29.4-54.6,65-85.6,105.9-92.3c63.2-10.3,119.2,41.5,119.8,42l3,2.9l4.1-0.5c66.1-7.7,115,2.7,145.4,30.9
			c33.7,31.3,32.3,74.8,32.3,75.2l-0.3,6.3l5.8,2.4c55.7,23.1,87.2,53.5,93.6,90.4c10.9,62.4-52.3,126.7-63.7,137.7
			c-98.2,19-121.9-15-122.1-15.4l0,0c-1.3-3.4-4.5-5.8-8.4-5.8c-5,0-9,4-9,9c0,2.3,0.9,4.4,2.4,6l-0.2,0.1
			c0.8,1.3,8.3,13.1,30.4,21.5c26.8,10.1,63.1,11,107.9,2.6C928.6,451.6,937.3,477,932.2,501.9z"/>
		<path class="st0" d="M427.9,414.3c-24.7-31-80.4-24.8-98.9-21.7c-26.6-37.1-55.5-55.9-85.9-56c-42.6,0-73.1,37-80.3,46.7
			c-1.8,1.6-2.9,4-2.9,6.6c0,5,4,9,9,9c2.8,0,5.3-1.3,6.9-3.3l0.1,0.1c0.3-0.4,28.6-41.2,67.2-41.1c25.5,0,50.6,17.8,74.5,53l3.4,5
			l5.9-1.3c17.9-3.9,68.5-8.9,87,14.3c12.5,15.7,9.8,42.9-8.1,81l0.1,0c-0.9,1.4-1.5,3.1-1.5,4.9c0,5,4,9,9,9c4.1,0,7.6-2.8,8.6-6.6
			C443,469.2,445,435.7,427.9,414.3z"/>
	</g>
</g>
</svg>
