<?xml version="1.0" encoding="utf-8"?>
<!-- Generator: Adobe Illustrator 21.0.0, SVG Export Plug-In . SVG Version: 6.00 Build 0)  -->
<svg version="1.1" id="Layer_1" xmlns="http://www.w3.org/2000/svg" xmlns:xlink="http://www.w3.org/1999/xlink" x="0px" y="0px"
	 viewBox="0 0 279.9 92.9" style="enable-background:new 0 0 279.9 92.9;" xml:space="preserve">
<style type="text/css">
	.st0{fill:#EDEDED;}
	.st1{fill:#685989;}
	.st2{fill:#864D7D;}
	.st3{fill:#BEDBC3;}
	.st4{fill:#9CC1C8;}
	.st5{opacity:0.5;fill:#9CC1C8;}
	.st6{fill:#D3DEE4;}
	.st7{fill:#007271;}
	.st8{fill:#369999;}
	.st9{fill:#4D2B2B;}
	.st10{fill:#3A1F1E;}
	.st11{fill:#E95B4E;}
	.st12{fill:#EE8268;}
	.st13{fill:#C83D36;}
	.st14{fill:#F6B99F;}
	.st15{fill:#EEE9DC;}
	.st16{fill:#F19775;}
	.st17{fill:#6B3E3F;}
	.st18{fill:#C7BDB7;}
	.st19{fill:#D1D5CA;}
	.st20{fill:#2B3668;}
	.st21{fill:#EE827D;}
	.st22{fill:#F87481;}
	.st23{fill:#FFFFFF;stroke:#FFFFFF;stroke-miterlimit:10;}
	.st24{fill:#FFFFFF;}
	.st25{opacity:0.3;clip-path:url(#SVGID_2_);}
	.st26{opacity:0.3;clip-path:url(#SVGID_4_);}
	.st27{opacity:0.3;clip-path:url(#SVGID_6_);}
	.st28{fill:#7087AF;}
	.st29{clip-path:url(#SVGID_8_);}
	.st30{fill:#B2555F;}
	.st31{fill:#47284F;}
	.st32{fill:#FFBF9B;}
	.st33{fill:#FFA687;}
	.st34{fill:#72426B;}
	.st35{fill:#FFC9AC;}
	.st36{fill:#C19884;}
	.st37{fill:#FFA68D;}
	.st38{fill:#13A6CE;}
	.st39{fill:#4E2447;}
	.st40{opacity:0.3;}
	.st41{fill:#1A2E35;}
	.st42{fill:#FFBF9D;}
	.st43{fill:#FF9A6C;}
	.st44{fill:#375A64;}
	.st45{fill:#E1E1E1;}
	.st46{opacity:0.2;}
	.st47{fill:#FF4F5B;}
	.st48{fill:#EBEBEB;}
	.st49{fill:#AA6550;}
	.st50{fill:#FAFAFA;}
</style>
<g>
	<path class="st24" d="M15.5,72.8c-0.5,0-0.9-0.2-1.2-0.5C14,72,13.8,71.5,13.8,71V1.7c0-0.5,0.2-0.9,0.5-1.2C14.6,0.2,15,0,15.5,0
		c0.5,0,0.9,0.2,1.3,0.5c0.4,0.3,0.6,0.8,0.6,1.2V71c0,0.5-0.2,0.9-0.6,1.2C16.5,72.6,16,72.8,15.5,72.8z"/>
	<path class="st24" d="M48.5,24.7c-2.8,0-5.5,0.5-7.9,1.6c-2.5,1.1-4.6,2.5-6.4,4.4c-1.8,1.8-3.3,4-4.4,6.4
		c-1.1,2.5-1.6,5.1-1.6,7.8V45c0.1,0,0.1,0.1,0.1,0.3v25.6c0,0.5-0.2,0.9-0.6,1.2c-0.4,0.3-0.8,0.5-1.3,0.5c-0.5,0-0.9-0.2-1.2-0.5
		c-0.3-0.3-0.5-0.7-0.5-1.2V45.3v-0.4c0-3.2,0.6-6.2,1.8-9.1c1.2-2.9,2.9-5.5,5.2-7.7c2.3-2.3,4.8-4,7.7-5.1
		c2.9-1.2,5.9-1.7,9.1-1.7c3.2,0,6.2,0.6,9.1,1.7c2.9,1.2,5.5,2.9,7.7,5.1c2.2,2.3,3.9,4.8,5.1,7.7c1.2,2.9,1.8,5.9,1.8,9.1v25.9
		c0,1.2-0.6,1.7-1.7,1.7c-1.2,0-1.7-0.6-1.7-1.7V44.9c0-2.8-0.5-5.4-1.6-7.8c-1.1-2.4-2.5-4.6-4.4-6.4c-1.8-1.8-4-3.3-6.4-4.4
		C53.9,25.3,51.3,24.7,48.5,24.7z"/>
	<path class="st24" d="M98.9,34.5c2.6,0,5,0.5,7.4,1.5c2.3,1,4.4,2.4,6.2,4.1c1.8,1.8,3.2,3.9,4.1,6.2c1,2.3,1.5,4.8,1.5,7.4
		c0,2.6-0.5,5.1-1.5,7.4c-1,2.3-2.4,4.4-4.1,6.1c-1.7,1.7-3.8,3.1-6.1,4.1c-2.3,1-4.8,1.5-7.4,1.5c-2.6,0-5.1-0.5-7.4-1.5
		c-2.3-1-4.4-2.4-6.1-4.1c-1.7-1.7-3.1-3.8-4.1-6.1c-1-2.3-1.5-4.8-1.5-7.4v-0.3c0-0.5,0.2-0.9,0.5-1.2c0.3-0.3,0.7-0.5,1.2-0.5
		c0.5,0,0.9,0.2,1.3,0.5c0.4,0.3,0.6,0.8,0.6,1.2c0,0.1,0,0.2-0.1,0.3v0.1c0,2.1,0.4,4.2,1.2,6c0.8,1.9,2,3.5,3.4,4.9
		c1.4,1.4,3.1,2.5,5,3.4c1.9,0.8,3.9,1.2,6.1,1.2c2.1,0,4.2-0.4,6.1-1.2c1.9-0.8,3.6-1.9,5-3.4c1.4-1.4,2.5-3.1,3.4-5
		c0.8-1.9,1.2-3.9,1.2-6.1c0-2.1-0.4-4.2-1.2-6.1c-0.8-1.9-1.9-3.6-3.4-5c-1.4-1.4-3.1-2.5-5-3.4c-1.9-0.8-3.9-1.2-6.1-1.2h-0.1
		c-3.1-0.1-5.6-1-7.7-2.8c-1.8-1.5-3.1-3.4-3.8-5.8c-0.7-2.4-0.6-4.7,0.1-6.8c0.2-0.5,0.5-0.8,0.9-1.1c0.4-0.2,0.9-0.3,1.4-0.1
		c1,0.4,1.4,1.2,1.1,2.3c-0.5,1.6-0.5,3.2,0,4.8c0.5,1.6,1.3,2.9,2.6,4C94.7,33.7,96.5,34.3,98.9,34.5L98.9,34.5z"/>
	<path class="st24" d="M127.3,37.7c1.3-3.1,3.2-5.8,5.6-8.2c2.4-2.5,5.2-4.3,8.3-5.6c3.1-1.3,6.4-1.9,9.9-1.9c3.5,0,6.8,0.6,9.9,1.9
		c3.1,1.3,5.9,3.2,8.4,5.6c2.4,2.4,4.2,5.1,5.5,8.2c1.3,3.1,2,6.4,2,9.8v0.1v0.1c-0.1,3.4-0.7,6.7-2,9.8c-1.3,3.1-3.1,5.8-5.5,8.2
		c-2.5,2.5-5.2,4.3-8.4,5.6c-3.1,1.3-6.4,1.9-9.9,1.9c-0.5,0-0.9-0.2-1.2-0.5c-0.3-0.3-0.5-0.8-0.5-1.2c0-0.5,0.2-0.9,0.5-1.2
		c0.3-0.3,0.7-0.5,1.2-0.5c3.1,0,5.9-0.6,8.6-1.7c2.7-1.2,5.1-2.7,7.1-4.7c2-2,3.6-4.3,4.8-7c1.2-2.7,1.7-5.6,1.7-8.6
		c0-3.1-0.6-5.9-1.7-8.6c-1.2-2.7-2.8-5-4.8-7c-2-2-4.4-3.6-7.1-4.7c-2.7-1.2-5.6-1.7-8.6-1.7c-3.1,0-5.9,0.6-8.6,1.7
		c-2.7,1.2-5.1,2.8-7.1,4.8c-2,2-3.6,4.4-4.8,7.1c-1.2,2.7-1.7,5.6-1.7,8.6v0.1c0.1,0.1,0.1,0.2,0.1,0.3c0,0.1,0,0.2-0.1,0.3v42.7
		c0,0.5-0.2,0.9-0.5,1.3c-0.3,0.4-0.8,0.6-1.2,0.6c-0.5,0-0.9-0.2-1.2-0.6c-0.3-0.4-0.5-0.8-0.5-1.3V47.5
		C125.4,44.1,126,40.8,127.3,37.7z"/>
	<path class="st24" d="M186,11.4c-0.5,0-0.9-0.2-1.2-0.5c-0.3-0.3-0.5-0.8-0.5-1.2v-3c0-0.5,0.2-0.9,0.5-1.2
		c0.3-0.3,0.7-0.5,1.2-0.5c0.5,0,0.9,0.2,1.3,0.5c0.4,0.3,0.6,0.8,0.6,1.2v3c0,0.5-0.2,0.9-0.6,1.2C186.9,11.2,186.5,11.4,186,11.4z
		 M186,72.9c-0.5,0-0.9-0.2-1.2-0.5c-0.3-0.3-0.5-0.7-0.5-1.2v-48c0-0.5,0.2-0.9,0.5-1.3c0.3-0.4,0.7-0.6,1.2-0.6
		c0.5,0,0.9,0.2,1.3,0.6s0.6,0.8,0.6,1.3v48c0,0.5-0.2,0.9-0.6,1.2C186.9,72.7,186.5,72.9,186,72.9z"/>
	<path class="st24" d="M197,73c-0.5,0-0.9-0.2-1.2-0.5c-0.3-0.3-0.5-0.7-0.5-1.2V45.7v-0.1v-0.4c0-3.2,0.6-6.2,1.8-9.1
		c1.2-2.9,2.9-5.4,5.2-7.6c2.3-2.3,4.8-4,7.7-5.2c2.9-1.2,5.9-1.8,9.1-1.8c0.5,0,0.9,0.2,1.2,0.5c0.3,0.3,0.5,0.8,0.5,1.2
		c0,0.5-0.2,0.9-0.5,1.3c-0.3,0.4-0.8,0.6-1.2,0.6c-2.8,0-5.5,0.5-7.9,1.6c-2.5,1-4.6,2.5-6.4,4.3c-1.8,1.8-3.3,4-4.4,6.4
		c-1.1,2.5-1.6,5.1-1.6,7.8v0.1c0.1,0.1,0.1,0.2,0.1,0.3v25.6c0,0.5-0.2,0.9-0.6,1.2C197.9,72.8,197.5,73,197,73z"/>
	<path class="st24" d="M276.3,23.3c0-0.5,0.2-0.9,0.6-1.2c0.4-0.3,0.8-0.5,1.3-0.5c0.5,0,0.9,0.2,1.2,0.5c0.3,0.3,0.5,0.8,0.5,1.2
		v48.1c0,1.2-0.6,1.7-1.7,1.7c-0.5,0-0.9-0.2-1.3-0.5c-0.4-0.3-0.6-0.7-0.6-1.2V60.4c-0.6,0.9-1.1,1.8-1.8,2.7
		c-0.6,0.9-1.4,1.7-2.2,2.5c-2.5,2.5-5.3,4.3-8.4,5.6c-3.1,1.3-6.4,1.9-9.9,1.9c-3.5,0-6.8-0.6-9.9-1.9c-3.1-1.3-5.9-3.2-8.5-5.6
		c-2.4-2.4-4.2-5.2-5.6-8.3c-1.3-3.1-2-6.3-2-9.8v-0.1v-0.1v-0.1c0.1-3.4,0.7-6.7,2-9.8c1.3-3.1,3.1-5.8,5.5-8.2
		c2.5-2.5,5.3-4.3,8.5-5.6c3.1-1.3,6.4-1.9,9.9-1.9c3.5,0,6.8,0.6,9.9,1.9s5.9,3.2,8.4,5.6c1.7,1.7,3,3.4,4,5.1V23.3z M254,69.6
		c3.1,0,5.9-0.6,8.6-1.7c2.7-1.2,5.1-2.8,7.1-4.8c2-2,3.6-4.4,4.8-7.1c1.2-2.7,1.7-5.6,1.7-8.6c0-3.1-0.6-5.9-1.7-8.6
		c-1.2-2.7-2.8-5.1-4.8-7.1c-2-2-4.4-3.6-7.1-4.8c-2.7-1.2-5.6-1.7-8.6-1.7c-3.1,0-5.9,0.6-8.6,1.7c-2.7,1.1-5,2.7-7,4.6
		c-2,2-3.6,4.2-4.8,6.8c-1.2,2.6-1.9,5.4-1.9,8.4v0.2v0.3v0.1v0.1c0,3.1,0.6,5.9,1.7,8.6c1.2,2.7,2.8,5.1,4.8,7.1
		c2,2,4.4,3.6,7.1,4.8C248.1,69,251,69.6,254,69.6z"/>
	<path class="st24" d="M11.7,30.2c0,0-12.4-0.3-11.7-11.5C0,18.8,9.5,18.6,11.7,30.2z"/>
	<path class="st24" d="M19.3,11.6c0,0,3.1-12,13.7-8.8C33,2.8,31.1,12.1,19.3,11.6z"/>
	<path class="st24" d="M2.8,6.6c0,0,7.9-0.4,8,6.7C10.8,13.4,4.7,14,2.8,6.6z"/>
</g>
</svg>
