<?xml version="1.0" encoding="utf-8"?>
<!-- Generator: Adobe Illustrator 21.0.0, SVG Export Plug-In . SVG Version: 6.00 Build 0)  -->
<svg version="1.1" id="Layer_1" xmlns="http://www.w3.org/2000/svg" xmlns:xlink="http://www.w3.org/1999/xlink" x="0px" y="0px"
	 viewBox="0 0 306 244.5" style="enable-background:new 0 0 306 244.5;" xml:space="preserve">
<style type="text/css">
	.st0{fill:#EDEDED;}
	.st1{fill:#685989;}
	.st2{fill:#864D7D;}
	.st3{fill:#BEDBC3;}
	.st4{fill:#9CC1C8;}
	.st5{opacity:0.5;fill:#9CC1C8;}
	.st6{fill:#D3DEE4;}
	.st7{fill:#007271;}
	.st8{fill:#369999;}
	.st9{fill:#4D2B2B;}
	.st10{fill:#3A1F1E;}
	.st11{fill:#E95B4E;}
	.st12{fill:#EE8268;}
	.st13{fill:#C83D36;}
	.st14{fill:#F6B99F;}
	.st15{fill:#EEE9DC;}
	.st16{fill:#F19775;}
	.st17{fill:#6B3E3F;}
	.st18{fill:#C7BDB7;}
	.st19{fill:#D1D5CA;}
	.st20{fill:#2B3668;}
	.st21{fill:#EE827D;}
	.st22{fill:#F87481;}
	.st23{fill:#FFFFFF;stroke:#FFFFFF;stroke-miterlimit:10;}
	.st24{fill:#FFFFFF;}
	.st25{opacity:0.3;clip-path:url(#SVGID_2_);}
	.st26{opacity:0.3;clip-path:url(#SVGID_4_);}
	.st27{opacity:0.3;clip-path:url(#SVGID_6_);}
	.st28{fill:#7087AF;}
	.st29{clip-path:url(#SVGID_8_);}
	.st30{fill:#B2555F;}
	.st31{fill:#47284F;}
	.st32{fill:#FFBF9B;}
	.st33{fill:#FFA687;}
	.st34{fill:#72426B;}
	.st35{fill:#FFC9AC;}
	.st36{fill:#C19884;}
	.st37{fill:#FFA68D;}
	.st38{fill:#13A6CE;}
	.st39{fill:#4E2447;}
	.st40{opacity:0.3;}
	.st41{fill:#1A2E35;}
	.st42{fill:#FFBF9D;}
	.st43{fill:#FF9A6C;}
	.st44{fill:#375A64;}
	.st45{fill:#E1E1E1;}
	.st46{opacity:0.2;}
	.st47{fill:#FF4F5B;}
	.st48{fill:#EBEBEB;}
	.st49{fill:#AA6550;}
	.st50{fill:#FAFAFA;}
</style>
<g>
	<g>
		<g>
			<path class="st1" d="M22.8,203.8c-0.9,0-1.6-0.7-1.6-1.6v-16.8L13.5,196c-0.3,0.4-0.8,0.6-1.3,0.6c-0.5,0-1-0.2-1.3-0.6
				l-7.8-10.6v16.8c0,0.9-0.7,1.6-1.6,1.6c-0.9,0-1.6-0.7-1.6-1.6v-21.6c0-0.7,0.4-1.3,1.1-1.5c0.6-0.2,1.4,0,1.8,0.6l9.3,12.8
				l9.3-12.8c0.4-0.5,1.1-0.8,1.8-0.6c0.6,0.2,1.1,0.8,1.1,1.5v21.6C24.4,203,23.7,203.8,22.8,203.8z"/>
			<path class="st1" d="M28.6,203.9c-0.9,0-1.6-0.7-1.6-1.6v-21.6c0-0.9,0.7-1.6,1.6-1.6c0.9,0,1.6,0.7,1.6,1.6v21.6
				C30.2,203.2,29.5,203.9,28.6,203.9z"/>
			<path class="st1" d="M45.8,204.3c-1.8,0-3.5-0.3-5.1-1c-1.5-0.7-2.9-1.6-4.1-2.8c-1.2-1.2-2.1-2.6-2.8-4.1c-0.7-1.6-1-3.2-1-4.9
				c0-1.7,0.3-3.4,1-5c0.7-1.5,1.6-2.9,2.8-4.1c1.2-1.2,2.6-2.1,4.2-2.8c1.6-0.7,3.3-1,5-1c2.8,0,5.5,0.9,7.7,2.6
				c0.7,0.5,0.8,1.5,0.3,2.2c-0.5,0.7-1.5,0.8-2.2,0.3c-1.7-1.3-3.7-2-5.8-2c-1.3,0-2.6,0.3-3.8,0.8c-1.2,0.5-2.2,1.2-3.2,2.1
				c-0.9,0.9-1.6,1.9-2.1,3.1c-0.5,1.2-0.8,2.4-0.8,3.7c0,1.3,0.3,2.5,0.8,3.7c0.5,1.2,1.2,2.2,2.1,3.1c1.9,1.9,4.3,2.9,6.9,2.9
				c1.2,0,2.3-0.2,3.3-0.6c1-0.4,2-0.9,2.8-1.6c0.7-0.6,1.6-0.5,2.2,0.2c0.6,0.7,0.5,1.7-0.2,2.2c-1.1,0.9-2.4,1.7-3.8,2.2
				C48.8,204,47.3,204.3,45.8,204.3z"/>
			<path class="st1" d="M77,180.6v21.6c0,0.9-0.7,1.6-1.6,1.6c-0.9,0-1.6-0.7-1.6-1.6v-9.5H60.3v9.5c0,0.9-0.7,1.6-1.6,1.6
				s-1.6-0.7-1.6-1.6v-21.6c0-0.9,0.7-1.6,1.6-1.6s1.6,0.7,1.6,1.6v9h13.6v-9c0-0.9,0.7-1.6,1.6-1.6C76.3,179,77,179.7,77,180.6z"/>
			<path class="st1" d="M97.7,202.3c0,0.9-0.7,1.6-1.6,1.6H81.1c-0.9,0-1.6-0.7-1.6-1.6v-21.6c0-0.9,0.7-1.6,1.6-1.6h14.7
				c0.9,0,1.6,0.7,1.6,1.6c0,0.9-0.7,1.6-1.6,1.6H82.7v7.6h11.7c0.9,0,1.6,0.7,1.6,1.6c0,0.9-0.7,1.6-1.6,1.6H82.7v7.7h13.5
				C97,200.7,97.7,201.4,97.7,202.3z"/>
			<path class="st1" d="M115.6,203.9h-13.7c-0.9,0-1.6-0.7-1.6-1.6v-21.6c0-0.9,0.7-1.6,1.6-1.6c0.9,0,1.6,0.7,1.6,1.6v20h12.2
				c0.9,0,1.6,0.7,1.6,1.6C117.1,203.2,116.4,203.9,115.6,203.9z"/>
			<path class="st1" d="M135,203.9h-13.7c-0.9,0-1.6-0.7-1.6-1.6v-21.6c0-0.9,0.7-1.6,1.6-1.6c0.9,0,1.6,0.7,1.6,1.6v20H135
				c0.9,0,1.6,0.7,1.6,1.6C136.6,203.2,135.9,203.9,135,203.9z"/>
			<path class="st1" d="M157.3,202.3c0,0.9-0.7,1.6-1.6,1.6h-15.1c-0.9,0-1.6-0.7-1.6-1.6v-21.6c0-0.9,0.7-1.6,1.6-1.6h14.7
				c0.9,0,1.6,0.7,1.6,1.6c0,0.9-0.7,1.6-1.6,1.6h-13.2v7.6h11.7c0.9,0,1.6,0.7,1.6,1.6c0,0.9-0.7,1.6-1.6,1.6h-11.7v7.7h13.5
				C156.6,200.7,157.3,201.4,157.3,202.3z"/>
			<path class="st1" d="M184.4,204.3c-1.8,0-3.5-0.3-5.1-1c-1.5-0.7-2.9-1.6-4.1-2.8c-1.2-1.2-2.1-2.6-2.8-4.1c-0.7-1.6-1-3.2-1-4.9
				c0-1.7,0.3-3.4,1-5c0.7-1.5,1.6-2.9,2.8-4.1c1.2-1.2,2.6-2.1,4.2-2.8c1.6-0.7,3.3-1,5-1c2.8,0,5.5,0.9,7.7,2.6
				c0.7,0.5,0.8,1.5,0.3,2.2c-0.5,0.7-1.5,0.8-2.2,0.3c-1.7-1.3-3.7-2-5.8-2c-1.3,0-2.6,0.3-3.8,0.8c-1.2,0.5-2.2,1.2-3.2,2.1
				c-0.9,0.9-1.6,1.9-2.1,3.1c-0.5,1.2-0.8,2.4-0.8,3.7c0,1.3,0.3,2.5,0.8,3.7c0.5,1.2,1.2,2.2,2.1,3.1c1.9,1.9,4.3,2.9,6.9,2.9
				c1.2,0,2.3-0.2,3.3-0.6c1-0.4,2-0.9,2.8-1.6c0.7-0.6,1.6-0.5,2.2,0.2c0.6,0.7,0.5,1.7-0.2,2.2c-1.1,0.9-2.4,1.7-3.8,2.2
				C187.5,204,185.9,204.3,184.4,204.3z"/>
			<path class="st1" d="M208.5,204.4c-1.7,0-3.4-0.3-5-1c-1.5-0.7-2.9-1.6-4.1-2.8c-1.2-1.2-2.1-2.6-2.8-4.1c-0.7-1.6-1-3.2-1-4.9
				c0-1.7,0.3-3.4,1-5c0.7-1.5,1.6-2.9,2.8-4.1c1.2-1.2,2.6-2.1,4.1-2.8c1.6-0.7,3.3-1,5.1-1c3.4,0,6.6,1.4,9,3.8
				c1.2,1.2,2,2.6,2.7,4.1c0.7,1.6,1,3.2,1,4.9c0,1.7-0.3,3.4-1,4.9c-0.6,1.5-1.5,2.9-2.7,4.1C215.2,203.1,212,204.4,208.5,204.4z
				 M208.6,181.9c-1.3,0-2.6,0.3-3.8,0.8c-1.2,0.5-2.2,1.2-3.2,2.1c-0.9,0.9-1.6,1.9-2.1,3.1c-0.5,1.2-0.8,2.4-0.8,3.7
				c0,1.3,0.3,2.5,0.8,3.7c0.5,1.2,1.2,2.2,2.1,3.1c1.9,1.9,4.3,2.9,6.9,2.9c2.6,0,5-1,6.9-2.9c0.9-0.9,1.5-1.9,2-3.1
				c0.5-1.2,0.7-2.5,0.7-3.8c0-2.6-1-5-2.7-6.8C213.6,182.9,211.2,181.9,208.6,181.9z"/>
			<path class="st1" d="M241.9,202.3c0,0.9-0.7,1.6-1.6,1.6h-15.1c-0.9,0-1.6-0.7-1.6-1.6v-21.6c0-0.9,0.7-1.6,1.6-1.6H240
				c0.9,0,1.6,0.7,1.6,1.6c0,0.9-0.7,1.6-1.6,1.6h-13.2v7.6h11.7c0.9,0,1.6,0.7,1.6,1.6c0,0.9-0.7,1.6-1.6,1.6h-11.7v7.7h13.5
				C241.2,200.7,241.9,201.4,241.9,202.3z"/>
			<path class="st1" d="M259.7,203.9H246c-0.9,0-1.6-0.7-1.6-1.6v-21.6c0-0.9,0.7-1.6,1.6-1.6c0.9,0,1.6,0.7,1.6,1.6v20h12.2
				c0.9,0,1.6,0.7,1.6,1.6C261.3,203.2,260.6,203.9,259.7,203.9z"/>
			<path class="st1" d="M279.1,203.9h-13.7c-0.9,0-1.6-0.7-1.6-1.6v-21.6c0-0.9,0.7-1.6,1.6-1.6c0.9,0,1.6,0.7,1.6,1.6v20h12.2
				c0.9,0,1.6,0.7,1.6,1.6C280.7,203.2,280,203.9,279.1,203.9z"/>
			<path class="st1" d="M293.2,204.4c-1.7,0-3.4-0.3-5-1c-1.5-0.7-2.9-1.6-4.1-2.8c-1.2-1.2-2.1-2.6-2.8-4.1c-0.7-1.6-1-3.2-1-4.9
				c0-1.7,0.3-3.4,1-5c0.7-1.5,1.6-2.9,2.8-4.1c1.2-1.2,2.6-2.1,4.1-2.8c1.6-0.7,3.3-1,5.1-1c3.4,0,6.6,1.4,9,3.8
				c1.2,1.2,2,2.6,2.7,4.1c0.7,1.6,1,3.2,1,4.9c0,1.7-0.3,3.4-1,4.9c-0.6,1.5-1.5,2.9-2.7,4.1C299.9,203.1,296.7,204.4,293.2,204.4z
				 M293.3,181.9c-1.3,0-2.6,0.3-3.8,0.8c-1.2,0.5-2.2,1.2-3.2,2.1c-0.9,0.9-1.6,1.9-2.1,3.1c-0.5,1.2-0.8,2.4-0.8,3.7
				c0,1.3,0.3,2.5,0.8,3.7c0.5,1.2,1.2,2.2,2.1,3.1c1.9,1.9,4.3,2.9,6.9,2.9c2.6,0,5-1,6.9-2.9c0.9-0.9,1.5-1.9,2-3.1
				c0.5-1.2,0.7-2.5,0.7-3.8c0-2.6-1-5-2.7-6.8C298.3,182.9,295.9,181.9,293.3,181.9z"/>
		</g>
	</g>
	<g>
		<g>
			<path class="st2" d="M72.7,222.3c3.4,0,4.7,2.1,4.7,5.4v2.4c0,3.5-1.6,5.2-5.1,5.2h-2.7v9.1h-1.4v-22.1H72.7z M72.3,233.9
				c2.6,0,3.7-1.1,3.7-3.8v-2.6c0-2.4-0.8-3.9-3.3-3.9h-3.1v10.3H72.3z"/>
			<path class="st2" d="M88.9,227.6v0.5h-1.4v-0.6c0-2.3-0.9-4.1-3.3-4.1c-2.4,0-3.3,1.7-3.3,4.1c0,5.4,8,5.5,8,11.5
				c0,3.2-1.4,5.5-4.8,5.5s-4.8-2.3-4.8-5.5v-1.1h1.4v1.2c0,2.4,0.9,4.1,3.3,4.1c2.4,0,3.3-1.7,3.3-4.1c0-5.3-8-5.4-8-11.5
				c0-3.3,1.4-5.5,4.7-5.5C87.6,222.1,88.9,224.4,88.9,227.6z"/>
			<path class="st2" d="M92.7,222.3v22.1h-1.4v-22.1H92.7z"/>
			<path class="st2" d="M104.7,227.6v1.8h-1.4v-1.9c0-2.4-0.9-4.2-3.3-4.2c-2.4,0-3.3,1.8-3.3,4.2V239c0,2.4,0.9,4.1,3.3,4.1
				c2.4,0,3.3-1.8,3.3-4.1v-2.6h1.4v2.5c0,3.2-1.4,5.6-4.8,5.6c-3.4,0-4.8-2.4-4.8-5.6v-11.3c0-3.2,1.4-5.6,4.8-5.6
				C103.3,222.1,104.7,224.5,104.7,227.6z"/>
			<path class="st2" d="M116.7,227.6v11.3c0,3.2-1.5,5.6-4.9,5.6c-3.3,0-4.8-2.4-4.8-5.6v-11.3c0-3.2,1.5-5.6,4.8-5.6
				C115.2,222.1,116.7,224.4,116.7,227.6z M108.4,227.6V239c0,2.4,0.9,4.2,3.4,4.2c2.5,0,3.4-1.8,3.4-4.2v-11.5c0-2.4-1-4.2-3.4-4.2
				C109.3,223.4,108.4,225.2,108.4,227.6z M114.3,217.8l-2.6,3h-1.1l2.2-3H114.3z"/>
			<path class="st2" d="M119.1,244.3v-22.1h1.4V243h6.9v1.3H119.1z"/>
			<path class="st2" d="M129.5,227.6c0-3.2,1.5-5.6,4.8-5.6c3.4,0,4.9,2.4,4.9,5.6v11.3c0,3.2-1.5,5.6-4.9,5.6
				c-3.3,0-4.8-2.4-4.8-5.6V227.6z M131,239c0,2.4,0.9,4.2,3.4,4.2c2.5,0,3.4-1.8,3.4-4.2v-11.5c0-2.4-1-4.2-3.4-4.2
				c-2.4,0-3.4,1.8-3.4,4.2V239z"/>
			<path class="st2" d="M151,227.6v1.6h-1.4v-1.7c0-2.4-0.9-4.2-3.3-4.2c-2.4,0-3.3,1.8-3.3,4.2V239c0,2.4,0.9,4.1,3.3,4.1
				c2.4,0,3.3-1.8,3.3-4.1v-4.8h-2.9v-1.3h4.3v6c0,3.2-1.4,5.6-4.8,5.6s-4.8-2.4-4.8-5.6v-11.3c0-3.2,1.4-5.6,4.8-5.6
				S151,224.5,151,227.6z"/>
			<path class="st2" d="M155.5,239.4l-1.1,4.9h-1.3l4.8-22.1h2.1l4.9,22.1h-1.4l-1.1-4.9H155.5z M155.8,238.2h6.4l-3.2-14.3
				L155.8,238.2z"/>
			<path class="st2" d="M181.5,227.6v1.8h-1.4v-1.9c0-2.4-0.9-4.2-3.3-4.2s-3.3,1.8-3.3,4.2V239c0,2.4,0.9,4.1,3.3,4.1
				s3.3-1.8,3.3-4.1v-2.6h1.4v2.5c0,3.2-1.4,5.6-4.8,5.6c-3.4,0-4.8-2.4-4.8-5.6v-11.3c0-3.2,1.4-5.6,4.8-5.6
				C180.1,222.1,181.5,224.5,181.5,227.6z"/>
			<path class="st2" d="M183.8,244.3v-22.1h1.4V243h6.9v1.3H183.8z"/>
			<path class="st2" d="M196.2,218h1.5l-2.6,3h-1.1L196.2,218z M194.4,222.3h1.4v22.1h-1.4V222.3z"/>
			<path class="st2" d="M199.7,244.3h-1.3v-22.1h1.9l6.6,18.6v-18.6h1.3v22.1h-1.6l-6.9-19.7V244.3z"/>
			<path class="st2" d="M212.1,222.3v22.1h-1.4v-22.1H212.1z"/>
			<path class="st2" d="M224.1,227.6v1.8h-1.4v-1.9c0-2.4-0.9-4.2-3.3-4.2s-3.3,1.8-3.3,4.2V239c0,2.4,0.9,4.1,3.3,4.1
				s3.3-1.8,3.3-4.1v-2.6h1.4v2.5c0,3.2-1.4,5.6-4.8,5.6c-3.4,0-4.8-2.4-4.8-5.6v-11.3c0-3.2,1.4-5.6,4.8-5.6
				C222.7,222.1,224.1,224.5,224.1,227.6z"/>
			<path class="st2" d="M228.6,239.4l-1.1,4.9h-1.3l4.8-22.1h2.1l4.9,22.1h-1.4l-1.1-4.9H228.6z M228.8,238.2h6.4l-3.2-14.3
				L228.8,238.2z"/>
		</g>
	</g>
	<g>
		<g>
			<path class="st3" d="M214.5,54.2c0,0-5.4,17.7-21.1,12.3C193.4,66.5,196.9,52.7,214.5,54.2z"/>
		</g>
		<g>
			<path class="st4" d="M231.4,100.1c0,0-5.4,17.7-21.1,12.3C210.3,112.4,213.7,98.6,231.4,100.1z"/>
		</g>
		<g>
			<path class="st3" d="M174.9,107c0,0,13.3,12.8,1.3,24.4C176.2,131.4,165.5,122.1,174.9,107z"/>
		</g>
		<g>
			<path class="st3" d="M185.3,137.3c0,0-6.9,17.1-22.1,10.4C163.1,147.7,167.8,134.3,185.3,137.3z"/>
		</g>
		<g>
			<path class="st3" d="M166.9,45.4c0,0,4.3,18-12,21.3C154.8,66.7,150.9,53,166.9,45.4z"/>
		</g>
		<g>
			<path class="st3" d="M167.5,83.3c0,0-2.1,18.4-18.6,15.9C149,99.2,149.9,85,167.5,83.3z"/>
		</g>
		<g>
			<path class="st3" d="M190.7,27.6c0,0-6.2,14.4-19,8.3C171.7,35.9,175.9,24.6,190.7,27.6z"/>
		</g>
		<g>
			<path class="st3" d="M169,40c0,0-15.6,1.2-16.2-12.9C152.8,27.1,164.8,25.6,169,40z"/>
		</g>
		<g>
			<path class="st3" d="M175.6,5.8c0,0-4.5,17.9-20.5,13.3C155,19.1,157.8,5.1,175.6,5.8z"/>
		</g>
		<g>
			<path class="st3" d="M229.5,23.4c0,0-14.7,11.2-24.3-2.4C205.2,21,216.1,11.9,229.5,23.4z"/>
		</g>
		<g>
			<path class="st3" d="M206.9,128.9c0,0-18.3-2.7-15.3-19.1C191.6,109.8,205.7,111.2,206.9,128.9z"/>
		</g>
		<g>
			<path class="st3" d="M228,115.3c0,0,2.2,18.4-14.4,19.7C213.6,135,211.2,121,228,115.3z"/>
		</g>
		<g>
			<path class="st3" d="M260.6,73.7c0,0-16.9-7.5-9.6-22.5C251,51.2,264.3,56.3,260.6,73.7z"/>
		</g>
		<g>
			<path class="st3" d="M224.5,56c0,0-15.3-10.4-5.4-23.8C219,32.2,231.2,39.6,224.5,56z"/>
		</g>
		<g>
			<path class="st3" d="M48.1,112.8c0,0-3.2-18.2,13.3-20.5C61.4,92.3,64.5,106.1,48.1,112.8z"/>
		</g>
		<g>
			<path class="st3" d="M72.2,133.7c0,0-13.4-7.7-6.1-19.5C66.1,114.2,76.7,119.6,72.2,133.7z"/>
		</g>
		<g>
			<path class="st3" d="M91.9,128.5c0,0-15,3.5-17.7-10.2C74.2,118.3,85.6,115.1,91.9,128.5z"/>
		</g>
		<g>
			<path class="st3" d="M228.1,108.7c0,0,10.4-15.3,23.8-5.5C251.9,103.2,244.5,115.4,228.1,108.7z"/>
		</g>
		<g>
			<path class="st3" d="M253.3,85.9c0,0-16.4-8.6-8.1-23.1C245.2,62.8,258.1,68.8,253.3,85.9z"/>
		</g>
		<g>
			<path class="st3" d="M114.5,35.8c0,0-9.1-16.1,5.7-23.8C120.2,12.1,127.8,24.1,114.5,35.8z"/>
		</g>
		<g>
			<path class="st3" d="M125.8,85.6c0,0,4.4-18,20.4-13.4C146.2,72.2,143.5,86.2,125.8,85.6z"/>
		</g>
		<g>
			<path class="st3" d="M96.9,122.9c0,0,1-18.5,17.6-17C114.5,105.9,114.4,120.2,96.9,122.9z"/>
		</g>
		<g>
			<path class="st3" d="M117.2,87.9c0,0-12.3-13.8,0.6-24.4C117.8,63.5,127.8,73.7,117.2,87.9z"/>
		</g>
		<g>
			<path class="st3" d="M81.4,54.3c0,0,18.2,3.3,14.7,19.6C96,73.8,81.9,72,81.4,54.3z"/>
		</g>
		<g>
			<path class="st3" d="M104.5,64.4c0,0-9.4-15.9,5.2-23.9C109.7,40.5,117.5,52.4,104.5,64.4z"/>
		</g>
		<g>
			<path class="st3" d="M73.3,66.4c0,0-8.3,16.5-22.9,8.5C50.4,75,56.1,62,73.3,66.4z"/>
		</g>
		<g>
			<path class="st4" d="M80.7,83.3c0,0-6.5,8.1-13.5,2C67.1,85.3,71.8,78.9,80.7,83.3z"/>
		</g>
		<g>
			<path class="st4" d="M56.5,80.7c0,0-2.5,10-11.5,7.5C45,88.2,46.6,80.4,56.5,80.7z"/>
		</g>
		<g>
			<path class="st4" d="M61.4,110c0,0,2.6,10-6.5,12.1C54.9,122,52.5,114.4,61.4,110z"/>
		</g>
		<g>
			<path class="st4" d="M88.3,78c0,0-8.4,6.1-13.6-1.7C74.8,76.4,81,71.4,88.3,78z"/>
		</g>
		<g>
			<path class="st4" d="M75.1,49.7c0,0-3.2-9.8,5.7-12.4C80.8,37.3,83.7,44.7,75.1,49.7z"/>
		</g>
		<g>
			<path class="st4" d="M85.7,48c0,0-3.2-9.8,5.7-12.4C91.4,35.6,94.2,43,85.7,48z"/>
		</g>
		<g>
			<path class="st4" d="M87.4,100.7c0,0-8.7-5.6-3.3-13.3C84.1,87.5,91,91.5,87.4,100.7z"/>
		</g>
		<g>
			<path class="st4" d="M95.3,96.2c0,0-8.7-5.6-3.3-13.3C91.9,83,98.8,87,95.3,96.2z"/>
		</g>
		<g>
			<path class="st4" d="M90.5,117.3c0,0-10.1-2.3-7.7-11.3C82.7,106,90.6,107.4,90.5,117.3z"/>
		</g>
		<g>
			<path class="st4" d="M152.1,125.9c0,0-9.7,3.6-12.6-5.3C139.5,120.7,146.8,117.6,152.1,125.9z"/>
		</g>
		<g>
			<path class="st4" d="M179.5,94.5c0,0-1.6,10.2-10.8,8.5C168.8,103,169.6,95.1,179.5,94.5z"/>
		</g>
		<g>
			<path class="st4" d="M157.4,114.7c0,0-8.2-6.3-2.2-13.5C155.2,101.2,161.7,105.7,157.4,114.7z"/>
		</g>
		<g>
			<path class="st4" d="M151.5,43.5c0,0-9.7,3.6-12.6-5.3C138.9,38.2,146.2,35.1,151.5,43.5z"/>
		</g>
		<g>
			<path class="st4" d="M155.6,36.1c0,0-9.7,3.6-12.6-5.3C143,30.9,150.4,27.8,155.6,36.1z"/>
		</g>
		<g>
			<path class="st4" d="M136.7,6.9c0,0-5.6,8.7-13.2,3.4C123.5,10.4,127.5,3.5,136.7,6.9z"/>
		</g>
		<g>
			<path class="st4" d="M142.5,20.3c0,0-5.1,9-13,4.1C129.5,24.4,133.1,17.3,142.5,20.3z"/>
		</g>
		<g>
			<path class="st4" d="M148.2,10.4c0,0-5.1,9-13,4.1C135.1,14.5,138.7,7.4,148.2,10.4z"/>
		</g>
		<g>
			<path class="st4" d="M134.5,29.4c0,0-5.1,9-13,4.1C121.5,33.6,125.1,26.5,134.5,29.4z"/>
		</g>
		<g>
			<path class="st4" d="M130.2,39.4c0,0-5.1,9-13,4.1C117.2,43.5,120.7,36.4,130.2,39.4z"/>
		</g>
		<g>
			<path class="st4" d="M94.9,47.5c0,0-0.6-10.3,8.7-10.5C103.7,36.9,104.5,44.9,94.9,47.5z"/>
		</g>
		<g>
			<path class="st4" d="M134.7,59.3c0,0-7.5-7.1-0.9-13.6C133.8,45.6,139.8,50.8,134.7,59.3z"/>
		</g>
		<g>
			<path class="st4" d="M150.4,68.5c0,0-10.1-2.1-7.9-11.1C142.5,57.3,150.4,58.6,150.4,68.5z"/>
		</g>
		<g>
			<path class="st4" d="M154.7,85.3c0,0-8.3-6.2-2.5-13.4C152.2,71.9,158.8,76.3,154.7,85.3z"/>
		</g>
		<g>
			<path class="st4" d="M180.7,86.2c0,0-5.1,9-13,4.1C167.6,90.3,171.2,83.2,180.7,86.2z"/>
		</g>
		<g>
			<path class="st4" d="M197.8,29.3c0,0,9.9-2.9,12.2,6.1C210.1,35.4,202.6,38,197.8,29.3z"/>
		</g>
		<g>
			<path class="st4" d="M178.8,10.3c0,0,9.2-4.7,13.1,3.8C191.9,14.1,185,18,178.8,10.3z"/>
		</g>
		<g>
			<path class="st4" d="M233.8,38.5c0,0-8.2-6.3-2.2-13.5C231.5,25.1,238,29.6,233.8,38.5z"/>
		</g>
		<g>
			<path class="st4" d="M230,53.8c0,0,2.2-10.1,11.2-7.8C241.2,46,239.9,53.9,230,53.8z"/>
		</g>
		<g>
			<path class="st4" d="M188.3,73c0,0-10,2.8-12.1-6.3C176.1,66.7,183.7,64.2,188.3,73z"/>
		</g>
		<g>
			<path class="st3" d="M240.4,81.1c0,0-10.1-2.2-7.8-11.2C232.6,69.9,240.4,71.2,240.4,81.1z"/>
		</g>
		<g>
			<path class="st3" d="M109.8,138.2c0,0-7-7.6,0.1-13.7C109.9,124.6,115.6,130.2,109.8,138.2z"/>
		</g>
		<g>
			<path class="st4" d="M121.8,145.4c0,0-8.8-5.4-3.7-13.2C118.2,132.2,125.1,136,121.8,145.4z"/>
		</g>
		<g>
			<path class="st4" d="M124.3,120.2c0,0,0.6-10.3,9.8-9.5C134.1,110.7,134,118.7,124.3,120.2z"/>
		</g>
		<g>
			<path class="st4" d="M126.1,110.6c0,0,0.6-10.3,9.8-9.5C136,101.1,135.9,109.1,126.1,110.6z"/>
		</g>
		<g>
			<path class="st3" d="M134.3,146.6c0,0-8.8-5.4-3.7-13.2C130.6,133.4,137.6,137.2,134.3,146.6z"/>
		</g>
		<g>
			<path class="st4" d="M197.7,102.5c0,0-10.3,0.5-10.4-8.9C187.3,93.6,195.2,92.9,197.7,102.5z"/>
		</g>
		<g>
			<path class="st4" d="M232.6,125.8c0,0-1.5-10.2,7.7-11.3C240.3,114.5,241.9,122.4,232.6,125.8z"/>
		</g>
		<g>
			<path class="st4" d="M235.1,82.8c0,0,9.6,3.7,6,12.3C241.1,95.1,233.6,92.6,235.1,82.8z"/>
		</g>
		<g>
			<path class="st4" d="M222.1,85.5c0,0,10.3,0,10,9.3C232.1,94.8,224.1,95.2,222.1,85.5z"/>
		</g>
		<g>
			<path class="st4" d="M187.9,139.4c0,0-3.3-9.8,5.6-12.5C193.5,126.9,196.4,134.3,187.9,139.4z"/>
		</g>
		<g>
			<path class="st4" d="M167.4,111.9c0,0,0.8,10.3-8.5,10.7C158.9,122.6,157.9,114.7,167.4,111.9z"/>
		</g>
		<g>
			<path class="st4" d="M165.7,129.5c0,0-2.2,10.1-11.2,7.8C154.5,137.3,155.8,129.5,165.7,129.5z"/>
		</g>
		<g>
			<path class="st4" d="M187.9,83.7c0,0,10.3,0.7,9.3,10C197.2,93.7,189.2,93.5,187.9,83.7z"/>
		</g>
		<g>
			<path class="st4" d="M208.5,76.1c0,0,8.4,6,2.8,13.4C211.3,89.5,204.6,85.2,208.5,76.1z"/>
		</g>
		<g>
			<path class="st4" d="M184.5,75.8c0,0-4.6,9.2-12.8,4.8C171.7,80.6,174.9,73.3,184.5,75.8z"/>
		</g>
		<g>
			<path class="st4" d="M219.5,96.1c0,0-6.5,8-13.5,1.9C205.9,97.9,210.7,91.5,219.5,96.1z"/>
		</g>
		<g>
			<path class="st4" d="M228.1,67.1c0,0-4.8,9.1-12.9,4.5C215.1,71.6,218.5,64.4,228.1,67.1z"/>
		</g>
		<g>
			<path class="st4" d="M217,59.2c0,0,1.8,10.2-7.4,11.5C209.5,70.7,207.8,63,217,59.2z"/>
		</g>
		<g>
			<path class="st4" d="M243.3,64.6c0,0-10.2,1.7-11.4-7.6C232,57,239.8,55.3,243.3,64.6z"/>
		</g>
		<g>
			<path class="st4" d="M192.8,36.7c0,0-4.2,9.5-12.6,5.4C180.3,42.2,183.1,34.7,192.8,36.7z"/>
		</g>
		<g>
			<path class="st4" d="M213,44.1c0,0-9.4,4.4-13-4.2C200,40,207,36.2,213,44.1z"/>
		</g>
		<g>
			<path class="st4" d="M186.8,53.8c0,0-2-10.1,7.2-11.6C194,42.2,195.9,49.9,186.8,53.8z"/>
		</g>
		<g>
			<path class="st4" d="M70,100.6c0,0-1.3-8.3,6.1-9.2C76.2,91.3,77.5,97.7,70,100.6z"/>
		</g>
		<g>
			<path class="st4" d="M198.7,56.9c0,0-6.4-5.4-1.4-11C197.3,45.9,202.5,49.8,198.7,56.9z"/>
		</g>
		<g>
			<path class="st4" d="M186.6,113.6c0,0-7.2-4.3-3.1-10.6C183.5,102.9,189.2,106,186.6,113.6z"/>
		</g>
		<g>
			<path class="st4" d="M189.7,126.2c0,0-7.2-4.3-3.1-10.6C186.6,115.6,192.3,118.6,189.7,126.2z"/>
		</g>
		<g>
			<path class="st4" d="M138.8,129.7c0,0,8.4-0.7,8.7,6.9C147.5,136.5,141.1,137.4,138.8,129.7z"/>
		</g>
		<g>
			<path class="st4" d="M141.3,104.1c0,0,6.4,5.4,1.3,11C142.6,115.1,137.5,111.2,141.3,104.1z"/>
		</g>
		<g>
			<path class="st4" d="M138.6,95.9c0,0,8.3-1.5,9.3,6C147.9,101.9,141.6,103.4,138.6,95.9z"/>
		</g>
		<g>
			<path class="st4" d="M133.2,91.4c0,0,5.6-6.2,11-1C144.2,90.4,140.1,95.4,133.2,91.4z"/>
		</g>
		<g>
			<path class="st4" d="M122.9,101.2c0,0,2.4-8,9.6-5.6C132.4,95.6,130.9,101.8,122.9,101.2z"/>
		</g>
		<path class="st2" d="M198.6,42.2c0.1-11.3-2.7-18.5-8.3-21.3c-8.1-4.1-19.1,2.5-22.7,4.9c-9.1-5.2-16.9-6.4-23.3-3.5
			c-10,4.6-12.3,17.5-12.4,18l0,0c-0.1,0.2-0.1,0.4-0.1,0.6c0,1.1,0.9,2.1,2.1,2.1c1.1,0,2.1-0.9,2.1-2.1
			c0.2-0.9,2.3-11.4,10.1-14.9c5.3-2.4,12.3-1.1,20.6,3.9l1.2,0.7l1.1-0.8c3.4-2.5,13.4-8.4,19.5-5.3c4.1,2.1,6.1,7.9,6,17.4
			c0,0.1,0,0.2,0,0.3c0,1.1,0.9,2.1,2.1,2.1C197.7,44.3,198.6,43.4,198.6,42.2C198.6,42.2,198.6,42.2,198.6,42.2z"/>
		<path class="st2" d="M220.8,75.6c-13.8-7-24.4-8-31.3-3.1c-10.6,7.5-8.4,25.8-8.3,26.6l0,0c0,0,0,0,0,0c0,1.1,0.9,2.1,2.1,2.1
			c1.1,0,2.1-0.9,2.1-2.1c0-0.2,0-0.5-0.1-0.7c-0.2-1.6-1.6-16.8,6.6-22.6c5.7-4,14.9-2.8,27.4,3.6l0,0c0.3,0.2,0.6,0.3,1,0.3
			c1.1,0,2.1-0.9,2.1-2.1C222.3,76.6,221.7,75.8,220.8,75.6z"/>
		<path class="st2" d="M265.9,61.4c-1.7-9.6-9.3-17.5-22.7-23.3c-0.2-3.4-1.3-12.1-8.6-18.9c-7.7-7.2-19.7-10-35.7-8.3
			c-3.1-2.7-15.6-12.4-30.2-10.1c-4.4,0.7-8.5,2.4-12.4,5.2c-10.2-5.8-20.1-7.4-29.5-4.7c-14.7,4.3-23.4,17.9-26,22.4
			c-8.6-1.9-16.2-0.7-22.5,3.6c-11.3,7.8-15.1,23.3-16.2,29.3c-0.3,0.2-0.7,0.4-1,0.6C51,63.9,44,73,41,83.8
			c-1.5,5.4-1.8,12.1-1,17.7c1.4,10.3,7.4,20.8,14.5,28.3c8.6,9,20.2,9.6,31.9,8.2c7.5-0.9,11.3-1.6,13.3-2.2
			c10.3,11.7,20.5,17.3,30.5,16.7c9.4-0.6,15.8-6.5,18.9-9.9c4.4,6.6,9.9,10.7,16.3,12.1c11.9,2.7,22.5-4.7,22.9-5
			c10.1-7,14.4-1.4,19.9,5.6c4.1,5.3,8.8,11.3,16.3,9.6c0.6-0.1,1.2-0.3,1.8-0.5c6.7-2.4,5.3-11.1,4.4-16.8
			c-0.2-1.4-0.5-3.2-0.5-4.1c3.9-1.9,24.1-12.1,27.3-27.5c1.4-6.8-0.7-13.6-6.3-20.2C255.6,91.2,268.6,76.6,265.9,61.4z
			 M253.4,115.1c-3,14.7-25.3,24.8-25.6,24.9c-2.4,1.1-1.9,4.1-1.2,8.2c1,5.8,1.5,11.2-1.7,12.3c-5.5,2-8.7-1.7-13.5-7.8
			c-5.4-7-12.2-15.6-25.5-6.4c-0.1,0.1-9.6,6.6-19.7,4.4c-5.7-1.3-10.6-5.2-14.6-11.6c4.8-6.3,6.7-12.3,5.9-17.6
			c-0.9-5.6-4.6-8.7-5.8-9.6c-0.4-0.4-0.9-0.6-1.4-0.6c-1.1,0-2.1,0.9-2.1,2.1c0,0.7,0.4,1.4,1,1.7l0,0c0,0,3.6,2.3,4.3,7
			c0.6,3.8-0.8,8.2-4.1,13.1l0,0l-0.8,1.2c-0.6,0.9-1.3,1.7-2.1,2.6l0.1,0.1c-2.2,2.6-8.1,8.8-16.7,9.3c-8.4,0.5-17.2-4.3-26.2-14.3
			l0.1-0.1c-0.7-0.7-1.3-1.3-1.9-2c0,0,0,0,0,0l0,0c-4.6-5.1-6.9-9.8-6.6-14.1c0.3-4,2.7-6.5,3.4-7.1c0.1,0,0.1-0.1,0.2-0.1
			c0,0,0.1-0.1,0.1-0.1l0,0c0.3-0.4,0.5-0.8,0.5-1.4c0-1.1-0.9-2.1-2.1-2.1c-0.3,0-0.6,0.1-0.9,0.2l0,0c0,0-0.1,0.1-0.2,0.2
			c-0.2,0.1-0.3,0.2-0.4,0.4c-1.3,1.2-4.3,4.6-4.6,9.8c-0.3,4.7,1.6,9.7,5.6,14.8c-1,0.2-2,0.3-2.9,0.4c-5.5,0.9-11.1,1.5-16.7,2
			c-6.2,0.6-11.6-1.9-16.6-5.4c-13.3-9.3-19.9-29-15.6-44.5c4.4-15.8,21-32.2,48.1-33.1c0,0,0.1,0,0.1,0c1.1,0,2.1-0.9,2.1-2.1
			c0-1.1-0.8-2-1.9-2.1l0,0c0,0-0.1,0-0.1,0c0,0,0,0,0,0c0,0-0.1,0-0.1,0c-9.3,0.3-18.5,2.6-26.5,6.6c1.6-6.4,5.5-17.6,14.1-23.5
			c5.6-3.9,12.6-4.8,20.7-2.7l1.6,0.4l0.7-1.5c0.1-0.2,8.7-17.2,24.3-21.8c7.8-2.3,16.2-1.1,24.9,3.5c-4.2,3.8-8,8.9-11.5,15.3
			L145,26c6.7-12.5,14.9-19.6,24.3-21.2c14.5-2.4,27.3,9.5,27.5,9.6l0.7,0.7l0.9-0.1c15.2-1.8,26.4,0.6,33.3,7.1
			c7.7,7.2,7.4,17.1,7.4,17.2l-0.1,1.4l1.3,0.6c12.8,5.3,20,12.3,21.5,20.7c2.5,14.3-12,29.1-14.6,31.6c-22.5,4.4-28-3.4-28-3.5l0,0
			c-0.3-0.8-1-1.3-1.9-1.3c-1.1,0-2.1,0.9-2.1,2.1c0,0.5,0.2,1,0.5,1.4l0,0c0.2,0.3,1.9,3,7,4.9c6.2,2.3,14.5,2.5,24.7,0.6
			C252.6,103.6,254.5,109.4,253.4,115.1z"/>
		<path class="st2" d="M137.7,95c-5.7-7.1-18.5-5.7-22.7-5c-6.1-8.5-12.7-12.8-19.7-12.8c-9.8,0-16.8,8.5-18.4,10.7
			c-0.4,0.4-0.7,0.9-0.7,1.5c0,1.1,0.9,2.1,2.1,2.1c0.6,0,1.2-0.3,1.6-0.8l0,0c0.1-0.1,6.6-9.4,15.4-9.4c5.9,0,11.6,4.1,17.1,12.1
			l0.8,1.1l1.4-0.3c4.1-0.9,15.7-2,20,3.3c2.9,3.6,2.2,9.9-1.8,18.6l0,0c-0.2,0.3-0.3,0.7-0.3,1.1c0,1.1,0.9,2.1,2.1,2.1
			c0.9,0,1.7-0.6,2-1.5C141.2,107.6,141.6,99.9,137.7,95z"/>
	</g>
</g>
</svg>
