<?xml version="1.0" encoding="utf-8"?>
<!-- Generator: Adobe Illustrator 21.0.0, SVG Export Plug-In . SVG Version: 6.00 Build 0)  -->
<svg version="1.1" id="Layer_1" xmlns="http://www.w3.org/2000/svg" xmlns:xlink="http://www.w3.org/1999/xlink" x="0px" y="0px"
	 viewBox="0 0 255.9 204.5" style="enable-background:new 0 0 255.9 204.5;" xml:space="preserve">
<style type="text/css">
	.st0{fill:#EDEDED;}
	.st1{fill:#685989;}
	.st2{fill:#864D7D;}
	.st3{fill:#BEDBC3;}
	.st4{fill:#9CC1C8;}
	.st5{opacity:0.5;fill:#9CC1C8;}
	.st6{fill:#D3DEE4;}
	.st7{fill:#007271;}
	.st8{fill:#369999;}
	.st9{fill:#4D2B2B;}
	.st10{fill:#3A1F1E;}
	.st11{fill:#E95B4E;}
	.st12{fill:#EE8268;}
	.st13{fill:#C83D36;}
	.st14{fill:#F6B99F;}
	.st15{fill:#EEE9DC;}
	.st16{fill:#F19775;}
	.st17{fill:#6B3E3F;}
	.st18{fill:#C7BDB7;}
	.st19{fill:#D1D5CA;}
	.st20{fill:#2B3668;}
	.st21{fill:#EE827D;}
	.st22{fill:#F87481;}
	.st23{fill:#FFFFFF;stroke:#FFFFFF;stroke-miterlimit:10;}
	.st24{fill:#FFFFFF;}
	.st25{opacity:0.3;clip-path:url(#SVGID_2_);}
	.st26{opacity:0.3;clip-path:url(#SVGID_4_);}
	.st27{opacity:0.3;clip-path:url(#SVGID_6_);}
	.st28{fill:#7087AF;}
	.st29{clip-path:url(#SVGID_8_);}
	.st30{fill:#B2555F;}
	.st31{fill:#47284F;}
	.st32{fill:#FFBF9B;}
	.st33{fill:#FFA687;}
	.st34{fill:#72426B;}
	.st35{fill:#FFC9AC;}
	.st36{fill:#C19884;}
	.st37{fill:#FFA68D;}
	.st38{fill:#13A6CE;}
	.st39{fill:#4E2447;}
	.st40{opacity:0.3;}
	.st41{fill:#1A2E35;}
	.st42{fill:#FFBF9D;}
	.st43{fill:#FF9A6C;}
	.st44{fill:#375A64;}
	.st45{fill:#E1E1E1;}
	.st46{opacity:0.2;}
	.st47{fill:#FF4F5B;}
	.st48{fill:#EBEBEB;}
	.st49{fill:#AA6550;}
	.st50{fill:#FAFAFA;}
</style>
<g>
	<g>
		<g>
			<path class="st24" d="M19.1,170.4c-0.7,0-1.3-0.6-1.3-1.3v-14l-6.5,8.9c-0.2,0.3-0.6,0.5-1.1,0.5c-0.4,0-0.8-0.2-1.1-0.5L2.6,155
				v14c0,0.7-0.6,1.3-1.3,1.3c-0.7,0-1.3-0.6-1.3-1.3V151c0-0.6,0.4-1.1,0.9-1.3c0.5-0.2,1.1,0,1.5,0.5l7.8,10.7l7.8-10.7
				c0.3-0.4,0.9-0.7,1.5-0.5c0.5,0.2,0.9,0.7,0.9,1.3v18.1C20.4,169.8,19.8,170.4,19.1,170.4z"/>
			<path class="st24" d="M23.9,170.5c-0.7,0-1.3-0.6-1.3-1.3v-18.1c0-0.7,0.6-1.3,1.3-1.3c0.7,0,1.3,0.6,1.3,1.3v18.1
				C25.2,169.9,24.7,170.5,23.9,170.5z"/>
			<path class="st24" d="M38.3,170.8c-1.5,0-2.9-0.3-4.2-0.9c-1.3-0.6-2.4-1.3-3.4-2.3c-1-1-1.8-2.1-2.3-3.4
				c-0.6-1.3-0.8-2.7-0.8-4.1c0-1.4,0.3-2.8,0.8-4.2c0.6-1.3,1.3-2.4,2.3-3.4c1-1,2.2-1.8,3.5-2.3c1.3-0.6,2.8-0.8,4.2-0.8
				c2.4,0,4.6,0.7,6.4,2.2c0.6,0.4,0.7,1.3,0.3,1.8c-0.4,0.6-1.3,0.7-1.8,0.3c-1.4-1.1-3.1-1.6-4.8-1.6c-1.1,0-2.2,0.2-3.2,0.6
				c-1,0.4-1.9,1-2.6,1.8c-0.7,0.7-1.3,1.6-1.8,2.6c-0.4,1-0.6,2-0.6,3.1c0,1.1,0.2,2.1,0.6,3.1c0.4,1,1,1.8,1.8,2.6
				c1.6,1.6,3.6,2.4,5.8,2.4c1,0,1.9-0.2,2.8-0.5c0.9-0.3,1.7-0.8,2.4-1.4c0.6-0.5,1.4-0.4,1.8,0.2c0.5,0.6,0.4,1.4-0.2,1.8
				c-0.9,0.8-2,1.4-3.1,1.8C40.8,170.6,39.6,170.8,38.3,170.8z"/>
			<path class="st24" d="M64.4,151v18.1c0,0.7-0.6,1.3-1.3,1.3c-0.7,0-1.3-0.6-1.3-1.3v-7.9H50.4v7.9c0,0.7-0.6,1.3-1.3,1.3
				s-1.3-0.6-1.3-1.3V151c0-0.7,0.6-1.3,1.3-1.3s1.3,0.6,1.3,1.3v7.5h11.4V151c0-0.7,0.6-1.3,1.3-1.3
				C63.8,149.7,64.4,150.3,64.4,151z"/>
			<path class="st24" d="M81.7,169.1c0,0.7-0.6,1.3-1.3,1.3H67.8c-0.7,0-1.3-0.6-1.3-1.3v-18.1c0-0.7,0.6-1.3,1.3-1.3h12.3
				c0.7,0,1.3,0.6,1.3,1.3c0,0.7-0.6,1.3-1.3,1.3h-11v6.4h9.8c0.7,0,1.3,0.6,1.3,1.3c0,0.7-0.6,1.3-1.3,1.3h-9.8v6.4h11.3
				C81.1,167.8,81.7,168.4,81.7,169.1z"/>
			<path class="st24" d="M96.6,170.5H85.1c-0.7,0-1.3-0.6-1.3-1.3v-18.1c0-0.7,0.6-1.3,1.3-1.3c0.7,0,1.3,0.6,1.3,1.3v16.8h10.2
				c0.7,0,1.3,0.6,1.3,1.3S97.4,170.5,96.6,170.5z"/>
			<path class="st24" d="M112.9,170.5h-11.5c-0.7,0-1.3-0.6-1.3-1.3v-18.1c0-0.7,0.6-1.3,1.3-1.3c0.7,0,1.3,0.6,1.3,1.3v16.8h10.2
				c0.7,0,1.3,0.6,1.3,1.3S113.6,170.5,112.9,170.5z"/>
			<path class="st24" d="M131.5,169.1c0,0.7-0.6,1.3-1.3,1.3h-12.6c-0.7,0-1.3-0.6-1.3-1.3v-18.1c0-0.7,0.6-1.3,1.3-1.3h12.3
				c0.7,0,1.3,0.6,1.3,1.3c0,0.7-0.6,1.3-1.3,1.3h-11v6.4h9.8c0.7,0,1.3,0.6,1.3,1.3c0,0.7-0.6,1.3-1.3,1.3h-9.8v6.4h11.3
				C130.9,167.8,131.5,168.4,131.5,169.1z"/>
			<path class="st24" d="M154.2,170.8c-1.5,0-2.9-0.3-4.2-0.9c-1.3-0.6-2.4-1.3-3.4-2.3c-1-1-1.8-2.1-2.3-3.4
				c-0.6-1.3-0.8-2.7-0.8-4.1c0-1.4,0.3-2.8,0.8-4.2c0.6-1.3,1.3-2.4,2.3-3.4c1-1,2.2-1.8,3.5-2.3c1.3-0.6,2.8-0.8,4.2-0.8
				c2.4,0,4.6,0.7,6.4,2.2c0.6,0.4,0.7,1.3,0.3,1.8c-0.4,0.6-1.3,0.7-1.8,0.3c-1.4-1.1-3.1-1.6-4.8-1.6c-1.1,0-2.2,0.2-3.2,0.6
				c-1,0.4-1.9,1-2.6,1.8c-0.7,0.7-1.3,1.6-1.8,2.6c-0.4,1-0.6,2-0.6,3.1c0,1.1,0.2,2.1,0.6,3.1c0.4,1,1,1.8,1.8,2.6
				c1.6,1.6,3.6,2.4,5.8,2.4c1,0,1.9-0.2,2.8-0.5c0.9-0.3,1.7-0.8,2.4-1.4c0.6-0.5,1.4-0.4,1.8,0.2c0.5,0.6,0.4,1.4-0.2,1.8
				c-0.9,0.8-2,1.4-3.1,1.8C156.7,170.6,155.5,170.8,154.2,170.8z"/>
			<path class="st24" d="M174.4,170.9c-1.4,0-2.9-0.3-4.2-0.9c-1.3-0.6-2.5-1.3-3.5-2.3c-1-1-1.8-2.1-2.3-3.4
				c-0.6-1.3-0.8-2.7-0.8-4.1c0-1.4,0.3-2.8,0.9-4.2c0.6-1.3,1.3-2.4,2.3-3.4c1-1,2.2-1.8,3.5-2.3c1.3-0.6,2.8-0.8,4.2-0.8
				c2.9,0,5.6,1.1,7.6,3.2c1,1,1.7,2.1,2.2,3.4c0.6,1.3,0.8,2.7,0.8,4.1c0,1.4-0.3,2.8-0.8,4.1c-0.5,1.3-1.3,2.5-2.3,3.4
				C179.9,169.8,177.3,170.9,174.4,170.9z M174.4,152.1c-1.1,0-2.2,0.2-3.2,0.6c-1,0.4-1.9,1-2.6,1.8c-0.8,0.7-1.4,1.6-1.8,2.6
				c-0.4,1-0.7,2-0.7,3.1c0,1.1,0.2,2.1,0.6,3.1c0.4,1,1,1.8,1.8,2.6c1.6,1.6,3.6,2.4,5.8,2.4c2.2,0,4.2-0.9,5.7-2.4
				c0.7-0.7,1.3-1.6,1.7-2.6c0.4-1,0.6-2.1,0.6-3.1c0-2.2-0.8-4.2-2.3-5.7C178.6,152.9,176.6,152.1,174.4,152.1z"/>
			<path class="st24" d="M202.3,169.1c0,0.7-0.6,1.3-1.3,1.3h-12.6c-0.7,0-1.3-0.6-1.3-1.3v-18.1c0-0.7,0.6-1.3,1.3-1.3h12.3
				c0.7,0,1.3,0.6,1.3,1.3c0,0.7-0.6,1.3-1.3,1.3h-11v6.4h9.8c0.7,0,1.3,0.6,1.3,1.3c0,0.7-0.6,1.3-1.3,1.3h-9.8v6.4h11.3
				C201.7,167.8,202.3,168.4,202.3,169.1z"/>
			<path class="st24" d="M217.2,170.5h-11.5c-0.7,0-1.3-0.6-1.3-1.3v-18.1c0-0.7,0.6-1.3,1.3-1.3c0.7,0,1.3,0.6,1.3,1.3v16.8h10.2
				c0.7,0,1.3,0.6,1.3,1.3S217.9,170.5,217.2,170.5z"/>
			<path class="st24" d="M233.4,170.5h-11.5c-0.7,0-1.3-0.6-1.3-1.3v-18.1c0-0.7,0.6-1.3,1.3-1.3c0.7,0,1.3,0.6,1.3,1.3v16.8h10.2
				c0.7,0,1.3,0.6,1.3,1.3S234.1,170.5,233.4,170.5z"/>
			<path class="st24" d="M245.2,170.9c-1.4,0-2.9-0.3-4.2-0.9c-1.3-0.6-2.5-1.3-3.5-2.3c-1-1-1.8-2.1-2.3-3.4
				c-0.6-1.3-0.8-2.7-0.8-4.1c0-1.4,0.3-2.8,0.9-4.2c0.6-1.3,1.3-2.4,2.3-3.4c1-1,2.2-1.8,3.5-2.3c1.3-0.6,2.8-0.8,4.2-0.8
				c2.9,0,5.6,1.1,7.6,3.2c1,1,1.7,2.1,2.2,3.4c0.6,1.3,0.8,2.7,0.8,4.1c0,1.4-0.3,2.8-0.8,4.1c-0.5,1.3-1.3,2.5-2.3,3.4
				C250.7,169.8,248.1,170.9,245.2,170.9z M245.2,152.1c-1.1,0-2.2,0.2-3.2,0.6c-1,0.4-1.9,1-2.6,1.8c-0.8,0.7-1.4,1.6-1.8,2.6
				c-0.4,1-0.7,2-0.7,3.1c0,1.1,0.2,2.1,0.6,3.1c0.4,1,1,1.8,1.8,2.6c1.6,1.6,3.6,2.4,5.8,2.4c2.2,0,4.2-0.9,5.7-2.4
				c0.7-0.7,1.3-1.6,1.7-2.6c0.4-1,0.6-2.1,0.6-3.1c0-2.2-0.8-4.2-2.3-5.7C249.4,152.9,247.4,152.1,245.2,152.1z"/>
		</g>
	</g>
	<g>
		<g>
			<path class="st24" d="M60.8,185.9c2.8,0,4,1.8,4,4.5v2c0,2.9-1.3,4.4-4.3,4.4h-2.3v7.6H57v-18.4H60.8z M60.5,195.6
				c2.1,0,3.1-0.9,3.1-3.2v-2.2c0-2-0.7-3.3-2.7-3.3h-2.6v8.6H60.5z"/>
			<path class="st24" d="M74.4,190.3v0.4h-1.2v-0.5c0-1.9-0.7-3.4-2.7-3.4c-2,0-2.7,1.4-2.7,3.4c0,4.5,6.7,4.6,6.7,9.6
				c0,2.7-1.2,4.6-4,4.6c-2.8,0-4-1.9-4-4.6v-0.9h1.2v1c0,2,0.8,3.4,2.8,3.4c2,0,2.8-1.4,2.8-3.4c0-4.4-6.7-4.5-6.7-9.6
				c0-2.8,1.2-4.6,3.9-4.6C73.2,185.7,74.4,187.6,74.4,190.3z"/>
			<path class="st24" d="M77.5,185.9v18.4h-1.2v-18.4H77.5z"/>
			<path class="st24" d="M87.5,190.4v1.5h-1.2v-1.6c0-2-0.8-3.5-2.8-3.5c-2,0-2.8,1.5-2.8,3.5v9.6c0,2,0.8,3.5,2.8,3.5
				c2,0,2.8-1.5,2.8-3.5v-2.2h1.2v2.1c0,2.7-1.2,4.7-4,4.7s-4-2-4-4.7v-9.4c0-2.7,1.2-4.7,4-4.7S87.5,187.7,87.5,190.4z"/>
			<path class="st24" d="M97.5,190.4v9.4c0,2.7-1.2,4.7-4.1,4.7c-2.8,0-4-2-4-4.7v-9.4c0-2.7,1.2-4.7,4-4.7
				C96.3,185.7,97.5,187.7,97.5,190.4z M90.6,190.3v9.6c0,2,0.8,3.5,2.8,3.5c2.1,0,2.9-1.5,2.9-3.5v-9.6c0-2-0.8-3.5-2.9-3.5
				C91.4,186.8,90.6,188.3,90.6,190.3z M95.6,182.1l-2.2,2.5h-0.9l1.9-2.5H95.6z"/>
			<path class="st24" d="M99.5,204.3v-18.4h1.2v17.3h5.8v1.1H99.5z"/>
			<path class="st24" d="M108.3,190.4c0-2.7,1.2-4.7,4-4.7c2.8,0,4.1,2,4.1,4.7v9.4c0,2.7-1.2,4.7-4.1,4.7c-2.8,0-4-2-4-4.7V190.4z
				 M109.5,199.9c0,2,0.8,3.5,2.8,3.5c2.1,0,2.9-1.5,2.9-3.5v-9.6c0-2-0.8-3.5-2.9-3.5c-2,0-2.8,1.5-2.8,3.5V199.9z"/>
			<path class="st24" d="M126.3,190.4v1.4h-1.2v-1.4c0-2-0.8-3.5-2.8-3.5c-2,0-2.8,1.5-2.8,3.5v9.6c0,2,0.8,3.5,2.8,3.5
				c2,0,2.8-1.5,2.8-3.5v-4h-2.5v-1.1h3.6v5c0,2.7-1.2,4.7-4,4.7s-4-2-4-4.7v-9.4c0-2.7,1.2-4.7,4-4.7S126.3,187.7,126.3,190.4z"/>
			<path class="st24" d="M130.1,200.2l-0.9,4.1H128l4-18.5h1.8l4.1,18.5h-1.2l-0.9-4.1H130.1z M130.3,199.2h5.4l-2.7-11.9
				L130.3,199.2z"/>
			<path class="st24" d="M151.8,190.4v1.5h-1.2v-1.6c0-2-0.8-3.5-2.8-3.5c-2,0-2.8,1.5-2.8,3.5v9.6c0,2,0.8,3.5,2.8,3.5
				c2,0,2.8-1.5,2.8-3.5v-2.2h1.2v2.1c0,2.7-1.2,4.7-4,4.7s-4-2-4-4.7v-9.4c0-2.7,1.2-4.7,4-4.7S151.8,187.7,151.8,190.4z"/>
			<path class="st24" d="M153.7,204.3v-18.4h1.2v17.3h5.8v1.1H153.7z"/>
			<path class="st24" d="M164,182.3h1.3l-2.2,2.5h-0.9L164,182.3z M162.6,185.9h1.2v18.4h-1.2V185.9z"/>
			<path class="st24" d="M167,204.3h-1.1v-18.4h1.6l5.5,15.6v-15.6h1.1v18.4h-1.3l-5.8-16.4V204.3z"/>
			<path class="st24" d="M177.4,185.9v18.4h-1.2v-18.4H177.4z"/>
			<path class="st24" d="M187.4,190.4v1.5h-1.2v-1.6c0-2-0.8-3.5-2.8-3.5c-2,0-2.8,1.5-2.8,3.5v9.6c0,2,0.8,3.5,2.8,3.5
				c2,0,2.8-1.5,2.8-3.5v-2.2h1.2v2.1c0,2.7-1.2,4.7-4,4.7s-4-2-4-4.7v-9.4c0-2.7,1.2-4.7,4-4.7S187.4,187.7,187.4,190.4z"/>
			<path class="st24" d="M191.1,200.2l-0.9,4.1h-1.1l4-18.5h1.8l4.1,18.5h-1.2l-0.9-4.1H191.1z M191.3,199.2h5.4l-2.7-11.9
				L191.3,199.2z"/>
		</g>
	</g>
	<g>
		<g>
			<path class="st24" d="M179.4,45.3c0,0-4.5,14.8-17.7,10.3C161.7,55.6,164.6,44,179.4,45.3z"/>
		</g>
		<g>
			<path class="st24" d="M193.5,83.7c0,0-4.5,14.8-17.7,10.3C175.8,94,178.7,82.4,193.5,83.7z"/>
		</g>
		<g>
			<path class="st24" d="M146.3,89.5c0,0,11.1,10.7,1.1,20.4C147.4,109.9,138.4,102.1,146.3,89.5z"/>
		</g>
		<g>
			<path class="st24" d="M154.9,114.8c0,0-5.8,14.3-18.5,8.7C136.4,123.5,140.3,112.3,154.9,114.8z"/>
		</g>
		<g>
			<path class="st24" d="M139.5,38c0,0,3.6,15-10.1,17.8C129.5,55.8,126.2,44.3,139.5,38z"/>
		</g>
		<g>
			<path class="st24" d="M140.1,69.6c0,0-1.8,15.4-15.5,13.3C124.6,82.9,125.4,71.1,140.1,69.6z"/>
		</g>
		<g>
			<path class="st24" d="M159.4,23.1c0,0-5.2,12-15.9,7C143.5,30.1,147.1,20.6,159.4,23.1z"/>
		</g>
		<g>
			<path class="st24" d="M141.3,33.5c0,0-13.1,1-13.6-10.8C127.8,22.7,137.8,21.4,141.3,33.5z"/>
		</g>
		<g>
			<path class="st24" d="M146.8,4.8c0,0-3.8,15-17.1,11.1C129.6,15.9,132,4.3,146.8,4.8z"/>
		</g>
		<g>
			<path class="st24" d="M191.9,19.6c0,0-12.3,9.3-20.3-2C171.6,17.6,180.7,9.9,191.9,19.6z"/>
		</g>
		<g>
			<path class="st24" d="M173,107.8c0,0-15.3-2.2-12.8-15.9C160.2,91.8,172,93,173,107.8z"/>
		</g>
		<g>
			<path class="st24" d="M190.7,96.4c0,0,1.8,15.4-12.1,16.5C178.6,112.9,176.6,101.2,190.7,96.4z"/>
		</g>
		<g>
			<path class="st24" d="M217.9,61.6c0,0-14.1-6.3-8-18.8C209.9,42.8,221,47.1,217.9,61.6z"/>
		</g>
		<g>
			<path class="st24" d="M187.7,46.9c0,0-12.8-8.7-4.6-19.9C183.2,26.9,193.3,33.1,187.7,46.9z"/>
		</g>
		<g>
			<path class="st24" d="M40.2,94.3c0,0-2.7-15.2,11.1-17.1C51.3,77.1,54,88.8,40.2,94.3z"/>
		</g>
		<g>
			<path class="st24" d="M60.4,111.8c0,0-11.2-6.4-5.1-16.3C55.3,95.5,64.2,100,60.4,111.8z"/>
		</g>
		<g>
			<path class="st24" d="M76.8,107.4c0,0-12.6,2.9-14.8-8.5C62,98.9,71.6,96.2,76.8,107.4z"/>
		</g>
		<g>
			<path class="st24" d="M190.7,90.9c0,0,8.7-12.8,19.9-4.6C210.7,86.3,204.5,96.5,190.7,90.9z"/>
		</g>
		<g>
			<path class="st24" d="M211.8,71.8c0,0-13.7-7.2-6.8-19.3C205,52.5,215.8,57.5,211.8,71.8z"/>
		</g>
		<g>
			<path class="st24" d="M95.7,30c0,0-7.6-13.5,4.7-19.9C100.5,10.1,106.8,20.2,95.7,30z"/>
		</g>
		<g>
			<path class="st24" d="M105.2,71.6c0,0,3.7-15,17.1-11.2C122.2,60.4,120,72,105.2,71.6z"/>
		</g>
		<g>
			<path class="st24" d="M81,102.8c0,0,0.9-15.4,14.7-14.2C95.7,88.6,95.7,100.5,81,102.8z"/>
		</g>
		<g>
			<path class="st24" d="M98,73.5c0,0-10.3-11.6,0.5-20.4C98.5,53.1,106.8,61.6,98,73.5z"/>
		</g>
		<g>
			<path class="st24" d="M68.1,45.4c0,0,15.2,2.8,12.3,16.4C80.3,61.7,68.5,60.2,68.1,45.4z"/>
		</g>
		<g>
			<path class="st24" d="M87.3,53.8c0,0-7.9-13.3,4.4-20C91.7,33.9,98.2,43.8,87.3,53.8z"/>
		</g>
		<g>
			<path class="st24" d="M61.3,55.6c0,0-6.9,13.8-19.2,7.1C42.1,62.7,46.9,51.8,61.3,55.6z"/>
		</g>
		<g>
			<path class="st24" d="M67.5,69.7c0,0-5.4,6.7-11.3,1.7C56.1,71.3,60.1,66,67.5,69.7z"/>
		</g>
		<g>
			<path class="st24" d="M47.2,67.5c0,0-2.1,8.4-9.6,6.2C37.6,73.8,39,67.2,47.2,67.5z"/>
		</g>
		<g>
			<path class="st24" d="M51.3,92c0,0,2.2,8.4-5.4,10.1C45.9,102,43.9,95.7,51.3,92z"/>
		</g>
		<g>
			<path class="st24" d="M73.9,65.3c0,0-7,5.1-11.4-1.4C62.5,63.9,67.7,59.7,73.9,65.3z"/>
		</g>
		<g>
			<path class="st24" d="M62.8,41.6c0,0-2.7-8.2,4.8-10.4C67.6,31.2,70,37.4,62.8,41.6z"/>
		</g>
		<g>
			<path class="st24" d="M71.6,40.1c0,0-2.7-8.2,4.8-10.4C76.4,29.8,78.8,36,71.6,40.1z"/>
		</g>
		<g>
			<path class="st24" d="M73.1,84.2c0,0-7.3-4.7-2.8-11.1C70.3,73.2,76.1,76.5,73.1,84.2z"/>
		</g>
		<g>
			<path class="st24" d="M79.7,80.5c0,0-7.3-4.7-2.8-11.1C76.9,69.4,82.6,72.7,79.7,80.5z"/>
		</g>
		<g>
			<path class="st24" d="M75.6,98.1c0,0-8.4-1.9-6.5-9.4C69.2,88.6,75.7,89.8,75.6,98.1z"/>
		</g>
		<g>
			<path class="st24" d="M127.2,105.3c0,0-8.1,3-10.5-4.4C116.6,100.9,122.7,98.3,127.2,105.3z"/>
		</g>
		<g>
			<path class="st24" d="M150.1,79c0,0-1.3,8.5-9,7.1C141.1,86.1,141.8,79.5,150.1,79z"/>
		</g>
		<g>
			<path class="st24" d="M131.6,95.9c0,0-6.8-5.3-1.9-11.3C129.8,84.6,135.2,88.4,131.6,95.9z"/>
		</g>
		<g>
			<path class="st24" d="M126.7,36.4c0,0-8.1,3-10.5-4.4C116.1,32,122.3,29.4,126.7,36.4z"/>
		</g>
		<g>
			<path class="st24" d="M130.1,30.2c0,0-8.1,3-10.5-4.4C119.6,25.8,125.7,23.2,130.1,30.2z"/>
		</g>
		<g>
			<path class="st24" d="M114.3,5.8c0,0-4.7,7.3-11.1,2.9C103.3,8.7,106.6,2.9,114.3,5.8z"/>
		</g>
		<g>
			<path class="st24" d="M119.2,17c0,0-4.3,7.5-10.9,3.4C108.3,20.4,111.3,14.5,119.2,17z"/>
		</g>
		<g>
			<path class="st24" d="M123.9,8.7c0,0-4.3,7.5-10.9,3.4C113,12.1,116,6.2,123.9,8.7z"/>
		</g>
		<g>
			<path class="st24" d="M112.5,24.6c0,0-4.3,7.5-10.9,3.4C101.6,28.1,104.6,22.1,112.5,24.6z"/>
		</g>
		<g>
			<path class="st24" d="M108.9,32.9c0,0-4.3,7.5-10.9,3.4C98,36.4,101,30.4,108.9,32.9z"/>
		</g>
		<g>
			<path class="st24" d="M79.4,39.7c0,0-0.5-8.6,7.3-8.8C86.7,30.9,87.4,37.5,79.4,39.7z"/>
		</g>
		<g>
			<path class="st24" d="M112.7,49.6c0,0-6.3-5.9-0.8-11.4C111.9,38.1,116.9,42.5,112.7,49.6z"/>
		</g>
		<g>
			<path class="st24" d="M125.8,57.3c0,0-8.5-1.7-6.6-9.3C119.1,48,125.7,49,125.8,57.3z"/>
		</g>
		<g>
			<path class="st24" d="M129.3,71.3c0,0-6.9-5.1-2.1-11.2C127.2,60.1,132.8,63.8,129.3,71.3z"/>
		</g>
		<g>
			<path class="st24" d="M151.1,72.1c0,0-4.3,7.5-10.9,3.4C140.2,75.5,143.2,69.6,151.1,72.1z"/>
		</g>
		<g>
			<path class="st24" d="M165.4,24.5c0,0,8.3-2.5,10.2,5.1C175.7,29.6,169.4,31.8,165.4,24.5z"/>
		</g>
		<g>
			<path class="st24" d="M149.5,8.6c0,0,7.7-3.9,11,3.2C160.5,11.8,154.7,15.1,149.5,8.6z"/>
		</g>
		<g>
			<path class="st24" d="M195.5,32.2c0,0-6.8-5.3-1.9-11.3C193.6,21,199.1,24.8,195.5,32.2z"/>
		</g>
		<g>
			<path class="st24" d="M192.3,45c0,0,1.8-8.4,9.4-6.5C201.7,38.5,200.6,45,192.3,45z"/>
		</g>
		<g>
			<path class="st24" d="M157.4,61c0,0-8.3,2.3-10.1-5.3C147.3,55.8,153.6,53.7,157.4,61z"/>
		</g>
		<g>
			<path class="st24" d="M201,67.8c0,0-8.5-1.8-6.5-9.4C194.5,58.4,201.1,59.5,201,67.8z"/>
		</g>
		<g>
			<path class="st24" d="M91.8,115.6c0,0-5.8-6.4,0.1-11.4C91.9,104.2,96.6,108.9,91.8,115.6z"/>
		</g>
		<g>
			<path class="st24" d="M101.9,121.6c0,0-7.4-4.5-3.1-11C98.8,110.5,104.6,113.7,101.9,121.6z"/>
		</g>
		<g>
			<path class="st24" d="M103.9,100.5c0,0,0.5-8.6,8.2-7.9C112.1,92.6,112.1,99.2,103.9,100.5z"/>
		</g>
		<g>
			<path class="st24" d="M105.5,92.5c0,0,0.5-8.6,8.2-7.9C113.7,84.5,113.7,91.2,105.5,92.5z"/>
		</g>
		<g>
			<path class="st24" d="M112.3,122.6c0,0-7.4-4.5-3.1-11C109.2,111.5,115.1,114.7,112.3,122.6z"/>
		</g>
		<g>
			<path class="st24" d="M165.3,85.7c0,0-8.6,0.4-8.7-7.4C156.6,78.3,163.3,77.7,165.3,85.7z"/>
		</g>
		<g>
			<path class="st24" d="M194.5,105.2c0,0-1.3-8.6,6.4-9.4C200.9,95.8,202.2,102.3,194.5,105.2z"/>
		</g>
		<g>
			<path class="st24" d="M196.6,69.3c0,0,8.1,3.1,5,10.3C201.6,79.5,195.3,77.4,196.6,69.3z"/>
		</g>
		<g>
			<path class="st24" d="M185.7,71.5c0,0,8.6,0,8.4,7.8C194.1,79.3,187.4,79.6,185.7,71.5z"/>
		</g>
		<g>
			<path class="st24" d="M157.1,116.5c0,0-2.8-8.2,4.7-10.4C161.8,106.1,164.2,112.3,157.1,116.5z"/>
		</g>
		<g>
			<path class="st24" d="M140,93.6c0,0,0.7,8.6-7.1,9C132.9,102.6,132,95.9,140,93.6z"/>
		</g>
		<g>
			<path class="st24" d="M138.6,108.3c0,0-1.8,8.4-9.4,6.5C129.2,114.8,130.3,108.3,138.6,108.3z"/>
		</g>
		<g>
			<path class="st24" d="M157.1,70c0,0,8.6,0.6,7.8,8.3C164.9,78.3,158.2,78.2,157.1,70z"/>
		</g>
		<g>
			<path class="st24" d="M174.4,63.6c0,0,7.1,5,2.3,11.2C176.7,74.8,171.1,71.3,174.4,63.6z"/>
		</g>
		<g>
			<path class="st24" d="M154.3,63.4c0,0-3.9,7.7-10.7,4C143.5,67.4,146.2,61.3,154.3,63.4z"/>
		</g>
		<g>
			<path class="st24" d="M183.5,80.3c0,0-5.5,6.7-11.3,1.6C172.2,81.9,176.2,76.5,183.5,80.3z"/>
		</g>
		<g>
			<path class="st24" d="M190.7,56.1c0,0-4,7.6-10.8,3.8C179.9,59.8,182.7,53.8,190.7,56.1z"/>
		</g>
		<g>
			<path class="st24" d="M181.4,49.5c0,0,1.5,8.5-6.2,9.6C175.2,59.1,173.7,52.6,181.4,49.5z"/>
		</g>
		<g>
			<path class="st24" d="M203.5,54c0,0-8.5,1.4-9.5-6.3C194,47.7,200.5,46.3,203.5,54z"/>
		</g>
		<g>
			<path class="st24" d="M161.2,30.7c0,0-3.5,7.9-10.5,4.5C150.7,35.3,153.1,29,161.2,30.7z"/>
		</g>
		<g>
			<path class="st24" d="M178.1,36.9c0,0-7.8,3.7-10.9-3.5C167.2,33.4,173.1,30.3,178.1,36.9z"/>
		</g>
		<g>
			<path class="st24" d="M156.2,45c0,0-1.7-8.5,6-9.7C162.2,35.3,163.8,41.8,156.2,45z"/>
		</g>
		<g>
			<path class="st24" d="M58.5,84.1c0,0-1.1-6.9,5.1-7.7C63.7,76.4,64.8,81.7,58.5,84.1z"/>
		</g>
		<g>
			<path class="st24" d="M166.2,47.6c0,0-5.4-4.5-1.2-9.2C165,38.4,169.3,41.6,166.2,47.6z"/>
		</g>
		<g>
			<path class="st24" d="M156,95c0,0-6-3.6-2.6-8.9C153.4,86.1,158.2,88.6,156,95z"/>
		</g>
		<g>
			<path class="st24" d="M158.6,105.5c0,0-6-3.6-2.6-8.9C156,96.6,160.8,99.2,158.6,105.5z"/>
		</g>
		<g>
			<path class="st24" d="M116,108.4c0,0,7-0.6,7.3,5.8C123.3,114.2,118,114.9,116,108.4z"/>
		</g>
		<g>
			<path class="st24" d="M118.2,87c0,0,5.3,4.5,1.1,9.2C119.3,96.2,115,93,118.2,87z"/>
		</g>
		<g>
			<path class="st24" d="M115.9,80.2c0,0,6.9-1.2,7.8,5C123.6,85.2,118.4,86.4,115.9,80.2z"/>
		</g>
		<g>
			<path class="st24" d="M111.4,76.4c0,0,4.7-5.2,9.2-0.8C120.6,75.6,117.2,79.8,111.4,76.4z"/>
		</g>
		<g>
			<path class="st24" d="M102.7,84.6c0,0,2-6.7,8-4.7C110.7,79.9,109.4,85.2,102.7,84.6z"/>
		</g>
		<path class="st24" d="M166.1,35.3c0.1-9.4-2.2-15.4-6.9-17.8c-6.8-3.4-16,2.1-19,4.1c-7.6-4.4-14.1-5.3-19.5-2.9
			c-8.4,3.8-10.3,14.6-10.4,15.1l0,0c-0.1,0.2-0.1,0.3-0.1,0.5c0,1,0.8,1.7,1.7,1.7c1,0,1.7-0.8,1.7-1.7c0.1-0.7,1.9-9.5,8.4-12.5
			c4.5-2,10.2-0.9,17.2,3.3l1,0.6l0.9-0.7c2.8-2.1,11.2-7,16.3-4.4c3.4,1.7,5.1,6.6,5,14.6c0,0.1,0,0.2,0,0.2c0,1,0.8,1.7,1.7,1.7
			C165.3,37.1,166.1,36.3,166.1,35.3C166.1,35.3,166.1,35.3,166.1,35.3z"/>
		<path class="st24" d="M184.6,63.2c-11.6-5.8-20.4-6.7-26.2-2.6c-8.9,6.3-7,21.6-6.9,22.2l0,0l0,0c0,1,0.8,1.7,1.7,1.7
			c1,0,1.7-0.8,1.7-1.7c0-0.2,0-0.4-0.1-0.6c-0.1-1.3-1.3-14,5.5-18.9c4.7-3.3,12.5-2.3,22.9,3l0,0c0.2,0.1,0.5,0.2,0.8,0.2
			c1,0,1.7-0.8,1.7-1.7C185.9,64.1,185.4,63.4,184.6,63.2z"/>
		<path class="st24" d="M222.4,51.3c-1.4-8.1-7.8-14.6-19-19.5c-0.1-2.9-1.1-10.1-7.2-15.8c-6.5-6-16.5-8.4-29.9-6.9
			c-2.6-2.2-13-10.4-25.2-8.4c-3.7,0.6-7.1,2-10.3,4.3c-8.5-4.9-16.8-6.2-24.7-3.9c-12.3,3.6-19.6,15-21.7,18.8
			c-7.2-1.6-13.5-0.6-18.8,3C56.1,29.4,52.9,42.3,52,47.4c-0.3,0.2-0.6,0.3-0.9,0.5c-8.5,5.5-14.3,13.1-16.9,22.2
			c-1.3,4.6-1.5,10.1-0.9,14.8c1.2,8.6,6.2,17.4,12.2,23.7c7.2,7.5,16.9,8,26.7,6.8c6.3-0.8,9.5-1.3,11.1-1.8
			c8.6,9.8,17.1,14.5,25.5,14c7.8-0.5,13.2-5.4,15.8-8.3c3.7,5.5,8.2,8.9,13.6,10.1c9.9,2.2,18.8-3.9,19.2-4.2
			c8.4-5.8,12.1-1.2,16.6,4.7c3.5,4.4,7.4,9.4,13.6,8c0.5-0.1,1-0.3,1.5-0.4c5.6-2,4.4-9.3,3.7-14.1c-0.2-1.2-0.4-2.7-0.4-3.4
			c3.3-1.6,20.2-10.1,22.8-23c1.2-5.7-0.6-11.4-5.3-16.9C213.7,76.2,224.6,64,222.4,51.3z M211.9,96.3
			c-2.5,12.3-21.2,20.7-21.4,20.8c-2,0.9-1.6,3.4-1,6.9c0.8,4.9,1.3,9.3-1.4,10.3c-4.6,1.7-7.3-1.4-11.3-6.5
			c-4.6-5.8-10.2-13.1-21.3-5.4c-0.1,0.1-8,5.5-16.5,3.7c-4.8-1.1-8.9-4.3-12.2-9.7c4-5.3,5.6-10.2,4.9-14.7c-0.7-4.7-3.9-7.3-4.9-8
			c-0.3-0.3-0.7-0.5-1.2-0.5c-1,0-1.7,0.8-1.7,1.7c0,0.6,0.3,1.2,0.8,1.5l0,0c0,0,3,1.9,3.6,5.8c0.5,3.2-0.6,6.9-3.4,10.9l0,0
			l-0.7,1c-0.5,0.7-1.1,1.5-1.7,2.2l0.1,0.1c-1.8,2.2-6.8,7.4-14,7.8c-7,0.4-14.4-3.6-21.9-12l0.1-0.1c-0.6-0.6-1.1-1.1-1.6-1.7
			c0,0,0,0,0,0l0,0c-3.9-4.2-5.7-8.2-5.5-11.8c0.2-3.3,2.2-5.4,2.9-6c0,0,0.1-0.1,0.1-0.1c0,0,0.1,0,0.1-0.1l0,0
			c0.3-0.3,0.4-0.7,0.4-1.1c0-1-0.8-1.7-1.7-1.7c-0.3,0-0.5,0.1-0.7,0.2l0,0c0,0-0.1,0.1-0.2,0.1c-0.1,0.1-0.3,0.2-0.4,0.3
			c-1.1,1-3.6,3.8-3.9,8.2c-0.3,4,1.3,8.1,4.7,12.4c-0.8,0.1-1.7,0.2-2.4,0.4c-4.6,0.8-9.3,1.2-13.9,1.7c-5.2,0.5-9.7-1.6-13.9-4.5
			C39.5,100.5,34,84,37.6,71c3.7-13.3,17.5-26.9,40.3-27.7c0,0,0.1,0,0.1,0c1,0,1.7-0.8,1.7-1.7c0-0.9-0.7-1.6-1.6-1.7l0,0
			c0,0-0.1,0-0.1,0c0,0,0,0,0,0c0,0-0.1,0-0.1,0c-7.8,0.3-15.5,2.2-22.2,5.5C57,40,60.3,30.6,67.5,25.7c4.7-3.2,10.5-4,17.3-2.2
			l1.4,0.4l0.6-1.3c0.1-0.1,7.2-14.4,20.3-18.2c6.5-1.9,13.5-0.9,20.8,2.9c-3.5,3.2-6.7,7.5-9.6,12.8l3,1.6
			c5.6-10.5,12.5-16.4,20.3-17.7c12.1-2,22.9,8,23,8.1l0.6,0.5l0.8-0.1c12.7-1.5,22.1,0.5,27.9,5.9c6.5,6,6.2,14.3,6.2,14.4
			l-0.1,1.2l1.1,0.5c10.7,4.4,16.7,10.3,18,17.3c2.1,12-10,24.3-12.2,26.4c-18.8,3.6-23.4-2.9-23.4-2.9l0,0
			c-0.2-0.7-0.9-1.1-1.6-1.1c-1,0-1.7,0.8-1.7,1.7c0,0.4,0.2,0.8,0.5,1.2l0,0c0.2,0.3,1.6,2.5,5.8,4.1c5.1,1.9,12.1,2.1,20.7,0.5
			C211.2,86.6,212.8,91.5,211.9,96.3z"/>
		<path class="st24" d="M115.1,79.5c-4.7-5.9-15.4-4.8-19-4.2c-5.1-7.1-10.6-10.7-16.5-10.7c-8.2,0-14,7.1-15.4,9
			c-0.3,0.3-0.6,0.8-0.6,1.3c0,1,0.8,1.7,1.7,1.7c0.5,0,1-0.3,1.3-0.6l0,0c0.1-0.1,5.5-7.9,12.9-7.9c4.9,0,9.7,3.4,14.3,10.2l0.7,1
			l1.1-0.2c3.4-0.7,13.1-1.7,16.7,2.7c2.4,3,1.9,8.2-1.5,15.5l0,0c-0.2,0.3-0.3,0.6-0.3,0.9c0,1,0.8,1.7,1.7,1.7
			c0.8,0,1.4-0.5,1.7-1.3C118,90,118.4,83.6,115.1,79.5z"/>
	</g>
</g>
</svg>
