<?xml version="1.0" encoding="utf-8"?>
<!-- Generator: Adobe Illustrator 21.0.0, SVG Export Plug-In . SVG Version: 6.00 Build 0)  -->
<svg version="1.1" id="Layer_1" xmlns="http://www.w3.org/2000/svg" xmlns:xlink="http://www.w3.org/1999/xlink" x="0px" y="0px"
	 viewBox="0 0 540.6 179.5" style="enable-background:new 0 0 540.6 179.5;" xml:space="preserve">
<style type="text/css">
	.st0{fill:#EDEDED;}
	.st1{fill:#685989;}
	.st2{fill:#864D7D;}
	.st3{fill:#BEDBC3;}
	.st4{fill:#9CC1C8;}
	.st5{opacity:0.5;fill:#9CC1C8;}
	.st6{fill:#D3DEE4;}
	.st7{fill:#007271;}
	.st8{fill:#369999;}
	.st9{fill:#4D2B2B;}
	.st10{fill:#3A1F1E;}
	.st11{fill:#E95B4E;}
	.st12{fill:#EE8268;}
	.st13{fill:#C83D36;}
	.st14{fill:#F6B99F;}
	.st15{fill:#EEE9DC;}
	.st16{fill:#F19775;}
	.st17{fill:#6B3E3F;}
	.st18{fill:#C7BDB7;}
	.st19{fill:#D1D5CA;}
	.st20{fill:#2B3668;}
	.st21{fill:#EE827D;}
	.st22{fill:#F87481;}
	.st23{fill:#FFFFFF;stroke:#FFFFFF;stroke-miterlimit:10;}
	.st24{fill:#FFFFFF;}
	.st25{opacity:0.3;clip-path:url(#SVGID_2_);}
	.st26{opacity:0.3;clip-path:url(#SVGID_4_);}
	.st27{opacity:0.3;clip-path:url(#SVGID_6_);}
	.st28{fill:#7087AF;}
	.st29{clip-path:url(#SVGID_8_);}
	.st30{fill:#B2555F;}
	.st31{fill:#47284F;}
	.st32{fill:#FFBF9B;}
	.st33{fill:#FFA687;}
	.st34{fill:#72426B;}
	.st35{fill:#FFC9AC;}
	.st36{fill:#C19884;}
	.st37{fill:#FFA68D;}
	.st38{fill:#13A6CE;}
	.st39{fill:#4E2447;}
	.st40{opacity:0.3;}
	.st41{fill:#1A2E35;}
	.st42{fill:#FFBF9D;}
	.st43{fill:#FF9A6C;}
	.st44{fill:#375A64;}
	.st45{fill:#E1E1E1;}
	.st46{opacity:0.2;}
	.st47{fill:#FF4F5B;}
	.st48{fill:#EBEBEB;}
	.st49{fill:#AA6550;}
	.st50{fill:#FAFAFA;}
</style>
<g>
	<path class="st22" d="M30,140.6c-0.9,0-1.7-0.3-2.4-1c-0.7-0.6-1-1.4-1-2.4V3.4c0-0.9,0.3-1.7,1-2.4c0.6-0.6,1.4-1,2.4-1
		c0.9,0,1.8,0.3,2.5,1c0.7,0.7,1.1,1.5,1.1,2.4v133.9c0,0.9-0.4,1.7-1.1,2.4C31.8,140.3,31,140.6,30,140.6z"/>
	<path class="st2" d="M93.7,47.8c-5.4,0-10.5,1-15.3,3.1c-4.7,2.1-8.9,4.9-12.4,8.4c-3.6,3.6-6.4,7.7-8.4,12.4
		c-2.1,4.7-3.1,9.8-3.1,15.1V87c0.1,0,0.2,0.2,0.2,0.5v49.4c0,0.9-0.4,1.7-1.1,2.4s-1.5,1-2.5,1c-0.9,0-1.7-0.3-2.4-1
		c-0.7-0.6-1-1.4-1-2.4V87.5v-0.7c0-6.2,1.2-12,3.5-17.6c2.3-5.6,5.7-10.5,10-14.9c4.4-4.4,9.3-7.7,14.9-9.9
		c5.6-2.2,11.4-3.4,17.6-3.4c6.2,0,12,1.1,17.6,3.4c5.6,2.2,10.5,5.6,14.9,9.9c4.3,4.4,7.5,9.4,9.9,14.9c2.3,5.6,3.5,11.4,3.5,17.6
		v50.1c0,2.2-1.1,3.4-3.4,3.4c-2.2,0-3.4-1.1-3.4-3.4V86.8c0-5.3-1-10.4-3.1-15.1c-2.1-4.7-4.9-8.9-8.4-12.4
		c-3.6-3.6-7.7-6.4-12.4-8.4C104.1,48.8,99.1,47.8,93.7,47.8z"/>
	<path class="st1" d="M191,66.6c5,0,9.7,0.9,14.2,2.8c4.5,1.9,8.5,4.6,11.9,8c3.4,3.6,6.1,7.6,8,12.1c1.9,4.5,2.8,9.2,2.8,14.2
		c0,5.1-1,9.9-2.9,14.4c-2,4.5-4.6,8.4-8,11.8c-3.4,3.4-7.3,6-11.8,8c-4.5,2-9.3,2.9-14.4,2.9c-5.1,0-9.9-1-14.4-2.9
		c-4.5-2-8.4-4.6-11.8-8c-3.4-3.4-6-7.3-8-11.8c-2-4.5-2.9-9.3-2.9-14.4v-0.5c0-0.9,0.3-1.7,1-2.4c0.6-0.6,1.4-1,2.4-1
		c0.9,0,1.8,0.3,2.5,1c0.7,0.7,1.1,1.5,1.1,2.4c0,0.2-0.1,0.4-0.2,0.5v0.2c0,4.1,0.8,8,2.4,11.6c1.6,3.6,3.8,6.8,6.6,9.5
		c2.8,2.7,6,4.9,9.7,6.5c3.7,1.6,7.6,2.4,11.7,2.4c4.1,0,8-0.8,11.7-2.4c3.7-1.6,6.9-3.8,9.6-6.5c2.7-2.7,4.9-5.9,6.5-9.6
		c1.6-3.7,2.4-7.6,2.4-11.7c0-4.1-0.8-8-2.4-11.7c-1.6-3.7-3.8-6.9-6.5-9.6c-2.7-2.7-5.9-4.9-9.6-6.5c-3.7-1.6-7.6-2.4-11.7-2.4
		h-0.2c-5.9-0.1-10.9-1.9-14.9-5.3c-3.6-2.8-6-6.6-7.3-11.2c-1.3-4.6-1.2-9,0.2-13.1c0.4-0.9,0.9-1.6,1.8-2c0.8-0.4,1.7-0.5,2.7-0.3
		c2,0.8,2.7,2.3,2.1,4.4c-0.9,3.1-1,6.2-0.1,9.2c0.9,3.1,2.6,5.7,5.1,7.8c2.7,2.1,6.3,3.3,10.7,3.6H191z"/>
	<path class="st28" d="M245.9,72.9c2.5-6,6.1-11.3,10.8-15.9c4.7-4.7,10.1-8.3,16.1-10.8c6-2.5,12.3-3.7,19.1-3.7s13.1,1.2,19.2,3.7
		c6,2.5,11.4,6.1,16.2,10.8c4.6,4.6,8.2,9.9,10.7,15.9c2.5,6,3.8,12.3,3.9,18.9V92v0.2c-0.1,6.6-1.4,12.9-3.9,18.9
		c-2.5,6-6,11.3-10.7,15.9c-4.7,4.7-10.1,8.3-16.2,10.8c-6,2.5-12.4,3.7-19.2,3.7c-0.9,0-1.7-0.3-2.4-1c-0.7-0.7-1-1.5-1-2.4
		c0-0.9,0.3-1.7,1-2.4c0.6-0.6,1.4-1,2.4-1c5.9,0,11.5-1.1,16.7-3.4c5.2-2.2,9.8-5.3,13.7-9.1c3.9-3.8,7-8.4,9.2-13.6
		c2.2-5.2,3.4-10.8,3.4-16.7c0-5.9-1.1-11.5-3.4-16.7c-2.2-5.2-5.3-9.7-9.2-13.6c-3.9-3.8-8.5-6.9-13.7-9.1
		c-5.2-2.2-10.8-3.4-16.7-3.4c-5.9,0-11.5,1.1-16.7,3.4c-5.2,2.2-9.8,5.3-13.7,9.2c-3.9,3.9-7,8.5-9.2,13.7
		c-2.2,5.2-3.4,10.8-3.4,16.7v0.2c0.1,0.1,0.2,0.3,0.2,0.5c0,0.2-0.1,0.4-0.2,0.5V176c0,0.9-0.3,1.8-1,2.5c-0.7,0.7-1.5,1.1-2.4,1.1
		c-0.9,0-1.7-0.4-2.4-1.1c-0.7-0.7-1-1.5-1-2.5V91.8C242.2,85.2,243.4,78.9,245.9,72.9z"/>
	<path class="st4" d="M359.4,22c-0.9,0-1.7-0.3-2.4-1c-0.7-0.6-1-1.4-1-2.4v-5.9c0-0.9,0.3-1.7,1-2.4c0.6-0.6,1.4-1,2.4-1
		c0.9,0,1.8,0.3,2.5,1c0.7,0.7,1.1,1.5,1.1,2.4v5.9c0,0.9-0.4,1.7-1.1,2.4C361.1,21.7,360.3,22,359.4,22z M359.4,140.8
		c-0.9,0-1.7-0.3-2.4-1c-0.7-0.7-1-1.4-1-2.4V44.7c0-0.9,0.3-1.8,1-2.5c0.6-0.7,1.4-1.1,2.4-1.1c0.9,0,1.8,0.4,2.5,1.1
		s1.1,1.5,1.1,2.5v92.7c0,1-0.4,1.7-1.1,2.4C361.1,140.5,360.3,140.8,359.4,140.8z"/>
	<path class="st3" d="M380.5,141c-0.9,0-1.7-0.3-2.4-1c-0.7-0.7-1-1.4-1-2.4V88.2v-0.2v-0.7c0-6.2,1.2-12,3.5-17.6
		c2.3-5.6,5.7-10.5,10-14.7c4.4-4.4,9.3-7.7,14.9-10c5.6-2.3,11.4-3.5,17.6-3.5c0.9,0,1.7,0.3,2.4,1c0.6,0.7,1,1.5,1,2.4
		c0,1-0.3,1.8-1,2.5c-0.7,0.7-1.5,1.1-2.4,1.1c-5.4,0-10.5,1-15.3,3c-4.7,2-8.9,4.8-12.4,8.3c-3.6,3.6-6.4,7.7-8.4,12.4
		c-2.1,4.7-3.1,9.8-3.1,15.1v0.2c0.1,0.1,0.2,0.3,0.2,0.5v49.5c0,0.9-0.4,1.7-1.1,2.4C382.3,140.6,381.4,141,380.5,141z"/>
	<path class="st22" d="M533.7,44.9c0-0.9,0.4-1.7,1.1-2.4c0.7-0.6,1.5-1,2.5-1c0.9,0,1.7,0.3,2.4,1c0.6,0.7,1,1.5,1,2.4v92.9
		c0,2.2-1.1,3.4-3.4,3.4c-0.9,0-1.8-0.3-2.5-1c-0.7-0.7-1.1-1.4-1.1-2.4v-21.1c-1.1,1.8-2.2,3.5-3.5,5.1c-1.2,1.7-2.6,3.3-4.2,4.8
		c-4.9,4.7-10.3,8.3-16.2,10.8c-6,2.5-12.3,3.7-19.1,3.7c-6.7,0-13.1-1.2-19.2-3.7s-11.5-6.1-16.3-10.8c-4.6-4.7-8.2-10.1-10.7-16
		c-2.5-5.9-3.8-12.3-3.8-19v-0.2v-0.2v-0.2c0.1-6.6,1.4-12.9,3.9-18.9c2.5-6,6-11.3,10.7-15.9c4.9-4.7,10.3-8.3,16.3-10.8
		s12.4-3.7,19.2-3.7c6.7,0,13.1,1.2,19.2,3.7s11.4,6.1,16.2,10.8c3.2,3.2,5.7,6.5,7.6,9.9V44.9z M490.7,134.4
		c5.9,0,11.5-1.1,16.7-3.4c5.2-2.2,9.8-5.3,13.7-9.2c3.9-3.9,7-8.5,9.2-13.7c2.2-5.2,3.4-10.8,3.4-16.7c0-5.9-1.1-11.5-3.4-16.7
		c-2.3-5.2-5.3-9.8-9.2-13.7c-3.9-3.9-8.5-7-13.7-9.2c-5.2-2.2-10.8-3.4-16.7-3.4c-5.9,0-11.5,1.1-16.6,3.3c-5.1,2.2-9.6,5.2-13.5,9
		c-3.8,3.8-7,8.2-9.3,13.2c-2.4,5-3.6,10.4-3.7,16.2v0.4v0.5v0.2v0.2c0,5.9,1.1,11.5,3.4,16.7c2.2,5.2,5.3,9.8,9.2,13.7
		c3.9,3.9,8.5,7,13.8,9.2C479.2,133.3,484.8,134.4,490.7,134.4z"/>
	<path class="st3" d="M22.6,58.4c0,0-23.9-0.7-22.5-22.1C0.1,36.2,18.4,35.9,22.6,58.4z"/>
	<path class="st3" d="M37.3,22.4c0,0,5.9-23.1,26.6-17.1C63.8,5.4,60.1,23.4,37.3,22.4z"/>
	<path class="st3" d="M5.5,12.8c0,0,15.2-0.7,15.4,13C20.9,25.9,9.2,27,5.5,12.8z"/>
</g>
</svg>
