<?xml version="1.0" encoding="utf-8"?>
<!-- Generator: Adobe Illustrator 21.0.0, SVG Export Plug-In . SVG Version: 6.00 Build 0)  -->
<svg version="1.1" id="Layer_1" xmlns="http://www.w3.org/2000/svg" xmlns:xlink="http://www.w3.org/1999/xlink" x="0px" y="0px"
	 viewBox="0 0 474.9 165.7" style="enable-background:new 0 0 474.9 165.7;" xml:space="preserve">
<style type="text/css">
	.st0{fill:#EDEDED;}
	.st1{fill:#685989;}
	.st2{fill:#864D7D;}
	.st3{fill:#BEDBC3;}
	.st4{fill:#9CC1C8;}
	.st5{opacity:0.5;fill:#9CC1C8;}
	.st6{fill:#D3DEE4;}
	.st7{fill:#007271;}
	.st8{fill:#369999;}
	.st9{fill:#4D2B2B;}
	.st10{fill:#3A1F1E;}
	.st11{fill:#E95B4E;}
	.st12{fill:#EE8268;}
	.st13{fill:#C83D36;}
	.st14{fill:#F6B99F;}
	.st15{fill:#EEE9DC;}
	.st16{fill:#F19775;}
	.st17{fill:#6B3E3F;}
	.st18{fill:#C7BDB7;}
	.st19{fill:#D1D5CA;}
	.st20{fill:#2B3668;}
	.st21{fill:#EE827D;}
	.st22{fill:#F87481;}
	.st23{fill:#FFFFFF;stroke:#FFFFFF;stroke-miterlimit:10;}
	.st24{fill:#FFFFFF;}
	.st25{opacity:0.3;clip-path:url(#SVGID_2_);}
	.st26{opacity:0.3;clip-path:url(#SVGID_4_);}
	.st27{opacity:0.3;clip-path:url(#SVGID_6_);}
	.st28{fill:#7087AF;}
	.st29{clip-path:url(#SVGID_8_);}
	.st30{fill:#B2555F;}
	.st31{fill:#47284F;}
	.st32{fill:#FFBF9B;}
	.st33{fill:#FFA687;}
	.st34{fill:#72426B;}
	.st35{fill:#FFC9AC;}
	.st36{fill:#C19884;}
	.st37{fill:#FFA68D;}
	.st38{fill:#13A6CE;}
	.st39{fill:#4E2447;}
	.st40{opacity:0.3;}
	.st41{fill:#1A2E35;}
	.st42{fill:#FFBF9D;}
	.st43{fill:#FF9A6C;}
	.st44{fill:#375A64;}
	.st45{fill:#E1E1E1;}
	.st46{opacity:0.2;}
	.st47{fill:#FF4F5B;}
	.st48{fill:#EBEBEB;}
	.st49{fill:#AA6550;}
	.st50{fill:#FAFAFA;}
</style>
<g>
	<g>
		<path class="st22" d="M446.7,117.5c-0.8,0-1.5-0.3-2-0.8c-0.5-0.5-0.8-1.2-0.8-2V2.8c0-0.8,0.3-1.5,0.8-2c0.5-0.5,1.2-0.8,2-0.8
			c0.8,0,1.5,0.3,2.1,0.8c0.6,0.5,0.9,1.2,0.9,2v111.9c0,0.8-0.3,1.5-0.9,2C448.1,117.2,447.5,117.5,446.7,117.5z"/>
		<path class="st3" d="M440.5,48.8c0,0-19.9-0.6-18.8-18.5C421.6,30.3,437,30,440.5,48.8z"/>
		<path class="st3" d="M452.7,18.8c0,0,4.9-19.3,22.2-14.3C474.9,4.5,471.8,19.5,452.7,18.8z"/>
		<path class="st3" d="M426.2,10.7c0,0,12.7-0.6,12.8,10.9C439,21.6,429.3,22.5,426.2,10.7z"/>
	</g>
	<g>
		<path class="st22" d="M123.1,125.9c0,0.8-0.3,1.5-0.9,2.1c-0.6,0.6-1.3,0.9-2.1,0.9H3c-0.8,0-1.5-0.3-2.1-0.9
			c-0.6-0.6-0.9-1.3-0.9-2.1c0-0.8,0.3-1.6,0.9-2.2c0.6-0.6,1.3-0.9,2.1-0.9h117.2c0.8,0,1.5,0.3,2.1,0.9
			C122.8,124.3,123.1,125,123.1,125.9z"/>
		<path class="st3" d="M51.1,132.4c0,0-0.6,20.9-19.4,19.7C31.7,152.1,31.4,136,51.1,132.4z"/>
		<path class="st3" d="M19.6,119.5c0,0-20.2-5.2-14.9-23.3C4.7,96.3,20.5,99.5,19.6,119.5z"/>
		<path class="st3" d="M11.2,147.3c0,0-0.6-13.3,11.4-13.5C22.7,133.9,23.6,144.1,11.2,147.3z"/>
	</g>
	<g>
		<rect x="88.5" y="85.3" class="st2" width="375.6" height="80.5"/>
		<g>
			<path class="st24" d="M160.1,141.4l5.6,5c-6.8,6.2-14,9.3-21.6,9.3c-8.1,0-15-2.9-20.7-8.6c-5.7-5.7-8.6-12.6-8.6-20.7
				c0-8.1,2.9-15,8.6-20.7c5.7-5.7,12.6-8.6,20.7-8.6c7.6,0,14.8,3.1,21.6,9.3l-5.6,5.1c-5.1-4.5-10.4-6.8-16-6.8
				c-6,0-11.1,2.1-15.4,6.4c-4.3,4.3-6.4,9.4-6.4,15.4c0,6,2.1,11.2,6.4,15.5c4.3,4.3,9.4,6.4,15.4,6.4
				C149.6,148.2,155,145.9,160.1,141.4z"/>
			<path class="st24" d="M227.5,105.5c5.7,5.7,8.6,12.7,8.6,20.8c0,8.1-2.9,15-8.6,20.8c-5.7,5.7-12.7,8.6-20.8,8.6
				c-8.1,0-15-2.9-20.8-8.6c-5.7-5.7-8.6-12.7-8.6-20.8c0-8.1,2.9-15,8.6-20.8c5.7-5.7,12.7-8.6,20.8-8.6
				C214.8,96.9,221.8,99.8,227.5,105.5z M206.7,104.4c-6,0-11.2,2.1-15.5,6.4c-4.3,4.3-6.4,9.4-6.4,15.5c0,6,2.1,11.2,6.4,15.5
				c4.3,4.3,9.4,6.4,15.5,6.4c6,0,11.2-2.1,15.5-6.4c4.3-4.3,6.4-9.4,6.4-15.5c0-6-2.1-11.2-6.4-15.5
				C217.9,106.5,212.8,104.4,206.7,104.4z"/>
			<path class="st24" d="M280.6,97.7v7.4h-23.5v17.5h23.5v7.4h-23.5v17.5h23.5v7.5h-30.9V97.7H280.6z"/>
			<path class="st24" d="M294.1,155V97.7h7.4v49.9h20.5v7.5H294.1z"/>
			<path class="st24" d="M334.3,155V97.7h7.4v49.9h20.5v7.5H334.3z"/>
			<path class="st24" d="M421.2,105.5c5.7,5.7,8.6,12.7,8.6,20.8c0,8.1-2.9,15-8.6,20.8c-5.7,5.7-12.7,8.6-20.8,8.6
				c-8.1,0-15-2.9-20.8-8.6c-5.7-5.7-8.6-12.7-8.6-20.8c0-8.1,2.9-15,8.6-20.8c5.7-5.7,12.7-8.6,20.8-8.6
				C408.5,96.9,415.4,99.8,421.2,105.5z M400.4,104.4c-6,0-11.2,2.1-15.5,6.4c-4.3,4.3-6.4,9.4-6.4,15.5c0,6,2.1,11.2,6.4,15.5
				c4.3,4.3,9.4,6.4,15.5,6.4c6,0,11.2-2.1,15.5-6.4c4.3-4.3,6.4-9.4,6.4-15.5c0-6-2.1-11.2-6.4-15.5
				C411.6,106.5,406.5,104.4,400.4,104.4z"/>
		</g>
		<rect x="1" class="st4" width="400.3" height="85.3"/>
		<g>
			<path class="st24" d="M27.8,15.4l18.6,32.2l18.5-32.2h6.8v57.4h-7.4V31.3l-17.9,31l-18-31v41.5H21V15.4H27.8z"/>
			<path class="st24" d="M96,15.4v57.4h-7.4V15.4H96z"/>
			<path class="st24" d="M155.6,59.1l5.6,5c-6.8,6.2-14,9.3-21.6,9.3c-8.1,0-15-2.9-20.7-8.6c-5.7-5.7-8.6-12.6-8.6-20.7
				c0-8.1,2.9-15,8.6-20.7c5.7-5.7,12.6-8.6,20.7-8.6c7.6,0,14.8,3.1,21.6,9.3l-5.6,5.1c-5.1-4.5-10.4-6.8-16-6.8
				c-6,0-11.1,2.1-15.4,6.4c-4.3,4.3-6.4,9.4-6.4,15.4c0,6,2.1,11.2,6.4,15.5c4.3,4.3,9.4,6.4,15.4,6.4
				C145.1,65.9,150.5,63.7,155.6,59.1z"/>
			<path class="st24" d="M181.2,49v23.7h-7.4V15.4h7.4v26.2h17.7V15.4h7.4v57.4h-7.4V49H181.2z"/>
			<path class="st24" d="M251.7,15.4v7.4h-23.5v17.5h23.5v7.4h-23.5v17.5h23.5v7.5h-30.9V15.4H251.7z"/>
			<path class="st24" d="M265.2,72.8V15.4h7.4v49.9h20.5v7.5H265.2z"/>
			<path class="st24" d="M305.4,72.8V15.4h7.4v49.9h20.5v7.5H305.4z"/>
			<path class="st24" d="M376.6,15.4v7.4h-23.5v17.5h23.5v7.4h-23.5v17.5h23.5v7.5h-30.9V15.4H376.6z"/>
		</g>
	</g>
</g>
</svg>
