<?xml version="1.0" encoding="utf-8"?>
<!-- Generator: Adobe Illustrator 21.0.0, SVG Export Plug-In . SVG Version: 6.00 Build 0)  -->
<svg version="1.1" id="Layer_1" xmlns="http://www.w3.org/2000/svg" xmlns:xlink="http://www.w3.org/1999/xlink" x="0px" y="0px"
	 viewBox="0 0 228.2 38.2" style="enable-background:new 0 0 228.2 38.2;" xml:space="preserve">
<style type="text/css">
	.st0{fill:#EDEDED;}
	.st1{fill:#685989;}
	.st2{fill:#864D7D;}
	.st3{fill:#BEDBC3;}
	.st4{fill:#9CC1C8;}
	.st5{opacity:0.5;fill:#9CC1C8;}
	.st6{fill:#D3DEE4;}
	.st7{fill:#007271;}
	.st8{fill:#369999;}
	.st9{fill:#4D2B2B;}
	.st10{fill:#3A1F1E;}
	.st11{fill:#E95B4E;}
	.st12{fill:#EE8268;}
	.st13{fill:#C83D36;}
	.st14{fill:#F6B99F;}
	.st15{fill:#EEE9DC;}
	.st16{fill:#F19775;}
	.st17{fill:#6B3E3F;}
	.st18{fill:#C7BDB7;}
	.st19{fill:#D1D5CA;}
	.st20{fill:#2B3668;}
	.st21{fill:#EE827D;}
	.st22{fill:#F87481;}
	.st23{fill:#FFFFFF;stroke:#FFFFFF;stroke-miterlimit:10;}
	.st24{fill:#FFFFFF;}
	.st25{opacity:0.3;clip-path:url(#SVGID_2_);}
	.st26{opacity:0.3;clip-path:url(#SVGID_4_);}
	.st27{opacity:0.3;clip-path:url(#SVGID_6_);}
	.st28{fill:#7087AF;}
	.st29{clip-path:url(#SVGID_8_);}
	.st30{fill:#B2555F;}
	.st31{fill:#47284F;}
	.st32{fill:#FFBF9B;}
	.st33{fill:#FFA687;}
	.st34{fill:#72426B;}
	.st35{fill:#FFC9AC;}
	.st36{fill:#C19884;}
	.st37{fill:#FFA68D;}
	.st38{fill:#13A6CE;}
	.st39{fill:#4E2447;}
	.st40{opacity:0.3;}
	.st41{fill:#1A2E35;}
	.st42{fill:#FFBF9D;}
	.st43{fill:#FF9A6C;}
	.st44{fill:#375A64;}
	.st45{fill:#E1E1E1;}
	.st46{opacity:0.2;}
	.st47{fill:#FF4F5B;}
	.st48{fill:#EBEBEB;}
	.st49{fill:#AA6550;}
	.st50{fill:#FAFAFA;}
</style>
<g>
	<g>
		<path class="st2" d="M209.9,38.2H13.5C6,38.2,0,32.1,0,24.7V13.5C0,6,6,0,13.5,0h194.7c11,0,19.9,8.9,19.9,19.9v0
			C228.2,30,220,38.2,209.9,38.2z"/>
	</g>
	<g>
		<path class="st2" d="M18.2,0h196.4c7.5,0,13.5,6,13.5,13.5v11.2c0,7.5-6,13.5-13.5,13.5H19.9C8.9,38.2,0,29.2,0,18.2v0
			C0,8.2,8.2,0,18.2,0z"/>
	</g>
	<g>
		<rect x="173" y="18.1" class="st24" width="30.6" height="2"/>
	</g>
	<g>
		<g>
			<g>
				<path class="st24" d="M80,24.2l-2-4c-0.1,0-0.1,0-0.2,0h-1.7v4h-2.9v-12h4.6c3,0,4.6,1.7,4.6,4.1c0,1.4-0.7,2.5-1.8,3.2l2.5,4.7
					H80z M76.2,17.7h1.7c0.9,0,1.6-0.3,1.6-1.4c0-0.9-0.7-1.4-1.6-1.4h-1.7V17.7z"/>
			</g>
			<g>
				<path class="st24" d="M91.6,21.4v2.7h-7.5v-12h7.4V15H87v1.8h3.9v2.6H87v2H91.6z"/>
			</g>
			<g>
				<path class="st24" d="M102,20.7c0,1.9-1.7,3.7-4.7,3.7c-2.2,0-4.3-0.9-4.8-3.1l2.7-0.8c0.2,0.7,0.8,1.4,2.1,1.4
					c1,0,1.8-0.4,1.8-1.2c0-0.9-1.2-1-2.5-1.4c-2.4-0.6-3.5-1.7-3.5-3.7c0-2.3,1.9-3.7,4.4-3.7c2,0,3.8,1.1,4.3,3L99,15.7
					c-0.2-0.6-0.6-1.2-1.7-1.2c-0.9,0-1.4,0.5-1.4,1.1c0,0.9,1.4,1.2,2.3,1.4C101.1,17.9,102,18.8,102,20.7z"/>
			</g>
			<g>
				<path class="st24" d="M110.7,21.4v2.7h-7.5v-12h7.4V15h-4.4v1.8h3.9v2.6h-3.9v2H110.7z"/>
			</g>
			<g>
				<path class="st24" d="M118.9,24.2l-2-4c-0.1,0-0.1,0-0.2,0h-1.7v4h-2.9v-12h4.6c3,0,4.6,1.7,4.6,4.1c0,1.4-0.7,2.5-1.8,3.2
					l2.5,4.7H118.9z M115.1,17.7h1.7c0.9,0,1.6-0.3,1.6-1.4c0-0.9-0.7-1.4-1.6-1.4h-1.7V17.7z"/>
			</g>
			<g>
				<path class="st24" d="M133.9,12.2l-4.3,12h-3.5l-4.3-12h3.1l3,9.4l3-9.4H133.9z"/>
			</g>
			<g>
				<path class="st24" d="M141.3,22h-4.5l-0.7,2.2H133l4.3-12h3.4l4.3,12H142L141.3,22z M140.6,19.7l-1.6-5l-1.6,5H140.6z"/>
			</g>
			<g>
				<path class="st24" d="M152.9,24.2l-2-4c-0.1,0-0.1,0-0.2,0H149v4h-2.9v-12h4.6c3,0,4.6,1.7,4.6,4.1c0,1.4-0.7,2.5-1.8,3.2
					l2.5,4.7H152.9z M149,17.7h1.7c0.9,0,1.6-0.3,1.6-1.4c0-0.9-0.7-1.4-1.6-1.4H149V17.7z"/>
			</g>
		</g>
		<g>
			<polygon class="st24" points="198.6,26.5 197.1,25.2 202.3,19 197,11.9 198.6,10.7 204.9,19.1 			"/>
		</g>
	</g>
</g>
</svg>
