<?xml version="1.0" encoding="utf-8"?>
<!-- Generator: Adobe Illustrator 21.0.0, SVG Export Plug-In . SVG Version: 6.00 Build 0)  -->
<svg version="1.1" id="Layer_1" xmlns="http://www.w3.org/2000/svg" xmlns:xlink="http://www.w3.org/1999/xlink" x="0px" y="0px"
	 viewBox="0 0 465.3 85.3" style="enable-background:new 0 0 465.3 85.3;" xml:space="preserve">
<style type="text/css">
	.st0{fill:#EDEDED;}
	.st1{fill:#685989;}
	.st2{fill:#864D7D;}
	.st3{fill:#BEDBC3;}
	.st4{fill:#9CC1C8;}
	.st5{opacity:0.5;fill:#9CC1C8;}
	.st6{fill:#D3DEE4;}
	.st7{fill:#007271;}
	.st8{fill:#369999;}
	.st9{fill:#4D2B2B;}
	.st10{fill:#3A1F1E;}
	.st11{fill:#E95B4E;}
	.st12{fill:#EE8268;}
	.st13{fill:#C83D36;}
	.st14{fill:#F6B99F;}
	.st15{fill:#EEE9DC;}
	.st16{fill:#F19775;}
	.st17{fill:#6B3E3F;}
	.st18{fill:#C7BDB7;}
	.st19{fill:#D1D5CA;}
	.st20{fill:#2B3668;}
	.st21{fill:#EE827D;}
	.st22{fill:#F87481;}
	.st23{fill:#FFFFFF;stroke:#FFFFFF;stroke-miterlimit:10;}
	.st24{fill:#FFFFFF;}
	.st25{opacity:0.3;clip-path:url(#SVGID_2_);}
	.st26{opacity:0.3;clip-path:url(#SVGID_4_);}
	.st27{opacity:0.3;clip-path:url(#SVGID_6_);}
	.st28{fill:#7087AF;}
	.st29{clip-path:url(#SVGID_8_);}
	.st30{fill:#B2555F;}
	.st31{fill:#47284F;}
	.st32{fill:#FFBF9B;}
	.st33{fill:#FFA687;}
	.st34{fill:#72426B;}
	.st35{fill:#FFC9AC;}
	.st36{fill:#C19884;}
	.st37{fill:#FFA68D;}
	.st38{fill:#13A6CE;}
	.st39{fill:#4E2447;}
	.st40{opacity:0.3;}
	.st41{fill:#1A2E35;}
	.st42{fill:#FFBF9D;}
	.st43{fill:#FF9A6C;}
	.st44{fill:#375A64;}
	.st45{fill:#E1E1E1;}
	.st46{opacity:0.2;}
	.st47{fill:#FF4F5B;}
	.st48{fill:#EBEBEB;}
	.st49{fill:#AA6550;}
	.st50{fill:#FAFAFA;}
</style>
<g>
	<rect x="0" class="st4" width="465.3" height="85.3"/>
	<g>
		<path class="st24" d="M47.8,43.3c-4.1-1.4-7.4-3.3-9.9-5.8c-2.5-2.5-3.8-5.6-3.8-9.4c0-3.7,1.3-6.8,3.9-9.4
			c2.6-2.6,5.8-3.9,9.5-3.9c3.7,0,6.8,1.3,9.5,3.9c1.5,1.4,2.7,3.7,3.7,6.9L54,28.2c-0.8-2.2-1.6-3.6-2.2-4.3
			c-1.2-1.1-2.6-1.7-4.2-1.7c-1.7,0-3.1,0.6-4.3,1.7c-1.2,1.2-1.8,2.6-1.8,4.2c0,1.7,0.6,3.1,1.8,4.3c1.3,1.3,3.1,2.5,5.5,3.6
			c4.5,1.5,8.3,3.8,11.4,6.9c3.5,3.5,5.3,7.7,5.3,12.6c0,4.9-1.8,9.2-5.3,12.7c-3.5,3.5-7.7,5.3-12.6,5.3c-4.9,0-9.2-1.8-12.7-5.3
			c-2.8-2.8-4.6-6.7-5.3-11.6l7.2-2.6c0.5,4.2,1.6,7.2,3.3,9c2.1,2.1,4.5,3.1,7.4,3.1c2.9,0,5.4-1,7.4-3.1c2.1-2.1,3.1-4.5,3.1-7.5
			c0-2.9-1-5.4-3.1-7.4C53,46.1,50.6,44.5,47.8,43.3z"/>
		<path class="st24" d="M107.2,15.4v7.4H83.7v17.5h23.5v7.4H83.7v17.5h23.5v7.5H76.3V15.4H107.2z"/>
		<path class="st24" d="M135,54.4h-6.8v18.4h-7.4V15.4H137c4.6,0.6,8.5,2.5,11.7,5.7c3.8,3.8,5.7,8.4,5.7,13.8
			c0,5.4-1.9,10-5.7,13.8c-2.6,2.6-4.6,4.1-6,4.4l12.7,19.6h-9L135,54.4z M128.2,22.9V47h6.8c3.3,0,6.1-1.2,8.5-3.5
			c2.4-2.4,3.5-5.2,3.5-8.6c0-3.3-1.2-6.2-3.5-8.5c-2.4-2.3-5.2-3.5-8.5-3.5H128.2z"/>
		<path class="st24" d="M183.3,72.8l-20.8-57.4h7.9l15,41.1l15-41.1h7.9l-20.9,57.4H183.3z"/>
		<path class="st24" d="M227.2,15.4v57.4h-7.4V15.4H227.2z"/>
		<path class="st24" d="M286.8,59.1l5.6,5c-6.8,6.2-14,9.3-21.6,9.3c-8.1,0-15-2.9-20.7-8.6c-5.7-5.7-8.6-12.6-8.6-20.7
			c0-8.1,2.9-15,8.6-20.7c5.7-5.7,12.6-8.6,20.7-8.6c7.6,0,14.8,3.1,21.6,9.3l-5.6,5.1c-5.1-4.5-10.4-6.8-16-6.8
			c-6,0-11.1,2.1-15.4,6.4c-4.3,4.3-6.4,9.4-6.4,15.4c0,6,2.1,11.2,6.4,15.5c4.3,4.3,9.4,6.4,15.4,6.4
			C276.4,65.9,281.7,63.7,286.8,59.1z"/>
		<path class="st24" d="M313.1,15.4v57.4h-7.4V15.4H313.1z"/>
		<path class="st24" d="M377.5,23.3c5.7,5.7,8.6,12.7,8.6,20.8c0,8.1-2.9,15-8.6,20.8c-5.7,5.7-12.7,8.6-20.8,8.6s-15-2.9-20.8-8.6
			c-5.7-5.7-8.6-12.7-8.6-20.8c0-8.1,2.9-15,8.6-20.8c5.7-5.7,12.7-8.6,20.8-8.6S371.8,17.5,377.5,23.3z M356.8,22.1
			c-6,0-11.2,2.1-15.5,6.4s-6.4,9.4-6.4,15.5c0,6,2.1,11.2,6.4,15.5c4.3,4.3,9.4,6.4,15.5,6.4c6,0,11.2-2.1,15.5-6.4
			c4.3-4.3,6.4-9.4,6.4-15.5c0-6-2.1-11.2-6.4-15.5C368,24.3,362.8,22.1,356.8,22.1z"/>
		<path class="st24" d="M414.3,43.3c-4.1-1.4-7.4-3.3-9.9-5.8c-2.5-2.5-3.8-5.6-3.8-9.4c0-3.7,1.3-6.8,3.9-9.4
			c2.6-2.6,5.8-3.9,9.5-3.9c3.7,0,6.8,1.3,9.5,3.9c1.5,1.4,2.7,3.7,3.7,6.9l-6.7,2.7c-0.8-2.2-1.6-3.6-2.2-4.3
			c-1.2-1.1-2.6-1.7-4.2-1.7c-1.7,0-3.1,0.6-4.3,1.7c-1.2,1.2-1.8,2.6-1.8,4.2c0,1.7,0.6,3.1,1.8,4.3c1.3,1.3,3.1,2.5,5.5,3.6
			c4.5,1.5,8.3,3.8,11.4,6.9c3.5,3.5,5.3,7.7,5.3,12.6c0,4.9-1.8,9.2-5.3,12.7c-3.5,3.5-7.7,5.3-12.6,5.3c-4.9,0-9.2-1.8-12.7-5.3
			c-2.8-2.8-4.6-6.7-5.3-11.6l7.2-2.6c0.5,4.2,1.6,7.2,3.3,9c2.1,2.1,4.5,3.1,7.4,3.1c2.9,0,5.4-1,7.4-3.1c2.1-2.1,3.1-4.5,3.1-7.5
			c0-2.9-1-5.4-3.1-7.4C419.6,46.1,417.2,44.5,414.3,43.3z"/>
	</g>
</g>
</svg>
