<?xml version="1.0" encoding="utf-8"?>
<!-- Generator: Adobe Illustrator 21.0.0, SVG Export Plug-In . SVG Version: 6.00 Build 0)  -->
<svg version="1.1" id="Layer_1" xmlns="http://www.w3.org/2000/svg" xmlns:xlink="http://www.w3.org/1999/xlink" x="0px" y="0px"
	 viewBox="0 0 64 64" style="enable-background:new 0 0 64 64;" xml:space="preserve">
<style type="text/css">
	.st0{fill:#EDEDED;}
	.st1{fill:#685989;}
	.st2{fill:#864D7D;}
	.st3{fill:#BEDBC3;}
	.st4{fill:#9CC1C8;}
	.st5{opacity:0.5;fill:#9CC1C8;}
	.st6{fill:#D3DEE4;}
	.st7{fill:#007271;}
	.st8{fill:#369999;}
	.st9{fill:#4D2B2B;}
	.st10{fill:#3A1F1E;}
	.st11{fill:#E95B4E;}
	.st12{fill:#EE8268;}
	.st13{fill:#C83D36;}
	.st14{fill:#F6B99F;}
	.st15{fill:#EEE9DC;}
	.st16{fill:#F19775;}
	.st17{fill:#6B3E3F;}
	.st18{fill:#C7BDB7;}
	.st19{fill:#D1D5CA;}
	.st20{fill:#2B3668;}
	.st21{fill:#EE827D;}
	.st22{fill:#F87481;}
	.st23{fill:#FFFFFF;stroke:#FFFFFF;stroke-miterlimit:10;}
	.st24{fill:#FFFFFF;}
	.st25{opacity:0.3;clip-path:url(#SVGID_2_);}
	.st26{opacity:0.3;clip-path:url(#SVGID_4_);}
	.st27{opacity:0.3;clip-path:url(#SVGID_6_);}
	.st28{fill:#7087AF;}
	.st29{clip-path:url(#SVGID_8_);}
	.st30{fill:#B2555F;}
	.st31{fill:#47284F;}
	.st32{fill:#FFBF9B;}
	.st33{fill:#FFA687;}
	.st34{fill:#72426B;}
	.st35{fill:#FFC9AC;}
	.st36{fill:#C19884;}
	.st37{fill:#FFA68D;}
	.st38{fill:#13A6CE;}
	.st39{fill:#4E2447;}
	.st40{opacity:0.3;}
	.st41{fill:#1A2E35;}
	.st42{fill:#FFBF9D;}
	.st43{fill:#FF9A6C;}
	.st44{fill:#375A64;}
	.st45{fill:#E1E1E1;}
	.st46{opacity:0.2;}
	.st47{fill:#FF4F5B;}
	.st48{fill:#EBEBEB;}
	.st49{fill:#AA6550;}
	.st50{fill:#FAFAFA;}
</style>
<g>
	<g>
		<path class="st24" d="M17.7,47.6c0.5-2.2,0.9-4.1,1.3-6c0.1-0.4,0-0.9-0.2-1.3c-5.8-9.6-0.4-21.6,10.6-23.7
			c9.8-1.8,19,6.6,18.1,16.5c-1,11.3-12.3,17.6-22.6,12.7c-0.4-0.2-0.9-0.2-1.3-0.1C21.7,46.3,19.8,47,17.7,47.6z M20.2,44.9
			c1.5-0.5,2.8-0.9,4.1-1.2c0.4-0.1,0.9-0.1,1.3,0.1c2.6,1.3,5.4,1.9,8.3,1.5c7.4-1,12.7-8.3,11.3-15.7c-1.4-7.4-8.9-12.4-16.2-10.6
			c-9.1,2.2-13.3,12.5-8.2,20.4c0.3,0.4,0.3,1.1,0.3,1.5C20.8,42.2,20.5,43.4,20.2,44.9z"/>
		<path class="st24" d="M36,39.7c-3.5,0-5.6-1.7-7.6-3.6c-1.9-1.9-3.5-4-3.7-6.8c-0.2-1.6,0-3.1,1.3-4.3c1.2-1.1,2.2-0.9,2.8,0.6
			c0.2,0.4,0.3,0.8,0.5,1.2c0.6,1.2,0.6,2.2-0.5,3.1c-0.2,0.1-0.2,0.8-0.1,1c1.4,1.6,2.8,3.1,4.2,4.6c0.2,0.2,0.9,0.1,1.2-0.1
			c0.8-0.7,1.6-0.9,2.6-0.3c0.6,0.3,1.2,0.5,1.8,0.8c1.1,0.6,1.2,1.4,0.5,2.4C38,39.5,36.8,39.8,36,39.7z"/>
	</g>
	<g>
		<path class="st2" d="M32,64C14.4,64,0,49.6,0,32S14.4,0,32,0c17.6,0,32,14.4,32,32S49.6,64,32,64z M32,3C16,3,3,16,3,32
			s13,29,29,29s29-13,29-29S48,3,32,3z"/>
	</g>
</g>
</svg>
